<?xml version="1.0" encoding="utf-8"?>
<!-- Generator: Adobe Illustrator 26.1.0, SVG Export Plug-In . SVG Version: 6.00 Build 0)  -->
<svg version="1.1" id="Layer_1" xmlns="http://www.w3.org/2000/svg" xmlns:xlink="http://www.w3.org/1999/xlink" x="0px" y="0px"
	 viewBox="0 0 1235.66 856" style="enable-background:new 0 0 1235.66 856;" xml:space="preserve">
<style type="text/css">
	.st0{fill-rule:evenodd;clip-rule:evenodd;fill:#0A5796;}
	.st1{fill-rule:evenodd;clip-rule:evenodd;fill:#C97417;}
	.st2{fill-rule:evenodd;clip-rule:evenodd;fill:#004179;}
	.st3{fill-rule:evenodd;clip-rule:evenodd;fill:#0472CF;}
	.st4{fill-rule:evenodd;clip-rule:evenodd;fill:#2E8DFF;}
	.st5{fill-rule:evenodd;clip-rule:evenodd;fill:#4A9CFF;}
	.st6{fill-rule:evenodd;clip-rule:evenodd;fill:#00F7FF;}
	.st7{fill-rule:evenodd;clip-rule:evenodd;fill:#F7931A;}
	.st8{fill-rule:evenodd;clip-rule:evenodd;fill:#FFFDFC;}
	.st9{fill-rule:evenodd;clip-rule:evenodd;fill:#4ACCFF;}
	.st10{fill-rule:evenodd;clip-rule:evenodd;fill:#00B7FF;}
	.st11{fill-rule:evenodd;clip-rule:evenodd;fill:#1467DB;}
	.st12{fill-rule:evenodd;clip-rule:evenodd;fill:#4298FF;}
	.st13{clip-path:url(#SVGID_00000042722067506614141910000018063543747536734898_);fill:#FFFDFC;}
	.st14{clip-path:url(#SVGID_00000067954098595842994290000006986488717994795431_);fill:#FFFDFC;}
	.st15{clip-path:url(#SVGID_00000100373800602638089870000012099741821621505453_);fill:#FFFDFC;}
	.st16{clip-path:url(#SVGID_00000057835189151907943740000004757271356045345465_);fill:#FFFDFC;}
	.st17{clip-path:url(#SVGID_00000029043535237706419270000009921227981123391625_);fill:#FFFDFC;}
	.st18{clip-path:url(#SVGID_00000135676475395314122210000015865284867242523309_);fill:#FFFDFC;}
	.st19{clip-path:url(#SVGID_00000010274990173993724830000002176540396677454761_);fill:#FFFDFC;}
	.st20{clip-path:url(#SVGID_00000077319269870101566900000008408181736696696193_);fill:#FFFDFC;}
	.st21{fill:none;}
</style>
<path class="st0" d="M408.02,39.62l13.41-13.42c4.3-4.3,9.53-6.46,15.61-6.46h56.16c6.08,0,11.31,2.17,15.61,6.46l15.93,15.93h47.51
	c6.08,0,11.31,2.17,15.61,6.46l8.69,8.69c4.3,4.3,6.47,9.53,6.47,15.61v11.79c0,6.08-2.17,11.31-6.47,15.61l-80.99,80.99
	c-8.59,8.6-22.62,8.6-31.21,0l-4.34-4.34c-4.3-4.3-6.47-9.53-6.47-15.61V127.9l-42.61-24.6h-70.99c-6.08,0-11.31-2.17-15.61-6.46
	L334.18,86.7c-8.6-8.6-8.6-22.62,0-31.21l9.4-9.4c4.3-4.3,9.53-6.46,15.61-6.46H408.02L408.02,39.62z M646.2,85.03
	c0.79-4.25,2.88-8.26,6.17-11.55l1.46-1.46c4.3-4.3,9.53-6.46,15.61-6.46h32.83c9.12,0,16.9,5.2,20.39,13.62
	c3.49,8.42,1.66,17.61-4.79,24.05l-1.46,1.46c-4.3,4.3-9.53,6.46-15.61,6.46h-32.83c-2.47,0-4.84-0.38-7.05-1.1
	c-0.79,4.25-2.88,8.26-6.17,11.55l-2.05,2.05c-6.44,6.45-15.63,8.27-24.05,4.79c-8.42-3.49-13.62-11.27-13.62-20.39v-1.99
	c0-6.08,2.17-11.31,6.46-15.61l0.06-0.06c4.3-4.3,9.53-6.46,15.61-6.46h1.99C641.61,83.93,643.98,84.31,646.2,85.03L646.2,85.03z
	 M984.15,444.32c-0.79,4.25-2.88,8.26-6.17,11.55l-1.46,1.46c-4.3,4.3-9.53,6.47-15.61,6.47h-32.83c-9.12,0-16.9-5.2-20.39-13.62
	c-3.49-8.43-1.66-17.61,4.79-24.05l1.46-1.46c4.3-4.3,9.53-6.47,15.6-6.47h32.83c2.47,0,4.84,0.38,7.05,1.1
	c0.79-4.25,2.88-8.26,6.17-11.55l2.05-2.05c6.45-6.45,15.63-8.27,24.05-4.78c8.42,3.49,13.62,11.27,13.62,20.39v1.99
	c0,6.08-2.17,11.31-6.46,15.61l-0.06,0.06c-4.3,4.3-9.53,6.47-15.61,6.47h-1.99C988.73,445.42,986.36,445.04,984.15,444.32
	L984.15,444.32z M312.64,125.12l-70.17-70.18c-4.3-4.3-9.53-6.47-15.61-6.47h-47.1c-4.76,0-8.86,1.3-12.75,4.06l-25.07,17.74
	c-6.03,4.27-9.32,10.63-9.32,18.02v28.56c0,6.08,2.17,11.31,6.47,15.61l12.9,12.9c4.3,4.3,9.53,6.47,15.61,6.47h18.01l25.59,25.59
	v144.46c0,6.08,2.17,11.31,6.47,15.61l17.68,17.68c4.3,4.3,9.53,6.47,15.6,6.47h35.26l25.6,25.6v62.05c0,6.08,2.17,11.31,6.47,15.61
	l44.97,44.97v109.36c0,8.1,4.02,15.06,11.04,19.12l4.33,2.5c7.02,4.05,15.05,4.05,22.07,0c7.02-4.05,11.04-11.01,11.04-19.11v-14.65
	l22.41-38.82c2.02-3.51,2.96-6.98,2.96-11.04v-48.07l30.18-30.18c4.3-4.3,6.47-9.53,6.47-15.61v-26.23c0-6.08-2.17-11.31-6.47-15.61
	l-30.31-30.31c-4.3-4.3-9.53-6.47-15.61-6.47h-37.8L353.5,354.7v-29.73l89.35-89.35c4.3-4.3,6.46-9.53,6.46-15.61v-60.54
	c0-8.1-4.02-15.06-11.04-19.12l-21.26-12.27c-3.51-2.03-6.99-2.96-11.04-2.96H312.64L312.64,125.12z M992.33,567.64h-15.06
	c-8.1,0-15.06-4.02-19.11-11.04l-10.54-18.25c-2.03-3.51-2.96-6.98-2.96-11.04v-10.71c0-6.08,2.17-11.31,6.46-15.61l6-6
	c4.3-4.3,9.53-6.46,15.61-6.46h103.15c6.08,0,11.31,2.17,15.6,6.46l18.33,18.33c4.3,4.3,6.46,9.53,6.46,15.61v20.23
	c0,6.08-2.17,11.31-6.46,15.61l-50.3,50.3c-4.3,4.3-9.53,6.46-15.61,6.46h-7.71c-8.1,0-15.06-4.02-19.11-11.04L992.33,567.64
	L992.33,567.64z M769.22,118.91h-83.75c-6.12,0-11.39,2.2-15.69,6.55l-19.26,19.46c-4.25,4.29-6.38,9.49-6.38,15.52v9.05
	l-39.7,39.69c-4.3,4.3-6.46,9.53-6.46,15.61v34.34l-50.64,50.65c-4.3,4.3-6.47,9.53-6.47,15.6v57.58c0,6.08,2.17,11.31,6.47,15.61
	l16.86,16.86c4.3,4.3,9.53,6.47,15.61,6.47h16.78l32.02,32.02v54.01c0,6.08,2.17,11.31,6.47,15.61l20.39,20.39
	c4.3,4.3,9.53,6.47,15.61,6.47h16.91c8.1,0,15.06-4.02,19.11-11.04l6.49-11.23c2.02-3.51,2.96-6.99,2.96-11.04v-13.66l17.89-17.88
	c4.3-4.3,6.47-9.53,6.47-15.61v-52.09l14.94-14.93c4.3-4.3,6.46-9.53,6.46-15.61v-16.08l32.76-32.76h24.84l38.11,22
	c3.51,2.03,6.98,2.96,11.04,2.96h69.4c6.08,0,11.31-2.17,15.61-6.47l36.15-36.15c4.3-4.3,6.46-9.53,6.46-15.61v-23.48l32.14-55.66
	h22.16c6.08,0,11.31-2.17,15.61-6.46l6.1-6.1c4.3-4.3,6.47-9.53,6.47-15.6v-34.25c0-6.08-2.17-11.31-6.47-15.61l-9.18-9.18v-7.57
	l38.89-38.89c4.3-4.3,6.47-9.53,6.47-15.61V61.12c0-6.08-2.17-11.31-6.47-15.61l-3.85-3.85c-4.3-4.3-9.53-6.47-15.61-6.47h-44.3
	c-6.08,0-11.31,2.17-15.61,6.47l-18.08,18.09h-64.98c-8.1,0-15.06,4.02-19.11,11.04l-8.42,14.59H811.89
	c-6.08,0-11.31,2.17-15.61,6.47L769.22,118.91z"/>
<path class="st1" d="M355.41,759.4c0.63,0.91,1.33,1.75,2.1,2.53c32.48,32.48,182.04-64.39,333.97-216.32
	c151.93-151.93,248.8-301.49,216.32-333.97l-27.08-27.08c12.93,45.8-81.22,185.51-223,327.29
	C516.58,652.99,377.47,746.96,331.04,735.03L355.41,759.4z"/>
<ellipse transform="matrix(0.7071 -0.7071 0.7071 0.7071 -154.2211 576.2401)" class="st2" cx="618.47" cy="474.28" rx="279.16" ry="279.16"/>
<g>
	<path class="st3" d="M768.17,654.39c4.04-6.08,6.24-13.23,6.24-20.67c0-7.44-2.2-14.59-6.24-20.67v17.24
		c0.12,1.13,0.18,2.28,0.18,3.43c0,1.15-0.06,2.29-0.18,3.42V654.39L768.17,654.39z M768.17,473.25v-8.71l31.28-32.77
		c0.11-0.12,0.2-0.21,0.3-0.34c0.59-0.71,1.43-1.11,2.35-1.11h26.68c0.81,0,1.57,0.31,2.14,0.89l35.51,35.52
		c0.57,0.57,0.89,1.33,0.89,2.14v34.81c0,1.74,0.62,3.24,1.85,4.47l58.47,58.47c2.46,2.46,6.48,2.47,8.94,0.01
		c7.06-7.04,16.49-11,26.47-11c9.96,0,19.41,3.93,26.44,10.97l0.04,0.04c7.04,7.04,10.97,16.49,10.97,26.44
		c0,3.48,2.84,6.33,6.33,6.33h7.16c1.74,0,3.24-0.62,4.47-1.85l27.37-27.37c0.58-0.57,1.34-0.88,2.14-0.88h43.93
		c0.81,0,1.57,0.31,2.14,0.88l29.06,29.06c0.58,0.57,0.89,1.33,0.89,2.15v29.05c-0.01,0.73-0.31,1.52-0.89,2.1l-32.95,32.96
		c-0.12,0.12-0.21,0.22-0.32,0.34c-0.58,0.68-1.41,1.06-2.3,1.06h-50.05c-1.74,0-3.24,0.62-4.47,1.85l-33.73,33.72
		c-1.23,1.23-1.85,2.73-1.85,4.47v77.88c0,2.3,1.12,4.27,3.1,5.44c1.98,1.17,4.25,1.21,6.27,0.1
		c55.47-30.44,103.23-73.54,139.26-125.53c38.08-54.95,61.95-118.24,69.56-184.67c0.23-1.99-0.4-3.78-1.81-5.19l-22.43-22.43
		c-2.02-2.02-5.03-2.45-7.53-1.06c-5.53,3.05-11.69,4.63-18,4.63c-9.96,0-19.4-3.93-26.44-10.97l-0.04-0.04
		c-7.04-7.04-10.97-16.49-10.97-26.44s3.93-19.41,10.97-26.44l0.04-0.04c4.84-4.84,10.92-8.27,17.56-9.9
		c2.87-0.7,4.82-3.19,4.82-6.14v-66.84c0-1.74-0.62-3.24-1.85-4.47l-29.2-29.2c-0.57-0.58-0.89-1.33-0.89-2.14v-91.26
		c0-1.5-0.46-2.8-1.4-3.97c-19.46-24.17-41.7-46.09-66.11-65.25c-21.32-16.74-44.29-31.35-68.51-43.53
		c-2.02-1.02-4.24-0.92-6.16,0.27c-1.92,1.18-3.01,3.12-3.01,5.38v47.26c0,1.74,0.62,3.24,1.85,4.47l35.85,35.85
		c0.57,0.58,0.89,1.33,0.89,2.14v15.5c0,2.45,1.3,4.55,3.49,5.65c3.61,1.81,6.91,4.19,9.77,7.04l0.04,0.04
		c7.04,7.04,10.97,16.48,10.97,26.44c0,9.96-3.93,19.4-10.97,26.44l-0.04,0.04c-7.04,7.04-16.48,10.97-26.44,10.97
		c-5.41,0-10.72-1.16-15.62-3.42c-2.45-1.13-5.22-0.64-7.12,1.27l-11.04,11.03c-0.58,0.57-1.33,0.89-2.14,0.89H883.1
		c-1.74,0-3.24,0.62-4.47,1.85l-46.51,46.51c-2.14,2.14-2.48,5.4-0.82,7.93c3.98,6.09,6.09,13.14,6.09,20.43
		c0,9.96-3.93,19.41-10.97,26.44l-0.03,0.04c-7.04,7.04-16.49,10.97-26.44,10.97c-7.28,0-14.33-2.1-20.42-6.09
		c-2.53-1.66-5.79-1.32-7.94,0.83l-3.4,3.4v-8.72c1.4-2.05,1.47-4.74,0.09-6.92l-0.09-0.15v-39.61c1.49-2.38,3.26-4.6,5.28-6.62
		l0.04-0.04c7.04-7.04,16.49-10.97,26.44-10.97c7.09,0,13.96,1.99,19.95,5.79c2.53,1.6,5.74,1.24,7.85-0.88l49.35-49.35
		c0.57-0.58,1.33-0.88,2.14-0.88l91.05,0c1.74,0,3.24-0.62,4.47-1.85l6.48-6.48c2.34-2.34,2.49-6.06,0.34-8.58
		c-5.78-6.79-8.95-15.32-8.95-24.25c0-9.96,3.93-19.4,10.97-26.44l0.04-0.04c7.04-7.04,16.49-10.97,26.44-10.97l0.74,0
		c1.75,0.02,3.27-0.6,4.51-1.83c1.25-1.23,1.88-2.74,1.88-4.49v-7.03c0-1.74-0.62-3.24-1.85-4.47l-35.86-35.86
		c-0.58-0.57-0.88-1.33-0.88-2.14l0-65.97c0-1.67,1.36-3.03,3.03-3.03c0.52,0,1.02,0.13,1.48,0.39c0.16,0.09,0.31,0.17,0.48,0.25
		c29.35,13.5,57.07,30.43,82.49,50.37c25.66,20.14,48.9,43.31,69.15,68.89c0.42,0.53,0.64,1.18,0.64,1.85l0.04,90.61
		c0,1.74,0.62,3.24,1.85,4.47l29.21,29.2c0.57,0.58,0.88,1.33,0.88,2.15l0,70.25c0,3.06,2.12,5.63,5.12,6.21
		c7.33,1.43,14.05,5.02,19.32,10.29l0.04,0.04c7.04,7.04,10.97,16.49,10.97,26.44c0,8.05-2.57,15.79-7.36,22.25
		c-1.88,2.54-1.62,6.01,0.61,8.24l24.7,24.7c0.71,0.71,1.01,1.7,0.84,2.68c-0.03,0.14-0.05,0.27-0.06,0.41
		c-7.23,68.81-31.61,134.43-71.02,191.29c-39.58,57.12-93.1,103.6-155.27,134.7c-1.48,0.74-3.28,0.14-4.01-1.33
		c-0.21-0.43-0.32-0.88-0.32-1.34c0-0.24-0.01-0.49-0.04-0.72v-96.46c0-0.81,0.31-1.57,0.89-2.15l39.22-39.21
		c0.58-0.57,1.33-0.88,2.14-0.88l50.08-0.01c1.74,0,3.24-0.62,4.47-1.85l27.91-27.92c1.23-1.23,1.85-2.73,1.85-4.47v-21.35
		c0-1.74-0.62-3.24-1.85-4.47l-23.58-23.57c-1.23-1.24-2.73-1.85-4.47-1.85h-36.19c-1.74,0-3.25,0.62-4.47,1.85l-27.37,27.37
		c-0.58,0.57-1.33,0.89-2.14,0.89l-15.25,0c-2.5,0-4.64,1.35-5.71,3.61c-1.84,3.87-4.33,7.41-7.36,10.45l-0.04,0.03
		c-7.04,7.04-16.49,10.97-26.44,10.97c-9.96,0-19.4-3.93-26.44-10.97l-0.04-0.03c-7.04-7.04-10.97-16.49-10.97-26.44
		c0-4.3,0.73-8.56,2.19-12.61c0.85-2.36,0.3-4.84-1.48-6.61l-64.16-64.17c-0.57-0.58-0.89-1.33-0.89-2.14l0-34.8
		c0-1.74-0.62-3.24-1.85-4.47l-30.03-30.04c-1.23-1.23-2.73-1.85-4.48-1.85h-18.83c-1.79,0-3.34,0.66-4.58,1.96L768.17,473.25
		L768.17,473.25z M464.94,505.79l-56.72,0.01c-0.18,0-0.36,0.01-0.54,0.05c-1.62,0.3-2.71,1.85-2.41,3.48
		c1.55,8.38,3.36,16.72,5.44,24.99c2.01,7.98,4.28,15.9,6.75,23.75c0.06,0.19,0.11,0.35,0.15,0.55c0.3,1.38,1.54,2.38,2.96,2.38H436
		c1.74,0,3.24,0.62,4.47,1.85l24.47,24.47v-8.57l-22.93-22.93c-0.58-0.58-1.34-0.89-2.14-0.89h-12.43c-2.84,0-5.25-1.79-6.06-4.52
		c-1.74-5.81-3.34-11.67-4.82-17.56c-1.11-4.43-2.16-8.89-3.13-13.36c-0.42-1.94,0.02-3.77,1.26-5.31c1.25-1.54,2.95-2.35,4.93-2.35
		h45.33V505.79L464.94,505.79z M1188.09,440.86c5.9-5.9,9.16-13.85,9.16-22.19c0-8.34-3.26-16.3-9.16-22.19l-0.04-0.04
		c-5.9-5.9-13.85-9.16-22.2-9.16c-8.34,0-16.29,3.26-22.19,9.16l-0.04,0.04c-5.9,5.9-9.16,13.86-9.16,22.19
		c0,8.34,3.25,16.29,9.16,22.19l0.04,0.04c5.9,5.9,13.85,9.16,22.19,9.16c8.34,0,16.3-3.26,22.2-9.16L1188.09,440.86L1188.09,440.86
		z M985.29,615.28c5.9-5.9,9.16-13.85,9.16-22.2c0-8.34-3.26-16.3-9.16-22.19l-0.04-0.04c-5.9-5.9-13.86-9.16-22.19-9.16
		c-8.34,0-16.29,3.25-22.19,9.16l-0.04,0.04c-5.9,5.9-9.16,13.86-9.16,22.19c0,8.34,3.26,16.3,9.16,22.2l0.04,0.04
		c5.9,5.9,13.85,9.16,22.19,9.16c8.34,0,16.3-3.26,22.19-9.16L985.29,615.28L985.29,615.28z M1032.31,241.74
		c5.9-5.9,9.15-13.86,9.15-22.2c0-8.34-3.25-16.3-9.15-22.19l-0.04-0.04c-5.9-5.9-13.85-9.16-22.2-9.16
		c-8.34,0-16.29,3.25-22.2,9.16l-0.04,0.04c-5.9,5.9-9.15,13.86-9.15,22.19c0,8.34,3.25,16.3,9.15,22.2l0.04,0.04
		c5.9,5.9,13.86,9.16,22.2,9.16c8.34,0,16.3-3.25,22.2-9.16L1032.31,241.74L1032.31,241.74z M822.16,365.68
		c5.9-5.9,9.16-13.85,9.16-22.2c0-8.34-3.26-16.29-9.16-22.19l-0.04-0.04c-5.9-5.9-13.85-9.16-22.19-9.16
		c-8.34,0-16.29,3.26-22.2,9.16l-0.04,0.04c-5.9,5.9-9.16,13.85-9.16,22.19c0,8.35,3.26,16.29,9.16,22.2l0.04,0.04
		c5.9,5.9,13.85,9.16,22.2,9.16c8.34,0,16.3-3.26,22.19-9.16L822.16,365.68L822.16,365.68z M1022.01,420.27
		c-0.58-0.57-1.33-0.88-2.14-0.88h-49.86c-1.68,0-3.03,1.35-3.03,3.03v45.02c0,0.81,0.31,1.57,0.89,2.14l53.68,53.68
		c0.58,0.57,1.33,0.89,2.14,0.89h51.45c1.67,0,3.03-1.36,3.03-3.03v-43.44c0-0.81-0.32-1.57-0.89-2.14L1022.01,420.27
		L1022.01,420.27z M1072.11,481.56c0-1.74-0.62-3.24-1.85-4.48l-49.79-49.78c-1.24-1.23-2.73-1.85-4.47-1.85h-36.63
		c-3.48,0-6.33,2.84-6.33,6.33v31.8c0,1.74,0.62,3.24,1.85,4.47l48.2,48.2c1.23,1.23,2.73,1.85,4.47,1.85h38.22
		c3.48,0,6.33-2.84,6.33-6.33V481.56z"/>
	<path class="st3" d="M464.94,654.39c-4.04-6.08-6.24-13.23-6.24-20.67c0-7.44,2.19-14.59,6.24-20.67v17.26
		c-0.12,1.12-0.18,2.26-0.18,3.41c0,1.14,0.06,2.28,0.18,3.4V654.39L464.94,654.39z M464.94,473.25v-8.71l-31.28-32.77
		c-0.11-0.12-0.2-0.21-0.3-0.34c-0.59-0.71-1.43-1.11-2.35-1.11h-26.68c-0.81,0-1.57,0.31-2.14,0.89l-35.51,35.52
		c-0.57,0.57-0.89,1.33-0.89,2.14v34.81c0,1.74-0.62,3.24-1.85,4.47l-58.47,58.47c-2.46,2.46-6.48,2.47-8.94,0.01
		c-7.06-7.04-16.49-11-26.47-11c-9.96,0-19.41,3.93-26.44,10.97l-0.04,0.04c-7.04,7.04-10.97,16.49-10.97,26.44
		c0,3.48-2.84,6.33-6.33,6.33h-7.16c-1.74,0-3.24-0.62-4.47-1.85l-27.37-27.37c-0.58-0.57-1.34-0.88-2.14-0.88H141.2
		c-0.81,0-1.57,0.31-2.14,0.88L110,599.24c-0.58,0.57-0.89,1.33-0.89,2.15v29.05c0.01,0.73,0.31,1.52,0.89,2.1l32.95,32.96
		c0.12,0.12,0.21,0.22,0.32,0.34c0.58,0.68,1.41,1.06,2.3,1.06h50.05c1.74,0,3.24,0.62,4.47,1.85l33.73,33.72
		c1.23,1.23,1.85,2.73,1.85,4.47v77.88c0,2.3-1.12,4.27-3.1,5.44c-1.98,1.17-4.25,1.21-6.27,0.1
		c-55.47-30.44-103.23-73.54-139.26-125.53C48.97,609.91,25.1,546.61,17.49,480.19c-0.23-1.99,0.4-3.78,1.81-5.19l22.43-22.43
		c2.02-2.02,5.03-2.45,7.53-1.06c5.53,3.05,11.69,4.63,18,4.63c9.96,0,19.4-3.93,26.44-10.97l0.04-0.04
		c7.04-7.04,10.97-16.49,10.97-26.44s-3.93-19.41-10.97-26.44l-0.04-0.04c-4.84-4.84-10.92-8.27-17.56-9.9
		c-2.87-0.7-4.82-3.19-4.82-6.14v-66.84c0-1.74,0.62-3.24,1.85-4.47l29.2-29.2c0.57-0.58,0.89-1.33,0.89-2.14v-91.26
		c0-1.5,0.46-2.8,1.4-3.97c19.47-24.17,41.7-46.09,66.11-65.25c21.32-16.74,44.29-31.35,68.51-43.53c2.02-1.02,4.24-0.92,6.16,0.27
		c1.92,1.18,3.01,3.12,3.01,5.38v47.26c0,1.74-0.62,3.24-1.85,4.47l-35.85,35.85c-0.57,0.58-0.89,1.33-0.89,2.14v15.5
		c0,2.45-1.3,4.55-3.49,5.65c-3.61,1.81-6.91,4.19-9.77,7.04l-0.04,0.04c-7.04,7.04-10.97,16.48-10.97,26.44
		c0,9.96,3.93,19.4,10.97,26.44l0.04,0.04c7.04,7.04,16.48,10.97,26.44,10.97c5.41,0,10.72-1.16,15.62-3.42
		c2.45-1.13,5.22-0.64,7.12,1.27l11.04,11.03c0.58,0.57,1.33,0.89,2.14,0.89h91.05c1.74,0,3.24,0.62,4.47,1.85L401,315.12
		c2.14,2.14,2.48,5.4,0.82,7.93c-3.98,6.09-6.09,13.14-6.09,20.43c0,9.96,3.93,19.41,10.97,26.44l0.03,0.04
		c7.04,7.04,16.49,10.97,26.44,10.97c7.28,0,14.33-2.1,20.42-6.09c2.53-1.66,5.79-1.32,7.94,0.83l3.4,3.4v-8.73
		c-1.4-2.05-1.47-4.74-0.09-6.92l0.09-0.14v-39.62c-1.49-2.37-3.25-4.6-5.28-6.62l-0.04-0.04c-7.04-7.04-16.49-10.97-26.44-10.97
		c-7.09,0-13.96,1.99-19.95,5.79c-2.53,1.6-5.74,1.24-7.85-0.88l-49.35-49.35c-0.57-0.58-1.33-0.88-2.14-0.88l-91.05,0
		c-1.74,0-3.24-0.62-4.48-1.85l-6.48-6.48c-2.34-2.34-2.49-6.06-0.34-8.58c5.78-6.79,8.95-15.32,8.95-24.25
		c0-9.96-3.93-19.4-10.97-26.44l-0.04-0.04c-7.04-7.04-16.49-10.97-26.44-10.97l-0.74,0c-1.75,0.02-3.27-0.6-4.51-1.83
		c-1.25-1.23-1.88-2.74-1.88-4.49v-7.03c0-1.74,0.62-3.24,1.85-4.47l35.86-35.86c0.58-0.57,0.88-1.33,0.88-2.14l0-65.97
		c0-1.67-1.36-3.03-3.03-3.03c-0.52,0-1.02,0.13-1.48,0.39c-0.16,0.09-0.31,0.17-0.48,0.25c-29.35,13.5-57.07,30.43-82.49,50.37
		c-25.66,20.14-48.9,43.31-69.15,68.89c-0.42,0.53-0.64,1.18-0.64,1.85l-0.04,90.61c0,1.74-0.62,3.24-1.85,4.47l-29.21,29.2
		c-0.57,0.58-0.88,1.33-0.88,2.15l0,70.25c0,3.06-2.12,5.63-5.12,6.21c-7.33,1.43-14.05,5.02-19.32,10.29l-0.04,0.04
		c-7.04,7.04-10.97,16.49-10.97,26.44c0,8.05,2.57,15.79,7.36,22.25c1.88,2.54,1.63,6.01-0.61,8.24l-24.7,24.7
		c-0.71,0.71-1.01,1.7-0.84,2.68c0.03,0.14,0.05,0.27,0.06,0.41c7.23,68.81,31.61,134.43,71.02,191.29
		c39.58,57.12,93.1,103.6,155.27,134.7c1.48,0.74,3.27,0.14,4.01-1.33c0.21-0.43,0.32-0.88,0.32-1.34c0-0.24,0.01-0.49,0.04-0.72
		v-96.46c0-0.81-0.31-1.57-0.89-2.15l-39.22-39.21c-0.58-0.57-1.33-0.88-2.14-0.88l-50.09-0.01c-1.74,0-3.24-0.62-4.47-1.85
		l-27.91-27.92c-1.23-1.23-1.85-2.73-1.85-4.47v-21.35c0-1.74,0.62-3.24,1.85-4.47l23.58-23.57c1.23-1.24,2.73-1.85,4.47-1.85h36.19
		c1.74,0,3.25,0.62,4.48,1.85l27.37,27.37c0.58,0.57,1.33,0.89,2.14,0.89l15.25,0c2.5,0,4.64,1.35,5.71,3.61
		c1.84,3.87,4.33,7.41,7.36,10.45l0.04,0.03c7.04,7.04,16.49,10.97,26.44,10.97c9.96,0,19.4-3.93,26.44-10.97l0.04-0.03
		c7.04-7.04,10.97-16.49,10.97-26.44c0-4.3-0.73-8.56-2.19-12.61c-0.85-2.36-0.3-4.84,1.48-6.61l64.16-64.17
		c0.57-0.58,0.89-1.33,0.89-2.14l0-34.8c0-1.74,0.62-3.24,1.85-4.47l30.03-30.04c1.23-1.23,2.73-1.85,4.48-1.85h18.84
		c1.79,0,3.33,0.66,4.57,1.96L464.94,473.25L464.94,473.25z M768.17,505.79l56.73,0.01c0.18,0,0.36,0.01,0.54,0.05
		c1.62,0.3,2.71,1.85,2.41,3.48c-1.55,8.38-3.36,16.72-5.44,24.99c-2.01,7.98-4.28,15.9-6.75,23.75c-0.06,0.19-0.11,0.35-0.15,0.55
		c-0.3,1.38-1.54,2.38-2.96,2.38h-15.43c-1.74,0-3.24,0.62-4.47,1.85l-24.47,24.47v-8.57l22.93-22.93c0.58-0.58,1.34-0.89,2.14-0.89
		h12.43c2.84,0,5.25-1.79,6.06-4.52c1.74-5.81,3.34-11.67,4.82-17.56c1.11-4.43,2.16-8.89,3.13-13.36c0.42-1.94-0.02-3.77-1.26-5.31
		c-1.25-1.54-2.95-2.35-4.93-2.35h-45.33V505.79L768.17,505.79z M45.02,440.86c-5.9-5.9-9.16-13.85-9.16-22.19
		c0-8.34,3.26-16.3,9.16-22.19l0.04-0.04c5.9-5.9,13.85-9.16,22.19-9.16c8.35,0,16.29,3.26,22.19,9.16l0.04,0.04
		c5.9,5.9,9.16,13.86,9.16,22.19c0,8.34-3.25,16.29-9.16,22.19l-0.04,0.04c-5.9,5.9-13.85,9.16-22.19,9.16
		c-8.34,0-16.3-3.26-22.19-9.16L45.02,440.86L45.02,440.86z M247.82,615.28c-5.9-5.9-9.16-13.85-9.16-22.2
		c0-8.34,3.26-16.3,9.16-22.19l0.04-0.04c5.9-5.9,13.86-9.16,22.2-9.16c8.34,0,16.29,3.25,22.19,9.16l0.04,0.04
		c5.9,5.9,9.16,13.86,9.16,22.19c0,8.34-3.26,16.3-9.16,22.2l-0.04,0.04c-5.9,5.9-13.85,9.16-22.19,9.16
		c-8.34,0-16.3-3.26-22.2-9.16L247.82,615.28L247.82,615.28z M200.81,241.74c-5.9-5.9-9.15-13.86-9.15-22.2
		c0-8.34,3.25-16.3,9.15-22.19l0.04-0.04c5.9-5.9,13.85-9.16,22.19-9.16c8.34,0,16.3,3.25,22.2,9.16l0.04,0.04
		c5.9,5.9,9.15,13.86,9.15,22.19c0,8.34-3.25,16.3-9.15,22.2l-0.04,0.04c-5.9,5.9-13.86,9.16-22.2,9.16
		c-8.34,0-16.3-3.25-22.19-9.16L200.81,241.74L200.81,241.74z M410.95,365.68c-5.9-5.9-9.16-13.85-9.16-22.2
		c0-8.34,3.26-16.29,9.16-22.19l0.04-0.04c5.9-5.9,13.85-9.16,22.2-9.16c8.34,0,16.3,3.26,22.19,9.16l0.04,0.04
		c5.9,5.9,9.16,13.85,9.16,22.19c0,8.35-3.26,16.29-9.16,22.2l-0.04,0.04c-5.9,5.9-13.85,9.16-22.19,9.16
		c-8.34,0-16.3-3.26-22.2-9.16L410.95,365.68L410.95,365.68z M211.1,420.27c0.58-0.57,1.33-0.88,2.14-0.88h49.85
		c1.68,0,3.03,1.35,3.03,3.03v45.02c0,0.81-0.32,1.57-0.89,2.14l-53.68,53.68c-0.58,0.57-1.33,0.89-2.14,0.89h-51.45
		c-1.67,0-3.03-1.36-3.03-3.03v-43.44c0-0.81,0.32-1.57,0.89-2.14L211.1,420.27L211.1,420.27z M161,481.56
		c0-1.74,0.62-3.24,1.85-4.48l49.79-49.78c1.23-1.23,2.73-1.85,4.47-1.85h36.63c3.48,0,6.33,2.84,6.33,6.33v31.8
		c0,1.74-0.62,3.24-1.85,4.47l-48.19,48.2c-1.23,1.23-2.73,1.85-4.47,1.85h-38.22c-3.48,0-6.33-2.84-6.33-6.33V481.56z"/>
</g>
<path class="st3" d="M410.6,354.27c66.28-114.8,213.08-154.14,327.89-87.86c114.8,66.28,154.14,213.08,87.86,327.89
	c-66.28,114.8-213.08,154.14-327.89,87.86C383.65,615.87,344.32,469.07,410.6,354.27z"/>
<path class="st4" d="M410.6,354.27c52.7-91.28,169.42-122.55,260.7-69.85c91.28,52.7,122.55,169.42,69.85,260.7
	c-52.7,91.28-169.42,122.55-260.7,69.85C389.18,562.27,357.9,445.55,410.6,354.27z"/>
<path class="st5" d="M410.73,354.34c35.6-61.66,114.45-82.79,176.11-47.19c61.66,35.6,82.79,114.45,47.19,176.11
	c-35.6,61.66-114.45,82.79-176.11,47.19C396.25,494.85,375.13,416,410.73,354.34z"/>
<path class="st2" d="M490.71,354.27c27.3-76.93,76.82-119.96,127.76-120.05c-48.51,0.08-95.67,43.12-121.66,120.05
	c-38.8,114.81-15.77,261.61,51.43,327.89c22.05,21.74,46.1,32.12,69.85,32.2c-24.94-0.07-50.22-10.45-73.37-32.2
	C474.14,615.87,449.97,469.07,490.71,354.27L490.71,354.27z M618.87,234.21c24.95,0.07,50.21,10.45,73.37,32.2
	c70.56,66.28,94.74,213.08,54,327.89c-27.3,76.93-76.82,119.96-127.75,120.05c48.51-0.09,95.66-43.12,121.66-120.05
	c38.8-114.8,15.77-261.6-51.43-327.89C666.68,244.66,642.62,234.29,618.87,234.21z"/>
<path class="st2" d="M738.49,346.52c76.93,27.3,119.97,76.82,120.05,127.76c-0.08-48.51-43.12-95.67-120.05-121.66
	c-114.81-38.8-261.61-15.77-327.89,51.43c-21.74,22.04-32.12,46.1-32.2,69.85c0.07-24.94,10.45-50.22,32.2-73.37
	C476.88,329.95,623.68,305.78,738.49,346.52L738.49,346.52z M858.54,474.68c-0.07,24.94-10.45,50.21-32.2,73.37
	c-66.28,70.56-213.08,94.74-327.89,54c-76.93-27.3-119.96-76.82-120.05-127.75c0.09,48.51,43.12,95.66,120.05,121.66
	c114.8,38.8,261.6,15.77,327.89-51.43C848.09,522.49,858.47,498.43,858.54,474.68z"/>
<path class="st6" d="M773.05,535.35c-0.01-0.12-0.02-0.25-0.02-0.38c0-0.57-0.3-1.09-0.79-1.37l-27.69-15.98
	c-1.15-0.66-1.77-1.85-1.66-3.17c0.04-0.55,0.07-1.1,0.07-1.66c0-5.25-2.07-10.23-5.78-13.93l-0.02-0.02
	c-3.71-3.71-8.69-5.78-13.94-5.78c-5.25,0-10.23,2.07-13.94,5.78l-0.02,0.02c-1.6,1.6-2.91,3.46-3.88,5.5
	c-0.57,1.19-1.69,1.9-3.01,1.9h-51.99c-0.89,0-1.66-0.31-2.3-0.92l-27.83-26.56c-0.68-0.65-1.03-1.47-1.03-2.41v-9.93
	c0-0.92,0.33-1.71,0.98-2.36l15.83-15.83c0.65-0.65,1.44-0.98,2.36-0.98l18.34,0c0.43,0,0.83-0.17,1.13-0.47l33.82-33.82
	c0.93-0.94,2.24-1.23,3.48-0.78c2.14,0.77,4.38,1.15,6.65,1.15c5.25,0,10.23-2.07,13.93-5.78l0.02-0.02
	c3.71-3.71,5.78-8.69,5.78-13.93c0-5.25-2.07-10.23-5.78-13.94l-0.02-0.02c-1.6-1.6-3.47-2.91-5.5-3.88
	c-1.19-0.56-1.9-1.69-1.9-3.01l0-8.04c0-0.43-0.16-0.83-0.47-1.13l-14.43-14.42c-0.65-0.65-0.98-1.44-0.98-2.36v-19.07
	c0-0.92,0.33-1.71,0.98-2.36l12.42-12.43c0.65-0.65,1.44-0.98,2.36-0.98h11.25c0.92,0,1.71,0.33,2.36,0.98l14.71,14.71
	c0.65,0.65,0.98,1.44,0.98,2.36l0,26.4c0,0.43,0.16,0.82,0.47,1.13l20.66,20.67c0.3,0.3,0.7,0.47,1.13,0.47h50.83
	c0.12-0.01,0.25-0.02,0.38-0.02c0.25,0,0.49-0.05,0.71-0.17c0.78-0.39,1.09-1.34,0.7-2.11c-16.39-32.77-40.88-60.97-70.99-81.83
	c-29.97-20.77-64.55-33.62-100.81-37.43c-0.08-0.01-0.14-0.02-0.22-0.03c-0.52-0.09-1.04,0.07-1.41,0.44l-13.01,13.01
	c-1.18,1.18-3.01,1.31-4.34,0.32c-3.41-2.52-7.48-3.88-11.73-3.88c-5.25,0-10.23,2.07-13.94,5.78l-0.02,0.02
	c-2.78,2.78-4.67,6.33-5.42,10.19c-0.31,1.58-1.66,2.7-3.27,2.7l-37.02,0c-0.43,0-0.83,0.16-1.13,0.47l-15.39,15.39
	c-0.65,0.65-1.44,0.98-2.36,0.98l-47.75,0.02c-0.36,0-0.7,0.12-0.98,0.34c-13.48,10.67-25.69,22.92-36.3,36.44
	c-10.51,13.39-19.43,28-26.55,43.47c-0.04,0.09-0.08,0.17-0.13,0.26c-0.14,0.24-0.2,0.51-0.2,0.78c0,0.88,0.72,1.6,1.6,1.6l34.77,0
	c0.43,0,0.83-0.16,1.13-0.46l18.9-18.9c0.65-0.65,1.44-0.98,2.36-0.98h3.7c0.92,0,1.72,0.33,2.37,0.99
	c0.65,0.66,0.97,1.45,0.97,2.38l0,0.39c0,5.25,2.07,10.23,5.78,13.94l0.02,0.02c3.71,3.71,8.69,5.78,13.93,5.78
	c4.71,0,9.2-1.67,12.78-4.72c1.33-1.13,3.29-1.05,4.52,0.18l3.42,3.42c0.65,0.65,0.98,1.44,0.98,2.36l0,47.99
	c0,0.43,0.16,0.83,0.47,1.13l26.01,26.01c1.11,1.11,1.3,2.81,0.46,4.14c-2,3.16-3.05,6.78-3.05,10.51c0,5.25,2.07,10.23,5.78,13.94
	l0.02,0.02c3.71,3.71,8.69,5.78,13.94,5.78c3.73,0,7.36-1.05,10.51-3.05c1.33-0.85,3.03-0.66,4.14,0.46l15.57,15.57
	c0.3,0.3,0.7,0.47,1.13,0.47h19.92c0.9,0,1.67,0.31,2.32,0.94l10.83,10.48c0.67,0.65,1.01,1.46,1.01,2.39l0,45.72
	c0,0.43,0.17,0.83,0.47,1.13l6.98,6.98c1.16,1.16,1.31,2.95,0.36,4.29c-2.38,3.34-3.64,7.3-3.64,11.4c0,5.24,2.07,10.22,5.78,13.93
	l0.02,0.02c2.2,2.19,4.88,3.85,7.83,4.81c1.39,0.46,2.3,1.7,2.3,3.17l0.01,67.97c0,0.09,0.01,0.19,0.03,0.28
	c0.16,0.85,0.98,1.43,1.83,1.27c4.42-0.82,8.81-1.77,13.17-2.87c4.21-1.06,8.38-2.25,12.52-3.56c0.1-0.03,0.18-0.06,0.29-0.08
	c0.73-0.16,1.25-0.81,1.25-1.56v-8.13c0-0.92,0.33-1.71,0.98-2.36l63.73-63.73c0.3-0.3,0.47-0.7,0.47-1.13v-15.02
	c0-1.22,0.61-2.27,1.67-2.89l20.21-11.67c0.07-0.04,0.13-0.07,0.2-0.11c0.55-0.27,0.9-0.82,0.9-1.43V535.35L773.05,535.35z
	 M590.72,291.45c0.86,3.5,2.67,6.7,5.22,9.26l0.02,0.02c3.71,3.71,8.69,5.78,13.94,5.78c5.25,0,10.23-2.07,13.94-5.78l0.02-0.02
	c3.71-3.71,5.78-8.69,5.78-13.94c0-3.33-0.83-6.57-2.44-9.49c-0.73-1.32-0.5-2.9,0.56-3.97l11.82-11.82
	c0.75-0.74,1.69-1.07,2.74-0.95c35.01,4.01,68.37,16.59,97.32,36.66c27.4,18.99,50.11,44.16,66.16,73.39
	c0.58,1.06,0.56,2.26-0.05,3.3c-0.62,1.04-1.66,1.64-2.87,1.64h-41.04c-0.92,0-1.71-0.33-2.36-0.98l-17.77-17.78
	c-0.65-0.65-0.98-1.44-0.98-2.36v-26.38c0-0.47-0.2-0.91-0.56-1.21c-0.06-0.06-0.12-0.11-0.18-0.17l-17.37-17.36
	c-0.31-0.31-0.72-0.46-1.11-0.47h-15.31c-0.43,0-0.83,0.17-1.13,0.47l-15.31,15.31c-0.3,0.3-0.47,0.7-0.47,1.13v23.15
	c0,0.43,0.16,0.83,0.47,1.13l14.43,14.42c0.65,0.65,0.98,1.44,0.98,2.36v3.77c0,1.84-1.5,3.33-3.33,3.33
	c-5.25,0-10.23,2.07-13.94,5.78l-0.02,0.02c-3.71,3.71-5.78,8.69-5.78,13.94c0,5.26,2.09,10.23,5.8,13.95c1.3,1.3,1.29,3.41,0,4.71
	l-30.81,30.82c-0.65,0.65-1.44,0.98-2.36,0.98h-18.34c-0.43,0-0.83,0.17-1.13,0.47l-18.72,18.72c-0.3,0.3-0.47,0.7-0.47,1.13v14.06
	c0,0.48,0.21,0.93,0.59,1.24c0.07,0.05,0.12,0.1,0.18,0.16l30.55,29.15c0.3,0.29,0.7,0.44,1.09,0.44h51.72
	c1.84,0,3.33,1.5,3.33,3.33c0,5.25,2.07,10.23,5.78,13.94l0.02,0.02c3.71,3.71,8.69,5.78,13.94,5.78c5.25,0,10.23-2.07,13.94-5.78
	l0.02-0.02c1.22-1.22,2.27-2.59,3.13-4.08c0.92-1.59,2.96-2.13,4.55-1.21l23.32,13.46c1.06,0.61,1.67,1.66,1.67,2.89v32.45
	c0,1.22-0.61,2.27-1.67,2.89l-20.5,11.84c-0.49,0.28-0.8,0.8-0.8,1.37v15.81c0,0.92-0.33,1.71-0.98,2.36l-63.73,63.73
	c-0.3,0.3-0.47,0.7-0.47,1.13v6.55c0,1.5-0.95,2.77-2.38,3.19c-3.07,0.92-6.15,1.76-9.26,2.54c-2.34,0.59-4.69,1.14-7.04,1.65
	c-1.02,0.22-1.99-0.01-2.8-0.67c-0.81-0.66-1.24-1.55-1.24-2.59v-61c0-1.69,1.26-3.11,2.94-3.31c4.4-0.52,8.48-2.52,11.61-5.65
	l0.02-0.02c3.71-3.71,5.78-8.69,5.78-13.93c0-5.25-2.07-10.23-5.78-13.94l-0.02-0.02c-3.71-3.71-8.69-5.78-13.93-5.78
	c-3.47,0-6.84,0.9-9.84,2.64c-1.33,0.77-2.94,0.55-4.03-0.53l-5.86-5.86c-0.65-0.65-0.98-1.44-0.98-2.36v-45.75
	c0-0.48-0.2-0.91-0.57-1.22c-0.07-0.05-0.12-0.1-0.18-0.16l-13.52-13.09c-0.31-0.3-0.71-0.46-1.11-0.47h-19.86
	c-0.92,0-1.71-0.33-2.36-0.98l-14.07-14.07c-1.13-1.13-1.3-2.85-0.43-4.18c2.1-3.21,3.21-6.93,3.21-10.76
	c0-5.25-2.07-10.23-5.78-13.93l-0.02-0.02c-3.71-3.71-8.69-5.78-13.94-5.78c-3.84,0-7.55,1.11-10.76,3.21
	c-1.34,0.87-3.05,0.69-4.18-0.44l-24.51-24.51c-0.65-0.65-0.98-1.44-0.98-2.36V387.8c0-0.43-0.17-0.83-0.47-1.13l-5.82-5.81
	c-1.01-1.01-1.27-2.46-0.67-3.76c1.19-2.59,1.8-5.38,1.8-8.23c0-5.25-2.07-10.23-5.78-13.93l-0.02-0.02
	c-3.71-3.71-8.69-5.78-13.94-5.78c-5.25,0-10.23,2.07-13.93,5.78l-0.02,0.02c-1.5,1.51-2.76,3.25-3.71,5.15
	c-0.58,1.15-1.69,1.84-2.98,1.84h-8.17c-0.43,0-0.83,0.17-1.13,0.47l-18.9,18.89c-0.65,0.65-1.44,0.98-2.36,0.98h-24.91
	c-1.19,0-2.21-0.57-2.84-1.59c-0.62-1.01-0.67-2.18-0.14-3.25c6.42-12.76,14.12-24.87,22.94-36.11
	c10.1-12.87,21.65-24.58,34.39-34.84c0.62-0.5,1.3-0.74,2.09-0.74h48.1c0.43,0,0.83-0.16,1.13-0.47l15.39-15.39
	c0.65-0.65,1.44-0.98,2.36-0.98h35.22C589.04,288.9,590.35,289.93,590.72,291.45L590.72,291.45z M621.59,275.05l0.02,0.02
	c3.11,3.11,4.83,7.3,4.83,11.7c0,4.4-1.72,8.58-4.83,11.7l-0.02,0.02c-3.11,3.11-7.3,4.83-11.7,4.83c-4.39,0-8.59-1.72-11.7-4.83
	l-0.02-0.02c-3.11-3.11-4.83-7.3-4.83-11.7c0-4.39,1.72-8.59,4.83-11.7l0.02-0.02c3.11-3.11,7.3-4.83,11.7-4.83
	C614.29,270.22,618.48,271.94,621.59,275.05L621.59,275.05z M734.92,501.08l0.02,0.02c3.11,3.11,4.83,7.3,4.83,11.7
	c0,4.39-1.72,8.59-4.83,11.7l-0.02,0.02c-3.11,3.11-7.3,4.83-11.7,4.83c-4.4,0-8.58-1.71-11.7-4.83l-0.02-0.02
	c-3.11-3.11-4.83-7.3-4.83-11.7c0-4.39,1.72-8.59,4.83-11.7l0.02-0.02c3.11-3.11,7.3-4.83,11.7-4.83
	C727.62,496.25,731.81,497.97,734.92,501.08L734.92,501.08z M671.21,584.34l0.11,0.1c3.11,3.11,4.83,7.3,4.83,11.7
	c0,4.39-1.71,8.59-4.94,11.81l0.06-0.07c-3.11,3.11-7.27,4.8-11.67,4.8c-4.4,0-8.59-1.72-11.7-4.83l-0.02-0.02
	c-3.11-3.11-4.83-7.3-4.83-11.7c0-4.4,1.72-8.59,4.83-11.7l0.02-0.02c3.11-3.11,7.3-4.83,11.7-4.83
	C664,579.59,668.19,581.31,671.21,584.34L671.21,584.34z M713.51,381.93l0.02,0.02c3.11,3.11,4.83,7.3,4.83,11.7
	c0,4.4-1.71,8.58-4.83,11.7l-0.02,0.02c-3.11,3.11-7.3,4.83-11.7,4.83c-4.39,0-8.59-1.72-11.7-4.83l-0.02-0.02
	c-3.11-3.11-4.83-7.3-4.83-11.7c0-4.39,1.72-8.59,4.83-11.7l0.02-0.02c3.11-3.11,7.3-4.83,11.7-4.83
	C706.2,377.1,710.4,378.82,713.51,381.93L713.51,381.93z M516.65,357.15l0.02,0.02c3.11,3.11,4.82,7.3,4.82,11.7
	c0,4.39-1.71,8.59-4.82,11.7l-0.02,0.02c-3.11,3.11-7.3,4.83-11.7,4.83c-4.39,0-8.59-1.72-11.7-4.83l-0.02-0.02
	c-3.11-3.11-4.82-7.3-4.82-11.7c0-4.39,1.72-8.59,4.82-11.7l0.02-0.02c3.11-3.11,7.3-4.82,11.7-4.82
	C509.34,352.32,513.54,354.04,516.65,357.15L516.65,357.15z M581.96,467.89l0.02,0.02c3.11,3.11,4.83,7.3,4.83,11.7
	c0,4.4-1.72,8.59-4.83,11.7l-0.02,0.02c-3.11,3.11-7.3,4.83-11.7,4.83c-4.4,0-8.58-1.72-11.7-4.83l-0.02-0.02
	c-3.11-3.11-4.83-7.3-4.83-11.7c0-4.39,1.72-8.59,4.83-11.7l0.02-0.02c3.11-3.11,7.3-4.83,11.7-4.83
	C574.67,463.07,578.85,464.78,581.96,467.89L581.96,467.89z"/>
<path class="st7" d="M809.08,194.53c34.84-16.91,60.34-21.29,71.64-9.98l27.08,27.08c-12.92-3.65-33.32,1.23-59.14,13.3
	l-40.37-11.52L809.08,194.53z"/>
<path class="st7" d="M766.63,218.41c7.88-4.94,15.49-9.47,22.78-13.56l-0.95,22.9l35.35,10.08c-8.3,4.68-16.98,9.91-26.01,15.67
	l-32.25-9.2L766.63,218.41z"/>
<path class="st7" d="M332.96,736.95c-0.91-0.63-1.75-1.33-2.53-2.1c-32.48-32.49,64.39-182.04,216.32-333.97
	c71.15-71.15,141.78-130.22,200.11-169.59l-1.14,27.34l31,8.85c-57.69,39.61-126.7,97.66-196.21,167.17
	C439.37,575.79,345.41,714.89,357.33,761.32L332.96,736.95z"/>
<path class="st8" d="M484.9,60.81c-39.71,13.91-60.63,57.39-46.72,97.1c12.01,34.29,46.07,54.57,80.71,50.5l2.08,1.79l23.26,20
	l5.69-30.15l0.51-2.7c29.6-18.45,43.56-55.54,31.55-89.83C568.09,67.81,524.61,46.89,484.9,60.81z"/>
<path class="st8" d="M1061.64,244.18c41.19,41.19,41.19,107.98,0,149.18c-35.57,35.57-90.23,40.42-131.01,14.56l-3.67,0.98
	l-41.03,11l10.99-41.03l0.98-3.67c-25.86-40.78-21.01-95.44,14.56-131.01C953.65,202.99,1020.44,202.99,1061.64,244.18z"/>
<path class="st8" d="M751.46,68.95c32.74,7.89,52.88,40.83,44.99,73.58c-6.81,28.27-32.31,47.15-60.22,46.69l-1.51,1.59l-16.92,17.8
	l-6.95-23.55l-0.62-2.11c-25.05-12.31-39.15-40.73-32.33-69C685.77,81.2,718.71,61.06,751.46,68.95z"/>
<path class="st8" d="M898.8,812.67c-39.06,38.7-102.11,38.41-140.81-0.65c-33.42-33.73-37.76-85.34-13.17-123.72l-0.91-3.47
	l-10.2-38.77l38.68,10.55l3.46,0.95c38.61-24.24,90.18-19.42,123.6,14.31C938.15,710.92,937.86,773.96,898.8,812.67z"/>
<path class="st8" d="M1074.44,597.75c17.39-42.76-3.17-91.53-45.93-108.92c-36.93-15.02-78.33-1.73-100.14,29.71l-2.98,0.41
	l-33.34,4.6l20.66,26.57l1.85,2.38c-6.33,37.74,14.04,76.15,50.97,91.17C1008.28,661.08,1057.05,640.51,1074.44,597.75z"/>
<path class="st8" d="M193.35,216.27c-31.37,44.03-21.11,105.15,22.92,136.52c38.02,27.09,88.78,23.12,122.13-6.81l3.51,0.34
	l39.24,3.76l-16.37-35.86l-1.46-3.21c17.4-41.3,4.57-90.57-33.46-117.66C285.84,161.98,224.71,172.24,193.35,216.27z"/>
<path class="st8" d="M94.69,560.6c8.32,63.3,66.38,107.87,129.67,99.55c54.66-7.18,95.34-51.46,100.08-104.17l3.31-2.54l36.94-28.33
	l-43-17.83l-3.85-1.6c-18.19-49.69-68.93-81.95-123.59-74.77C130.94,439.25,86.37,497.3,94.69,560.6z"/>
<path class="st8" d="M439.42,818.57c-36-36-36-94.36,0-130.36c31.09-31.09,78.85-35.32,114.49-12.72l3.21-0.86l35.85-9.61
	l-9.61,35.85l-0.86,3.21c22.6,35.64,18.36,83.4-12.72,114.48C533.79,854.57,475.42,854.57,439.42,818.57z"/>
<path class="st9" d="M610.07,296.16c4.95,0,8.98-4.04,8.98-8.98c0-4.95-4.04-8.98-8.98-8.98s-8.98,4.04-8.98,8.98
	C601.08,292.13,605.12,296.16,610.07,296.16z"/>
<path class="st9" d="M505.6,378.25c4.95,0,8.98-4.03,8.98-8.98c0-4.95-4.04-8.98-8.98-8.98c-4.95,0-8.98,4.04-8.98,8.98
	C496.62,374.21,500.66,378.25,505.6,378.25z"/>
<path class="st9" d="M701.77,403.4c4.95,0,8.98-4.03,8.98-8.98c0-4.95-4.04-8.98-8.98-8.98c-4.95,0-8.98,4.04-8.98,8.98
	C692.78,399.37,696.82,403.4,701.77,403.4z"/>
<path class="st9" d="M723.37,521.9c4.95,0,8.98-4.04,8.98-8.98c0-4.95-4.04-8.98-8.98-8.98c-4.95,0-8.98,4.03-8.98,8.98
	C714.39,517.86,718.42,521.9,723.37,521.9z"/>
<path class="st9" d="M659.26,605.95c4.95,0,8.98-4.04,8.98-8.98s-4.04-8.98-8.98-8.98s-8.98,4.03-8.98,8.98
	S654.32,605.95,659.26,605.95z"/>
<path class="st9" d="M570.18,488.54c4.95,0,8.98-4.03,8.98-8.98c0-4.95-4.03-8.99-8.98-8.99s-8.98,4.04-8.98,8.99
	C561.2,484.5,565.24,488.54,570.18,488.54z"/>
<path class="st8" d="M611.15,218.57c7.54,0,13.65,6.11,13.65,13.65c0,2.12-0.49,4.2-1.43,6.1l-10.7,21.39
	c-0.29,0.59-0.86,0.94-1.52,0.94c-0.66,0-1.23-0.35-1.52-0.94l-10.69-21.38c-0.96-1.89-1.44-3.98-1.44-6.11
	C597.5,224.69,603.61,218.57,611.15,218.57L611.15,218.57z M611.15,225.69c-3.3,0-5.98,2.68-5.98,5.98c0,3.3,2.68,5.98,5.98,5.98
	c3.3,0,5.98-2.68,5.98-5.98C617.13,228.37,614.45,225.69,611.15,225.69z"/>
<path class="st8" d="M504.8,300.74c7.54,0,13.65,6.11,13.65,13.65c0,2.12-0.49,4.2-1.44,6.1l-10.7,21.39
	c-0.29,0.59-0.86,0.94-1.52,0.94c-0.66,0-1.23-0.35-1.52-0.94l-10.69-21.38c-0.96-1.89-1.44-3.98-1.44-6.11
	C491.15,306.85,497.26,300.74,504.8,300.74L504.8,300.74z M504.8,307.86c-3.3,0-5.98,2.68-5.98,5.98c0,3.3,2.68,5.98,5.98,5.98
	c3.3,0,5.98-2.68,5.98-5.98C510.78,310.54,508.11,307.86,504.8,307.86z"/>
<path class="st8" d="M723.38,444.06c7.54,0,13.65,6.11,13.65,13.65c0,2.12-0.49,4.2-1.44,6.1l-10.7,21.39
	c-0.29,0.59-0.86,0.94-1.52,0.94c-0.66,0-1.22-0.35-1.52-0.94l-10.69-21.38c-0.96-1.9-1.44-3.98-1.44-6.11
	C709.72,450.17,715.84,444.06,723.38,444.06L723.38,444.06z M723.38,451.18c-3.3,0-5.98,2.68-5.98,5.98c0,3.3,2.68,5.98,5.98,5.98
	c3.3,0,5.98-2.68,5.98-5.98C729.35,453.86,726.68,451.18,723.38,451.18z"/>
<path class="st9" d="M634.13,567.76c14.64-12.69,36.54-12.55,51.03,0.4l-7.26,7.26c-10.46-8.98-25.9-9.1-36.5-0.39L634.13,567.76z"
	/>
<path class="st9" d="M630.58,622.74c-13.42-15.01-13.08-37.99,1.03-52.59l7.25,7.25c-10.11,10.6-10.45,27.09-1.01,38.08
	L630.58,622.74z"/>
<path class="st10" d="M686.27,624.82c-14.83,14.32-38.27,14.46-53.26,0.42l7.25-7.25c10.98,10.04,27.94,9.91,38.76-0.41
	L686.27,624.82z"/>
<path class="st9" d="M687.65,570.59c13.56,14.48,13.9,36.83,1.01,51.7l-7.27-7.27c8.91-10.84,8.58-26.72-0.99-37.18L687.65,570.59z"
	/>
<g>
	<g>
		<path class="st11" d="M175.61,346.3c1.85,0,3.53,0.75,4.75,1.97l0,0c1.21,1.21,1.97,2.89,1.97,4.75c0,1.85-0.75,3.54-1.97,4.75
			c-1.22,1.21-2.9,1.97-4.75,1.97c-1.56,0-3-0.53-4.14-1.43l-9.07,9.07v27.31c1.2,0.3,2.27,0.92,3.11,1.77l0,0
			c1.21,1.21,1.97,2.89,1.97,4.75c0,1.85-0.75,3.54-1.97,4.75c-1.21,1.22-2.9,1.97-4.75,1.97c-1.86,0-3.54-0.75-4.75-1.97l0,0
			c-1.22-1.22-1.97-2.9-1.97-4.75c0-1.85,0.75-3.53,1.97-4.75l0.01,0c0.89-0.89,2.03-1.54,3.31-1.82v-27.9v-0.64l0.45-0.45
			l9.76-9.76c-0.42-0.87-0.65-1.85-0.65-2.88c0-1.85,0.75-3.53,1.97-4.74l0.01-0.01C172.08,347.05,173.76,346.3,175.61,346.3
			L175.61,346.3z M178.19,350.44c-0.66-0.66-1.57-1.06-2.58-1.06c-1.01,0-1.92,0.41-2.58,1.06l0,0c-0.66,0.66-1.06,1.57-1.06,2.58
			c0,1.01,0.41,1.92,1.06,2.58h0c0.66,0.66,1.57,1.07,2.58,1.07c1.01,0,1.92-0.41,2.58-1.07c0.66-0.66,1.07-1.57,1.07-2.58
			C179.25,352.01,178.84,351.1,178.19,350.44L178.19,350.44L178.19,350.44z M163.35,398.62c-0.66-0.65-1.57-1.06-2.58-1.06
			c-1.01,0-1.92,0.41-2.58,1.06l0,0.01c-0.66,0.65-1.06,1.57-1.06,2.58c0,1.01,0.41,1.92,1.06,2.58h0c0.66,0.66,1.57,1.07,2.58,1.07
			c1.01,0,1.92-0.41,2.58-1.07c0.66-0.66,1.07-1.57,1.07-2.58C164.41,400.2,164,399.29,163.35,398.62L163.35,398.62z"/>
		<path class="st11" d="M127.37,346.3c-1.85,0-3.53,0.75-4.75,1.97l0,0c-1.22,1.21-1.97,2.89-1.97,4.75c0,1.85,0.75,3.54,1.97,4.75
			c1.21,1.21,2.9,1.97,4.75,1.97c1.56,0,3-0.53,4.14-1.43l9.06,9.07v27.31c-1.2,0.3-2.27,0.92-3.11,1.77l0,0
			c-1.22,1.21-1.97,2.89-1.97,4.75c0,1.85,0.75,3.54,1.97,4.75c1.21,1.22,2.9,1.97,4.75,1.97c1.86,0,3.54-0.75,4.75-1.97l0,0
			c1.22-1.22,1.97-2.9,1.97-4.75c0-1.85-0.75-3.53-1.97-4.75l-0.01,0c-0.89-0.89-2.03-1.54-3.31-1.82v-27.9v-0.64l-0.45-0.45
			l-9.76-9.76c0.42-0.87,0.65-1.85,0.65-2.88c0-1.85-0.75-3.53-1.97-4.74l-0.01-0.01C130.9,347.05,129.22,346.3,127.37,346.3
			L127.37,346.3z M124.79,350.44c0.65-0.66,1.57-1.06,2.58-1.06c1.01,0,1.92,0.41,2.58,1.06l0.01,0c0.66,0.66,1.06,1.57,1.06,2.58
			c0,1.01-0.41,1.92-1.06,2.58h-0.01c-0.66,0.66-1.57,1.07-2.58,1.07c-1.01,0-1.92-0.41-2.58-1.07c-0.66-0.66-1.07-1.57-1.07-2.58
			C123.72,352.01,124.13,351.1,124.79,350.44L124.79,350.44L124.79,350.44z M139.63,398.62c0.65-0.65,1.57-1.06,2.58-1.06
			c1.01,0,1.92,0.41,2.58,1.06l0.01,0.01c0.65,0.65,1.06,1.57,1.06,2.58c0,1.01-0.41,1.92-1.06,2.58h-0.01
			c-0.66,0.66-1.57,1.07-2.58,1.07c-1.01,0-1.92-0.41-2.58-1.07c-0.66-0.66-1.07-1.57-1.07-2.58
			C138.56,400.2,138.97,399.29,139.63,398.62L139.63,398.62z"/>
	</g>
	<path class="st11" d="M149.75,388.14v-41.92c-1.16-0.31-2.19-0.92-3.01-1.74l0,0c-1.22-1.22-1.97-2.9-1.97-4.75
		c0-1.85,0.75-3.53,1.97-4.75l0.01-0.01c1.22-1.22,2.89-1.97,4.74-1.97s3.53,0.75,4.75,1.97l0,0c1.22,1.22,1.97,2.9,1.97,4.75
		c0,1.85-0.75,3.54-1.97,4.75c-0.92,0.92-2.1,1.57-3.42,1.84v41.83H149.75L149.75,388.14z M154.07,337.14
		c-0.65-0.65-1.57-1.06-2.58-1.06s-1.92,0.41-2.58,1.06l-0.01,0.01c-0.65,0.65-1.06,1.57-1.06,2.58c0,1.01,0.41,1.93,1.06,2.58h0.01
		c0.66,0.66,1.57,1.07,2.58,1.07c1.01,0,1.92-0.41,2.58-1.07c0.66-0.66,1.07-1.57,1.07-2.58
		C155.13,338.72,154.72,337.8,154.07,337.14L154.07,337.14z"/>
</g>
<g>
	<g>
		<path class="st11" d="M1186.48,490.59c1.85,0,3.53,0.75,4.75,1.97l0.01,0c1.21,1.22,1.97,2.9,1.97,4.75
			c0,1.85-0.75,3.54-1.97,4.75c-1.22,1.21-2.9,1.97-4.75,1.97c-1.56,0-3-0.53-4.14-1.43l-9.07,9.07v27.31
			c1.19,0.3,2.27,0.92,3.11,1.77l0,0c1.21,1.21,1.97,2.89,1.97,4.75c0,1.85-0.76,3.54-1.97,4.75c-1.22,1.21-2.9,1.97-4.75,1.97
			c-1.86,0-3.54-0.75-4.75-1.97l0,0c-1.22-1.22-1.97-2.9-1.97-4.75c0-1.85,0.75-3.53,1.97-4.75l0,0c0.89-0.89,2.03-1.54,3.31-1.82
			v-27.9v-0.64l0.45-0.45l9.76-9.76c-0.42-0.87-0.65-1.85-0.65-2.88c0-1.85,0.75-3.53,1.97-4.75l0.01-0.01
			C1182.95,491.35,1184.63,490.59,1186.48,490.59L1186.48,490.59z M1189.06,494.73c-0.65-0.66-1.57-1.06-2.58-1.06
			c-1.01,0-1.93,0.41-2.58,1.06l-0.01,0c-0.65,0.66-1.06,1.57-1.06,2.58s0.41,1.92,1.06,2.58h0.01c0.66,0.66,1.57,1.07,2.58,1.07
			c1.01,0,1.92-0.41,2.58-1.07c0.66-0.66,1.07-1.57,1.07-2.58C1190.13,496.31,1189.71,495.39,1189.06,494.73L1189.06,494.73
			L1189.06,494.73z M1174.22,542.92c-0.66-0.65-1.57-1.06-2.58-1.06c-1.01,0-1.93,0.41-2.58,1.06l-0.01,0.01
			c-0.65,0.65-1.06,1.57-1.06,2.58s0.41,1.92,1.06,2.58h0.01c0.66,0.66,1.57,1.07,2.58,1.07c1.01,0,1.92-0.41,2.58-1.07
			c0.66-0.66,1.07-1.57,1.07-2.58C1175.28,544.5,1174.87,543.58,1174.22,542.92L1174.22,542.92z"/>
		<path class="st11" d="M1138.24,490.59c-1.85,0-3.53,0.75-4.75,1.97l0,0c-1.22,1.22-1.97,2.9-1.97,4.75c0,1.85,0.75,3.54,1.97,4.75
			c1.21,1.21,2.9,1.97,4.75,1.97c1.56,0,3-0.53,4.14-1.43l9.06,9.07v27.31c-1.19,0.3-2.27,0.92-3.11,1.77l0,0
			c-1.21,1.21-1.97,2.89-1.97,4.75c0,1.85,0.75,3.54,1.97,4.75c1.22,1.21,2.9,1.97,4.75,1.97c1.86,0,3.54-0.75,4.75-1.97l0,0
			c1.22-1.22,1.97-2.9,1.97-4.75c0-1.85-0.75-3.53-1.97-4.75l0,0c-0.89-0.89-2.03-1.54-3.31-1.82v-27.9v-0.64l-0.45-0.45l-9.76-9.76
			c0.42-0.87,0.65-1.85,0.65-2.88c0-1.85-0.75-3.53-1.97-4.75l-0.01-0.01C1141.77,491.35,1140.09,490.59,1138.24,490.59
			L1138.24,490.59z M1135.66,494.73c0.65-0.66,1.57-1.06,2.58-1.06c1.01,0,1.92,0.41,2.58,1.06l0.01,0
			c0.65,0.66,1.06,1.57,1.06,2.58s-0.41,1.92-1.06,2.58h-0.01c-0.66,0.66-1.57,1.07-2.58,1.07c-1.01,0-1.92-0.41-2.58-1.07
			c-0.66-0.66-1.07-1.57-1.07-2.58C1134.59,496.31,1135,495.39,1135.66,494.73L1135.66,494.73L1135.66,494.73z M1150.5,542.92
			c0.65-0.65,1.57-1.06,2.58-1.06c1.01,0,1.93,0.41,2.58,1.06l0.01,0.01c0.65,0.65,1.06,1.57,1.06,2.58s-0.41,1.92-1.06,2.58h-0.01
			c-0.66,0.66-1.57,1.07-2.58,1.07c-1.01,0-1.92-0.41-2.58-1.07c-0.66-0.66-1.07-1.57-1.07-2.58
			C1149.43,544.5,1149.84,543.58,1150.5,542.92L1150.5,542.92z"/>
	</g>
	<path class="st11" d="M1160.62,532.44v-41.92c-1.16-0.31-2.19-0.92-3.01-1.74l0.01,0c-1.22-1.22-1.97-2.9-1.97-4.75
		c0-1.85,0.75-3.53,1.97-4.75l0.01,0c1.22-1.22,2.89-1.97,4.74-1.97c1.85,0,3.53,0.75,4.75,1.97l0,0c1.21,1.21,1.97,2.9,1.97,4.75
		c0,1.85-0.76,3.54-1.97,4.75c-0.91,0.91-2.1,1.57-3.42,1.84v41.83H1160.62L1160.62,532.44z M1164.94,481.43
		c-0.66-0.65-1.57-1.06-2.58-1.06c-1.01,0-1.92,0.41-2.58,1.06l0,0.01c-0.66,0.65-1.06,1.57-1.06,2.58c0,1.01,0.41,1.93,1.06,2.58h0
		c0.66,0.66,1.57,1.07,2.58,1.07c1.01,0,1.92-0.41,2.58-1.07c0.66-0.66,1.07-1.57,1.07-2.58
		C1166.01,483.01,1165.6,482.1,1164.94,481.43L1164.94,481.43z"/>
</g>
<g>
	<path class="st12" d="M547.65,10.77h21.92c2.67,0,4.85,2.18,4.85,4.85l0,0c0,2.67-2.18,4.85-4.85,4.85h-21.92
		c-2.67,0-4.85-2.18-4.85-4.85l0,0C542.8,12.95,544.98,10.77,547.65,10.77z"/>
	<path class="st12" d="M547.65,27.18h32.46c2.67,0,4.85,2.18,4.85,4.85l0,0c0,2.67-2.18,4.85-4.85,4.85h-32.46
		c-2.67,0-4.85-2.18-4.85-4.85l0,0C542.8,29.37,544.98,27.18,547.65,27.18z"/>
	<path class="st12" d="M547.65,43.6h21.92c2.67,0,4.85,2.18,4.85,4.85l0,0c0,2.67-2.18,4.85-4.85,4.85h-21.92
		c-2.67,0-4.85-2.18-4.85-4.85l0,0C542.8,45.79,544.98,43.6,547.65,43.6z"/>
	<path class="st12" d="M882.7,595.6h6.96c2.01,0,3.66,1.64,3.66,3.66v0c0,2.01-1.64,3.66-3.66,3.66h-6.96
		c-2.01,0-3.66-1.64-3.66-3.66v0C879.04,597.24,880.68,595.6,882.7,595.6z"/>
	<path class="st12" d="M873.93,607.98h24.48c2.01,0,3.66,1.64,3.66,3.66v0c0,2.01-1.64,3.65-3.66,3.65h-24.48
		c-2.01,0-3.66-1.64-3.66-3.65v0C870.28,609.62,871.92,607.98,873.93,607.98z"/>
	<path class="st12" d="M881.88,620.36h8.58c2.01,0,3.66,1.64,3.66,3.66v0c0,2.01-1.64,3.66-3.66,3.66h-8.58
		c-2.01,0-3.66-1.64-3.66-3.66v0C878.23,622,879.87,620.36,881.88,620.36z"/>
	<path class="st12" d="M139.68,221.22H150c2.72,0,4.94,2.22,4.94,4.94v0c0,2.72-2.22,4.94-4.94,4.94h-10.33
		c-2.72,0-4.94-2.22-4.94-4.94v0C134.74,223.45,136.96,221.22,139.68,221.22z"/>
	<path class="st12" d="M128.3,237.95h33.07c2.72,0,4.94,2.22,4.94,4.94v0c0,2.72-2.22,4.94-4.94,4.94H128.3
		c-2.72,0-4.94-2.22-4.94-4.94v0C123.36,240.17,125.59,237.95,128.3,237.95z"/>
	<path class="st12" d="M145.96,254.67h15.42c2.72,0,4.94,2.22,4.94,4.94v0c0,2.72-2.22,4.94-4.94,4.94h-15.42
		c-2.72,0-4.94-2.22-4.94-4.94v0C141.02,256.89,143.24,254.67,145.96,254.67z"/>
	<path class="st12" d="M69.32,472.14h-8.94c-2.59,0-4.7,2.12-4.7,4.7v0c0,2.59,2.12,4.7,4.7,4.7h8.94c2.59,0,4.7-2.12,4.7-4.7v0
		C74.03,474.26,71.91,472.14,69.32,472.14z"/>
	<path class="st12" d="M80.59,488.06H49.11c-2.59,0-4.7,2.12-4.7,4.7v0c0,2.59,2.11,4.7,4.7,4.7h31.48c2.59,0,4.7-2.12,4.7-4.7v0
		C85.29,490.18,83.18,488.06,80.59,488.06z"/>
	<path class="st12" d="M70.37,503.98H59.33c-2.59,0-4.7,2.11-4.7,4.7v0c0,2.59,2.11,4.7,4.7,4.7h11.04c2.58,0,4.7-2.11,4.7-4.7v0
		C75.07,506.09,72.95,503.98,70.37,503.98z"/>
	<path class="st12" d="M612.01,747.29h6.1c2.56,0,4.65,2.09,4.65,4.65l0,0c0,2.56-2.09,4.65-4.65,4.65h-6.1
		c-2.56,0-4.65-2.09-4.65-4.65l0,0C607.35,749.39,609.45,747.29,612.01,747.29z"/>
	<path class="st12" d="M612.5,763.04h20.54c2.56,0,4.65,2.09,4.65,4.66l0,0c0,2.56-2.09,4.65-4.65,4.65H612.5
		c-2.56,0-4.65-2.09-4.65-4.65l0,0C607.84,765.14,609.93,763.04,612.5,763.04z"/>
	<path class="st12" d="M1104.59,511.85h6.96c2.01,0,3.65,1.64,3.65,3.66v0c0,2.01-1.64,3.65-3.65,3.65h-6.96
		c-2.01,0-3.66-1.64-3.66-3.65v0C1100.93,513.49,1102.58,511.85,1104.59,511.85z"/>
	<path class="st12" d="M1095.83,524.23h24.48c2.01,0,3.66,1.64,3.66,3.66v0c0,2.01-1.64,3.66-3.66,3.66h-24.48
		c-2.01,0-3.65-1.64-3.65-3.66v0C1092.17,525.87,1093.81,524.23,1095.83,524.23z"/>
	<path class="st12" d="M1103.78,536.61h8.58c2.01,0,3.66,1.64,3.66,3.66v0c0,2.01-1.64,3.65-3.66,3.65h-8.58
		c-2.01,0-3.66-1.64-3.66-3.65v0C1100.12,538.25,1101.76,536.61,1103.78,536.61z"/>
	<path class="st12" d="M850.59,86.89h11.38c2.67,0,4.85,2.18,4.85,4.85l0,0c0,2.67-2.18,4.85-4.85,4.85h-11.38
		c-2.67,0-4.85-2.18-4.85-4.85l0,0C845.74,89.07,847.92,86.89,850.59,86.89z"/>
	<path class="st12" d="M840.05,103.31h32.46c2.67,0,4.85,2.18,4.85,4.85l0,0c0,2.67-2.18,4.85-4.85,4.85h-32.46
		c-2.67,0-4.85-2.18-4.85-4.85l0,0C835.2,105.49,837.38,103.31,840.05,103.31z"/>
	<path class="st12" d="M582.15,43.6h0.84c2.67,0,4.85,2.18,4.85,4.85l0,0c0,2.67-2.18,4.85-4.85,4.85h-0.84
		c-2.67,0-4.85-2.18-4.85-4.85l0,0C577.3,45.79,579.49,43.6,582.15,43.6z"/>
	<path class="st12" d="M595.45,43.6h0.84c2.67,0,4.85,2.18,4.85,4.85l0,0c0,2.67-2.18,4.85-4.85,4.85h-0.84
		c-2.67,0-4.85-2.18-4.85-4.85l0,0C590.6,45.79,592.78,43.6,595.45,43.6z"/>
	<path class="st12" d="M128.35,254.67h0.86c2.72,0,4.94,2.22,4.94,4.94v0c0,2.72-2.22,4.94-4.94,4.94h-0.86
		c-2.72,0-4.94-2.22-4.94-4.94v0C123.41,256.89,125.63,254.67,128.35,254.67z"/>
	<path class="st12" d="M612.5,779.21h5.62c2.56,0,4.65,2.09,4.65,4.66l0,0c0,2.56-2.09,4.65-4.65,4.65h-5.62
		c-2.56,0-4.65-2.09-4.65-4.65l0,0C607.84,781.3,609.94,779.21,612.5,779.21z"/>
	<path class="st12" d="M1094.08,229.58h9.47c2.15,0,3.91,1.76,3.91,3.91v0c0,2.15-1.76,3.91-3.91,3.91h-9.47
		c-2.15,0-3.91-1.76-3.91-3.91v0C1090.17,231.34,1091.93,229.58,1094.08,229.58z"/>
	<path class="st12" d="M1085.74,242.8h26.14c2.15,0,3.91,1.76,3.91,3.91v0c0,2.15-1.76,3.91-3.91,3.91h-26.14
		c-2.15,0-3.91-1.76-3.91-3.91v0C1081.83,244.56,1083.59,242.8,1085.74,242.8z"/>
	<path class="st12" d="M1094.23,256.02h9.17c2.15,0,3.91,1.76,3.91,3.9v0c0,2.15-1.76,3.9-3.91,3.9h-9.17
		c-2.15,0-3.91-1.76-3.91-3.9v0C1090.32,257.78,1092.08,256.02,1094.23,256.02z"/>
</g>
<circle cx="504.6" cy="753.39" r="78.58"/>
<g>
	<defs>
		<path id="SVGID_1_" d="M583.18,753.39c-1.07-41.37-35.01-78.58-78.58-78.58c-43.55,0-77.5,37.16-78.58,78.58
			c-1.12,43.08,33.54,82.69,78.27,82.86C549.27,836.42,584.3,796.65,583.18,753.39z"/>
	</defs>
	<clipPath id="SVGID_00000108268237818286298950000007488438595362394509_">
		<use xlink:href="#SVGID_1_"  style="overflow:visible;"/>
	</clipPath>
	<path style="clip-path:url(#SVGID_00000108268237818286298950000007488438595362394509_);fill:#FFFDFC;" d="M568.55,803.6
		c-11.71-6.02-23.87-10.99-36.15-15.71c-0.91-0.35-2.01-1.03-2.38-1.86c-1-2.2-1.69-4.55-2.41-6.88c-0.45-1.48-0.86-2.88-2.48-3.59
		c-0.43-0.18-0.84-1.05-0.83-1.59c0.09-5.4-1.16-11.06,2.83-15.76c0.13-0.14,0.17-0.36,0.26-0.53c2.15-4.73,2.54-10.11,5.55-14.5
		c0.07-0.1,0.1-0.25,0.1-0.38c0.36-3.35,0.71-6.69,1-10.04c0.03-0.42-0.34-1.16-0.69-1.28c-1.67-0.6-1.57-1.92-1.56-3.26
		c0.01-6.55,0-13.09-0.01-19.63c-0.01-3.8-1.13-7.19-3.99-9.78c-3.27-2.95-6.64-5.79-10-8.64c-1.62-1.37-1.77-2.43-0.25-3.94
		c0.67-0.66,1.54-1.14,2.32-1.71c-0.17-0.26-0.34-0.51-0.5-0.76c-1.02,0-2.05-0.14-3.05,0.02c-3.72,0.6-7.44,1.13-11.11,1.99
		c-6.97,1.65-13.74,3.83-19.41,8.5c-3.89,3.2-6.98,6.92-7.36,12.18c-0.2,2.75-0.17,5.52-0.2,8.29c-0.02,4.49,0.04,9-0.06,13.49
		c-0.02,0.73-0.44,1.93-0.93,2.1c-1.83,0.59-1.88,1.75-1.63,3.27c0.17,1.03,0.03,2.13,0.26,3.14c0.63,2.82,1.3,5.62,2.11,8.39
		c0.61,2.06,1.78,4.01,2.1,6.1c0.65,4.18,2.19,7.83,5.01,10.99c0.47,0.52,0.82,1.41,0.77,2.09c-0.21,3.22-0.55,6.45-0.98,9.65
		c-0.09,0.62-0.74,1.55-1.29,1.67c-2.14,0.44-2.47,2.1-2.98,3.76c-0.67,2.2-1.4,4.4-2.24,6.53c-0.27,0.65-0.93,1.35-1.59,1.64
		c-3.81,1.67-7.68,3.19-11.52,4.79c-4.08,1.71-8.2,3.35-12.18,5.25c-4.11,1.96-8.08,4.17-12.11,6.32c-2.36,1.27-4.58,2.67-6.44,4.41
		v26.5c46.69,0,93.38,0,140.06,0v-26.8C572.91,806.29,570.88,804.8,568.55,803.6z"/>
</g>
<circle cx="209.3" cy="545.54" r="101.68"/>
<g>
	<defs>
		<path id="SVGID_00000096771832147708741100000001913654583828480419_" d="M310.97,545.54C310,491.29,265.49,443.86,209.3,443.86
			c-56.23,0-100.72,47.48-101.68,101.68c-0.99,55.83,44.44,105.58,101.97,105.42C266.87,650.8,311.97,601.2,310.97,545.54z"/>
	</defs>
	<clipPath id="SVGID_00000032625428227412522880000008694896656315259043_">
		<use xlink:href="#SVGID_00000096771832147708741100000001913654583828480419_"  style="overflow:visible;"/>
	</clipPath>
	<path style="clip-path:url(#SVGID_00000032625428227412522880000008694896656315259043_);fill:#FFFDFC;" d="M292.04,610.51
		c-15.16-7.79-30.88-14.23-46.77-20.33c-1.18-0.45-2.6-1.34-3.08-2.4c-1.29-2.85-2.19-5.89-3.12-8.91
		c-0.58-1.92-1.11-3.73-3.21-4.64c-0.56-0.24-1.09-1.36-1.08-2.06c0.11-6.98-1.5-14.31,3.66-20.39c0.17-0.18,0.22-0.47,0.33-0.68
		c2.79-6.11,3.29-13.08,7.18-18.76c0.1-0.13,0.13-0.32,0.13-0.49c0.46-4.33,0.92-8.65,1.29-12.99c0.04-0.54-0.44-1.5-0.89-1.66
		c-2.16-0.77-2.03-2.48-2.02-4.22c0.02-8.47,0-16.94-0.01-25.4c-0.01-4.92-1.46-9.3-5.17-12.65c-4.23-3.81-8.59-7.49-12.94-11.18
		c-2.1-1.78-2.29-3.14-0.33-5.1c0.87-0.86,1.99-1.48,3-2.21c-0.21-0.33-0.44-0.66-0.65-0.99c-1.31,0-2.66-0.17-3.94,0.02
		c-4.81,0.78-9.63,1.46-14.38,2.57c-9.02,2.13-17.78,4.95-25.11,10.99c-5.04,4.14-9.04,8.95-9.52,15.76
		c-0.25,3.56-0.22,7.15-0.25,10.72c-0.03,5.81,0.05,11.64-0.07,17.45c-0.02,0.95-0.57,2.5-1.2,2.72c-2.36,0.76-2.43,2.27-2.11,4.23
		c0.21,1.34,0.04,2.76,0.34,4.07c0.82,3.65,1.68,7.28,2.73,10.86c0.79,2.67,2.3,5.19,2.72,7.9c0.84,5.41,2.83,10.13,6.49,14.22
		c0.6,0.68,1.07,1.82,1,2.7c-0.27,4.17-0.71,8.35-1.27,12.48c-0.11,0.8-0.96,2.01-1.66,2.16c-2.77,0.57-3.2,2.72-3.85,4.86
		c-0.87,2.85-1.81,5.69-2.9,8.45c-0.35,0.84-1.2,1.75-2.05,2.13c-4.93,2.16-9.94,4.12-14.9,6.2c-5.28,2.21-10.61,4.34-15.76,6.8
		c-5.32,2.53-10.46,5.4-15.67,8.18c-3.06,1.64-5.92,3.46-8.33,5.71v34.29c60.42,0,120.83,0,181.23,0v-34.68
		C297.69,613.98,295.06,612.06,292.04,610.51z"/>
</g>
<circle cx="996.68" cy="566.25" r="73.26"/>
<g>
	<defs>
		<path id="SVGID_00000097490538173326330140000017963926433502485422_" d="M1069.94,566.25c-0.83-38.74-32.65-73.26-73.26-73.26
			c-40.51,0-72.4,34.34-73.26,73.26c-0.88,39.99,31.18,75.94,72.1,76.57C1037.37,643.48,1070.81,606.9,1069.94,566.25z"/>
	</defs>
	<clipPath id="SVGID_00000082354311901040741240000001410538082836506249_">
		<use xlink:href="#SVGID_00000097490538173326330140000017963926433502485422_"  style="overflow:visible;"/>
	</clipPath>
	<path style="clip-path:url(#SVGID_00000082354311901040741240000001410538082836506249_);fill:#FFFDFC;" d="M1056.3,613.07
		c-10.92-5.61-22.25-10.25-33.7-14.65c-0.85-0.33-1.87-0.96-2.22-1.73c-0.93-2.05-1.58-4.24-2.25-6.42
		c-0.42-1.38-0.8-2.68-2.31-3.34c-0.4-0.17-0.79-0.98-0.77-1.49c0.08-5.03-1.08-10.31,2.64-14.69c0.12-0.13,0.16-0.34,0.24-0.49
		c2.01-4.41,2.37-9.42,5.17-13.52c0.07-0.09,0.09-0.23,0.1-0.36c0.33-3.12,0.67-6.24,0.93-9.36c0.03-0.39-0.32-1.08-0.64-1.19
		c-1.55-0.56-1.46-1.79-1.46-3.04c0.01-6.1,0-12.21-0.01-18.3c-0.01-3.55-1.05-6.7-3.72-9.11c-3.05-2.75-6.19-5.4-9.32-8.05
		c-1.51-1.28-1.65-2.27-0.24-3.68c0.62-0.62,1.43-1.07,2.16-1.59c-0.15-0.24-0.32-0.48-0.47-0.71c-0.95,0-1.92-0.13-2.84,0.02
		c-3.46,0.56-6.94,1.05-10.36,1.85c-6.5,1.54-12.81,3.57-18.09,7.92c-3.63,2.98-6.51,6.45-6.86,11.36
		c-0.18,2.56-0.16,5.15-0.18,7.73c-0.02,4.19,0.03,8.39-0.05,12.57c-0.02,0.68-0.41,1.8-0.87,1.96c-1.7,0.55-1.75,1.64-1.52,3.05
		c0.15,0.96,0.03,1.99,0.25,2.93c0.59,2.63,1.21,5.24,1.97,7.82c0.57,1.92,1.66,3.74,1.96,5.69c0.6,3.9,2.04,7.3,4.67,10.24
		c0.44,0.49,0.77,1.31,0.72,1.94c-0.2,3.01-0.51,6.02-0.91,8.99c-0.08,0.58-0.69,1.45-1.2,1.55c-2,0.41-2.31,1.96-2.78,3.51
		c-0.62,2.05-1.3,4.1-2.09,6.09c-0.25,0.61-0.87,1.26-1.48,1.53c-3.55,1.55-7.16,2.97-10.74,4.47c-3.8,1.59-7.65,3.13-11.36,4.9
		c-3.83,1.82-7.54,3.89-11.29,5.9c-2.2,1.18-4.27,2.49-6.01,4.11v24.71c43.53,0,87.06,0,130.58,0V617.2
		C1060.37,615.57,1058.47,614.18,1056.3,613.07z"/>
</g>
<circle cx="510.09" cy="132.55" r="65.79"/>
<g>
	<defs>
		<path id="SVGID_00000074429631735664624220000018252652636275741875_" d="M575.88,132.55c-0.58-34.98-29.34-65.79-65.79-65.79
			c-36.28,0-65.17,30.52-65.79,65.79c-0.62,35.78,28.03,67.18,64.12,68.08C545.87,201.57,576.49,169.28,575.88,132.55z"/>
	</defs>
	<clipPath id="SVGID_00000173878346927518878440000011153781118925373828_">
		<use xlink:href="#SVGID_00000074429631735664624220000018252652636275741875_"  style="overflow:visible;"/>
	</clipPath>
	<path style="clip-path:url(#SVGID_00000173878346927518878440000011153781118925373828_);fill:#FFFDFC;" d="M563.63,174.59
		c-9.81-5.04-19.98-9.2-30.26-13.15c-0.76-0.29-1.68-0.86-1.99-1.56c-0.83-1.84-1.42-3.81-2.02-5.76c-0.38-1.24-0.72-2.41-2.08-3
		c-0.36-0.15-0.71-0.88-0.7-1.33c0.07-4.52-0.97-9.26,2.37-13.19c0.11-0.12,0.14-0.3,0.22-0.44c1.8-3.96,2.13-8.46,4.65-12.14
		c0.06-0.08,0.08-0.21,0.09-0.32c0.3-2.8,0.6-5.6,0.83-8.41c0.03-0.35-0.28-0.97-0.58-1.07c-1.4-0.5-1.31-1.61-1.31-2.73
		c0.01-5.48,0-10.96-0.01-16.44c-0.01-3.18-0.94-6.02-3.34-8.18c-2.74-2.47-5.56-4.85-8.37-7.23c-1.36-1.15-1.48-2.03-0.21-3.3
		c0.56-0.56,1.29-0.96,1.94-1.43c-0.14-0.22-0.28-0.43-0.42-0.64c-0.85,0-1.72-0.11-2.55,0.02c-3.11,0.5-6.23,0.94-9.3,1.66
		c-5.84,1.38-11.51,3.2-16.25,7.11c-3.26,2.68-5.85,5.79-6.16,10.2c-0.16,2.3-0.14,4.63-0.16,6.94c-0.02,3.76,0.03,7.53-0.05,11.29
		c-0.02,0.61-0.37,1.62-0.78,1.76c-1.53,0.49-1.57,1.47-1.36,2.74c0.14,0.86,0.03,1.78,0.22,2.63c0.53,2.36,1.09,4.71,1.77,7.03
		c0.51,1.73,1.49,3.36,1.76,5.11c0.54,3.5,1.83,6.55,4.2,9.2c0.39,0.44,0.69,1.18,0.64,1.75c-0.18,2.7-0.46,5.4-0.82,8.08
		c-0.07,0.52-0.62,1.3-1.08,1.4c-1.79,0.37-2.07,1.76-2.49,3.15c-0.56,1.84-1.17,3.68-1.87,5.47c-0.23,0.55-0.78,1.13-1.33,1.38
		c-3.19,1.4-6.43,2.67-9.64,4.01c-3.41,1.43-6.87,2.81-10.2,4.4c-3.44,1.64-6.77,3.49-10.14,5.3c-1.98,1.06-3.83,2.24-5.39,3.69
		v22.19c39.09,0,78.18,0,117.26,0V178.3C567.28,176.84,565.58,175.59,563.63,174.59z"/>
</g>
<circle cx="828.72" cy="741.94" r="85.36"/>
<g>
	<defs>
		<circle id="SVGID_00000039101204018516209410000002000496252890910861_" cx="828.72" cy="741.94" r="85.36"/>
	</defs>
	<clipPath id="SVGID_00000011001224666002191350000008234435741968939398_">
		<use xlink:href="#SVGID_00000039101204018516209410000002000496252890910861_"  style="overflow:visible;"/>
	</clipPath>
	<path style="clip-path:url(#SVGID_00000011001224666002191350000008234435741968939398_);fill:#FFFDFC;" d="M902.13,833.32
		c-48.94,0-97.88,0-146.81,0c1.86-12.18,0-35.22,20.44-48.74c5.7-3.77,12.73-5.07,18.98-7.87c0.57-0.19,1.48-0.54,2.49-1.15
		c2.44-1.46,2.96-2.53,5.34-4.33c0.8-0.61,1.78-1.18,2.74-1.33c3.28-0.52,4.73-1.69,5.51-4.93c1.02-4.26,1.73-8.48,0.85-12.92
		c-0.39-1.93-1.09-3.16-2.96-3.89c-3.89-1.52-7.74-3.2-11.58-4.84c-2.87-1.21-3.06-2.23-2.01-5.21c3.31-9.38,5.76-18.93,6.59-28.96
		c0.61-7.52,0.1-15.26,2.83-22.52c1.94-5.12,5.09-9.85,10.25-11.37c3.96-1.16,7.37-3.79,11.54-4.37c0.73-0.05,1.46-0.15,2.22-0.11
		c0.07,0.01,0.15,0.02,0.24,0.03c9.89,0.62,21.68,6.59,24.46,17.57c0.16,0.57,0.22,1.15,0.36,1.73h0.24
		c1.53,6.23,1.37,12.71,1.87,19.05c0.8,10.03,3.26,19.57,6.59,28.96c1.04,2.98,0.85,4-2.01,5.21c-3.85,1.63-7.69,3.32-11.58,4.84
		c-1.88,0.73-2.58,1.96-2.96,3.89c-0.9,4.43-0.18,8.67,0.85,12.92c0.76,3.24,2.22,4.41,5.5,4.93c0.97,0.15,1.93,0.72,2.74,1.33
		c1.84,1.4,3.32,3.41,5.34,4.33c7.07,3.21,14.76,5.18,21.51,9.02C902.13,796.19,900.27,821.15,902.13,833.32z"/>
</g>
<circle cx="987.05" cy="317.96" r="91.12"/>
<g>
	<defs>
		<path id="SVGID_00000060710367600693468460000003014007653719271565_" d="M1078.17,317.96c-0.79-48.71-40.77-91.12-91.12-91.12
			c-50.34,0-90.33,42.41-91.12,91.12c-0.81,49.91,39.72,94.14,91.07,94.16C1038.39,412.14,1078.98,367.89,1078.17,317.96z"/>
	</defs>
	<clipPath id="SVGID_00000013169801458412987680000007590913761103508658_">
		<use xlink:href="#SVGID_00000060710367600693468460000003014007653719271565_"  style="overflow:visible;"/>
	</clipPath>
	<path style="clip-path:url(#SVGID_00000013169801458412987680000007590913761103508658_);fill:#FFFDFC;" d="M1065.41,415.51
		c-52.24,0-104.48,0-156.73,0c1.98-13,0-37.59,21.82-52.03c6.09-4.03,13.59-5.41,20.26-8.4c0.61-0.21,1.58-0.58,2.66-1.23
		c2.6-1.56,3.16-2.71,5.7-4.62c0.86-0.65,1.9-1.26,2.93-1.42c3.5-0.56,5.05-1.8,5.88-5.26c1.09-4.55,1.85-9.06,0.91-13.79
		c-0.42-2.07-1.17-3.37-3.16-4.16c-4.16-1.62-8.26-3.42-12.36-5.17c-3.07-1.29-3.27-2.38-2.15-5.56
		c3.53-10.01,6.15-20.21,7.03-30.92c0.65-8.03,0.1-16.29,3.02-24.04c2.07-5.46,5.43-10.52,10.94-12.14
		c4.23-1.24,7.87-4.05,12.32-4.67c0.78-0.05,1.56-0.16,2.36-0.12c0.08,0.01,0.16,0.02,0.26,0.04c10.56,0.67,23.14,7.04,26.12,18.76
		c0.17,0.61,0.23,1.23,0.38,1.84h0.26c1.63,6.65,1.47,13.57,2,20.33c0.86,10.7,3.48,20.89,7.03,30.92c1.12,3.18,0.91,4.26-2.15,5.56
		c-4.11,1.74-8.21,3.55-12.36,5.17c-2.01,0.78-2.76,2.1-3.16,4.16c-0.96,4.73-0.19,9.25,0.91,13.79c0.81,3.46,2.37,4.71,5.88,5.26
		c1.03,0.16,2.07,0.77,2.93,1.43c1.96,1.49,3.55,3.64,5.7,4.62c7.55,3.43,15.76,5.53,22.96,9.62
		C1065.41,375.87,1063.43,402.51,1065.41,415.51z"/>
</g>
<circle cx="737.16" cy="128.26" r="50.87"/>
<g>
	<defs>
		<path id="SVGID_00000077282807469900786240000007052238268480719001_" d="M788.03,128.26c-0.7-26.57-22.57-50.87-50.87-50.87
			c-28.13,0-50.1,23.99-50.87,50.87c-0.79,27.58,20.89,52.65,48.71,53.8C764.5,183.27,788.8,157.09,788.03,128.26z"/>
	</defs>
	<clipPath id="SVGID_00000089541824252173999690000010250848004943782569_">
		<use xlink:href="#SVGID_00000077282807469900786240000007052238268480719001_"  style="overflow:visible;"/>
	</clipPath>
	<path style="clip-path:url(#SVGID_00000089541824252173999690000010250848004943782569_);fill:#FFFDFC;" d="M780.91,182.72
		c-29.17,0-58.33,0-87.5,0c1.11-7.26,0-20.99,12.18-29.05c3.4-2.25,7.59-3.02,11.31-4.69c0.34-0.11,0.88-0.32,1.49-0.69
		c1.45-0.87,1.77-1.51,3.18-2.58c0.48-0.36,1.06-0.7,1.63-0.79c1.96-0.31,2.82-1.01,3.28-2.94c0.61-2.54,1.03-5.06,0.51-7.7
		c-0.23-1.15-0.65-1.88-1.77-2.32c-2.32-0.91-4.61-1.91-6.9-2.89c-1.71-0.72-1.82-1.33-1.2-3.1c1.97-5.59,3.43-11.28,3.93-17.26
		c0.36-4.48,0.06-9.1,1.69-13.42c1.16-3.05,3.03-5.87,6.11-6.78c2.36-0.69,4.39-2.26,6.88-2.6c0.43-0.03,0.87-0.09,1.32-0.07
		c0.04,0.01,0.09,0.01,0.14,0.02c5.9,0.37,12.92,3.93,14.58,10.47c0.1,0.34,0.13,0.69,0.21,1.03h0.14
		c0.91,3.71,0.82,7.58,1.11,11.35c0.48,5.98,1.94,11.66,3.93,17.26c0.62,1.78,0.51,2.38-1.2,3.1c-2.3,0.97-4.59,1.98-6.9,2.89
		c-1.12,0.43-1.54,1.17-1.77,2.32c-0.54,2.64-0.11,5.17,0.51,7.7c0.45,1.93,1.32,2.63,3.28,2.94c0.58,0.09,1.15,0.43,1.63,0.8
		c1.1,0.83,1.98,2.03,3.18,2.58c4.22,1.92,8.8,3.09,12.82,5.37C780.91,160.59,779.81,175.46,780.91,182.72z"/>
</g>
<circle cx="272.36" cy="273.07" r="85.36"/>
<g>
	<defs>
		<path id="SVGID_00000138556326502803162090000001304410787880637884_" d="M357.71,273.07c-0.77-45.55-38.17-85.36-85.36-85.36
			c-47.16,0-84.58,39.75-85.36,85.36c-0.79,46.71,37.06,88.16,85.04,88.34C320.28,361.59,358.5,319.96,357.71,273.07z"/>
	</defs>
	<clipPath id="SVGID_00000170962994965539382790000014985815658905127840_">
		<use xlink:href="#SVGID_00000138556326502803162090000001304410787880637884_"  style="overflow:visible;"/>
	</clipPath>
	<path style="clip-path:url(#SVGID_00000170962994965539382790000014985815658905127840_);fill:#FFFDFC;" d="M345.76,364.45
		c-48.94,0-97.88,0-146.81,0c1.86-12.18,0-35.22,20.44-48.74c5.7-3.77,12.73-5.07,18.98-7.87c0.57-0.19,1.48-0.54,2.49-1.15
		c2.44-1.46,2.96-2.53,5.34-4.33c0.8-0.61,1.78-1.18,2.74-1.33c3.28-0.52,4.73-1.69,5.51-4.93c1.02-4.26,1.73-8.48,0.85-12.92
		c-0.39-1.93-1.09-3.16-2.96-3.89c-3.89-1.52-7.74-3.2-11.58-4.84c-2.87-1.21-3.06-2.23-2.01-5.21c3.31-9.38,5.76-18.93,6.59-28.96
		c0.61-7.52,0.1-15.26,2.83-22.52c1.94-5.12,5.09-9.85,10.25-11.37c3.96-1.16,7.37-3.79,11.54-4.37c0.73-0.05,1.46-0.15,2.22-0.11
		c0.07,0.01,0.15,0.02,0.24,0.03c9.89,0.62,21.68,6.59,24.46,17.57c0.16,0.57,0.22,1.15,0.36,1.73h0.24
		c1.53,6.23,1.37,12.71,1.87,19.05c0.8,10.03,3.26,19.57,6.59,28.96c1.04,2.98,0.85,4-2.01,5.21c-3.85,1.63-7.69,3.32-11.58,4.84
		c-1.88,0.73-2.58,1.96-2.96,3.89c-0.9,4.43-0.18,8.67,0.85,12.92c0.76,3.24,2.22,4.41,5.5,4.93c0.97,0.15,1.93,0.72,2.74,1.33
		c1.84,1.4,3.32,3.41,5.34,4.33c7.07,3.21,14.76,5.18,21.51,9.02C345.76,327.32,343.91,352.28,345.76,364.45z"/>
</g>
<path class="st21" d="M206.49,649.41"/>
<path class="st21" d="M829.97,832.12"/>
</svg>
