<?xml version="1.0" encoding="utf-8"?>
<!-- Generator: Adobe Illustrator 26.1.0, SVG Export Plug-In . SVG Version: 6.00 Build 0)  -->
<svg version="1.1" id="Layer_1" xmlns="http://www.w3.org/2000/svg" xmlns:xlink="http://www.w3.org/1999/xlink" x="0px" y="0px"
	 viewBox="0 0 1012.68 654.67" style="enable-background:new 0 0 1012.68 654.67;" xml:space="preserve">
<style type="text/css">
	.st0{fill-rule:evenodd;clip-rule:evenodd;fill:#0472CF;}
	.st1{fill-rule:evenodd;clip-rule:evenodd;fill:#1467DB;}
	.st2{fill-rule:evenodd;clip-rule:evenodd;fill:#4298FF;}
	.st3{fill:#1769BC;}
	.st4{fill:#2E8DFF;}
	.st5{fill:#0024A5;}
	.st6{fill:#F7931A;}
	.st7{fill:#FFFFFF;}
	.st8{opacity:0.69;fill:url(#SVGID_1_);}
	.st9{opacity:0.72;}
	.st10{opacity:0.69;fill:url(#SVGID_00000117654556648633769290000013471868243756505017_);}
	.st11{opacity:0.72;fill:#FFFFFF;}
	.st12{fill:#8ADEFF;}
	.st13{fill:#2B333F;}
	.st14{fill:#2A313D;}
	.st15{fill:#373F51;}
	.st16{fill:#101316;}
	.st17{fill:#A3E5FF;}
	.st18{fill:none;}
	.st19{fill:#0F5996;}
	.st20{fill:#64B0ED;}
	.st21{fill:#00B7FF;}
	.st22{fill:#F7F7F7;}
</style>
<g>
	<g>
		<g>
			<path class="st0" d="M637.15,491.66c-0.7-4.37-2.34-8.53-4.79-12.21v14.34c0.08,0.83,0.14,1.66,0.14,2.52
				c0.01,0.11,0.01,0.22,0.01,0.33c0,0.95-0.06,1.9-0.15,2.85v14.33c3.36-5.05,5.18-11,5.18-17.18v-0.11
				C637.55,494.88,637.41,493.26,637.15,491.66z M1008.99,363.76l-20.53-20.53c-1.86-1.86-2.06-4.75-0.49-6.85
				c3.97-5.38,6.11-11.81,6.11-18.5c0-8.28-3.26-16.13-9.12-21.98l-0.03-0.04c-4.39-4.39-9.97-7.36-16.06-8.55
				c-2.49-0.48-4.25-2.61-4.25-5.16l-0.01-58.4c0-0.67-0.25-1.31-0.73-1.79l-24.27-24.26c-1.03-1.03-1.54-2.27-1.54-3.73
				l-0.04-75.31c0-0.56-0.18-1.1-0.52-1.54C923.15,99.01,907,82.36,889.34,67.48c-3.07-2.6-6.19-5.14-9.34-7.62
				c-20.18-15.83-42.11-29.38-65.3-40.34c-1.09-0.52-2.17-1.03-3.26-1.53c-0.15-0.07-0.28-0.12-0.4-0.21
				c-0.38-0.22-0.8-0.33-1.24-0.33c-1.22,0-2.26,0.88-2.46,2.06c-0.04,0.15-0.06,0.3-0.06,0.47v54.83c0,0.67,0.26,1.31,0.73,1.77
				l29.82,29.82c1.02,1.02,1.54,2.27,1.54,3.71v5.85c0,1.46-0.52,2.71-1.57,3.73c-1.03,1.03-2.28,1.54-3.74,1.53h-0.62
				c-8.28,0-16.13,3.26-21.98,9.12l-0.03,0.03c-0.37,0.36-0.73,0.74-1.07,1.11c-5.18,5.71-8.05,13.11-8.05,20.86
				c0,7.23,2.5,14.15,7.08,19.74c0.11,0.14,0.22,0.29,0.34,0.43c1.79,2.09,1.66,5.18-0.27,7.12l-4.24,4.24l-1.16,1.16
				c-1.03,1.02-2.27,1.54-3.73,1.54h-75.68c-0.59,0-1.16,0.21-1.6,0.61c-0.07,0.03-0.12,0.08-0.18,0.14l-0.69,0.69l-3.73,3.73
				l-24.25,24.25l-3.05,3.05l-1.49,1.49l-3.18,3.18l-3.49,3.49l-1.16,1.16c-1.76,1.76-4.43,2.05-6.53,0.73
				c-4.98-3.16-10.69-4.81-16.57-4.81c-8.28,0-16.13,3.27-21.99,9.12l-0.03,0.03c-1.68,1.68-3.15,3.53-4.39,5.52v32.92l0.08,0.12
				c0.21,0.33,0.37,0.66,0.48,1c0.61,1.58,0.4,3.34-0.56,4.75v7.25l2.82-2.82c1.79-1.79,4.5-2.06,6.6-0.69
				c5.07,3.31,10.92,5.06,16.98,5.06c8.27,0,16.12-3.27,21.98-9.12l0.03-0.03c3.09-3.09,5.46-6.75,7.01-10.75
				c0.89-2.3,1.51-4.7,1.83-7.18c0.18-1.33,0.28-2.7,0.28-4.06c0-6.05-1.75-11.91-5.06-16.97c-0.05-0.08-0.1-0.15-0.14-0.23
				c-0.73-1.22-0.89-2.63-0.56-3.93c0.23-0.89,0.7-1.73,1.39-2.43l7.06-7.06l6.52-6.52l25.09-25.09c0.73-0.73,1.6-1.21,2.56-1.42
				c0.37-0.08,0.76-0.12,1.16-0.12h75.7c0.67,0,1.29-0.26,1.77-0.74l9.17-9.16c1.6-1.6,3.88-2.01,5.93-1.06
				c4.07,1.88,8.49,2.85,12.98,2.85c0.23,0,0.47,0,0.7-0.01c8.02-0.18,15.6-3.42,21.28-9.1l0.03-0.04
				c4.57-4.55,7.55-10.31,8.65-16.56c0.32-1.77,0.48-3.59,0.48-5.42c0-8.28-3.27-16.13-9.13-21.98l-0.03-0.03
				c-2.37-2.38-5.12-4.35-8.11-5.86c-1.83-0.91-2.9-2.65-2.9-4.69v-12.89c0-0.69-0.26-1.31-0.74-1.79l-29.8-29.8
				c-1.02-1.02-1.54-2.27-1.54-3.71V32.31c0-1.87,0.91-3.49,2.5-4.47c1.6-0.99,3.44-1.07,5.12-0.22
				c20.13,10.12,39.22,22.27,56.95,36.18c3,2.35,5.97,4.76,8.88,7.23c16.83,14.12,32.29,29.87,46.07,46.99
				c0.78,0.98,1.16,2.05,1.16,3.3v75.86c0,0.67,0.26,1.31,0.74,1.79l24.27,24.27c1.03,1.02,1.54,2.27,1.54,3.71v55.56
				c0,2.45-1.62,4.51-4,5.1c-5.53,1.35-10.58,4.21-14.61,8.22l-0.03,0.04c-5.85,5.85-9.12,13.7-9.12,21.98s3.27,16.13,9.12,21.98
				l0.03,0.03c5.86,5.86,13.71,9.13,21.99,9.13c5.24,0,10.37-1.32,14.96-3.85c2.08-1.16,4.58-0.8,6.26,0.88l18.64,18.65
				c1.18,1.17,1.71,2.67,1.51,4.32c-6.33,55.22-26.17,107.84-57.82,153.51c-29.95,43.21-69.66,79.04-115.76,104.34
				c-1.69,0.92-3.58,0.88-5.21-0.08c-1.65-0.98-2.59-2.61-2.59-4.52v-64.75c0-1.44,0.52-2.7,1.54-3.71l28.04-28.03
				c1.03-1.03,2.27-1.54,3.71-1.54h41.62c0.74,0,1.42-0.33,1.91-0.89c0.08-0.1,0.16-0.18,0.26-0.28l27.38-27.41
				c0.5-0.48,0.73-1.13,0.74-1.75v-24.15c0-0.67-0.26-1.31-0.74-1.77l-19.85-19.86l-4.3-4.31c-0.48-0.47-1.1-0.73-1.79-0.73h-36.51
				c-0.67,0-1.31,0.26-1.79,0.73l-22.75,22.76c-1.02,1.02-2.27,1.54-3.71,1.54h-5.96c-2.89,0-5.25-2.37-5.25-5.25
				c0-7.89-2.97-15.39-8.32-21.15c-0.25-0.29-0.52-0.56-0.8-0.84l-0.04-0.03c-5.85-5.85-13.7-9.12-21.98-9.12
				c-1.47,0-2.93,0.11-4.36,0.32c-3.55,0.49-6.96,1.61-10.09,3.26c-2.75,1.44-5.29,3.33-7.55,5.57c-1.17,1.17-2.78,1.66-4.3,1.49
				c-0.63-0.07-1.25-0.25-1.83-0.56c-0.47-0.22-0.89-0.54-1.29-0.94l-48.6-48.6c-1.03-1.02-1.54-2.27-1.54-3.71v-28.94
				c0-0.67-0.26-1.31-0.74-1.77l-23.9-23.9l-1.82-1.82l-3.81-3.81c-0.47-0.48-1.1-0.74-1.77-0.74h-22.18c-0.56,0-1.1,0.19-1.54,0.52
				c-0.15,0.12-0.29,0.25-0.41,0.4c-0.08,0.11-0.15,0.18-0.23,0.29l-1.99,2.09l-7.74,8.1l-10.08,10.56l-6.19,6.48v7.25l1.53-1.59
				l7.06-7.4l12.53-13.12l6.59-6.9c0.15-0.17,0.32-0.32,0.49-0.45c0.94-0.78,2.05-1.18,3.3-1.18h15.66c1.44,0,2.7,0.52,3.71,1.54
				l5.31,5.31l6.81,6.82l12.85,12.85c1.03,1.02,1.54,2.27,1.54,3.71l0.01,28.94c0,0.67,0.26,1.29,0.73,1.77l20.62,20.62l3.3,3.31
				l29.42,29.42c0.36,0.34,0.65,0.73,0.88,1.14c0.76,1.31,0.89,2.86,0.36,4.35c-1.03,2.86-1.62,5.85-1.79,8.87
				c-0.03,0.54-0.04,1.09-0.04,1.62c0,8.27,3.27,16.13,9.13,21.98l0.03,0.03c5.85,5.85,13.7,9.12,21.98,9.12
				c8.28,0,16.13-3.27,21.98-9.12l0.04-0.03c2.52-2.53,4.59-5.47,6.12-8.69c0.89-1.87,2.67-3,4.74-3h12.68
				c0.67,0,1.31-0.26,1.79-0.73l22.75-22.76c1.02-1.03,2.27-1.54,3.71-1.54h30.08c1.46,0,2.7,0.51,3.73,1.54l19.6,19.6
				c1.02,1.02,1.54,2.27,1.54,3.71v17.76c0,1.44-0.52,2.68-1.54,3.71l-23.2,23.2c-1.02,1.03-2.27,1.54-3.71,1.54l-41.63,0.01
				c-0.69,0-1.31,0.25-1.79,0.73l-32.59,32.59c-0.48,0.48-0.74,1.11-0.74,1.77v80.18c0.01,0.21,0.03,0.4,0.03,0.61
				c0,0.38,0.1,0.77,0.26,1.11c0.62,1.22,2.12,1.72,3.34,1.11c51.68-25.86,96.17-64.49,129.07-111.96
				c32.75-47.27,53.02-101.81,59.03-159.01c0.01-0.12,0.03-0.23,0.06-0.34C1009.83,365.16,1009.59,364.34,1008.99,363.76z
				 M684.86,255.37c0,0.43-0.01,0.85-0.03,1.29c0,0,0,0,0,0.01c-0.32,6.46-2.98,12.54-7.59,17.15l-0.03,0.03
				c-4.9,4.91-11.53,7.62-18.44,7.62c-6.93,0-13.55-2.71-18.46-7.62l-0.03-0.03c-1.4-1.4-2.63-2.94-3.64-4.58
				c-2.59-4.11-3.97-8.91-3.97-13.88c0-6.93,2.71-13.53,7.62-18.44l0.03-0.03c4.91-4.91,11.53-7.62,18.46-7.62
				c6.93,0,13.55,2.71,18.44,7.62l0.03,0.03C682.15,241.84,684.86,248.44,684.86,255.37z M851.91,133.86l0.03,0.04
				c4.9,4.9,7.61,11.51,7.61,18.44c0,1.84-0.19,3.66-0.56,5.42c-1.03,4.9-3.44,9.43-7.04,13.04l-0.03,0.03
				c-4.02,4.02-9.16,6.55-14.7,7.34c-1.24,0.17-2.49,0.26-3.75,0.26c-6.93,0-13.55-2.7-18.46-7.61l-0.03-0.03
				c-1.6-1.6-2.96-3.37-4.06-5.3c-2.31-3.96-3.55-8.49-3.55-13.16c0-5.12,1.47-10.05,4.22-14.25c0.96-1.5,2.09-2.9,3.38-4.19
				l0.03-0.04c4.91-4.91,11.52-7.61,18.46-7.61C840.38,126.26,847,128.97,851.91,133.86z M981.43,336.32l-0.04,0.04
				c-4.9,4.9-11.51,7.61-18.44,7.61c-6.95,0-13.55-2.71-18.46-7.61l-0.03-0.04c-4.91-4.9-7.62-11.51-7.62-18.44
				c0-6.93,2.71-13.55,7.62-18.46l0.03-0.03c4.91-4.91,11.51-7.61,18.46-7.61c6.93,0,13.55,2.71,18.44,7.61l0.04,0.03
				c4.9,4.91,7.61,11.52,7.61,18.46C989.04,324.81,986.33,331.43,981.43,336.32z M812.85,481.31l-0.03,0.03
				c-4.91,4.91-11.52,7.62-18.46,7.62c-6.93,0-13.55-2.71-18.44-7.62l-0.04-0.03c-4.9-4.9-7.61-11.52-7.61-18.44
				c0-3.15,0.55-6.22,1.62-9.1c1.28-3.48,3.3-6.67,5.98-9.35l0.04-0.03c4.72-4.73,11.03-7.41,17.69-7.61
				c0.25-0.01,0.51-0.01,0.76-0.01c5.54,0,10.89,1.73,15.32,4.95c1.11,0.8,2.16,1.69,3.14,2.67l0.03,0.03
				c4.9,4.91,7.61,11.52,7.61,18.46C820.45,469.8,817.74,476.41,812.85,481.31z M359.92,390.3l-16.01,0.01h-10.75
				c-0.15,0-0.3,0-0.45,0.03c-1.35,0.26-2.26,1.54-1.99,2.9c0.08,0.43,0.16,0.87,0.25,1.29c1.22,6.52,2.65,13.02,4.26,19.47
				c0.91,3.6,1.88,7.19,2.92,10.76c0.7,2.45,1.43,4.87,2.19,7.29c0.17,0.56,0.34,1.13,0.52,1.69c0.04,0.17,0.08,0.3,0.12,0.47
				c0.25,1.14,1.28,1.98,2.46,1.98h12.82c0.22,0,0.43,0.01,0.63,0.04c1.18,0.12,2.21,0.62,3.09,1.5l20.34,20.34v-7.12l-19.06-19.06
				c-0.48-0.48-1.11-0.74-1.79-0.74h-10.33c-2.19,0-4.07-1.27-4.87-3.25c-0.07-0.17-0.12-0.33-0.18-0.51
				c-1.44-4.83-2.76-9.7-4-14.59c-0.92-3.69-1.79-7.4-2.6-11.11c-0.29-1.33-0.08-2.63,0.59-3.75c0.12-0.22,0.27-0.44,0.45-0.66
				c1.03-1.28,2.45-1.95,4.1-1.95h37.68v-5.02H359.92z"/>
			<path class="st0" d="M890.06,366.94v9.1c-0.62-0.06-1.25-0.08-1.9-0.08h-3.14v-5.8c0-1.44-0.52-2.7-1.54-3.73l-41.4-41.38
				c-1.02-1.02-2.27-1.54-3.71-1.54h-0.65c0.06-0.59,0.08-1.18,0.08-1.79v-1.65c0-0.54-0.03-1.07-0.08-1.59h3.86
				c0.67,0,1.31,0.26,1.79,0.74l45.94,45.94C889.8,365.63,890.06,366.26,890.06,366.94z"/>
			<path class="st0" d="M380.31,479.46c-3.37,5.05-5.18,10.99-5.18,17.18c0,6.18,1.82,12.13,5.18,17.18v-14.36
				c-0.11-0.93-0.15-1.87-0.15-2.82s0.04-1.9,0.15-2.83V479.46z M375.93,233.39l-0.04-0.03c-2.41-2.42-5.17-4.39-8.16-5.86
				c-2.35-1.18-4.84-2.05-7.43-2.59c-2.09-0.45-4.22-0.67-6.4-0.67c-5.9,0-11.61,1.65-16.59,4.81c-2.09,1.32-4.76,1.03-6.52-0.73
				l-25.97-25.97l-2.79-2.79l-0.01-0.01l-12.25-12.25c-0.48-0.48-1.1-0.74-1.79-0.74h-75.68c-1.44,0-2.7-0.52-3.71-1.54l-5.39-5.39
				c-1.94-1.94-2.06-5.03-0.29-7.12c1.58-1.86,2.93-3.88,4.02-6.01c2.2-4.26,3.38-9.01,3.42-13.89v-0.26
				c0-8.28-3.27-16.13-9.12-21.98l-0.03-0.03c-2.34-2.34-4.98-4.25-7.84-5.71c-4.19-2.16-8.86-3.33-13.67-3.4
				c-0.15-0.01-0.32-0.01-0.48-0.01h-0.61c-1.46,0.01-2.71-0.5-3.75-1.53c-1.03-1.02-1.55-2.27-1.55-3.73v-5.85
				c0-1.44,0.52-2.7,1.54-3.71l1.73-1.73l11.46-11.47l16.61-16.61c0.48-0.47,0.74-1.1,0.74-1.77V19.99c0-1.4-1.13-2.53-2.52-2.53
				c-0.44,0-0.85,0.11-1.24,0.33c-0.14,0.08-0.26,0.14-0.4,0.21c-0.77,0.36-1.54,0.72-2.31,1.09
				c-23.55,11.03-45.81,24.73-66.26,40.78c-8.06,6.33-15.83,13.02-23.3,20.04c-12.28,11.55-23.71,24-34.18,37.23
				c-0.34,0.44-0.54,0.98-0.54,1.54l-0.03,75.31c0,1.46-0.52,2.7-1.54,3.73l-24.27,24.26c-0.48,0.48-0.74,1.11-0.74,1.79v58.4
				c0,2.54-1.76,4.68-4.25,5.16c-6.09,1.2-11.69,4.17-16.06,8.55l-0.04,0.04c-5.85,5.85-9.12,13.7-9.12,21.98
				c0,6.68,2.15,13.12,6.12,18.5c1.57,2.1,1.35,4.99-0.51,6.85L3.69,363.76c-0.59,0.58-0.84,1.4-0.7,2.23
				c0.01,0.11,0.04,0.22,0.04,0.34c6.01,57.2,26.28,111.74,59.04,159.01c32.9,47.48,77.39,86.11,129.07,111.96
				c1.22,0.61,2.72,0.11,3.33-1.11c0.18-0.34,0.26-0.73,0.26-1.11c0-0.21,0.01-0.4,0.04-0.61v-80.18c0-0.66-0.26-1.29-0.74-1.77
				l-32.59-32.59c-0.48-0.48-1.11-0.73-1.79-0.73l-41.63-0.01c-1.44,0-2.7-0.51-3.71-1.54l-23.2-23.2
				c-1.03-1.03-1.54-2.27-1.54-3.71v-17.76c0-1.44,0.51-2.7,1.54-3.71l19.6-19.6c1.02-1.03,2.27-1.54,3.71-1.54h30.09
				c1.44,0,2.7,0.51,3.71,1.54l22.75,22.76c0.48,0.47,1.11,0.73,1.79,0.73h12.67c2.09,0,3.86,1.13,4.76,3
				c1.53,3.22,3.6,6.16,6.12,8.69l0.03,0.03c5.85,5.85,13.71,9.12,21.99,9.12c8.27,0,16.12-3.27,21.98-9.12l0.03-0.03
				c5.85-5.85,9.12-13.71,9.12-21.98c0-3.59-0.61-7.12-1.82-10.49c-0.7-1.95-0.25-4.02,1.22-5.49l23.83-23.83l20.92-20.93l8.58-8.58
				c0.48-0.48,0.74-1.1,0.74-1.77v-28.94c0-1.44,0.52-2.7,1.54-3.71l2.39-2.39l6.31-6.33l16.26-16.26c1.03-1.02,2.28-1.54,3.73-1.54
				h15.65c1.5,0,2.78,0.55,3.81,1.64l2.09,2.19l8.88,9.31l16.72,17.52V356l-17.38-18.2l-8.62-9.04c-0.04-0.04-0.07-0.08-0.11-0.12
				c-0.04-0.06-0.1-0.1-0.14-0.17c-0.48-0.59-1.18-0.92-1.95-0.92h-22.17c-0.67,0-1.31,0.26-1.79,0.74l-18.66,18.68l-4.76,4.76
				l-6.09,6.09c-0.41,0.4-0.66,0.91-0.72,1.47c-0.03,0.1-0.03,0.21-0.03,0.3v28.94c0,1.44-0.52,2.7-1.54,3.71l-1,1l-1.65,1.65
				l-2.38,2.38l-43.57,43.57c-2.05,2.05-5.39,2.05-7.44,0.01c-5.86-5.86-13.7-9.15-21.99-9.15c-8.28,0-16.15,3.27-21.99,9.12
				l-0.03,0.03c-5.85,5.86-9.12,13.71-9.12,21.99c0,2.89-2.37,5.25-5.27,5.25h-5.94c-1.46,0-2.7-0.52-3.73-1.54l-22.75-22.76
				c-0.48-0.47-1.1-0.73-1.77-0.73h-36.53c-0.67,0-1.31,0.26-1.77,0.73l-24.16,24.16c-0.47,0.47-0.74,1.1-0.74,1.77v24.15
				c0.01,0.62,0.26,1.27,0.74,1.75l27.4,27.41c0.1,0.1,0.18,0.18,0.26,0.28c0.48,0.56,1.17,0.89,1.91,0.89h41.6
				c1.46,0,2.7,0.51,3.73,1.54l28.03,28.03c1.03,1.02,1.54,2.27,1.54,3.71v64.75c0,1.91-0.92,3.55-2.57,4.52
				c-1.65,0.96-3.53,1-5.21,0.08c-46.1-25.31-85.81-61.13-115.76-104.34c-31.66-45.67-51.49-98.29-57.82-153.51
				c-0.19-1.65,0.33-3.15,1.5-4.32l18.65-18.65c1.68-1.68,4.18-2.04,6.26-0.88c4.59,2.53,9.71,3.85,14.96,3.85
				c8.28,0,16.13-3.27,21.98-9.13l0.03-0.03c5.86-5.85,9.12-13.7,9.12-21.98s-3.26-16.13-9.12-21.98l-0.03-0.04
				c-4.02-4.02-9.08-6.88-14.59-8.22c-2.39-0.59-4.02-2.65-4.02-5.1v-55.56c0-1.44,0.52-2.7,1.54-3.71l24.29-24.27
				c0.47-0.48,0.73-1.11,0.73-1.79v-75.86c0-1.25,0.38-2.32,1.17-3.3c9.87-12.27,20.6-23.82,32.09-34.59
				c7.33-6.88,14.96-13.44,22.86-19.64c17.73-13.92,36.83-26.06,56.95-36.18c1.68-0.85,3.53-0.77,5.13,0.22
				c0.95,0.58,1.65,1.39,2.05,2.34c0.29,0.65,0.44,1.38,0.44,2.13V71.6c0,1.44-0.51,2.7-1.54,3.71l-22.69,22.69l-7.11,7.11
				c-0.47,0.48-0.73,1.1-0.73,1.79v12.89c0,2.04-1.09,3.78-2.9,4.69c-3,1.51-5.75,3.48-8.13,5.86l-0.03,0.03
				c-5.85,5.85-9.12,13.7-9.12,21.98c0,8.28,3.27,16.13,9.12,21.98l0.03,0.04c3.45,3.45,7.61,6,12.13,7.51
				c3.14,1.06,6.46,1.61,9.85,1.61c4.5,0,8.91-0.96,13-2.85c2.04-0.95,4.33-0.54,5.91,1.06l9.19,9.16c0.47,0.48,1.1,0.74,1.77,0.74
				h75.68c1.31,0,2.42,0.41,3.38,1.24c0.12,0.08,0.23,0.19,0.34,0.3l12.34,12.34l10.67,10.67l15.65,15.65
				c1.77,1.79,2.06,4.5,0.67,6.6c-3.3,5.06-5.05,10.92-5.05,16.97c0,3.31,0.52,6.56,1.53,9.64c1.03,3.15,2.56,6.12,4.54,8.8
				c0.92,1.25,1.94,2.43,3.05,3.55l0.03,0.03c5.8,5.8,13.59,9.08,21.81,9.12h0.16c2.75,0,5.45-0.36,8.06-1.07
				c3.14-0.84,6.15-2.17,8.91-3.99c2.12-1.38,4.83-1.1,6.6,0.69l2.83,2.82v-7.25c-1.17-1.71-1.22-3.95-0.08-5.75l0.08-0.12V238.9
				C379.08,236.93,377.61,235.07,375.93,233.39z M199.83,444.41l0.03-0.03c4.91-4.91,11.52-7.62,18.46-7.62s13.53,2.71,18.44,7.62
				l0.03,0.03c4.91,4.91,7.62,11.52,7.62,18.46c0,6.92-2.71,13.55-7.62,18.44l-0.03,0.03c-4.91,4.91-11.51,7.62-18.44,7.62
				c-6.95,0-13.55-2.71-18.46-7.62l-0.03-0.03c-4.91-4.9-7.62-11.51-7.62-18.44C192.21,455.93,194.92,449.32,199.83,444.41z
				 M68.18,299.4l0.04,0.03c4.9,4.91,7.61,11.52,7.61,18.46c0,6.93-2.71,13.55-7.61,18.44l-0.04,0.04
				c-4.9,4.9-11.51,7.61-18.44,7.61c-6.93,0-13.55-2.71-18.46-7.61l-0.03-0.04c-4.91-4.9-7.61-11.51-7.61-18.44
				c0-6.93,2.7-13.55,7.61-18.46l0.03-0.03c4.91-4.9,11.53-7.61,18.46-7.61C56.66,291.79,63.28,294.49,68.18,299.4z M197.72,170.8
				l-0.04,0.03c-4.9,4.91-11.51,7.61-18.46,7.61c-3.42,0-6.77-0.66-9.85-1.93c-3.19-1.28-6.11-3.19-8.6-5.68l-0.03-0.03
				c-4.91-4.91-7.62-11.52-7.62-18.46c0-6.93,2.71-13.55,7.62-18.44l0.03-0.04c2.49-2.49,5.42-4.4,8.6-5.69
				c3.09-1.25,6.44-1.91,9.85-1.91c0.69,0,1.38,0.03,2.05,0.08c5.97,0.45,11.57,2.92,15.93,7.06c0.16,0.15,0.33,0.32,0.48,0.47
				l0.04,0.04c3.16,3.16,5.41,7.04,6.6,11.25c0.66,2.32,1,4.73,1,7.19c0,3.62-0.74,7.15-2.15,10.4
				C201.9,165.72,200.05,168.47,197.72,170.8z M380,255.37c0,2.68-0.4,5.31-1.18,7.81c-1.24,3.97-3.41,7.63-6.42,10.65l-0.04,0.03
				c-2.89,2.89-6.37,5.02-10.15,6.27c-2.63,0.88-5.4,1.35-8.24,1.35h-0.06c-6.93,0-13.55-2.71-18.46-7.62l-0.03-0.03
				c-0.85-0.85-1.64-1.76-2.35-2.71c-2.02-2.67-3.49-5.68-4.35-8.88c-0.61-2.21-0.91-4.51-0.91-6.86c0-6.93,2.7-13.53,7.61-18.44
				l0.03-0.03c4.91-4.91,11.52-7.62,18.46-7.62c1.87,0,3.73,0.19,5.53,0.59c2.63,0.56,5.14,1.53,7.47,2.86
				c1.98,1.13,3.81,2.53,5.45,4.17l0.04,0.03c4.35,4.36,6.96,10.04,7.5,16.1C379.96,253.8,380,254.59,380,255.37z M680.96,390.78
				c-0.29-0.22-0.62-0.37-0.99-0.44c-0.14-0.03-0.29-0.03-0.44-0.03h-28.33l-18.83-0.01v5.02h37.68c1.65,0,3.05,0.67,4.1,1.95
				c1.02,1.28,1.39,2.81,1.05,4.41c-0.81,3.71-1.68,7.43-2.61,11.11c-1.22,4.9-2.56,9.76-4,14.59c-0.67,2.27-2.67,3.75-5.03,3.75
				H653.2c-0.66,0-1.29,0.26-1.77,0.74l-19.06,19.06v7.12l20.34-20.34c1.03-1.03,2.27-1.54,3.73-1.54h12.82c0.07,0,0.14,0,0.21-0.01
				c1.1-0.08,2.02-0.89,2.26-1.97c0.03-0.16,0.07-0.3,0.12-0.47c2.06-6.52,3.95-13.11,5.61-19.74c1.73-6.88,3.23-13.81,4.52-20.77
				C682.15,392.26,681.73,391.31,680.96,390.78z"/>
			<path class="st0" d="M212.53,318.47h-41.45c-0.67,0-1.29,0.26-1.77,0.74l-45.95,45.94c-0.47,0.48-0.73,1.11-0.73,1.79v36.1
				c0,1.39,1.13,2.52,2.52,2.52h42.77c0.66,0,1.29-0.26,1.77-0.74l44.61-44.61c0.48-0.48,0.74-1.1,0.74-1.77v-37.44
				C215.04,319.6,213.92,318.47,212.53,318.47z M210.01,355.19c0,1.46-0.52,2.7-1.54,3.73l-40.06,40.06
				c-1.03,1.02-2.27,1.54-3.73,1.54h-31.77c-2.89,0-5.25-2.37-5.25-5.25v-25.11c0-1.44,0.52-2.7,1.54-3.73l41.38-41.38
				c1.03-1.02,2.27-1.54,3.71-1.54h30.45c2.9,0,5.27,2.37,5.27,5.27V355.19z"/>
		</g>
		<g>
			<g>
				<path class="st1" d="M143.75,259.36c-1.02-1.02-2.42-1.64-3.95-1.64c-1.54,0-2.94,0.62-3.95,1.64h-0.01
					c-1,1.02-1.62,2.41-1.62,3.95c0,0.85,0.18,1.66,0.54,2.39l-8.11,8.11l-0.37,0.37v23.72c-1.06,0.22-2.01,0.76-2.75,1.5
					l-0.01,0.01c-1,1-1.64,2.41-1.64,3.95c0,1.53,0.63,2.93,1.65,3.93l-0.01,0.01c1.02,1,2.41,1.64,3.96,1.64
					c1.54,0,2.94-0.63,3.95-1.64c1-1.02,1.64-2.41,1.64-3.95c0-1.55-0.63-2.94-1.64-3.96c-0.7-0.7-1.6-1.21-2.59-1.46v-22.71
					l7.52-7.54c0.95,0.74,2.15,1.18,3.45,1.18c1.54,0,2.93-0.62,3.95-1.64c1-1,1.64-2.41,1.64-3.95
					C145.39,261.77,144.75,260.36,143.75,259.36z M129.61,301.21v0.01c0.54,0.54,0.88,1.31,0.88,2.15c0,0.82-0.34,1.59-0.88,2.13
					c-0.55,0.55-1.32,0.89-2.15,0.89c-0.84,0-1.6-0.34-2.15-0.89h-0.01c-0.54-0.54-0.88-1.29-0.88-2.13c0-0.85,0.34-1.61,0.88-2.15
					l0.01-0.01c0.54-0.54,1.31-0.88,2.15-0.88C128.3,300.33,129.06,300.67,129.61,301.21z M141.95,265.45
					c-0.55,0.55-1.31,0.88-2.15,0.88c-0.84,0-1.6-0.33-2.15-0.88s-0.89-1.31-0.89-2.15c0-0.84,0.34-1.59,0.89-2.14
					c0.54-0.55,1.31-0.88,2.15-0.88c0.84,0,1.6,0.33,2.15,0.88c0.54,0.55,0.88,1.31,0.88,2.14
					C142.83,264.15,142.48,264.9,141.95,265.45z"/>
				<path class="st1" d="M115.98,299.42v-0.01c-0.74-0.74-1.69-1.28-2.75-1.5v-23.72l-0.37-0.37l-8.11-8.11
					c0.34-0.73,0.54-1.54,0.54-2.39c0-1.54-0.62-2.93-1.64-3.95c-1.02-1.02-2.41-1.64-3.95-1.64c-1.54,0-2.93,0.62-3.95,1.64
					c-1.02,1-1.64,2.41-1.64,3.95c0,1.54,0.62,2.94,1.64,3.95c1,1.02,2.41,1.64,3.95,1.64c1.29,0,2.49-0.44,3.44-1.18l7.54,7.54
					v22.71c-0.99,0.25-1.88,0.76-2.59,1.46c-1.02,1.02-1.64,2.41-1.64,3.96c0,1.54,0.62,2.93,1.64,3.95c1,1,2.41,1.64,3.95,1.64
					c1.54,0,2.94-0.63,3.95-1.64v-0.01c1.02-1,1.64-2.41,1.64-3.93C117.62,301.83,117,300.43,115.98,299.42z M101.84,265.45
					c-0.55,0.55-1.31,0.88-2.15,0.88c-0.84,0-1.6-0.33-2.15-0.88c-0.55-0.55-0.88-1.31-0.88-2.15c0-0.84,0.33-1.59,0.88-2.14
					c0.55-0.55,1.31-0.88,2.15-0.88c0.84,0,1.6,0.33,2.15,0.88c0.55,0.55,0.89,1.31,0.89,2.14
					C102.74,264.15,102.39,264.9,101.84,265.45z M114.18,305.5c-0.55,0.55-1.31,0.89-2.15,0.89c-0.84,0-1.6-0.34-2.15-0.89
					c-0.55-0.54-0.88-1.31-0.88-2.13c0-0.84,0.33-1.61,0.88-2.15v-0.01c0.55-0.54,1.31-0.88,2.15-0.88c0.84,0,1.6,0.34,2.15,0.88
					v0.01c0.55,0.54,0.89,1.29,0.89,2.15C115.07,304.21,114.73,304.97,114.18,305.5z"/>
			</g>
			<path class="st1" d="M123.7,248.3c-1.02-1-2.41-1.64-3.95-1.64c-1.54,0-2.93,0.63-3.95,1.64c-1.02,1.02-1.64,2.41-1.64,3.95
				c0,1.54,0.62,2.94,1.64,3.95c0.67,0.69,1.54,1.2,2.5,1.46v34.85h2.56v-34.78c1.09-0.22,2.08-0.76,2.83-1.53
				c1.02-1,1.64-2.41,1.64-3.95C125.33,250.71,124.71,249.31,123.7,248.3z M121.89,254.4c-0.55,0.55-1.31,0.89-2.15,0.89
				c-0.84,0-1.6-0.34-2.15-0.89c-0.55-0.54-0.89-1.31-0.89-2.15c0-0.84,0.34-1.59,0.89-2.14c0.55-0.54,1.31-0.88,2.15-0.88
				c0.84,0,1.6,0.34,2.15,0.88c0.55,0.55,0.88,1.31,0.88,2.14C122.77,253.09,122.44,253.85,121.89,254.4z"/>
		</g>
		<g>
			<g>
				<path class="st1" d="M984.05,379.3h-0.01c-1-1-2.41-1.64-3.95-1.64c-1.54,0-2.93,0.63-3.95,1.64c-1.02,1.02-1.64,2.41-1.64,3.95
					c0,0.85,0.19,1.66,0.54,2.39l-8.11,8.11l-0.37,0.37v23.72c-1.06,0.23-2.01,0.77-2.75,1.51c-1.02,1-1.64,2.41-1.64,3.95
					c0,1.54,0.62,2.93,1.64,3.95c1,1,2.41,1.64,3.95,1.64c1.54,0,2.94-0.63,3.95-1.64c1.02-1,1.64-2.41,1.64-3.95
					c0-1.54-0.62-2.94-1.64-3.95c-0.7-0.7-1.6-1.22-2.59-1.47v-22.71l7.54-7.54c0.95,0.74,2.15,1.18,3.44,1.18
					c1.54,0,2.94-0.62,3.96-1.64c1-1,1.62-2.41,1.62-3.95C985.67,381.71,985.05,380.3,984.05,379.3z M969.89,421.15v0.01
					c0.55,0.55,0.89,1.31,0.89,2.15c0,0.84-0.34,1.59-0.89,2.15c-0.55,0.54-1.31,0.88-2.15,0.88c-0.84,0-1.6-0.34-2.15-0.88
					c-0.55-0.55-0.88-1.31-0.88-2.15c0-0.84,0.33-1.61,0.88-2.15v-0.01c0.55-0.54,1.31-0.88,2.15-0.88
					C968.59,420.27,969.34,420.62,969.89,421.15z M982.23,385.39c-0.55,0.55-1.31,0.89-2.15,0.89c-0.84,0-1.6-0.34-2.15-0.89
					s-0.88-1.31-0.88-2.15c0-0.84,0.33-1.59,0.88-2.14c0.55-0.55,1.31-0.88,2.15-0.88c0.84,0,1.6,0.33,2.15,0.88
					c0.55,0.55,0.89,1.31,0.89,2.14C983.12,384.09,982.78,384.84,982.23,385.39z"/>
				<path class="st1" d="M956.28,419.36h-0.01c-0.74-0.74-1.68-1.28-2.75-1.51v-23.72l-0.37-0.37l-8.1-8.11
					c0.34-0.73,0.54-1.54,0.54-2.39c0-1.54-0.63-2.93-1.64-3.95h-0.01c-1-1-2.41-1.64-3.93-1.64c-1.54,0-2.94,0.63-3.96,1.64
					c-1,1-1.64,2.41-1.64,3.95c0,1.54,0.63,2.94,1.64,3.95c1.02,1.02,2.41,1.64,3.96,1.64c1.29,0,2.49-0.44,3.44-1.18l7.54,7.54
					v22.71c-1,0.25-1.88,0.77-2.59,1.47h-0.01c-1,1-1.64,2.41-1.64,3.95c0,1.54,0.63,2.94,1.64,3.95c1.02,1,2.42,1.64,3.96,1.64
					c1.54,0,2.93-0.63,3.95-1.64c1-1.02,1.64-2.41,1.64-3.95C957.92,421.77,957.28,420.37,956.28,419.36z M942.14,385.39h-0.01
					c-0.54,0.55-1.31,0.89-2.13,0.89c-0.84,0-1.61-0.34-2.15-0.89c-0.55-0.55-0.89-1.31-0.89-2.15c0-0.84,0.34-1.59,0.89-2.14
					c0.54-0.55,1.29-0.88,2.15-0.88c0.84,0,1.6,0.33,2.13,0.88h0.01c0.54,0.55,0.88,1.31,0.88,2.14
					C943.02,384.09,942.68,384.84,942.14,385.39z M954.48,425.46h-0.01c-0.54,0.54-1.31,0.88-2.13,0.88c-0.84,0-1.61-0.34-2.15-0.88
					c-0.55-0.55-0.89-1.31-0.89-2.15c0-0.84,0.34-1.6,0.89-2.15v-0.01c0.54-0.54,1.29-0.88,2.15-0.88c0.84,0,1.6,0.34,2.13,0.88
					l0.01,0.01c0.54,0.54,0.88,1.31,0.88,2.15C955.36,424.15,955.01,424.91,954.48,425.46z"/>
			</g>
			<path class="st1" d="M963.99,368.24l-0.01,0.01c-1-1.02-2.41-1.65-3.95-1.65c-1.53,0-2.93,0.63-3.93,1.64l-0.01,0.01
				c-1,1-1.64,2.41-1.64,3.95c0,1.53,0.63,2.93,1.64,3.95c0.69,0.67,1.54,1.18,2.5,1.44v34.85h2.56v-34.77
				c1.1-0.22,2.08-0.77,2.85-1.53c1-1,1.64-2.41,1.64-3.95S965,369.26,963.99,368.24z M962.18,374.34
				c-0.55,0.55-1.31,0.89-2.15,0.89c-0.83,0-1.6-0.34-2.15-0.89c-0.54-0.54-0.88-1.29-0.88-2.13c0-0.85,0.34-1.61,0.88-2.15v-0.01
				c0.55-0.54,1.31-0.88,2.15-0.88c0.84,0,1.61,0.34,2.15,0.88v0.01c0.55,0.54,0.89,1.31,0.89,2.15S962.73,373.8,962.18,374.34z"/>
		</g>
	</g>
	<g>
		<path class="st2" d="M70.01,382.76h-9.05c-2.62,0-4.76,2.14-4.76,4.76v0c0,2.62,2.14,4.76,4.76,4.76h9.05
			c2.62,0,4.76-2.14,4.76-4.76v0C74.76,384.9,72.62,382.76,70.01,382.76z"/>
		<path class="st2" d="M81.41,398.86H49.56c-2.62,0-4.76,2.14-4.76,4.76v0c0,2.62,2.14,4.76,4.76,4.76h31.85
			c2.62,0,4.76-2.14,4.76-4.76v0C86.16,401,84.03,398.86,81.41,398.86z"/>
		<path class="st2" d="M71.06,414.97H59.9c-2.62,0-4.76,2.14-4.76,4.76v0c0,2.62,2.14,4.76,4.76,4.76h11.17
			c2.62,0,4.76-2.14,4.76-4.76v0C75.82,417.11,73.68,414.97,71.06,414.97z"/>
	</g>
	<g>
		<path class="st2" d="M894.58,171.03h-9.05c-2.62,0-4.76,2.14-4.76,4.76v0c0,2.62,2.14,4.76,4.76,4.76h9.05
			c2.62,0,4.76-2.14,4.76-4.76v0C899.34,173.17,897.2,171.03,894.58,171.03z"/>
		<path class="st2" d="M905.98,187.13h-31.85c-2.62,0-4.76,2.14-4.76,4.76v0c0,2.62,2.14,4.76,4.76,4.76h31.85
			c2.62,0,4.76-2.14,4.76-4.76v0C910.74,189.28,908.6,187.13,905.98,187.13z"/>
		<path class="st2" d="M895.64,203.24h-11.17c-2.62,0-4.76,2.14-4.76,4.76v0c0,2.62,2.14,4.76,4.76,4.76h11.17
			c2.62,0,4.76-2.14,4.76-4.76v0C900.4,205.38,898.25,203.24,895.64,203.24z"/>
	</g>
</g>
<path class="st3" d="M129.61,165.16V94.14c0-15.92,12.91-28.82,28.82-28.82h731.29c15.92,0,28.82,12.91,28.82,28.82v40.58v30.45
	H129.61z"/>
<path class="st4" d="M130.38,134.72c-0.5,3.35-0.77,6.78-0.77,10.28v429.63c0,15.58,12.63,28.21,28.21,28.21h692.23
	c37.83,0,68.5-30.67,68.5-68.5V144.99c0-3.49-0.26-6.92-0.77-10.28H130.38z"/>
<path class="st5" d="M839.62,148.92h-248.6c-32.07,0-58.07-26-58.07-58.07v-22.4c0-28.35,22.98-51.33,51.33-51.33h262.09
	c28.35,0,51.33,22.98,51.33,51.33v22.4C897.69,122.92,871.69,148.92,839.62,148.92z"/>
<path class="st6" d="M562.69,392.11l-25.25,6.66c6.43,26.26,30.12,45.75,58.36,45.75v-26.1
	C579.67,418.42,566.16,407.18,562.69,392.11z"/>
<g>
	<path class="st3" d="M629.79,384.43c0,18.77-15.22,33.99-33.99,33.99v26.1c33.18,0,60.08-26.9,60.08-60.08
		c0-14.66-5.25-28.09-13.97-38.52l-19.56,17.31C627.01,369.03,629.79,376.41,629.79,384.43z"/>
	<path class="st7" d="M537.44,398.77l25.25-6.66c-0.57-2.47-0.87-5.03-0.87-7.67c0-18.77,15.22-33.99,33.99-33.99
		c10.75,0,20.32,4.99,26.55,12.77l19.56-17.31c-11.02-13.18-27.59-21.56-46.11-21.56c-33.18,0-60.08,26.9-60.08,60.08
		C535.72,389.37,536.32,394.17,537.44,398.77z"/>
</g>
<path class="st6" d="M627.99,534.42l24.96,7.66c8.39-25.7-1.46-54.75-25.46-69.65l-13.76,22.17
	C627.43,503.1,632.98,519.77,627.99,534.42z"/>
<g>
	<path class="st3" d="M566.93,505.54c9.9-15.95,30.85-20.85,46.8-10.95l13.76-22.17c-28.19-17.5-65.23-8.83-82.74,19.36
		c-7.73,12.45-10.35,26.63-8.45,40.1l25.75-4.39C561.17,520.1,562.69,512.36,566.93,505.54z"/>
	<path class="st7" d="M652.95,542.07l-24.96-7.66c-0.82,2.4-1.92,4.74-3.31,6.98c-9.9,15.95-30.85,20.85-46.8,10.95
		c-9.13-5.67-14.64-14.96-15.82-24.86l-25.75,4.39c2.41,17.01,12.06,32.87,27.8,42.64c28.19,17.5,65.23,8.84,82.74-19.36
		C649.45,550.96,651.48,546.57,652.95,542.07z"/>
</g>
<linearGradient id="SVGID_1_" gradientUnits="userSpaceOnUse" x1="527.2129" y1="70.4157" x2="891.9526" y2="70.4157">
	<stop  offset="0" style="stop-color:#81C2D7;stop-opacity:0.69"/>
	<stop  offset="1" style="stop-color:#1769E0"/>
</linearGradient>
<path class="st8" d="M837.4,135.03H581.76c-30.13,0-54.55-24.42-54.55-54.55V60.35c0-30.13,24.42-54.55,54.55-54.55H837.4
	c30.13,0,54.55,24.42,54.55,54.55v20.13C891.95,110.61,867.53,135.03,837.4,135.03z"/>
<g class="st9">
	<path class="st7" d="M855.05,118.28H551.44c-1.2,0-2.17-0.97-2.17-2.17v-93c0-1.2,0.97-2.17,2.17-2.17s2.17,0.97,2.17,2.17v90.83
		h301.44c1.2,0,2.17,0.97,2.17,2.17S856.25,118.28,855.05,118.28z"/>
</g>
<g class="st9">
	<path class="st7" d="M707.13,93.77c-20.84,0-33.25-15.02-44.35-28.47c-13.38-16.2-23.95-29-45.27-11.44
		c-43.85,36.14-66.19,26.04-67.12,25.59c-0.88-0.42-1.25-1.49-0.83-2.37c0.42-0.88,1.48-1.25,2.36-0.83
		c0.05,0.03,5.33,2.4,15.67,0.54c9.64-1.74,25.74-7.6,47.66-25.66c24.05-19.82,36.78-4.4,50.26,11.92
		c11.99,14.52,25.59,30.98,49.98,26.36c22.24-4.21,34.83-15.56,47-26.53c8.23-7.41,16.73-15.08,28-20.29
		c12.61-5.83,27.46-7.9,45.38-6.35c0.98,0.09,1.7,0.95,1.61,1.92c-0.08,0.98-0.94,1.69-1.92,1.61
		c-38.44-3.35-54.11,10.78-70.7,25.74c-12.53,11.3-25.5,22.98-48.72,27.38C712.98,93.49,709.98,93.77,707.13,93.77z"/>
</g>
<g>
	<path class="st5" d="M843.26,303.69H585.31c-29.49,0-53.4-23.91-53.4-53.4v-17.04c0-29.49,23.91-53.4,53.4-53.4h257.95
		c29.49,0,53.4,23.91,53.4,53.4v17.04C896.65,279.78,872.75,303.69,843.26,303.69z"/>
	
		<linearGradient id="SVGID_00000010303769171860270630000011962434606870722749_" gradientUnits="userSpaceOnUse" x1="525.8307" y1="229.1239" x2="890.5704" y2="229.1239">
		<stop  offset="4.469546e-03" style="stop-color:#A9D9E0;stop-opacity:0.69"/>
		<stop  offset="1" style="stop-color:#1769E0"/>
	</linearGradient>
	<path style="opacity:0.69;fill:url(#SVGID_00000010303769171860270630000011962434606870722749_);" d="M837.17,291.04H579.23
		c-29.49,0-53.4-23.91-53.4-53.4v-17.04c0-29.49,23.91-53.4,53.4-53.4h257.95c29.49,0,53.4,23.91,53.4,53.4v17.04
		C890.57,267.13,866.66,291.04,837.17,291.04z"/>
	<rect x="562.42" y="247.5" class="st11" width="12.4" height="30.13"/>
	<rect x="602.3" y="258.45" class="st11" width="12.4" height="19.19"/>
	<rect x="642.18" y="246.16" class="st11" width="12.4" height="31.47"/>
	<rect x="682.06" y="229.12" class="st11" width="12.4" height="48.51"/>
	<rect x="721.94" y="211.76" class="st11" width="12.4" height="65.88"/>
	<rect x="761.82" y="222.26" class="st11" width="12.4" height="55.38"/>
	<rect x="801.7" y="208.85" class="st11" width="12.4" height="68.78"/>
	<rect x="841.58" y="190.53" class="st11" width="12.4" height="87.1"/>
</g>
<circle class="st12" cx="833.2" cy="482.73" r="154.84"/>
<circle class="st3" cx="833.2" cy="482.73" r="120.03"/>
<circle class="st12" cx="833.2" cy="482.73" r="85.22"/>
<circle class="st3" cx="833.2" cy="482.73" r="50.41"/>
<circle class="st6" cx="833.2" cy="482.73" r="15.6"/>
<g>
	<path class="st7" d="M875.33,607.13c-0.82,0-1.55-0.5-1.86-1.26l-15.73-39.26c0,0-23.56,0.83-23.58,0.83
		c-0.52,0-1.02-0.2-1.39-0.56c-0.39-0.38-0.61-0.9-0.61-1.44v-86.42c0-0.85,0.53-1.6,1.33-1.88c0.22-0.08,0.45-0.12,0.67-0.12
		c0.59,0,1.16,0.26,1.55,0.74l70.41,86.42c0.49,0.6,0.59,1.42,0.26,2.12s-1.03,1.14-1.81,1.14h-26.19l16.11,36.88
		c0.27,0.62,0.21,1.33-0.16,1.9c-0.37,0.56-1,0.9-1.67,0.9H875.33z"/>
	<path class="st4" d="M834.17,479.02l70.41,86.43h-29.25l17.33,39.68h-17.33l-16.25-40.57l-24.92,0.88V479.02 M834.17,475.02
		c-0.45,0-0.9,0.08-1.34,0.23c-1.59,0.57-2.66,2.08-2.66,3.77v86.43c0,1.09,0.44,2.12,1.22,2.88c0.75,0.72,1.74,1.12,2.78,1.12
		c0.05,0,0.09,0,0.14,0l22.11-0.78l15.2,37.96c0.61,1.52,2.08,2.51,3.71,2.51h17.33c1.35,0,2.61-0.68,3.35-1.81
		c0.74-1.13,0.86-2.55,0.32-3.79l-14.89-34.08h23.14c1.54,0,2.95-0.89,3.61-2.28c0.66-1.39,0.46-3.05-0.51-4.24l-70.41-86.43
		C836.49,475.54,835.35,475.02,834.17,475.02L834.17,475.02z"/>
</g>
<path class="st13" d="M120.32,619.98l17.43,17.47l0.09,0.1c6.38,6.95,15.53,11.32,25.72,11.32H412.6
	c27.38,0,49.57-22.19,49.57-49.57V59.43c0-9.68-3.94-18.44-10.31-24.75l-0.5-0.49L434.1,16.93l0.09,8.31
	c-2.23-0.45-4.53-0.68-6.89-0.68H163.56c-9.55,0-18.21,3.83-24.51,10.05c-2.85,2.83-5.22,6.12-6.96,9.78
	c-2.17,4.55-3.4,9.65-3.4,15.03V614c0,1.39,0.08,2.75,0.24,4.09L120.32,619.98z"/>
<path class="st14" d="M111.38,42.11v554.57c0,19.26,15.61,34.87,34.87,34.87h263.74c7,0,13.5-2.06,18.96-5.61l8.5-7.79
	c0.01,0,0.01,0,0.01-0.01h-13.2c0.11-1.12,0.16-2.26,0.16-3.41V60.15c0-19.26-15.61-34.87-34.87-34.87H125.83
	c-3.86,0-7.58,0.63-11.06,1.79C112.6,31.63,111.38,36.72,111.38,42.11z"/>
<path class="st15" d="M111.38,42.11v554.57c0,19.26,15.61,34.87,34.87,34.87h263.74c7,0,13.5-2.06,18.96-5.61
	c3.25-2.11,6.14-4.74,8.5-7.79c0.01,0,0.01,0,0.01-0.01c4.63-5.91,7.39-13.36,7.39-21.45V42.11c0-19.26-15.61-34.87-34.87-34.87
	H146.24c-9.55,0-18.21,3.83-24.51,10.05c-2.85,2.83-5.22,6.12-6.96,9.78C112.6,31.63,111.38,36.72,111.38,42.11z"/>
<path class="st16" d="M410.42,621.3H143.5c-11.92,0-21.59-9.67-21.59-21.59V40.51c0-13.02,10.56-23.58,23.58-23.58h265.26
	c13.02,0,23.58,10.56,23.58,23.58v556.88C434.33,610.6,423.62,621.3,410.42,621.3z"/>
<g>
	<rect x="342.55" y="43.54" class="st17" width="2.19" height="2.48"/>
	<rect x="346.45" y="41.44" class="st17" width="2.19" height="4.58"/>
	<rect x="350.35" y="38.75" class="st17" width="2.19" height="7.26"/>
	<rect x="354.25" y="36.61" class="st17" width="2.19" height="9.41"/>
	<rect x="358.15" y="34.75" class="st17" width="2.19" height="11.26"/>
	<rect x="362.05" y="32.84" class="st17" width="2.19" height="13.18"/>
</g>
<g>
	<g>
		<g>
			<path class="st17" d="M388.87,40.6c-0.28,0-0.54-0.16-0.66-0.44c-0.42-0.99-1.02-1.88-1.78-2.64c-0.76-0.76-1.65-1.36-2.64-1.78
				c-2.05-0.87-4.42-0.87-6.47,0c-0.99,0.42-1.88,1.02-2.64,1.78c-0.76,0.76-1.36,1.65-1.78,2.64c-0.15,0.36-0.57,0.53-0.94,0.38
				c-0.36-0.15-0.53-0.57-0.38-0.94c0.49-1.16,1.19-2.2,2.09-3.09c0.89-0.89,1.93-1.6,3.09-2.09c2.4-1.02,5.18-1.02,7.58,0
				c1.16,0.49,2.2,1.19,3.09,2.09c0.89,0.89,1.6,1.93,2.09,3.09c0.15,0.36-0.02,0.78-0.38,0.94
				C389.05,40.58,388.96,40.6,388.87,40.6z"/>
		</g>
		<g>
			<path class="st17" d="M385.99,41.82c-0.28,0-0.54-0.16-0.66-0.44c-0.26-0.62-0.64-1.17-1.11-1.65c-0.48-0.48-1.03-0.85-1.65-1.11
				c-1.28-0.54-2.76-0.54-4.04,0c-0.62,0.26-1.17,0.63-1.65,1.11c-0.48,0.48-0.85,1.03-1.11,1.65c-0.15,0.36-0.57,0.53-0.94,0.38
				c-0.36-0.15-0.53-0.57-0.38-0.94c0.33-0.79,0.81-1.49,1.42-2.1c0.61-0.61,1.31-1.08,2.1-1.42c1.63-0.69,3.52-0.69,5.15,0
				c0.79,0.33,1.49,0.81,2.1,1.42c0.61,0.61,1.08,1.31,1.42,2.1c0.15,0.36-0.02,0.78-0.38,0.94
				C386.18,41.8,386.08,41.82,385.99,41.82z"/>
		</g>
		<g>
			<path class="st17" d="M378.06,43.06c-0.09,0-0.19-0.02-0.28-0.06c-0.36-0.15-0.53-0.57-0.38-0.94c0.17-0.41,0.42-0.77,0.73-1.09
				c0.31-0.31,0.68-0.56,1.09-0.73c0.84-0.36,1.82-0.36,2.66,0c0.41,0.17,0.77,0.42,1.09,0.73c0.31,0.31,0.56,0.68,0.73,1.09
				c0.15,0.36-0.02,0.78-0.38,0.94c-0.36,0.15-0.78-0.02-0.94-0.38c-0.1-0.24-0.24-0.45-0.43-0.63c-0.18-0.18-0.4-0.33-0.63-0.43
				c-0.49-0.21-1.06-0.21-1.55,0c-0.24,0.1-0.45,0.24-0.63,0.43c-0.18,0.18-0.33,0.4-0.43,0.63
				C378.61,42.9,378.34,43.06,378.06,43.06z"/>
		</g>
	</g>
	<path class="st17" d="M381.65,44.21c0,0.6-0.49,1.09-1.09,1.09c-0.6,0-1.09-0.49-1.09-1.09c0-0.6,0.49-1.09,1.09-1.09
		C381.16,43.11,381.65,43.6,381.65,44.21z"/>
</g>
<polygon class="st17" points="419.41,38.26 417.14,38.26 417.14,35.9 396.01,35.9 396.01,44.87 417.14,44.87 417.14,42.24 
	419.41,42.24 "/>
<g>
	<path class="st17" d="M140.87,45.32c0.36,0.04,0.77,0,1.33-0.06c0.96-0.13,1.86-0.53,2.55-1.18c0.81-0.73,1.39-1.8,1.61-3.25h-0.06
		c-0.68,0.83-1.65,1.31-2.87,1.31c-2.2,0-3.6-1.65-3.6-3.73c0-2.31,1.67-4.33,4.17-4.33c2.5,0,4.03,2.03,4.03,5.14
		c0,2.68-0.9,4.56-2.1,5.72c-0.94,0.92-2.23,1.48-3.55,1.63c-0.6,0.09-1.13,0.11-1.52,0.09V45.32z M141.47,38.3
		c0,1.52,0.92,2.59,2.35,2.59c1.11,0,1.97-0.54,2.4-1.28c0.09-0.15,0.15-0.34,0.15-0.6c0-2.08-0.77-3.68-2.5-3.68
		C142.47,35.34,141.47,36.58,141.47,38.3z"/>
	<path class="st17" d="M149.68,38.9c0-0.69,0.47-1.18,1.13-1.18c0.66,0,1.09,0.49,1.11,1.18c0,0.66-0.43,1.16-1.13,1.16
		C150.13,40.07,149.68,39.56,149.68,38.9z M149.68,45.53c0-0.69,0.47-1.18,1.13-1.18c0.66,0,1.09,0.49,1.11,1.18
		c0,0.66-0.43,1.16-1.13,1.16C150.13,46.69,149.68,46.18,149.68,45.53z"/>
	<path class="st17" d="M161.53,40.25c0,4.15-1.54,6.44-4.24,6.44c-2.38,0-4-2.23-4.03-6.27c0-4.09,1.76-6.34,4.24-6.34
		C160.07,34.08,161.53,36.37,161.53,40.25z M154.91,40.44c0,3.17,0.98,4.97,2.48,4.97c1.69,0,2.5-1.97,2.5-5.08
		c0-3-0.77-4.97-2.48-4.97C155.96,35.36,154.91,37.12,154.91,40.44z"/>
	<path class="st17" d="M171.16,40.25c0,4.15-1.54,6.44-4.24,6.44c-2.38,0-4-2.23-4.03-6.27c0-4.09,1.76-6.34,4.24-6.34
		C169.7,34.08,171.16,36.37,171.16,40.25z M164.54,40.44c0,3.17,0.98,4.97,2.48,4.97c1.69,0,2.5-1.97,2.5-5.08
		c0-3-0.77-4.97-2.48-4.97C165.59,35.36,164.54,37.12,164.54,40.44z"/>
</g>
<line class="st18" x1="216.94" y1="309.79" x2="216.94" y2="307.01"/>
<path class="st15" d="M246.32,41.52h49.36c4.67,0,8.46-3.79,8.46-8.46v0c0-4.67-3.79-8.46-8.46-8.46h-49.36
	c-4.67,0-8.46,3.79-8.46,8.46v0C237.86,37.73,241.65,41.52,246.32,41.52z"/>
<rect x="210.03" y="97.69" class="st4" width="268.39" height="99.1"/>
<polyline class="st3" points="478.42,196.78 490.67,209.04 490.67,109.94 478.42,97.69 "/>
<polygon class="st19" points="490.67,209.04 222.29,209.04 210.03,196.78 478.42,196.78 "/>
<rect x="64.1" y="247.63" class="st4" width="268.39" height="147.1"/>
<polyline class="st3" points="332.49,394.73 344.75,406.99 344.75,259.89 332.49,247.63 "/>
<polygon class="st19" points="344.75,406.99 76.36,406.99 64.1,394.73 332.49,394.73 "/>
<g>
	<g>
		<path class="st20" d="M210.03,196.78c74.86-0.41,192.64-0.68,268.37-0.72c0,0-0.72,0.72-0.72,0.72l0-99.1l0.72,0.72l-134.19-0.19
			c-33.4-0.05-100.78-0.36-134.19-0.53c33.49-0.17,100.71-0.47,134.19-0.53c0,0,134.19-0.19,134.19-0.19c0.4,0,0.72,0.32,0.72,0.72
			l0,99.1c0,0.4-0.32,0.72-0.72,0.72C402.37,197.34,285.21,197.31,210.03,196.78L210.03,196.78z"/>
	</g>
	<g>
		<polygon class="st20" points="478.93,97.16 490.67,109.95 477.87,98.22 478.93,97.16 		"/>
	</g>
	<g>
		<polygon class="st20" points="478.93,196.25 490.67,209.05 477.87,197.31 478.93,196.25 		"/>
	</g>
</g>
<g>
	<g>
		<path class="st20" d="M64.1,394.73c74.86-0.38,192.64-0.61,268.37-0.69c0,0-0.69,0.69-0.69,0.69l0-147.1l0.7,0.7
			c-76.03-0.02-193.19-0.32-268.37-0.7c33.49-0.17,100.71-0.46,134.19-0.47c0,0,134.19-0.22,134.19-0.22c0.38,0,0.7,0.31,0.7,0.69
			c0,0,0,147.1,0,147.1c0,0.38-0.31,0.69-0.69,0.69C256.44,395.16,139.28,395.28,64.1,394.73L64.1,394.73z"/>
	</g>
	<g>
		<path class="st20" d="M333.01,247.1l11.74,12.8l-12.8-11.74C331.2,247.47,332.31,246.35,333.01,247.1L333.01,247.1z"/>
	</g>
	<g>
		<path class="st20" d="M333.01,394.2l11.74,12.8l-12.8-11.74C331.2,394.56,332.31,393.45,333.01,394.2L333.01,394.2z"/>
	</g>
</g>
<path class="st12" d="M457.4,148.15H320.13c-1.1,0-1.99,0.89-1.99,1.99l0,0c0,1.1,0.89,1.99,1.99,1.99H457.4
	c1.1,0,1.99-0.89,1.99-1.99l0,0C459.38,149.04,458.49,148.15,457.4,148.15z"/>
<path class="st12" d="M457.4,136.14H320.13c-1.1,0-1.99,0.89-1.99,1.99v0c0,1.1,0.89,1.99,1.99,1.99H457.4
	c1.1,0,1.99-0.89,1.99-1.99v0C459.38,137.03,458.49,136.14,457.4,136.14z"/>
<path class="st12" d="M457.4,124.13H320.13c-1.1,0-1.99,0.89-1.99,1.99v0c0,1.1,0.89,1.99,1.99,1.99H457.4
	c1.1,0,1.99-0.89,1.99-1.99v0C459.38,125.02,458.49,124.13,457.4,124.13z"/>
<path class="st12" d="M396.78,161.37h-76.65c-1.1,0-1.99,0.89-1.99,1.99l0,0c0,1.1,0.89,1.99,1.99,1.99h76.65
	c1.1,0,1.99-0.89,1.99-1.99l0,0C398.77,162.26,397.88,161.37,396.78,161.37z"/>
<rect x="82.93" y="266.53" class="st12" width="230.48" height="108.87"/>
<g>
	<rect x="210.03" y="450.25" class="st4" width="268.39" height="115.1"/>
	<polyline class="st3" points="478.42,565.35 490.67,577.61 490.67,462.51 478.42,450.25 	"/>
	<polygon class="st19" points="490.67,577.61 222.29,577.61 210.03,565.35 478.42,565.35 	"/>
	<g>
		<g>
			<path class="st20" d="M210.03,565.35c74.85-0.33,192.65-0.58,268.37-0.64c0,0-0.64,0.64-0.64,0.64l-0.08-57.55
				c-0.06-14.33,0.02-43.22,0.03-57.55c0,0,0.7,0.7,0.7,0.7l-134.19-0.22c-33.39-0.01-100.79-0.28-134.19-0.47
				c33.5-0.18,100.71-0.46,134.19-0.47c0,0,134.19-0.22,134.19-0.22c0.38,0,0.7,0.31,0.7,0.7c0,14.35,0.07,43.2,0.02,57.55
				c0,0-0.08,57.55-0.08,57.55c0,0.35-0.29,0.64-0.64,0.64C402.39,565.78,285.19,565.83,210.03,565.35L210.03,565.35z"/>
		</g>
		<g>
			<polygon class="st20" points="478.93,449.72 490.67,462.52 477.87,450.78 478.93,449.72 			"/>
		</g>
		<g>
			<polygon class="st20" points="478.93,564.82 490.67,577.62 477.87,565.88 478.93,564.82 			"/>
		</g>
	</g>
	<path class="st12" d="M455.16,488.21H346.32c-2.33,0-4.22-1.89-4.22-4.22v-0.2c0-2.33,1.89-4.22,4.22-4.22h108.85
		c2.33,0,4.22,1.89,4.22,4.22v0.2C459.38,486.32,457.49,488.21,455.16,488.21z"/>
	<path class="st12" d="M455.16,511.49H346.32c-2.33,0-4.22-1.89-4.22-4.22v-0.2c0-2.33,1.89-4.22,4.22-4.22h108.85
		c2.33,0,4.22,1.89,4.22,4.22v0.2C459.38,509.6,457.49,511.49,455.16,511.49z"/>
	<path class="st12" d="M407.16,535.4h-60.85c-2.33,0-4.22-1.89-4.22-4.22v-0.2c0-2.33,1.89-4.22,4.22-4.22h60.85
		c2.33,0,4.22,1.89,4.22,4.22v0.2C411.38,533.51,409.49,535.4,407.16,535.4z"/>
	<g>
		<g>
			<path class="st7" d="M312.1,474.34h-59.49c-2.64,0-4.78,2.14-4.78,4.78v36.76c0,2.64,2.14,4.79,4.78,4.79h43.32l4.37,4.37
				l5.27,5.27v-9.64h6.51c2.64,0,4.78-2.15,4.78-4.79v-36.76C316.88,476.48,314.74,474.34,312.1,474.34z M268.04,502.33
				c-2.63,0-4.76-2.13-4.76-4.77c0-2.63,2.12-4.76,4.76-4.76c2.63,0,4.76,2.13,4.76,4.76C272.8,500.19,270.66,502.33,268.04,502.33z
				 M282.36,502.33c-2.63,0-4.76-2.13-4.76-4.77c0-2.63,2.13-4.76,4.76-4.76c2.63,0,4.76,2.13,4.76,4.76
				C287.11,500.19,284.98,502.33,282.36,502.33z M300.31,500.63c-0.87,1.04-2.18,1.7-3.64,1.7c-2.63,0-4.76-2.13-4.76-4.77
				c0-2.63,2.13-4.76,4.76-4.76c1.46,0,2.77,0.66,3.64,1.7c0.7,0.83,1.12,1.9,1.12,3.06C301.43,498.73,301.01,499.8,300.31,500.63z"
				/>
		</g>
		<g>
			<path class="st7" d="M294.71,523.62l5.6,5.59v1.58c0,2.64-2.14,4.79-4.78,4.79h-43.32l-9.65,9.64v-9.64h-6.51
				c-2.64,0-4.78-2.15-4.78-4.79v-36.76c0-2.64,2.14-4.78,4.78-4.78h8.84v26.63c0,4.27,3.47,7.74,7.73,7.74H294.71z"/>
		</g>
	</g>
</g>
<path class="st19" d="M229.53,177.33h70.39c1.79,0,3.24-1.45,3.24-3.24v-56.03c0-1.79-1.45-3.24-3.24-3.24h-70.39
	c-1.79,0-3.24,1.45-3.24,3.24v56.03C226.29,175.88,227.74,177.33,229.53,177.33z"/>
<g>
	<g>
		<polygon class="st4" points="188.4,306.31 192.83,328.66 169.44,324.52 165,302.17 		"/>
		<polygon class="st21" points="188.39,306.32 165,302.16 185.03,289.38 208.42,293.54 		"/>
		<polygon class="st3" points="208.41,293.55 212.85,315.9 192.83,328.66 188.4,306.31 		"/>
	</g>
	<g>
		<polygon class="st4" points="183.13,279.79 187.57,302.14 164.18,298 159.74,275.65 		"/>
		<polygon class="st21" points="183.13,279.8 159.74,275.64 179.76,262.86 203.15,267.02 		"/>
		<polygon class="st3" points="203.14,267.03 207.58,289.38 187.57,302.14 183.13,279.79 		"/>
	</g>
	<g>
		<polygon class="st4" points="174.56,236.63 179,258.98 155.61,254.83 151.17,232.48 		"/>
		<polygon class="st22" points="174.56,236.63 151.17,232.48 171.19,219.7 194.58,223.86 		"/>
		<polygon class="st3" points="194.57,223.87 199.01,246.22 179,258.98 174.56,236.63 		"/>
	</g>
	<g>
		<polygon class="st4" points="215.65,311.69 220.09,334.04 196.7,329.9 192.26,307.55 		"/>
		<polygon class="st21" points="215.65,311.7 192.26,307.54 212.29,294.76 235.68,298.92 		"/>
		<polygon class="st3" points="235.67,298.93 240.11,321.28 220.09,334.04 215.65,311.69 		"/>
	</g>
	<g>
		<polygon class="st4" points="210.39,285.17 214.83,307.52 191.43,303.38 187,281.03 		"/>
		<polygon class="st21" points="210.39,285.18 187,281.02 207.02,268.24 230.41,272.4 		"/>
		<polygon class="st3" points="230.4,272.41 234.84,294.76 214.83,307.52 210.39,285.17 		"/>
	</g>
	<g>
		<polygon class="st4" points="205.12,258.65 209.56,281 186.17,276.86 181.73,254.51 		"/>
		<polygon class="st21" points="205.12,258.66 181.73,254.51 201.76,241.73 225.15,245.88 		"/>
		<polygon class="st3" points="225.14,245.89 229.57,268.24 209.56,281 205.12,258.65 		"/>
	</g>
	<g>
		<polygon class="st4" points="242.91,317.07 247.35,339.42 223.96,335.28 219.52,312.93 		"/>
		<polygon class="st21" points="242.91,317.08 219.52,312.92 239.55,300.14 262.93,304.3 		"/>
		<polygon class="st3" points="262.93,304.31 267.36,326.66 247.35,339.42 242.91,317.07 		"/>
	</g>
	<g>
		<polygon class="st4" points="255.65,285.8 260.09,308.16 236.69,304.01 232.26,281.66 		"/>
		<polygon class="st22" points="255.64,285.81 232.26,281.66 252.28,268.88 275.67,273.04 		"/>
		<polygon class="st3" points="275.66,273.05 280.1,295.4 260.09,308.16 255.65,285.8 		"/>
	</g>
	<g>
		<polygon class="st4" points="232.38,264.03 236.82,286.39 213.43,282.24 208.99,259.89 		"/>
		<polygon class="st22" points="232.38,264.04 208.99,259.89 229.02,247.11 252.4,251.27 		"/>
		<polygon class="st3" points="252.39,251.28 256.83,273.63 236.82,286.39 232.38,264.03 		"/>
	</g>
	<g>
		<polygon class="st4" points="165.4,322.35 169.83,344.7 146.44,340.56 142,318.21 		"/>
		<polygon class="st21" points="165.39,322.36 142.01,318.2 162.03,305.42 185.42,309.58 		"/>
		<polygon class="st3" points="185.41,309.59 189.85,331.94 169.83,344.7 165.4,322.35 		"/>
	</g>
	<g>
		<polygon class="st4" points="160.13,295.83 164.57,318.18 141.18,314.04 136.74,291.69 		"/>
		<polygon class="st21" points="160.13,295.84 136.74,291.68 156.77,278.9 180.15,283.06 		"/>
		<polygon class="st3" points="180.14,283.07 184.58,305.42 164.57,318.18 160.13,295.83 		"/>
	</g>
	<g>
		<polygon class="st4" points="154.87,269.31 159.3,291.66 135.91,287.52 131.47,265.17 		"/>
		<polygon class="st22" points="154.86,269.32 131.47,265.16 151.5,252.38 174.89,256.54 		"/>
		<polygon class="st3" points="174.88,256.55 179.32,278.9 159.3,291.66 154.87,269.31 		"/>
	</g>
	<g>
		<polygon class="st4" points="192.65,327.73 197.09,350.08 173.7,345.94 169.26,323.59 		"/>
		<polygon class="st21" points="192.65,327.74 169.26,323.58 189.29,310.8 212.68,314.96 		"/>
		<polygon class="st3" points="212.67,314.97 217.11,337.32 197.09,350.08 192.65,327.73 		"/>
	</g>
	<g>
		<polygon class="st4" points="187.39,301.21 191.83,323.56 168.44,319.42 164,297.07 		"/>
		<polygon class="st21" points="187.39,301.22 164,297.06 184.02,284.28 207.41,288.44 		"/>
		<polygon class="st3" points="207.4,288.45 211.84,310.8 191.83,323.56 187.39,301.21 		"/>
	</g>
	<g>
		<polygon class="st4" points="182.12,274.69 186.56,297.04 163.17,292.9 158.73,270.55 		"/>
		<polygon class="st21" points="182.12,274.7 158.73,270.54 178.76,257.77 202.15,261.92 		"/>
		<polygon class="st3" points="202.14,261.93 206.58,284.28 186.56,297.04 182.12,274.69 		"/>
	</g>
	<g>
		<polygon class="st4" points="223.46,350.97 227.9,373.32 204.5,369.18 200.07,346.83 		"/>
		<polygon class="st21" points="223.46,350.98 200.07,346.82 220.09,334.04 243.48,338.2 		"/>
		<polygon class="st3" points="243.47,338.21 247.91,360.56 227.9,373.32 223.46,350.97 		"/>
	</g>
	<g>
		<polygon class="st4" points="214.65,306.59 219.09,328.94 195.69,324.8 191.26,302.45 		"/>
		<polygon class="st22" points="214.64,306.6 191.26,302.44 211.28,289.66 234.67,293.82 		"/>
		<polygon class="st3" points="234.66,293.83 239.1,316.18 219.09,328.94 214.65,306.59 		"/>
	</g>
	<g>
		<polygon class="st4" points="209.38,280.07 213.82,302.42 190.43,298.28 185.99,275.93 		"/>
		<polygon class="st21" points="209.38,280.08 185.99,275.93 206.02,263.15 229.4,267.3 		"/>
		<polygon class="st3" points="229.4,267.31 233.83,289.66 213.82,302.42 209.38,280.07 		"/>
	</g>
	<g>
		<polygon class="st4" points="142.4,338.39 146.84,360.74 123.44,356.6 119.01,334.25 		"/>
		<polygon class="st21" points="142.39,338.4 119.01,334.24 139.03,321.46 162.42,325.62 		"/>
		<polygon class="st3" points="162.41,325.63 166.85,347.98 146.84,360.74 142.4,338.39 		"/>
	</g>
	<g>
		<polygon class="st4" points="124.1,311.65 128.53,334 105.14,329.86 100.7,307.51 		"/>
		<polygon class="st22" points="124.09,311.66 100.7,307.5 120.73,294.72 144.12,298.88 		"/>
		<polygon class="st3" points="144.11,298.89 148.55,321.24 128.53,334 124.1,311.65 		"/>
	</g>
	<g>
		<polygon class="st4" points="131.87,285.35 136.3,307.7 112.91,303.56 108.47,281.21 		"/>
		<polygon class="st21" points="131.86,285.36 108.48,281.2 128.5,268.42 151.89,272.58 		"/>
		<polygon class="st3" points="151.88,272.59 156.32,294.94 136.3,307.7 131.87,285.35 		"/>
	</g>
	<g>
		<polygon class="st4" points="171.49,353.02 175.93,375.37 152.53,371.23 148.1,348.88 		"/>
		<polygon class="st22" points="171.49,353.03 148.1,348.87 168.12,336.1 191.51,340.25 		"/>
		<polygon class="st3" points="191.5,340.26 195.94,362.61 175.93,375.37 171.49,353.02 		"/>
	</g>
	<g>
		<polygon class="st4" points="164.39,317.25 168.83,339.6 145.44,335.46 141,313.11 		"/>
		<polygon class="st21" points="164.39,317.26 141,313.1 161.02,300.32 184.41,304.48 		"/>
		<polygon class="st3" points="184.4,304.49 188.84,326.84 168.83,339.6 164.39,317.25 		"/>
	</g>
	<g>
		<polygon class="st4" points="159.12,290.73 163.56,313.08 140.17,308.94 135.73,286.59 		"/>
		<polygon class="st22" points="159.12,290.74 135.73,286.58 155.76,273.8 179.15,277.96 		"/>
		<polygon class="st3" points="179.14,277.97 183.58,300.32 163.56,313.08 159.12,290.73 		"/>
	</g>
	<g>
		<polygon class="st4" points="196.91,349.15 201.35,371.5 177.96,367.36 173.52,345.01 		"/>
		<polygon class="st22" points="196.91,349.16 173.52,345 193.55,332.22 216.94,336.38 		"/>
		<polygon class="st3" points="216.93,336.39 221.37,358.74 201.35,371.5 196.91,349.15 		"/>
	</g>
	<g>
		<polygon class="st4" points="191.65,322.63 196.09,344.98 172.69,340.84 168.26,318.49 		"/>
		<polygon class="st21" points="191.65,322.64 168.26,318.48 188.28,305.7 211.67,309.86 		"/>
		<polygon class="st3" points="211.66,309.87 216.1,332.22 196.09,344.98 191.65,322.63 		"/>
	</g>
	<g>
		<polygon class="st4" points="186.38,296.11 190.82,318.46 167.43,314.32 162.99,291.97 		"/>
		<polygon class="st21" points="186.38,296.12 162.99,291.96 183.02,279.19 206.41,283.34 		"/>
		<polygon class="st3" points="206.4,283.35 210.83,305.7 190.82,318.46 186.38,296.11 		"/>
	</g>
</g>
<g id="Layer_x0020_1_00000129908187302537638030000006203022700605316539_">
	<g id="_1421344023328_00000034070538256983259960000001752684072789205377_">
		<path class="st6" d="M295.04,153.64c-4.17,16.74-21.13,26.93-37.88,22.76c-16.74-4.17-26.93-21.13-22.75-37.87
			c4.17-16.74,21.13-26.93,37.87-22.76C289.02,119.94,299.21,136.9,295.04,153.64L295.04,153.64L295.04,153.64z"/>
		<path class="st7" d="M278.5,141.63c0.62-4.16-2.54-6.39-6.87-7.89l1.4-5.63l-3.43-0.85l-1.37,5.49c-0.9-0.22-1.83-0.44-2.75-0.65
			l1.38-5.52l-3.43-0.85l-1.41,5.63c-0.75-0.17-1.48-0.34-2.19-0.51l0-0.02l-4.73-1.18l-0.91,3.66c0,0,2.54,0.58,2.49,0.62
			c1.39,0.35,1.64,1.27,1.6,1.99l-1.6,6.42c0.1,0.02,0.22,0.06,0.36,0.11c-0.11-0.03-0.24-0.06-0.36-0.09l-2.24,8.99
			c-0.17,0.42-0.6,1.06-1.57,0.81c0.03,0.05-2.49-0.62-2.49-0.62l-1.7,3.93l4.46,1.11c0.83,0.21,1.64,0.43,2.45,0.63l-1.42,5.7
			l3.43,0.85l1.41-5.64c0.94,0.25,1.84,0.49,2.73,0.71l-1.4,5.61l3.43,0.85l1.42-5.69c5.85,1.11,10.25,0.66,12.1-4.63
			c1.49-4.26-0.07-6.72-3.15-8.32C276.37,146.15,278.06,144.67,278.5,141.63L278.5,141.63L278.5,141.63z M270.67,152.62
			c-1.06,4.26-8.23,1.96-10.55,1.38l1.88-7.55C264.32,147.03,271.78,148.17,270.67,152.62L270.67,152.62z M271.73,141.57
			c-0.97,3.87-6.93,1.91-8.87,1.42l1.71-6.85C266.5,136.62,272.74,137.53,271.73,141.57L271.73,141.57z"/>
	</g>
</g>
</svg>
