<svg width="81" height="96" viewBox="0 0 81 96" fill="none" xmlns="http://www.w3.org/2000/svg">
<g clip-path="url(#clip0_853_20522)">
<path d="M81 24.257C81 24.2394 81 24.2219 81 24.2043C81 24.1867 81 24.1779 81 24.1638C81 24.1497 81 24.1269 80.9897 24.1075C80.9889 24.0964 80.9889 24.0852 80.9897 24.0741L80.9691 24.0108C80.9691 24.0108 80.9691 23.995 80.9605 23.9879L80.9331 23.9299C80.9331 23.9299 80.9331 23.9141 80.9211 23.9053C80.8954 23.8609 80.8649 23.8196 80.8301 23.7822L80.8147 23.7628C80.7995 23.7478 80.7834 23.7337 80.7666 23.7206L80.7478 23.7013L80.6929 23.6643L80.6723 23.6503L40.8389 0.0952281C40.7346 0.0334828 40.6162 0.000976563 40.4957 0.000976562C40.3752 0.000976563 40.2569 0.0334828 40.1525 0.0952281L0.61431 23.5676C0.445036 23.5859 0.288442 23.668 0.174925 23.798C0.0614087 23.928 -0.00093014 24.0966 1.04916e-05 24.2711V71.5993C0.000133949 71.7226 0.031907 71.8438 0.0921422 71.9506C0.152377 72.0574 0.238957 72.1461 0.343194 72.2078L40.1525 95.9053C40.1628 95.9053 40.1748 95.9158 40.1869 95.9229L40.2332 95.9457C40.2528 95.9538 40.2729 95.9609 40.2932 95.9668L40.3173 95.9756L40.3893 95.9897H40.4048H40.494C40.5237 95.9915 40.5535 95.9915 40.5832 95.9897H40.6261H40.6707L40.7102 95.9756C40.7257 95.9756 40.7411 95.9756 40.7565 95.9598L40.7806 95.9475L40.8372 95.9193L80.6465 72.2482C80.7508 72.1866 80.8373 72.0979 80.8976 71.9911C80.9578 71.8842 80.9896 71.7631 80.9897 71.6397V24.257H81ZM1.52718 71.2862L39.8094 48.5666V94.0744L1.52718 71.2862ZM41.1821 94.0762V48.5648L79.5501 71.2633L41.1821 94.0762ZM39.6378 48.2606L1.37275 70.9714V25.5497L39.6378 48.2606ZM79.6187 70.901L41.3537 48.2588L54.2591 40.5765L79.6238 25.4794L79.6187 70.901ZM78.9323 24.2605L62.2879 34.1694L40.6673 47.04V1.61831L78.9323 24.2605ZM40.3241 1.61831V47.0136L2.11574 24.294L40.3241 1.61831Z" fill="url(#paint0_linear_853_20522)"/>
</g>
<defs>
<linearGradient id="paint0_linear_853_20522" x1="40.5" y1="0.000976562" x2="40.5" y2="95.9911" gradientUnits="userSpaceOnUse">
<stop stop-color="#6690FF"/>
<stop offset="1" stop-color="#295DE7"/>
</linearGradient>
<clipPath id="clip0_853_20522">
<rect width="81" height="96" fill="white"/>
</clipPath>
</defs>
</svg>
