<svg width="76" height="88" viewBox="0 0 76 88" fill="none" xmlns="http://www.w3.org/2000/svg">
<g clip-path="url(#clip0_853_20536)">
<path d="M18.3491 2.231C19.012 2.231 19.6731 2.231 20.336 2.231C21.1924 2.231 21.4596 2.48719 21.5572 3.35615C21.6049 3.57333 21.6301 3.79493 21.6326 4.01739C21.5127 5.21351 22.1892 5.70858 23.2083 6.00631C23.3561 6.05591 23.51 6.08445 23.6656 6.09113C23.8637 6.08826 24.053 6.00755 24.1932 5.8661C24.6145 5.49739 25.0736 5.1737 25.5206 4.8275C25.7063 4.66717 25.9395 4.57398 26.1834 4.56265C26.3194 4.56887 26.4527 4.60273 26.5755 4.66222C26.6982 4.7217 26.8078 4.80558 26.8977 4.90885C28.2508 6.26596 29.6028 7.62364 30.9536 8.98189C31.3629 9.39387 31.3852 9.84739 31.0409 10.313C30.8704 10.5847 30.673 10.8382 30.4517 11.0695C29.6741 11.7619 29.6073 12.4889 30.1092 13.3977C30.3558 13.8408 30.5408 14.1593 31.1009 14.1662C31.6147 14.1662 32.1166 14.3082 32.627 14.3584C33.3275 14.4276 33.5913 14.8379 33.5896 15.5078C33.5827 17.3634 33.5827 19.219 33.5896 21.0747C33.5896 21.7151 33.3207 22.1133 32.6664 22.1842C32.1816 22.2431 31.6969 22.3781 31.2173 22.3781H31.0872C30.1092 22.3781 30.2136 23.2817 29.8642 23.8148C29.5542 24.2874 29.7529 24.6249 30.0629 24.985C30.414 25.397 30.748 25.8314 31.0598 26.2694C31.3715 26.7073 31.3578 27.1487 30.9707 27.5399C29.6005 28.9247 28.2302 30.3049 26.86 31.6805C26.7732 31.7784 26.6679 31.8577 26.5502 31.9136C26.4325 31.9695 26.3048 32.0009 26.1749 32.0059C25.9419 31.9964 25.7185 31.9094 25.5394 31.7584C25.1916 31.5273 24.8638 31.2667 24.5597 30.9794C24.4434 30.8342 24.2972 30.7164 24.1313 30.6342C23.9653 30.552 23.7836 30.5074 23.5988 30.5034C23.3025 30.5178 23.0116 30.5901 22.7425 30.7163C22.0094 31.021 21.7148 31.4087 21.6514 32.2119C21.4801 34.322 21.4373 34.3185 19.3237 34.3185H17.6418H15.9598C15.5898 34.3185 15.2216 34.3185 14.8516 34.3185H14.8242C14.1579 34.3185 13.7965 34.0069 13.7486 33.318C13.7246 32.9978 13.6184 32.6775 13.6321 32.3625C13.6715 31.4451 13.2759 30.9587 12.4023 30.6575C12.1832 30.5724 11.9518 30.5244 11.7172 30.5155C11.3885 30.5247 11.0743 30.6545 10.8334 30.8808C9.91878 31.6337 9.49229 32.0163 9.10349 32.0163C8.68557 32.0163 8.31389 31.5766 7.43352 30.6817C6.45037 29.6812 5.45182 28.6962 4.46696 27.6975C3.88119 27.102 3.86235 26.7437 4.35392 26.0894C4.48721 25.8813 4.63977 25.6866 4.80952 25.5077C5.5974 24.7998 5.70531 24.045 5.15208 23.112C4.90886 22.7053 4.76156 22.385 4.21176 22.3816C3.65034 22.3485 3.09182 22.2768 2.54007 22.1669C1.99883 22.0873 1.71793 21.7671 1.71793 21.2114C1.71793 19.2496 1.71793 17.2947 1.71793 15.3468C1.71793 14.7963 1.97827 14.4622 2.52637 14.3826C2.84095 14.317 3.15977 14.2742 3.48039 14.2545H3.65167C4.56459 14.2545 5.08871 13.8304 5.38502 12.8957C5.57342 12.2985 5.52547 11.9281 5.14009 11.4468C3.59858 9.51677 3.55062 9.73834 5.34049 7.96234C6.33733 6.98778 7.33075 5.99592 8.30533 4.98675C8.40521 4.86449 8.52873 4.76413 8.66833 4.6918C8.80793 4.61948 8.96067 4.57671 9.11719 4.56612C9.39036 4.5818 9.64958 4.6932 9.85027 4.88116C10.21 5.17716 10.621 5.4195 10.943 5.74666C11.0282 5.84615 11.1333 5.92616 11.2514 5.98138C11.3696 6.0366 11.498 6.06575 11.6281 6.06689C11.8616 6.0517 12.092 6.00513 12.3133 5.92841C13.3033 5.64107 13.6938 5.04387 13.6338 4.06066C13.6341 4.01074 13.6387 3.96093 13.6475 3.9118C13.8548 2.27427 13.9027 2.231 15.5641 2.231H18.3491ZM18.3491 0.5H15.5522C14.5433 0.5 13.6681 0.5 12.935 1.15432C12.2019 1.80863 12.0786 2.72606 11.9536 3.69369C11.9274 3.85147 11.9188 4.01173 11.9279 4.17145C11.9279 4.19741 11.9279 4.22165 11.9279 4.24242L11.8696 4.26146C11.6624 4.08836 11.4569 3.93084 11.2685 3.79409C11.1434 3.70235 11.027 3.62099 10.9259 3.53963C10.4216 3.09476 9.77789 2.84458 9.10863 2.83339C8.59479 2.83339 7.82403 2.9961 7.07041 3.77678C6.07185 4.81538 5.06815 5.8107 4.13468 6.73852L3.88632 6.98432C2.9991 7.86021 2.3568 8.49375 2.2763 9.49946C2.19237 10.5554 2.78157 11.2841 3.52664 12.205L3.73046 12.4439C3.71847 12.4785 3.70819 12.5062 3.69792 12.5287H3.47697C3.15125 12.5344 2.82673 12.5703 2.50753 12.636C2.43045 12.6481 2.35338 12.6637 2.2763 12.6741C0.894077 12.8818 0 13.9326 0 15.3554C0 17.3103 0 19.2652 0 21.2201C0 22.636 0.899216 23.6833 2.28829 23.8875C2.42874 23.9083 2.56919 23.9325 2.70792 23.9568C3.02136 24.0104 3.36221 24.0675 3.72704 24.0987L3.7493 24.1437C3.72415 24.1719 3.69726 24.1985 3.6688 24.2233C3.44631 24.4336 3.24964 24.6701 3.08303 24.9279C3.05391 24.9694 3.0265 25.0109 2.99567 25.0508C1.98855 26.3905 2.07933 27.7303 3.25944 28.9265C3.73046 29.4059 4.21176 29.8872 4.67763 30.3528C5.19147 30.8635 5.70531 31.3914 6.21915 31.9107L6.5069 32.205C7.35302 33.0705 8.021 33.7629 9.1052 33.7629C10.0712 33.7629 10.7169 33.2297 11.6949 32.4213L11.8371 32.3054H11.8508L11.9245 32.3331C11.9214 32.6394 11.9506 32.9452 12.0118 33.2453C12.0255 33.3232 12.0426 33.4184 12.0461 33.4582C12.1608 35.0386 13.2536 36.0547 14.8294 36.0547H14.879C15.1993 36.0547 15.5453 36.0547 15.9649 36.0547H19.346C20.6443 36.0547 21.5829 36.0547 22.3639 35.3623C23.1912 34.6249 23.27 33.6313 23.371 32.359C23.3702 32.3527 23.3702 32.3463 23.371 32.34L23.4053 32.3261L23.4515 32.3071C23.7062 32.5497 23.98 32.7708 24.2703 32.9683C24.3525 33.0272 24.4415 33.0861 24.5152 33.1414C24.9921 33.52 25.5788 33.7298 26.1852 33.7386C26.538 33.7348 26.8864 33.6596 27.21 33.5175C27.5336 33.3754 27.8257 33.1693 28.0692 32.9112C29.3042 31.6736 30.6487 30.3147 32.1799 28.7568C33.1648 27.758 33.2658 26.3784 32.4351 25.2377C32.1782 24.8915 31.9025 24.5141 31.601 24.1437C31.601 24.1247 31.6164 24.1056 31.6233 24.0883C31.9162 24.0624 32.1868 24.0139 32.4351 23.9706C32.591 23.9412 32.7383 23.9152 32.8668 23.8996C34.3483 23.7265 35.3024 22.6083 35.2989 21.0677C35.2955 19.5271 35.2989 17.5261 35.2989 15.5112C35.2989 13.9135 34.3209 12.7849 32.7914 12.6326C32.6424 12.6187 32.4728 12.5893 32.2913 12.5599C32.0652 12.5218 31.8168 12.482 31.5513 12.456C31.5428 12.4404 31.5354 12.4242 31.5291 12.4075L31.5736 12.366C31.8464 12.1132 32.0864 11.8264 32.2878 11.5126L32.406 11.3395C33.2624 10.178 33.1648 8.76898 32.1577 7.75115C31.0444 6.626 29.9299 5.50316 28.8143 4.38263L28.0984 3.66253C27.8507 3.39744 27.5527 3.18542 27.2223 3.03911C26.8918 2.8928 26.5356 2.81518 26.1749 2.81088C25.551 2.8187 24.9478 3.03817 24.4621 3.43404L24.1195 3.69369C23.8866 3.86679 23.6485 4.05201 23.4104 4.24588C23.3728 4.23203 23.3419 4.21819 23.3162 4.20607C23.2905 4.19395 23.3162 4.19049 23.3162 4.18183C23.3472 3.87744 23.3339 3.57011 23.2768 3.2696L23.258 3.16574C23.0131 0.977756 21.5452 0.512117 20.3463 0.506924C19.6817 0.506924 19.0171 0.506924 18.3526 0.506924L18.3491 0.5Z" fill="url(#paint0_linear_853_20536)"/>
<path d="M17.7188 9.89412H17.813C22.2474 9.94605 25.9899 13.8252 25.9436 18.3206C25.9332 20.5371 25.055 22.6593 23.501 24.2234C21.947 25.7874 19.8435 26.6661 17.6503 26.6675H17.6075C13.0446 26.6381 9.28843 22.8299 9.31926 18.2462C9.35009 13.6192 13.108 9.89412 17.7119 9.89412M17.7119 8.16312C15.0479 8.15618 12.4891 9.21396 10.5936 11.1058C9.18918 12.5148 8.22947 14.3129 7.8357 16.2729C7.44193 18.2328 7.63175 20.2668 8.38118 22.1178C9.13062 23.9688 10.406 25.5538 12.0464 26.6726C13.6867 27.7914 15.6183 28.3938 17.5972 28.4037H17.6503C18.9591 28.4071 20.2556 28.1489 21.4652 27.6439C22.6748 27.1388 23.7736 26.397 24.6984 25.461C26.5756 23.574 27.6388 21.0137 27.6564 18.3379C27.7112 12.887 23.2134 8.22717 17.8335 8.16312H17.7119Z" fill="url(#paint1_linear_853_20536)"/>
<path d="M75.3526 82.3571H61.3694V31.0745C61.3694 30.8737 61.3694 30.6954 61.3899 30.5258L61.4533 29.7295H75.2892L75.3406 30.5396C75.3406 30.64 75.3492 30.7421 75.3492 30.8494C75.3492 44.2358 75.3492 57.6182 75.3492 70.9965L75.3526 82.3571ZM63.0822 80.6261H73.6398V70.9965C73.6398 57.819 73.6398 44.6403 73.6398 31.4605H63.0822V80.6261Z" fill="url(#paint2_linear_853_20536)"/>
<path d="M54.8214 82.3574H40.9187V47.6439C40.9187 47.4518 40.9187 47.2579 40.941 47.0693L41.0009 46.2695H54.8625L54.8951 47.1021C54.8951 47.1558 54.8951 47.2112 54.8951 47.2752C54.8951 58.5267 54.8951 69.9617 54.8951 81.0297C54.8951 81.1492 54.8951 81.2582 54.878 81.3759C54.878 81.433 54.8694 81.4936 54.8643 81.5611L54.8214 82.3574ZM42.6315 80.6264H53.1874C53.1874 69.9271 53.1874 58.8833 53.1874 48.0005H42.6315V80.6264Z" fill="url(#paint3_linear_853_20536)"/>
<path d="M34.3174 82.3644H20.5534L20.514 81.5405C20.514 81.4539 20.5037 81.3674 20.5003 81.2825C20.4883 81.0817 20.4746 80.8757 20.4746 80.6611C20.4746 73.3124 20.4746 65.9667 20.4746 58.6238C20.4746 58.4507 20.4746 58.3035 20.4883 58.165L20.5448 57.3584H34.4441V58.2499C34.4527 64.4711 34.4441 70.7961 34.4441 76.9118V81.1492C34.4426 81.2506 34.4346 81.3518 34.4202 81.4522C34.4202 81.492 34.4082 81.5387 34.4013 81.5958L34.3174 82.3644ZM22.1823 80.6334H32.7348V76.9118C32.7348 71.0714 32.7348 65.0388 32.7348 59.0825H22.1805C22.1794 66.2684 22.18 73.4521 22.1823 80.6334Z" fill="url(#paint4_linear_853_20536)"/>
<path d="M13.9095 82.3569H0.0170898V64.1485C0.0170898 64.0204 0.0170898 63.8958 0.0273666 63.7763L0.0667608 62.9541H13.9918V63.8196C14.0037 68.4223 13.9918 73.1029 13.9918 77.6295V81.0517C13.9918 81.1798 13.9815 81.2958 13.9712 81.4066C13.9712 81.4533 13.9712 81.5035 13.9592 81.5571L13.9095 82.3569ZM1.72988 80.6259H12.2858V77.6243C12.2858 73.3834 12.2858 69.0057 12.2858 64.6851H1.72988V80.6259Z" fill="url(#paint5_linear_853_20536)"/>
<path d="M74.4962 85.7686H0.873535V87.4996H74.4962V85.7686Z" fill="#2A5EE8"/>
<path d="M0.87169 53.2607C0.644559 53.2738 0.421589 53.1952 0.251829 53.0421C0.082069 52.8891 -0.0205743 52.6741 -0.0335207 52.4446C-0.0464672 52.215 0.0313438 51.9897 0.182795 51.8181C0.334246 51.6466 0.54693 51.5428 0.774061 51.5297C13.6987 50.0308 26.1615 45.777 37.3387 39.0492C55.2854 28.2461 65.7351 13.5914 71.3411 3.20026C71.4528 3.00474 71.6357 2.86108 71.8507 2.79993C72.0658 2.73878 72.296 2.76498 72.4922 2.87293C72.6884 2.98089 72.8351 3.16205 72.901 3.37779C72.9669 3.59352 72.9468 3.82673 72.8449 4.02768C67.1413 14.6093 56.4946 29.5339 38.214 40.5362C26.8309 47.3916 14.1373 51.7264 0.972744 53.2538C0.939281 53.2587 0.905499 53.261 0.87169 53.2607Z" fill="url(#paint6_linear_853_20536)"/>
<path d="M75.142 12.3852C74.9522 12.3852 74.7678 12.3214 74.6177 12.2039C74.4677 12.0864 74.3605 11.9219 74.313 11.7361L72.1258 3.16766L63.418 6.36308C63.3119 6.40329 63.1991 6.42184 63.0859 6.41766C62.9727 6.41348 62.8615 6.38666 62.7586 6.33874C62.6558 6.29083 62.5634 6.22277 62.4867 6.13852C62.4101 6.05426 62.3507 5.95548 62.3121 5.84789C62.2735 5.7403 62.2563 5.62603 62.2617 5.51171C62.2671 5.39738 62.2948 5.28527 62.3434 5.18185C62.3919 5.07844 62.4602 4.98578 62.5444 4.90924C62.6286 4.8327 62.727 4.7738 62.8339 4.73595L72.4255 1.21509C72.5367 1.17469 72.655 1.15798 72.7729 1.16603C72.8908 1.17407 73.0058 1.20669 73.1106 1.26183C73.2163 1.31819 73.3092 1.39628 73.3832 1.49108C73.4573 1.58589 73.5109 1.6953 73.5406 1.81229L75.9642 11.3034C76.0214 11.5237 75.9903 11.7579 75.8778 11.9552C75.7652 12.1526 75.5803 12.2971 75.363 12.3575C75.2908 12.3766 75.2165 12.3859 75.142 12.3852Z" fill="url(#paint7_linear_853_20536)"/>
</g>
<defs>
<linearGradient id="paint0_linear_853_20536" x1="17.6495" y1="0.5" x2="17.6495" y2="36.0547" gradientUnits="userSpaceOnUse">
<stop stop-color="#6690FF"/>
<stop offset="1" stop-color="#295DE7"/>
</linearGradient>
<linearGradient id="paint1_linear_853_20536" x1="17.6462" y1="8.16309" x2="17.6462" y2="28.4037" gradientUnits="userSpaceOnUse">
<stop stop-color="#6690FF"/>
<stop offset="1" stop-color="#295DE7"/>
</linearGradient>
<linearGradient id="paint2_linear_853_20536" x1="68.361" y1="29.7295" x2="68.361" y2="82.3571" gradientUnits="userSpaceOnUse">
<stop stop-color="#6690FF"/>
<stop offset="1" stop-color="#295DE7"/>
</linearGradient>
<linearGradient id="paint3_linear_853_20536" x1="47.9069" y1="46.2695" x2="47.9069" y2="82.3574" gradientUnits="userSpaceOnUse">
<stop stop-color="#6690FF"/>
<stop offset="1" stop-color="#295DE7"/>
</linearGradient>
<linearGradient id="paint4_linear_853_20536" x1="27.4613" y1="57.3584" x2="27.4613" y2="82.3644" gradientUnits="userSpaceOnUse">
<stop stop-color="#6690FF"/>
<stop offset="1" stop-color="#295DE7"/>
</linearGradient>
<linearGradient id="paint5_linear_853_20536" x1="7.00709" y1="62.9541" x2="7.00709" y2="82.3569" gradientUnits="userSpaceOnUse">
<stop stop-color="#6690FF"/>
<stop offset="1" stop-color="#295DE7"/>
</linearGradient>
<linearGradient id="paint6_linear_853_20536" x1="36.4521" y1="2.76758" x2="36.4521" y2="53.2622" gradientUnits="userSpaceOnUse">
<stop stop-color="#6690FF"/>
<stop offset="1" stop-color="#295DE7"/>
</linearGradient>
<linearGradient id="paint7_linear_853_20536" x1="69.1265" y1="1.16406" x2="69.1265" y2="12.3853" gradientUnits="userSpaceOnUse">
<stop stop-color="#6690FF"/>
<stop offset="1" stop-color="#295DE7"/>
</linearGradient>
<clipPath id="clip0_853_20536">
<rect width="76" height="87" fill="white" transform="translate(0 0.5)"/>
</clipPath>
</defs>
</svg>
