<svg width="87" height="78" viewBox="0 0 87 78" fill="none" xmlns="http://www.w3.org/2000/svg">
<g clip-path="url(#clip0_852_20505)">
<path d="M14.4737 43.0372C13.7948 40.8816 12.3363 39.4197 10.3446 38.3968C10.1632 38.3023 9.94621 38.0218 9.96171 37.8449C10.0785 36.4983 10.2273 35.1583 10.4081 33.825C10.825 30.6968 11.8201 27.7348 13.181 24.8902C16.1452 18.7359 20.9702 13.6326 26.9959 10.2783C30.1067 8.55873 33.3803 7.21112 36.9374 6.68823C39.0175 6.38334 41.11 6.09217 43.2071 5.97784C44.6207 5.90161 46.0637 6.0754 47.4757 6.26748C49.1797 6.47595 50.8693 6.7865 52.5348 7.1974C55.298 7.91141 57.9447 9.00613 60.3963 10.449C61.9044 11.3424 63.3412 12.3653 64.8742 13.3775C63.8682 14.3547 62.9987 15.1855 62.1431 16.0285C61.5681 16.5972 61.6409 16.902 62.4128 17.0652C63.9907 17.3975 65.5748 17.6993 67.1557 18.0195C69.3055 18.4555 71.4507 18.9113 73.6052 19.3259C74.1446 19.4296 74.5785 19.2787 74.4995 18.5744C74.3786 17.5072 74.2918 16.4401 74.1709 15.3639C73.9772 13.6519 73.7602 11.943 73.5711 10.2311C73.4471 9.11058 73.3866 7.98401 73.2285 6.87726C73.1836 6.55865 72.8968 6.26748 72.7201 5.97326C72.4303 6.14248 72.1001 6.26748 71.8599 6.49158C70.9206 7.37881 70.0108 8.29652 69.1118 9.18223C68.3151 8.53586 67.644 7.90931 66.8953 7.3971C63.6884 5.19732 60.3141 3.29328 56.5741 2.14689C54.3892 1.46175 52.1633 0.910371 49.9092 0.495915C48.0136 0.160536 46.059 0.0934604 44.1278 0.0187624C42.7438 -0.0280344 41.3582 0.0229115 39.9816 0.171207C38.1449 0.360239 36.2865 0.537075 34.5024 0.971543C31.1419 1.77115 27.8978 2.98615 24.8477 4.58754C20.0691 7.12727 15.9353 10.4231 12.5548 14.5849C9.51532 18.3228 7.19501 22.4678 5.74888 27.0655C4.636 30.6099 3.85326 34.2045 3.91216 37.9364C3.91991 38.5065 3.71842 38.8358 3.23792 39.156C1.89265 40.0355 0.885111 41.3324 0.375621 42.8401C-0.133868 44.3478 -0.116039 45.9798 0.426273 47.4764C1.66625 50.8302 4.96769 52.9294 8.83333 52.2495C13.0198 51.5131 15.7602 47.0816 14.4737 43.0372ZM5.16144 34.5399C5.55513 31.7593 6.15497 29.0199 7.13766 26.3704C8.59153 22.4404 10.56 18.7832 13.1826 15.495C15.9431 12.0335 19.3123 9.08683 23.1303 6.79494C27.2789 4.26281 31.8741 2.51961 36.6771 1.65602C39.7491 1.10221 42.8781 0.917417 45.9955 1.1057C50.0412 1.34392 54.0202 2.23063 57.7753 3.7308C61.1325 5.07994 64.3115 6.73396 67.1449 8.98558C67.6579 9.39413 68.1694 9.80421 68.6948 10.2051C69.0854 10.4994 69.4357 10.4231 69.7705 10.0756C70.513 9.31333 71.2709 8.55111 72.1962 7.62272C72.6023 11.2387 72.9821 14.6199 73.382 18.1734L63.521 16.245C63.7535 16.0072 63.9442 15.8029 64.141 15.6078C64.7037 15.0498 65.2849 14.5071 65.8305 13.9309C66.1544 13.5909 66.3079 13.2388 65.8166 12.8516C63.6218 11.1213 61.3216 9.55877 58.7704 8.36665C55.8812 7.01294 52.9053 5.90619 49.7263 5.49611C47.4587 5.20494 45.1709 4.93816 42.8878 4.90462C39.9118 4.86194 36.9684 5.33604 34.1087 6.16229C30.5414 7.17681 27.1584 8.73656 24.0835 10.7844C21.6997 12.3744 19.5064 14.1779 17.6217 16.2984C13.5654 20.8549 10.7909 26.0762 9.63156 32.0596C9.18052 34.386 8.86588 36.3662 8.72483 37.8526C8.1183 37.7908 7.50767 37.7776 6.89896 37.8129C6.24145 37.8569 5.58905 37.9569 4.9491 38.1117C5.01109 36.9669 4.99249 35.7412 5.16144 34.5399ZM7.34225 51.3195C3.89976 51.222 1.10981 48.6502 1.12686 45.0175C1.14081 41.8603 3.80521 38.8297 7.81655 38.9547C10.6654 39.0432 13.925 41.871 13.6491 45.1516C13.9126 48.3423 10.8498 51.4156 7.34225 51.3195Z" fill="url(#paint0_linear_852_20505)"/>
<path d="M86.2731 29.7683C85.4694 28.1351 84.0704 26.8591 82.3541 26.1938C80.6378 25.5284 78.7298 25.5225 77.0093 26.1771C75.2888 26.8318 73.8816 28.0991 73.0674 29.7272C72.2533 31.3554 72.0916 33.2252 72.6147 34.9651C73.3246 37.2625 74.887 38.7869 77.0957 39.7123C77.0337 50.7356 70.5098 63.7223 56.4345 69.5732C45.3615 74.1724 31.6055 72.4696 21.8376 64.2513C22.0081 64.0684 22.1708 63.8824 22.346 63.7071C23.0729 62.9876 23.8107 62.2772 24.5299 61.55C24.9639 61.1094 24.8972 60.7481 24.3516 60.614C23.0311 60.2908 21.7074 59.9737 20.3775 59.6993C18.0525 59.2115 15.7276 58.7679 13.4119 58.274C12.375 58.0529 12.1905 58.1215 12.2696 59.1597C12.4246 61.2299 12.6679 63.2924 12.8632 65.3596C13.0306 67.1295 13.1732 68.9024 13.353 70.6693C13.3809 70.9406 13.5607 71.3583 13.7514 71.4086C13.9746 71.4665 14.3388 71.2562 14.5496 71.0565C15.3664 70.2942 16.143 69.503 16.9412 68.7271C17.1861 68.4893 17.3876 68.3628 17.758 68.6585C18.9562 69.6159 20.176 70.5534 21.4408 71.4223C23.837 73.0687 26.4472 74.3325 29.1628 75.3859C32.8752 76.8559 36.8073 77.7185 40.8031 77.9394C43.7635 78.0918 46.7317 78.0156 49.6906 77.543C53.5544 76.9161 57.3081 75.7531 60.8396 74.0886C64.53 72.3644 67.8284 70.0458 70.8167 67.3216C72.9263 65.3977 74.7397 63.2056 76.3656 60.8701C78.6618 57.5593 80.413 53.9134 81.5549 50.0663C82.5361 46.7979 83.1576 43.47 83.1499 40.0522C83.1499 39.4729 83.3498 39.165 83.8226 38.8326C85.2613 37.856 86.2985 36.4066 86.7477 34.745C87.1969 33.0834 87.0286 31.3187 86.2731 29.7683ZM80.9536 48.3986C80.7319 49.2629 79.9027 51.67 78.6643 54.7677C77.6041 57.4187 76.0293 59.7984 74.2809 62.05C72.3477 64.5497 70.0987 66.797 67.5881 68.7378C65.0492 70.6836 62.2931 72.3387 59.3733 73.6709C56.7554 74.8455 54.0082 75.7182 51.1863 76.2716C48.2801 76.8692 45.329 77.2061 42.3685 77.0125C39.9397 76.8502 37.5233 76.5406 35.1333 76.0856C31.9819 75.4989 28.9433 74.4305 26.1279 72.9193C23.9579 71.7531 21.9166 70.3644 19.849 69.0305C19.1732 68.5945 18.5733 68.035 17.9735 67.4969C17.5209 67.0914 17.1443 67.1234 16.7335 67.535C15.9849 68.2972 15.2269 69.0366 14.4737 69.7866L14.2443 69.7165C13.9343 66.3002 13.6243 62.8854 13.3019 59.3091L23.2791 61.4357C22.4839 62.1598 21.8314 62.7848 21.1416 63.3702C20.3667 64.0303 20.3248 64.2955 21.1091 64.9648C24.1641 67.567 27.5663 69.6387 31.3932 70.8949C34.0142 71.7547 36.7204 72.4742 39.453 72.869C41.6819 73.1922 43.996 72.9468 46.2729 72.9407C48.4429 72.9407 50.5384 72.4224 52.62 71.8736C55.1054 71.2263 57.5058 70.2973 59.7732 69.1052C63.3452 67.2217 66.5672 64.7569 69.3024 61.8153C71.0132 59.9725 72.496 57.9369 73.7198 55.751C75.3954 52.7814 76.6772 49.6532 77.3359 46.3146C77.4909 45.5524 77.7932 43.5081 78.0629 41.2108C78.1218 40.7108 78.1667 40.2961 78.1931 40.0431C79.4807 40.3173 80.8188 40.2574 82.0757 39.8693C82.0455 42.746 81.6688 45.609 80.9536 48.3986ZM79.5989 39.1131C76.0494 39.0857 73.2936 36.4499 73.3091 32.9391C73.3277 29.2606 75.9673 26.7422 79.664 26.6889C83.0073 26.6371 85.9693 29.3628 85.946 32.8797C85.9228 36.4576 83.1669 39.1406 79.5989 39.1131Z" fill="url(#paint1_linear_852_20505)"/>
<path d="M62.6469 43.2652C64.0961 43.0305 65.5546 42.8597 67.0023 42.6173C67.2038 42.5823 67.503 42.2606 67.5061 42.067C67.5433 40.0639 67.5526 38.0592 67.5061 36.0561C67.4983 35.8061 67.117 35.4036 66.8504 35.3518C65.5392 35.0717 64.2113 34.8731 62.8747 34.7573C62.202 34.7085 62.1354 34.3457 61.9448 33.8959C61.3558 32.4584 60.759 31.0208 60.0848 29.6275C59.8926 29.2281 59.922 28.972 60.1499 28.6747C60.9729 27.6076 61.7882 26.5176 62.6391 25.4642C63.1196 24.8682 62.9011 24.4566 62.0378 23.8727C60.7817 23.0298 59.702 21.9575 58.8572 20.714C57.9505 19.371 57.3584 20.0463 56.3323 21.1424C55.8637 21.6253 55.2963 22.0051 54.6676 22.2568C54.1856 22.461 53.8926 23.0571 53.1564 22.7233C51.5568 21.9991 49.9015 21.3863 48.2848 20.7079C48.1901 20.6674 48.1052 20.6076 48.0358 20.5325C47.9663 20.4573 47.9138 20.3685 47.8818 20.2719C47.6974 19.0646 47.609 17.8404 47.3843 16.6407C47.1503 15.4028 47.2154 15.3647 45.9692 15.38C44.2162 15.4028 42.4616 15.3952 40.707 15.38C40.1599 15.38 39.8607 15.5324 39.7863 16.127C39.622 17.4593 39.4097 18.7856 39.1663 20.1073C39.1357 20.234 39.0785 20.3529 38.9984 20.4566C38.9184 20.5603 38.8172 20.6464 38.7014 20.7095C37.1131 21.3975 35.5115 22.055 33.8964 22.6821C33.7541 22.7316 33.6028 22.7513 33.4523 22.74C33.3018 22.7287 33.1553 22.6867 33.0222 22.6165C31.9373 21.8726 30.9112 21.0708 29.8588 20.2918C29.4821 20.0128 29.1086 19.7369 28.6544 20.1866C27.2362 21.5891 25.7932 22.9672 24.4106 24.4047C24.2339 24.5877 24.223 25.1532 24.3796 25.3758C25.1546 26.4825 26.0319 27.5207 26.8255 28.6153C26.9067 28.7409 26.9601 28.8821 26.982 29.0295C27.0039 29.1769 26.9939 29.3272 26.9526 29.4705C26.3171 31.0849 25.6351 32.6825 24.9376 34.2725C24.8922 34.3747 24.8252 34.4661 24.741 34.5408C24.6568 34.6155 24.5574 34.6716 24.4493 34.7054C23.0017 34.9402 21.5447 35.1277 20.0924 35.3381C19.7343 35.3884 19.5096 35.5286 19.5142 35.9661C19.5375 37.9967 19.5142 40.0258 19.5437 42.0548C19.5437 42.2545 19.7793 42.5914 19.9513 42.6234C21.2936 42.8673 22.6421 43.1112 23.9999 43.2332C24.6415 43.2896 24.9004 43.5091 25.1127 44.0838C25.6537 45.5504 26.3016 46.9803 26.8673 48.4362C26.9712 48.7029 27.0068 49.1222 26.8673 49.3325C26.0923 50.4652 25.2677 51.5689 24.4183 52.6513C24.0541 53.1086 24.1177 53.4013 24.6415 53.8327C26.0365 54.9837 27.2765 56.3054 28.5041 57.6438C28.9303 58.1103 29.293 58.1682 29.7751 57.7963C30.8275 56.9761 31.8954 56.1743 32.9913 55.412C33.1201 55.3376 33.2636 55.2909 33.4121 55.2751C33.5607 55.2594 33.711 55.2749 33.853 55.3206C35.4216 55.9303 36.953 56.6484 38.534 57.2246C38.9741 57.3847 39.1384 57.5295 39.1973 57.9563C39.3818 59.2872 39.6205 60.6104 39.8003 61.9413C39.884 62.5602 40.1645 62.6928 41.0496 62.5709C42.753 62.3279 44.4834 62.3305 46.1862 62.5785C46.8961 62.6867 47.1782 62.5297 47.2448 62.0281C47.3998 60.868 47.5548 59.7064 47.7098 58.5448C47.7997 57.8435 47.9454 57.345 48.8273 57.0798C50.2812 56.6407 51.6405 55.9014 53.0603 55.3389C53.3377 55.2291 53.7934 55.2215 54.0197 55.3754C55.1388 56.1453 56.2176 56.9761 57.2948 57.8069C57.7102 58.1286 58.0528 58.1438 58.4341 57.7658C59.8125 56.3948 61.1987 55.0319 62.5926 53.6772C62.9228 53.3555 62.9786 53.0933 62.6748 52.7031C61.7216 51.4835 60.8055 50.2228 59.9592 49.0932C60.7001 47.2395 61.3883 45.4863 62.1106 43.7469C62.1592 43.6333 62.2324 43.5313 62.3249 43.4481C62.4175 43.365 62.5274 43.3026 62.6469 43.2652ZM61.1868 43.0533C60.6428 44.4116 60.1638 45.7973 59.6275 47.1541C59.463 47.5991 59.2264 48.015 58.927 48.3858C58.5457 48.8279 58.7146 49.174 58.9828 49.5277C59.8011 50.6054 60.6536 51.6619 61.4441 52.758C61.5526 52.9104 61.4829 53.3327 61.3372 53.4836C60.2181 54.6407 59.0602 55.7611 57.8854 56.9228C56.6144 55.9989 55.3341 55.1209 54.1251 54.1574C53.7144 53.8312 53.4664 53.9714 53.1115 54.1315C51.6436 54.7885 50.2192 55.6422 48.6801 56.0081C47.1797 56.3602 46.7674 57.0859 46.7504 58.4472C46.738 59.3619 46.4977 60.2689 46.2931 61.1638C46.2457 61.2843 46.1686 61.3914 46.0688 61.4755C45.969 61.5595 45.8496 61.6179 45.7212 61.6455C44.0984 61.6851 42.4771 61.6684 40.8124 61.6684C40.5815 60.1866 40.2529 58.7475 40.1707 57.2947C40.1227 56.4548 39.5972 56.3145 39.0702 56.2276C37.1855 55.9044 35.5518 55.034 33.915 54.1391C33.7729 54.0746 33.6176 54.0427 33.4611 54.0458C33.3045 54.049 33.1507 54.0872 33.0114 54.1574C31.9109 54.9196 30.8585 55.7367 29.7859 56.531C29.3907 56.8252 29.0543 56.9365 28.5893 56.3298C27.8794 55.3771 27.0338 54.53 26.0784 53.8144C25.3514 53.2824 25.3266 53.0796 25.6955 52.6299C26.5558 51.5841 27.3803 50.5079 28.1569 49.4011C28.3119 49.1862 28.2902 48.7105 28.1569 48.4712C27.1474 46.7532 26.3779 44.9094 25.8691 42.9893C25.8025 42.7347 25.5173 42.3917 25.2848 42.3505C23.7658 42.0883 22.2344 41.8932 20.6643 41.6783V36.3427C22.2329 36.1049 23.7643 35.8854 25.2755 35.6216C25.4068 35.5873 25.5282 35.5234 25.6302 35.4351C25.7321 35.3467 25.8118 35.2363 25.8629 35.1125C26.3478 33.1555 27.1278 31.281 28.177 29.5513C28.3165 29.3211 28.2359 28.8195 28.0639 28.5726C27.2145 27.3423 26.3 26.1548 25.3793 24.9139C26.5697 23.7492 27.7508 22.6165 28.9024 21.4564C29.2419 21.1134 29.4465 21.304 29.7177 21.5083C30.7624 22.2964 31.7931 23.1059 32.8812 23.8315C33.1478 24.0099 33.7182 24.0571 33.9739 23.8956C35.6309 22.8482 37.4699 22.1103 39.3988 21.7186C40.304 21.5327 40.1599 20.9229 40.2482 20.461C40.4947 19.1652 40.614 17.845 40.7892 16.4974H46.2358C46.4714 18.0219 46.6822 19.528 46.955 21.0189C47 21.1547 47.0753 21.279 47.1753 21.3826C47.2753 21.4862 47.3975 21.5667 47.5331 21.618C49.4535 22.2278 51.3879 22.7964 53.1022 23.9047C53.3501 24.0648 53.9221 23.9992 54.1871 23.8178C55.2551 23.1105 56.2641 22.3132 57.2979 21.5525C57.4731 21.4229 57.6591 21.3086 57.7738 21.2308L61.627 25.0221C60.8226 26.0694 60.0119 27.1807 59.1377 28.2418C58.9508 28.4479 58.8277 28.7023 58.7828 28.975C58.7542 29.3066 58.8346 29.6385 59.0122 29.9217C59.3702 30.5467 60.1437 32.3913 61.2008 35.0301C61.2553 35.1679 61.3405 35.2919 61.4503 35.3929C61.56 35.494 61.6913 35.5695 61.8347 35.614C62.0083 35.6674 62.2113 35.7207 62.4376 35.7664C64.031 36.0835 64.9269 36.1034 65.9824 36.239C66.1204 36.2562 66.2465 36.3244 66.3352 36.4297C66.4238 36.535 66.4684 36.6696 66.4598 36.8061C66.4428 37.0699 66.4288 37.3397 66.4366 37.6095C66.4707 38.6156 66.5559 39.6203 66.5792 40.6249C66.6024 41.5548 66.404 41.7514 65.4942 41.8627C64.262 42.0152 63.0235 42.1356 61.8022 42.3505C61.565 42.4009 61.2984 42.7743 61.1868 43.0533Z" fill="url(#paint2_linear_852_20505)"/>
<path d="M7.41666 42.0278C5.59234 42.0582 4.36321 43.2473 4.22526 45.1209C4.11212 46.6728 5.75199 48.2704 7.42596 48.2628C9.17433 48.2628 10.6375 46.7002 10.56 45.0614C10.6468 43.5034 9.18363 41.9988 7.41666 42.0278ZM7.48486 47.1895C6.15188 47.1453 5.34124 46.2612 5.31489 45.127C5.29629 44.1635 6.20613 43.0842 7.34226 43.0903C8.54039 43.0903 9.46107 43.9333 9.46262 45.0645C9.46417 46.1956 8.53574 47.2246 7.48486 47.1895Z" fill="url(#paint3_linear_852_20505)"/>
<path d="M79.6128 29.8277C77.9078 29.7956 76.485 31.2881 76.5129 32.9238C76.5361 34.4696 77.8009 35.9727 79.5958 35.9727C81.3147 35.9727 82.9204 34.5458 82.6957 32.8766C82.8507 31.0792 81.2263 29.8566 79.6128 29.8277ZM79.5709 35.0108C78.4147 34.9269 77.5467 34.0168 77.5916 32.9086C77.5064 31.8735 78.379 30.8643 79.6841 30.8246C80.7691 30.7926 81.7626 31.811 81.7642 32.8918C81.7673 34.0214 80.7024 35.0885 79.5709 35.0062V35.0108Z" fill="url(#paint4_linear_852_20505)"/>
<path d="M54.1483 38.5505C53.6725 38.5384 53.5857 38.9454 53.5857 39.3677C53.5857 41.9501 52.4914 44.1377 50.7306 45.9228C48.8056 47.8771 46.4 48.9793 43.5326 48.8878C40.397 48.8436 37.7884 47.7079 35.7827 45.2871C33.777 42.8663 33.0083 40.0582 33.6639 37.023C34.6776 32.3323 38.6238 29.2194 43.4287 29.1066C45.3937 29.056 47.3271 29.5992 48.9683 30.663C49.2132 30.8155 49.8239 30.8414 49.9448 30.6859C50.23 30.317 49.9138 30.0197 49.5294 29.8231C48.9947 29.5502 48.4971 29.198 47.9469 28.9633C45.1988 27.7895 42.3887 27.6873 39.6049 28.7621C37.2598 29.6676 35.3317 31.1387 34.025 33.3202C32.379 36.0779 31.9388 38.9911 32.8409 42.0781C33.511 44.4102 34.9753 46.445 36.9886 47.8421C38.8129 49.1439 40.8635 49.8864 43.1234 49.9382C45.8281 50.0007 48.2383 49.2415 50.3912 47.5677C53.0897 45.4624 54.4211 42.7077 54.6769 39.3905C54.7141 38.9789 54.6242 38.5688 54.1483 38.5505Z" fill="url(#paint5_linear_852_20505)"/>
<path d="M43.2319 41.9549C42.7979 42.3954 42.5406 42.3726 42.1174 41.9457C40.5551 40.3633 38.957 38.813 37.3668 37.258C37.111 37.008 36.8754 36.5827 36.4368 37.0477C36.0322 37.4776 36.3112 37.7733 36.6305 38.0645C37.204 38.5889 37.7946 39.0981 38.3479 39.6423C39.6204 40.8893 40.8759 42.1546 42.1376 43.4122C42.4801 43.7522 42.77 43.7842 43.1544 43.4031C46.7327 39.8593 50.3199 36.323 53.9158 32.7944C54.0714 32.6075 54.2109 32.4081 54.3328 32.1984C54.1778 32.0261 54.0724 31.831 53.9282 31.7898C53.8414 31.7734 53.752 31.7762 53.6665 31.7981C53.5809 31.82 53.5014 31.8604 53.4338 31.9164C51.8662 33.4225 50.3096 34.9378 48.7637 36.4623C46.9115 38.2855 45.0562 40.1042 43.2319 41.9549Z" fill="url(#paint6_linear_852_20505)"/>
</g>
<defs>
<linearGradient id="paint0_linear_852_20505" x1="37.2575" y1="0.00195312" x2="37.2575" y2="52.3772" gradientUnits="userSpaceOnUse">
<stop stop-color="#6690FF"/>
<stop offset="1" stop-color="#295DE7"/>
</linearGradient>
<linearGradient id="paint1_linear_852_20505" x1="49.6238" y1="25.6904" x2="49.6238" y2="78.0103" gradientUnits="userSpaceOnUse">
<stop stop-color="#6690FF"/>
<stop offset="1" stop-color="#295DE7"/>
</linearGradient>
<linearGradient id="paint2_linear_852_20505" x1="43.5259" y1="15.3779" x2="43.5259" y2="62.6119" gradientUnits="userSpaceOnUse">
<stop stop-color="#6690FF"/>
<stop offset="1" stop-color="#295DE7"/>
</linearGradient>
<linearGradient id="paint3_linear_852_20505" x1="7.3917" y1="42.0273" x2="7.3917" y2="48.2628" gradientUnits="userSpaceOnUse">
<stop stop-color="#6690FF"/>
<stop offset="1" stop-color="#295DE7"/>
</linearGradient>
<linearGradient id="paint4_linear_852_20505" x1="79.6146" y1="29.8271" x2="79.6146" y2="35.9727" gradientUnits="userSpaceOnUse">
<stop stop-color="#6690FF"/>
<stop offset="1" stop-color="#295DE7"/>
</linearGradient>
<linearGradient id="paint5_linear_852_20505" x1="43.5326" y1="28.0156" x2="43.5326" y2="49.9417" gradientUnits="userSpaceOnUse">
<stop stop-color="#6690FF"/>
<stop offset="1" stop-color="#295DE7"/>
</linearGradient>
<linearGradient id="paint6_linear_852_20505" x1="45.2842" y1="31.7793" x2="45.2842" y2="43.6781" gradientUnits="userSpaceOnUse">
<stop stop-color="#6690FF"/>
<stop offset="1" stop-color="#295DE7"/>
</linearGradient>
<clipPath id="clip0_852_20505">
<rect width="87" height="78" fill="white"/>
</clipPath>
</defs>
</svg>
