<?xml version="1.0" encoding="utf-8"?>
<!-- Generator: Adobe Illustrator 26.1.0, SVG Export Plug-In . SVG Version: 6.00 Build 0)  -->
<svg version="1.1" id="Layer_1" xmlns="http://www.w3.org/2000/svg" xmlns:xlink="http://www.w3.org/1999/xlink" x="0px" y="0px"
	 viewBox="0 0 709.33 654.67" style="enable-background:new 0 0 709.33 654.67;" xml:space="preserve">
<style type="text/css">
	.st0{fill-rule:evenodd;clip-rule:evenodd;fill:#0A5796;}
	.st1{fill-rule:evenodd;clip-rule:evenodd;fill:#0472CF;}
	.st2{fill-rule:evenodd;clip-rule:evenodd;fill:#1467DB;}
	.st3{fill-rule:evenodd;clip-rule:evenodd;fill:#4298FF;}
	.st4{fill:#2B333F;}
	.st5{fill:#2A313D;}
	.st6{fill:#373F51;}
	.st7{fill:#101316;}
	.st8{fill:#A3E5FF;}
	.st9{fill:none;stroke:#444444;stroke-width:0.75;stroke-miterlimit:10;}
	.st10{fill:none;stroke:#444444;stroke-width:0.75;stroke-miterlimit:10;stroke-dasharray:7.9144,7.9144;}
	.st11{fill:none;stroke:#444444;stroke-width:0.75;stroke-miterlimit:10;stroke-dasharray:6.8217,6.8217;}
	.st12{fill:none;stroke:#444444;stroke-width:0.75;stroke-miterlimit:10;stroke-dasharray:7.6517,7.6517;}
	.st13{fill:none;stroke:#444444;stroke-width:0.75;stroke-miterlimit:10;stroke-dasharray:8.3757,8.3757;}
	.st14{fill:none;stroke:#444444;stroke-width:0.75;stroke-miterlimit:10;stroke-dasharray:8.337,8.337;}
	.st15{fill:none;stroke:#444444;stroke-width:0.75;stroke-miterlimit:10;stroke-dasharray:7.3716,7.3716;}
	.st16{fill:#2E8DFF;}
	.st17{fill:#1769BC;}
	.st18{fill:#0F5996;}
	.st19{fill:#64B0ED;}
	.st20{fill:#FFFFFF;}
	.st21{fill:#8ADEFF;}
	.st22{fill:#F7931A;}
	.st23{fill:#D37611;}
	.st24{fill:#B76813;}
	.st25{fill:#FFC78A;}
	.st26{fill:#292F3D;}
	.st27{fill:#8C4C00;}
	.st28{fill:#FF9100;}
	.st29{fill:#00B7FF;}
	.st30{fill:#F7F7F7;}
</style>
<g>
	<path class="st0" d="M346.81,136.55c-0.01-0.1-0.02-0.21-0.04-0.31c-0.09-0.65-0.22-1.28-0.4-1.89c-0.33-1.12-0.83-2.18-1.49-3.17
		c-0.47-0.72-1.04-1.41-1.7-2.07l-4.98-4.98c-2.47-2.47-5.46-3.7-8.94-3.7h-27.24l-9.12-9.13c-2.47-2.47-5.46-3.71-8.95-3.71h-32.19
		c-3.49,0-6.49,1.24-8.95,3.71l-7.68,7.69h-27.99c-3.48,0-6.49,1.23-8.94,3.7l-0.17,0.17l-5.23,5.23c-4.92,4.92-4.92,12.97,0,17.89
		l5.81,5.81c2.47,2.47,5.46,3.71,8.94,3.71h40.7l12.36,7.13l2.47,1.42l5.65,3.26l3.95,2.28v19.17c0,0.65,0.04,1.26,0.13,1.87
		c0.36,2.69,1.56,5.06,3.58,7.08l1.89,1.9l0.6,0.6c0.75,0.75,1.57,1.38,2.44,1.9c4.87,2.91,11.28,2.28,15.46-1.9l19.19-19.2
		l3.92-3.91l2.56-2.56l20.76-20.77c0.17-0.17,0.34-0.35,0.5-0.53c1.46-1.61,2.43-3.44,2.88-5.48c0.22-0.93,0.32-1.91,0.32-2.93
		v-6.75C346.89,137.56,346.87,137.05,346.81,136.55z M254.11,177.86c0.1,1.48,0.16,2.97,0.16,4.48c0,0.72-0.01,1.43-0.04,2.14
		c-0.09,2.8-0.39,5.54-0.86,8.22c-0.25,1.39-0.54,2.78-0.88,4.14c-4.42,17.67-16.72,32.2-32.95,39.65
		c-2.32,3.83-4.5,7.76-6.51,11.76c-0.01,0.01-0.01,0.03-0.02,0.04c-0.42,0.84-0.36,1.77,0.13,2.57c0.49,0.82,1.32,1.28,2.28,1.28
		H222c8.41-5.69,17.68-10.8,27.61-15.31l5.47-5.47c0.72-0.72,1.35-1.5,1.86-2.31c1.23-1.95,1.85-4.17,1.85-6.64v-34.7
		c0-1.61-0.28-3.14-0.82-4.54C257.21,181.09,255.89,179.27,254.11,177.86z M415.49,141.68c-0.46-1.1-1.04-2.11-1.75-3.01
		c-1.3-1.69-2.99-2.99-4.93-3.81c-1.34-0.56-2.79-0.9-4.32-0.98c-0.23-0.01-0.46-0.02-0.69-0.02h-18.83c-0.09,0-0.2,0-0.29,0.01
		c-1.18,0.02-2.3,0.19-3.37,0.5c-0.09,0.03-0.18,0.05-0.27,0.09c-1.86,0.59-3.54,1.63-5.02,3.11l-0.83,0.83
		c-1.89,1.89-3.08,4.18-3.54,6.62c-1.27-0.42-2.63-0.63-4.05-0.63h-1.14c-3.48,0-6.49,1.23-8.94,3.7l-0.04,0.04
		c-1.58,1.57-2.65,3.37-3.21,5.37c-0.08,0.26-0.14,0.51-0.2,0.78c-0.2,0.89-0.29,1.83-0.29,2.8v1.14c0,0.26,0.01,0.52,0.02,0.78
		c0.05,0.7,0.14,1.4,0.28,2.07c0.19,0.85,0.46,1.68,0.83,2.46c0.7,1.57,1.75,2.98,3.05,4.13c0.64,0.58,1.36,1.09,2.12,1.53
		c0.47,0.28,0.98,0.52,1.5,0.74c1.2,0.5,2.43,0.81,3.64,0.94c0.29,0.02,0.59,0.04,0.87,0.05c2.31,0.08,4.59-0.49,6.61-1.68
		c0.43-0.25,0.84-0.52,1.25-0.83c0.28-0.21,0.57-0.44,0.84-0.68c0.19-0.17,0.38-0.35,0.57-0.54l1.18-1.18
		c0.59-0.59,1.11-1.21,1.56-1.87c0.86-1.25,1.47-2.62,1.82-4.04c0.03-0.07,0.04-0.14,0.05-0.21c0.05-0.17,0.09-0.33,0.11-0.5
		c0.1,0.03,0.2,0.07,0.3,0.09c1.18,0.36,2.44,0.54,3.74,0.54h18.82c2.31,0,4.42-0.55,6.29-1.64c0.92-0.53,1.77-1.19,2.58-1.97
		c0.03-0.03,0.06-0.06,0.09-0.09l0.83-0.84c1.25-1.24,2.2-2.67,2.83-4.2c0.19-0.46,0.35-0.94,0.48-1.42
		C416.78,147.22,416.61,144.38,415.49,141.68z M269.07,337.92l-17.37-17.37c-0.75-0.75-1.55-1.38-2.39-1.91
		c-1.93-1.19-4.14-1.8-6.56-1.8h-21.66l-4.71-4.71l-12.51-12.52v-17.04l16.44-16.44l2.46-2.45l8.98-8.99l23.34-23.34
		c0.72-0.72,1.35-1.5,1.86-2.31c1.23-1.95,1.85-4.17,1.85-6.64v-34.7c0-1.61-0.28-3.14-0.82-4.54c-0.77-2.07-2.09-3.88-3.87-5.29
		c-0.51-0.41-1.05-0.78-1.64-1.12l-0.52-0.3l-3.44-1.98l-8.22-4.75c-2.01-1.16-4-1.69-6.33-1.69h-53.51l-27.82-27.83l-9.96-9.96
		l-2.45-2.45c-2.47-2.47-5.46-3.71-8.95-3.71h-26.99c-2.73,0-5.08,0.75-7.31,2.32l-14.37,10.17c-3.46,2.45-5.35,6.1-5.35,10.33
		v16.38c0,3.46,1.22,6.44,3.66,8.9c0.02,0.02,0.03,0.03,0.05,0.05l2.4,2.4l4.99,4.99c2.47,2.47,5.46,3.71,8.95,3.71h10.32
		l14.67,14.67v82.81c0,3.49,1.24,6.49,3.71,8.95l10.13,10.13c2.47,2.47,5.46,3.71,8.95,3.71h20.21l14.67,14.67v35.58
		c0,3.48,1.24,6.49,3.71,8.94l1.56,1.56l23.94,23.94l0.28,0.29v47.75c6.58,9.48,14.07,18.44,22.42,26.72
		c3.42-2.37,5.37-6.08,5.37-10.35v-8.39l7.47-12.95l5.37-9.31c0.31-0.54,0.58-1.08,0.81-1.62c0.33-0.82,0.57-1.63,0.71-2.49
		c0.09-0.52,0.14-1.05,0.16-1.6c0.02-0.2,0.02-0.4,0.02-0.61v-27.55l1.92-1.92l1.23-1.23l4.56-4.56l0.06-0.06l9.53-9.53
		c2.47-2.47,3.71-5.46,3.71-8.94v-15.03C272.78,343.39,271.54,340.39,269.07,337.92z M628.69,342.81l-10.51-10.51
		c-2.15-2.14-4.7-3.36-7.64-3.64c-0.43-0.04-0.86-0.06-1.31-0.06H550.1c-1.78,0-3.44,0.32-4.97,0.98c-1.44,0.62-2.77,1.53-3.97,2.72
		l-3.44,3.44c-1.13,1.14-2.01,2.4-2.63,3.77c-0.71,1.58-1.07,3.31-1.07,5.19v6.14c0,2.12,0.45,3.96,1.4,5.8
		c0.09,0.17,0.18,0.35,0.28,0.52l1.26,2.18l4.58,7.94l0.2,0.34c0.64,1.11,1.41,2.1,2.29,2.92c2.3,2.2,5.31,3.4,8.67,3.4h8.64
		l10.51,18.21l2,3.47l1.67,2.89c2.32,4.02,6.32,6.33,10.96,6.33h4.42c3.48,0,6.48-1.24,8.94-3.71l20.32-20.32l2.46-2.46l6.07-6.06
		c2.46-2.47,3.7-5.46,3.7-8.95v-11.6C632.39,348.28,631.15,345.28,628.69,342.81z M633.15,122.37l-2.2-2.21
		c-2.47-2.47-5.46-3.71-8.94-3.71h-25.4c-3.49,0-6.49,1.24-8.95,3.71l-10.37,10.37h-37.25c-4.65,0-8.64,2.3-10.95,6.33l-4.84,8.37
		h-57.61c-3.48,0-6.48,1.24-8.94,3.71l-15.52,15.52h-48.01c-0.65,0-1.3,0.05-1.93,0.13c-0.09,0.01-0.16,0.03-0.25,0.04
		c0,0-0.01,0-0.01,0.01c-1.96,0.31-3.76,1.08-5.35,2.3c-0.5,0.37-1,0.8-1.46,1.27l-8.43,8.53l-2.61,2.64
		c-0.3,0.3-0.58,0.62-0.84,0.94c0,0.01-0.01,0.01-0.01,0.01c-0.88,1.06-1.56,2.22-2.02,3.46c-0.5,1.33-0.76,2.75-0.78,4.27
		c-0.01,0.08-0.01,0.14-0.01,0.22v5.19l-14.28,14.28l-5.92,5.91l-2.56,2.56c-2.46,2.47-3.7,5.46-3.7,8.95v19.68l-29.03,29.04
		c-2.47,2.46-3.71,5.45-3.71,8.94v33.01c0,3.23,1.07,6.05,3.21,8.41c0.16,0.18,0.33,0.36,0.5,0.53l0.94,0.94l0.52,0.52l6.77,6.77
		l0.7,0.7l0.73,0.73c1.14,1.14,2.39,2.02,3.76,2.63c1.58,0.72,3.32,1.08,5.19,1.08h9.62l16.35,16.35l2,2v30.97
		c0,3.48,1.24,6.48,3.71,8.94l11.69,11.69c2.46,2.47,5.45,3.71,8.94,3.71h9.79c1.79-0.01,3.49-0.37,5.02-1.04
		c1.26-0.54,2.42-1.29,3.43-2.25c0.93-0.85,1.74-1.87,2.41-3.04l3.72-6.44c1.17-2.01,1.7-4,1.7-6.33v-7.83l10.25-10.24
		c2.47-2.47,3.71-5.46,3.71-8.95v-29.86l8.56-8.56c2.46-2.47,3.7-5.46,3.7-8.94v-9.22l18.79-18.79h14.24l6.54,3.77c0,0,0,0,0,0.01
		l1.52,0.86l1.78,1.03l4.12,2.38l1.66,0.96l6.23,3.59c2.01,1.17,4,1.7,6.33,1.7h39.78c3.49,0,6.49-1.24,8.94-3.71l9.49-9.49
		l11.23-11.23c2.47-2.46,3.71-5.45,3.71-8.94v-13.46l8.19-14.18l2.11-3.65l8.13-14.08h12.71c3.48,0,6.48-1.24,8.94-3.71l3.49-3.49
		c2.47-2.47,3.71-5.46,3.71-8.94V190.1c0-3.49-1.24-6.49-3.71-8.95l-5.25-5.25v-4.34l22.29-22.29c2.47-2.47,3.71-5.46,3.71-8.95
		v-8.98C636.86,127.83,635.62,124.83,633.15,122.37z"/>
	<g>
		<path class="st1" d="M444.88,456.14c-0.48-3.02-1.61-5.88-3.3-8.42v9.89c0.06,0.57,0.09,1.15,0.09,1.74
			c0.01,0.08,0.01,0.15,0.01,0.23c0,0.65-0.04,1.31-0.1,1.96v9.88c2.31-3.48,3.58-7.59,3.58-11.85v-0.08
			C445.16,458.36,445.06,457.24,444.88,456.14z M701.32,367.93l-14.16-14.16c-1.28-1.28-1.42-3.27-0.34-4.72
			c2.74-3.71,4.21-8.15,4.21-12.76c0-5.71-2.25-11.13-6.29-15.16l-0.02-0.03c-3.03-3.03-6.88-5.07-11.08-5.9
			c-1.72-0.33-2.93-1.8-2.93-3.56l-0.01-40.27c0-0.46-0.17-0.9-0.5-1.23l-16.74-16.73c-0.71-0.71-1.06-1.56-1.06-2.57l-0.03-51.94
			c0-0.39-0.12-0.76-0.36-1.06c-9.89-12.49-21.03-23.98-33.21-34.24c-2.12-1.79-4.27-3.55-6.44-5.25
			c-13.91-10.92-29.04-20.26-45.03-27.82c-0.75-0.36-1.5-0.71-2.25-1.05c-0.1-0.05-0.19-0.09-0.28-0.14
			c-0.27-0.15-0.55-0.23-0.85-0.23c-0.84,0-1.56,0.61-1.7,1.42c-0.03,0.1-0.04,0.21-0.04,0.32v37.82c0,0.46,0.18,0.9,0.5,1.22
			l20.56,20.56c0.7,0.7,1.06,1.57,1.06,2.56v4.03c0,1.01-0.36,1.87-1.08,2.57c-0.71,0.71-1.57,1.06-2.58,1.05h-0.43
			c-5.71,0-11.13,2.25-15.16,6.29l-0.02,0.02c-0.26,0.25-0.5,0.51-0.74,0.77c-3.58,3.94-5.55,9.04-5.55,14.39
			c0,4.99,1.73,9.76,4.88,13.61c0.08,0.09,0.15,0.2,0.24,0.29c1.23,1.44,1.15,3.58-0.19,4.91l-2.92,2.92l-0.8,0.8
			c-0.71,0.7-1.57,1.06-2.57,1.06h-52.19c-0.41,0-0.8,0.14-1.1,0.42c-0.05,0.02-0.09,0.06-0.12,0.09l-0.47,0.47l-2.57,2.57
			l-16.72,16.72l-2.11,2.11l-1.02,1.02l-2.19,2.19l-2.41,2.41l-0.8,0.8c-1.21,1.21-3.05,1.41-4.51,0.5
			c-3.43-2.18-7.37-3.32-11.43-3.32c-5.71,0-11.13,2.26-15.17,6.29l-0.02,0.02c-1.16,1.16-2.17,2.44-3.03,3.8v22.71l0.06,0.09
			c0.14,0.23,0.26,0.46,0.33,0.69c0.42,1.09,0.27,2.3-0.39,3.27v5l1.94-1.94c1.23-1.23,3.1-1.42,4.55-0.47
			c3.5,2.29,7.53,3.49,11.71,3.49c5.7,0,11.12-2.26,15.16-6.29l0.02-0.02c2.13-2.13,3.77-4.66,4.84-7.42
			c0.62-1.58,1.04-3.24,1.26-4.95c0.12-0.92,0.19-1.86,0.19-2.8c0-4.17-1.2-8.21-3.49-11.7c-0.04-0.06-0.07-0.1-0.09-0.16
			c-0.5-0.84-0.62-1.81-0.39-2.71c0.16-0.62,0.48-1.2,0.96-1.68l4.87-4.87l4.5-4.5l17.3-17.3c0.5-0.5,1.1-0.83,1.76-0.98
			c0.26-0.06,0.52-0.09,0.8-0.09h52.2c0.46,0,0.89-0.18,1.22-0.51l6.33-6.32c1.1-1.1,2.67-1.38,4.09-0.73
			c2.81,1.3,5.85,1.96,8.95,1.96c0.16,0,0.32,0,0.48-0.01c5.53-0.12,10.76-2.36,14.67-6.28l0.02-0.03
			c3.15-3.14,5.21-7.11,5.97-11.42c0.22-1.22,0.33-2.48,0.33-3.74c0-5.71-2.26-11.13-6.3-15.16l-0.02-0.02
			c-1.63-1.64-3.53-3-5.6-4.04c-1.26-0.63-2-1.83-2-3.23v-8.89c0-0.47-0.18-0.9-0.51-1.23l-20.55-20.55
			c-0.7-0.7-1.06-1.56-1.06-2.56v-27.1c0-1.29,0.63-2.41,1.73-3.08c1.1-0.68,2.37-0.74,3.53-0.15
			c13.89,6.98,27.05,15.36,39.28,24.95c2.07,1.62,4.12,3.28,6.13,4.99c11.61,9.74,22.27,20.6,31.77,32.41
			c0.54,0.67,0.8,1.41,0.8,2.28v52.32c0,0.46,0.18,0.9,0.51,1.23l16.74,16.74c0.71,0.7,1.06,1.56,1.06,2.56v38.32
			c0,1.69-1.12,3.11-2.76,3.52c-3.81,0.93-7.29,2.9-10.07,5.67l-0.02,0.03c-4.03,4.03-6.29,9.45-6.29,15.16
			c0,5.71,2.26,11.13,6.29,15.16l0.02,0.02c4.04,4.04,9.46,6.3,15.17,6.3c3.61,0,7.15-0.91,10.32-2.66c1.43-0.8,3.16-0.55,4.32,0.61
			l12.85,12.86c0.82,0.81,1.18,1.84,1.04,2.98c-4.36,38.08-18.05,74.37-39.87,105.87c-20.66,29.8-48.04,54.51-79.83,71.96
			c-1.17,0.64-2.47,0.61-3.59-0.06c-1.14-0.67-1.78-1.8-1.78-3.12v-44.65c0-1,0.36-1.86,1.06-2.56l19.34-19.33
			c0.71-0.71,1.56-1.06,2.56-1.06h28.7c0.51,0,0.98-0.23,1.32-0.62c0.06-0.07,0.11-0.12,0.18-0.19l18.88-18.9
			c0.34-0.33,0.5-0.78,0.51-1.21v-16.65c0-0.46-0.18-0.9-0.51-1.22l-13.69-13.7l-2.97-2.97c-0.33-0.32-0.76-0.5-1.23-0.5h-25.18
			c-0.46,0-0.9,0.18-1.23,0.5l-15.69,15.7c-0.7,0.7-1.56,1.06-2.56,1.06h-4.11c-1.99,0-3.62-1.63-3.62-3.62
			c0-5.44-2.05-10.61-5.74-14.59c-0.17-0.2-0.36-0.39-0.55-0.58l-0.03-0.02c-4.03-4.03-9.45-6.29-15.16-6.29
			c-1.01,0-2.02,0.08-3.01,0.22c-2.45,0.34-4.8,1.11-6.96,2.25c-1.9,1-3.65,2.3-5.21,3.84c-0.81,0.81-1.92,1.15-2.97,1.02
			c-0.44-0.05-0.86-0.17-1.26-0.39c-0.32-0.15-0.62-0.37-0.89-0.65l-33.52-33.52c-0.71-0.7-1.06-1.56-1.06-2.56v-19.96
			c0-0.46-0.18-0.9-0.51-1.22l-16.48-16.48l-1.25-1.25l-2.63-2.63c-0.32-0.33-0.76-0.51-1.22-0.51h-15.3
			c-0.39,0-0.76,0.13-1.06,0.36c-0.1,0.09-0.2,0.17-0.28,0.28c-0.06,0.08-0.1,0.12-0.16,0.2l-1.38,1.44l-5.34,5.59l-6.95,7.28
			l-4.27,4.47v5l1.05-1.1l4.87-5.1l8.64-9.05l4.54-4.76c0.1-0.11,0.22-0.22,0.34-0.31c0.65-0.54,1.41-0.82,2.28-0.82h10.8
			c1,0,1.86,0.36,2.56,1.06l3.66,3.66l4.69,4.7l8.86,8.86c0.71,0.7,1.06,1.56,1.06,2.56l0.01,19.96c0,0.46,0.18,0.89,0.5,1.22
			l14.22,14.22l2.28,2.29l20.29,20.29c0.25,0.24,0.45,0.5,0.61,0.79c0.52,0.9,0.62,1.97,0.25,3c-0.71,1.97-1.12,4.03-1.23,6.12
			c-0.02,0.37-0.03,0.75-0.03,1.12c0,5.7,2.26,11.13,6.3,15.16l0.02,0.02c4.03,4.03,9.45,6.29,15.16,6.29s11.13-2.26,15.16-6.29
			l0.03-0.02c1.74-1.75,3.17-3.77,4.22-5.99c0.62-1.29,1.84-2.07,3.27-2.07h8.74c0.47,0,0.9-0.18,1.23-0.5l15.69-15.7
			c0.7-0.71,1.57-1.06,2.56-1.06h20.74c1.01,0,1.86,0.35,2.57,1.06l13.52,13.52c0.7,0.7,1.06,1.57,1.06,2.56v12.24
			c0,1-0.36,1.85-1.06,2.56l-16,16c-0.7,0.71-1.56,1.06-2.56,1.06l-28.71,0.01c-0.47,0-0.9,0.17-1.23,0.5l-22.48,22.48
			c-0.33,0.33-0.51,0.77-0.51,1.22v55.3c0.01,0.14,0.02,0.27,0.02,0.42c0,0.27,0.07,0.53,0.18,0.77c0.43,0.84,1.46,1.19,2.3,0.77
			c35.64-17.83,66.33-44.47,89.01-77.22c22.58-32.6,36.56-70.22,40.71-109.66c0.01-0.09,0.02-0.16,0.04-0.24
			C701.9,368.9,701.73,368.33,701.32,367.93z M477.78,293.18c0,0.29-0.01,0.59-0.02,0.89c0,0,0,0,0,0.01
			c-0.22,4.46-2.06,8.65-5.24,11.83l-0.02,0.02c-3.38,3.39-7.95,5.25-12.72,5.25c-4.78,0-9.34-1.87-12.73-5.25l-0.02-0.02
			c-0.97-0.97-1.81-2.03-2.51-3.16c-1.78-2.84-2.74-6.15-2.74-9.57c0-4.78,1.87-9.33,5.25-12.72l0.02-0.02
			c3.39-3.39,7.95-5.25,12.73-5.25c4.78,0,9.34,1.87,12.72,5.25l0.02,0.02C475.91,283.85,477.78,288.41,477.78,293.18z
			 M592.98,209.39l0.02,0.03c3.38,3.38,5.25,7.94,5.25,12.72c0,1.27-0.13,2.52-0.39,3.74c-0.71,3.38-2.37,6.51-4.86,8.99l-0.02,0.02
			c-2.77,2.77-6.32,4.51-10.14,5.06c-0.85,0.11-1.72,0.18-2.59,0.18c-4.78,0-9.34-1.86-12.73-5.24l-0.02-0.02
			c-1.1-1.1-2.04-2.32-2.8-3.65c-1.59-2.73-2.45-5.85-2.45-9.08c0-3.53,1.01-6.93,2.91-9.83c0.66-1.03,1.44-2,2.33-2.89l0.02-0.03
			c3.39-3.39,7.95-5.25,12.73-5.25S589.6,206.01,592.98,209.39z M682.31,349.01l-0.03,0.03c-3.38,3.38-7.94,5.25-12.72,5.25
			c-4.79,0-9.34-1.87-12.73-5.25l-0.02-0.03c-3.39-3.38-5.25-7.94-5.25-12.72s1.87-9.34,5.25-12.73l0.02-0.02
			c3.39-3.39,7.94-5.25,12.73-5.25c4.78,0,9.34,1.87,12.72,5.25l0.03,0.02c3.38,3.39,5.25,7.95,5.25,12.73
			S685.69,345.64,682.31,349.01z M566.05,449l-0.02,0.02c-3.39,3.39-7.95,5.25-12.73,5.25s-9.34-1.87-12.72-5.25l-0.03-0.02
			c-3.38-3.38-5.25-7.95-5.25-12.72c0-2.17,0.38-4.29,1.12-6.28c0.88-2.4,2.28-4.6,4.13-6.45l0.03-0.02
			c3.25-3.26,7.61-5.11,12.2-5.24c0.17-0.01,0.35-0.01,0.52-0.01c3.82,0,7.51,1.2,10.57,3.41c0.77,0.55,1.49,1.17,2.16,1.84
			l0.02,0.02c3.38,3.39,5.25,7.95,5.25,12.73S569.42,445.62,566.05,449z M253.69,386.24l-11.04,0.01h-7.42c-0.1,0-0.21,0-0.31,0.02
			c-0.93,0.18-1.56,1.06-1.38,2c0.06,0.29,0.11,0.6,0.17,0.89c0.84,4.5,1.83,8.98,2.94,13.43c0.63,2.49,1.3,4.96,2.01,7.42
			c0.48,1.69,0.99,3.36,1.51,5.03c0.11,0.39,0.24,0.78,0.36,1.17c0.03,0.11,0.06,0.21,0.09,0.32c0.17,0.79,0.88,1.37,1.7,1.37h8.84
			c0.15,0,0.29,0.01,0.44,0.03c0.82,0.09,1.53,0.43,2.13,1.03l14.03,14.03v-4.91l-13.15-13.15c-0.33-0.33-0.77-0.51-1.23-0.51h-7.12
			c-1.51,0-2.81-0.87-3.36-2.24c-0.05-0.11-0.09-0.23-0.12-0.35c-1-3.33-1.91-6.69-2.76-10.06c-0.64-2.54-1.23-5.1-1.79-7.66
			c-0.2-0.92-0.06-1.81,0.41-2.59c0.09-0.15,0.19-0.3,0.31-0.46c0.71-0.88,1.69-1.35,2.83-1.35h25.99v-3.46H253.69z"/>
		<path class="st1" d="M267.75,447.73c-2.32,3.48-3.58,7.58-3.58,11.85c0,4.26,1.25,8.37,3.58,11.85v-9.9
			c-0.08-0.64-0.1-1.29-0.1-1.94s0.03-1.31,0.1-1.95V447.73z M264.73,278.03l-0.03-0.02c-1.66-1.67-3.57-3.03-5.62-4.04
			c-1.62-0.82-3.34-1.41-5.12-1.78c-1.44-0.31-2.91-0.46-4.41-0.46c-4.07,0-8.01,1.14-11.44,3.32c-1.44,0.91-3.28,0.71-4.5-0.5
			l-17.91-17.91l-1.93-1.93l-0.01-0.01l-8.45-8.45c-0.33-0.33-0.76-0.51-1.23-0.51h-52.19c-1,0-1.86-0.36-2.56-1.06l-3.72-3.72
			c-1.34-1.34-1.42-3.47-0.2-4.91c1.09-1.28,2.02-2.67,2.77-4.14c1.52-2.94,2.33-6.21,2.36-9.58v-0.18c0-5.71-2.26-11.13-6.29-15.16
			l-0.02-0.02c-1.61-1.61-3.43-2.93-5.41-3.94c-2.89-1.49-6.11-2.3-9.43-2.34c-0.1-0.01-0.22-0.01-0.33-0.01h-0.42
			c-1.01,0.01-1.87-0.34-2.59-1.05c-0.71-0.7-1.07-1.56-1.07-2.57v-4.03c0-1,0.36-1.86,1.06-2.56l1.2-1.19l7.9-7.91l11.46-11.46
			c0.33-0.32,0.51-0.76,0.51-1.22v-37.82c0-0.97-0.78-1.75-1.74-1.75c-0.3,0-0.59,0.08-0.85,0.23c-0.09,0.06-0.18,0.09-0.28,0.14
			c-0.53,0.25-1.06,0.49-1.59,0.75c-16.24,7.61-31.59,17.05-45.7,28.12c-5.56,4.36-10.92,8.98-16.07,13.82
			c-8.47,7.97-16.35,16.55-23.57,25.67c-0.24,0.3-0.37,0.67-0.37,1.06l-0.02,51.94c0,1.01-0.36,1.86-1.06,2.57l-16.74,16.73
			c-0.33,0.33-0.51,0.77-0.51,1.23v40.27c0,1.75-1.21,3.22-2.93,3.56c-4.2,0.83-8.06,2.87-11.08,5.9l-0.03,0.03
			c-4.03,4.03-6.29,9.45-6.29,15.16c0,4.61,1.48,9.05,4.22,12.76c1.08,1.45,0.93,3.44-0.35,4.72L8.01,367.93
			c-0.41,0.4-0.58,0.97-0.48,1.54c0.01,0.08,0.03,0.15,0.03,0.24c4.14,39.45,18.13,77.06,40.72,109.66
			c22.69,32.74,53.37,59.38,89.01,77.22c0.84,0.42,1.88,0.08,2.3-0.77c0.12-0.24,0.18-0.5,0.18-0.77c0-0.14,0.01-0.28,0.03-0.42
			v-55.3c0-0.46-0.18-0.89-0.51-1.22l-22.48-22.48c-0.33-0.33-0.77-0.5-1.23-0.5l-28.71-0.01c-1,0-1.86-0.35-2.56-1.06l-16-16
			c-0.71-0.71-1.06-1.56-1.06-2.56v-12.24c0-1,0.35-1.86,1.06-2.56l13.52-13.52c0.7-0.71,1.57-1.06,2.56-1.06h20.75
			c1,0,1.86,0.35,2.56,1.06l15.69,15.7c0.33,0.32,0.77,0.5,1.23,0.5h8.74c1.44,0,2.67,0.78,3.28,2.07c1.05,2.22,2.49,4.25,4.22,5.99
			l0.02,0.02c4.03,4.03,9.46,6.29,15.17,6.29c5.7,0,11.12-2.26,15.16-6.29l0.02-0.02c4.03-4.03,6.29-9.46,6.29-15.16
			c0-2.48-0.42-4.91-1.25-7.24c-0.48-1.35-0.17-2.77,0.84-3.78l16.44-16.44l14.43-14.44l5.92-5.92c0.33-0.33,0.51-0.76,0.51-1.22
			v-19.96c0-1,0.36-1.86,1.06-2.56l1.65-1.65l4.35-4.36l11.21-11.21c0.71-0.7,1.57-1.06,2.57-1.06h10.79c1.03,0,1.92,0.38,2.63,1.13
			l1.44,1.51l6.13,6.42l11.53,12.08v-5l-11.99-12.55l-5.95-6.23c-0.03-0.03-0.05-0.06-0.08-0.09c-0.03-0.04-0.07-0.07-0.09-0.11
			c-0.33-0.41-0.82-0.64-1.35-0.64h-15.29c-0.46,0-0.9,0.18-1.23,0.51l-12.87,12.88l-3.28,3.28l-4.2,4.2
			c-0.28,0.28-0.46,0.63-0.49,1.02c-0.02,0.07-0.02,0.14-0.02,0.21v19.96c0,1-0.36,1.86-1.06,2.56l-0.69,0.69l-1.14,1.14l-1.64,1.64
			l-30.05,30.05c-1.41,1.41-3.72,1.41-5.13,0.01c-4.04-4.04-9.45-6.31-15.17-6.31c-5.71,0-11.14,2.26-15.17,6.29l-0.02,0.02
			c-4.03,4.04-6.29,9.46-6.29,15.17c0,1.99-1.63,3.62-3.63,3.62h-4.1c-1.01,0-1.86-0.36-2.57-1.06l-15.69-15.7
			c-0.33-0.32-0.76-0.5-1.22-0.5H82.16c-0.46,0-0.9,0.18-1.22,0.5l-16.66,16.66c-0.32,0.32-0.51,0.76-0.51,1.22v16.65
			c0.01,0.43,0.18,0.87,0.51,1.21l18.89,18.9c0.07,0.07,0.12,0.12,0.18,0.19c0.33,0.39,0.81,0.62,1.32,0.62h28.69
			c1.01,0,1.86,0.35,2.57,1.06l19.33,19.33c0.71,0.7,1.06,1.56,1.06,2.56v44.65c0,1.32-0.64,2.45-1.77,3.12
			c-1.14,0.66-2.44,0.69-3.59,0.06c-31.79-17.45-59.18-42.16-79.83-71.96c-21.83-31.5-35.51-67.79-39.87-105.87
			c-0.13-1.14,0.23-2.17,1.03-2.98l12.86-12.86c1.16-1.16,2.88-1.4,4.32-0.61c3.17,1.75,6.7,2.66,10.32,2.66
			c5.71,0,11.13-2.26,15.16-6.3l0.02-0.02c4.04-4.03,6.29-9.45,6.29-15.16c0-5.71-2.25-11.13-6.29-15.16l-0.02-0.03
			c-2.77-2.77-6.26-4.74-10.06-5.67c-1.65-0.41-2.77-1.83-2.77-3.52V273.6c0-1,0.36-1.86,1.06-2.56l16.75-16.74
			c0.32-0.33,0.5-0.77,0.5-1.23v-52.32c0-0.86,0.27-1.6,0.81-2.28c6.81-8.46,14.21-16.43,22.13-23.85
			c5.06-4.74,10.32-9.27,15.76-13.54c12.23-9.6,25.4-17.97,39.28-24.95c1.16-0.59,2.44-0.53,3.54,0.15c0.65,0.4,1.14,0.96,1.41,1.61
			c0.2,0.45,0.3,0.95,0.3,1.47v27.1c0,1-0.35,1.86-1.06,2.56l-15.65,15.65l-4.9,4.9c-0.32,0.33-0.5,0.76-0.5,1.23v8.89
			c0,1.4-0.75,2.61-2,3.23c-2.07,1.04-3.96,2.4-5.61,4.04l-0.02,0.02c-4.03,4.03-6.29,9.45-6.29,15.16c0,5.71,2.26,11.13,6.29,15.16
			l0.02,0.03c2.38,2.38,5.25,4.14,8.37,5.18c2.16,0.73,4.46,1.11,6.79,1.11c3.1,0,6.15-0.66,8.96-1.96c1.4-0.65,2.99-0.37,4.08,0.73
			l6.34,6.32c0.32,0.33,0.76,0.51,1.22,0.51h52.19c0.9,0,1.67,0.28,2.33,0.85c0.09,0.06,0.16,0.13,0.24,0.21l8.51,8.51l7.36,7.36
			l10.79,10.79c1.22,1.23,1.42,3.1,0.46,4.55c-2.28,3.49-3.48,7.53-3.48,11.7c0,2.29,0.36,4.52,1.05,6.65
			c0.71,2.17,1.76,4.22,3.13,6.07c0.64,0.86,1.34,1.68,2.11,2.45l0.02,0.02c4,4,9.37,6.26,15.04,6.29h0.11
			c1.9,0,3.76-0.25,5.56-0.74c2.16-0.58,4.24-1.5,6.15-2.75c1.46-0.95,3.33-0.76,4.55,0.47l1.95,1.94v-5
			c-0.81-1.18-0.84-2.72-0.06-3.96l0.06-0.09v-22.72C266.9,280.47,265.88,279.19,264.73,278.03z M143.29,423.55l0.02-0.02
			c3.39-3.39,7.95-5.25,12.73-5.25s9.33,1.87,12.72,5.25l0.02,0.02c3.39,3.39,5.25,7.95,5.25,12.73c0,4.77-1.87,9.34-5.25,12.72
			l-0.02,0.02c-3.39,3.39-7.94,5.25-12.72,5.25c-4.79,0-9.34-1.87-12.73-5.25l-0.02-0.02c-3.39-3.38-5.25-7.94-5.25-12.72
			S139.9,426.94,143.29,423.55z M52.49,323.55l0.03,0.02c3.38,3.39,5.25,7.95,5.25,12.73s-1.87,9.34-5.25,12.72l-0.03,0.03
			c-3.38,3.38-7.94,5.25-12.72,5.25c-4.78,0-9.34-1.87-12.73-5.25l-0.02-0.03c-3.39-3.38-5.24-7.94-5.24-12.72s1.86-9.34,5.24-12.73
			l0.02-0.02c3.39-3.38,7.95-5.25,12.73-5.25C44.55,318.3,49.11,320.16,52.49,323.55z M141.82,234.86l-0.03,0.02
			c-3.38,3.39-7.94,5.24-12.73,5.24c-2.36,0-4.67-0.46-6.79-1.33c-2.2-0.88-4.21-2.2-5.93-3.92l-0.02-0.02
			c-3.39-3.39-5.25-7.95-5.25-12.73s1.87-9.34,5.25-12.72l0.02-0.03c1.72-1.72,3.74-3.04,5.93-3.93c2.13-0.86,4.44-1.32,6.79-1.32
			c0.47,0,0.95,0.02,1.41,0.06c4.12,0.31,7.98,2.01,10.98,4.87c0.11,0.1,0.23,0.22,0.33,0.32l0.03,0.03
			c2.18,2.18,3.73,4.86,4.55,7.76c0.46,1.6,0.69,3.26,0.69,4.96c0,2.49-0.51,4.93-1.48,7.17
			C144.71,231.35,143.44,233.25,141.82,234.86z M267.54,293.18c0,1.85-0.28,3.66-0.82,5.39c-0.85,2.74-2.35,5.26-4.43,7.34
			l-0.03,0.02c-1.99,1.99-4.39,3.46-7,4.33c-1.81,0.61-3.73,0.93-5.68,0.93h-0.04c-4.78,0-9.34-1.87-12.73-5.25l-0.02-0.02
			c-0.59-0.59-1.13-1.21-1.62-1.87c-1.39-1.84-2.41-3.92-3-6.13c-0.42-1.53-0.63-3.11-0.63-4.73c0-4.78,1.86-9.33,5.25-12.72
			l0.02-0.02c3.39-3.39,7.95-5.25,12.73-5.25c1.29,0,2.57,0.13,3.81,0.41c1.81,0.39,3.55,1.05,5.15,1.97
			c1.37,0.78,2.63,1.75,3.76,2.87l0.03,0.02c3,3.01,4.8,6.92,5.17,11.11C267.51,292.1,267.54,292.64,267.54,293.18z M475.09,386.57
			c-0.2-0.15-0.43-0.26-0.68-0.3c-0.09-0.02-0.2-0.02-0.3-0.02h-19.54l-12.98-0.01v3.46h25.99c1.14,0,2.11,0.46,2.83,1.35
			c0.7,0.88,0.96,1.93,0.72,3.04c-0.56,2.56-1.16,5.12-1.8,7.66c-0.84,3.38-1.76,6.73-2.76,10.06c-0.46,1.56-1.84,2.59-3.47,2.59
			h-7.13c-0.46,0-0.89,0.18-1.22,0.51l-13.15,13.15v4.91l14.03-14.03c0.71-0.71,1.56-1.06,2.57-1.06h8.84c0.05,0,0.09,0,0.14-0.01
			c0.76-0.06,1.39-0.62,1.56-1.36c0.02-0.11,0.05-0.21,0.09-0.32c1.42-4.5,2.72-9.04,3.87-13.61c1.2-4.74,2.23-9.52,3.12-14.32
			C475.91,387.59,475.62,386.93,475.09,386.57z"/>
		<path class="st1" d="M152.04,336.7h-28.59c-0.46,0-0.89,0.18-1.22,0.51l-31.69,31.68c-0.32,0.33-0.5,0.77-0.5,1.23v24.9
			c0,0.96,0.78,1.74,1.74,1.74h29.5c0.46,0,0.89-0.18,1.22-0.51l30.77-30.77c0.33-0.33,0.51-0.76,0.51-1.22v-25.82
			C153.78,337.48,153,336.7,152.04,336.7z M150.3,362.03c0,1.01-0.36,1.86-1.06,2.57l-27.63,27.63c-0.71,0.7-1.56,1.06-2.57,1.06
			H97.13c-1.99,0-3.62-1.63-3.62-3.62v-17.32c0-1,0.36-1.86,1.06-2.57l28.54-28.54c0.71-0.7,1.57-1.06,2.56-1.06h21
			c2,0,3.63,1.63,3.63,3.63V362.03z"/>
	</g>
	<g>
		<g>
			<path class="st2" d="M104.61,295.94c-0.7-0.7-1.67-1.13-2.72-1.13c-1.06,0-2.03,0.43-2.72,1.13h-0.01
				c-0.69,0.7-1.12,1.66-1.12,2.72c0,0.59,0.12,1.15,0.37,1.65l-5.6,5.6l-0.26,0.26v16.36c-0.73,0.15-1.38,0.52-1.9,1.03l-0.01,0.01
				c-0.69,0.69-1.13,1.66-1.13,2.72c0,1.05,0.44,2.02,1.14,2.71l-0.01,0.01c0.7,0.69,1.66,1.13,2.73,1.13
				c1.06,0,2.03-0.44,2.72-1.13c0.69-0.7,1.13-1.66,1.13-2.72c0-1.07-0.44-2.03-1.13-2.73c-0.48-0.48-1.1-0.83-1.78-1v-15.66
				l5.19-5.2c0.65,0.51,1.48,0.82,2.38,0.82c1.06,0,2.02-0.43,2.72-1.13c0.69-0.69,1.13-1.66,1.13-2.72
				C105.74,297.6,105.3,296.63,104.61,295.94z M94.86,324.8L94.86,324.8c0.37,0.38,0.61,0.91,0.61,1.49c0,0.57-0.24,1.1-0.61,1.47
				c-0.38,0.38-0.91,0.62-1.48,0.62c-0.58,0-1.1-0.24-1.48-0.62h-0.01c-0.37-0.37-0.61-0.89-0.61-1.47c0-0.59,0.24-1.11,0.61-1.48
				l0.01-0.01c0.37-0.37,0.9-0.61,1.48-0.61C93.96,324.19,94.48,324.43,94.86,324.8z M103.36,300.14c-0.38,0.38-0.9,0.61-1.48,0.61
				c-0.58,0-1.1-0.23-1.48-0.61s-0.62-0.9-0.62-1.48c0-0.58,0.24-1.1,0.62-1.48c0.37-0.38,0.9-0.61,1.48-0.61
				c0.58,0,1.1,0.23,1.48,0.61c0.37,0.38,0.61,0.9,0.61,1.48C103.97,299.24,103.73,299.76,103.36,300.14z"/>
			<path class="st2" d="M85.46,323.56L85.46,323.56c-0.51-0.52-1.17-0.89-1.9-1.04v-16.36l-0.26-0.26l-5.6-5.6
				c0.24-0.5,0.37-1.06,0.37-1.65c0-1.06-0.43-2.02-1.13-2.72c-0.7-0.7-1.66-1.13-2.72-1.13c-1.06,0-2.02,0.43-2.72,1.13
				c-0.7,0.69-1.13,1.66-1.13,2.72c0,1.06,0.43,2.03,1.13,2.72c0.69,0.7,1.66,1.13,2.72,1.13c0.89,0,1.72-0.3,2.37-0.82l5.2,5.2
				v15.66c-0.68,0.17-1.3,0.52-1.78,1c-0.7,0.7-1.13,1.66-1.13,2.73c0,1.06,0.43,2.02,1.13,2.72c0.69,0.69,1.66,1.13,2.72,1.13
				c1.06,0,2.03-0.44,2.72-1.13V329c0.7-0.69,1.13-1.66,1.13-2.71C86.59,325.22,86.16,324.26,85.46,323.56z M75.71,300.14
				c-0.38,0.38-0.9,0.61-1.48,0.61c-0.58,0-1.1-0.23-1.48-0.61c-0.38-0.38-0.61-0.9-0.61-1.48c0-0.58,0.23-1.1,0.61-1.48
				c0.38-0.38,0.9-0.61,1.48-0.61c0.58,0,1.1,0.23,1.48,0.61c0.38,0.38,0.62,0.9,0.62,1.48C76.32,299.24,76.09,299.76,75.71,300.14z
				 M84.21,327.76c-0.38,0.38-0.9,0.62-1.48,0.62c-0.58,0-1.1-0.24-1.48-0.62c-0.38-0.37-0.61-0.9-0.61-1.47
				c0-0.58,0.23-1.11,0.61-1.48v-0.01c0.38-0.37,0.9-0.61,1.48-0.61c0.58,0,1.1,0.24,1.48,0.61v0.01c0.38,0.37,0.62,0.89,0.62,1.48
				C84.83,326.87,84.59,327.39,84.21,327.76z"/>
		</g>
		<path class="st2" d="M90.78,288.31c-0.7-0.69-1.66-1.13-2.72-1.13s-2.02,0.44-2.72,1.13c-0.7,0.7-1.13,1.66-1.13,2.72
			c0,1.06,0.43,2.03,1.13,2.72c0.46,0.47,1.06,0.83,1.73,1.01v24.03h1.76v-23.99c0.75-0.15,1.43-0.52,1.95-1.05
			c0.7-0.69,1.13-1.66,1.13-2.72C91.91,289.97,91.48,289,90.78,288.31z M89.54,292.51c-0.38,0.38-0.9,0.62-1.48,0.62
			c-0.58,0-1.1-0.24-1.48-0.62c-0.38-0.37-0.62-0.9-0.62-1.48c0-0.58,0.24-1.1,0.62-1.48c0.38-0.37,0.9-0.61,1.48-0.61
			c0.58,0,1.1,0.24,1.48,0.61c0.38,0.38,0.61,0.9,0.61,1.48C90.14,291.61,89.91,292.13,89.54,292.51z"/>
	</g>
	<g>
		<g>
			<path class="st2" d="M684.11,378.65L684.11,378.65c-0.7-0.69-1.67-1.13-2.73-1.13c-1.06,0-2.02,0.44-2.72,1.13
				c-0.7,0.7-1.13,1.66-1.13,2.72c0,0.59,0.13,1.15,0.37,1.65l-5.6,5.6l-0.26,0.26v16.36c-0.73,0.16-1.38,0.53-1.9,1.04
				c-0.7,0.69-1.13,1.66-1.13,2.72c0,1.06,0.43,2.02,1.13,2.72c0.69,0.69,1.66,1.13,2.72,1.13c1.06,0,2.03-0.44,2.72-1.13
				c0.7-0.69,1.13-1.66,1.13-2.72c0-1.06-0.43-2.03-1.13-2.72c-0.48-0.48-1.1-0.84-1.78-1.01v-15.66l5.2-5.2
				c0.65,0.51,1.48,0.82,2.37,0.82c1.06,0,2.03-0.43,2.73-1.13c0.69-0.69,1.12-1.66,1.12-2.72
				C685.23,380.31,684.81,379.34,684.11,378.65z M674.35,407.51L674.35,407.51c0.38,0.39,0.62,0.91,0.62,1.49
				c0,0.58-0.24,1.1-0.62,1.48c-0.38,0.37-0.9,0.61-1.48,0.61c-0.58,0-1.1-0.24-1.48-0.61c-0.38-0.38-0.61-0.9-0.61-1.48
				c0-0.58,0.23-1.11,0.61-1.48v-0.01c0.38-0.37,0.9-0.61,1.48-0.61C673.45,406.91,673.97,407.14,674.35,407.51z M682.86,382.85
				c-0.38,0.38-0.9,0.62-1.48,0.62c-0.58,0-1.1-0.24-1.48-0.62c-0.38-0.38-0.61-0.9-0.61-1.48c0-0.58,0.23-1.1,0.61-1.48
				c0.38-0.38,0.9-0.61,1.48-0.61c0.58,0,1.1,0.23,1.48,0.61c0.38,0.38,0.62,0.9,0.62,1.48
				C683.48,381.95,683.24,382.47,682.86,382.85z"/>
			<path class="st2" d="M664.96,406.28L664.96,406.28c-0.52-0.51-1.17-0.88-1.91-1.04v-16.36l-0.26-0.26l-5.59-5.6
				c0.24-0.5,0.37-1.06,0.37-1.65c0-1.06-0.44-2.02-1.13-2.72h-0.01c-0.69-0.69-1.66-1.13-2.71-1.13c-1.06,0-2.03,0.44-2.73,1.13
				c-0.69,0.69-1.13,1.66-1.13,2.72c0,1.06,0.44,2.03,1.13,2.72c0.7,0.7,1.66,1.13,2.73,1.13c0.89,0,1.72-0.3,2.37-0.82l5.2,5.2
				v15.66c-0.69,0.17-1.3,0.53-1.78,1.01h-0.01c-0.69,0.69-1.13,1.66-1.13,2.72c0,1.06,0.44,2.03,1.13,2.72
				c0.7,0.69,1.67,1.13,2.73,1.13c1.06,0,2.02-0.44,2.72-1.13c0.69-0.7,1.13-1.66,1.13-2.72
				C666.09,407.94,665.66,406.97,664.96,406.28z M655.21,382.85L655.21,382.85c-0.38,0.38-0.91,0.62-1.48,0.62
				c-0.58,0-1.11-0.24-1.48-0.62c-0.38-0.38-0.62-0.9-0.62-1.48c0-0.58,0.24-1.1,0.62-1.48c0.37-0.38,0.89-0.61,1.48-0.61
				c0.58,0,1.1,0.23,1.47,0.61h0.01c0.37,0.38,0.61,0.9,0.61,1.48C655.82,381.95,655.58,382.47,655.21,382.85z M663.72,410.48
				L663.72,410.48c-0.38,0.37-0.91,0.61-1.48,0.61c-0.58,0-1.11-0.24-1.48-0.61c-0.38-0.38-0.62-0.9-0.62-1.48
				c0-0.58,0.24-1.1,0.62-1.48v-0.01c0.37-0.37,0.89-0.61,1.48-0.61c0.58,0,1.1,0.24,1.47,0.61l0.01,0.01
				c0.37,0.37,0.61,0.9,0.61,1.48C664.33,409.58,664.09,410.1,663.72,410.48z"/>
		</g>
		<path class="st2" d="M670.29,371.03L670.29,371.03c-0.7-0.69-1.67-1.13-2.73-1.13c-1.05,0-2.02,0.44-2.71,1.13l-0.01,0.01
			c-0.69,0.69-1.13,1.66-1.13,2.72c0,1.05,0.44,2.02,1.13,2.72c0.47,0.46,1.06,0.82,1.73,1v24.03h1.76v-23.98
			c0.76-0.15,1.43-0.53,1.96-1.05c0.69-0.69,1.13-1.66,1.13-2.72S670.98,371.73,670.29,371.03z M669.03,375.23
			c-0.38,0.38-0.9,0.62-1.48,0.62c-0.57,0-1.1-0.24-1.48-0.62c-0.37-0.37-0.61-0.89-0.61-1.47c0-0.59,0.24-1.11,0.61-1.48v-0.01
			c0.38-0.37,0.9-0.61,1.48-0.61c0.58,0,1.11,0.24,1.48,0.61v0.01c0.38,0.37,0.62,0.9,0.62,1.48S669.41,374.86,669.03,375.23z"/>
	</g>
</g>
<g>
	<path class="st3" d="M53.75,381.03h-6.24c-1.8,0-3.28,1.48-3.28,3.28v0c0,1.8,1.48,3.28,3.28,3.28h6.24c1.8,0,3.28-1.48,3.28-3.28
		v0C57.03,382.51,55.56,381.03,53.75,381.03z"/>
	<path class="st3" d="M61.61,392.14H39.65c-1.8,0-3.28,1.48-3.28,3.28v0c0,1.81,1.47,3.28,3.28,3.28h21.97
		c1.81,0,3.28-1.48,3.28-3.28v0C64.89,393.62,63.42,392.14,61.61,392.14z"/>
	<path class="st3" d="M54.48,403.25h-7.7c-1.81,0-3.28,1.48-3.28,3.28v0c0,1.8,1.48,3.28,3.28,3.28h7.7c1.8,0,3.28-1.48,3.28-3.28v0
		C57.76,404.73,56.28,403.25,54.48,403.25z"/>
</g>
<g>
	<path class="st3" d="M616.01,267.6h-6.24c-1.8,0-3.28,1.48-3.28,3.28v0c0,1.8,1.48,3.28,3.28,3.28h6.24c1.8,0,3.28-1.48,3.28-3.28
		v0C619.29,269.07,617.82,267.6,616.01,267.6z"/>
	<path class="st3" d="M623.87,278.71h-21.97c-1.8,0-3.28,1.48-3.28,3.28v0c0,1.81,1.47,3.28,3.28,3.28h21.97
		c1.81,0,3.28-1.48,3.28-3.28v0C627.16,280.18,625.68,278.71,623.87,278.71z"/>
	<path class="st3" d="M616.74,289.81h-7.7c-1.81,0-3.28,1.48-3.28,3.28v0c0,1.8,1.47,3.28,3.28,3.28h7.7c1.8,0,3.28-1.48,3.28-3.28
		v0C620.02,291.29,618.55,289.81,616.74,289.81z"/>
</g>
<g>
	<path class="st3" d="M86.54,237.73h7.21c1.9,0,3.45,1.55,3.45,3.45v0c0,1.9-1.55,3.45-3.45,3.45h-7.21c-1.9,0-3.45-1.55-3.45-3.45
		v0C83.1,239.29,84.65,237.73,86.54,237.73z"/>
	<path class="st3" d="M78.61,249.41h23.08c1.9,0,3.45,1.55,3.45,3.45v0c0,1.9-1.55,3.45-3.45,3.45H78.61c-1.9,0-3.45-1.55-3.45-3.45
		v0C75.16,250.96,76.71,249.41,78.61,249.41z"/>
	<path class="st3" d="M90.92,261.08h10.76c1.9,0,3.45,1.55,3.45,3.45v0c0,1.9-1.55,3.45-3.45,3.45H90.92c-1.9,0-3.45-1.55-3.45-3.45
		v0C87.48,262.63,89.03,261.08,90.92,261.08z"/>
	<path class="st3" d="M78.64,261.08h0.6c1.9,0,3.45,1.55,3.45,3.45v0c0,1.9-1.55,3.45-3.45,3.45h-0.6c-1.9,0-3.45-1.55-3.45-3.45v0
		C75.19,262.63,76.74,261.08,78.64,261.08z"/>
</g>
<path class="st4" d="M179.39,619.26l17.43,17.47l0.09,0.1c6.38,6.95,15.53,11.32,25.72,11.32h249.04
	c27.38,0,49.57-22.19,49.57-49.57V58.71c0-9.68-3.94-18.44-10.31-24.75l-0.5-0.49l-17.26-17.26l0.09,8.31
	c-2.23-0.45-4.53-0.68-6.89-0.68H222.63c-9.55,0-18.21,3.83-24.51,10.05c-2.85,2.83-5.22,6.12-6.96,9.78
	c-2.17,4.55-3.4,9.65-3.4,15.03v554.57c0,1.39,0.08,2.75,0.24,4.09L179.39,619.26z"/>
<path class="st5" d="M170.44,41.39v554.57c0,19.26,15.61,34.87,34.87,34.87h263.74c7,0,13.5-2.06,18.96-5.61l8.5-7.79
	c0.01,0,0.01,0,0.01-0.01h-13.2c0.11-1.12,0.16-2.26,0.16-3.41V59.43c0-19.26-15.61-34.87-34.87-34.87H184.9
	c-3.86,0-7.58,0.63-11.06,1.79C171.67,30.91,170.44,36.01,170.44,41.39z"/>
<path class="st6" d="M170.44,41.39v554.57c0,19.26,15.61,34.87,34.87,34.87h263.74c7,0,13.5-2.06,18.96-5.61
	c3.25-2.11,6.14-4.74,8.5-7.79c0.01,0,0.01,0,0.01-0.01c4.63-5.91,7.39-13.36,7.39-21.45V41.39c0-19.26-15.61-34.87-34.87-34.87
	H205.31c-9.55,0-18.21,3.83-24.51,10.05c-2.85,2.83-5.22,6.12-6.96,9.78C171.67,30.91,170.44,36.01,170.44,41.39z"/>
<path class="st7" d="M469.48,620.58H202.56c-11.92,0-21.59-9.67-21.59-21.59V39.8c0-13.02,10.56-23.58,23.58-23.58h265.26
	c13.02,0,23.58,10.56,23.58,23.58v556.88C493.4,609.88,482.69,620.58,469.48,620.58z"/>
<g>
	<rect x="401.62" y="42.82" class="st8" width="2.19" height="2.48"/>
	<rect x="405.52" y="40.72" class="st8" width="2.19" height="4.58"/>
	<rect x="409.42" y="38.04" class="st8" width="2.19" height="7.26"/>
	<rect x="413.32" y="35.89" class="st8" width="2.19" height="9.41"/>
	<rect x="417.22" y="34.03" class="st8" width="2.19" height="11.26"/>
	<rect x="421.12" y="32.12" class="st8" width="2.19" height="13.18"/>
</g>
<g>
	<g>
		<g>
			<path class="st8" d="M447.94,39.88c-0.28,0-0.54-0.16-0.66-0.44c-0.42-0.99-1.02-1.88-1.78-2.64c-0.76-0.76-1.65-1.36-2.64-1.78
				c-2.05-0.87-4.42-0.87-6.47,0c-0.99,0.42-1.88,1.02-2.64,1.78c-0.76,0.76-1.36,1.65-1.78,2.64c-0.15,0.36-0.57,0.53-0.94,0.38
				c-0.36-0.15-0.53-0.57-0.38-0.94c0.49-1.16,1.19-2.2,2.09-3.09c0.89-0.89,1.93-1.6,3.09-2.09c2.4-1.02,5.18-1.02,7.58,0
				c1.16,0.49,2.2,1.19,3.09,2.09c0.89,0.89,1.6,1.93,2.09,3.09c0.15,0.36-0.02,0.78-0.38,0.94
				C448.12,39.86,448.03,39.88,447.94,39.88z"/>
		</g>
		<g>
			<path class="st8" d="M445.06,41.1c-0.28,0-0.54-0.16-0.66-0.44c-0.26-0.62-0.64-1.17-1.11-1.65c-0.48-0.48-1.03-0.85-1.65-1.11
				c-1.28-0.54-2.76-0.54-4.04,0c-0.62,0.26-1.17,0.63-1.65,1.11c-0.48,0.48-0.85,1.03-1.11,1.65c-0.15,0.36-0.57,0.53-0.94,0.38
				c-0.36-0.15-0.53-0.57-0.38-0.94c0.33-0.79,0.81-1.49,1.42-2.1c0.61-0.61,1.31-1.08,2.1-1.42c1.63-0.69,3.52-0.69,5.15,0
				c0.79,0.33,1.49,0.81,2.1,1.42c0.61,0.61,1.08,1.31,1.42,2.1c0.15,0.36-0.02,0.78-0.38,0.94
				C445.25,41.08,445.15,41.1,445.06,41.1z"/>
		</g>
		<g>
			<path class="st8" d="M437.13,42.34c-0.09,0-0.19-0.02-0.28-0.06c-0.36-0.15-0.53-0.57-0.38-0.94c0.17-0.41,0.42-0.77,0.73-1.09
				c0.31-0.31,0.68-0.56,1.09-0.73c0.84-0.36,1.82-0.36,2.66,0c0.41,0.17,0.77,0.42,1.09,0.73c0.31,0.31,0.56,0.68,0.73,1.09
				c0.15,0.36-0.02,0.78-0.38,0.94c-0.36,0.15-0.78-0.02-0.94-0.38c-0.1-0.24-0.24-0.45-0.43-0.63c-0.18-0.18-0.4-0.33-0.63-0.43
				c-0.49-0.21-1.06-0.21-1.55,0c-0.24,0.1-0.45,0.24-0.63,0.43c-0.18,0.18-0.33,0.4-0.43,0.63
				C437.67,42.18,437.41,42.34,437.13,42.34z"/>
		</g>
	</g>
	<path class="st8" d="M440.72,43.49c0,0.6-0.49,1.09-1.09,1.09c-0.6,0-1.09-0.49-1.09-1.09c0-0.6,0.49-1.09,1.09-1.09
		C440.23,42.4,440.72,42.89,440.72,43.49z"/>
</g>
<polygon class="st8" points="478.48,37.54 476.21,37.54 476.21,35.18 455.08,35.18 455.08,44.16 476.21,44.16 476.21,41.52 
	478.48,41.52 "/>
<path class="st6" d="M305.39,40.8h49.36c4.67,0,8.46-3.79,8.46-8.46v0c0-4.67-3.79-8.46-8.46-8.46h-49.36
	c-4.67,0-8.46,3.79-8.46,8.46v0C296.93,37.01,300.72,40.8,305.39,40.8z"/>
<g>
	<g>
		<polyline class="st9" points="470.9,170.9 470.9,174.9 466.9,174.9 		"/>
		<line class="st10" x1="458.99" y1="174.9" x2="209.68" y2="174.9"/>
		<polyline class="st9" points="205.73,174.9 201.73,174.9 201.73,170.9 		"/>
		<line class="st11" x1="201.73" y1="164.08" x2="201.73" y2="126.56"/>
		<polyline class="st9" points="201.73,123.15 201.73,119.15 205.73,119.15 		"/>
		<line class="st10" x1="213.64" y1="119.15" x2="462.94" y2="119.15"/>
		<polyline class="st9" points="466.9,119.15 470.9,119.15 470.9,123.15 		"/>
		<line class="st11" x1="470.9" y1="129.97" x2="470.9" y2="167.49"/>
	</g>
</g>
<g>
	<g>
		<polyline class="st9" points="470.9,240.38 470.9,244.38 466.9,244.38 		"/>
		<line class="st10" x1="458.99" y1="244.38" x2="209.68" y2="244.38"/>
		<polyline class="st9" points="205.73,244.38 201.73,244.38 201.73,240.38 		"/>
		<line class="st11" x1="201.73" y1="233.56" x2="201.73" y2="196.04"/>
		<polyline class="st9" points="201.73,192.63 201.73,188.63 205.73,188.63 		"/>
		<line class="st10" x1="213.64" y1="188.63" x2="462.94" y2="188.63"/>
		<polyline class="st9" points="466.9,188.63 470.9,188.63 470.9,192.63 		"/>
		<line class="st11" x1="470.9" y1="199.45" x2="470.9" y2="236.97"/>
	</g>
</g>
<g>
	<g>
		<polyline class="st9" points="339.81,581.73 339.81,585.73 335.81,585.73 		"/>
		<line class="st12" x1="328.15" y1="585.73" x2="209.55" y2="585.73"/>
		<polyline class="st9" points="205.73,585.73 201.73,585.73 201.73,581.73 		"/>
		<line class="st13" x1="201.73" y1="573.35" x2="201.73" y2="426.77"/>
		<polyline class="st9" points="201.73,422.59 201.73,418.59 205.73,418.59 		"/>
		<line class="st12" x1="213.38" y1="418.59" x2="331.98" y2="418.59"/>
		<polyline class="st9" points="335.81,418.59 339.81,418.59 339.81,422.59 		"/>
		<line class="st13" x1="339.81" y1="430.96" x2="339.81" y2="577.54"/>
	</g>
</g>
<g>
	<g>
		<polyline class="st9" points="470.9,581.73 470.9,585.73 466.9,585.73 		"/>
		<line class="st14" x1="458.56" y1="585.73" x2="379.36" y2="585.73"/>
		<polyline class="st9" points="375.19,585.73 371.19,585.73 371.19,581.73 		"/>
		<line class="st15" x1="371.19" y1="574.35" x2="371.19" y2="519.07"/>
		<polyline class="st9" points="371.19,515.38 371.19,511.38 375.19,511.38 		"/>
		<line class="st14" x1="383.53" y1="511.38" x2="462.73" y2="511.38"/>
		<polyline class="st9" points="466.9,511.38 470.9,511.38 470.9,515.38 		"/>
		<line class="st15" x1="470.9" y1="522.75" x2="470.9" y2="578.04"/>
	</g>
</g>
<g>
	<g>
		<polyline class="st9" points="470.9,480.95 470.9,484.95 466.9,484.95 		"/>
		<line class="st14" x1="458.56" y1="484.95" x2="379.36" y2="484.95"/>
		<polyline class="st9" points="375.19,484.95 371.19,484.95 371.19,480.95 		"/>
		<line class="st15" x1="371.19" y1="473.58" x2="371.19" y2="418.3"/>
		<polyline class="st9" points="371.19,414.61 371.19,410.61 375.19,410.61 		"/>
		<line class="st14" x1="383.53" y1="410.61" x2="462.73" y2="410.61"/>
		<polyline class="st9" points="466.9,410.61 470.9,410.61 470.9,414.61 		"/>
		<line class="st15" x1="470.9" y1="421.98" x2="470.9" y2="477.27"/>
	</g>
</g>
<rect x="200.18" y="407.57" class="st16" width="339.15" height="137.79"/>
<polyline class="st17" points="539.33,545.36 554,560.04 554,422.24 539.33,407.57 "/>
<polygon class="st18" points="554,560.04 214.85,560.04 200.18,545.36 539.33,545.36 "/>
<g>
	<g>
		<path class="st19" d="M200.18,545.36c94.59-0.32,243.44-0.59,339.13-0.64c0,0-0.64,0.64-0.64,0.64l-0.08-68.9l0.03-68.9l0.7,0.7
			c-56.19-0.07-200.03-0.26-254.35-0.37c0,0-84.78-0.33-84.78-0.33l84.78-0.33c53.69-0.11,198.79-0.3,254.35-0.37
			c0.38,0,0.7,0.31,0.7,0.7l0.03,68.9l-0.08,68.9c0.19,1.9-169.6-0.23-170.2,0.44C327.54,545.72,242.39,545.55,200.18,545.36
			L200.18,545.36z"/>
	</g>
	<g>
		<polygon class="st19" points="539.84,407.03 553.99,422.25 538.78,408.1 539.84,407.03 		"/>
	</g>
	<g>
		<polygon class="st19" points="539.84,544.83 553.99,560.04 538.78,545.89 539.84,544.83 		"/>
	</g>
</g>
<g>
	<g>
		<path class="st20" d="M325.69,436.4h-71.22c-3.16,0-5.72,2.56-5.72,5.72v44.01c0,3.16,2.56,5.73,5.72,5.73h51.87l5.24,5.24
			l6.31,6.31v-11.54h7.8c3.16,0,5.72-2.57,5.72-5.73v-44.01C331.41,438.96,328.85,436.4,325.69,436.4z M272.94,469.91
			c-3.15,0-5.7-2.55-5.7-5.71c0-3.14,2.54-5.7,5.7-5.7c3.14,0,5.7,2.55,5.7,5.7C278.63,467.35,276.08,469.91,272.94,469.91z
			 M290.08,469.91c-3.14,0-5.7-2.55-5.7-5.71c0-3.14,2.55-5.7,5.7-5.7c3.14,0,5.7,2.55,5.7,5.7
			C295.78,467.35,293.22,469.91,290.08,469.91z M311.58,467.88c-1.04,1.25-2.61,2.03-4.35,2.03c-3.14,0-5.7-2.55-5.7-5.71
			c0-3.14,2.55-5.7,5.7-5.7c1.75,0,3.31,0.79,4.35,2.03c0.84,0.99,1.34,2.27,1.34,3.67C312.92,465.61,312.41,466.89,311.58,467.88z"
			/>
	</g>
	<g>
		<path class="st20" d="M304.87,495.39l6.7,6.69v1.89c0,3.16-2.56,5.73-5.72,5.73h-51.87l-15.77,11.54l4.22-11.54h-7.8
			c-3.16,0-5.72-2.57-5.72-5.73v-44.01c0-3.16,2.56-5.72,5.72-5.72h10.58v31.88c0,5.11,4.15,9.26,9.26,9.26H304.87z"/>
	</g>
</g>
<path class="st21" d="M509.11,487.73H363.14c-1.1,0-1.99,0.89-1.99,1.99v0.78c0,1.1,0.89,1.99,1.99,1.99h145.97
	c1.1,0,1.99-0.89,1.99-1.99v-0.78C511.09,488.62,510.2,487.73,509.11,487.73z"/>
<path class="st21" d="M509.11,473.35H363.14c-1.1,0-1.99,0.89-1.99,1.99v0.78c0,1.1,0.89,1.99,1.99,1.99h145.97
	c1.1,0,1.99-0.89,1.99-1.99v-0.78C511.09,474.24,510.2,473.35,509.11,473.35z"/>
<path class="st21" d="M509.11,458.98H363.14c-1.1,0-1.99,0.89-1.99,1.99v0.78c0,1.1,0.89,1.99,1.99,1.99h145.97
	c1.1,0,1.99-0.89,1.99-1.99v-0.78C511.09,459.87,510.2,458.98,509.11,458.98z"/>
<path class="st21" d="M509.11,443.19H363.14c-1.1,0-1.99,0.89-1.99,1.99v0.78c0,1.1,0.89,1.99,1.99,1.99h145.97
	c1.1,0,1.99-0.89,1.99-1.99v-0.78C511.09,444.08,510.2,443.19,509.11,443.19z"/>
<path class="st21" d="M436.15,503.56h-72.61c-1.31,0-2.38,1.06-2.38,2.38l0,0c0,1.31,1.06,2.38,2.38,2.38h72.61
	c1.31,0,2.38-1.06,2.38-2.38l0,0C438.53,504.62,437.46,503.56,436.15,503.56z"/>
<rect x="124.81" y="91.2" class="st16" width="338.99" height="176.11"/>
<polyline class="st17" points="463.8,267.3 478.48,281.98 478.48,105.87 463.8,91.2 "/>
<polygon class="st18" points="478.48,281.98 139.49,281.98 124.81,267.3 463.8,267.3 "/>
<g>
	<g>
		<path class="st19" d="M124.81,267.3c94.55-0.36,243.32-0.63,338.97-0.69c0,0-0.69,0.69-0.69,0.69l0-176.11
			c4.33,1.78-169.72-0.04-168.79,0.47c-42.18,0.01-127.3-0.3-169.48-0.47c42.3-0.16,127.21-0.47,169.48-0.47
			c0,0,169.48-0.22,169.48-0.22c0.38,0,0.69,0.31,0.7,0.69c0,0,0,176.11,0,176.11c0,0.38-0.31,0.69-0.69,0.69
			C367.75,267.71,219.77,267.87,124.81,267.3L124.81,267.3z"/>
	</g>
	<g>
		<polygon class="st19" points="464.31,90.67 478.47,105.88 463.25,91.73 464.31,90.67 		"/>
	</g>
	<g>
		<polygon class="st19" points="464.31,266.77 478.47,281.99 463.25,267.83 464.31,266.77 		"/>
	</g>
</g>
<g>
	<rect x="200.18" y="297.05" class="st16" width="81.8" height="79.73"/>
	<polyline class="st17" points="281.98,376.78 294.04,388.84 294.04,309.11 281.98,297.05 	"/>
	<polygon class="st18" points="294.04,388.84 212.24,388.84 200.18,376.78 281.98,376.78 	"/>
	<g>
		<g>
			<path class="st19" d="M200.18,376.78c19.04-0.36,42.41-0.59,61.34-0.66c0,0,20.45-0.06,20.45-0.06l-0.72,0.72l0-79.73l0.72,0.72
				c-19.05-0.01-42.3-0.17-61.34-0.39c0,0-20.45-0.33-20.45-0.33l20.45-0.33c19.05-0.22,42.29-0.38,61.34-0.39
				c0.4,0,0.72,0.32,0.72,0.72l0,79.73c0,0.4-0.32,0.72-0.72,0.72l-20.45-0.06C242.62,377.41,219.17,377.09,200.18,376.78
				L200.18,376.78z"/>
		</g>
		<g>
			<polygon class="st19" points="282.49,296.52 294.03,309.11 281.43,297.58 282.49,296.52 			"/>
		</g>
		<g>
			<polygon class="st19" points="282.49,376.25 294.03,388.84 281.43,377.31 282.49,376.25 			"/>
		</g>
	</g>
</g>
<g>
	<rect x="292.27" y="297.05" class="st16" width="81.8" height="79.73"/>
	<polyline class="st17" points="374.07,376.78 386.13,388.84 386.13,309.11 374.07,297.05 	"/>
	<polygon class="st18" points="386.13,388.84 304.33,388.84 292.27,376.78 374.07,376.78 	"/>
	<g>
		<g>
			<path class="st19" d="M292.27,376.78c19.04-0.36,42.41-0.59,61.34-0.66c0,0,20.45-0.06,20.45-0.06l-0.72,0.72l0-79.73l0.72,0.72
				c-19.05-0.01-42.3-0.17-61.34-0.39c0,0-20.45-0.33-20.45-0.33l20.45-0.33c19.05-0.22,42.29-0.38,61.34-0.39
				c0.4,0,0.72,0.32,0.72,0.72l0,79.73c0,0.4-0.32,0.72-0.72,0.72l-20.45-0.06C334.71,377.41,311.26,377.09,292.27,376.78
				L292.27,376.78z"/>
		</g>
		<g>
			<polygon class="st19" points="374.59,296.52 386.12,309.11 373.52,297.58 374.59,296.52 			"/>
		</g>
		<g>
			<polygon class="st19" points="374.59,376.25 386.12,388.84 373.52,377.31 374.59,376.25 			"/>
		</g>
	</g>
</g>
<rect x="384.61" y="297.05" class="st22" width="82.29" height="80.21"/>
<polyline class="st23" points="466.41,376.78 478.47,388.84 478.47,309.11 466.41,297.05 "/>
<polygon class="st24" points="478.47,388.84 396.67,388.84 384.61,376.78 466.41,376.78 "/>
<g>
	<g>
		<path class="st25" d="M384.61,376.78c19.04-0.36,42.41-0.59,61.34-0.66c0,0,20.45-0.06,20.45-0.06s-0.72,0.72-0.72,0.72l0-79.73
			l0.72,0.72c-19.05-0.01-42.3-0.17-61.34-0.39c0,0-20.45-0.33-20.45-0.33s20.45-0.33,20.45-0.33c19.05-0.22,42.29-0.38,61.34-0.39
			c0.4,0,0.72,0.32,0.72,0.72c0,0,0,79.73,0,79.73c0,0.4-0.32,0.72-0.72,0.72c0,0-20.45-0.06-20.45-0.06
			C427.05,377.41,403.6,377.09,384.61,376.78L384.61,376.78z"/>
	</g>
	<g>
		<polygon class="st25" points="466.92,296.52 478.46,309.11 465.86,297.58 466.92,296.52 		"/>
	</g>
	<g>
		<polygon class="st25" points="466.92,376.25 478.46,388.84 465.86,377.31 466.92,376.25 		"/>
	</g>
</g>
<path class="st26" d="M147.12,194.35h138.79c2.09,0,3.79-1.7,3.79-3.79v-78.64c0-2.09-1.7-3.79-3.79-3.79H147.12
	c-2.09,0-3.79,1.7-3.79,3.79v78.64C143.33,192.65,145.03,194.35,147.12,194.35z"/>
<path class="st21" d="M287.72,223.94H145.03c-1.1,0-1.99,0.89-1.99,1.99v0.78c0,1.1,0.89,1.99,1.99,1.99h142.69
	c1.1,0,1.99-0.89,1.99-1.99v-0.78C289.7,224.83,288.81,223.94,287.72,223.94z"/>
<path class="st21" d="M287.72,207.23H145.03c-1.1,0-1.99,0.89-1.99,1.99V210c0,1.1,0.89,1.99,1.99,1.99h142.69
	c1.1,0,1.99-0.89,1.99-1.99v-0.78C289.7,208.12,288.81,207.23,287.72,207.23z"/>
<path class="st21" d="M451.12,119.43H367.7c-1.1,0-1.99,0.89-1.99,1.99v0.78c0,1.1,0.89,1.99,1.99,1.99h83.42
	c1.1,0,1.99-0.89,1.99-1.99v-0.78C453.11,120.32,452.22,119.43,451.12,119.43z"/>
<path class="st21" d="M253.07,240.25H145.42c-1.31,0-2.38,1.06-2.38,2.38l0,0c0,1.31,1.06,2.38,2.38,2.38h107.65
	c1.31,0,2.38-1.06,2.38-2.38l0,0C255.44,241.32,254.38,240.25,253.07,240.25z"/>
<path class="st21" d="M450.59,190.92H316.8c-1.1,0-1.99,0.89-1.99,1.99v0.78c0,1.1,0.89,1.99,1.99,1.99h133.79
	c1.1,0,1.99-0.89,1.99-1.99v-0.78C452.58,191.8,451.69,190.92,450.59,190.92z"/>
<path class="st21" d="M450.59,174.21H316.8c-1.1,0-1.99,0.89-1.99,1.99v0.78c0,1.1,0.89,1.99,1.99,1.99h133.79
	c1.1,0,1.99-0.89,1.99-1.99v-0.78C452.58,175.1,451.69,174.21,450.59,174.21z"/>
<path class="st21" d="M450.2,207.23H317.19c-1.31,0-2.38,1.06-2.38,2.38l0,0c0,1.31,1.06,2.38,2.38,2.38H450.2
	c1.31,0,2.38-1.06,2.38-2.38l0,0C452.58,208.29,451.51,207.23,450.2,207.23z"/>
<path class="st21" d="M450.2,223.94H317.19c-1.31,0-2.38,1.06-2.38,2.38l0,0c0,1.31,1.06,2.38,2.38,2.38H450.2
	c1.31,0,2.38-1.06,2.38-2.38l0,0C452.58,225,451.51,223.94,450.2,223.94z"/>
<path class="st21" d="M415.94,240.64h-98.75c-1.31,0-2.38,1.06-2.38,2.38l0,0c0,1.31,1.06,2.38,2.38,2.38h98.75
	c1.31,0,2.38-1.06,2.38-2.38l0,0C418.32,241.71,417.25,240.64,415.94,240.64z"/>
<g>
	<g>
		
			<ellipse transform="matrix(0.9666 -0.2564 0.2564 0.9666 -24.4138 90.4558)" class="st6" cx="334.74" cy="138.87" rx="19.93" ry="19.93"/>
		<path class="st26" d="M334.03,158.08c11.01,0,19.93-8.92,19.93-19.93c0-5.32-2.09-10.15-5.49-13.73c3.82,3.63,6.2,8.75,6.2,14.44
			c0,11.01-8.92,19.93-19.93,19.93c-5.68,0-10.81-2.38-14.44-6.2C323.88,155.99,328.71,158.08,334.03,158.08z"/>
	</g>
	<g>
		
			<ellipse transform="matrix(0.1735 -0.9848 0.9848 0.1735 147.0687 440.2314)" class="st26" cx="335.82" cy="132.49" rx="6.05" ry="6.05"/>
		<path class="st26" d="M345.02,149.23L345.02,149.23c-5.93,2.22-12.47,2.22-18.41,0l0,0c0-5.08,4.12-9.2,9.2-9.2
			C340.9,140.02,345.02,144.15,345.02,149.23z"/>
	</g>
	<g>
		<circle class="st20" cx="334.74" cy="131.81" r="6.05"/>
		<path class="st20" d="M343.94,148.54L343.94,148.54c-5.93,2.22-12.47,2.22-18.41,0v0c0-5.08,4.12-9.2,9.2-9.2
			C339.82,139.34,343.94,143.46,343.94,148.54z"/>
	</g>
</g>
<g>
	<polygon class="st27" points="370.82,136.27 372.42,131.24 374.11,136.24 379.4,136.22 375.16,139.37 376.82,144.39 372.51,141.33 
		368.25,144.46 369.83,139.41 365.53,136.33 	"/>
	<polygon class="st28" points="370.46,135.92 372.07,130.88 373.76,135.89 379.04,135.86 374.8,139.01 376.46,144.03 372.15,140.97 
		367.89,144.1 369.47,139.06 365.18,135.97 	"/>
</g>
<g>
	<polygon class="st27" points="389.33,136.27 390.94,131.24 392.63,136.24 397.91,136.22 393.67,139.37 395.33,144.39 
		391.02,141.33 386.76,144.46 388.34,139.41 384.05,136.33 	"/>
	<polygon class="st28" points="388.98,135.92 390.59,130.88 392.27,135.89 397.56,135.86 393.32,139.01 394.98,144.03 
		390.67,140.97 386.41,144.1 387.99,139.06 383.7,135.97 	"/>
</g>
<g>
	<polygon class="st27" points="407.85,136.27 409.46,131.24 411.15,136.24 416.43,136.22 412.19,139.37 413.85,144.39 
		409.54,141.33 405.28,144.46 406.86,139.41 402.57,136.33 	"/>
	<polygon class="st28" points="407.49,135.92 409.1,130.88 410.79,135.89 416.07,135.86 411.83,139.01 413.49,144.03 409.18,140.97 
		404.93,144.1 406.5,139.06 402.21,135.97 	"/>
</g>
<g>
	<polygon class="st27" points="426.37,136.27 427.97,131.24 429.66,136.24 434.95,136.22 430.71,139.37 432.36,144.39 
		428.06,141.33 423.8,144.46 425.37,139.41 421.08,136.33 	"/>
	<polygon class="st28" points="426.01,135.92 427.62,130.88 429.31,135.89 434.59,135.86 430.35,139.01 432.01,144.03 427.7,140.97 
		423.44,144.1 425.02,139.06 420.73,135.97 	"/>
</g>
<g>
	<polygon class="st27" points="444.88,136.27 446.49,131.24 448.18,136.24 453.46,136.22 449.22,139.37 450.88,144.39 
		446.57,141.33 442.31,144.46 443.89,139.41 439.6,136.33 	"/>
	<polygon class="st28" points="444.53,135.92 446.13,130.88 447.82,135.89 453.11,135.86 448.87,139.01 450.53,144.03 
		446.22,140.97 441.96,144.1 443.53,139.06 439.24,135.97 	"/>
</g>
<g>
	<g>
		<polygon class="st16" points="207.23,131.99 210.01,146 195.34,143.41 192.56,129.39 		"/>
		<polygon class="st29" points="207.23,131.99 192.56,129.39 205.12,121.37 219.79,123.98 		"/>
		<polygon class="st17" points="219.78,123.99 222.56,138 210.01,146 207.23,131.99 		"/>
	</g>
	<g>
		<polygon class="st16" points="203.93,115.36 206.71,129.38 192.04,126.78 189.26,112.76 		"/>
		<polygon class="st29" points="203.93,115.37 189.26,112.76 201.82,104.74 216.48,107.35 		"/>
		<polygon class="st17" points="216.48,107.36 219.26,121.37 206.71,129.38 203.93,115.36 		"/>
	</g>
	<g>
		<polygon class="st16" points="198.55,88.29 201.34,102.31 186.67,99.71 183.89,85.69 		"/>
		<polygon class="st30" points="198.55,88.3 183.89,85.69 196.44,77.68 211.11,80.28 		"/>
		<polygon class="st17" points="211.1,80.29 213.89,94.31 201.34,102.31 198.55,88.29 		"/>
	</g>
	<g>
		<polygon class="st16" points="224.32,135.36 227.11,149.38 212.44,146.78 209.65,132.77 		"/>
		<polygon class="st29" points="224.32,135.37 209.66,132.76 222.21,124.75 236.88,127.36 		"/>
		<polygon class="st17" points="236.87,127.36 239.66,141.38 227.11,149.38 224.32,135.36 		"/>
	</g>
	<g>
		<polygon class="st16" points="221.02,118.73 223.8,132.75 209.14,130.15 206.35,116.14 		"/>
		<polygon class="st29" points="221.02,118.74 206.35,116.13 218.91,108.12 233.58,110.73 		"/>
		<polygon class="st17" points="233.57,110.73 236.36,124.75 223.8,132.75 221.02,118.73 		"/>
	</g>
	<g>
		<polygon class="st16" points="217.72,102.11 220.5,116.12 205.83,113.52 203.05,99.51 		"/>
		<polygon class="st29" points="217.72,102.11 203.05,99.5 215.61,91.49 230.28,94.1 		"/>
		<polygon class="st17" points="230.27,94.1 233.05,108.12 220.5,116.12 217.72,102.11 		"/>
	</g>
	<g>
		<polygon class="st16" points="241.42,138.74 244.2,152.75 229.53,150.16 226.75,136.14 		"/>
		<polygon class="st29" points="241.42,138.74 226.75,136.14 239.31,128.12 253.97,130.73 		"/>
		<polygon class="st17" points="253.97,130.74 256.75,144.75 244.2,152.75 241.42,138.74 		"/>
	</g>
	<g>
		<polygon class="st16" points="249.4,119.13 252.19,133.15 237.52,130.55 234.73,116.53 		"/>
		<polygon class="st30" points="249.4,119.14 234.74,116.53 247.29,108.52 261.96,111.12 		"/>
		<polygon class="st17" points="261.95,111.13 264.74,125.15 252.19,133.15 249.4,119.13 		"/>
	</g>
	<g>
		<polygon class="st16" points="234.81,105.48 237.6,119.5 222.93,116.9 220.14,102.88 		"/>
		<polygon class="st30" points="234.81,105.49 220.15,102.88 232.7,94.86 247.37,97.47 		"/>
		<polygon class="st17" points="247.36,97.48 250.15,111.49 237.6,119.5 234.81,105.48 		"/>
	</g>
	<g>
		<polygon class="st16" points="192.81,142.05 195.59,156.06 180.92,153.47 178.14,139.45 		"/>
		<polygon class="st29" points="192.81,142.05 178.14,139.45 190.7,131.43 205.36,134.04 		"/>
		<polygon class="st17" points="205.36,134.05 208.14,148.06 195.59,156.06 192.81,142.05 		"/>
	</g>
	<g>
		<polygon class="st16" points="189.51,125.42 192.29,139.43 177.62,136.84 174.84,122.82 		"/>
		<polygon class="st29" points="189.5,125.42 174.84,122.82 187.4,114.8 202.06,117.41 		"/>
		<polygon class="st17" points="202.06,117.42 204.84,131.43 192.29,139.43 189.51,125.42 		"/>
	</g>
	<g>
		<polygon class="st16" points="186.2,108.79 188.99,122.8 174.32,120.21 171.54,106.19 		"/>
		<polygon class="st30" points="186.2,108.79 171.54,106.19 184.09,98.17 198.76,100.78 		"/>
		<polygon class="st17" points="198.75,100.79 201.54,114.8 188.99,122.8 186.2,108.79 		"/>
	</g>
	<g>
		<polygon class="st16" points="209.9,145.42 212.68,159.44 198.02,156.84 195.23,142.82 		"/>
		<polygon class="st29" points="209.9,145.43 195.23,142.82 207.79,134.81 222.46,137.41 		"/>
		<polygon class="st17" points="222.45,137.42 225.23,151.44 212.68,159.44 209.9,145.42 		"/>
	</g>
	<g>
		<polygon class="st16" points="206.6,128.79 209.38,142.81 194.71,140.21 191.93,126.2 		"/>
		<polygon class="st29" points="206.6,128.8 191.93,126.19 204.49,118.18 219.16,120.78 		"/>
		<polygon class="st17" points="219.15,120.79 221.93,134.81 209.38,142.81 206.6,128.79 		"/>
	</g>
	<g>
		<polygon class="st16" points="203.3,112.16 206.08,126.18 191.41,123.58 188.63,109.57 		"/>
		<polygon class="st29" points="203.3,112.17 188.63,109.56 201.19,101.55 215.85,104.16 		"/>
		<polygon class="st17" points="215.85,104.16 218.63,118.18 206.08,126.18 203.3,112.16 		"/>
	</g>
	<g>
		<polygon class="st16" points="229.22,159.99 232,174.01 217.33,171.41 214.55,157.4 		"/>
		<polygon class="st29" points="229.22,160 214.55,157.39 227.11,149.38 241.77,151.99 		"/>
		<polygon class="st17" points="241.77,151.99 244.55,166.01 232,174.01 229.22,159.99 		"/>
	</g>
	<g>
		<polygon class="st16" points="223.69,132.17 226.48,146.18 211.81,143.59 209.02,129.57 		"/>
		<polygon class="st30" points="223.69,132.17 209.02,129.56 221.58,121.55 236.25,124.16 		"/>
		<polygon class="st17" points="236.24,124.16 239.03,138.18 226.48,146.18 223.69,132.17 		"/>
	</g>
	<g>
		<polygon class="st16" points="220.39,115.54 223.17,129.55 208.5,126.96 205.72,112.94 		"/>
		<polygon class="st29" points="220.39,115.54 205.72,112.94 218.28,104.92 232.95,107.53 		"/>
		<polygon class="st17" points="232.94,107.54 235.72,121.55 223.17,129.55 220.39,115.54 		"/>
	</g>
	<g>
		<polygon class="st16" points="178.39,152.1 181.17,166.12 166.5,163.52 163.72,149.51 		"/>
		<polygon class="st29" points="178.38,152.11 163.72,149.5 176.27,141.49 190.94,144.1 		"/>
		<polygon class="st17" points="190.94,144.1 193.72,158.12 181.17,166.12 178.39,152.1 		"/>
	</g>
	<g>
		<polygon class="st16" points="166.91,135.34 169.69,149.35 155.02,146.76 152.24,132.74 		"/>
		<polygon class="st30" points="166.91,135.34 152.24,132.74 164.8,124.72 179.46,127.33 		"/>
		<polygon class="st17" points="179.46,127.34 182.24,141.35 169.69,149.35 166.91,135.34 		"/>
	</g>
	<g>
		<polygon class="st16" points="171.78,118.85 174.56,132.86 159.9,130.26 157.11,116.25 		"/>
		<polygon class="st29" points="171.78,118.85 157.11,116.24 169.67,108.23 184.34,110.84 		"/>
		<polygon class="st17" points="184.33,110.84 187.11,124.86 174.56,132.86 171.78,118.85 		"/>
	</g>
	<g>
		<polygon class="st16" points="196.63,161.28 199.41,175.3 184.74,172.7 181.96,158.69 		"/>
		<polygon class="st30" points="196.63,161.29 181.96,158.68 194.52,150.67 209.18,153.28 		"/>
		<polygon class="st17" points="209.18,153.28 211.96,167.3 199.41,175.3 196.63,161.28 		"/>
	</g>
	<g>
		<polygon class="st16" points="192.18,138.85 194.96,152.87 180.29,150.27 177.51,136.25 		"/>
		<polygon class="st29" points="192.18,138.86 177.51,136.25 190.07,128.24 204.73,130.84 		"/>
		<polygon class="st17" points="204.73,130.85 207.51,144.86 194.96,152.87 192.18,138.85 		"/>
	</g>
	<g>
		<polygon class="st16" points="188.88,122.22 191.66,136.24 176.99,133.64 174.21,119.62 		"/>
		<polygon class="st30" points="188.87,122.23 174.21,119.62 186.76,111.61 201.43,114.21 		"/>
		<polygon class="st17" points="201.43,114.22 204.21,128.23 191.66,136.24 188.88,122.22 		"/>
	</g>
	<g>
		<polygon class="st16" points="212.57,158.85 215.36,172.87 200.69,170.27 197.9,156.26 		"/>
		<polygon class="st30" points="212.57,158.86 197.9,156.25 210.46,148.24 225.13,150.85 		"/>
		<polygon class="st17" points="225.12,150.85 227.91,164.87 215.36,172.87 212.57,158.85 		"/>
	</g>
	<g>
		<polygon class="st16" points="209.27,142.22 212.05,156.24 197.38,153.64 194.6,139.63 		"/>
		<polygon class="st29" points="209.27,142.23 194.6,139.62 207.16,131.61 221.83,134.22 		"/>
		<polygon class="st17" points="221.82,134.22 224.6,148.24 212.05,156.24 209.27,142.22 		"/>
	</g>
	<g>
		<polygon class="st16" points="205.97,125.6 208.75,139.61 194.08,137.01 191.3,123 		"/>
		<polygon class="st29" points="205.97,125.6 191.3,122.99 203.86,114.98 218.52,117.59 		"/>
		<polygon class="st17" points="218.52,117.59 221.3,131.61 208.75,139.61 205.97,125.6 		"/>
	</g>
</g>
</svg>
