<svg id="Layer_1" data-name="Layer 1" xmlns="http://www.w3.org/2000/svg" xmlns:xlink="http://www.w3.org/1999/xlink" viewBox="0 0 615.08 1011.73"><defs><style>.cls-1,.cls-17,.cls-18,.cls-19,.cls-5,.cls-6,.cls-7{fill:none;}.cls-2{fill:#2b333f;}.cls-3{fill:url(#linear-gradient);}.cls-4{fill:url(#linear-gradient-2);}.cls-17,.cls-18,.cls-19,.cls-5,.cls-6,.cls-7{stroke:#f7931a;stroke-miterlimit:10;}.cls-5,.cls-6,.cls-7{stroke-width:0.75px;}.cls-6{opacity:0.6;}.cls-7{opacity:0.4;}.cls-8{isolation:isolate;}.cls-9{fill:url(#Degradado_sin_nombre_2);}.cls-10{fill:url(#Degradado_sin_nombre_6);}.cls-11{fill:url(#Degradado_sin_nombre_2-2);}.cls-12{fill:url(#Degradado_sin_nombre_6-2);}.cls-13{fill:url(#Degradado_sin_nombre_6-3);}.cls-14{fill:url(#Degradado_sin_nombre_6-4);}.cls-15{fill:url(#Degradado_sin_nombre_2-3);}.cls-16{fill:#79e7ff;}.cls-17{stroke-width:0.5px;}.cls-18{stroke-width:0.25px;}.cls-19{stroke-linecap:round;stroke-width:1.94px;}.cls-20{fill:url(#linear-gradient-3);}.cls-21{fill:url(#linear-gradient-4);}.cls-22{fill:url(#Degradado_sin_nombre_6-5);}.cls-23{clip-path:url(#clip-path);}.cls-24{fill:#888;}.cls-25{fill:#858585;}.cls-26{fill:#818181;}.cls-27{fill:gray;}.cls-28{fill:#7d7d7d;}.cls-29{fill:#797979;}.cls-30{fill:#767676;}.cls-31{fill:#727272;}.cls-32{fill:#707070;}.cls-33{fill:#6b6b6b;}.cls-34{fill:url(#Degradado_sin_nombre_6-6);}.cls-35{fill:url(#Degradado_sin_nombre_2-4);}.cls-36{fill:url(#Degradado_sin_nombre_6-7);}.cls-37{fill:url(#Degradado_sin_nombre_6-8);}.cls-38{fill:url(#Degradado_sin_nombre_2-5);}.cls-39{fill:url(#linear-gradient-5);}.cls-40{fill:url(#linear-gradient-6);}.cls-41{fill:url(#Degradado_sin_nombre_2-6);}.cls-42{fill:url(#Degradado_sin_nombre_6-9);}.cls-43{fill:url(#Degradado_sin_nombre_6-10);}.cls-44{fill:url(#Degradado_sin_nombre_2-7);}.cls-45{fill:url(#linear-gradient-7);}.cls-46{fill:url(#linear-gradient-8);}.cls-47{fill:url(#Degradado_sin_nombre_6-11);}.cls-48{fill:url(#Degradado_sin_nombre_6-12);}.cls-49{fill:url(#Degradado_sin_nombre_2-8);}.cls-50{fill:url(#Degradado_sin_nombre_6-13);}.cls-51{opacity:0.65;}.cls-52,.cls-53,.cls-54,.cls-55{opacity:0.6;}.cls-52{fill:url(#linear-gradient-9);}.cls-53{fill:url(#linear-gradient-10);}.cls-54{fill:url(#linear-gradient-11);}.cls-55{fill:url(#linear-gradient-12);}</style><linearGradient id="linear-gradient" x1="492.36" y1="331.27" x2="604.77" y2="331.27" gradientUnits="userSpaceOnUse"><stop offset="0" stop-color="#373f51"/><stop offset="1" stop-color="#2b333f"/></linearGradient><linearGradient id="linear-gradient-2" x1="379.95" y1="331.27" x2="492.36" y2="331.27" xlink:href="#linear-gradient"/><linearGradient id="Degradado_sin_nombre_2" x1="509.25" y1="178.47" x2="540.52" y2="178.47" gradientUnits="userSpaceOnUse"><stop offset="0" stop-color="#0a2cc4"/><stop offset="1" stop-color="#00e4ff"/></linearGradient><linearGradient id="Degradado_sin_nombre_6" x1="496.1" y1="247.15" x2="496.1" y2="212.14" gradientUnits="userSpaceOnUse"><stop offset="0" stop-color="#00e4ff"/><stop offset="1" stop-color="#0a2cc4"/></linearGradient><linearGradient id="Degradado_sin_nombre_2-2" x1="463.02" y1="202.15" x2="504.72" y2="202.15" xlink:href="#Degradado_sin_nombre_2"/><linearGradient id="Degradado_sin_nombre_6-2" x1="495.94" y1="200.21" x2="495.94" y2="147.31" xlink:href="#Degradado_sin_nombre_6"/><linearGradient id="Degradado_sin_nombre_6-3" x1="448.94" y1="249.46" x2="448.94" y2="217.27" xlink:href="#Degradado_sin_nombre_6"/><linearGradient id="Degradado_sin_nombre_6-4" x1="483.98" y1="112.61" x2="526.47" y2="112.61" xlink:href="#Degradado_sin_nombre_6"/><linearGradient id="Degradado_sin_nombre_2-3" x1="440.19" y1="171.09" x2="501.42" y2="171.09" xlink:href="#Degradado_sin_nombre_2"/><linearGradient id="linear-gradient-3" x1="244.22" y1="466.82" x2="356.63" y2="466.82" xlink:href="#linear-gradient"/><linearGradient id="linear-gradient-4" x1="131.81" y1="466.82" x2="244.22" y2="466.82" xlink:href="#linear-gradient"/><linearGradient id="Degradado_sin_nombre_6-5" x1="237.16" y1="367.24" x2="237.16" y2="321.88" xlink:href="#Degradado_sin_nombre_6"/><clipPath id="clip-path"><path class="cls-1" d="M257.38,302.1l17.44,10.14c-3.34-1.94-7.76-2-13.16.28l-17.44-10.13C249.61,300.07,254,300.16,257.38,302.1Z"/></clipPath><linearGradient id="Degradado_sin_nombre_6-6" x1="187.03" y1="364.3" x2="228.55" y2="364.3" xlink:href="#Degradado_sin_nombre_6"/><linearGradient id="Degradado_sin_nombre_2-4" x1="187.03" y1="381.79" x2="213.61" y2="381.79" xlink:href="#Degradado_sin_nombre_2"/><linearGradient id="Degradado_sin_nombre_6-7" x1="223.7" y1="340.93" x2="223.7" y2="308.01" xlink:href="#Degradado_sin_nombre_6"/><linearGradient id="Degradado_sin_nombre_6-8" x1="236.06" y1="318.14" x2="236.06" y2="273.22" xlink:href="#Degradado_sin_nombre_6"/><linearGradient id="Degradado_sin_nombre_2-5" x1="187.71" y1="278.15" x2="272.34" y2="278.15" xlink:href="#Degradado_sin_nombre_2"/><linearGradient id="linear-gradient-5" x1="366.56" y1="770.53" x2="478.97" y2="770.53" xlink:href="#linear-gradient"/><linearGradient id="linear-gradient-6" x1="254.15" y1="770.53" x2="366.56" y2="770.53" xlink:href="#linear-gradient"/><linearGradient id="Degradado_sin_nombre_2-6" x1="338.32" y1="641.55" x2="403.65" y2="641.55" xlink:href="#Degradado_sin_nombre_2"/><linearGradient id="Degradado_sin_nombre_6-9" x1="319.65" y1="699.43" x2="319.65" y2="661.42" xlink:href="#Degradado_sin_nombre_6"/><linearGradient id="Degradado_sin_nombre_6-10" x1="310.89" y1="617.72" x2="379.68" y2="617.72" xlink:href="#Degradado_sin_nombre_6"/><linearGradient id="Degradado_sin_nombre_2-7" x1="312.06" y1="572.35" x2="394.03" y2="572.35" xlink:href="#Degradado_sin_nombre_2"/><linearGradient id="linear-gradient-7" x1="122.72" y1="914.38" x2="235.13" y2="914.38" xlink:href="#linear-gradient"/><linearGradient id="linear-gradient-8" x1="10.31" y1="914.38" x2="122.72" y2="914.38" xlink:href="#linear-gradient"/><linearGradient id="Degradado_sin_nombre_6-11" x1="119.47" y1="837.65" x2="119.47" y2="732.91" xlink:href="#Degradado_sin_nombre_6"/><linearGradient id="Degradado_sin_nombre_6-12" x1="111.16" y1="702.04" x2="149.94" y2="702.04" xlink:href="#Degradado_sin_nombre_6"/><linearGradient id="Degradado_sin_nombre_2-8" x1="86.11" y1="763.5" x2="118.51" y2="707.37" xlink:href="#Degradado_sin_nombre_2"/><linearGradient id="Degradado_sin_nombre_6-13" x1="76.02" y1="767.52" x2="106.47" y2="767.52" xlink:href="#Degradado_sin_nombre_6"/><linearGradient id="linear-gradient-9" x1="492.01" y1="277.41" x2="492.01" gradientUnits="userSpaceOnUse"><stop offset="0" stop-color="#fff"/><stop offset="0.01" stop-color="#fff" stop-opacity="0.96"/><stop offset="0.05" stop-color="#fff" stop-opacity="0.78"/><stop offset="0.09" stop-color="#fff" stop-opacity="0.61"/><stop offset="0.14" stop-color="#fff" stop-opacity="0.47"/><stop offset="0.2" stop-color="#fff" stop-opacity="0.34"/><stop offset="0.25" stop-color="#fff" stop-opacity="0.23"/><stop offset="0.32" stop-color="#fff" stop-opacity="0.15"/><stop offset="0.4" stop-color="#fff" stop-opacity="0.08"/><stop offset="0.49" stop-color="#fff" stop-opacity="0.03"/><stop offset="0.63" stop-color="#fff" stop-opacity="0.01"/><stop offset="1" stop-color="#fff" stop-opacity="0"/></linearGradient><linearGradient id="linear-gradient-10" x1="243.87" y1="412.96" x2="243.87" y2="135.55" xlink:href="#linear-gradient-9"/><linearGradient id="linear-gradient-11" x1="366.21" y1="716.67" x2="366.21" y2="439.26" xlink:href="#linear-gradient-9"/><linearGradient id="linear-gradient-12" x1="122.37" y1="860.51" x2="122.37" y2="583.1" xlink:href="#linear-gradient-9"/></defs><polygon class="cls-2" points="492.36 298.82 379.95 233.92 492.36 169.02 604.77 233.92 492.36 298.82"/><polygon class="cls-3" points="492.36 298.82 492.36 428.62 604.77 363.72 604.77 233.92 492.36 298.82"/><polygon class="cls-4" points="492.36 298.82 492.36 428.62 379.95 363.72 379.95 233.92 492.36 298.82"/><ellipse class="cls-5" cx="492.36" cy="233.98" rx="92.48" ry="59.09"/><ellipse class="cls-6" cx="492.36" cy="233.98" rx="107.57" ry="68.74"/><ellipse class="cls-7" cx="492.36" cy="233.98" rx="122.35" ry="78.18"/><g class="cls-8"><polygon class="cls-9" points="526.69 187.53 509.25 177.39 523.07 169.41 540.52 179.55 526.69 187.53"/><polygon class="cls-10" points="504.86 247.15 487.41 237.02 487.34 212.14 504.79 222.28 504.86 247.15"/><polygon class="cls-11" points="480.47 214.22 463.02 204.08 487.28 190.08 504.72 200.21 480.47 214.22"/><polygon class="cls-12" points="504.72 200.21 487.28 190.08 487.16 147.31 504.6 157.45 504.72 200.21"/><polygon class="cls-13" points="457.69 249.47 440.25 239.33 440.19 217.26 457.63 227.4 457.69 249.47"/><polygon class="cls-14" points="501.42 124.91 483.98 114.77 509.03 100.31 526.47 110.45 501.42 124.91"/><polygon class="cls-15" points="457.63 227.4 440.19 217.26 483.98 114.77 501.42 124.91 457.63 227.4"/><path class="cls-16" d="M526.69,187.53l13.83-8,.06,22.06-13.83,8,.07,24.88-22,12.68-.07-24.87-47.1,27.18-.06-22.06,43.79-102.49,25.05-14.46Zm-22,12.68-.12-42.76-.31.18-23.82,56.59,24.25-14"/></g><path class="cls-5" d="M418.84,342.11c4.36,7.56,12.3,11.15,17.73,8s6.3-11.8,1.93-19.36-12.3-11.15-17.74-8S414.47,334.55,418.84,342.11Z"/><path class="cls-17" d="M414.26,344.75c6.4,11.08,18,16.34,26,11.74s9.22-17.3,2.83-28.38-18-16.33-26-11.74S407.87,333.67,414.26,344.75Z"/><path class="cls-18" d="M408.67,348c8.88,15.38,25,22.68,36.08,16.3s12.8-24,3.92-39.4-25-22.67-36.08-16.3S399.79,332.6,408.67,348Z"/><line class="cls-19" x1="343.22" y1="386.69" x2="428.67" y2="336.43"/><polygon class="cls-2" points="244.22 434.37 131.81 369.47 244.22 304.57 356.63 369.47 244.22 434.37"/><polygon class="cls-20" points="244.22 434.37 244.22 564.17 356.63 499.27 356.63 369.47 244.22 434.37"/><polygon class="cls-21" points="244.22 434.37 244.22 564.17 131.81 499.27 131.81 369.47 244.22 434.37"/><ellipse class="cls-5" cx="244.22" cy="369.53" rx="92.48" ry="59.09"/><ellipse class="cls-6" cx="244.22" cy="369.53" rx="107.57" ry="68.74"/><ellipse class="cls-7" cx="244.22" cy="369.53" rx="122.35" ry="78.18"/><g class="cls-8"><path class="cls-22" d="M256.18,332l-17.45-10.14c1.83,1.07,2.94,3.48,3,7.89a27.21,27.21,0,0,1-.87,6.88l0,.13a26.85,26.85,0,0,1-2.66,6.53l0,.06a28,28,0,0,1-4.5,5.87l-.06.06a30.86,30.86,0,0,1-6.42,4.89,28,28,0,0,1-3.63,1.78c-.17.07-.32.11-.49.17a16.16,16.16,0,0,1-2.8.81l-.1,0a8.67,8.67,0,0,1-2.63,0h-.08a6.26,6.26,0,0,1-2.18-.75h0l17.44,10.13.07,0c.2.11.41.21.62.3a5,5,0,0,0,.65.23c.23.07.46.12.71.17h.22a5,5,0,0,0,.56.07,6.76,6.76,0,0,0,.9,0,8.71,8.71,0,0,0,1.1-.11h.06l.1,0c.41-.07.83-.16,1.27-.28s1-.34,1.54-.53c.17-.06.32-.1.48-.17l.21-.07a27.37,27.37,0,0,0,3.42-1.72,30.94,30.94,0,0,0,6.35-4.8.3.3,0,0,1,.08-.08l.05-.06c.47-.47.92-.95,1.35-1.43s.68-.81,1-1.23.54-.71.79-1.07.45-.67.67-1,.39-.63.58-.95l.11-.19,0-.06c.13-.23.26-.46.38-.69s.33-.63.49-1l.45-1c.15-.35.29-.7.43-1.06s.28-.77.41-1.16.28-.88.41-1.32c0-.12.05-.24.08-.36a.57.57,0,0,0,0-.14c.09-.36.19-.73.27-1.09.15-.74.28-1.48.37-2.22a26.64,26.64,0,0,0,.23-3.57C259.11,335.5,258,333.08,256.18,332Z"/><g class="cls-8"><g class="cls-23"><g class="cls-8"><path class="cls-24" d="M261.66,312.52l-17.44-10.13.32-.14L262,312.39l-.32.13"/><path class="cls-25" d="M262,312.39l-17.44-10.14a23.09,23.09,0,0,1,2.85-1l17.44,10.14a23.68,23.68,0,0,0-2.85,1"/><path class="cls-26" d="M264.83,311.4l-17.44-10.14a18.32,18.32,0,0,1,2.05-.43L266.89,311a18.57,18.57,0,0,0-2.06.44"/><path class="cls-27" d="M266.89,311l-17.45-10.13a14,14,0,0,1,1.66-.17l17.44,10.14a15.86,15.86,0,0,0-1.65.16"/><path class="cls-28" d="M268.54,310.8,251.1,300.66a13.58,13.58,0,0,1,1.43,0L270,310.81a13.79,13.79,0,0,0-1.44,0"/><path class="cls-29" d="M270,310.81l-17.45-10.14c.45,0,.88.08,1.3.15L271.27,311q-.63-.1-1.29-.15"/><path class="cls-30" d="M271.27,311l-17.44-10.14a11.64,11.64,0,0,1,1.2.28l17.45,10.14a9.28,9.28,0,0,0-1.21-.28"/><path class="cls-31" d="M272.48,311.24,255,301.1a11,11,0,0,1,1.14.4l17.45,10.14a9.05,9.05,0,0,0-1.14-.4"/><path class="cls-32" d="M273.62,311.64,256.17,301.5a10,10,0,0,1,1.09.54l17.45,10.13c-.36-.2-.72-.37-1.09-.53"/><path class="cls-33" d="M274.71,312.17,257.26,302l.12.06,17.44,10.14-.11-.07"/></g></g></g><polygon class="cls-34" points="204.47 379.55 187.03 369.42 211.11 349.06 228.55 359.19 204.47 379.55"/><path class="cls-35" d="M204.47,379.55,187,369.42c1.67,7.35,4.83,12.11,9.13,14.61l17.45,10.14C209.31,391.67,206.15,386.91,204.47,379.55Z"/><polygon class="cls-36" points="232.46 340.93 215.01 330.8 214.95 308.01 232.39 318.14 232.46 340.93"/><path class="cls-37" d="M257,292.81a21.14,21.14,0,0,0,.16-2.79,9.61,9.61,0,0,0-.82-4.15,5.53,5.53,0,0,0-2.25-2.51l-17.44-10.14c1.91,1.11,3.06,3.36,3.07,6.66a21.9,21.9,0,0,1-.38,4,1.57,1.57,0,0,1,0,.23,20.08,20.08,0,0,1-1.09,3.68l0,.08a21.72,21.72,0,0,1-1.7,3.33l-.06.1a27.58,27.58,0,0,1-2.13,2.92c-.06.06-.11.13-.17.2a29.73,29.73,0,0,1-2.13,2.22,39.73,39.73,0,0,1-4.18,3.5l-.91.64c-1.49,1-3,2-4.52,2.9L215,308l17.44,10.13,7.43-4.28c1.51-.87,3-1.86,4.51-2.9l.93-.65a42,42,0,0,0,4.18-3.49c.09-.09.21-.16.31-.26.56-.55,1.1-1.13,1.62-1.72l.19-.24.18-.21c.21-.26.43-.51.64-.78s.5-.66.74-1,.41-.6.6-.9c.05-.08.1-.16.14-.24a.61.61,0,0,0,.07-.1l.3-.5c.15-.26.3-.52.44-.78s.27-.53.4-.79.25-.53.36-.8.13-.3.19-.45a1,1,0,0,1,0-.1c0-.1.08-.19.11-.28.12-.3.22-.6.33-.9s.21-.68.31-1,.21-.81.3-1.23a4231154566053.48,4231154566053.48,0,0,0,.08-.46C256.86,293.65,256.94,293.24,257,292.81Z"/><path class="cls-16" d="M243.55,260.69c19.2-11.09,36.45-10.41,36.52,13.47,0,13.62-6.49,28.12-18.41,37.82v.54c13-5.57,20.35,2.81,20.39,17.15.07,24.88-17.6,47.35-38.77,59.58-19.2,11.09-34.32,10-38.81-9.7l24.08-20.36c1.53,7.85,6.28,10.74,16,5.13,9.88-5.7,14.6-15.06,14.58-24.42,0-14-11.11-7.95-21.38-2l-5.29,3.05-.07-22.79,7.43-4.28C248.2,309,257.2,301.73,257.16,290c0-7.54-6-9.56-13.47-5.23-7.11,4.11-12,12-13.32,19.24l-25.22,8.65C209.83,288.34,225.22,271.27,243.55,260.69Z"/><path class="cls-38" d="M259.13,254.39c.25,0,.51-.12.76-.16a24,24,0,0,1,6.51-.35l.28,0a14.46,14.46,0,0,1,5.66,1.77l-.07,0,.07,0L254.9,245.55l-.15-.09a11.37,11.37,0,0,0-1.36-.66,12.08,12.08,0,0,0-1.5-.53,15.21,15.21,0,0,0-1.68-.39c-.32,0-.65-.07-1-.11l-.29,0-.67-.08a21.62,21.62,0,0,0-2.28,0,25.45,25.45,0,0,0-2.81.28c-.24,0-.5.12-.74.16l-.77.17c-.72.14-1.42.26-2.16.46a44.39,44.39,0,0,0-4.36,1.51c-.33.12-.64.2-1,.33l-.29.1a67.37,67.37,0,0,0-7.8,3.89,89.35,89.35,0,0,0-8.2,5.42c-.76.55-1.49,1.13-2.23,1.71-2,1.6-4,3.31-5.92,5.11-.43.39-.91.72-1.32,1.13-.26.26-.5.54-.76.81-.46.46-.89.95-1.34,1.43-.64.68-1.3,1.33-1.92,2-.86,1-1.7,2-2.52,3.07,0,.05-.09.1-.13.16l-.07.08c-.72.92-1.41,1.87-2.09,2.83s-1.19,1.73-1.75,2.62l-.62,1c-.09.15-.18.31-.28.46-.21.35-.43.69-.64,1.05-.47.81-.93,1.63-1.37,2.47s-.87,1.67-1.28,2.52c-.16.32-.3.65-.45,1-.06.15-.13.29-.19.43-.19.41-.39.82-.57,1.23-.39.92-.78,1.86-1.14,2.81s-.76,2.05-1.11,3.1c-.06.18-.11.37-.17.56s-.11.35-.17.53c-.26.83-.53,1.66-.76,2.51-.41,1.46-.77,2.95-1.09,4.47-.11.49-.2,1-.3,1.46h0l17.44,10.14a74.59,74.59,0,0,1,2.16-8.45c.05-.18.11-.36.16-.54a74.33,74.33,0,0,1,3-7.69c.07-.14.13-.29.2-.43a72,72,0,0,1,3.74-7c.09-.16.18-.31.28-.46a72,72,0,0,1,4.52-6.53l.14-.18c1.4-1.78,2.9-3.46,4.43-5.1.45-.47.89-1,1.35-1.43.66-.67,1.38-1.29,2.07-1.94,1.9-1.8,3.88-3.5,5.92-5.1.74-.58,1.48-1.16,2.23-1.72a91.51,91.51,0,0,1,8.21-5.41,65.65,65.65,0,0,1,8.09-4c.33-.14.64-.21,1-.34A42.46,42.46,0,0,1,259.13,254.39Z"/></g><path class="cls-5" d="M310.25,476.61c-4.36,7.56-12.3,11.15-17.73,8s-6.3-11.81-1.93-19.37,12.3-11.15,17.74-8S314.62,469.05,310.25,476.61Z"/><path class="cls-17" d="M314.83,479.25c-6.4,11.08-18,16.34-26,11.74s-9.22-17.3-2.83-28.37,18-16.34,26-11.74S321.22,468.17,314.83,479.25Z"/><path class="cls-18" d="M320.42,482.48c-8.88,15.38-25,22.68-36.08,16.3s-12.8-24-3.92-39.39,25-22.68,36.08-16.3S329.3,467.1,320.42,482.48Z"/><path class="cls-19" d="M359.24,745.53l158.44-91c22.72-13,22.71-45.83,0-58.87L300.42,470.93"/><polygon class="cls-2" points="366.56 738.09 254.15 673.18 366.56 608.28 478.97 673.18 366.56 738.09"/><polygon class="cls-39" points="366.56 738.09 366.56 867.88 478.97 802.99 478.97 673.18 366.56 738.09"/><polygon class="cls-40" points="366.56 738.09 366.56 867.88 254.15 802.99 254.15 673.18 366.56 738.09"/><ellipse class="cls-5" cx="366.56" cy="673.24" rx="92.48" ry="59.09"/><ellipse class="cls-6" cx="366.56" cy="673.24" rx="107.57" ry="68.74"/><ellipse class="cls-7" cx="366.56" cy="673.24" rx="122.35" ry="78.18"/><g class="cls-8"><polygon class="cls-41" points="355.76 660.44 338.32 650.31 386.2 622.66 403.65 632.8 355.76 660.44"/><polygon class="cls-42" points="328.41 699.43 310.97 689.29 310.89 661.41 328.33 671.55 328.41 699.43"/><path class="cls-43" d="M376.49,574,359,563.89c2,1.14,3.18,3.51,3.19,7.22a20.53,20.53,0,0,1-.87,5.72l0,.1a38.72,38.72,0,0,1-2.22,5.7l-.07.16c-.86,1.8-1.84,3.58-2.85,5.33-.11.2-.22.41-.34.6-1,1.8-2.11,3.56-3.13,5.25l-41.83,67.44,17.44,10.14,41.84-67.44c1-1.64,2-3.33,3-5.07a1.62,1.62,0,0,1,.1-.18c.12-.2.22-.4.34-.6.53-.93,1.07-1.87,1.57-2.82.41-.76.81-1.54,1.18-2.31l.09-.2.08-.17c.23-.49.46-1,.68-1.48s.45-1.06.66-1.6.36-1,.53-1.48.23-.75.34-1.13l0-.1a1.17,1.17,0,0,1,.06-.2c.14-.5.26-1,.36-1.49s.22-1.14.3-1.71a18.19,18.19,0,0,0,.15-2.32C379.67,577.53,378.45,575.17,376.49,574Z"/><path class="cls-44" d="M333,591.75l0-.06a71.15,71.15,0,0,1,3.47-8.46l.09-.18a70.52,70.52,0,0,1,4.38-7.66l.27-.4a74.86,74.86,0,0,1,5-6.72c.16-.18.3-.37.46-.55,1.65-1.93,3.43-3.74,5.26-5.5,1.58-1.51,3.26-2.91,5-4.29.83-.67,1.6-1.39,2.46-2a79.91,79.91,0,0,1,8.12-5.39,56.25,56.25,0,0,1,7.4-3.61c.41-.17.79-.27,1.2-.42a35.09,35.09,0,0,1,6-1.72l.32-.07a21,21,0,0,1,6-.17l.27,0a14.44,14.44,0,0,1,5.21,1.73l-17.45-10.14-.15-.08a13.75,13.75,0,0,0-1.39-.68,15,15,0,0,0-1.51-.53,14.18,14.18,0,0,0-1.65-.38l-.51-.06-.26,0c-.36,0-.72-.1-1.09-.12a19,19,0,0,0-2.14,0c-.84,0-1.71.13-2.6.26l-.22,0-.31.07c-.92.16-1.84.34-2.79.6s-2.15.72-3.24,1.12c-.41.15-.8.25-1.21.42l-.53.18a59.25,59.25,0,0,0-6.86,3.43,82.35,82.35,0,0,0-8.13,5.39c-.85.64-1.63,1.37-2.46,2-1.7,1.38-3.37,2.77-4.95,4.28-.26.25-.56.45-.81.7q-2.1,2.09-4,4.3l-.41.51-.45.54c-.62.74-1.24,1.47-1.83,2.23-.73.94-1.44,1.89-2.12,2.87-.37.53-.73,1.07-1.09,1.62l-.27.4-.42.62c-.53.84-1.05,1.68-1.54,2.54s-.94,1.64-1.38,2.47c-.36.67-.69,1.35-1,2l-.1.19c-.05.1-.1.19-.14.29-.42.85-.81,1.71-1.19,2.59s-.76,1.81-1.11,2.73-.7,1.89-1,2.84l0,.06a.14.14,0,0,1,0,.06c-.37,1.12-.72,2.25-1,3.39q-.57,2-1,4.14c-.07.32-.1.66-.17,1-.09.49-.16,1-.25,1.49-.19,1.08-.41,2.16-.56,3.27q-.33,2.67-.48,5.4l17.45,10.14a70.41,70.41,0,0,1,1-8.69c.08-.49.15-1,.25-1.47A69.22,69.22,0,0,1,333,591.75Z"/><path class="cls-16" d="M367.56,550.51c19.68-11.36,35-7.73,35,17.15.05,15.89-5.93,28.52-14.13,41.44l-32.7,51.34,47.89-27.64.06,23.15-75.3,43.48-.08-27.88,41.84-67.44c4.25-7.09,9.53-15.32,9.51-22.86,0-8.44-6.28-9.92-13.31-5.86-8.38,4.83-13.34,14.52-13.94,23.87l-22.92,11.23C330.86,584.16,346.39,562.73,367.56,550.51Z"/></g><path class="cls-5" d="M296.77,781.37c4.37,7.56,12.31,11.15,17.74,8s6.29-11.81,1.93-19.37-12.31-11.15-17.74-8S292.4,773.81,296.77,781.37Z"/><path class="cls-17" d="M292.2,784c6.39,11.08,18,16.34,26,11.74s9.23-17.3,2.83-28.37S303,751,295,755.63,285.8,772.93,292.2,784Z"/><path class="cls-18" d="M286.6,787.24c8.88,15.38,25,22.68,36.08,16.3s12.81-24,3.93-39.39-25-22.68-36.08-16.3S277.72,771.86,286.6,787.24Z"/><line class="cls-19" x1="185.78" y1="845.29" x2="305.7" y2="776.05"/><polygon class="cls-2" points="122.72 881.93 10.31 817.03 122.72 752.13 235.13 817.03 122.72 881.93"/><polygon class="cls-45" points="122.72 881.93 122.72 1011.73 235.13 946.83 235.13 817.03 122.72 881.93"/><polygon class="cls-46" points="122.72 881.93 122.72 1011.73 10.31 946.83 10.31 817.03 122.72 881.93"/><ellipse class="cls-5" cx="122.72" cy="817.09" rx="92.48" ry="59.09"/><ellipse class="cls-6" cx="122.72" cy="817.09" rx="107.57" ry="68.74"/><ellipse class="cls-7" cx="122.72" cy="817.09" rx="122.35" ry="78.18"/><g class="cls-8"><polygon class="cls-47" points="128.32 837.65 110.88 827.51 110.61 732.91 128.06 743.05 128.32 837.65"/><polygon class="cls-48" points="128.6 713.26 111.16 703.13 132.49 690.81 149.94 700.95 128.6 713.26"/><polygon class="cls-49" points="93.46 767.75 76.02 757.61 111.16 703.13 128.6 713.26 93.46 767.75"/><polygon class="cls-50" points="106.47 777.43 89.02 767.29 76.02 757.61 93.46 767.75 106.47 777.43"/><polygon class="cls-16" points="149.94 700.95 150.29 824.97 128.32 837.65 128.06 743.05 106.47 777.43 93.46 767.75 128.6 713.26 149.94 700.95"/></g><g class="cls-51"><path class="cls-52" d="M492.85,277.4c44.82-.72,80.79-24.53,80.33-53.17L573.13,0,410.84,3.57V226.83C411.31,255.48,448,278.11,492.85,277.4Z"/><path class="cls-53" d="M244.7,412.94c44.83-.72,80.79-24.52,80.34-53.16L325,135.55l-162.3,3.57,0,223.26C163.17,391,199.88,413.66,244.7,412.94Z"/><path class="cls-54" d="M367.05,716.66c44.83-.72,80.79-24.52,80.33-53.17l0-224.23L285,442.83l0,223.27C285.52,694.74,322.23,717.37,367.05,716.66Z"/><path class="cls-55" d="M123.21,860.5C168,859.78,204,836,203.54,807.33l0-224.23L41.2,586.68l0,223.26C41.68,838.58,78.39,861.22,123.21,860.5Z"/></g></svg>