<svg id="Layer_1" data-name="Layer 1" xmlns="http://www.w3.org/2000/svg" xmlns:xlink="http://www.w3.org/1999/xlink" viewBox="0 0 986.08 716.52"><defs><style>.cls-1,.cls-14,.cls-15,.cls-16{fill:none;}.cls-2{fill:#1769bc;}.cls-21,.cls-3{fill:#2e8dff;}.cls-4{fill:#0024a5;}.cls-11,.cls-13,.cls-5{fill:#fff;}.cls-5{opacity:0.78;}.cls-6{fill:#0f5996;}.cls-26,.cls-7{fill:#fffdfc;}.cls-8{fill:#f7931a;}.cls-10,.cls-9{opacity:0.69;}.cls-9{fill:url(#linear-gradient);}.cls-10{fill:url(#linear-gradient-2);}.cls-11,.cls-12{opacity:0.72;}.cls-14,.cls-15,.cls-16{stroke:#f7931a;stroke-linecap:round;stroke-linejoin:round;stroke-width:4px;}.cls-15{stroke-dasharray:12.27 12.27;}.cls-16{stroke-dasharray:12;}.cls-17{fill:#2b333f;}.cls-18{fill:#373f51;}.cls-19{fill:#1e232b;}.cls-20{fill:#0472cf;}.cls-20,.cls-21,.cls-22,.cls-23,.cls-24,.cls-25,.cls-26{fill-rule:evenodd;}.cls-22{fill:#4a9cff;}.cls-23{fill:#004179;}.cls-24{fill:url(#radial-gradient);}.cls-25{fill:#4accff;}.cls-27{clip-path:url(#clip-path);}.cls-28{clip-path:url(#clip-path-2);}.cls-29{clip-path:url(#clip-path-3);}.cls-30{clip-path:url(#clip-path-4);}.cls-31{clip-path:url(#clip-path-5);}.cls-32{clip-path:url(#clip-path-6);}.cls-33{fill:#a3e5ff;}</style><linearGradient id="linear-gradient" x1="467.35" y1="85.71" x2="812.15" y2="85.71" gradientUnits="userSpaceOnUse"><stop offset="0" stop-color="#fff"/><stop offset="1" stop-color="#1769e0"/></linearGradient><linearGradient id="linear-gradient-2" x1="569.62" y1="329.8" x2="893.88" y2="634.26" xlink:href="#linear-gradient"/><radialGradient id="radial-gradient" cx="249.76" cy="292.68" r="173.17" gradientUnits="userSpaceOnUse"><stop offset="0" stop-color="#0472cf"/><stop offset="1" stop-color="#0751bd"/></radialGradient><clipPath id="clip-path"><path class="cls-1" d="M133.14,144c-.66-33.14-27.83-62.26-62.26-62.26S9.27,111,8.63,144C8,178.28,35.86,209,71.21,208.81,106.28,208.64,133.81,178.1,133.14,144Z"/></clipPath><clipPath id="clip-path-2"><path class="cls-1" d="M185,312.35c-.95-24.7-21.17-47.66-47.66-47.66s-46.74,23-47.67,47.66c-1,26.49,20.38,51.79,48.08,51.56C165.11,363.68,186,338.59,185,312.35Z"/></clipPath><clipPath id="clip-path-3"><path class="cls-1" d="M451.15,183.84c-.62-28.29-23.84-53.44-53.44-53.44s-52.81,25.09-53.43,53.44c-.64,29.25,22.93,55.68,53.1,55.87C427.82,239.89,451.79,213.27,451.15,183.84Z"/></clipPath><clipPath id="clip-path-4"><path class="cls-1" d="M290.25,95.57c-.47-15.44-13.12-29.48-29.48-29.48s-29,14.06-29.48,29.48C230.8,111.86,244,127.05,261,126.94S290.74,111.75,290.25,95.57Z"/></clipPath><clipPath id="clip-path-5"><path class="cls-1" d="M278.52,462.62c-.73-30.32-25.59-57.31-57.32-57.31s-56.6,27.06-57.31,57.31c-.74,31.62,25,60.4,57.74,60.16C254,522.54,279.27,494,278.52,462.62Z"/></clipPath><clipPath id="clip-path-6"><path class="cls-1" d="M431.1,373.1C430.5,350.89,412.3,331,389,331s-41.54,20-42.12,42.12c-.61,23.36,18.48,44.78,42.67,44.47C413.28,417.27,431.71,396.14,431.1,373.1Z"/></clipPath></defs><path class="cls-2" d="M163.73,146.8v-71A28.83,28.83,0,0,1,192.56,47H835.85a28.82,28.82,0,0,1,28.82,28.83v71Z"/><path class="cls-3" d="M164.5,116.35a69.58,69.58,0,0,0-.77,10.28V556.26a28.21,28.21,0,0,0,28.21,28.2H796.17a68.5,68.5,0,0,0,68.5-68.5V126.63a69.58,69.58,0,0,0-.76-10.28Z"/><path class="cls-4" d="M864.67,379.56V516a68.5,68.5,0,0,1-68.5,68.5H647.29V412.69a33.13,33.13,0,0,1,33.14-33.13Z"/><path class="cls-4" d="M509,35.34H751.12a51.33,51.33,0,0,1,51.33,51.33v15.19a58.07,58.07,0,0,1-58.07,58.07H515.72a58.07,58.07,0,0,1-58.07-58.07V86.66A51.33,51.33,0,0,1,509,35.34Z"/><rect class="cls-5" x="212.78" y="74.11" width="179.5" height="24.74" rx="12.37"/><path class="cls-6" d="M790.62,259.18l36.07-9.52a85.89,85.89,0,0,0-83.39-65.38v37.3A48.57,48.57,0,0,1,790.62,259.18Z"/><path class="cls-7" d="M694.73,270.14a48.56,48.56,0,0,1,48.57-48.56v-37.3a85.86,85.86,0,0,0-65.9,140.9l28-24.73A48.38,48.38,0,0,1,694.73,270.14Z"/><path class="cls-8" d="M826.69,249.66l-36.07,9.52a48.57,48.57,0,0,1-85.27,41.27l-28,24.73a85.88,85.88,0,0,0,149.29-75.52Z"/><path class="cls-6" d="M509.56,272.71l-37.18,3.09a85.88,85.88,0,0,0,70.75,78.89L549.62,318A48.57,48.57,0,0,1,509.56,272.71Z"/><path class="cls-7" d="M605.89,278.59A48.56,48.56,0,0,1,549.62,318l-6.49,36.73a85.86,85.86,0,0,0,89.4-127.29L600.7,246.89A48.39,48.39,0,0,1,605.89,278.59Z"/><path class="cls-8" d="M472.38,275.8l37.18-3.09a48.57,48.57,0,0,1,91.14-25.82l31.83-19.49a85.88,85.88,0,0,0-160.15,48.4Z"/><rect class="cls-9" x="467.35" y="24.63" width="344.8" height="122.17" rx="54.55"/><circle class="cls-8" cx="828.14" cy="79.05" r="19.03"/><path class="cls-2" d="M986.08,423.88a33.13,33.13,0,0,0-33.14-33.13H701a33.13,33.13,0,0,0-33.13,33.13v21.29H986.08Z"/><path class="cls-10" d="M667.9,445.17V683.39A33.13,33.13,0,0,0,701,716.52H952.94a33.13,33.13,0,0,0,33.14-33.13V445.17Z"/><circle class="cls-6" cx="877.42" cy="417.96" r="9.13"/><circle class="cls-6" cx="913.78" cy="417.96" r="9.13"/><circle class="cls-6" cx="950.14" cy="417.96" r="9.13"/><rect class="cls-11" x="684.85" y="464.01" width="97.62" height="107.32" rx="41.17"/><rect class="cls-2" x="721.69" y="506.67" width="22.44" height="45.74" rx="11.22"/><circle class="cls-2" cx="732.91" cy="489.82" r="10.38"/><rect class="cls-11" x="802.16" y="487.25" width="166.12" height="10.56" rx="5.28"/><rect class="cls-11" x="802.16" y="522.93" width="166.12" height="10.56" rx="5.28"/><rect class="cls-11" x="802.16" y="558.61" width="166.12" height="10.56" rx="5.28"/><rect class="cls-11" x="684.85" y="590.74" width="280.68" height="97.5" rx="41.44"/><rect class="cls-2" x="505.03" y="446.12" width="35.77" height="35.77" rx="10.24"/><rect class="cls-2" x="550.12" y="448.31" width="97.17" height="8.47" rx="4.23"/><rect class="cls-2" x="550.12" y="473.43" width="97.17" height="8.47" rx="4.23"/><rect class="cls-6" x="505.03" y="506.67" width="35.77" height="35.77" rx="10.24"/><rect class="cls-6" x="550.12" y="507.77" width="97.17" height="8.47" rx="4.23"/><rect class="cls-6" x="550.12" y="532.89" width="97.17" height="8.47" rx="4.23"/><circle class="cls-8" cx="654.96" cy="655.25" r="12.94"/><g class="cls-12"><path class="cls-13" d="M777.27,131h-287a2.05,2.05,0,0,1-2.05-2.05V41a2.05,2.05,0,1,1,4.1,0v85.86h285a2.05,2.05,0,1,1,0,4.1Z"/></g><g class="cls-12"><path class="cls-13" d="M637.44,107.79c-19.71,0-31.44-14.2-41.93-26.9-12.66-15.32-22.65-27.42-42.8-10.82-41.45,34.16-62.57,24.62-63.44,24.2a1.68,1.68,0,0,1,1.44-3c.05,0,5,2.26,14.81.51,9.12-1.64,24.33-7.18,45.06-24.27,22.73-18.73,34.77-4.16,47.51,11.27,11.34,13.73,24.19,29.29,47.25,24.92,21-4,32.92-14.71,44.43-25.08,7.78-7,15.82-14.26,26.47-19.18,11.93-5.51,26-7.47,42.9-6a1.68,1.68,0,1,1-.29,3.34C722.52,53.59,707.7,66.94,692,81.08,680.17,91.76,667.91,102.8,646,107A45.6,45.6,0,0,1,637.44,107.79Z"/></g><line class="cls-14" x1="839.94" y1="81.54" x2="845.94" y2="81.54"/><path class="cls-15" d="M858.21,81.54h36.62a16.83,16.83,0,0,1,16.84,16.83V265.86a16.84,16.84,0,0,1-16.84,16.84H814.3"/><line class="cls-14" x1="808.16" y1="282.7" x2="802.16" y2="282.7"/><polyline class="cls-16" points="647.29 655.25 522.91 655.25 522.91 552.41"/><path class="cls-17" d="M438.69,52.92V593.54a48.88,48.88,0,0,1-48.87,48.88H140.06A34.78,34.78,0,0,1,116,632.8l-.08-.07-15.25-14a34.64,34.64,0,0,0,19,5.61H383.4a34.88,34.88,0,0,0,34.88-34.87V34.87a34.8,34.8,0,0,0-10.37-24.81l19.17,16.6-.07.22A34.79,34.79,0,0,1,438.69,52.92Z"/><path class="cls-18" d="M418.28,34.87V589.5a34.88,34.88,0,0,1-34.88,34.87H119.63A34.88,34.88,0,0,1,92.16,611h0a34.7,34.7,0,0,1-7.39-21.46V34.87A34.87,34.87,0,0,1,119.63,0H383.4a34.86,34.86,0,0,1,34.88,34.87Z"/><path class="cls-19" d="M118.36,10.92H382.61a24.95,24.95,0,0,1,24.95,24.95v552.9a25.14,25.14,0,0,1-25.14,25.14H120.27a25.14,25.14,0,0,1-25.14-25.14V34.14a23.23,23.23,0,0,1,23.23-23.23Z"/><path class="cls-20" d="M453.52,294.62v.24c0,1.08,0,2.17,0,3.26,0,2.41-.13,4.83-.26,7.24q-.12,2.31-.3,4.62c-.3,3.87-.71,7.75-1.24,11.61q-.62,4.55-1.46,9.07c-.32,1.8-.68,3.59-1.05,5.38-.83,3.94-1.8,7.87-2.88,11.78a197.26,197.26,0,0,1-10.15,28.29,200.77,200.77,0,0,1-9.42,18.55c-.08.15-.16.3-.25.45-.71,1.22-1.43,2.44-2.16,3.64A201.55,201.55,0,0,1,251.51,496h-.24c-.58,0-1.15,0-1.73,0h0a202.32,202.32,0,0,1-139.78-58.53,198.16,198.16,0,0,1-23.44-27.93,200.5,200.5,0,0,1-16.63-28.73c-.57-1.16-1.1-2.34-1.63-3.51A202.64,202.64,0,0,1,50.16,294v-.23c0-.57,0-1.13,0-1.69V292c0-3.59.15-7.19.37-10.78a200.46,200.46,0,0,1,16.33-67.28c.53-1.22,1.06-2.42,1.64-3.62q3.31-7.28,7.28-14.37c.46-.82.92-1.63,1.4-2.46s1-1.73,1.53-2.59a200.61,200.61,0,0,1,48.37-55.08q7.38-5.82,15.23-10.87a202.42,202.42,0,0,1,87.07-31,205.59,205.59,0,0,1,22.76-1.27h.24c5.67,0,11.36.26,17,.77a200.16,200.16,0,0,1,71.85,20.2q5.74,2.85,11.36,6.09a200.7,200.7,0,0,1,82.51,90.63c.56,1.2,1.09,2.41,1.62,3.62a202.86,202.86,0,0,1,16.73,80.71Z"/><path class="cls-21" d="M77.21,193.46a160.33,160.33,0,1,1,58.68,219A160.33,160.33,0,0,1,77.21,193.46Z"/><path class="cls-22" d="M77.31,193.52a108.31,108.31,0,1,1,39.65,148A108.31,108.31,0,0,1,77.31,193.52Z"/><path class="cls-23" d="M375.74,288.36q-.21-11.61-1.25-23.07Q373.3,252,371,239.08c-.25-1.44-.51-2.89-.79-4.33q-1.49-7.83-3.36-15.46-1.42-5.81-3.09-11.47c-.52-1.83-1.07-3.64-1.63-5.44-.83-2.65-1.71-5.27-2.61-7.87-.68-1.95-1.39-3.88-2.11-5.81-.94-2.49-1.91-5-2.92-7.39-.87-2.09-1.76-4.15-2.68-6.2s-1.83-4-2.78-5.92c-1.26-2.61-2.56-5.18-3.92-7.69A171.11,171.11,0,0,0,321.92,128c-.79-.91-1.62-1.79-2.44-2.66-.63-.68-1.27-1.34-1.92-2-1.23-1.26-2.49-2.48-3.76-3.68a121.05,121.05,0,0,0-11.56-9.61c-11.76-8.55-24-13.88-36.31-16.16a77.37,77.37,0,0,0-11.8-1.26A69.46,69.46,0,0,1,265.65,94c12.25,2.45,24.42,8.23,36.09,17.56a118.29,118.29,0,0,1,9.11,8.12c.61.6,1.23,1.23,1.84,1.85q1.8,1.86,3.56,3.82l.49.53a164.65,164.65,0,0,1,20.65,29.43q1.32,2.37,2.58,4.8a226.17,226.17,0,0,1,11.68,26.5c.07.19.14.37.2.56.35.94.69,1.89,1,2.84s.58,1.63.85,2.44q1.33,3.88,2.56,7.85a300.87,300.87,0,0,1,9.16,39.28c.28,1.69.55,3.38.79,5.09.15.94.28,1.88.41,2.83.66,4.71,1.23,9.47,1.68,14.25q.3,3.12.55,6.25a344.23,344.23,0,0,1,.39,47.22c-.09,1.6-.2,3.21-.32,4.81l-.21,2.64c-.38,4.53-.84,9.06-1.41,13.57-.12,1-.23,1.9-.36,2.85q-1.24,9.27-3,18.42a290.07,290.07,0,0,1-8.28,32.72c-.52,1.65-1.05,3.27-1.6,4.9-.12.36-.24.71-.37,1.06-.67,2-1.37,3.93-2.08,5.84q-2.88,7.86-6.15,15.11-1.65,3.66-3.37,7.14c-22.31,45.35-54.8,70.64-88.23,71.67,37.36-1.05,73.6-29.56,97.06-80.48,1-2.21,2-4.47,3-6.78q1.81-4.28,3.51-8.77c.6-1.58,1.18-3.17,1.75-4.79l.36-1,.18-.53c.84-2.42,1.66-4.86,2.43-7.31a290.45,290.45,0,0,0,10.13-44.13l.42-2.81q1-6.93,1.63-13.92c.16-1.57.3-3.14.43-4.71C375.61,309.91,375.94,299.11,375.74,288.36ZM161.66,424.46A229.72,229.72,0,0,1,152,402c-.71-1.92-1.4-3.87-2.07-5.83a287.42,287.42,0,0,1-9.54-35.38c-.25-1.2-.49-2.41-.72-3.62q-.58-3-1.1-6.06a.25.25,0,0,1,0-.07q-2.19-12.79-3.39-26c-.17-1.89-.32-3.8-.47-5.71-.67-9.09-1-18.27-.91-27.48,0-3.42.08-6.84.21-10.27.05-1.27.1-2.55.17-3.82a333.83,333.83,0,0,1,3.39-34.17c.19-1.25.39-2.51.6-3.76q2-12.26,5-24.21c.3-1.19.6-2.38.92-3.56q2.43-9.32,5.48-18.37a1.59,1.59,0,0,0,.07-.2l.36-1.06c.26-.75.52-1.5.79-2.25.41-1.21.85-2.4,1.3-3.59a229.45,229.45,0,0,1,9.32-21.88q3.06-6.24,6.37-12c.52-.91,1.05-1.81,1.57-2.69q3.33-5.52,6.84-10.54a135.86,135.86,0,0,1,22.5-25.23,91.25,91.25,0,0,1,31.2-18.07,71.87,71.87,0,0,1,20-3.53,78.48,78.48,0,0,0-20,3.21,97,97,0,0,0-34.27,18.76,138.59,138.59,0,0,0-23.1,24.76q-3.75,5.07-7.26,10.65c-.55.89-1.11,1.78-1.65,2.68-1.83,3-3.6,6.15-5.33,9.38a228,228,0,0,0-12,26.59c-.6,1.58-1.18,3.18-1.76,4.79-.12.34-.24.67-.34,1,0,.1-.08.21-.11.31-1.47,4.18-2.83,8.42-4.08,12.69a288.26,288.26,0,0,0-7.16,30.47c-.22,1.19-.42,2.38-.62,3.57a317.66,317.66,0,0,0-3.95,37.2c-.06,1.21-.1,2.42-.15,3.63q-.08,2.09-.12,4.17c-.2,8.76,0,17.52.44,26.2.1,1.87.22,3.74.37,5.6.76,10.35,2,20.57,3.76,30.58q.59,3.51,1.29,7c.07.44.15.87.25,1.29.24,1.21.49,2.42.76,3.62a276.49,276.49,0,0,0,9.28,33.3c.67,1.94,1.37,3.86,2.1,5.78a0,0,0,0,0,0,0c.32.88.66,1.76,1,2.63,2.66,6.86,5.61,13.48,8.81,19.81,9.19,18.22,20.52,34.11,33.82,46.6,18.84,17.7,39.35,26.44,59.67,27-19.31-.63-38.8-9.35-56.72-27C180.67,456.92,170.23,441.79,161.66,424.46Z"/><path class="cls-23" d="M453.41,298.19a69.48,69.48,0,0,1-.77,7.17,72.94,72.94,0,0,1-4.59,16.26A83.19,83.19,0,0,1,443,332a105.72,105.72,0,0,1-16.49,21.32,147.45,147.45,0,0,1-23.28,19c-1,.68-2.05,1.36-3.1,2A211.46,211.46,0,0,1,362.4,393c-.9.35-1.79.68-2.69,1l-.18.07c-1.92.71-3.87,1.41-5.84,2.07q-10.32,3.54-21.26,6.31l-3.51.88q-12.75,3.08-26.09,5.12-2.86.43-5.74.83-4,.54-8.09,1l-2.22.23c-2.72.28-5.44.53-8.18.75C236,414.64,191.15,410.07,151,396.51l-1.07-.37c-2-.67-3.91-1.37-5.83-2.08s-4-1.5-6-2.29q-3.9-1.54-7.64-3.19c-1.48-.66-2.95-1.32-4.4-2q-2.46-1.14-4.85-2.34T116.83,382A172.19,172.19,0,0,1,87.59,362.8c-.44-.35-.87-.71-1.3-1.08s-1-.84-1.49-1.26q-4.41-3.82-8.27-7.82a109.05,109.05,0,0,1-12.39-15.22,87.23,87.23,0,0,1-8.67-16.33A72.66,72.66,0,0,1,50.2,296.3a79.56,79.56,0,0,0,5.27,26.13A90.61,90.61,0,0,0,61,334.25,113.67,113.67,0,0,0,81.2,360.36c.62.62,1.24,1.22,1.89,1.82.87.82,1.76,1.64,2.68,2.45l.52.46a171.1,171.1,0,0,0,32.12,22.15c1.87,1,3.79,2,5.74,3,1.78.9,3.61,1.79,5.45,2.64,2.64,1.25,5.35,2.45,8.1,3.6s5.62,2.31,8.53,3.41h0c1.56.59,3.15,1.18,4.76,1.74l1,.35c41.33,14.48,87.52,19,131.18,14.75l2.68-.27,3.89-.43a292.72,292.72,0,0,0,61.84-14c1.95-.68,3.89-1.39,5.81-2.11l2.29-.87c.9-.35,1.79-.71,2.69-1.08a204.68,204.68,0,0,0,40.07-21.23c1-.7,2-1.42,3-2.14a147.58,147.58,0,0,0,21-18.33A110,110,0,0,0,444,332a85.24,85.24,0,0,0,4.08-9,80.16,80.16,0,0,0,4.68-17.63c.34-2.39.58-4.79.7-7.19l.06-1.59C453.47,297.12,453.44,297.65,453.41,298.19Zm-7-36.39c-7.67-17.4-21.5-33.78-40.89-47.8l-.12-.09c-1.21-.87-2.44-1.74-3.7-2.59-.5-.35-1-.69-1.52-1a211.26,211.26,0,0,0-42.74-21.59l-2.92-1.08-1.87-.67-.81-.29-.2-.07-1.18-.4A279.92,279.92,0,0,0,314,176.35c-.9-.18-1.79-.35-2.69-.51A318.34,318.34,0,0,0,247,170.37q-3.67,0-7.33.19c-30.74,1.16-60.77,6.63-87.6,16-2,.69-3.89,1.39-5.81,2.11q-5.25,2-10.32,4.17A193.48,193.48,0,0,0,94.2,217c-1.14.88-2.27,1.77-3.37,2.67h0c-.95.78-1.88,1.55-2.79,2.33a139.68,139.68,0,0,0-10.82,10.32A112.93,112.93,0,0,0,62.85,251,89.28,89.28,0,0,0,56,264.78a80.49,80.49,0,0,0-4.78,17,76.52,76.52,0,0,0-1,10.2,68.06,68.06,0,0,1,1.08-10.1,73.14,73.14,0,0,1,4.6-15.51A84.75,84.75,0,0,1,62.93,253a108.26,108.26,0,0,1,14.28-17.7A136.75,136.75,0,0,1,90,223.92c1-.77,1.91-1.51,2.88-2.24s1.84-1.36,2.77-2c1.25-.91,2.53-1.79,3.82-2.67a195.79,195.79,0,0,1,28.85-16q7.69-3.49,15.89-6.52l.25-.08q2.76-1,5.57-2,4.62-1.59,9.36-3a317.41,317.41,0,0,1,74.14-12.66q9.5-.53,19.07-.51a332.37,332.37,0,0,1,58.76,5.26c.9.15,1.79.31,2.69.49a287.46,287.46,0,0,1,37.85,9.82l.81.27c.36.11.72.23,1.06.36l.76.26,0,0q2.55.87,5,1.8a219.88,219.88,0,0,1,34.75,16.21l1,.6c1.45.85,2.86,1.71,4.26,2.59l.15.09c22,13.89,37.66,30.52,46.2,48.3a74,74,0,0,1,7.55,30A80.55,80.55,0,0,0,446.42,261.8Z"/><path class="cls-24" d="M414.76,212.07l-.91-1.79a183.37,183.37,0,0,0-91.4-85q-2.43-1-4.89-2t-4.87-1.82q-7.32-2.62-14.87-4.61a182.46,182.46,0,0,0-27.39-5l-.17,0a1.34,1.34,0,0,0-1.19.38l-10.94,10.93a2.8,2.8,0,0,1-3.65.27,16.54,16.54,0,0,0-17-1.64,16.64,16.64,0,0,0-4.56,3.24v0a16.59,16.59,0,0,0-4.56,8.55,2.78,2.78,0,0,1-2.74,2.26H194.5a1.3,1.3,0,0,0-.95.39L189,140.83l-8.36,8.36a2.73,2.73,0,0,1-2,.82H138.53a1.38,1.38,0,0,0-.66.17l-.16.11a183.37,183.37,0,0,0-51.62,64.61c-.4.83-.8,1.68-1.18,2.52a1.47,1.47,0,0,1-.1.22,1.25,1.25,0,0,0-.18.65.88.88,0,0,0,.05.33,1.3,1.3,0,0,0,1,1,1.27,1.27,0,0,0,.34.05H109.6l2.68-2.68H92.54a2.81,2.81,0,0,1-2.5-4.06,181.3,181.3,0,0,1,47.83-59.33l.33-.27a2.69,2.69,0,0,1,1.76-.62h40.4a1.26,1.26,0,0,0,.94-.39l12.93-12.93a2.73,2.73,0,0,1,2-.82H225.8a2.76,2.76,0,0,1,2.72,2.13,16.67,16.67,0,0,0,4.39,7.78h0a16.53,16.53,0,0,0,23.42,0h0a16.59,16.59,0,0,0,4.8-10.31c0-.45,0-.93,0-1.4a16.48,16.48,0,0,0-2-8s0,0,0-.05a2.75,2.75,0,0,1,.5-3.28l9.93-9.93a2.73,2.73,0,0,1,2.29-.8,180,180,0,0,1,43.48,10.6c.47.17.93.36,1.4.54,1.74.67,3.47,1.39,5.18,2.12a179.16,179.16,0,0,1,31.71,17.53,181.22,181.22,0,0,1,55.57,61.66,2.7,2.7,0,0,1-.05,2.77,2.08,2.08,0,0,1-.24.34,2.67,2.67,0,0,1-2.17,1H372.26a2.73,2.73,0,0,1-2-.81l-8.11-8.12-5.12-5.11-1.7-1.71a2.73,2.73,0,0,1-.82-2V171.42a1.33,1.33,0,0,0-.47-1l-.15-.14-8.76-8.76-5.83-5.82a1.32,1.32,0,0,0-.93-.4H325.52a1.33,1.33,0,0,0-.88.34l-.07.06-12.86,12.86a1.34,1.34,0,0,0-.39,1v19.45a1.37,1.37,0,0,0,.39.95L323.83,202a2.74,2.74,0,0,1,.82,2v3.17a2.81,2.81,0,0,1-2.8,2.79,16.55,16.55,0,0,0-11.71,4.86v0a16.54,16.54,0,0,0,0,23.43,2.79,2.79,0,0,1,0,4l-25.89,25.9a2.74,2.74,0,0,1-2,.81H266.86a1.34,1.34,0,0,0-.95.39L250.18,285a1.32,1.32,0,0,0-.4.95V297.8a1.37,1.37,0,0,0,.5,1l.15.13,10.17,9.7,15.49,14.79a1.32,1.32,0,0,0,.92.37h43.45a2.81,2.81,0,0,1,2.8,2.8,16.47,16.47,0,0,0,4.86,11.71v0a16.53,16.53,0,0,0,23.41,0l0,0a16,16,0,0,0,2.63-3.43,2.81,2.81,0,0,1,3.83-1l5.33,3.08,3.61,2.09,5.31,3.06,5.34,3.08a2.72,2.72,0,0,1,1.4,2.42v27.26a2.75,2.75,0,0,1-1.39,2.42l-15.48,8.94-1.75,1a1.35,1.35,0,0,0-.68,1.15V401.7a2.7,2.7,0,0,1-.81,2l-5,5-8.44,8.44-13.1,13.09-27,27a1.34,1.34,0,0,0-.4,1v5.51a2.75,2.75,0,0,1-2,2.68c-2.57.78-5.17,1.48-7.77,2.13-2,.5-3.94,1-5.92,1.39a2.79,2.79,0,0,1-3.39-2.73V415.89a2.77,2.77,0,0,1,2.47-2.77,16.64,16.64,0,0,0,8.74-3.82c.35-.3.68-.6,1-.93l0,0a16.55,16.55,0,0,0,0-23.41l0,0a16.64,16.64,0,0,0-8.31-4.51,17.5,17.5,0,0,0-3.4-.34,16.29,16.29,0,0,0-8.26,2.22,2.77,2.77,0,0,1-3.38-.45l-4.93-4.93a2.66,2.66,0,0,1-.82-2V336.51a1.3,1.3,0,0,0-.48-1l-.15-.13-11.36-11a1.38,1.38,0,0,0-.93-.38H239.4a2.71,2.71,0,0,1-2-.83L225.6,311.32a2.78,2.78,0,0,1-.37-3.52c.2-.31.39-.62.56-.93a16.5,16.5,0,0,0-2.72-19.82l0,0a16.51,16.51,0,0,0-20.75-2.16,2.77,2.77,0,0,1-3.51-.37l-6.07-6.06L178.2,263.92a2.75,2.75,0,0,1-.82-2V221.62a1.3,1.3,0,0,0-.4-.94l-4.89-4.89a2.74,2.74,0,0,1-.55-3.15A16.53,16.53,0,0,0,168.2,194l0,0a16.45,16.45,0,0,0-8.83-4.6q-4.75,1.43-9.36,3c-1.88.63-3.74,1.3-5.57,2-.13.13-.25.26-.37.4q-2.2,6.27-4.08,12.69a16.78,16.78,0,0,0,4.78,10h0a16.54,16.54,0,0,0,22.45.9,2.79,2.79,0,0,1,3.79.15l2.87,2.87a2.73,2.73,0,0,1,.82,2v40.31a1.35,1.35,0,0,0,.4,1l17.63,17.62,4.22,4.22a2.76,2.76,0,0,1,.38,3.47,17.77,17.77,0,0,0-1.25,2.41,16.56,16.56,0,0,0,3.55,18.14h0a16.55,16.55,0,0,0,20.54,2.31,2.78,2.78,0,0,1,3.48.38l13.08,13.09a1.39,1.39,0,0,0,1,.38h16.73a2.71,2.71,0,0,1,2,.8l9.1,8.8a2.74,2.74,0,0,1,.85,2v38.41a1.34,1.34,0,0,0,.39,1l5.87,5.87a2.85,2.85,0,0,1,.31.38,2.75,2.75,0,0,1,0,3.22,16.52,16.52,0,0,0,1.8,21.28l0,0a16.75,16.75,0,0,0,3.91,2.9,16.49,16.49,0,0,0,2.67,1.14,2.77,2.77,0,0,1,1.93,2.67v57.1a1,1,0,0,0,0,.24,1.33,1.33,0,0,0,1.54,1.07q5.57-1,11.06-2.41,5.31-1.33,10.52-3l.24-.07a1.36,1.36,0,0,0,1.06-1.31v-6.83a2.71,2.71,0,0,1,.81-2l20.46-20.46,3.74-3.73,9.44-9.45,8.82-8.81L362,404.36a1.31,1.31,0,0,0,.4-.95V390.79a2.75,2.75,0,0,1,1.4-2.43l17-9.8.18-.09a1.34,1.34,0,0,0,.74-1.2V345.58c0-.1,0-.21,0-.32a1.34,1.34,0,0,0-.67-1.15l-8.32-4.8-5.36-3.09-2.95-1.71-6.63-3.82a2.76,2.76,0,0,1-1.39-2.66c0-.46.06-.93.06-1.4a16.49,16.49,0,0,0-4.27-11.09c-.19-.21-.39-.42-.59-.61h0a16.53,16.53,0,0,0-3.41-2.63,16.53,16.53,0,0,0-20,2.63h0a16.31,16.31,0,0,0-3.26,4.63,2.75,2.75,0,0,1-2.53,1.59H278.65a2.7,2.7,0,0,1-1.93-.77l-14.62-14-8.76-8.36a2.71,2.71,0,0,1-.87-2V287.7a2.73,2.73,0,0,1,.82-2l13.3-13.29a2.71,2.71,0,0,1,2-.83H284a1.29,1.29,0,0,0,.94-.39l28.41-28.4a2.72,2.72,0,0,1,2.92-.66,16.6,16.6,0,0,0,17.29-3.89h0a16.54,16.54,0,0,0,0-23.42l0,0a16.67,16.67,0,0,0-4.62-3.26,2.74,2.74,0,0,1-1.59-2.53v-6.75a1.31,1.31,0,0,0-.39-1l-12.12-12.11a2.7,2.7,0,0,1-.82-2v-16a2.7,2.7,0,0,1,.82-2l10.43-10.44a2.7,2.7,0,0,1,1.89-.81h9.54a2.73,2.73,0,0,1,2,.81l10.41,10.41,1.95,1.95a2.73,2.73,0,0,1,.82,2v22.17a1.34,1.34,0,0,0,.39,1l11.57,11.57,5.8,5.79a1.27,1.27,0,0,0,.94.4h42.71l.31,0a1.25,1.25,0,0,0,.43-.07l.17-.07A1.32,1.32,0,0,0,414.76,212.07ZM257.55,141.89a0,0,0,0,1,0,0,13.45,13.45,0,0,1-2.11,3.62c-.3.36-.62.72-1,1.06v0a13.94,13.94,0,0,1-19.65,0l0,0a13.93,13.93,0,0,1,0-19.66h0a13.94,13.94,0,0,1,19.65,0h0a13.37,13.37,0,0,1,2.48,3.39,13.94,13.94,0,0,1,.6,11.58Zm-91.24,73.66,0,0a13.93,13.93,0,0,1-19.64,0l0,0a13.81,13.81,0,0,1-4.06-9.83,13.82,13.82,0,0,1,4.06-9.82l0,0a13.46,13.46,0,0,1,2.9-2.22,13.92,13.92,0,0,1,16.74,2.22l0,0a13.92,13.92,0,0,1,0,19.65Zm56.33,91.32a13.08,13.08,0,0,1-1.46,1.71v0a13.92,13.92,0,0,1-19.65,0l0,0a13.85,13.85,0,0,1-4.06-9.82,13.89,13.89,0,0,1,4.06-9.83l0,0a13.94,13.94,0,0,1,19.65,0v0a13.94,13.94,0,0,1,1.46,17.94Zm53.93,99.62h0a14,14,0,0,1,0-19.66h0a13.8,13.8,0,0,1,9.64-4.05h.18a13.78,13.78,0,0,1,9.76,4l.09.08a13.93,13.93,0,0,1-.1,19.74,13.92,13.92,0,0,1-9.36,4h-.39A13.85,13.85,0,0,1,276.57,406.49ZM330,316.81l0,0a14,14,0,0,1,16.22-2.5,12.93,12.93,0,0,1,3,2.1l.42.4,0,0a13.92,13.92,0,0,1,0,19.65l0,0a13.94,13.94,0,0,1-19.64,0l0,0c-.38-.39-.74-.8-1.07-1.21A13.94,13.94,0,0,1,330,316.81Zm1.69-100.12v0a13.94,13.94,0,0,1,0,19.65v0a13.93,13.93,0,0,1-19.66,0v0a13.92,13.92,0,0,1,0-19.65v0a14,14,0,0,1,19.66,0Z"/><path class="cls-25" d="M244.63,143.31a6.56,6.56,0,1,0-6.55-6.55A6.57,6.57,0,0,0,244.63,143.31Z"/><path class="cls-25" d="M156.47,212.28a6.56,6.56,0,1,0-6.56-6.55A6.57,6.57,0,0,0,156.47,212.28Z"/><path class="cls-25" d="M321.84,233.09a6.55,6.55,0,1,0-6.55-6.55A6.57,6.57,0,0,0,321.84,233.09Z"/><path class="cls-25" d="M339.84,333.19a6.55,6.55,0,1,0-6.56-6.55A6.57,6.57,0,0,0,339.84,333.19Z"/><path class="cls-25" d="M286.39,403.2a6.55,6.55,0,1,0-6.55-6.55A6.56,6.56,0,0,0,286.39,403.2Z"/><path class="cls-25" d="M211.34,305.78a6.55,6.55,0,1,0-6.55-6.55A6.56,6.56,0,0,0,211.34,305.78Z"/><path class="cls-26" d="M13.25,102.6a71.4,71.4,0,0,0,105.8,94.61l2.56.24,28.62,2.74L138.3,174l-1.07-2.34a71.4,71.4,0,0,0-124-69.1Z"/><circle cx="70.88" cy="144.03" r="62.26"/><g class="cls-27"><path class="cls-7" d="M124.42,210.68H17.34c1.36-8.88,0-25.69,14.91-35.55,4.16-2.75,9.29-3.69,13.84-5.74a9.48,9.48,0,0,0,1.82-.84c1.78-1.07,2.16-1.85,3.89-3.16a4.84,4.84,0,0,1,2-1c2.4-.38,3.45-1.23,4-3.6a21.54,21.54,0,0,0,.63-9.42,3.33,3.33,0,0,0-2.17-2.84c-2.84-1.11-5.64-2.33-8.44-3.53-2.1-.88-2.23-1.62-1.47-3.8a83.91,83.91,0,0,0,4.8-21.12c.45-5.49.07-11.13,2.07-16.42,1.41-3.74,3.71-7.19,7.47-8.3,2.89-.84,5.38-2.77,8.42-3.19a14.29,14.29,0,0,1,1.62-.08l.17,0C78.14,92.6,86.73,97,88.77,105c.11.41.15.84.26,1.26h.17c1.12,4.55,1,9.27,1.37,13.89a82.89,82.89,0,0,0,4.8,21.13c.76,2.17.62,2.91-1.47,3.8-2.81,1.19-5.61,2.42-8.44,3.53a3.29,3.29,0,0,0-2.17,2.84,21.25,21.25,0,0,0,.63,9.42c.55,2.36,1.62,3.22,4,3.6a4.66,4.66,0,0,1,2,1c1.34,1,2.43,2.49,3.89,3.16,5.16,2.34,10.77,3.77,15.69,6.57C124.42,183.6,123.07,201.8,124.42,210.68Z"/></g><path class="cls-26" d="M83.86,322.16A54.67,54.67,0,0,0,192.22,314l1.49-1.29,16.71-14.33-20.77-7.3-1.86-.65A54.67,54.67,0,0,0,83.86,322.16Z"/><circle cx="137.3" cy="312.35" r="47.67"/><g class="cls-28"><path class="cls-7" d="M178.3,363.38h-82c1-6.8,0-19.66,11.42-27.21,3.18-2.11,7.11-2.83,10.6-4.4a7.6,7.6,0,0,0,1.39-.64,31,31,0,0,0,3-2.42,3.52,3.52,0,0,1,1.53-.74c1.83-.29,2.64-.94,3.08-2.76a16.54,16.54,0,0,0,.47-7.21,2.54,2.54,0,0,0-1.65-2.17c-2.18-.85-4.32-1.79-6.47-2.71-1.6-.68-1.71-1.24-1.12-2.91A64,64,0,0,0,122.21,294c.34-4.2.06-8.52,1.58-12.57,1.09-2.86,2.85-5.51,5.73-6.35,2.21-.65,4.12-2.12,6.44-2.45.41,0,.82-.08,1.24-.06l.14,0c5.52.35,12.1,3.68,13.66,9.81.09.32.12.64.2,1h.13c.86,3.48.77,7.09,1,10.63a63.44,63.44,0,0,0,3.67,16.18c.59,1.66.48,2.23-1.12,2.91-2.15.91-4.3,1.85-6.47,2.7a2.52,2.52,0,0,0-1.65,2.17,16.15,16.15,0,0,0,.48,7.22c.42,1.81,1.24,2.46,3.07,2.75a3.59,3.59,0,0,1,1.53.75c1,.78,1.86,1.9,3,2.41,3.95,1.8,8.24,2.9,12,5C178.3,342.65,177.26,356.58,178.3,363.38Z"/></g><path class="cls-26" d="M452.19,156.48a61,61,0,0,0-113.64,42.11l-1.21,1.83-13.49,20.51,24.51,1.43,2.19.13a61,61,0,0,0,101.64-66Z"/><circle cx="397.71" cy="183.84" r="53.43"/><g class="cls-29"><path class="cls-7" d="M441.2,218a250,250,0,0,0-24.58-10.68A3.05,3.05,0,0,1,415,206a39.4,39.4,0,0,1-1.64-4.69,3.26,3.26,0,0,0-1.68-2.44,1.34,1.34,0,0,1-.57-1.08c.06-3.67-.79-7.52,1.92-10.71a1.73,1.73,0,0,0,.18-.36c1.46-3.22,1.73-6.88,3.77-9.86a.57.57,0,0,0,.08-.26c.24-2.28.48-4.55.67-6.83a1.05,1.05,0,0,0-.47-.87c-1.13-.41-1.06-1.31-1.06-2.22,0-4.45,0-8.9,0-13.35a8.58,8.58,0,0,0-2.72-6.65c-2.22-2-4.51-3.93-6.8-5.87-1.1-.93-1.2-1.65-.17-2.68a13.11,13.11,0,0,1,1.58-1.16c-.11-.18-.23-.35-.34-.52a14.29,14.29,0,0,0-2.07,0c-2.53.41-5.07.77-7.56,1.35-4.74,1.12-9.35,2.6-13.2,5.78-2.64,2.17-4.74,4.7-5,8.28-.13,1.87-.12,3.76-.13,5.64,0,3,0,6.11,0,9.17,0,.5-.3,1.31-.63,1.42-1.25.41-1.28,1.2-1.11,2.23.11.7,0,1.45.18,2.14.43,1.91.88,3.82,1.43,5.7a35.22,35.22,0,0,1,1.44,4.15,14,14,0,0,0,3.4,7.48,2.08,2.08,0,0,1,.53,1.41c-.14,2.2-.37,4.39-.67,6.56a1.58,1.58,0,0,1-.87,1.14c-1.46.3-1.68,1.43-2,2.55-.45,1.5-.95,3-1.52,4.45a2.24,2.24,0,0,1-1.08,1.11c-2.59,1.14-5.22,2.17-7.83,3.26-2.77,1.17-5.58,2.28-8.28,3.58s-5.5,2.83-8.24,4.3a20.56,20.56,0,0,0-4.38,3v18h95.24V221A16.06,16.06,0,0,0,441.2,218Z"/></g><path class="cls-26" d="M274.8,65.23a33.64,33.64,0,0,0-33.87,57.65l.13,1.21,1.39,13.47,11-7.94,1-.71a33.64,33.64,0,0,0,20.4-63.68Z"/><circle cx="260.77" cy="95.57" r="29.48"/><g class="cls-30"><path class="cls-7" d="M284.76,114.41a135.75,135.75,0,0,0-13.56-5.89,1.71,1.71,0,0,1-.89-.7,23.2,23.2,0,0,1-.91-2.58,1.77,1.77,0,0,0-.93-1.35.79.79,0,0,1-.31-.6c0-2-.43-4.15,1.06-5.91a.75.75,0,0,0,.1-.2c.81-1.77.95-3.79,2.08-5.44a.23.23,0,0,0,0-.14c.14-1.26.27-2.51.38-3.77a.6.6,0,0,0-.26-.48c-.63-.22-.59-.72-.59-1.22,0-2.46,0-4.91,0-7.37a4.68,4.68,0,0,0-1.5-3.66c-1.23-1.11-2.49-2.18-3.75-3.25-.61-.51-.66-.91-.09-1.47a7.29,7.29,0,0,1,.87-.65c-.07-.09-.13-.19-.19-.28a8.83,8.83,0,0,0-1.15,0c-1.39.23-2.79.43-4.16.75a17.27,17.27,0,0,0-7.28,3.19A6.5,6.5,0,0,0,251,78c-.07,1-.06,2.07-.07,3.11,0,1.68,0,3.37,0,5.06,0,.27-.16.72-.35.78-.68.22-.7.66-.61,1.23.06.39,0,.8.1,1.18.24,1.06.49,2.11.79,3.15a17.72,17.72,0,0,1,.79,2.29,7.73,7.73,0,0,0,1.88,4.12,1.16,1.16,0,0,1,.29.78c-.08,1.21-.21,2.42-.37,3.62a.88.88,0,0,1-.48.63c-.8.16-.93.79-1.12,1.41-.25.82-.52,1.65-.84,2.45a1.31,1.31,0,0,1-.59.62c-1.43.62-2.89,1.19-4.32,1.79s-3.08,1.26-4.57,2-3,1.56-4.55,2.37a11.41,11.41,0,0,0-2.41,1.65v9.95H287V116.07A8.81,8.81,0,0,0,284.76,114.41Z"/></g><path class="cls-26" d="M173.66,510.16A67.24,67.24,0,0,1,257.17,405.8l2.34-.62,26.15-7-7,26.15-.63,2.34a67.24,67.24,0,0,1-104.36,83.5Z"/><circle cx="221.2" cy="462.62" r="57.31"/><g class="cls-31"><path class="cls-7" d="M267.85,499.25a266.52,266.52,0,0,0-26.37-11.46,3.27,3.27,0,0,1-1.73-1.36,40.83,40.83,0,0,1-1.76-5c-.33-1.08-.63-2.1-1.81-2.62a1.5,1.5,0,0,1-.61-1.16c.07-3.93-.84-8.06,2.07-11.49a2,2,0,0,0,.19-.39c1.57-3.44,1.85-7.37,4-10.57a.44.44,0,0,0,.08-.28c.26-2.44.52-4.88.73-7.32a1.17,1.17,0,0,0-.5-.94c-1.22-.43-1.15-1.4-1.14-2.37q0-7.17,0-14.32a9.13,9.13,0,0,0-2.91-7.13c-2.39-2.15-4.84-4.23-7.29-6.3-1.19-1-1.3-1.78-.19-2.88a14.2,14.2,0,0,1,1.69-1.25l-.36-.55a15.08,15.08,0,0,0-2.23,0c-2.71.44-5.43.82-8.1,1.45-5.08,1.2-10,2.79-14.15,6.19-2.84,2.34-5.1,5.05-5.37,8.89-.14,2-.13,4-.14,6,0,3.28,0,6.56,0,9.84,0,.53-.32,1.41-.68,1.53-1.33.43-1.37,1.28-1.19,2.39.12.75,0,1.55.19,2.29.47,2.06,1,4.1,1.54,6.12a36.09,36.09,0,0,1,1.54,4.45,15.09,15.09,0,0,0,3.65,8,2.23,2.23,0,0,1,.57,1.52c-.16,2.35-.4,4.71-.72,7a1.67,1.67,0,0,1-.94,1.22c-1.56.32-1.8,1.54-2.17,2.74-.49,1.61-1,3.21-1.63,4.77a2.5,2.5,0,0,1-1.16,1.2c-2.78,1.21-5.6,2.32-8.4,3.49-3,1.25-6,2.45-8.88,3.83s-5.9,3.05-8.84,4.62a22.34,22.34,0,0,0-4.69,3.21V522H272.28V502.48A16.91,16.91,0,0,0,267.85,499.25Z"/></g><path class="cls-26" d="M423.55,408a49.14,49.14,0,0,1-76-61.38l-.45-1.72-5-19.13L361.17,331l1.71.46A49.14,49.14,0,0,1,423.55,408Z"/><circle cx="388.97" cy="373.1" r="42.12"/><g class="cls-32"><path class="cls-7" d="M425.2,418.2H352.75c.91-6,0-17.38,10.08-24.05,2.82-1.87,6.29-2.5,9.37-3.89a6.11,6.11,0,0,0,1.23-.57,26.68,26.68,0,0,0,2.63-2.13,3.19,3.19,0,0,1,1.36-.66,2.78,2.78,0,0,0,2.72-2.43,14.78,14.78,0,0,0,.42-6.38,2.25,2.25,0,0,0-1.47-1.92c-1.92-.75-3.81-1.58-5.71-2.39-1.42-.6-1.51-1.1-1-2.57a57,57,0,0,0,3.25-14.29c.3-3.71,0-7.53,1.39-11.11,1-2.53,2.51-4.87,5.06-5.62,2-.57,3.64-1.87,5.7-2.15a7.88,7.88,0,0,1,1.09-.06l.12,0c4.88.31,10.7,3.25,12.07,8.67.08.28.11.57.18.85h.12c.75,3.08.68,6.27.92,9.4a56.16,56.16,0,0,0,3.25,14.29c.52,1.47.42,2-1,2.57-1.9.81-3.8,1.64-5.72,2.39a2.24,2.24,0,0,0-1.46,1.92,14.32,14.32,0,0,0,.42,6.38,2.76,2.76,0,0,0,2.72,2.43,3.28,3.28,0,0,1,1.35.66,16.23,16.23,0,0,0,2.63,2.14c3.5,1.58,7.29,2.56,10.62,4.45C425.2,399.87,424.28,412.19,425.2,418.2Z"/></g><rect class="cls-33" x="315.54" y="32.57" width="2.19" height="2.48"/><rect class="cls-33" x="319.44" y="30.47" width="2.19" height="4.58"/><rect class="cls-33" x="323.34" y="27.79" width="2.19" height="7.26"/><rect class="cls-33" x="327.24" y="25.65" width="2.19" height="9.41"/><rect class="cls-33" x="331.14" y="23.79" width="2.19" height="11.26"/><rect class="cls-33" x="335.04" y="21.87" width="2.19" height="13.18"/><path class="cls-33" d="M361.85,29.64a.71.71,0,0,1-.65-.44,8.31,8.31,0,0,0-1.78-2.64,8.54,8.54,0,0,0-2.64-1.78,8.32,8.32,0,0,0-10.89,4.42.72.72,0,1,1-1.32-.56,9.84,9.84,0,0,1,5.18-5.18,9.73,9.73,0,0,1,10.68,2.09,9.67,9.67,0,0,1,2.08,3.09.7.7,0,0,1-.38.94A.67.67,0,0,1,361.85,29.64Z"/><path class="cls-33" d="M359,30.85a.71.71,0,0,1-.66-.44,5.23,5.23,0,0,0-1.11-1.64,5.3,5.3,0,0,0-1.65-1.12,5.2,5.2,0,0,0-4,0,5.23,5.23,0,0,0-2.75,2.75.72.72,0,0,1-1.32-.55A6.68,6.68,0,0,1,351,26.34a6.59,6.59,0,0,1,7.25,1.42,6.52,6.52,0,0,1,1.41,2.1.7.7,0,0,1-.37.93A.74.74,0,0,1,359,30.85Z"/><path class="cls-33" d="M351.05,32.09a.69.69,0,0,1-.28-.05.73.73,0,0,1-.38-.94,3.47,3.47,0,0,1,.74-1.08,3.35,3.35,0,0,1,1.08-.74A3.4,3.4,0,0,1,356,30a3.44,3.44,0,0,1,.73,1.08.72.72,0,0,1-.38.94.71.71,0,0,1-.93-.38A2,2,0,0,0,355,31a1.91,1.91,0,0,0-.63-.43,2,2,0,0,0-1.55,0,2.06,2.06,0,0,0-1.06,1.06A.72.72,0,0,1,351.05,32.09Z"/><path class="cls-33" d="M354.64,33.24a1.1,1.1,0,1,1-1.1-1.09A1.1,1.1,0,0,1,354.64,33.24Z"/><polygon class="cls-33" points="392.4 27.29 390.12 27.29 390.12 24.93 369 24.93 369 33.91 390.12 33.91 390.12 31.27 392.4 31.27 392.4 27.29"/><path class="cls-33" d="M109.07,34.35a7.09,7.09,0,0,0,1.33-.05A4.55,4.55,0,0,0,113,33.11a5.36,5.36,0,0,0,1.62-3.24h-.06a3.58,3.58,0,0,1-2.87,1.31,3.53,3.53,0,0,1-3.6-3.73,4.18,4.18,0,0,1,4.16-4.34c2.5,0,4,2,4,5.15a7.72,7.72,0,0,1-2.1,5.72,6.12,6.12,0,0,1-3.55,1.63,7.86,7.86,0,0,1-1.52.09Zm.6-7A2.35,2.35,0,0,0,112,29.93a2.75,2.75,0,0,0,2.41-1.28,1.13,1.13,0,0,0,.15-.6c0-2.08-.77-3.68-2.5-3.68C110.66,24.37,109.67,25.61,109.67,27.34Z"/><path class="cls-33" d="M117.87,27.94A1.11,1.11,0,0,1,119,26.75a1.18,1.18,0,1,1-1.13,1.19Zm0,6.62A1.11,1.11,0,0,1,119,33.38a1.1,1.1,0,0,1,1.1,1.18,1.12,1.12,0,1,1-2.23,0Z"/><path class="cls-33" d="M129.73,29.29c0,4.14-1.54,6.43-4.24,6.43-2.38,0-4-2.23-4-6.26s1.76-6.35,4.24-6.35S129.73,25.4,129.73,29.29Zm-6.62.19c0,3.17,1,5,2.47,5,1.69,0,2.5-2,2.5-5.09s-.77-5-2.48-5C124.16,24.39,123.11,26.15,123.11,29.48Z"/><path class="cls-33" d="M139.36,29.29c0,4.14-1.54,6.43-4.24,6.43-2.38,0-4-2.23-4-6.26s1.77-6.35,4.24-6.35S139.36,25.4,139.36,29.29Zm-6.62.19c0,3.17,1,5,2.47,5,1.69,0,2.5-2,2.5-5.09s-.77-5-2.48-5C133.79,24.39,132.74,26.15,132.74,29.48Z"/><path class="cls-33" d="M289.82,583.76a2.86,2.86,0,0,1-1.88-.71c-2.94-2.63-8.15-7.43-10-10.09-1.19-1.72-2.35-3.59-2.35-5.94a8.79,8.79,0,0,1,8.78-8.78,8.69,8.69,0,0,1,5.47,1.91A8.78,8.78,0,0,1,304,566h0a8.82,8.82,0,0,1-1.64,6.22c-2.1,2.94-8.18,8.55-10.69,10.83A2.81,2.81,0,0,1,289.82,583.76Zm-5.43-23.27a6.54,6.54,0,0,0-6.53,6.53c0,1.71.88,3.12,1.95,4.66,1.76,2.56,7.32,7.63,9.63,9.69a.55.55,0,0,0,.75,0c2.47-2.23,8.41-7.71,10.38-10.47a6.56,6.56,0,0,0,1.23-4.64h0a6.57,6.57,0,0,0-6.22-5.75,6.49,6.49,0,0,0-4.92,2l-.81.83-.8-.83A6.49,6.49,0,0,0,284.39,560.49Z"/><path class="cls-33" d="M136,556.24l-11.13,11.14a2.65,2.65,0,0,0-.78,1.88v12a1.43,1.43,0,0,0,1.43,1.43h7.9a1.25,1.25,0,0,0,1.25-1.25v-5.51a2.51,2.51,0,0,1,2.47-2.51h0a2.51,2.51,0,0,1,2.54,2.51v5.51a1.24,1.24,0,0,0,1.24,1.25h7.91a1.43,1.43,0,0,0,1.42-1.43v-12a2.68,2.68,0,0,0-.77-1.87l-11.13-11.15A1.66,1.66,0,0,0,136,556.24Z"/><path class="cls-33" d="M212.22,580.76a11.11,11.11,0,1,1,11.11-11.11A11.12,11.12,0,0,1,212.22,580.76Zm0-20a8.86,8.86,0,1,0,8.86,8.86A8.88,8.88,0,0,0,212.22,560.79Z"/><rect class="cls-33" x="220.8" y="575.74" width="2.25" height="8.08" transform="translate(-344.96 326.73) rotate(-45)"/><path class="cls-33" d="M366.2,572.78a7.45,7.45,0,1,1,7.45-7.45A7.46,7.46,0,0,1,366.2,572.78Zm0-12.64a5.2,5.2,0,1,0,5.2,5.19A5.2,5.2,0,0,0,366.2,560.14Z"/><path class="cls-33" d="M376.82,583a11.22,11.22,0,0,0-21.24,0l-2.13-.73a13.48,13.48,0,0,1,25.5,0Z"/><rect class="cls-18" x="218.2" y="19.82" width="66.28" height="16.92" rx="8.46"/></svg>