<svg id="Layer_1" data-name="Layer 1" xmlns="http://www.w3.org/2000/svg" xmlns:xlink="http://www.w3.org/1999/xlink" viewBox="0 0 450.06 486.09"><defs><style>.cls-1,.cls-11,.cls-3,.cls-4,.cls-8{fill:none;}.cls-16,.cls-2{fill:#2e8dff;}.cls-3{stroke:#1b6dbf;}.cls-11,.cls-3,.cls-4,.cls-8{stroke-linecap:round;}.cls-3,.cls-4,.cls-8{stroke-linejoin:round;}.cls-3,.cls-4{stroke-width:8px;}.cls-4{stroke:#a3e5ff;}.cls-5{fill:#1769bc;}.cls-6{fill:#7dc3d8;}.cls-7{fill:#a3e5ff;}.cls-8{stroke:#2e8dff;}.cls-11,.cls-8{stroke-width:6px;}.cls-9{fill:#bc6600;}.cls-10,.cls-19{fill:#ff9100;}.cls-11{stroke:#fffdfc;stroke-miterlimit:10;}.cls-12{fill:#2b333f;}.cls-13{fill:#373f51;}.cls-14{fill:#1e232b;}.cls-15{fill:#0472cf;}.cls-15,.cls-16,.cls-17,.cls-18,.cls-19,.cls-20{fill-rule:evenodd;}.cls-17{fill:#4a9cff;}.cls-18{fill:#004179;}.cls-20,.cls-22{fill:#fffdfc;}.cls-21{clip-path:url(#clip-path);}.cls-23{clip-path:url(#clip-path-2);}.cls-24{clip-path:url(#clip-path-3);}.cls-25{clip-path:url(#clip-path-4);}.cls-26{clip-path:url(#clip-path-5);}.cls-27{clip-path:url(#clip-path-6);}.cls-28{fill:#ff74d4;}.cls-29{fill:#f9dc5c;}.cls-30{fill:#80ed99;}</style><clipPath id="clip-path"><path class="cls-1" d="M220.85,101.4c-.46-23.32-19.59-43.83-43.83-43.83s-43.38,20.54-43.83,43.83c-.47,24.12,19.17,45.74,44.06,45.62C201.94,146.89,221.32,125.39,220.85,101.4Z"/></clipPath><clipPath id="clip-path-2"><path class="cls-1" d="M257.34,219.91c-.66-17.39-14.9-33.56-33.56-33.56s-32.9,16.21-33.56,33.56c-.7,18.65,14.35,36.47,33.86,36.3C243.36,256.05,258.05,238.39,257.34,219.91Z"/></clipPath><clipPath id="clip-path-3"><path class="cls-1" d="M444.75,129.43c-.44-19.92-16.79-37.62-37.62-37.62s-37.19,17.67-37.62,37.62c-.46,20.59,16.14,39.21,37.38,39.34C428.33,168.9,445.2,150.16,444.75,129.43Z"/></clipPath><clipPath id="clip-path-4"><path class="cls-1" d="M331.47,67.29c-.33-10.88-9.24-20.76-20.76-20.76S290.28,56.43,290,67.29c-.35,11.46,8.93,22.16,20.88,22.08S331.81,78.68,331.47,67.29Z"/></clipPath><clipPath id="clip-path-5"><path class="cls-1" d="M323.21,325.71c-.51-21.35-18-40.35-40.36-40.35S243,304.41,242.5,325.71c-.52,22.26,17.6,42.52,40.65,42.35C306,367.9,323.73,347.8,323.21,325.71Z"/></clipPath><clipPath id="clip-path-6"><path class="cls-1" d="M430.63,262.68C430.21,247.05,417.4,233,401,233s-29.25,14.07-29.66,29.65c-.43,16.45,13,31.53,30.05,31.31C418.08,293.78,431.06,278.9,430.63,262.68Z"/></clipPath></defs><path class="cls-2" d="M46.74,35.43A13.11,13.11,0,0,0,33.63,48.54V389.93c0,15.37,10.92,27.83,24.4,27.83H379.35A23.59,23.59,0,0,0,403,394.21V53A17.59,17.59,0,0,0,385.4,35.43Z"/><line class="cls-1" x1="33.63" y1="417.76" x2="24.16" y2="417.76"/><line class="cls-3" x1="96.54" y1="159.19" x2="60.01" y2="159.19"/><line class="cls-3" x1="96.54" y1="132.85" x2="60.01" y2="132.85"/><line class="cls-3" x1="96.54" y1="106.5" x2="60.01" y2="106.5"/><line class="cls-4" x1="133.07" y1="185.54" x2="60.01" y2="185.54"/><path class="cls-5" d="M33.63,33.25H403a0,0,0,0,1,0,0V57.76a16,16,0,0,1-16,16H49.63a16,16,0,0,1-16-16V33.25A0,0,0,0,1,33.63,33.25Z" transform="translate(436.61 107.01) rotate(-180)"/><path class="cls-6" d="M0,238.3v42.12a13,13,0,0,0,13,13H128.35a11.23,11.23,0,0,0,11.23-11.23V238.65a11.22,11.22,0,0,0-11.23-11.22H10.88A10.88,10.88,0,0,0,0,238.3Z"/><path class="cls-6" d="M107.8,293.44c2.5,12.51,12,16.67,19.86,17.91a2.13,2.13,0,0,0,2.08-.83l3.15-2.74L128,305.66c-2.35-3.67-3.26-8.4-3.58-12.22Z"/><path class="cls-6" d="M107.18,286.69a34.78,34.78,0,0,0,.62,6.75h16.62a43.56,43.56,0,0,1-.06-6.75Z"/><rect class="cls-7" x="3.4" y="224.41" width="139.58" height="66.01" rx="15.17" transform="translate(146.37 514.83) rotate(-180)"/><path class="cls-7" d="M127.76,283.68s-1.29,14,5.21,21a2.17,2.17,0,0,1-1.91,3.65c-9.11-1.44-20.48-6.81-20.48-24.65Z"/><line class="cls-8" x1="76.59" y1="245.84" x2="25.4" y2="245.84"/><line class="cls-8" x1="120.98" y1="268.51" x2="25.4" y2="268.51"/><path class="cls-9" d="M0,335.13v18.44a13,13,0,0,0,13,13H128.35a11.22,11.22,0,0,0,11.22-11.23V335.48a11.22,11.22,0,0,0-11.22-11.22H10.88A10.88,10.88,0,0,0,0,335.13Z"/><path class="cls-9" d="M107.8,366.59c2.5,12.51,12,16.67,19.86,17.91a2.1,2.1,0,0,0,2.07-.82l3.16-2.74L128,378.81c-2.35-3.67-3.26-8.4-3.58-12.22Z"/><path class="cls-9" d="M107.18,359.84a34.78,34.78,0,0,0,.62,6.75h16.62a43.56,43.56,0,0,1-.06-6.75Z"/><rect class="cls-10" x="3.4" y="321.24" width="139.58" height="42.33" rx="11.23"/><path class="cls-10" d="M127.76,356.83s-1.29,14,5.21,21a2.18,2.18,0,0,1-1.91,3.66c-9.12-1.45-20.48-6.82-20.48-24.66Z"/><line class="cls-11" x1="120.98" y1="341.66" x2="25.39" y2="341.66"/><path class="cls-12" d="M436,37.26V417.88a34.42,34.42,0,0,1-34.41,34.42H225.72a24.53,24.53,0,0,1-16.94-6.77l-.05-.06L198,435.64a24.37,24.37,0,0,0,13.35,3.95H397.05A24.55,24.55,0,0,0,421.6,415V24.55A24.47,24.47,0,0,0,419.21,14a24.76,24.76,0,0,0-4.9-6.89L427.8,18.77l-.05.16A24.46,24.46,0,0,1,436,37.26Z"/><path class="cls-13" d="M421.6,24.55V415a24.55,24.55,0,0,1-24.55,24.55H211.34A24.37,24.37,0,0,1,198,435.64a24.09,24.09,0,0,1-6-5.49h0a24.42,24.42,0,0,1-5.2-15.11V24.55A24.55,24.55,0,0,1,211.34,0H397.05a24.49,24.49,0,0,1,17.26,7.08,24.76,24.76,0,0,1,4.9,6.89A24.47,24.47,0,0,1,421.6,24.55Z"/><path class="cls-14" d="M217.32,7.69H389.11a24.95,24.95,0,0,1,24.95,24.95V407.08a25.14,25.14,0,0,1-25.14,25.14H219.23a25.14,25.14,0,0,1-25.14-25.14V30.91A23.23,23.23,0,0,1,217.32,7.69Z"/><path class="cls-15" d="M446.42,207.43v.16c0,.77,0,1.53,0,2.3q0,2.55-.18,5.1c-.06,1.08-.13,2.17-.22,3.26-.21,2.72-.49,5.45-.87,8.17q-.44,3.2-1,6.38c-.22,1.27-.47,2.53-.74,3.79-.58,2.78-1.26,5.54-2,8.3a143.33,143.33,0,0,1-13.78,33l-.18.32c-.5.86-1,1.71-1.52,2.56a141.92,141.92,0,0,1-121.66,68.45H304l-1.21,0h0A142.42,142.42,0,0,1,204.37,308a141.35,141.35,0,0,1-28.21-39.9c-.4-.81-.78-1.64-1.15-2.47A142.48,142.48,0,0,1,162.43,207v-.17c0-.39,0-.79,0-1.19v0c0-2.53.11-5.06.26-7.59a141.21,141.21,0,0,1,11.5-47.36c.37-.86.75-1.71,1.15-2.56q2.34-5.12,5.13-10.11c.32-.58.65-1.15,1-1.73l1.08-1.83A141.46,141.46,0,0,1,216.61,95.6q5.19-4.09,10.72-7.65a142.52,142.52,0,0,1,61.3-21.86,145.14,145.14,0,0,1,16-.89h.16c4,0,8,.18,12,.54A141,141,0,0,1,367.41,80q4,2,8,4.29a141.36,141.36,0,0,1,58.09,63.8c.39.85.77,1.71,1.14,2.56a142.9,142.9,0,0,1,11.78,56.82Z"/><path class="cls-16" d="M181.47,136.21A112.88,112.88,0,1,1,222.79,290.4,112.88,112.88,0,0,1,181.47,136.21Z"/><path class="cls-17" d="M181.55,136.25a76.25,76.25,0,1,1,27.91,104.16A76.25,76.25,0,0,1,181.55,136.25Z"/><path class="cls-18" d="M391.66,203q-.15-8.18-.88-16.24-.84-9.36-2.43-18.45c-.18-1-.37-2-.56-3.05q-1.05-5.52-2.37-10.89c-.67-2.72-1.39-5.42-2.17-8.08-.37-1.28-.75-2.56-1.15-3.82-.59-1.87-1.2-3.71-1.84-5.54-.48-1.38-1-2.74-1.48-4.09q-1-2.64-2.06-5.21-.92-2.2-1.89-4.36t-1.95-4.17c-.89-1.84-1.81-3.65-2.76-5.41a120.18,120.18,0,0,0-16.36-23.6c-.55-.64-1.13-1.26-1.71-1.87s-.9-.94-1.36-1.4c-.86-.89-1.75-1.75-2.64-2.59a85.83,85.83,0,0,0-8.14-6.77,63,63,0,0,0-25.57-11.37,54.27,54.27,0,0,0-8.3-.89,48.73,48.73,0,0,1,8.11,1c8.62,1.72,17.19,5.79,25.4,12.36A81.85,81.85,0,0,1,346,84.25l1.3,1.3c.84.87,1.68,1.77,2.5,2.69.12.12.23.25.34.37a115.55,115.55,0,0,1,14.54,20.72c.62,1.12,1.23,2.24,1.82,3.39a158.76,158.76,0,0,1,8.23,18.65c0,.13.09.26.13.39q.38,1,.72,2,.31.85.6,1.71c.63,1.82,1.23,3.67,1.8,5.53a210.79,210.79,0,0,1,6.45,27.65c.2,1.19.39,2.38.56,3.58.11.67.2,1.33.29,2,.47,3.31.86,6.66,1.18,10,.14,1.46.27,2.93.39,4.4a242.53,242.53,0,0,1,.27,33.25c-.06,1.13-.14,2.26-.22,3.38l-.15,1.86q-.39,4.78-1,9.56c-.08.67-.17,1.33-.26,2q-.87,6.53-2.12,13a201.77,201.77,0,0,1-5.84,23c-.36,1.16-.73,2.3-1.12,3.45-.08.25-.17.5-.26.74-.47,1.39-1,2.77-1.46,4.12q-2,5.54-4.33,10.63c-.77,1.72-1.56,3.39-2.37,5-15.71,31.93-38.59,49.73-62.13,50.46,26.31-.74,51.83-20.81,68.34-56.66q1.08-2.34,2.11-4.77,1.27-3,2.47-6.18c.42-1.11.83-2.23,1.23-3.37.09-.24.17-.48.25-.71s.09-.25.13-.37c.59-1.71,1.17-3.43,1.71-5.15a203.9,203.9,0,0,0,7.13-31.07l.3-2q.67-4.87,1.15-9.8c.11-1.1.21-2.21.3-3.32C391.56,218.2,391.8,210.59,391.66,203ZM240.93,298.84A164.16,164.16,0,0,1,234.14,283c-.49-1.36-1-2.72-1.45-4.11A202,202,0,0,1,226,254c-.18-.84-.34-1.69-.5-2.54-.28-1.41-.54-2.84-.78-4.27a.09.09,0,0,1,0-.05q-1.56-9-2.39-18.3-.18-2-.33-4c-.47-6.4-.69-12.87-.65-19.35q0-3.61.16-7.23,0-1.35.12-2.7A233.09,233.09,0,0,1,224,171.48l.42-2.65q1.43-8.62,3.51-17c.21-.84.42-1.68.64-2.51q1.72-6.57,3.86-12.93a.39.39,0,0,0,0-.14l.26-.75c.18-.53.36-1.06.55-1.58.3-.85.6-1.69.92-2.53a163.09,163.09,0,0,1,6.56-15.4q2.16-4.4,4.49-8.44.56-1,1.11-1.89c1.55-2.6,3.16-5.08,4.8-7.43A96.22,96.22,0,0,1,267,80.43a64.2,64.2,0,0,1,22-12.72A50.33,50.33,0,0,1,303,65.23a55.46,55.46,0,0,0-14.09,2.25A68.32,68.32,0,0,0,264.8,80.69a97.64,97.64,0,0,0-16.27,17.43q-2.64,3.57-5.11,7.5c-.39.63-.78,1.25-1.16,1.89-1.28,2.12-2.53,4.33-3.75,6.6a158.55,158.55,0,0,0-8.42,18.73c-.42,1.11-.83,2.23-1.24,3.37-.08.24-.17.47-.24.7a2,2,0,0,0-.08.22q-1.54,4.41-2.87,8.93a203.38,203.38,0,0,0-5,21.46c-.16.84-.3,1.67-.44,2.51a222.94,222.94,0,0,0-2.77,26.19c0,.85-.08,1.7-.12,2.55s-.06,2-.08,2.94q-.21,9.25.31,18.45c.07,1.32.16,2.63.26,3.94q.81,10.93,2.65,21.53c.28,1.65.58,3.28.9,4.91.06.31.12.61.19.91.16.85.34,1.7.53,2.54a194.13,194.13,0,0,0,6.53,23.45c.47,1.37,1,2.72,1.48,4.07v0c.23.62.46,1.24.71,1.85q2.82,7.25,6.2,13.95c6.47,12.83,14.45,24,23.81,32.81,13.27,12.46,27.71,18.61,42,19-13.6-.44-27.32-6.59-39.94-19C254.31,321.7,247,311,240.93,298.84Z"/><path class="cls-18" d="M446.34,209.94a48.07,48.07,0,0,1-.54,5.05,51.73,51.73,0,0,1-3.24,11.45,57.73,57.73,0,0,1-3.58,7.29,75.2,75.2,0,0,1-11.61,15A104.19,104.19,0,0,1,411,262.12l-2.18,1.43a149.51,149.51,0,0,1-26.54,13.16l-1.89.71-.13.05c-1.35.5-2.73,1-4.11,1.45q-7.26,2.5-15,4.45l-2.47.61c-6,1.45-12.12,2.66-18.37,3.61-1.34.21-2.69.4-4,.58q-2.83.39-5.7.7L329,289c-1.91.19-3.83.37-5.76.52-30,2.37-61.56-.85-89.82-10.4l-.75-.26c-1.39-.47-2.76-1-4.11-1.46s-2.82-1.06-4.2-1.61q-2.74-1.09-5.38-2.25l-3.1-1.4q-1.72-.81-3.42-1.65c-1-.52-2.09-1-3.11-1.59a122,122,0,0,1-20.59-13.51l-.91-.76c-.36-.29-.71-.59-1.05-.89q-3.1-2.7-5.83-5.5a76.79,76.79,0,0,1-8.71-10.72,60.79,60.79,0,0,1-6.11-11.5,51.11,51.11,0,0,1-3.71-17.45,56.11,56.11,0,0,0,3.71,18.4,64.94,64.94,0,0,0,3.87,8.32,80.15,80.15,0,0,0,14.24,18.39l1.33,1.27c.62.58,1.25,1.16,1.89,1.73.12.11.24.22.37.32a120.44,120.44,0,0,0,22.61,15.6c1.32.72,2.67,1.41,4,2.1s2.54,1.25,3.84,1.85q2.79,1.32,5.7,2.54c2,.83,4,1.62,6,2.4h0c1.1.41,2.22.83,3.35,1.22l.7.25c29.11,10.19,61.62,13.37,92.36,10.38l1.89-.19,2.74-.3A206.44,206.44,0,0,0,374.67,283c1.37-.49,2.73-1,4.09-1.49l1.61-.61,1.89-.76a144,144,0,0,0,28.21-14.95c.71-.49,1.42-1,2.12-1.51a103.87,103.87,0,0,0,14.78-12.9,77.72,77.72,0,0,0,12.33-17.09,61.1,61.1,0,0,0,2.86-6.33,55.76,55.76,0,0,0,3.3-12.41c.24-1.69.41-3.38.49-5.06,0-.37,0-.75,0-1.12Zm-4.92-25.62c-5.4-12.25-15.14-23.78-28.79-33.65l-.08-.06c-.86-.62-1.72-1.23-2.61-1.83-.35-.25-.71-.48-1.07-.73a148.68,148.68,0,0,0-30.09-15.19l-2.06-.76-1.31-.48-.58-.2-.13,0-.84-.28a196.11,196.11,0,0,0-25.67-6.93l-1.89-.36A224.22,224.22,0,0,0,301,120c-1.72,0-3.44.07-5.16.14a212.72,212.72,0,0,0-61.67,11.26c-1.38.48-2.74,1-4.09,1.49-2.47.93-4.89,1.9-7.27,2.93a136.44,136.44,0,0,0-29.38,17c-.8.62-1.6,1.25-2.38,1.89h0c-.67.55-1.33,1.09-2,1.65a99.21,99.21,0,0,0-7.62,7.26,79.91,79.91,0,0,0-10.11,13.18,63.05,63.05,0,0,0-4.86,9.68,56.93,56.93,0,0,0-3.36,12,54.34,54.34,0,0,0-.69,7.18,49,49,0,0,1,.76-7.11,51.39,51.39,0,0,1,3.24-10.93,60.26,60.26,0,0,1,5-9.43,76.76,76.76,0,0,1,10.05-12.47,97.4,97.4,0,0,1,9-8c.67-.54,1.35-1.06,2-1.58l1.95-1.42c.88-.64,1.78-1.27,2.69-1.89a138.18,138.18,0,0,1,20.32-11.26c3.6-1.64,7.34-3.17,11.18-4.59l.18-.06c1.29-.47,2.6-.94,3.92-1.39,2.17-.75,4.36-1.45,6.59-2.11a223.35,223.35,0,0,1,52.2-8.92q6.67-.36,13.42-.35a234.18,234.18,0,0,1,41.38,3.7c.62.1,1.25.22,1.89.35A202.13,202.13,0,0,1,374.83,135l.58.18.74.26.53.18,0,0c1.2.41,2.38.83,3.54,1.27a155,155,0,0,1,24.47,11.41l.71.42q1.53.9,3,1.83l.11.06c15.5,9.78,26.51,21.48,32.52,34a52.18,52.18,0,0,1,5.32,21.1A56.67,56.67,0,0,0,441.42,184.32Z"/><path class="cls-19" d="M186.73,153.94m17.34-25.39a127.36,127.36,0,0,1,20.11-20.42l.23-.19a1.94,1.94,0,0,1,1.24-.44H254.1a.9.9,0,0,0,.66-.27l9.1-9.1a1.93,1.93,0,0,1,1.39-.58h20.84a2,2,0,0,1,1.91,1.5,11.86,11.86,0,0,0,3.09,5.48h0a11.63,11.63,0,0,0,15.27,1.07,12.29,12.29,0,0,0,1.22-1.07h0A11.67,11.67,0,0,0,311,97.27c0-.32,0-.66,0-1a11.52,11.52,0,0,0-1.45-5.61s0,0,0,0a1.94,1.94,0,0,1,.35-2.31l7-7a1.93,1.93,0,0,1,1.62-.57,126.91,126.91,0,0,1,16.38,3,124.91,124.91,0,0,1,14.23,4.47c.33.12.65.26,1,.39,1.23.47,2.45,1,3.65,1.49a126.09,126.09,0,0,1,22.33,12.34,127.68,127.68,0,0,1,39.12,43.41,1.9,1.9,0,0,1,0,1.95,1.46,1.46,0,0,1-.17.24,1.9,1.9,0,0,1-1.53.73H389.2a1.92,1.92,0,0,1-1.39-.57l-5.71-5.72-3.61-3.6-1.19-1.2a1.93,1.93,0,0,1-.58-1.4v-15.6a1,1,0,0,0-.33-.72.87.87,0,0,1-.11-.09l-6.16-6.17-4.11-4.1a.93.93,0,0,0-.65-.28H356.3a.89.89,0,0,0-.62.24l-.05,0-9.06,9a1,1,0,0,0-.27.67V133a1,1,0,0,0,.27.67l8.54,8.52a1.92,1.92,0,0,1,.57,1.4v2.23a2,2,0,0,1-2,2,11.63,11.63,0,0,0-8.24,3.42h0a11.65,11.65,0,0,0,0,16.5,2,2,0,0,1,0,2.78l-18.23,18.24a1.93,1.93,0,0,1-1.39.57H315a.94.94,0,0,0-.67.27l-11.08,11.08a.93.93,0,0,0-.28.67v8.31a1,1,0,0,0,.35.73.73.73,0,0,0,.11.09l7.16,6.83,10.9,10.42a1,1,0,0,0,.65.26h30.59a2,2,0,0,1,2,2,11.58,11.58,0,0,0,3.43,8.24v0a11.65,11.65,0,0,0,16.49,0v0a11.7,11.7,0,0,0,1.85-2.41,2,2,0,0,1,2.7-.71l3.75,2.16,2.54,1.48,3.74,2.15,3.76,2.17a1.91,1.91,0,0,1,1,1.7V264a2,2,0,0,1-1,1.7l-10.9,6.29-1.23.71a1,1,0,0,0-.48.81v9.36a2,2,0,0,1-.57,1.4l-3.52,3.51-5.94,5.94-9.22,9.22-19,19a1,1,0,0,0-.28.67v3.88a2,2,0,0,1-1.41,1.89c-1.81.55-3.64,1-5.47,1.5-1.39.35-2.77.68-4.17,1a2,2,0,0,1-2.38-1.93V292.81a2,2,0,0,1,1.74-1.95,11.7,11.7,0,0,0,6.15-2.69c.25-.21.48-.42.71-.65v0A11.64,11.64,0,0,0,337,271h0a11.72,11.72,0,0,0-5.85-3.18,12.66,12.66,0,0,0-2.39-.24,11.45,11.45,0,0,0-5.82,1.57,2,2,0,0,1-2.38-.32l-3.47-3.47a1.87,1.87,0,0,1-.58-1.39V236.92a.91.91,0,0,0-.34-.72l-.1-.09-8-7.75a1,1,0,0,0-.65-.27H295.66a1.9,1.9,0,0,1-1.4-.59L286,219.19a1.94,1.94,0,0,1-.26-2.48c.14-.22.27-.44.39-.65a11.62,11.62,0,0,0-1.91-14h0a11.63,11.63,0,0,0-14.61-1.52,2,2,0,0,1-2.47-.26L262.8,196l-10.23-10.22a1.94,1.94,0,0,1-.57-1.4V156a1,1,0,0,0-.28-.67l-3.45-3.44a1.93,1.93,0,0,1-.38-2.22,11.61,11.61,0,0,0-2.36-13.11v0a11.59,11.59,0,0,0-6.22-3.24,12.48,12.48,0,0,0-6.86.94,12.27,12.27,0,0,0-3.65,2.57l-.26.28a11,11,0,0,0-2.87,8.94,11.89,11.89,0,0,0,3.36,7h0a11.66,11.66,0,0,0,15.81.64,2,2,0,0,1,2.67.1l2,2a1.92,1.92,0,0,1,.57,1.4v28.38a.92.92,0,0,0,.29.67l12.41,12.41,3,3a1.94,1.94,0,0,1,.27,2.44,11.84,11.84,0,0,0-1.8,6.23,11.61,11.61,0,0,0,3.42,8.24h0a11.65,11.65,0,0,0,8.25,3.42,11.52,11.52,0,0,0,6.21-1.79,2,2,0,0,1,2.45.26l9.21,9.22a1,1,0,0,0,.67.27h11.78a1.93,1.93,0,0,1,1.38.56l6.41,6.2a1.92,1.92,0,0,1,.6,1.41v27a.9.9,0,0,0,.27.67L319,270a1.78,1.78,0,0,1,.22.26,1.94,1.94,0,0,1,0,2.27,11.62,11.62,0,0,0,1.26,15l0,0a11.62,11.62,0,0,0,4.63,2.84,2,2,0,0,1,1.36,1.88v40.2a.91.91,0,0,0,0,.17,1,1,0,0,0,1.09.76c2.61-.49,5.21-1.06,7.78-1.7s5-1.33,7.41-2.11l.17-.05a.94.94,0,0,0,.74-.92v-4.81a1.9,1.9,0,0,1,.57-1.39L358.69,308l2.63-2.62L368,298.7l6.21-6.2,7.8-7.81a.91.91,0,0,0,.28-.66v-8.89a1.93,1.93,0,0,1,1-1.71l11.94-6.9.13-.06a1,1,0,0,0,.52-.85V243.08a1,1,0,0,0-.48-.81l-5.85-3.37-3.78-2.18-2.07-1.2L379,232.83a2,2,0,0,1-1-1.88c0-.32,0-.65,0-1a11.6,11.6,0,0,0-3-7.81,5.6,5.6,0,0,0-.41-.43h0a11.89,11.89,0,0,0-2.41-1.85,11.48,11.48,0,0,0-5.83-1.57,11.61,11.61,0,0,0-8.25,3.42h0a11.47,11.47,0,0,0-2.3,3.26,2,2,0,0,1-1.78,1.12H323.3a1.89,1.89,0,0,1-1.36-.54l-10.3-9.83-6.16-5.89a1.91,1.91,0,0,1-.62-1.42v-5.87a1.91,1.91,0,0,1,.58-1.39l9.37-9.36a1.88,1.88,0,0,1,1.39-.59h10.86a.93.93,0,0,0,.66-.27l20-20a1.92,1.92,0,0,1,2.06-.46,11.44,11.44,0,0,0,3.93.68,11.57,11.57,0,0,0,8.24-3.42h0a11.62,11.62,0,0,0,0-16.49h0A11.59,11.59,0,0,0,358.7,149a1.93,1.93,0,0,1-1.12-1.79v-4.75a1,1,0,0,0-.27-.67l-8.54-8.52a1.92,1.92,0,0,1-.57-1.4V120.54a1.92,1.92,0,0,1,.57-1.4l7.35-7.35a2,2,0,0,1,1.33-.57h6.71a1.91,1.91,0,0,1,1.4.57l7.33,7.33,1.38,1.37a1.94,1.94,0,0,1,.57,1.4V137.5a1,1,0,0,0,.28.67l8.14,8.14,4.09,4.08a.91.91,0,0,0,.66.28h30.29a1,1,0,0,0,.3,0l.12-.05a.93.93,0,0,0,.42-1.25l-.65-1.26a129.11,129.11,0,0,0-64.35-59.82c-1.14-.48-2.28-1-3.44-1.4s-2.27-.87-3.43-1.28c-3.43-1.23-6.93-2.31-10.47-3.24a128.6,128.6,0,0,0-19.28-3.54l-.12,0a.94.94,0,0,0-.84.27l-7.7,7.69a2,2,0,0,1-2.57.19,11.66,11.66,0,0,0-12-1.15A11.75,11.75,0,0,0,291.1,88h0a11.78,11.78,0,0,0-3.21,6,2,2,0,0,1-1.93,1.6h-21.9a.91.91,0,0,0-.67.28l-3.21,3.22L254.29,105a2,2,0,0,1-1.4.58H224.64a.93.93,0,0,0-.46.12l-.11.08c-.2.15-10.91,10.93-21.48,21.56M308.44,99.9h0a9.48,9.48,0,0,1-1.48,2.55c-.21.25-.44.5-.68.74v0a9.83,9.83,0,0,1-13.84,0v0a9.8,9.8,0,0,1,0-13.84h0a10.13,10.13,0,0,1,2.49-1.8,9.84,9.84,0,0,1,11.35,1.8h0A9.42,9.42,0,0,1,308,91.75a9.82,9.82,0,0,1,.42,8.15ZM244.2,151.76v0a9.81,9.81,0,0,1-13.83,0v0a9.76,9.76,0,0,1-2.86-6.92,9.72,9.72,0,0,1,2.86-6.91v0a9.29,9.29,0,0,1,2-1.56,9.84,9.84,0,0,1,4.88-1.3,9.74,9.74,0,0,1,6.91,2.86v0a9.79,9.79,0,0,1,0,13.83Zm39.66,64.3a8.28,8.28,0,0,1-1,1.2h0a9.8,9.8,0,0,1-13.84,0h0a9.76,9.76,0,0,1-2.86-6.91,9.48,9.48,0,0,1,.49-3.06,9.63,9.63,0,0,1,2.37-3.86v0a9.83,9.83,0,0,1,13.84,0v0a9.81,9.81,0,0,1,1,12.63Zm38,70.13h0a9.84,9.84,0,0,1,0-13.85h0a9.87,9.87,0,0,1,3.09-2.09,9.67,9.67,0,0,1,3.7-.76h.13a9.7,9.7,0,0,1,6.87,2.81l.06,0a9.81,9.81,0,0,1-.07,13.9,9.56,9.56,0,0,1-5,2.63A9.93,9.93,0,0,1,329,289h-.27A9.76,9.76,0,0,1,321.83,286.19Zm37.61-63.14h0a9.83,9.83,0,0,1,11.42-1.76,9.3,9.3,0,0,1,2.12,1.48l.29.28h0a9.83,9.83,0,0,1,0,13.84h0a9.83,9.83,0,0,1-13.83,0l0,0c-.26-.28-.52-.56-.75-.85a9.82,9.82,0,0,1,.75-13Zm1.19-70.49v0a9.81,9.81,0,0,1,0,13.83v0a9.8,9.8,0,0,1-13.84,0v0a9.81,9.81,0,0,1,0-13.83v0a9.83,9.83,0,0,1,13.84,0Z"/><path class="cls-19" d="M299.35,100.9a4.62,4.62,0,1,0-4.62-4.62A4.63,4.63,0,0,0,299.35,100.9Z"/><path class="cls-19" d="M237.28,149.45a4.61,4.61,0,1,0-4.62-4.61A4.62,4.62,0,0,0,237.28,149.45Z"/><path class="cls-19" d="M353.71,164.11a4.62,4.62,0,1,0-4.61-4.61A4.62,4.62,0,0,0,353.71,164.11Z"/><path class="cls-19" d="M366.38,234.58a4.61,4.61,0,1,0-4.62-4.61A4.62,4.62,0,0,0,366.38,234.58Z"/><path class="cls-19" d="M328.75,283.88a4.62,4.62,0,1,0-4.62-4.62A4.63,4.63,0,0,0,328.75,283.88Z"/><path class="cls-19" d="M275.91,215.29a4.62,4.62,0,1,0-4.61-4.62A4.63,4.63,0,0,0,275.91,215.29Z"/><path class="cls-20" d="M136.45,72.24a50.27,50.27,0,0,0,74.48,66.61l1.81.17L232.89,141l-8.41-18.42-.75-1.65a50.27,50.27,0,0,0-87.28-48.64Z"/><circle cx="177.02" cy="101.4" r="43.83"/><g class="cls-21"><path class="cls-22" d="M214.71,148.33H139.32c1-6.25,0-18.09,10.5-25,2.93-1.94,6.54-2.6,9.75-4a6.86,6.86,0,0,0,1.28-.59,26.26,26.26,0,0,0,2.74-2.23,3.38,3.38,0,0,1,1.4-.68,2.89,2.89,0,0,0,2.83-2.53,15.19,15.19,0,0,0,.44-6.64,2.32,2.32,0,0,0-1.52-2c-2-.78-4-1.65-5.94-2.49-1.48-.62-1.58-1.14-1-2.67a59,59,0,0,0,3.38-14.88c.31-3.86.05-7.83,1.46-11.56,1-2.63,2.61-5.06,5.26-5.84,2-.59,3.79-2,5.93-2.24a8.38,8.38,0,0,1,1.13-.06l.13,0c5.08.32,11.13,3.38,12.56,9,.08.29.11.59.18.88h.13c.78,3.2.7,6.53,1,9.79a58.25,58.25,0,0,0,3.38,14.87c.54,1.53.44,2-1,2.67-2,.84-3.95,1.71-5.95,2.49a2.3,2.3,0,0,0-1.52,2,14.85,14.85,0,0,0,.44,6.63,2.86,2.86,0,0,0,2.82,2.53,3.27,3.27,0,0,1,1.41.69,17,17,0,0,0,2.74,2.22c3.63,1.65,7.58,2.66,11.05,4.63C214.71,129.26,213.76,142.08,214.71,148.33Z"/></g><path class="cls-20" d="M186.15,226.82a38.49,38.49,0,0,0,76.3-5.74l1.05-.91,11.76-10.09-14.62-5.14-1.31-.46a38.49,38.49,0,0,0-73.18,22.34Z"/><circle cx="223.78" cy="219.91" r="33.56"/><g class="cls-23"><path class="cls-22" d="M252.65,255.84H194.92c.73-4.79,0-13.84,8-19.16,2.24-1.48,5-2,7.46-3.09a5.27,5.27,0,0,0,1-.46,19.07,19.07,0,0,0,2.1-1.7,2.52,2.52,0,0,1,1.08-.52,2.21,2.21,0,0,0,2.16-1.94,11.48,11.48,0,0,0,.34-5.08,1.79,1.79,0,0,0-1.16-1.53c-1.54-.6-3-1.26-4.56-1.91-1.13-.47-1.2-.87-.79-2A45.17,45.17,0,0,0,213.16,207c.24-3,0-6,1.11-8.85.77-2,2-3.88,4-4.47,1.56-.46,2.9-1.5,4.54-1.72a8.3,8.3,0,0,1,.87,0l.1,0c3.89.24,8.52,2.59,9.62,6.9.06.23.08.46.14.68h.09a47,47,0,0,1,.74,7.49A44.42,44.42,0,0,0,237,218.41c.41,1.17.33,1.57-.8,2.05-1.51.64-3,1.3-4.55,1.9a1.77,1.77,0,0,0-1.16,1.53,11.47,11.47,0,0,0,.33,5.08,2.2,2.2,0,0,0,2.17,1.94,2.49,2.49,0,0,1,1.07.52,13.23,13.23,0,0,0,2.1,1.71c2.78,1.26,5.8,2,8.46,3.54C252.65,241.24,251.92,251.05,252.65,255.84Z"/></g><path class="cls-20" d="M445.48,110.17a42.92,42.92,0,0,0-80,29.64l-.85,1.3-9.5,14.44,17.26,1,1.54.09a42.92,42.92,0,0,0,71.56-46.47Z"/><circle cx="407.13" cy="129.43" r="37.62"/><g class="cls-24"><path class="cls-22" d="M437.74,153.47a175.53,175.53,0,0,0-17.3-7.52,2.15,2.15,0,0,1-1.14-.89,28,28,0,0,1-1.16-3.3,2.27,2.27,0,0,0-1.18-1.71,1,1,0,0,1-.4-.77c0-2.58-.56-5.29,1.35-7.54a1.19,1.19,0,0,0,.13-.25c1-2.27,1.21-4.84,2.65-7a.26.26,0,0,0,.05-.18c.17-1.6.35-3.2.48-4.81a.73.73,0,0,0-.33-.61c-.8-.28-.75-.92-.75-1.56,0-3.13,0-6.27,0-9.4a6,6,0,0,0-1.91-4.68c-1.57-1.41-3.18-2.77-4.79-4.13-.78-.66-.85-1.17-.12-1.89a9.09,9.09,0,0,1,1.11-.82l-.24-.37a10.15,10.15,0,0,0-1.46,0c-1.78.29-3.56.54-5.32,1a22.11,22.11,0,0,0-9.29,4.07c-1.86,1.53-3.34,3.31-3.52,5.83-.1,1.32-.08,2.65-.1,4,0,2.15,0,4.31,0,6.46,0,.35-.21.92-.45,1-.87.29-.9.84-.78,1.57.08.49,0,1,.13,1.5.3,1.35.62,2.7,1,4a25.25,25.25,0,0,1,1,2.92,9.87,9.87,0,0,0,2.4,5.26,1.59,1.59,0,0,1,.37,1c-.1,1.55-.27,3.09-.47,4.62a1.12,1.12,0,0,1-.62.8c-1,.21-1.18,1-1.42,1.8-.32,1-.67,2.11-1.08,3.13a1.56,1.56,0,0,1-.76.78c-1.82.8-3.67,1.53-5.51,2.3s-3.93,1.6-5.83,2.51-3.87,2-5.8,3a14.71,14.71,0,0,0-3.08,2.11v12.69h67V155.59A11.24,11.24,0,0,0,437.74,153.47Z"/></g><path class="cls-20" d="M320.58,45.92a23.69,23.69,0,0,0-23.84,40.6l.09.85,1,9.48,7.73-5.59.69-.5a23.68,23.68,0,0,0,14.35-44.84Z"/><circle cx="310.71" cy="67.29" r="20.76"/><g class="cls-25"><path class="cls-22" d="M327.6,80.55a97.15,97.15,0,0,0-9.54-4.15,1.13,1.13,0,0,1-.63-.49,14,14,0,0,1-.64-1.82,1.28,1.28,0,0,0-.66-1,.55.55,0,0,1-.22-.42c0-1.42-.3-2.92.75-4.16a.37.37,0,0,0,.07-.14c.57-1.25.67-2.67,1.47-3.83a.15.15,0,0,0,0-.1c.1-.88.19-1.77.27-2.65a.41.41,0,0,0-.18-.34c-.44-.16-.42-.51-.42-.86,0-1.73,0-3.46,0-5.19a3.34,3.34,0,0,0-1.05-2.58c-.87-.78-1.76-1.53-2.64-2.28-.43-.36-.47-.64-.07-1a5.32,5.32,0,0,1,.61-.45l-.13-.21a5.48,5.48,0,0,0-.81,0c-1,.16-2,.3-2.93.52a12.2,12.2,0,0,0-5.13,2.25,4.56,4.56,0,0,0-1.94,3.22c-.05.72-.05,1.46-.05,2.18,0,1.19,0,2.38,0,3.57,0,.19-.11.51-.24.55-.48.16-.5.46-.43.87s0,.56.07.83c.16.74.34,1.48.55,2.21a12.83,12.83,0,0,1,.56,1.61,5.52,5.52,0,0,0,1.32,2.91.82.82,0,0,1,.21.55c-.06.85-.15,1.7-.26,2.55a.62.62,0,0,1-.34.44c-.57.11-.65.55-.79,1s-.37,1.16-.59,1.73a.88.88,0,0,1-.42.43c-1,.44-2,.84-3,1.27s-2.17.88-3.22,1.38-2.13,1.11-3.2,1.67a8.54,8.54,0,0,0-1.7,1.17v7h37V81.72A6.41,6.41,0,0,0,327.6,80.55Z"/></g><path class="cls-20" d="M249.38,359.18a47.34,47.34,0,0,1,58.79-73.47l1.65-.44,18.41-4.94-4.93,18.41-.44,1.65a47.34,47.34,0,0,1-73.48,58.79Z"/><circle cx="282.85" cy="325.71" r="40.35"/><g class="cls-26"><path class="cls-22" d="M315.69,351.5a186.14,186.14,0,0,0-18.56-8.07,2.24,2.24,0,0,1-1.22-1,30.08,30.08,0,0,1-1.24-3.53,2.45,2.45,0,0,0-1.27-1.84,1.08,1.08,0,0,1-.43-.82c0-2.77-.59-5.68,1.45-8.09.07-.07.09-.19.14-.27,1.1-2.43,1.3-5.19,2.85-7.45a.42.42,0,0,0,0-.2c.18-1.72.37-3.43.51-5.15a.78.78,0,0,0-.35-.66c-.86-.31-.81-1-.8-1.67q0-5.06,0-10.09a6.44,6.44,0,0,0-2.05-5c-1.68-1.51-3.41-3-5.13-4.43-.84-.71-.91-1.25-.13-2a9.57,9.57,0,0,1,1.19-.87l-.26-.4a10.15,10.15,0,0,0-1.56,0c-1.91.31-3.83.58-5.71,1-3.58.85-7.06,2-10,4.37-2,1.64-3.59,3.55-3.78,6.25-.1,1.41-.09,2.84-.1,4.26,0,2.3,0,4.62,0,6.92,0,.38-.23,1-.48,1.08-.94.3-1,.9-.84,1.68.09.53,0,1.09.14,1.61.33,1.45.67,2.89,1.08,4.31a23.32,23.32,0,0,1,1.08,3.14,10.66,10.66,0,0,0,2.58,5.64,1.59,1.59,0,0,1,.39,1.07c-.1,1.66-.28,3.32-.5,5a1.17,1.17,0,0,1-.66.85c-1.1.23-1.27,1.08-1.53,1.93-.34,1.13-.71,2.26-1.15,3.36a1.74,1.74,0,0,1-.81.84c-2,.86-3.95,1.64-5.92,2.46s-4.21,1.72-6.25,2.7-4.15,2.14-6.22,3.25a15.85,15.85,0,0,0-3.31,2.26v13.61h71.93V353.77A12,12,0,0,0,315.69,351.5Z"/></g><path class="cls-20" d="M425.32,287.26A34.6,34.6,0,0,1,371.82,244l-.32-1.2L368,229.37,381.4,233l1.2.33a34.6,34.6,0,0,1,42.72,53.9Z"/><circle cx="400.97" cy="262.68" r="29.66"/><g class="cls-27"><path class="cls-22" d="M426.48,294.43h-51c.64-4.23,0-12.23,7.1-16.93,2-1.31,4.42-1.76,6.59-2.73a4.64,4.64,0,0,0,.87-.4,17,17,0,0,0,1.85-1.51,2.25,2.25,0,0,1,1-.46,2,2,0,0,0,1.91-1.72,10.26,10.26,0,0,0,.3-4.48,1.59,1.59,0,0,0-1-1.36c-1.36-.52-2.69-1.11-4-1.68-1-.42-1.06-.77-.7-1.81a39.72,39.72,0,0,0,2.29-10.06c.21-2.61,0-5.3,1-7.82.68-1.78,1.77-3.43,3.57-4,1.37-.4,2.56-1.31,4-1.51a4.84,4.84,0,0,1,.77,0H401c3.44.21,7.53,2.29,8.5,6.1.06.2.08.4.13.6h.08a40.9,40.9,0,0,1,.65,6.62,39.3,39.3,0,0,0,2.29,10.06c.36,1,.29,1.39-.7,1.81-1.34.57-2.68,1.16-4,1.69a1.58,1.58,0,0,0-1,1.35,10.16,10.16,0,0,0,.3,4.49,2,2,0,0,0,1.91,1.71,2.25,2.25,0,0,1,1,.46,11.23,11.23,0,0,0,1.85,1.51c2.46,1.11,5.13,1.8,7.47,3.13C426.48,281.53,425.83,290.2,426.48,294.43Z"/></g><rect class="cls-7" x="349.27" y="22.93" width="1.54" height="1.75"/><rect class="cls-7" x="352.02" y="21.46" width="1.54" height="3.22"/><rect class="cls-7" x="354.76" y="19.56" width="1.54" height="5.11"/><rect class="cls-7" x="357.51" y="18.06" width="1.54" height="6.62"/><rect class="cls-7" x="360.25" y="16.75" width="1.54" height="7.93"/><rect class="cls-7" x="363" y="15.4" width="1.54" height="9.28"/><path class="cls-7" d="M381.88,20.86a.49.49,0,0,1-.46-.3,5.89,5.89,0,0,0-1.26-1.86,5.78,5.78,0,0,0-1.86-1.26,6,6,0,0,0-4.55,0,5.89,5.89,0,0,0-1.86,1.26,5.7,5.7,0,0,0-1.25,1.86.51.51,0,0,1-.66.26.49.49,0,0,1-.27-.65A6.87,6.87,0,0,1,371.18,18a6.71,6.71,0,0,1,2.18-1.47,6.87,6.87,0,0,1,5.34,0,6.91,6.91,0,0,1,3.64,3.65.49.49,0,0,1-.27.65A.43.43,0,0,1,381.88,20.86Z"/><path class="cls-7" d="M379.85,21.72a.49.49,0,0,1-.46-.31,3.64,3.64,0,0,0-1.94-1.94,3.68,3.68,0,0,0-2.84,0,3.54,3.54,0,0,0-1.16.78,3.79,3.79,0,0,0-.79,1.16.49.49,0,0,1-.65.27.5.5,0,0,1-.27-.66,4.61,4.61,0,0,1,1-1.48,4.62,4.62,0,0,1,5.1-1,5,5,0,0,1,1.48,1,4.78,4.78,0,0,1,1,1.48.52.52,0,0,1-.27.66A.45.45,0,0,1,379.85,21.72Z"/><path class="cls-7" d="M374.27,22.6a.65.65,0,0,1-.19,0,.5.5,0,0,1-.27-.66,2.38,2.38,0,0,1,.52-.77,2.31,2.31,0,0,1,.76-.51,2.43,2.43,0,0,1,1.87,0,2.32,2.32,0,0,1,1.28,1.28.51.51,0,0,1-.26.66.52.52,0,0,1-.66-.27,1.37,1.37,0,0,0-.3-.45,1.54,1.54,0,0,0-.45-.3,1.47,1.47,0,0,0-1.09,0,1.63,1.63,0,0,0-.44.3,1.37,1.37,0,0,0-.3.45A.51.51,0,0,1,374.27,22.6Z"/><path class="cls-7" d="M376.8,23.4a.77.77,0,1,1-.77-.77A.77.77,0,0,1,376.8,23.4Z"/><polygon class="cls-7" points="403.38 19.21 401.78 19.21 401.78 17.55 386.91 17.55 386.91 23.87 401.78 23.87 401.78 22.02 403.38 22.02 403.38 19.21"/><path class="cls-7" d="M203.91,24.19a5.3,5.3,0,0,0,.93,0,3.24,3.24,0,0,0,1.8-.84A3.73,3.73,0,0,0,207.78,21h0a2.54,2.54,0,0,1-2,.92,2.48,2.48,0,0,1-2.53-2.62,2.94,2.94,0,0,1,2.93-3.06c1.76,0,2.84,1.43,2.84,3.62a5.41,5.41,0,0,1-1.48,4A4.24,4.24,0,0,1,205,25.07a5.46,5.46,0,0,1-1.07.07Zm.42-4.94A1.65,1.65,0,0,0,206,21.07a1.91,1.91,0,0,0,1.69-.9.72.72,0,0,0,.11-.42c0-1.47-.55-2.59-1.76-2.59C205,17.16,204.33,18,204.33,19.25Z"/><path class="cls-7" d="M210.1,19.67a.78.78,0,0,1,.8-.83.83.83,0,0,1,0,1.65A.78.78,0,0,1,210.1,19.67Zm0,4.66a.78.78,0,0,1,.8-.83.83.83,0,0,1,0,1.65A.78.78,0,0,1,210.1,24.33Z"/><path class="cls-7" d="M218.45,20.62c0,2.92-1.08,4.53-3,4.53-1.68,0-2.82-1.57-2.84-4.41s1.24-4.47,3-4.47S218.45,17.89,218.45,20.62Zm-4.66.13c0,2.23.69,3.5,1.74,3.5s1.76-1.38,1.76-3.58-.54-3.5-1.74-3.5C214.53,17.17,213.79,18.41,213.79,20.75Z"/><path class="cls-7" d="M225.23,20.62c0,2.92-1.08,4.53-3,4.53-1.67,0-2.81-1.57-2.84-4.41s1.25-4.47,3-4.47S225.23,17.89,225.23,20.62Zm-4.66.13c0,2.23.68,3.5,1.74,3.5s1.76-1.38,1.76-3.58-.54-3.5-1.75-3.5C221.31,17.17,220.57,18.41,220.57,20.75Z"/><path class="cls-7" d="M331.16,411a2,2,0,0,1-1.32-.5c-2.07-1.85-5.74-5.24-7-7.1a7.32,7.32,0,0,1-1.65-4.19,6.18,6.18,0,0,1,6.18-6.18,6.08,6.08,0,0,1,3.85,1.35,6.17,6.17,0,0,1,10,4.1h0a6.15,6.15,0,0,1-1.15,4.38c-1.48,2.07-5.76,6-7.53,7.63A2,2,0,0,1,331.16,411Zm-3.82-16.38a4.6,4.6,0,0,0-4.59,4.59,5.89,5.89,0,0,0,1.36,3.28c1.25,1.8,5.16,5.37,6.79,6.82a.39.39,0,0,0,.53,0c1.73-1.57,5.91-5.43,7.3-7.37a4.67,4.67,0,0,0,.87-3.27h0a4.64,4.64,0,0,0-4.38-4.05,4.58,4.58,0,0,0-3.47,1.38l-.56.58-.57-.58A4.54,4.54,0,0,0,327.34,394.62Z"/><path class="cls-7" d="M222.86,391.62,215,399.47a1.85,1.85,0,0,0-.54,1.32c0,1.82,0,6.38,0,8.41a1,1,0,0,0,1,1h5.57a.88.88,0,0,0,.87-.88v-3.88a1.76,1.76,0,0,1,1.74-1.76h0a1.76,1.76,0,0,1,1.79,1.76v3.88a.88.88,0,0,0,.87.88h5.57a1,1,0,0,0,1-1v-8.41a1.87,1.87,0,0,0-.54-1.32c-1.87-1.86-7.84-7.85-7.84-7.85A1.18,1.18,0,0,0,222.86,391.62Z"/><path class="cls-7" d="M276.53,408.89a7.83,7.83,0,1,1,7.82-7.82A7.83,7.83,0,0,1,276.53,408.89Zm0-14.06a6.24,6.24,0,1,0,6.24,6.24A6.25,6.25,0,0,0,276.53,394.83Z"/><rect class="cls-7" x="282.57" y="405.35" width="1.59" height="5.69" transform="translate(-205.64 319.92) rotate(-45)"/><path class="cls-7" d="M384.94,403.27a5.25,5.25,0,1,1,5.25-5.25A5.25,5.25,0,0,1,384.94,403.27Zm0-8.9A3.66,3.66,0,1,0,388.6,398,3.66,3.66,0,0,0,384.94,394.37Z"/><path class="cls-7" d="M392.42,410.46a7.91,7.91,0,0,0-15,0L376,410a9.5,9.5,0,0,1,18,0Z"/><rect class="cls-13" x="280.74" y="13.95" width="46.66" height="11.91" rx="5.96"/><circle class="cls-28" cx="58.92" cy="53.5" r="6.67"/><circle class="cls-29" cx="89.4" cy="53.5" r="6.67"/><circle class="cls-30" cx="119.88" cy="53.5" r="6.67"/></svg>