<?xml version="1.0" encoding="utf-8"?>
<!-- Generator: Adobe Illustrator 26.1.0, SVG Export Plug-In . SVG Version: 6.00 Build 0)  -->
<svg version="1.1" id="Layer_1" xmlns="http://www.w3.org/2000/svg" xmlns:xlink="http://www.w3.org/1999/xlink" x="0px" y="0px"
	 viewBox="0 0 1080 1080" style="enable-background:new 0 0 1080 1080;" xml:space="preserve">
<style type="text/css">
	.st0{fill-rule:evenodd;clip-rule:evenodd;fill:#FFFFFF;}
	.st1{fill-rule:evenodd;clip-rule:evenodd;fill:#0080C9;}
</style>
<g id="b">
	<path class="st0" d="M712.62,555.16c-6.06,0-10.98,4.9-10.99,10.96l0,0c0,6.06,4.92,10.96,10.99,10.96
		c6.06,0.01,10.98-4.89,10.99-10.96l0,0C723.61,560.06,718.68,555.16,712.62,555.16L712.62,555.16z M1067.02,546.82
		c-1.17-2.59-2.87-4.89-5.02-6.76c-2.33-2-4.96-3.61-7.8-4.77c-3.03-1.27-6.45-2.33-10.27-3.18c-6.16-1.48-10.7-2.89-13.62-4.21
		c-2.92-1.32-4.38-3.16-4.38-5.49c0-1.91,0.88-3.52,2.62-4.85c1.75-1.32,4.86-1.99,9.31-1.99s8.33,0.61,11.63,1.84
		c3.29,1.22,5.95,2.57,7.96,4.05l9.72-13.19c-3.77-2.78-8-4.88-12.51-6.2c-4.62-1.37-10.22-2.06-16.81-2.06
		c-3.72,0-7.4,0.53-11.07,1.59c-3.66,1.06-6.96,2.57-9.88,4.53c-2.92,1.96-5.28,4.4-7.09,7.31s-2.71,6.22-2.71,9.94
		s0.77,6.71,2.31,9.3c1.54,2.6,3.51,4.83,5.9,6.68c2.39,1.85,4.96,3.31,7.72,4.37c2.76,1.06,5.42,1.91,7.97,2.55
		c4.14,0.95,7.43,1.86,9.88,2.7c2.43,0.85,4.35,1.7,5.73,2.55c1.37,0.85,2.28,1.73,2.71,2.62c0.42,0.9,0.63,1.88,0.63,2.94
		c0,2.43-1.22,4.18-3.66,5.25c-2.44,1.06-5.68,1.59-9.72,1.59c-4.57,0-8.63-0.77-12.18-2.3c-3.56-1.54-6.5-3.47-8.84-5.8
		l-11.31,12.24c3.39,3.82,7.91,6.7,13.54,8.66c5.63,1.96,11.95,2.94,18.95,2.94c4.35,0,8.47-0.55,12.35-1.67
		c3.63-1,7.07-2.58,10.2-4.69c2.92-2.01,5.22-4.48,6.92-7.39c1.69-2.91,2.55-6.17,2.55-9.78s-0.58-6.7-1.75-9.3l0,0L1067.02,546.82z
		 M985.48,502.55l-14.17,51.82l-15.93-51.82h-15.76l-15.76,51.82l-14.33-51.82h-20.71l25.33,74.55h17.52l14.81-44.99l15.29,44.99
		h18.16l25.33-74.55h-19.75L985.48,502.55z M870.8,531.95c-0.04-4.05-1.61-7.94-4.38-10.89c-1.56-1.62-3.44-2.92-5.5-3.81
		c-2.23-1-4.77-1.51-7.65-1.51c-3.07,0-5.81,0.5-8.19,1.51c-2.21,0.9-4.24,2.18-5.97,3.82c-1.55,1.47-2.79,3.22-3.66,5.16
		c-0.85,1.91-1.28,3.82-1.28,5.72H870.8L870.8,531.95z M888.16,527.18c1.28,5.08,1.92,10.28,1.92,15.57v2.7h-55.75
		c0,2.75,0.6,5.25,1.83,7.47c1.22,2.23,2.81,4.14,4.78,5.72c1.96,1.59,4.2,2.81,6.69,3.66c2.49,0.85,4.96,1.27,7.4,1.27
		c3.61,0,6.77-0.35,9.48-1.03c2.71-0.69,5.02-1.48,6.92-2.38c1.92-0.9,3.48-1.85,4.71-2.87c1.22-1,2.15-1.82,2.78-2.46l10.2,11.44
		l-2.62,2.62c-1.42,1.42-3.5,2.94-6.22,4.53s-6.16,3.02-10.35,4.29c-4.2,1.27-9.21,1.91-15.05,1.91s-11.37-1-16.25-3.01
		c-4.7-1.89-8.96-4.73-12.51-8.36c-3.52-3.66-6.23-8.02-7.96-12.79c-1.86-4.98-2.79-10.49-2.79-16.53c0-5.51,0.93-10.62,2.79-15.33
		c1.77-4.58,4.42-8.76,7.8-12.32c3.39-3.53,7.45-6.34,11.95-8.26c4.62-2.01,9.74-3.02,15.37-3.02c6.79,0,12.56,1.24,17.28,3.73
		c4.72,2.49,8.52,5.75,11.39,9.78C884.85,517.65,886.96,522.28,888.16,527.18L888.16,527.18z M778.42,500.96
		c-2.97,0-5.63,0.32-7.96,0.95c-2.33,0.63-4.44,1.46-6.29,2.46c-1.86,1.01-3.45,2.1-4.78,3.26c-1.32,1.17-2.46,2.27-3.42,3.33
		l-0.47-8.42h-18v74.55h18.79v-40.37c0-2.75,0.45-5.33,1.36-7.71c0.9-2.38,2.15-4.47,3.75-6.28c1.59-1.8,3.51-3.2,5.73-4.21
		c2.25-1.01,4.7-1.53,7.17-1.51c4.14,0,7.51,1.3,10.11,3.89c2.61,2.6,3.91,6.28,3.91,11.05v45.13h18.79v-45.3
		c0-9.43-2.44-16.93-7.32-22.5c-4.89-5.56-12-8.35-21.35-8.35l0,0L778.42,500.96z M674.73,539.75c0-2.64-0.42-5.38-1.27-8.18
		c-0.83-2.76-2.15-5.34-3.9-7.63c-1.79-2.3-4.04-4.2-6.61-5.56c-2.66-1.42-5.79-2.15-9.4-2.15c-3.61,0-6.74,0.72-9.39,2.15
		c-2.65,1.42-4.86,3.28-6.61,5.56c-1.75,2.29-3.07,4.87-3.9,7.63c-0.83,2.65-1.25,5.41-1.28,8.18c0,2.75,0.42,5.51,1.28,8.26
		c0.85,2.75,2.17,5.34,3.9,7.63c1.75,2.33,3.95,4.21,6.61,5.65c2.65,1.42,5.78,2.15,9.39,2.15c3.61,0,6.74-0.72,9.4-2.15
		c2.65-1.42,4.85-3.31,6.61-5.65c1.74-2.33,3.05-4.88,3.9-7.63C674.3,545.25,674.73,542.5,674.73,539.75z M690.74,524.41
		c1.96,4.82,2.94,9.93,2.94,15.33s-0.98,10.52-2.94,15.33c-1.9,4.72-4.68,9.04-8.2,12.72c-3.59,3.72-7.9,6.67-12.66,8.67
		c-4.94,2.12-10.38,3.18-16.32,3.18s-11.39-1.06-16.32-3.18c-4.77-2-9.07-4.96-12.66-8.67c-3.52-3.68-6.3-7.99-8.2-12.71
		c-1.98-4.87-2.98-10.08-2.95-15.34c0-5.4,0.98-10.51,2.95-15.33c1.89-4.7,4.67-9,8.2-12.64c3.61-3.68,7.92-6.6,12.66-8.59
		c4.94-2.12,10.38-3.18,16.32-3.18s11.39,1.05,16.32,3.18c4.75,1.99,9.06,4.91,12.66,8.59
		C686.06,515.42,688.85,519.71,690.74,524.41L690.74,524.41L690.74,524.41z M599.66,562.32c-1.75,0.85-4.12,1.27-7.09,1.27
		c-3.19,0-5.5-1.14-6.92-3.42c-1.44-2.27-2.15-5.53-2.15-9.78v-32.58h20.06v-15.26H583.5v-24.16h-18.79v24.16h-12.74v15.26h12.74
		v33.86c0,4.13,0.42,7.92,1.28,11.36c0.85,3.44,2.26,6.38,4.22,8.82c1.97,2.43,4.54,4.32,7.73,5.65c3.19,1.32,7.06,1.99,11.63,1.99
		c4.57,0,8.49-0.66,12.1-1.99c3.61-1.33,7.27-3.53,10.99-6.6l-7.96-11.6c-1.58,1.16-3.25,2.18-5.02,3.02H599.66z M529.5,540.22
		c0-3.18-0.35-6.15-1.04-8.9c-0.62-2.61-1.76-5.07-3.34-7.23c-1.57-2.09-3.62-3.78-5.97-4.93c-2.44-1.22-5.46-1.83-9.08-1.83
		c-2.87,0-5.46,0.61-7.8,1.83c-2.34,1.22-4.33,2.78-5.97,4.69c-1.64,1.91-2.92,4.01-3.82,6.28c-0.91,2.29-1.36,4.48-1.36,6.6v22.09
		c3.71,3.07,9.34,4.61,16.89,4.61c3.39,0,6.42-0.66,9.08-1.99c2.59-1.28,4.89-3.06,6.77-5.25c1.86-2.18,3.29-4.69,4.22-7.39
		C529.04,546.03,529.52,543.13,529.5,540.22L529.5,540.22z M546.39,525.76c1.38,4.66,2.07,9.48,2.07,14.46
		c0,5.83-0.85,10.81-2.55,14.94c-1.56,3.9-3.71,7.55-6.37,10.81c-4.25,5.08-8.89,8.63-13.94,10.65c-4.94,1.99-10.2,3.01-15.53,3.02
		c-2.44,0-4.54-0.1-6.29-0.32c-3-0.34-5.95-1.06-8.76-2.15l-3.89-1.51v33.22h-18.64V502.56h18.16l0.47,8.43
		c0.96-1.05,2.15-2.17,3.58-3.33c1.43-1.17,3.13-2.23,5.09-3.18c1.96-0.95,4.2-1.75,6.69-2.38s5.28-0.95,8.37-0.95
		c5.73,0,10.7,1.11,14.89,3.33c4.2,2.23,7.67,5.16,10.43,8.82C542.97,517.04,545.08,521.27,546.39,525.76L546.39,525.76z
		 M427.89,553.58l-21.35-51.03h-21.66l33.61,73.92l-2.39,6.03c-1.8,4.45-3.53,7.74-5.18,9.86c-1.65,2.12-3.75,3.18-6.29,3.18
		c-1.91,0-3.5-0.4-4.78-1.19c-1.22-0.75-2.38-1.57-3.5-2.46l-8.44,13.19c2.12,1.8,4.59,3.2,7.41,4.21c2.81,1,6.35,1.51,10.59,1.51
		c4.89,0,8.92-1.06,12.11-3.18c3.21-2.15,5.95-4.94,8.04-8.18c2.22-3.43,4.07-7.08,5.5-10.89c1.48-3.92,2.97-7.73,4.46-11.44
		l31.22-74.55h-20.55l-18.79,51.03l0,0L427.89,553.58z M372.78,501.11c-3.08,0-5.82,0.37-8.2,1.11c-2.39,0.74-4.49,1.65-6.29,2.71
		c-1.8,1.05-3.38,2.22-4.7,3.5c-1.33,1.27-2.43,2.43-3.27,3.5l-0.47-9.38h-18v74.55h18.79v-40.21c0-2.75,0.5-5.25,1.51-7.47
		c1-2.22,2.37-4.13,4.07-5.72c1.69-1.59,3.71-2.81,6.05-3.65c2.34-0.85,4.78-1.28,7.33-1.28c1.8,0,3.37,0.1,4.7,0.32
		c1.32,0.22,2.62,0.58,3.9,1.11l3.82-17.64c-1.48-0.53-2.94-0.9-4.38-1.11c-1.61-0.22-3.24-0.33-4.86-0.32l0,0L372.78,501.11z
		 M275.79,531c-0.85,2.84-1.28,5.78-1.28,8.74c0,2.86,0.42,5.67,1.27,8.43c0.85,2.76,2.15,5.25,3.91,7.47
		c1.75,2.22,3.95,4.03,6.61,5.4c2.66,1.37,5.78,2.06,9.39,2.06c3.61,0,7.11-0.72,10.2-2.14c2.99-1.36,5.65-3.33,7.8-5.8l11.15,12.08
		c-3.54,3.73-7.75,6.76-12.42,8.9c-4.78,2.22-10.35,3.33-16.72,3.33c-6.37,0-12.05-0.95-17.04-2.86c-4.99-1.92-9.19-4.62-12.59-8.11
		c-3.45-3.59-6.12-7.87-7.8-12.56c-1.8-4.87-2.71-10.27-2.71-16.21c0-5.4,0.98-10.51,2.94-15.33c1.89-4.71,4.68-9,8.21-12.64
		c3.61-3.68,7.92-6.6,12.66-8.59c4.94-2.12,10.38-3.18,16.32-3.18c5.95,0,11.58,1.09,16.57,3.25c4.8,2.05,9.14,5.04,12.74,8.82
		l-11.95,12.09c-2.07-2.4-4.62-4.34-7.48-5.72c-2.87-1.37-6.16-2.06-9.88-2.06c-3.71,0-6.74,0.66-9.39,1.99
		c-2.65,1.32-4.86,3.05-6.61,5.16c-1.8,2.2-3.13,4.74-3.9,7.47L275.79,531z"/>
	<path class="st1" d="M223.19,539.62c0-58.41-47.44-105.75-105.97-105.75S11.25,481.21,11.25,539.62S58.7,645.38,117.22,645.38
		S223.19,598.04,223.19,539.62"/>
	<path class="st0" d="M58.56,563.69c-3.69,0-6.69,2.99-6.69,6.68s3,6.68,6.69,6.68c3.69,0,6.69-2.99,6.69-6.68
		S62.25,563.69,58.56,563.69 M180.24,602.53c16.77-16.63,26.17-39.28,26.11-62.9c0-23.6-9.67-46.68-26.52-63.3
		c-1.31-1.29-3.43-1.29-4.73,0.03c-1.29,1.3-1.29,3.42,0.02,4.71h0.01c15.63,15.49,24.47,36.55,24.53,58.56
		c0.05,21.84-8.64,42.79-24.15,58.17c-15.44,15.49-36.42,24.16-58.29,24.09c-21.87,0.06-42.85-8.61-58.29-24.09
		c-15.5-15.38-24.2-36.33-24.15-58.17c-0.05-21.84,8.64-42.79,24.15-58.17c20.3-20.26,48.41-28.29,77.12-22.04
		c1.79,0.46,3.61-0.62,4.07-2.41c0.46-1.79-0.62-3.61-2.41-4.07c-0.08-0.02-0.16-0.03-0.23-0.05c-30.98-6.75-61.34,1.93-83.28,23.84
		c-16.77,16.63-26.17,39.28-26.11,62.89c0,23.75,9.27,46.09,26.11,62.89c16.69,16.74,39.37,26.11,63.02,26.05
		C141.02,628.57,163.4,619.32,180.24,602.53 M158.55,457.92c-3.7,0-6.7,3-6.7,6.68s3,6.68,6.69,6.68c3.69,0.15,6.79-2.73,6.94-6.41
		c0.15-3.69-2.73-6.79-6.41-6.94c-0.18,0-0.35,0-0.54,0 M166.4,588.73c27.12-27.07,27.12-71.12,0-98.19s-71.27-27.07-98.41,0
		c-16.69,16.6-23.79,40.54-18.85,63.56c0.5,1.79,2.35,2.82,4.13,2.33c1.62-0.46,2.66-2.05,2.42-3.71
		c-4.46-20.81,1.95-42.45,17.03-57.45c24.52-24.47,64.41-24.47,88.94,0c24.52,24.47,24.52,64.28,0,88.75
		c-11.77,11.82-27.77,18.43-44.45,18.38h-0.57c-16.88-0.09-33-7.01-44.7-19.18c-1.35-1.27-3.46-1.2-4.73,0.15
		c-1.18,1.25-1.22,3.2-0.08,4.5c12.94,13.46,30.79,21.11,49.46,21.21h0.62c18.58,0,36.03-7.21,49.18-20.34 M117.18,587
		c-26.18,0-47.47-21.25-47.47-47.38c0-26.12,21.3-47.38,47.47-47.38c15.7,0,30.4,7.75,39.25,20.72c2.43,3.56,1.51,8.41-2.05,10.83
		c-3.57,2.43-8.42,1.5-10.85-2.05c-5.94-8.71-15.81-13.92-26.35-13.92c-17.57,0-31.86,14.27-31.86,31.8s14.3,31.8,31.86,31.8
		c10.54,0,20.41-5.21,26.35-13.92c2.43-3.56,7.29-4.48,10.85-2.05c3.57,2.43,4.48,7.27,2.05,10.83
		c-8.86,12.97-23.54,20.73-39.25,20.72"/>
</g>
</svg>
