<svg id="svg5" xmlns="http://www.w3.org/2000/svg" viewBox="0 0 1855.94 283.2"><defs><style>.cls-1{fill:#fff;}</style></defs><g id="layer1"><path id="path857" class="cls-1" d="M278.26,143.11c0,77.37-62.29,140.09-139.13,140.09S0,220.5,0,143.11,62.29,3,139.13,3,278.26,65.74,278.26,143.11m152.63,0c0,72.83-31.14,131.87-69.56,131.87s-69.57-59.06-69.57-131.87S322.91,11.24,361.33,11.24s69.56,59.06,69.56,131.87m62.43,0c0,65.26-10.95,118.15-24.46,118.15s-24.47-52.91-24.47-118.15S455.34,25,468.86,25s24.46,52.9,24.46,118.15m384-127.94.39-.08v-3H798.57L725.1,184.77,651.63,12.09H566.37v3l.38.08c14.44,3.26,21.77,8.13,21.77,25.66V246.08c0,17.53-7.36,22.39-21.8,25.65l-.38.09v3h57.85v-3l-.38-.09c-14.45-3.26-21.78-8.12-21.78-25.65V52.73l94.38,222.1h5.35L798.89,46.54V251.16c-1.23,13.85-8.5,18.12-21.58,21.07l-.39.09v3H877.7v-3l-.39-.09c-13.09-3-20.53-7.22-21.77-21.07l-.07-210.33h.07c0-17.53,7.33-22.4,21.77-25.66m46,136c1.65-36.88,14.89-63.49,37.11-63.95,6.86.11,12.61,2.36,17.08,6.69,9.49,9.22,14,28.48,13.27,57.26Zm-1,10.4h118.11V161c-.33-28.2-8.5-50.13-24.25-65.2-13.62-13-33.78-20.17-55-20.17h-.48c-11,0-24.46,2.66-34,7.49a79.44,79.44,0,0,0-28.56,22.53c-12.9,16-20.71,37.59-22.61,61.86-.07.73-.12,1.46-.17,2.18s-.08,1.38-.12,2.08q-.24,5.12-.17,10.25c1.28,55,31,98.91,83.73,98.91,46.3,0,73.26-33.85,80-79.28l-3.39-1.19c-11.81,24.41-33,39.21-57.17,37.41-33-2.47-58.2-35.88-55.91-76.36M1174,236c-3.87,9.19-12,14.25-22.79,14.25s-20.73-7.44-27.77-20.95c-7.56-14.51-11.54-35-11.54-59.3,0-50.55,15.73-83.25,40.06-83.25,10.19,0,18.22,5.06,22,13.88Zm78.35,36c-14.44-3.42-21.77-8.51-21.77-26.93V0l-87.75,25.85V29l.54-.05c12.1-1,20.31.7,25.08,5.1,3.73,3.45,5.55,8.74,5.55,16.19V83.87c-8.65-5.53-18.94-8.21-31.42-8.21a84.88,84.88,0,0,0-65.16,30c-17.4,20.18-26.6,47.76-26.6,79.75,0,57.13,28.12,95.53,70,95.53,24.48,0,44.18-13.42,53.2-36.05V275.3h78.73v-3.15ZM1327.6,33.34c0-17.84-13.45-31.29-31.3-31.29s-31.65,13.74-31.65,31.29,13.91,31.29,31.65,31.29,31.3-13.45,31.3-31.29m20.71,238.74c-14.44-3.42-21.78-8.51-21.78-26.93h-.06V76.24l-78.73,22.6v3.07l.47,0c17,1.51,21.7,7.38,21.7,27.29V275.3h78.8v-3.15Zm201.75,0c-14.44-3.42-21.77-8.51-21.77-26.93V76.24l-75,21.86v3.08l.45,0c13.92,1.46,18,7.66,18,27.66V235.66c-4.64,9.19-13.36,14.65-23.91,15-17.12,0-26.54-11.56-26.54-32.55V76.24l-78.74,22.61v3.06l.47,0c17,1.51,21.71,7.38,21.71,27.29v90.36a101.53,101.53,0,0,0,1.64,18.82l1.41,6.16c6.67,23.89,24.14,36.38,51.5,36.38,23.18,0,43.49-14.35,52.44-36.8v31.18h78.74v-3.14Zm305.88,3.22v-3.15l-.39-.09c-15.67-3.61-21.77-10.43-21.77-24.3V132.86c0-35.82-20.12-57.2-53.83-57.2-24.56,0-45.28,14.19-53.25,36.31-6.34-23.43-24.57-36.31-51.53-36.31-23.68,0-42.23,12.49-50.2,33.6v-33l-78.73,21.68V101l.47,0c16.83,1.5,21.7,7.54,21.7,26.93V275.3h73.46v-3.15l-.38-.09c-12.5-2.94-16.54-8.3-16.54-22V118.32c3.31-7.73,10-16.88,23.15-16.88,16.37,0,24.66,11.34,24.66,33.68V275.3h73.49v-3.15l-.39-.09c-12.5-2.94-16.54-8.3-16.54-22V132.85a75.42,75.42,0,0,0-1-13.08c3.51-8.39,10.56-18.33,24.27-18.33,16.6,0,24.66,11,24.66,33.68V275.3Z" transform="translate(0 0)"/></g></svg>