<svg id="Layer_1" data-name="Layer 1" xmlns="http://www.w3.org/2000/svg" xmlns:xlink="http://www.w3.org/1999/xlink" viewBox="0 0 101.97 59.25"><defs><style>.cls-1{fill:#fff;}.cls-2{fill-rule:evenodd;fill:url(#linear-gradient);}</style><linearGradient id="linear-gradient" x1="103.83" y1="31.58" x2="0.58" y2="31.58" gradientTransform="matrix(1, 0, 0, -1, 0, 62.08)" gradientUnits="userSpaceOnUse"><stop offset="0.01" stop-color="#307deb" stop-opacity="0"/><stop offset="0.09" stop-color="#fff" stop-opacity="0.1"/><stop offset="0.35" stop-color="#fff" stop-opacity="0.2"/><stop offset="0.42" stop-color="#fff" stop-opacity="0.5"/><stop offset="0.56" stop-color="#f9fdff"/><stop offset="0.65" stop-color="#f9fdff"/><stop offset="0.8" stop-color="#fff" stop-opacity="0.5"/><stop offset="0.91" stop-color="#fff" stop-opacity="0.15"/><stop offset="1" stop-color="#a62112" stop-opacity="0"/></linearGradient></defs><path class="cls-1" d="M36.73,33.41A6.78,6.78,0,0,0,35.21,36a5.8,5.8,0,0,0-.07,3.09,5.93,5.93,0,0,0,1.64,2.75,5.36,5.36,0,0,0,6.15,1.3l-1.5-1.49a3.47,3.47,0,0,1-1.47,0A3.71,3.71,0,0,1,38,40.6a4,4,0,0,1-1-1.66A4,4,0,0,1,37,37a5,5,0,0,1,1.21-2.11l6.9,6.87.43-.44c.14-.11.28-.24.41-.36a5.91,5.91,0,0,0,1.5-2.47,5.31,5.31,0,0,0,.07-2.88,5.51,5.51,0,0,0-1.59-2.73,6.2,6.2,0,0,0-2.83-1.67,5.47,5.47,0,0,0-3.1.09,6.45,6.45,0,0,0-2.06,1.07,7.17,7.17,0,0,0-1.18,1.09h0m5.38-.6A4.18,4.18,0,0,1,44.62,34a3.8,3.8,0,0,1,1.19,2.5,3.48,3.48,0,0,1-1,2.62l-5.45-5.42a3.62,3.62,0,0,1,2.77-.92Z" transform="translate(-0.52 -0.87)"/><path class="cls-2" d="M96.39,3.7A7.59,7.59,0,0,1,102.48.87v2A5.53,5.53,0,0,0,98,5a14.24,14.24,0,0,0-2.58,6.05c-1.17,5.23-1.22,12.27-1.19,19.45,0,.53,0,.23,0,.77v7.88a81.87,81.87,0,0,1-.76,11.18,17.48,17.48,0,0,1-2.36,6.89,6.19,6.19,0,0,1-5.33,2.91,7,7,0,0,1-5.36-2.29,12.66,12.66,0,0,1-2.68-5.58,52.73,52.73,0,0,1-1-9v-12a66.94,66.94,0,0,0-.26-10.35,12.77,12.77,0,0,0-1.26-4.75A2.44,2.44,0,0,0,73,14.73a2.73,2.73,0,0,0-2.35,1.13,8.41,8.41,0,0,0-1.3,3.64A63.45,63.45,0,0,0,68.91,30c0,.55,0,1.1,0,1.66,0,4.47,0,9.12-1,12.66a9.94,9.94,0,0,1-2.5,4.53,6.86,6.86,0,0,1-4.9,1.83c-4,0-7.78-2.07-11.36-5a104.62,104.62,0,0,1-10.6-10.5l0,0A102.76,102.76,0,0,0,28.19,25c-3.45-2.79-6.75-4.5-10-4.5s-5.15,1.64-6.63,4.35S9.18,31.32,8.46,35.23C8.3,36.1,8.15,37,8,37.86a66.85,66.85,0,0,1-1.77,8.22,11.3,11.3,0,0,1-2,3.89A4.5,4.5,0,0,1,.72,51.66v-2a2.5,2.5,0,0,0,2-1,9.54,9.54,0,0,0,1.57-3.19A63.17,63.17,0,0,0,6,37.62c.15-.91.32-1.83.49-2.76.72-3.89,1.63-7.94,3.32-11s4.35-5.4,8.43-5.4,7.72,2.07,11.28,4.95A104.8,104.8,0,0,1,40,33.79l.08.09A102.28,102.28,0,0,0,50.43,44.17c3.46,2.79,6.79,4.5,10.07,4.5A4.76,4.76,0,0,0,64,47.41a7.79,7.79,0,0,0,2-3.62c.92-3.21,1-7.56.95-12.08,0-.55,0-1.1,0-1.65a66.73,66.73,0,0,1,.43-10.9A10.55,10.55,0,0,1,69,14.64a4.77,4.77,0,0,1,4-2,4.46,4.46,0,0,1,4,2.46,14.81,14.81,0,0,1,1.53,5.53,70.71,70.71,0,0,1,.27,10.59v12a40,40,0,0,0,.93,8.48,10.79,10.79,0,0,0,2.21,4.7,4.94,4.94,0,0,0,3.85,1.62,4.14,4.14,0,0,0,3.63-2,15.45,15.45,0,0,0,2-6.08,78.28,78.28,0,0,0,.73-10.85V30.5c0-7.12,0-14.39,1.24-19.89A16.42,16.42,0,0,1,96.39,3.7Z" transform="translate(-0.52 -0.87)"/><path class="cls-1" d="M62.31,25.84h2v7.49a4.22,4.22,0,0,1,1.73-1.72A4.9,4.9,0,0,1,68.52,31a4.46,4.46,0,0,1,3.36,1.31,5.45,5.45,0,0,1,1.27,4v7h-2V36.48q0-3.75-3-3.75a3.52,3.52,0,0,0-2.66,1.14,4.44,4.44,0,0,0-1.07,3.19v6.23h-2Z" transform="translate(-0.52 -0.87)"/><path class="cls-1" d="M54.51,43.58a5.78,5.78,0,0,1-3.61-1.09,4.21,4.21,0,0,1-1.68-3h2.09a3,3,0,0,0,1,1.64,3.38,3.38,0,0,0,2.22.68,2.85,2.85,0,0,0,1.9-.53A1.71,1.71,0,0,0,57,40a1.43,1.43,0,0,0-.8-1.45A10.17,10.17,0,0,0,54,37.91a12.94,12.94,0,0,1-2-.55,4.71,4.71,0,0,1-1.63-1,2.46,2.46,0,0,1-.66-1.77A3.21,3.21,0,0,1,51,32,5.58,5.58,0,0,1,57.31,32a3.76,3.76,0,0,1,1.44,2.71h-2a2.06,2.06,0,0,0-.81-1.43,3.31,3.31,0,0,0-3.48-.07,1.47,1.47,0,0,0-.59,1.21,1.23,1.23,0,0,0,.76,1.14,8.57,8.57,0,0,0,2.09.71,16,16,0,0,1,2.12.6,3.9,3.9,0,0,1,1.66,1,2.76,2.76,0,0,1,.66,2,3.31,3.31,0,0,1-1.25,2.69A5,5,0,0,1,54.51,43.58Z" transform="translate(-0.52 -0.87)"/><path class="cls-1" d="M83.23,43.29V33H81.4V31.27h1.83V29.19a3.28,3.28,0,0,1,.88-2.55,3.67,3.67,0,0,1,2.56-.8h1.21v1.75H87a1.86,1.86,0,0,0-1.31.38,1.7,1.7,0,0,0-.39,1.26v2h3V33h-3v10.3Z" transform="translate(-0.52 -0.87)"/><path class="cls-1" d="M77.73,28.6a1.32,1.32,0,0,1-1.41-1.4,1.28,1.28,0,0,1,.39-1,1.44,1.44,0,0,1,1-.39,1.36,1.36,0,0,1,1,.39,1.26,1.26,0,0,1,.42,1,1.4,1.4,0,0,1-.42,1A1.39,1.39,0,0,1,77.73,28.6Z" transform="translate(-0.52 -0.87)"/><path class="cls-1" d="M76.71,31.27v12h2.05v-12Z" transform="translate(-0.52 -0.87)"/><path class="cls-1" d="M95.71,43.29a3.88,3.88,0,0,1-2.61-.8,3.62,3.62,0,0,1-.95-2.88V33h-2.1V31.27h2.1l.27-2.88H94.2v2.88h3.55V33H94.2v6.62a2,2,0,0,0,.46,1.55,2.58,2.58,0,0,0,1.63.39h1.27v1.74Z" transform="translate(-0.52 -0.87)"/><path class="cls-1" d="M26,43.58a4.55,4.55,0,0,1-3.41-1.28,5.54,5.54,0,0,1-1.27-4v-7h2.05v6.81q0,3.77,3.09,3.76a3.36,3.36,0,0,0,2.61-1.12,4.57,4.57,0,0,0,1.05-3.22V31.27h2v12H30.31l-.14-2.15a4.26,4.26,0,0,1-1.68,1.79A4.75,4.75,0,0,1,26,43.58Z" transform="translate(-0.52 -0.87)"/><path class="cls-1" d="M15.94,25.84h2V43.29h-2Z" transform="translate(-0.52 -0.87)"/><path class="cls-1" d="M7,43.58A5.71,5.71,0,0,1,4.32,43a4.25,4.25,0,0,1-1.76-1.7l-.19,2H.52V25.84h2v7.42a5.74,5.74,0,0,1,1.66-1.58A5.14,5.14,0,0,1,7,31a5.86,5.86,0,0,1,3.14.83,5.48,5.48,0,0,1,2.07,2.25,7.33,7.33,0,0,1,0,6.5,5.54,5.54,0,0,1-2.09,2.23,6.07,6.07,0,0,1-3.15.8Zm-.22-1.77a4.1,4.1,0,0,0,2.15-.55,4.11,4.11,0,0,0,1.46-1.6,5.49,5.49,0,0,0,0-4.75,4,4,0,0,0-3.61-2.16,4,4,0,0,0-3.6,2.16,5.49,5.49,0,0,0,0,4.75,4,4,0,0,0,1.46,1.6A4.08,4.08,0,0,0,6.75,41.81Z" transform="translate(-0.52 -0.87)"/></svg>