<?xml version="1.0" encoding="UTF-8"?><svg id="Layer_1" xmlns="http://www.w3.org/2000/svg" xmlns:xlink="http://www.w3.org/1999/xlink" viewBox="0 0 643.92 488.48"><defs><style>.cls-1{fill:#0472cf;}.cls-1,.cls-2,.cls-3,.cls-4,.cls-5,.cls-6,.cls-7,.cls-8,.cls-9{fill-rule:evenodd;}.cls-2{fill:#4a9cff;}.cls-10,.cls-4{fill:#fffdfc;}.cls-11{fill:#bc6600;}.cls-12{clip-path:url(#clippath-2);}.cls-3{fill:#064e7f;}.cls-5{fill:#2e8dff;}.cls-13{stroke:#fffdfc;stroke-miterlimit:10;}.cls-13,.cls-14{stroke-linecap:round;stroke-width:4px;}.cls-13,.cls-14,.cls-15{fill:none;}.cls-16{clip-path:url(#clippath-1);}.cls-17{clip-path:url(#clippath-4);}.cls-18{fill:#a3e5ff;}.cls-6{fill:#c97417;}.cls-19{clip-path:url(#clippath);}.cls-14{stroke:#2e8dff;stroke-linejoin:round;}.cls-7{fill:#004179;}.cls-8{fill:#f7931a;}.cls-20{clip-path:url(#clippath-3);}.cls-21{clip-path:url(#clippath-5);}.cls-9,.cls-22{fill:#ff9100;}.cls-23{fill:#7dc3d8;}</style><clipPath id="clippath"><path class="cls-15" d="M220.13,108.18c-.65-33.13-27.83-62.26-62.26-62.26s-61.61,29.18-62.26,62.26c-.67,34.25,27.24,64.97,62.58,64.79,35.08-.18,62.6-30.72,61.93-64.79Z"/></clipPath><clipPath id="clippath-1"><path class="cls-15" d="M371.32,54.2c-.47-15.44-13.13-29.48-29.48-29.48s-29.02,14.06-29.48,29.48c-.49,16.29,12.69,31.48,29.67,31.37,16.83-.11,29.78-15.19,29.29-31.37Z"/></clipPath><clipPath id="clippath-2"><path class="cls-15" d="M359.58,421.25c-.72-30.32-25.58-57.31-57.31-57.31s-56.6,27.06-57.31,57.31c-.74,31.62,25,60.39,57.74,60.15,32.4-.24,57.64-28.78,56.89-60.15Z"/></clipPath><clipPath id="clippath-3"><path class="cls-15" d="M512.16,331.73c-.6-22.21-18.79-42.12-42.12-42.12s-41.54,19.99-42.12,42.12c-.61,23.35,18.48,44.77,42.67,44.47,23.76-.3,42.2-21.43,41.58-44.47Z"/></clipPath><clipPath id="clippath-4"><path class="cls-15" d="M266.04,270.98c-.95-24.7-21.18-47.67-47.67-47.67s-46.74,23.01-47.67,47.67c-1,26.48,20.38,51.79,48.08,51.56,27.39-.23,48.26-25.32,47.25-51.56Z"/></clipPath><clipPath id="clippath-5"><path class="cls-15" d="M529.92,148.84c-.61-28.29-23.84-53.43-53.43-53.43s-52.81,25.09-53.43,53.43c-.64,29.25,22.93,55.68,53.11,55.87,30.44,.18,54.4-26.43,53.76-55.87Z"/></clipPath></defs><path class="cls-3" d="M266.91,13.05l8.8-8.81c2.82-2.82,6.26-4.24,10.25-4.24h36.87c3.99,0,7.43,1.42,10.25,4.24l10.46,10.46h31.19c3.99,0,7.43,1.42,10.25,4.24l5.7,5.7c2.82,2.82,4.25,6.26,4.25,10.25v7.74c0,3.99-1.42,7.42-4.25,10.25l-53.17,53.17c-5.64,5.64-14.85,5.64-20.49,0l-2.85-2.85c-2.82-2.82-4.25-6.25-4.25-10.25v-21.95l-27.97-16.15h-46.61c-3.99,0-7.42-1.42-10.25-4.24l-6.66-6.66c-5.64-5.64-5.64-14.85,0-20.49l6.17-6.17c2.82-2.82,6.26-4.24,10.25-4.24h32.05Z"/><path class="cls-3" d="M336.12,101.42c.52-2.79,1.89-5.42,4.05-7.58l.96-.96c2.82-2.82,6.26-4.24,10.25-4.24h21.56c5.99,0,11.1,3.41,13.39,8.95,2.29,5.53,1.09,11.56-3.14,15.79l-.96,.96c-2.82,2.82-6.26,4.24-10.25,4.24h-21.56c-1.62,0-3.18-.25-4.63-.72-.52,2.79-1.89,5.42-4.05,7.58l-1.34,1.34c-4.23,4.23-10.26,5.43-15.79,3.14-5.53-2.29-8.95-7.4-8.95-13.39v-1.31c0-3.99,1.42-7.42,4.24-10.25l.04-.04c2.82-2.82,6.26-4.24,10.25-4.24h1.31c1.62,0,3.18,.25,4.63,.72h0Z"/><path class="cls-3" d="M538,337.31c-.52,2.79-1.89,5.42-4.05,7.58l-.96,.96c-2.82,2.82-6.26,4.25-10.25,4.25h-1.56c-5.99,0-11.1-3.42-13.39-8.95-2.29-5.53-1.09-11.56,3.14-15.79l.96-.96c2.82-2.82,6.25-4.25,10.24-4.25h1.56c1.05-.08,6.03-.33,10.13,3.27,3.79,3.33,5.37,8.68,4.16,13.88Z"/><path class="cls-3" d="M118.2,138.19l-46.07-46.08c-2.82-2.82-6.26-4.25-10.25-4.25H30.95c-3.13,0-5.82,.85-8.37,2.66l-16.46,11.65c-3.96,2.8-6.12,6.98-6.12,11.83v18.75c0,3.99,1.42,7.42,4.25,10.25l8.47,8.47c2.82,2.82,6.26,4.25,10.25,4.25h11.82l16.8,16.8v94.85c0,3.99,1.42,7.43,4.25,10.25l11.61,11.61c2.82,2.82,6.25,4.25,10.25,4.25h23.15l16.81,16.81v40.74c0,3.99,1.42,7.42,4.25,10.25l29.53,29.53v71.8c0,5.32,2.64,9.89,7.25,12.55l2.84,1.64c4.61,2.66,9.88,2.66,14.49,0,4.61-2.66,7.25-7.23,7.25-12.55v-9.62l14.72-25.49c1.33-2.3,1.94-4.59,1.94-7.25v-31.56l19.82-19.81c2.82-2.82,4.25-6.26,4.25-10.25v-17.22c0-3.99-1.42-7.42-4.25-10.25l-19.9-19.9c-2.82-2.82-6.25-4.25-10.25-4.25h-24.82l-19.73-19.73v-19.52l58.67-58.66c2.82-2.82,4.24-6.26,4.24-10.25v-39.75c0-5.32-2.64-9.89-7.25-12.55l-13.96-8.06c-2.31-1.33-4.59-1.94-7.25-1.94h-61.28Z"/><path class="cls-3" d="M484.7,424.15h-9.89c-5.32,0-9.89-2.64-12.55-7.25l-6.92-11.98c-1.33-2.3-1.94-4.58-1.94-7.25v-7.03c0-3.99,1.42-7.42,4.24-10.25l3.94-3.94c2.82-2.82,6.26-4.24,10.25-4.24h67.72c3.99,0,7.42,1.42,10.25,4.24l12.03,12.03c2.82,2.82,4.24,6.25,4.24,10.25v13.28c0,3.99-1.42,7.42-4.24,10.25l-33.03,33.03c-2.82,2.82-6.26,4.24-10.25,4.24h-5.06c-5.32,0-9.89-2.64-12.55-7.25l-16.25-28.14h0Z"/><path class="cls-3" d="M420.95,123.66h-54.99c-4.02,0-7.48,1.44-10.3,4.3l-12.65,12.78c-2.79,2.82-4.19,6.23-4.19,10.19v5.94l-26.06,26.06c-2.82,2.82-4.24,6.26-4.24,10.25v22.55l-33.25,33.25c-2.82,2.82-4.25,6.25-4.25,10.25v37.8c0,3.99,1.42,7.42,4.25,10.25l11.07,11.07c2.82,2.82,6.26,4.25,10.25,4.25h11.01l21.02,21.02v35.46c0,3.99,1.42,7.42,4.25,10.25l13.39,13.39c2.82,2.82,6.25,4.25,10.25,4.25h11.1c5.32,0,9.89-2.64,12.55-7.25l4.26-7.37c1.33-2.3,1.94-4.59,1.94-7.25v-8.97l11.74-11.74c2.82-2.82,4.25-6.26,4.25-10.25v-34.2l9.81-9.8c2.82-2.82,4.24-6.26,4.24-10.25v-10.56l21.51-21.51h16.31l25.02,14.45c2.3,1.33,4.58,1.94,7.25,1.94h45.56c3.99,0,7.43-1.42,10.25-4.25l23.73-23.73c2.82-2.82,4.24-6.25,4.24-10.25v-15.41l21.1-36.54h14.55c3.99,0,7.42-1.42,10.25-4.24l4-4c2.82-2.82,4.25-6.25,4.25-10.25v-22.48c0-3.99-1.42-7.43-4.25-10.25l-6.03-6.02v-4.97l25.54-25.53c2.82-2.82,4.25-6.26,4.25-10.25v-10.29c0-3.99-1.42-7.42-4.25-10.25l-2.53-2.53c-2.82-2.82-6.26-4.25-10.25-4.25h-29.09c-3.99,0-7.43,1.42-10.25,4.25l-11.87,11.88h-42.66c-5.32,0-9.89,2.64-12.55,7.25l-5.53,9.58h-65.98c-3.99,0-7.43,1.42-10.25,4.25l-17.77,17.77Z"/><path class="cls-6" d="M119.31,463.5c.49,.71,1.04,1.37,1.65,1.98,25.45,25.45,142.62-50.45,261.66-169.48,119.03-119.03,194.93-236.2,169.48-261.65l-21.22-21.22c10.13,35.88-63.63,145.34-174.72,256.42-110.58,110.58-219.57,184.2-255.94,174.86l19.1,19.1Z"/><g><path class="cls-23" d="M23.74,238.42v23.93c0,9.03,7.32,16.36,16.36,16.36h59.5c6.11,0,11.06-4.95,11.06-11.06v-33.66c0-5.06-4.1-9.16-9.16-9.16H37.34c-7.51,0-13.59,6.09-13.59,13.59Z"/><path class="cls-23" d="M84.73,278.7c2.04,10.21,9.81,13.61,16.21,14.62,.72,.11,1.33-.19,1.69-.68l2.57-2.23-3.99-1.73c-1.92-3-2.66-6.86-2.92-9.98h-13.57Z"/><path class="cls-23" d="M84.22,273.2c0,2.03,.18,3.85,.51,5.51h13.57c-.27-3.13-.05-5.51-.05-5.51h-14.03Z"/></g><g><rect class="cls-18" x="26.52" y="222.36" width="86.92" height="53.88" rx="15.17" ry="15.17" transform="translate(139.95 498.6) rotate(-180)"/><path class="cls-18" d="M101.02,270.74s-1.06,11.46,4.25,17.14c1.17,1.25,.13,3.25-1.55,2.98-7.44-1.18-16.72-5.56-16.72-20.12h14.03Z"/></g><line class="cls-14" x1="75.25" y1="239.85" x2="44.47" y2="239.85"/><line class="cls-14" x1="95.48" y1="258.35" x2="44.47" y2="258.35"/><g><path class="cls-11" d="M632.24,196.55v16.65c0,6.49-5.26,11.76-11.75,11.76h-64.16c-5.6,0-10.14-4.54-10.14-10.14v-17.95c0-5.6,4.54-10.14,10.14-10.14h66.09c5.43,0,9.82,4.4,9.82,9.82Z"/><path class="cls-11" d="M574.89,224.96c-2.26,11.3-10.85,15.05-17.94,16.18-.8,.13-1.48-.21-1.87-.75l-2.85-2.47,4.41-1.92c2.12-3.31,2.95-7.59,3.23-11.04h15.01Z"/><path class="cls-11" d="M575.45,218.87c0,2.24-.2,4.26-.56,6.09h-15.01c.29-3.46,.05-6.09,.05-6.09h15.52Z"/></g><g><rect class="cls-22" x="543.12" y="184.01" width="86.05" height="38.23" rx="10.14" ry="10.14"/><path class="cls-22" d="M556.86,216.15s1.17,12.68-4.7,18.96c-1.29,1.38-.15,3.6,1.72,3.3,8.24-1.3,18.5-6.16,18.5-22.26h-15.52Z"/></g><line class="cls-13" x1="562.99" y1="202.45" x2="609.3" y2="202.45"/><g><path class="cls-1" d="M534.59,253.25v.24c0,1.08,0,2.17-.04,3.26-.04,2.41-.13,4.83-.26,7.25-.08,1.54-.18,3.07-.31,4.62-.3,3.87-.7,7.74-1.24,11.61-.41,3.02-.89,6.05-1.46,9.07-.32,1.79-.67,3.59-1.05,5.37-.83,3.95-1.79,7.87-2.88,11.79-2.64,9.56-6.01,19.01-10.15,28.28-2.79,6.28-5.93,12.47-9.42,18.56-.09,.15-.17,.3-.26,.45-.7,1.22-1.43,2.44-2.16,3.64-37.78,62.45-104.38,97.27-172.8,97.22h-.24c-.57,0-1.15-.01-1.72-.03h-.03c-33.51-.36-67.41-9.08-98.5-27.02-15.42-8.9-29.21-19.53-41.29-31.5-8.73-8.65-16.56-18.01-23.44-27.93-6.36-9.14-11.92-18.77-16.63-28.74-.57-1.16-1.1-2.34-1.63-3.51-11.76-26.1-17.89-54.53-17.87-83.28v-.24c0-.56,.02-1.12,.03-1.69v-.06c.04-3.59,.15-7.18,.38-10.78,1.48-22.73,6.82-45.49,16.33-67.27,.53-1.22,1.06-2.42,1.64-3.63,2.21-4.85,4.64-9.64,7.29-14.36,.46-.82,.92-1.64,1.4-2.46,.51-.87,1.01-1.73,1.53-2.6,13.01-21.79,29.51-40.26,48.38-55.08,4.92-3.88,10-7.5,15.23-10.86,26.31-16.99,56.19-27.57,87.07-31.05,7.54-.84,15.14-1.27,22.76-1.27h.24c5.67,0,11.36,.26,17.04,.76,10.16,.88,20.31,2.55,30.37,5.02,14.1,3.46,28.01,8.5,41.48,15.19,3.83,1.89,7.61,3.93,11.36,6.09,37.69,21.76,65.7,53.85,82.51,90.63,.55,1.21,1.09,2.42,1.62,3.63,6.15,14.16,10.64,28.97,13.41,44.11,2.21,12.03,3.33,24.29,3.32,36.59Z"/><path class="cls-5" d="M158.28,152.09c44.27-76.68,142.32-102.95,219.01-58.68,76.68,44.27,102.96,142.32,58.68,219.01-44.27,76.68-142.32,102.95-219.01,58.68-76.68-44.27-102.96-142.32-58.68-219.01Z"/><path class="cls-2" d="M158.38,152.15c29.91-51.8,96.14-69.55,147.94-39.64,51.8,29.91,69.55,96.14,39.64,147.94-29.91,51.8-96.15,69.55-147.95,39.64-51.8-29.91-69.55-96.15-39.64-147.95Z"/><path class="cls-7" d="M456.81,246.99c-.14-7.74-.56-15.44-1.25-23.07-.79-8.86-1.94-17.62-3.45-26.21-.25-1.45-.52-2.89-.79-4.33-.99-5.22-2.11-10.38-3.36-15.46-.95-3.87-1.97-7.69-3.08-11.47-.53-1.82-1.07-3.64-1.64-5.43-.83-2.66-1.71-5.27-2.61-7.87-.68-1.95-1.39-3.89-2.11-5.81-.94-2.5-1.91-4.97-2.92-7.4-.86-2.09-1.75-4.15-2.68-6.2-.9-2-1.82-3.98-2.78-5.92-1.26-2.62-2.57-5.18-3.93-7.69-6.71-12.49-14.47-23.78-23.23-33.52-.79-.9-1.62-1.78-2.44-2.66-.63-.67-1.27-1.34-1.92-1.99-1.23-1.26-2.49-2.48-3.76-3.68-3.79-3.56-7.65-6.76-11.56-9.61-11.77-8.56-24.01-13.88-36.31-16.16-3.93-.72-7.86-1.15-11.8-1.26,3.84,.13,7.68,.57,11.52,1.35,12.24,2.45,24.42,8.23,36.08,17.56,3.07,2.46,6.12,5.16,9.11,8.12,.61,.6,1.23,1.23,1.84,1.85,1.2,1.24,2.39,2.51,3.56,3.82,.17,.18,.33,.36,.49,.54,7.66,8.59,14.56,18.5,20.65,29.42,.88,1.59,1.74,3.18,2.59,4.81,4.35,8.33,8.25,17.19,11.68,26.5,.07,.19,.14,.37,.2,.56,.35,.94,.69,1.89,1.02,2.84,.3,.81,.57,1.63,.85,2.44,.88,2.59,1.73,5.2,2.56,7.85,3.85,12.53,6.92,25.7,9.16,39.28,.28,1.69,.55,3.38,.79,5.09,.15,.94,.28,1.88,.41,2.84,.66,4.71,1.23,9.47,1.69,14.25,.2,2.08,.38,4.16,.55,6.26,1.2,15.56,1.35,31.42,.39,47.22-.09,1.61-.2,3.21-.32,4.81-.07,.88-.14,1.76-.21,2.65-.38,4.53-.84,9.06-1.41,13.57-.12,.95-.24,1.89-.37,2.85-.82,6.18-1.82,12.32-3.01,18.42-2.15,11.12-4.91,22.08-8.29,32.72-.52,1.65-1.05,3.27-1.6,4.9-.12,.36-.24,.71-.37,1.06-.67,1.97-1.37,3.93-2.08,5.84-1.92,5.24-3.99,10.28-6.15,15.11-1.1,2.44-2.22,4.82-3.37,7.15-22.31,45.34-54.8,70.63-88.24,71.66,37.36-1.05,73.61-29.56,97.06-80.48,1.03-2.21,2.02-4.47,2.99-6.78,1.21-2.85,2.38-5.78,3.51-8.77,.59-1.58,1.18-3.17,1.75-4.79,.12-.34,.24-.67,.36-1.01,.06-.18,.12-.35,.18-.53,.84-2.42,1.66-4.87,2.43-7.32,4.51-14.29,7.87-29.1,10.13-44.12,.14-.93,.28-1.87,.42-2.82,.64-4.62,1.19-9.26,1.64-13.92,.16-1.57,.3-3.14,.43-4.71,.86-10.78,1.19-21.58,.99-32.33Zm-214.08,136.1c-3.54-7.15-6.75-14.66-9.65-22.49-.7-1.92-1.4-3.87-2.06-5.83-3.86-11.27-7.05-23.13-9.55-35.38-.25-1.2-.49-2.41-.71-3.62-.4-2-.76-4.02-1.1-6.06,0-.03-.02-.05-.02-.08-1.47-8.53-2.6-17.2-3.39-25.99-.18-1.89-.33-3.81-.48-5.71-.66-9.09-.97-18.27-.91-27.48,.02-3.42,.09-6.84,.22-10.27,.05-1.27,.1-2.55,.17-3.83,.55-11.44,1.67-22.87,3.39-34.16,.19-1.26,.39-2.52,.59-3.77,1.35-8.17,3-16.25,4.99-24.21,.3-1.19,.59-2.38,.91-3.56,1.63-6.22,3.45-12.34,5.48-18.37,.03-.07,.05-.13,.07-.2,.12-.36,.24-.7,.37-1.06,.26-.75,.52-1.51,.78-2.25,.42-1.21,.85-2.4,1.3-3.59,2.85-7.74,5.97-15.04,9.33-21.88,2.03-4.16,4.16-8.16,6.36-11.99,.53-.91,1.05-1.8,1.58-2.69,2.21-3.69,4.49-7.21,6.83-10.55,6.97-9.93,14.52-18.37,22.5-25.23,9.86-8.49,20.38-14.55,31.2-18.06,6.57-2.13,13.25-3.32,19.97-3.53-6.73,.19-13.41,1.27-20,3.2-11.9,3.51-23.45,9.81-34.27,18.77-8.19,6.77-15.94,15.04-23.1,24.75-2.5,3.38-4.92,6.93-7.26,10.66-.56,.88-1.11,1.77-1.66,2.68-1.82,3.01-3.6,6.15-5.32,9.38-4.36,8.2-8.38,17.07-11.97,26.6-.59,1.58-1.18,3.17-1.75,4.79-.12,.34-.24,.66-.35,1-.04,.1-.08,.21-.11,.31-1.47,4.18-2.83,8.42-4.07,12.69-2.93,9.96-5.31,20.15-7.16,30.47-.23,1.19-.43,2.38-.62,3.57-2.05,12.28-3.36,24.73-3.95,37.19-.06,1.21-.11,2.42-.16,3.63-.05,1.4-.09,2.79-.12,4.17-.2,8.76-.05,17.52,.45,26.2,.1,1.87,.22,3.74,.37,5.6,.76,10.35,2.02,20.57,3.76,30.58,.4,2.34,.82,4.66,1.29,6.97,.08,.44,.16,.86,.26,1.29,.24,1.21,.49,2.42,.75,3.62,2.46,11.5,5.56,22.65,9.28,33.3,.67,1.94,1.38,3.87,2.1,5.78,0,0,0,.02,0,.03,.33,.88,.66,1.76,1.01,2.64,2.67,6.86,5.61,13.47,8.81,19.81,9.19,18.22,20.52,34.11,33.81,46.6,18.85,17.7,39.36,26.44,59.68,27.02-19.31-.62-38.8-9.35-56.72-27.02-12.15-12-22.59-27.12-31.16-44.45Z"/><path class="cls-7" d="M534.48,256.81c-.13,2.39-.39,4.79-.77,7.18-.86,5.44-2.39,10.87-4.59,16.26-1.41,3.47-3.1,6.93-5.09,10.35-4.2,7.28-9.69,14.41-16.5,21.32-6.81,6.9-14.62,13.24-23.28,19-1.02,.68-2.05,1.36-3.1,2.03-11.34,7.21-24.03,13.45-37.69,18.69-.89,.35-1.78,.68-2.69,1.01-.06,.03-.12,.05-.18,.07-1.92,.71-3.88,1.41-5.84,2.07-6.88,2.36-13.99,4.46-21.26,6.31-1.16,.3-2.33,.58-3.51,.87-8.5,2.05-17.21,3.77-26.09,5.13-1.9,.29-3.82,.56-5.74,.82-2.69,.37-5.38,.69-8.09,.99-.74,.08-1.49,.16-2.22,.24-2.72,.28-5.44,.53-8.18,.74-42.64,3.36-87.45-1.21-127.58-14.77-.36-.12-.7-.24-1.06-.37-1.97-.67-3.92-1.37-5.84-2.08-2.02-.73-4.01-1.5-5.97-2.29-2.6-1.03-5.14-2.09-7.63-3.19-1.49-.65-2.95-1.32-4.4-1.99-1.65-.76-3.26-1.55-4.86-2.34-1.5-.73-2.97-1.49-4.42-2.26-11.05-5.82-20.83-12.26-29.24-19.18-.44-.36-.87-.71-1.3-1.08-.51-.42-1-.84-1.49-1.26-2.94-2.56-5.7-5.17-8.28-7.82-4.75-4.91-8.89-9.99-12.38-15.22-3.57-5.31-6.46-10.78-8.67-16.34-3.23-8.11-5.02-16.42-5.27-24.78,.25,8.82,2.03,17.59,5.27,26.13,1.52,4,3.35,7.94,5.5,11.82,5.05,9.12,11.82,17.89,20.22,26.11,.62,.61,1.25,1.22,1.89,1.81,.87,.82,1.76,1.65,2.68,2.45,.17,.16,.35,.32,.53,.47,9.09,8.05,19.84,15.5,32.12,22.15,1.87,1.02,3.79,2.01,5.74,2.98,1.78,.9,3.61,1.78,5.45,2.64,2.64,1.25,5.34,2.45,8.1,3.6,2.78,1.18,5.62,2.31,8.53,3.41,0,0,.02,0,.03,0,1.57,.59,3.15,1.18,4.76,1.74,.34,.12,.66,.24,1,.35,41.34,14.48,87.52,18.99,131.18,14.75,.89-.09,1.78-.18,2.68-.27,1.3-.14,2.6-.29,3.9-.44,21.64-2.56,42.57-7.28,61.84-14.01,1.95-.68,3.89-1.39,5.81-2.11,.76-.29,1.53-.58,2.29-.87,.9-.35,1.79-.7,2.69-1.07,14.62-5.88,28.13-12.99,40.07-21.23,1.01-.7,2.01-1.42,3-2.14,7.75-5.61,14.79-11.73,21-18.33,7.37-7.85,13.18-15.99,17.51-24.28,1.56-2.97,2.91-5.97,4.07-8.98,2.28-5.84,3.83-11.73,4.68-17.63,.35-2.4,.58-4.8,.7-7.2,.02-.53,.04-1.06,.06-1.59-.02,.54-.05,1.07-.08,1.61Zm-6.99-36.38c-7.67-17.41-21.5-33.78-40.89-47.8-.04-.03-.08-.06-.12-.09-1.21-.87-2.44-1.74-3.7-2.6-.51-.35-1.01-.68-1.53-1.03-12.28-8.2-26.57-15.48-42.74-21.58-.96-.37-1.94-.72-2.92-1.08-.61-.23-1.24-.46-1.86-.67-.27-.1-.55-.19-.81-.29-.07-.02-.13-.05-.2-.07-.4-.14-.78-.28-1.18-.41-11.83-4.08-24.04-7.35-36.47-9.83-.9-.18-1.79-.36-2.69-.52-21.14-4.02-42.85-5.8-64.32-5.46-2.45,.03-4.89,.09-7.33,.19-30.74,1.16-60.77,6.62-87.6,16-1.95,.68-3.89,1.39-5.81,2.11-3.5,1.32-6.94,2.71-10.32,4.16-15.46,6.66-29.56,14.74-41.74,24.14-1.14,.88-2.27,1.77-3.37,2.68,0,0,0,0,0,0-.95,.77-1.88,1.55-2.8,2.33-3.84,3.3-7.45,6.74-10.82,10.32-5.72,6.09-10.5,12.34-14.36,18.72-2.77,4.53-5.07,9.12-6.9,13.75-2.26,5.63-3.85,11.32-4.78,17.01-.56,3.4-.88,6.8-.98,10.2,.11-3.36,.47-6.73,1.08-10.1,.92-5.19,2.45-10.38,4.6-15.51,1.87-4.51,4.22-8.98,7.06-13.4,3.85-6.03,8.6-11.95,14.28-17.71,3.93-3.98,8.18-7.76,12.74-11.35,.95-.76,1.91-1.51,2.88-2.24,.91-.68,1.83-1.36,2.77-2.02,1.25-.91,2.53-1.79,3.82-2.68,8.79-5.95,18.48-11.29,28.86-16,5.13-2.33,10.43-4.5,15.88-6.51,.09-.03,.17-.06,.26-.09,1.83-.67,3.7-1.34,5.57-1.97,3.07-1.06,6.2-2.06,9.36-3,23.1-6.97,48.31-11.27,74.14-12.66,6.32-.35,12.69-.52,19.06-.51,19.66,.03,39.46,1.74,58.77,5.25,.89,.15,1.78,.32,2.69,.5,12.92,2.45,25.6,5.71,37.85,9.81,.27,.09,.55,.18,.81,.27,.36,.12,.71,.24,1.06,.37,.26,.08,.51,.17,.75,.26,.02,0,.04,0,.05,.02,1.71,.58,3.38,1.18,5.04,1.8,12.82,4.73,24.42,10.18,34.75,16.21,.34,.2,.67,.4,1.01,.59,1.45,.85,2.87,1.71,4.26,2.6,.05,.03,.1,.06,.15,.09,22.02,13.89,37.66,30.51,46.2,48.3,4.69,9.74,7.25,19.81,7.55,29.97-.29-10.32-2.67-20.56-7.06-30.46Z"/><path class="cls-9" d="M165.74,177.27m24.63-36.06c8.39-10.7,17.99-20.46,28.56-29,.11-.09,.22-.18,.33-.27,.52-.42,1.09-.62,1.76-.62h40.4c.36,0,.7-.13,.94-.39l12.93-12.93c.55-.54,1.21-.82,1.98-.82h29.59c1.31,0,2.41,.86,2.72,2.13,.72,2.94,2.25,5.63,4.39,7.78h.01c3.11,3.13,7.3,4.87,11.71,4.87,3.64,0,7.13-1.18,9.98-3.35,.61-.46,1.18-.96,1.73-1.51h.02c2.77-2.79,4.47-6.43,4.8-10.32,.03-.45,.05-.93,.05-1.4,0-2.79-.7-5.52-2.05-7.97-.01-.02-.02-.03-.02-.05-.58-1.1-.39-2.39,.5-3.28l9.93-9.93c.63-.62,1.42-.9,2.29-.8,7.87,.9,15.64,2.32,23.27,4.24,6.87,1.71,13.62,3.85,20.21,6.36,.47,.17,.93,.36,1.4,.54,1.74,.67,3.47,1.39,5.18,2.12,11.1,4.74,21.71,10.6,31.71,17.53,23.02,15.96,42.09,37.1,55.57,61.66,.49,.89,.48,1.89-.05,2.77-.07,.12-.15,.24-.24,.34-.52,.67-1.29,1.03-2.17,1.03h-34.48c-.77,0-1.43-.27-1.98-.81l-8.11-8.12-5.12-5.11-1.7-1.71c-.54-.55-.82-1.21-.82-1.98v-22.16c0-.4-.17-.76-.47-1.02-.05-.04-.1-.09-.15-.14l-8.76-8.76-5.83-5.82c-.27-.27-.61-.4-.93-.4h-12.87c-.32,0-.63,.12-.88,.34-.03,.02-.05,.04-.07,.06l-12.86,12.86c-.25,.25-.39,.59-.39,.95v19.45c0,.35,.14,.69,.39,.95l12.12,12.11c.54,.55,.82,1.21,.82,1.99v3.17c0,1.53-1.26,2.79-2.8,2.79-4.41,0-8.59,1.75-11.71,4.86v.02c-3.13,3.11-4.87,7.3-4.87,11.71s1.75,8.59,4.87,11.72c1.09,1.09,1.09,2.86,0,3.95l-25.89,25.9c-.55,.54-1.22,.81-1.98,.81h-15.41c-.36,0-.7,.14-.95,.39l-15.73,15.73c-.26,.26-.4,.59-.4,.95v11.81c0,.4,.19,.78,.5,1.04,.06,.05,.1,.09,.15,.13l10.17,9.7,15.49,14.79c.26,.25,.59,.37,.92,.37h43.45c1.54,0,2.8,1.27,2.8,2.8,0,4.42,1.74,8.6,4.86,11.71v.02c3.13,3.11,7.31,4.86,11.72,4.86s8.59-1.75,11.7-4.86l.02-.02c1.03-1.02,1.91-2.17,2.63-3.43,.77-1.33,2.49-1.78,3.83-1.01l5.33,3.08,3.61,2.09,5.31,3.06,5.34,3.08c.89,.51,1.4,1.39,1.4,2.42v27.26c0,1.02-.51,1.9-1.39,2.42l-15.48,8.94-1.75,1.01c-.41,.24-.68,.68-.68,1.15v13.29c0,.77-.26,1.42-.81,1.98l-4.99,4.99-8.44,8.44-13.1,13.09-27.01,27.01c-.26,.26-.4,.6-.4,.95v5.51c0,1.25-.79,2.33-2,2.68-2.57,.78-5.17,1.48-7.77,2.13-1.97,.5-3.94,.97-5.92,1.39-.85,.19-1.67-.01-2.35-.55-.68-.56-1.04-1.31-1.04-2.18v-51.25c0-1.42,1.05-2.61,2.47-2.77,3.24-.39,6.26-1.73,8.74-3.82,.35-.3,.68-.6,1.01-.93l.02-.02c3.11-3.11,4.85-7.3,4.85-11.7s-1.74-8.59-4.85-11.71l-.02-.02c-2.3-2.3-5.18-3.84-8.31-4.51-1.11-.22-2.25-.34-3.4-.34-2.91,0-5.75,.75-8.26,2.22-1.11,.64-2.48,.46-3.38-.45l-4.93-4.93c-.55-.53-.82-1.21-.82-1.97v-38.43c0-.41-.17-.78-.48-1.03-.05-.04-.1-.08-.15-.13l-11.36-11.01c-.26-.24-.59-.38-.93-.38h-16.68c-.78,0-1.44-.28-1.99-.83l-11.81-11.81c-.96-.95-1.1-2.4-.37-3.52,.2-.31,.39-.62,.56-.93,1.4-2.47,2.14-5.26,2.14-8.11,0-4.41-1.75-8.6-4.86-11.71l-.02-.02c-3.11-3.11-7.3-4.86-11.71-4.86-3.22,0-6.34,.93-9.04,2.7-1.12,.73-2.57,.58-3.51-.37l-6.07-6.06-14.52-14.52c-.54-.55-.82-1.22-.82-1.98v-40.32c0-.35-.14-.69-.4-.94l-4.89-4.89c-.84-.84-1.06-2.07-.55-3.15,1-2.18,1.52-4.53,1.52-6.92,0-4.41-1.75-8.59-4.86-11.71l-.02-.02c-2.43-2.43-5.5-4.02-8.83-4.6-1.72-.25-5.57-.56-9.74,1.34-2.43,1.1-4.13,2.56-5.19,3.64-.13,.13-.25,.26-.37,.4-.93,.99-2.5,2.93-3.44,5.83-.97,2.96-.81,5.51-.64,6.86,.32,2.95,1.42,5.75,3.19,8.12,.48,.66,1.02,1.27,1.59,1.85h.01c3.12,3.13,7.3,4.87,11.71,4.87,3.96,0,7.73-1.4,10.74-3.96,1.11-.95,2.76-.88,3.79,.15l2.87,2.87c.54,.55,.82,1.21,.82,1.98v40.31c0,.36,.14,.7,.4,.96l17.63,17.62,4.22,4.22c.94,.94,1.09,2.35,.38,3.47-.48,.78-.9,1.58-1.25,2.41-.86,2.03-1.3,4.2-1.3,6.43,0,4.41,1.73,8.58,4.85,11.71h.01c3.13,3.13,7.31,4.86,11.71,4.86,3.14,0,6.19-.87,8.83-2.55,1.12-.71,2.55-.55,3.48,.38l13.08,13.09c.26,.24,.59,.38,.95,.38h16.73c.77,0,1.41,.27,1.96,.8l9.1,8.8c.56,.55,.85,1.23,.85,2.01v38.41c0,.36,.14,.7,.39,.95l5.87,5.87c.11,.12,.22,.24,.31,.38,.68,.95,.69,2.23-.02,3.22-1.99,2.81-3.06,6.13-3.06,9.58,0,4.4,1.74,8.59,4.86,11.7l.02,.02c1.16,1.16,2.48,2.13,3.91,2.9,.86,.46,1.75,.84,2.67,1.14,1.17,.39,1.93,1.43,1.93,2.67v57.1c.01,.08,.01,.16,.03,.24,.13,.71,.82,1.2,1.54,1.07,3.71-.69,7.4-1.5,11.06-2.41,3.54-.89,7.04-1.89,10.52-2.99,.08-.03,.16-.05,.24-.07,.61-.13,1.06-.69,1.06-1.31v-6.83c0-.77,.27-1.44,.81-1.98l20.46-20.46,3.74-3.73,9.44-9.45,8.82-8.81,11.08-11.09c.26-.25,.4-.59,.4-.95v-12.62c0-1.03,.51-1.91,1.4-2.43l16.97-9.8c.06-.03,.11-.06,.18-.09,.45-.22,.74-.69,.74-1.2v-31.69c-.01-.1-.01-.21-.01-.32,0-.47-.26-.91-.67-1.15l-8.32-4.8-5.36-3.09-2.95-1.71-6.63-3.82c-.96-.56-1.48-1.56-1.39-2.66,.04-.46,.06-.93,.06-1.4,0-4.12-1.52-8.05-4.27-11.09-.19-.21-.39-.42-.59-.61h-.02c-1.03-1.04-2.18-1.93-3.41-2.64-2.49-1.46-5.34-2.23-8.29-2.23-4.41,0-8.59,1.73-11.71,4.86h-.01c-1.35,1.35-2.45,2.92-3.26,4.64-.48,1-1.43,1.59-2.53,1.59h-43.68c-.75,0-1.4-.26-1.93-.77l-14.62-13.96-8.76-8.36c-.57-.54-.87-1.23-.87-2.02v-8.34c0-.77,.28-1.43,.82-1.98l13.3-13.29c.55-.55,1.21-.83,1.98-.83h15.42c.35,0,.69-.13,.94-.39l28.41-28.4c.78-.8,1.88-1.03,2.92-.66,1.8,.65,3.68,.96,5.59,.96,4.41,0,8.59-1.73,11.7-4.85h.02c3.11-3.14,4.86-7.32,4.86-11.72s-1.75-8.6-4.86-11.71l-.02-.02c-1.34-1.34-2.9-2.44-4.62-3.26-1-.48-1.59-1.42-1.59-2.53v-6.75c0-.36-.14-.69-.4-.95l-12.12-12.11c-.55-.55-.82-1.21-.82-1.99v-16.02c0-.77,.27-1.43,.82-1.98l10.43-10.44c.53-.52,1.15-.79,1.89-.81h9.54c.78,0,1.44,.27,1.99,.81l10.41,10.41,1.95,1.95c.54,.55,.82,1.21,.82,1.98v22.17c0,.36,.14,.7,.39,.95l11.57,11.57,5.8,5.79c.24,.26,.58,.4,.94,.4h42.71c.1-.01,.2-.02,.31-.02,.15,0,.29-.02,.43-.07,.06-.02,.12-.04,.17-.07,.65-.33,.92-1.12,.59-1.77-.3-.6-.6-1.19-.91-1.79-13.75-26.77-33.98-49.81-58.73-66.96-10.3-7.13-21.24-13.16-32.67-18-1.62-.69-3.25-1.35-4.89-1.99-1.61-.63-3.23-1.24-4.87-1.82-4.88-1.75-9.84-3.29-14.87-4.61-8.95-2.36-18.1-4.04-27.39-5.02l-.17-.03c-.44-.07-.88,.06-1.19,.38l-10.94,10.93c-.99,.98-2.53,1.1-3.65,.27-2.86-2.12-6.28-3.26-9.85-3.26-2.51,0-4.95,.56-7.15,1.62-1.67,.8-3.22,1.9-4.56,3.24v.02c-2.35,2.33-3.93,5.31-4.57,8.55-.26,1.33-1.4,2.26-2.74,2.26h-31.11c-.36,.01-.7,.14-.95,.4l-4.56,4.57-8.36,8.36c-.55,.54-1.21,.82-1.98,.82h-26.27l-13.85,.02c-.23,0-.46,.06-.66,.17-.05,.03-.11,.07-.16,.11-.28,.22-15.49,15.52-30.5,30.62m150.34-39.04s0,.01,0,.01c-.51,1.3-1.21,2.52-2.11,3.62-.3,.36-.62,.72-.96,1.06v.02c-2.62,2.61-6.14,4.05-9.84,4.05s-7.21-1.44-9.82-4.05l-.02-.02c-2.61-2.62-4.06-6.14-4.06-9.83s1.45-7.21,4.06-9.83h.02c1.05-1.06,2.25-1.92,3.53-2.57,1.94-.98,4.08-1.49,6.29-1.49,3.7,0,7.22,1.43,9.83,4.05h.01c1.01,1.02,1.85,2.16,2.48,3.4,1.03,1.96,1.58,4.17,1.58,6.44,0,1.78-.34,3.52-.98,5.14Zm-91.24,73.66l-.02,.02c-2.6,2.6-6.13,4.05-9.82,4.05s-7.22-1.45-9.82-4.05l-.02-.02c-1.04-1.05-1.91-2.24-2.56-3.52-.98-1.94-1.5-4.1-1.5-6.31,0-3.7,1.45-7.22,4.06-9.82l.02-.02c.87-.88,1.85-1.62,2.9-2.22,2.08-1.2,4.47-1.84,6.92-1.84,3.69,0,7.22,1.44,9.82,4.06l.02,.02c2.62,2.6,4.06,6.13,4.06,9.82s-1.44,7.22-4.06,9.83Zm56.33,91.32c-.43,.6-.92,1.18-1.46,1.71v.02c-2.62,2.61-6.14,4.06-9.84,4.06s-7.21-1.45-9.82-4.06l-.02-.02c-2.61-2.61-4.06-6.13-4.06-9.82,0-1.5,.23-2.96,.69-4.34,.67-2.05,1.81-3.93,3.37-5.49l.02-.02c2.61-2.61,6.13-4.05,9.82-4.05s7.22,1.44,9.83,4.05v.02c2.63,2.61,4.07,6.14,4.07,9.83,0,2.93-.91,5.76-2.6,8.11Zm53.93,99.62h-.02c-2.61-2.63-4.05-6.15-4.05-9.84s1.44-7.22,4.05-9.83h.02c1.28-1.29,2.77-2.28,4.39-2.97,1.65-.7,3.42-1.07,5.25-1.09,.06-.01,.12-.01,.18-.01,3.69,0,7.22,1.44,9.76,3.99l.09,.08c2.61,2.61,4.05,6.13,4.05,9.83s-1.44,7.21-4.15,9.91c-1.98,1.96-4.45,3.24-7.14,3.73-.72,.14-1.47,.22-2.22,.24-.13,.01-.26,.01-.39,.01-3.69,0-7.21-1.44-9.82-4.05Zm53.42-89.68l.02-.02c2.62-2.62,6.14-4.05,9.83-4.05,2.25,0,4.44,.53,6.39,1.55,1.09,.55,2.1,1.25,3.01,2.1,.14,.13,.28,.26,.42,.4l.02,.02c2.62,2.61,4.06,6.14,4.06,9.82s-1.44,7.22-4.06,9.83l-.02,.02c-2.61,2.61-6.13,4.05-9.82,4.05s-7.2-1.44-9.82-4.04l-.03-.03c-.38-.39-.74-.8-1.07-1.21-1.93-2.44-2.98-5.47-2.98-8.62,0-3.68,1.45-7.21,4.05-9.82Zm1.69-100.12v.02c2.63,2.61,4.06,6.13,4.06,9.83s-1.43,7.21-4.05,9.82v.02c-2.63,2.61-6.15,4.06-9.84,4.06s-7.21-1.45-9.83-4.06v-.02c-2.63-2.61-4.07-6.13-4.07-9.82s1.44-7.22,4.06-9.83v-.02c2.63-2.61,6.15-4.05,9.84-4.05s7.21,1.44,9.83,4.05Z"/></g><g><path class="cls-9" d="M325.7,101.94c3.61,0,6.55-2.94,6.55-6.55s-2.94-6.55-6.55-6.55-6.55,2.94-6.55,6.55,2.94,6.55,6.55,6.55Z"/><path class="cls-9" d="M237.53,170.91c3.61,0,6.55-2.94,6.55-6.55s-2.94-6.55-6.55-6.55-6.55,2.94-6.55,6.55,2.94,6.55,6.55,6.55Z"/><path class="cls-9" d="M402.91,191.72c3.61,0,6.55-2.94,6.55-6.55s-2.94-6.55-6.55-6.55-6.55,2.94-6.55,6.55,2.94,6.55,6.55,6.55Z"/><path class="cls-9" d="M420.9,291.82c3.61,0,6.55-2.94,6.55-6.55s-2.94-6.55-6.55-6.55-6.55,2.94-6.55,6.55,2.94,6.55,6.55,6.55Z"/><path class="cls-9" d="M367.46,361.83c3.61,0,6.55-2.94,6.55-6.55s-2.94-6.55-6.55-6.55-6.55,2.94-6.55,6.55,2.94,6.55,6.55,6.55Z"/><path class="cls-9" d="M292.41,264.41c3.61,0,6.55-2.94,6.55-6.55s-2.94-6.55-6.55-6.55-6.55,2.94-6.55,6.55,2.94,6.55,6.55,6.55Z"/></g><g><path class="cls-4" d="M100.25,66.75c-22.88,32.11-15.39,76.69,16.72,99.57,27.73,19.76,64.76,16.87,89.08-4.97l2.56,.25,28.62,2.74-11.94-26.16-1.07-2.34c12.69-30.12,3.33-66.06-24.4-85.81-32.11-22.88-76.69-15.39-99.57,16.72Z"/><circle cx="157.88" cy="108.18" r="62.26"/><g class="cls-19"><path class="cls-10" d="M211.42,174.83H104.34c1.35-8.88,0-25.69,14.91-35.55,4.16-2.75,9.29-3.7,13.84-5.74,.42-.14,1.08-.4,1.82-.84,1.78-1.07,2.16-1.85,3.89-3.16,.58-.44,1.3-.86,2-.97,2.39-.38,3.45-1.23,4.02-3.6,.75-3.11,1.26-6.19,.62-9.42-.29-1.41-.8-2.3-2.16-2.84-2.84-1.11-5.64-2.34-8.45-3.53-2.1-.88-2.23-1.63-1.47-3.8,2.41-6.84,4.2-13.81,4.8-21.12,.44-5.48,.07-11.13,2.06-16.42,1.42-3.73,3.71-7.19,7.48-8.29,2.89-.84,5.38-2.77,8.42-3.19,.53-.03,1.06-.11,1.62-.08,.05,0,.11,.02,.18,.02,7.21,.45,15.81,4.81,17.84,12.81,.12,.41,.16,.84,.26,1.26h.18c1.11,4.55,1,9.27,1.36,13.89,.58,7.31,2.38,14.27,4.8,21.12,.76,2.17,.62,2.91-1.47,3.8-2.81,1.19-5.61,2.42-8.45,3.53-1.37,.53-1.88,1.43-2.16,2.84-.66,3.23-.13,6.32,.62,9.42,.56,2.37,1.62,3.22,4.01,3.6,.71,.11,1.41,.52,2,.97,1.34,1.02,2.42,2.49,3.89,3.16,5.16,2.34,10.77,3.78,15.69,6.58,14.91,8.47,13.55,26.67,14.91,35.55Z"/></g></g><g><path class="cls-4" d="M355.86,23.86c-16.96-7.58-36.85,.02-44.44,16.98-6.55,14.64-1.77,31.48,10.57,40.68l.13,1.21,1.39,13.47,10.97-7.94,.98-.71c15.09,3.06,30.82-4.6,37.37-19.25,7.58-16.96-.02-36.85-16.98-44.44Z"/><circle cx="341.84" cy="54.2" r="29.48"/><g class="cls-16"><path class="cls-10" d="M365.83,73.04c-4.39-2.26-8.95-4.12-13.56-5.89-.34-.13-.75-.39-.89-.7-.37-.83-.63-1.71-.9-2.58-.17-.56-.32-1.08-.93-1.35-.16-.07-.32-.39-.31-.6,.03-2.02-.43-4.15,1.06-5.91,.05-.05,.06-.14,.1-.2,.81-1.77,.95-3.79,2.08-5.44,.03-.04,.04-.09,.04-.14,.13-1.26,.27-2.51,.37-3.77,.01-.16-.13-.43-.26-.48-.63-.22-.59-.72-.59-1.22,0-2.46,0-4.91,0-7.37,0-1.43-.42-2.7-1.5-3.67-1.23-1.11-2.49-2.17-3.75-3.24-.61-.51-.66-.91-.09-1.48,.25-.25,.58-.43,.87-.64-.06-.1-.13-.19-.19-.29-.38,0-.77-.05-1.14,0-1.39,.23-2.79,.42-4.17,.75-2.62,.62-5.16,1.44-7.28,3.19-1.46,1.2-2.62,2.59-2.76,4.57-.07,1.03-.06,2.07-.07,3.11,0,1.69,.01,3.37-.02,5.06,0,.27-.16,.72-.35,.79-.69,.22-.7,.66-.61,1.23,.06,.39,.01,.8,.1,1.18,.24,1.06,.49,2.11,.79,3.15,.23,.77,.67,1.5,.79,2.29,.24,1.57,.82,2.94,1.88,4.12,.18,.2,.31,.53,.29,.78-.08,1.21-.21,2.42-.37,3.62-.03,.23-.28,.58-.48,.63-.8,.17-.93,.79-1.12,1.41-.25,.83-.52,1.65-.84,2.45-.1,.24-.35,.51-.6,.62-1.43,.63-2.88,1.2-4.32,1.8-1.53,.64-3.08,1.26-4.57,1.97-1.54,.73-3.03,1.57-4.54,2.37-.89,.48-1.72,1-2.42,1.65v9.94h52.55v-10.05c-.64-.66-1.41-1.21-2.28-1.66Z"/></g></g><g><path class="cls-4" d="M254.73,468.79c-26.26-26.26-26.26-68.82,0-95.08,22.67-22.67,57.51-25.76,83.5-9.28l2.34-.63,26.15-7.01-7.01,26.15-.63,2.34c16.48,25.99,13.39,60.83-9.28,83.5-26.26,26.26-68.83,26.26-95.08,0Z"/><circle cx="302.27" cy="421.25" r="57.31"/><g class="cls-12"><path class="cls-10" d="M348.91,457.88c-8.54-4.39-17.41-8.02-26.36-11.46-.66-.26-1.46-.75-1.74-1.36-.73-1.61-1.23-3.32-1.76-5.02-.33-1.08-.63-2.1-1.81-2.62-.31-.13-.61-.77-.61-1.16,.06-3.94-.84-8.06,2.06-11.49,.09-.1,.13-.26,.19-.39,1.57-3.45,1.85-7.37,4.05-10.58,.05-.07,.07-.18,.08-.28,.26-2.44,.52-4.88,.73-7.32,.02-.31-.25-.84-.5-.93-1.22-.44-1.14-1.4-1.14-2.38,0-4.77,0-9.55,0-14.32,0-2.77-.82-5.24-2.91-7.13-2.39-2.15-4.84-4.22-7.29-6.3-1.18-1-1.29-1.77-.18-2.88,.49-.48,1.12-.83,1.69-1.25-.12-.19-.25-.37-.37-.56-.74,0-1.5-.1-2.22,.01-2.71,.44-5.43,.82-8.1,1.45-5.08,1.2-10.02,2.79-14.15,6.2-2.84,2.33-5.09,5.04-5.37,8.88-.14,2.01-.13,4.03-.14,6.04-.02,3.28,.03,6.56-.04,9.84-.01,.53-.32,1.41-.68,1.53-1.33,.43-1.37,1.28-1.19,2.39,.12,.75,.02,1.55,.19,2.29,.46,2.06,.95,4.1,1.54,6.12,.44,1.5,1.3,2.93,1.53,4.45,.47,3.05,1.6,5.71,3.66,8.01,.34,.38,.6,1.03,.56,1.52-.15,2.35-.4,4.71-.71,7.04-.06,.45-.54,1.13-.94,1.22-1.56,.32-1.8,1.53-2.17,2.74-.49,1.61-1.02,3.21-1.63,4.77-.2,.48-.68,.99-1.16,1.2-2.78,1.22-5.6,2.32-8.4,3.5-2.98,1.25-5.98,2.45-8.88,3.83-3,1.43-5.9,3.04-8.83,4.61-1.72,.92-3.34,1.95-4.7,3.22v19.33h102.15v-19.55c-1.25-1.27-2.73-2.36-4.43-3.23Z"/></g></g><g><path class="cls-4" d="M504.62,366.63c-19.28,19.1-50.39,18.96-69.49-.32-16.49-16.65-18.63-42.12-6.5-61.06l-.45-1.71-5.03-19.14,19.09,5.21,1.71,.47c19.05-11.96,44.5-9.58,60.99,7.06,19.1,19.28,18.96,50.39-.32,69.49Z"/><circle cx="470.04" cy="331.73" r="42.12"/><g class="cls-20"><path class="cls-10" d="M506.26,376.83h-72.45c.92-6.01,0-17.38,10.09-24.05,2.82-1.86,6.28-2.5,9.37-3.88,.28-.1,.73-.27,1.23-.57,1.2-.72,1.46-1.25,2.63-2.14,.4-.3,.88-.58,1.35-.66,1.62-.26,2.33-.83,2.72-2.43,.5-2.1,.86-4.19,.42-6.37-.19-.95-.54-1.56-1.46-1.92-1.92-.75-3.82-1.58-5.71-2.39-1.42-.6-1.51-1.1-.99-2.57,1.63-4.63,2.84-9.34,3.25-14.29,.3-3.71,.05-7.53,1.4-11.11,.96-2.52,2.51-4.86,5.06-5.61,1.96-.57,3.64-1.87,5.7-2.16,.36-.02,.72-.07,1.09-.06,.04,0,.07,.01,.12,.02,4.88,.31,10.7,3.25,12.07,8.67,.08,.28,.11,.57,.18,.85h.12c.75,3.08,.68,6.27,.92,9.4,.4,4.95,1.61,9.66,3.25,14.29,.52,1.47,.42,1.97-.99,2.57-1.9,.81-3.8,1.64-5.71,2.39-.93,.36-1.27,.97-1.46,1.92-.45,2.19-.09,4.28,.42,6.37,.38,1.6,1.1,2.18,2.72,2.43,.48,.07,.95,.35,1.35,.66,.91,.69,1.64,1.68,2.63,2.14,3.49,1.59,7.28,2.56,10.62,4.45,10.09,5.73,9.17,18.04,10.09,24.05Z"/></g></g><path class="cls-8" d="M474.75,20.94c27.3-13.25,47.27-16.68,56.13-7.82l21.22,21.22c-10.12-2.86-26.11,.96-46.33,10.42l-31.63-9.02,.62-14.8Z"/><path class="cls-8" d="M441.49,39.65c6.18-3.87,12.14-7.42,17.85-10.62l-.75,17.94,27.7,7.9c-6.5,3.67-13.3,7.76-20.38,12.27l-25.27-7.21,.85-20.29Z"/><path class="cls-8" d="M101.72,445.91c-.71-.49-1.37-1.04-1.98-1.65-25.45-25.45,50.45-142.62,169.48-261.66,55.74-55.74,111.08-102.03,156.78-132.87l-.89,21.42,24.29,6.93c-45.2,31.03-99.26,76.51-153.72,130.97-110.58,110.58-184.2,219.57-174.86,255.94l-19.09-19.09Z"/><g><path class="cls-4" d="M164.92,280.79c5.57,29.67,34.14,49.21,63.82,43.63,25.62-4.81,43.68-26.78,44.55-51.79l1.5-1.28,16.7-14.34-20.77-7.3-1.86-.65c-9.88-22.99-34.68-36.9-60.3-32.09-29.67,5.57-49.21,34.14-43.63,63.81Z"/><circle cx="218.37" cy="270.98" r="47.67"/><g class="cls-17"><path class="cls-10" d="M259.36,322.01h-81.99c1.04-6.8,0-19.67,11.41-27.22,3.19-2.11,7.11-2.83,10.6-4.4,.32-.11,.83-.3,1.39-.64,1.36-.82,1.65-1.42,2.98-2.42,.45-.34,1-.66,1.53-.74,1.83-.29,2.64-.94,3.08-2.75,.57-2.38,.97-4.74,.48-7.21-.22-1.08-.61-1.76-1.65-2.17-2.17-.85-4.32-1.79-6.47-2.7-1.61-.68-1.71-1.24-1.12-2.91,1.85-5.24,3.22-10.57,3.68-16.17,.34-4.2,.05-8.52,1.58-12.57,1.08-2.86,2.84-5.5,5.72-6.35,2.21-.65,4.12-2.12,6.45-2.44,.41-.03,.81-.08,1.24-.06,.04,0,.08,.01,.13,.02,5.52,.35,12.1,3.68,13.66,9.81,.09,.32,.12,.64,.2,.96h.13c.85,3.48,.77,7.1,1.04,10.64,.45,5.6,1.82,10.93,3.68,16.17,.58,1.66,.48,2.23-1.12,2.91-2.15,.91-4.3,1.86-6.47,2.7-1.05,.41-1.44,1.1-1.65,2.17-.5,2.48-.1,4.84,.48,7.21,.43,1.81,1.24,2.46,3.07,2.75,.54,.08,1.08,.4,1.53,.75,1.03,.78,1.86,1.91,2.98,2.42,3.95,1.79,8.24,2.89,12.01,5.03,11.41,6.48,10.38,20.42,11.41,27.22Z"/></g></g><g><path class="cls-4" d="M530.96,121.48c-15.11-30.09-51.75-42.23-81.84-27.12-25.98,13.05-38.58,42.15-31.81,69.23l-1.21,1.84-13.49,20.51,24.51,1.43,2.2,.13c17.67,21.6,48.54,28.88,74.52,15.83,30.09-15.11,42.23-51.75,27.12-81.84Z"/><g><circle cx="476.48" cy="148.84" r="53.43"/><g class="cls-21"><path class="cls-10" d="M519.97,182.99c-7.97-4.09-16.23-7.48-24.58-10.68-.62-.24-1.36-.7-1.62-1.26-.68-1.5-1.15-3.1-1.64-4.68-.31-1.01-.59-1.96-1.69-2.44-.29-.13-.57-.72-.57-1.08,.06-3.67-.79-7.52,1.92-10.71,.09-.1,.12-.25,.18-.36,1.46-3.21,1.73-6.87,3.77-9.86,.05-.07,.07-.17,.07-.26,.24-2.28,.49-4.55,.68-6.83,.02-.28-.23-.79-.47-.87-1.13-.41-1.07-1.31-1.06-2.22,0-4.45,0-8.9,0-13.35,0-2.59-.77-4.89-2.72-6.65-2.23-2-4.51-3.94-6.8-5.87-1.1-.93-1.2-1.65-.17-2.68,.46-.45,1.05-.78,1.58-1.16-.11-.18-.23-.35-.34-.52-.69,0-1.4-.09-2.07,.01-2.53,.41-5.06,.77-7.56,1.35-4.74,1.12-9.35,2.6-13.2,5.78-2.65,2.18-4.75,4.7-5,8.28-.13,1.87-.12,3.76-.13,5.64-.02,3.05,.03,6.12-.04,9.17-.01,.5-.3,1.31-.63,1.43-1.24,.4-1.28,1.19-1.11,2.23,.11,.7,.02,1.45,.18,2.14,.43,1.92,.88,3.82,1.44,5.71,.41,1.4,1.21,2.73,1.43,4.15,.44,2.84,1.49,5.32,3.41,7.47,.32,.36,.56,.96,.52,1.42-.14,2.19-.37,4.39-.67,6.56-.06,.42-.51,1.05-.87,1.13-1.46,.3-1.68,1.43-2.02,2.56-.46,1.5-.95,2.99-1.52,4.44-.18,.44-.63,.92-1.08,1.12-2.59,1.13-5.23,2.17-7.83,3.26-2.77,1.16-5.58,2.28-8.28,3.57-2.79,1.33-5.5,2.84-8.23,4.3-1.61,.86-3.11,1.82-4.38,3v18.02h95.24v-18.22c-1.17-1.19-2.55-2.2-4.13-3.01Z"/></g></g></g></svg>