<svg width="637" height="413" viewBox="0 0 637 413" fill="none" xmlns="http://www.w3.org/2000/svg">
<path fill-rule="evenodd" clip-rule="evenodd" d="M400.783 310.165C400.342 307.408 399.311 304.784 397.77 302.462V311.508C397.82 312.032 397.858 312.556 397.858 313.098C397.864 313.168 397.864 313.237 397.864 313.306C397.864 313.906 397.826 314.505 397.77 315.104V324.144C399.883 320.959 401.028 317.205 401.028 313.306V313.237C401.034 312.196 400.946 311.174 400.783 310.165ZM634.679 229.479L621.765 216.527C620.595 215.354 620.469 213.531 621.457 212.206C623.954 208.812 625.3 204.756 625.3 200.535C625.3 195.312 623.25 190.36 619.564 186.669L619.545 186.644C616.783 183.874 613.273 182.001 609.443 181.25C607.876 180.947 606.769 179.604 606.769 177.995L606.763 141.153C606.763 140.73 606.606 140.327 606.304 140.024L591.037 124.719C590.389 124.07 590.069 123.287 590.069 122.366L590.043 74.8569C590.043 74.5036 589.93 74.1629 589.716 73.8853C580.684 62.4606 570.525 51.9569 559.416 42.5698C557.485 40.9296 555.523 39.3273 553.541 37.7627C540.847 27.7764 527.053 19.2283 512.466 12.3142C511.78 11.9861 511.101 11.6644 510.415 11.349C510.321 11.3048 510.239 11.2733 510.164 11.2165C509.925 11.0777 509.66 11.0083 509.384 11.0083C508.616 11.0083 507.962 11.5635 507.836 12.3079C507.811 12.4025 507.799 12.4971 507.799 12.6044V47.194C507.799 47.6166 507.962 48.0204 508.258 48.3106L527.015 67.1226C527.657 67.7661 527.984 68.5546 527.984 69.4631V73.1535C527.984 74.0746 527.657 74.8632 526.996 75.5066C526.348 76.1564 525.562 76.4781 524.644 76.4718H524.254C519.045 76.4718 514.108 78.5284 510.428 82.2252L510.409 82.2441C510.176 82.4712 509.95 82.711 509.736 82.9444C506.478 86.5465 504.672 91.2148 504.672 96.104C504.672 100.665 506.245 105.031 509.126 108.557C509.195 108.645 509.264 108.74 509.34 108.828C510.466 110.147 510.384 112.096 509.17 113.32L506.503 115.995L505.773 116.727C505.125 117.37 504.345 117.698 503.427 117.698H455.822C455.451 117.698 455.093 117.83 454.816 118.083C454.772 118.102 454.74 118.133 454.703 118.171L454.269 118.606L451.922 120.96L436.669 136.258L434.75 138.182L433.813 139.122L431.812 141.128L429.617 143.33L428.887 144.061C427.78 145.172 426.101 145.355 424.78 144.522C421.647 142.528 418.056 141.487 414.357 141.487C409.149 141.487 404.211 143.55 400.525 147.241L400.506 147.26C399.449 148.32 398.524 149.487 397.744 150.742V171.51L397.795 171.585C397.927 171.794 398.028 172.002 398.097 172.216C398.48 173.213 398.348 174.323 397.744 175.213V179.786L399.518 178.007C400.644 176.878 402.349 176.708 403.67 177.572C406.859 179.66 410.539 180.764 414.351 180.764C419.553 180.764 424.491 178.701 428.177 175.011L428.196 174.992C430.139 173.043 431.63 170.734 432.605 168.21C433.165 166.759 433.555 165.245 433.756 163.681C433.869 162.842 433.932 161.978 433.932 161.12C433.932 157.303 432.831 153.606 430.749 150.414C430.718 150.364 430.686 150.319 430.661 150.269C430.202 149.499 430.102 148.61 430.309 147.79C430.454 147.228 430.749 146.698 431.183 146.257L435.624 141.803L439.726 137.69L455.508 121.862C455.967 121.401 456.514 121.098 457.118 120.966C457.351 120.915 457.596 120.89 457.848 120.89H505.465C505.886 120.89 506.276 120.726 506.578 120.423L512.346 114.645C513.353 113.635 514.787 113.377 516.076 113.976C518.637 115.162 521.417 115.774 524.241 115.774C524.386 115.774 524.537 115.774 524.682 115.768C529.726 115.654 534.494 113.61 538.067 110.027L538.086 110.002C540.961 107.131 542.835 103.498 543.527 99.5547C543.728 98.4381 543.829 97.29 543.829 96.1355C543.829 90.912 541.772 85.9599 538.086 82.2694L538.067 82.2504C536.576 80.749 534.847 79.5062 532.966 78.5536C531.815 77.9796 531.142 76.8819 531.142 75.5949V67.4633C531.142 67.028 530.978 66.6368 530.676 66.334L511.931 47.5346C511.29 46.8912 510.963 46.1026 510.963 45.1942V20.3828C510.963 19.2031 511.535 18.1811 512.535 17.5629C513.542 16.9383 514.699 16.8878 515.756 17.4241C528.418 23.8083 540.426 31.4731 551.579 40.2483C553.466 41.7308 555.334 43.2512 557.164 44.8094C567.751 53.717 577.476 63.6529 586.143 74.4531C586.634 75.0713 586.873 75.7463 586.873 76.5349V124.391C586.873 124.814 587.037 125.218 587.339 125.521L602.605 140.831C603.253 141.475 603.574 142.263 603.574 143.172V178.222C603.574 179.768 602.555 181.067 601.058 181.439C597.579 182.291 594.403 184.095 591.868 186.625L591.849 186.65C588.169 190.341 586.112 195.293 586.112 200.516C586.112 205.74 588.169 210.692 591.849 214.382L591.868 214.401C595.554 218.098 600.491 220.161 605.7 220.161C608.996 220.161 612.223 219.328 615.11 217.732C616.418 217 617.991 217.228 619.048 218.287L630.773 230.053C631.515 230.791 631.848 231.737 631.723 232.778C627.741 267.614 615.261 300.809 595.352 329.62C576.513 356.879 551.535 379.483 522.537 395.443C521.474 396.024 520.285 395.998 519.259 395.393C518.221 394.775 517.63 393.746 517.63 392.541V351.694C517.63 350.785 517.957 349.99 518.599 349.353L536.237 331.67C536.885 331.021 537.665 330.699 538.57 330.699H564.75C565.216 330.699 565.644 330.491 565.952 330.137C566.002 330.074 566.052 330.024 566.115 329.961L583.338 312.669C583.653 312.366 583.797 311.956 583.803 311.565V296.33C583.803 295.907 583.64 295.504 583.338 295.214L570.852 282.685L568.147 279.966C567.845 279.669 567.455 279.505 567.021 279.505H544.055C543.634 279.505 543.231 279.669 542.93 279.966L528.619 294.324C527.978 294.967 527.191 295.296 526.286 295.296H522.537C520.719 295.296 519.234 293.8 519.234 291.984C519.234 287.006 517.366 282.275 514.001 278.641C513.843 278.458 513.674 278.288 513.497 278.111L513.472 278.092C509.793 274.402 504.855 272.339 499.646 272.339C498.722 272.339 497.803 272.408 496.904 272.541C494.671 272.85 492.526 273.556 490.557 274.597C488.827 275.506 487.229 276.698 485.808 278.111C485.072 278.849 484.059 279.158 483.103 279.051C482.707 279.007 482.317 278.893 481.952 278.698C481.656 278.559 481.392 278.357 481.141 278.105L450.57 247.445C449.922 246.802 449.601 246.013 449.601 245.105V226.848C449.601 226.425 449.438 226.022 449.136 225.731L434.102 210.654L432.957 209.506L430.561 207.102C430.265 206.8 429.869 206.636 429.447 206.636H415.496C415.143 206.636 414.804 206.755 414.527 206.964C414.432 207.039 414.344 207.121 414.269 207.216C414.219 207.285 414.175 207.329 414.124 207.399L412.873 208.717L408.004 213.827L401.663 220.489L397.77 224.577V229.151L398.732 228.148L403.173 223.479L411.055 215.203L415.2 210.85C415.294 210.742 415.401 210.648 415.508 210.566C416.099 210.074 416.798 209.821 417.584 209.821H427.434C428.34 209.821 429.133 210.149 429.768 210.793L433.108 214.143L437.392 218.445L445.475 226.552C446.123 227.195 446.444 227.984 446.444 228.892L446.45 247.149C446.45 247.572 446.613 247.963 446.909 248.265L459.879 261.274L461.955 263.362L480.461 281.921C480.688 282.136 480.87 282.382 481.015 282.641C481.493 283.467 481.575 284.445 481.241 285.385C480.593 287.189 480.222 289.075 480.115 290.98C480.096 291.321 480.09 291.668 480.09 292.002C480.09 297.22 482.147 302.178 485.833 305.869L485.852 305.888C489.532 309.578 494.47 311.641 499.678 311.641C504.886 311.641 509.824 309.578 513.504 305.888L513.529 305.869C515.114 304.273 516.416 302.418 517.379 300.387C517.938 299.207 519.058 298.494 520.36 298.494H528.336C528.758 298.494 529.16 298.33 529.462 298.033L543.772 283.675C544.414 283.025 545.2 282.704 546.106 282.704H565.027C565.945 282.704 566.725 283.025 567.373 283.675L579.702 296.04C580.344 296.683 580.671 297.472 580.671 298.38V309.584C580.671 310.493 580.344 311.275 579.702 311.925L565.109 326.561C564.467 327.21 563.681 327.532 562.775 327.532L536.589 327.538C536.155 327.538 535.765 327.696 535.463 327.999L514.963 348.558C514.661 348.861 514.498 349.259 514.498 349.675V400.257C514.504 400.389 514.517 400.509 514.517 400.642C514.517 400.881 514.579 401.127 514.68 401.342C515.07 402.111 516.014 402.427 516.781 402.042C549.289 385.728 577.274 361.358 597.969 331.412C618.57 301.591 631.32 267.185 635.1 231.1C635.107 231.024 635.119 230.955 635.138 230.885C635.207 230.362 635.056 229.845 634.679 229.479ZM430.793 161.101C430.793 161.372 430.787 161.637 430.775 161.914C430.775 161.914 430.775 161.914 430.775 161.921C430.573 165.996 428.9 169.832 426 172.74L425.981 172.759C422.899 175.856 418.729 177.566 414.382 177.566C410.023 177.566 405.859 175.856 402.77 172.759L402.752 172.74C401.871 171.857 401.097 170.885 400.462 169.851C398.833 167.258 397.965 164.23 397.965 161.094C397.965 156.723 399.669 152.559 402.758 149.461L402.777 149.443C405.865 146.345 410.029 144.635 414.388 144.635C418.748 144.635 422.912 146.345 425.988 149.443L426.007 149.461C429.089 152.565 430.793 156.729 430.793 161.101ZM535.872 84.4458L535.891 84.471C538.973 87.5622 540.678 91.7321 540.678 96.104C540.678 97.2647 540.558 98.4129 540.325 99.5232C539.677 102.614 538.162 105.472 535.897 107.749L535.878 107.768C533.349 110.304 530.116 111.9 526.632 112.399C525.852 112.506 525.065 112.563 524.273 112.563C519.914 112.563 515.749 110.86 512.661 107.762L512.642 107.743C511.636 106.734 510.78 105.617 510.088 104.4C508.635 101.901 507.855 99.0437 507.855 96.0976C507.855 92.8677 508.78 89.7576 510.51 87.108C511.113 86.1617 511.824 85.2785 512.636 84.4647L512.655 84.4395C515.743 81.342 519.901 79.6387 524.266 79.6387C528.619 79.6513 532.783 81.3609 535.872 84.4458ZM617.343 212.168L617.318 212.193C614.236 215.285 610.078 216.994 605.719 216.994C601.347 216.994 597.195 215.285 594.107 212.193L594.088 212.168C591 209.077 589.295 204.907 589.295 200.535C589.295 196.163 591 191.987 594.088 188.89L594.107 188.871C597.195 185.773 601.347 184.07 605.719 184.07C610.078 184.07 614.242 185.78 617.318 188.871L617.343 188.89C620.425 191.987 622.13 196.157 622.13 200.535C622.13 204.907 620.425 209.083 617.343 212.168ZM511.302 303.635L511.283 303.654C508.195 306.752 504.037 308.461 499.672 308.461C495.312 308.461 491.148 306.752 488.072 303.654L488.047 303.635C484.965 300.544 483.26 296.368 483.26 292.002C483.26 290.015 483.606 288.079 484.279 286.262C485.084 284.066 486.355 282.054 488.041 280.363L488.066 280.344C491.035 277.36 495.004 275.67 499.193 275.544C499.351 275.537 499.514 275.537 499.672 275.537C503.156 275.537 506.522 276.629 509.308 278.66C510.006 279.165 510.667 279.726 511.283 280.344L511.302 280.363C514.384 283.461 516.089 287.631 516.089 292.009C516.083 296.374 514.378 300.544 511.302 303.635ZM226.398 246.222L216.328 246.228H209.566C209.471 246.228 209.377 246.228 209.283 246.247C208.433 246.411 207.861 247.218 208.031 248.076C208.081 248.347 208.132 248.625 208.188 248.89C208.956 253.003 209.855 257.104 210.868 261.173C211.44 263.444 212.05 265.709 212.705 267.961C213.145 269.506 213.604 271.033 214.082 272.56C214.189 272.913 214.296 273.272 214.409 273.626C214.434 273.733 214.459 273.815 214.485 273.922C214.642 274.641 215.29 275.171 216.032 275.171H224.096C224.235 275.171 224.367 275.178 224.492 275.197C225.235 275.272 225.883 275.588 226.436 276.143L239.23 288.974V284.483L227.241 272.459C226.939 272.156 226.543 271.992 226.115 271.992H219.617C218.24 271.992 217.057 271.191 216.554 269.942C216.51 269.834 216.479 269.733 216.441 269.62C215.535 266.573 214.705 263.501 213.925 260.416C213.346 258.088 212.799 255.747 212.289 253.407C212.107 252.568 212.239 251.748 212.66 251.041C212.736 250.902 212.83 250.764 212.944 250.625C213.591 249.817 214.485 249.395 215.523 249.395H239.224V246.228H226.398V246.222Z" fill="#0472CF"/>
<path fill-rule="evenodd" clip-rule="evenodd" d="M559.869 231.485V237.225C559.479 237.188 559.083 237.175 558.674 237.175H556.699V233.516C556.699 232.608 556.372 231.813 555.73 231.163L529.689 205.058C529.047 204.415 528.261 204.087 527.355 204.087H526.946C526.984 203.715 526.996 203.342 526.996 202.958V201.917C526.996 201.576 526.977 201.242 526.946 200.914H529.374C529.796 200.914 530.198 201.078 530.5 201.38L559.397 230.362C559.706 230.658 559.869 231.056 559.869 231.485Z" fill="#0472CF"/>
<path fill-rule="evenodd" clip-rule="evenodd" d="M239.224 302.468C237.104 305.654 235.966 309.401 235.966 313.306C235.966 317.205 237.111 320.959 239.224 324.144V315.085C239.155 314.499 239.13 313.906 239.13 313.306C239.13 312.707 239.155 312.108 239.224 311.521V302.468ZM236.469 147.235L236.444 147.216C234.928 145.689 233.192 144.446 231.311 143.519C229.833 142.774 228.267 142.226 226.637 141.885C225.323 141.601 223.983 141.462 222.612 141.462C218.9 141.462 215.309 142.503 212.176 144.497C210.861 145.329 209.182 145.146 208.075 144.036L191.739 127.653L189.984 125.893L189.978 125.887L182.272 118.159C181.97 117.856 181.58 117.692 181.146 117.692H133.542C132.636 117.692 131.843 117.364 131.208 116.72L127.818 113.32C126.597 112.096 126.522 110.147 127.635 108.828C128.629 107.655 129.478 106.381 130.164 105.037C131.548 102.349 132.29 99.3529 132.315 96.2743V96.1103C132.315 90.8868 130.258 85.9346 126.579 82.2442L126.56 82.2252C125.088 80.749 123.427 79.5441 121.628 78.6231C118.993 77.2604 116.055 76.5223 113.029 76.4782C112.935 76.4719 112.828 76.4719 112.727 76.4719H112.344C111.425 76.4782 110.639 76.1564 109.985 75.5067C109.337 74.8632 109.01 74.0746 109.01 73.1536V69.4631C109.01 68.5547 109.337 67.7598 109.979 67.1226L111.067 66.0313L118.275 58.7954L128.724 48.3169C129.025 48.0204 129.189 47.623 129.189 47.2003V12.6107C129.189 11.7275 128.478 11.0146 127.604 11.0146C127.327 11.0146 127.069 11.084 126.824 11.2228C126.736 11.2733 126.66 11.3111 126.572 11.3553C126.088 11.5824 125.604 11.8095 125.119 12.0429C110.306 19.0012 96.3036 27.6439 83.4401 37.7691C78.3701 41.7624 73.4826 45.9828 68.7838 50.4114C61.0594 57.6977 53.8697 65.5518 47.2838 73.898C47.0699 74.1756 46.9441 74.5162 46.9441 74.8695L46.9252 122.379C46.9252 123.3 46.5981 124.082 45.9565 124.732L30.6901 140.037C30.3882 140.339 30.2246 140.737 30.2246 141.166V178.008C30.2246 179.61 29.1176 180.96 27.5513 181.263C23.7205 182.02 20.198 183.893 17.4492 186.657L17.424 186.682C13.7442 190.372 11.6873 195.324 11.6873 200.548C11.6873 204.762 13.0397 208.825 15.5369 212.219C16.5245 213.543 16.3861 215.367 15.2161 216.54L2.32114 229.479C1.95002 229.845 1.79276 230.362 1.88083 230.886C1.88712 230.955 1.90599 231.024 1.90599 231.1C5.68642 267.185 18.4367 301.591 39.0436 331.412C59.7385 361.365 87.7237 385.734 120.232 402.042C120.999 402.427 121.943 402.111 122.326 401.342C122.44 401.127 122.49 400.881 122.49 400.642C122.49 400.509 122.496 400.389 122.515 400.257V349.675C122.515 349.259 122.352 348.861 122.05 348.558L101.55 327.999C101.248 327.696 100.851 327.538 100.424 327.538L74.2375 327.532C73.3317 327.532 72.5391 327.21 71.9038 326.561L57.3104 311.925C56.6625 311.275 56.3417 310.493 56.3417 309.584V298.38C56.3417 297.472 56.6625 296.677 57.3104 296.04L69.6393 283.675C70.2809 283.026 71.0672 282.704 71.973 282.704H90.9003C91.8061 282.704 92.5987 283.026 93.234 283.675L107.544 298.033C107.846 298.33 108.242 298.494 108.67 298.494H116.64C117.955 298.494 119.068 299.207 119.634 300.387C120.597 302.418 121.899 304.273 123.484 305.869L123.503 305.888C127.182 309.578 132.127 311.641 137.335 311.641C142.537 311.641 147.475 309.578 151.161 305.888L151.18 305.869C154.859 302.178 156.916 297.22 156.916 292.003C156.916 289.738 156.533 287.511 155.772 285.385C155.331 284.155 155.614 282.849 156.539 281.922L171.529 266.888L184.688 253.685L190.085 248.272C190.387 247.969 190.55 247.578 190.55 247.155V228.898C190.55 227.99 190.877 227.195 191.519 226.558L193.022 225.05L196.991 221.057L207.219 210.799C207.867 210.156 208.654 209.828 209.566 209.828H219.41C220.353 209.828 221.159 210.175 221.806 210.862L223.121 212.244L228.707 218.117L239.224 229.17V224.583L228.292 213.102L222.87 207.399C222.844 207.374 222.826 207.348 222.8 207.323C222.775 207.285 222.737 207.26 222.712 207.216C222.41 206.844 221.97 206.636 221.486 206.636H207.54C207.119 206.636 206.716 206.8 206.414 207.102L194.677 218.887L191.683 221.89L187.852 225.732C187.594 225.984 187.437 226.306 187.399 226.659C187.38 226.722 187.38 226.791 187.38 226.848V245.105C187.38 246.013 187.053 246.808 186.411 247.445L185.782 248.076L184.744 249.117L183.247 250.619L155.841 278.105C154.551 279.398 152.45 279.398 151.161 278.111C147.475 274.414 142.543 272.339 137.329 272.339C132.12 272.339 127.17 274.402 123.496 278.092L123.477 278.111C119.798 281.808 117.741 286.76 117.741 291.984C117.741 293.807 116.25 295.296 114.426 295.296H110.689C109.771 295.296 108.991 294.967 108.343 294.324L94.0328 279.966C93.7309 279.669 93.3409 279.505 92.9195 279.505H69.9412C69.5198 279.505 69.1172 279.669 68.8279 279.966L53.6306 295.207C53.335 295.504 53.1652 295.901 53.1652 296.324V311.559C53.1714 311.95 53.3287 312.36 53.6306 312.663L70.8659 329.955C70.9288 330.018 70.9791 330.068 71.0294 330.131C71.3314 330.484 71.7654 330.693 72.2309 330.693H98.3983C99.3166 330.693 100.097 331.014 100.745 331.664L118.376 349.347C119.024 349.99 119.345 350.779 119.345 351.687V392.535C119.345 393.74 118.766 394.775 117.728 395.387C116.69 395.992 115.508 396.017 114.451 395.437C85.4529 379.47 60.4744 356.873 41.6351 329.614C21.7202 300.803 9.2467 267.607 5.26498 232.772C5.14546 231.731 5.47255 230.785 6.20851 230.047L17.9398 218.281C18.9966 217.221 20.5691 216.994 21.8775 217.726C24.7647 219.322 27.9853 220.155 31.2877 220.155C36.496 220.155 41.4339 218.092 45.1136 214.395L45.1325 214.376C48.8186 210.686 50.8692 205.733 50.8692 200.51C50.8692 195.287 48.8186 190.334 45.1325 186.644L45.1136 186.619C42.585 184.083 39.4021 182.278 35.9362 181.433C34.4328 181.061 33.4075 179.761 33.4075 178.216V143.166C33.4075 142.257 33.7346 141.462 34.3762 140.825L49.6552 125.514C49.9508 125.212 50.1144 124.814 50.1144 124.385V76.5286C50.1144 75.7401 50.3534 75.0651 50.8503 74.4468C57.0588 66.7063 63.8082 59.4199 71.0357 52.6257C75.6465 48.2854 80.4459 44.147 85.4152 40.2357C96.5678 31.4543 108.582 23.7957 121.238 17.4115C122.295 16.8753 123.459 16.9257 124.465 17.5503C125.063 17.9162 125.503 18.4272 125.755 19.0265C125.937 19.4365 126.031 19.897 126.031 20.3702V45.169C126.031 46.0774 125.71 46.8723 125.063 47.5094L110.79 61.8235L106.318 66.3088C106.022 66.6117 105.858 67.0028 105.858 67.4381V75.5697C105.858 76.8567 105.173 77.9544 104.034 78.5285C102.147 79.481 100.417 80.7238 98.9204 82.2252L98.9015 82.2442C95.2217 85.9346 93.1648 90.8868 93.1648 96.1103C93.1648 101.334 95.2217 106.286 98.9015 109.976L98.9204 110.002C101.09 112.178 103.707 113.787 106.55 114.739C108.526 115.408 110.614 115.755 112.746 115.755C115.577 115.755 118.351 115.149 120.924 113.957C122.207 113.358 123.647 113.616 124.641 114.626L130.422 120.404C130.718 120.707 131.114 120.871 131.535 120.871H179.14C179.964 120.871 180.662 121.13 181.266 121.654C181.341 121.704 181.411 121.773 181.48 121.843L189.242 129.627L195.954 136.359L205.798 146.231C206.911 147.361 207.094 149.07 206.219 150.395C204.143 153.587 203.043 157.284 203.043 161.101C203.043 163.189 203.37 165.239 204.005 167.182C204.653 169.169 205.615 171.043 206.861 172.734C207.44 173.522 208.081 174.267 208.779 174.973L208.798 174.992C212.447 178.651 217.347 180.72 222.517 180.745H222.618C224.348 180.745 226.046 180.518 227.688 180.07C229.663 179.54 231.556 178.701 233.292 177.553C234.626 176.683 236.331 176.859 237.444 177.989L239.224 179.768V175.194C238.488 174.115 238.457 172.702 239.174 171.567L239.224 171.491V150.711C238.45 149.468 237.526 148.294 236.469 147.235ZM125.698 280.357L125.717 280.338C128.805 277.241 132.963 275.531 137.329 275.531C141.694 275.531 145.839 277.241 148.928 280.338L148.947 280.357C152.035 283.454 153.74 287.624 153.74 292.003C153.74 296.368 152.035 300.551 148.947 303.635L148.928 303.654C145.839 306.752 141.688 308.461 137.329 308.461C132.957 308.461 128.805 306.752 125.717 303.654L125.698 303.635C122.609 300.544 120.905 296.374 120.905 292.003C120.905 287.624 122.609 283.454 125.698 280.357ZM42.8869 188.877L42.9121 188.896C45.9943 191.994 47.6989 196.163 47.6989 200.542C47.6989 204.913 45.9943 209.09 42.9121 212.174L42.8869 212.2C39.8047 215.291 35.6468 217.001 31.2877 217.001C26.9286 217.001 22.7644 215.291 19.6759 212.2L19.657 212.174C16.5685 209.083 14.8702 204.913 14.8702 200.542C14.8702 196.17 16.5685 191.994 19.657 188.896L19.6759 188.877C22.7644 185.786 26.9286 184.076 31.2877 184.076C35.6405 184.076 39.8047 185.78 42.8869 188.877ZM124.371 107.75L124.346 107.768C121.263 110.866 117.105 112.569 112.734 112.569C110.582 112.569 108.475 112.153 106.538 111.352C104.531 110.544 102.695 109.339 101.128 107.768L101.109 107.75C98.0209 104.652 96.3162 100.482 96.3162 96.104C96.3162 91.7322 98.0209 87.5559 101.109 84.4711L101.128 84.4458C102.695 82.875 104.538 81.6701 106.538 80.8563C108.482 80.0677 110.589 79.6514 112.734 79.6514C113.168 79.6514 113.602 79.6703 114.023 79.7018C117.778 79.9857 121.301 81.5439 124.044 84.1556C124.144 84.2503 124.251 84.3575 124.346 84.4521L124.371 84.4774C126.358 86.4709 127.774 88.9186 128.522 91.5745C128.937 93.038 129.151 94.5584 129.151 96.1103C129.151 98.394 128.686 100.621 127.799 102.671C127 104.545 125.836 106.28 124.371 107.75ZM239.029 161.101C239.029 162.791 238.778 164.451 238.287 166.028C237.507 168.532 236.142 170.841 234.249 172.746L234.223 172.765C232.406 174.588 230.217 175.932 227.839 176.721C226.184 177.276 224.442 177.572 222.656 177.572H222.618C218.259 177.572 214.095 175.863 211.006 172.765L210.987 172.746C210.453 172.21 209.956 171.636 209.509 171.037C208.238 169.352 207.314 167.453 206.773 165.435C206.389 164.04 206.2 162.59 206.2 161.107C206.2 156.735 207.899 152.572 210.987 149.474L211.006 149.455C214.095 146.358 218.252 144.648 222.618 144.648C223.794 144.648 224.964 144.768 226.096 145.02C227.751 145.374 229.33 145.985 230.795 146.825C232.041 147.537 233.192 148.421 234.223 149.455L234.249 149.474C236.985 152.225 238.627 155.808 238.966 159.631C239.004 160.11 239.029 160.609 239.029 161.101ZM428.34 246.524C428.158 246.386 427.95 246.291 427.717 246.247C427.629 246.228 427.535 246.228 427.441 246.228H409.62L397.776 246.222V249.388H421.478C422.515 249.388 423.396 249.811 424.057 250.619C424.698 251.426 424.931 252.391 424.717 253.401C424.208 255.741 423.66 258.088 423.075 260.409C422.308 263.501 421.465 266.567 420.559 269.614C420.138 271.046 418.88 271.979 417.395 271.979H410.879C410.463 271.979 410.067 272.143 409.765 272.446L397.776 284.47V288.962L410.57 276.13C411.218 275.48 411.998 275.159 412.917 275.159H420.981C421.025 275.159 421.069 275.159 421.113 275.152C421.805 275.102 422.383 274.591 422.534 273.91C422.553 273.809 422.578 273.72 422.61 273.613C423.906 269.5 425.094 265.343 426.139 261.16C427.227 256.82 428.17 252.448 428.982 248.057C429.089 247.458 428.825 246.859 428.34 246.524Z" fill="#0472CF"/>
<path fill-rule="evenodd" clip-rule="evenodd" d="M133.686 200.907H107.613C107.192 200.907 106.802 201.071 106.5 201.374L77.5964 230.355C77.3008 230.658 77.1372 231.056 77.1372 231.485V254.258C77.1372 255.135 77.848 255.848 78.7224 255.848H105.626C106.041 255.848 106.437 255.684 106.739 255.381L134.8 227.239C135.102 226.936 135.265 226.545 135.265 226.122V202.503C135.265 201.62 134.561 200.907 133.686 200.907ZM132.101 224.072C132.101 224.993 131.774 225.775 131.133 226.425L105.934 251.697C105.286 252.341 104.506 252.669 103.588 252.669H83.6036C81.7857 252.669 80.3012 251.174 80.3012 249.357V233.516C80.3012 232.608 80.6283 231.813 81.2699 231.163L107.299 205.058C107.947 204.415 108.727 204.087 109.633 204.087H128.786C130.611 204.087 132.101 205.582 132.101 207.411V224.072Z" fill="#0472CF"/>
<path fill-rule="evenodd" clip-rule="evenodd" d="M90.4223 163.618C89.7807 162.974 88.9 162.583 87.9376 162.583C86.9689 162.583 86.0883 162.974 85.453 163.618H85.4467C84.8177 164.261 84.4277 165.138 84.4277 166.109C84.4277 166.646 84.5409 167.157 84.7674 167.617L79.666 172.733L79.4332 172.967V187.931C78.7665 188.069 78.1689 188.41 77.7034 188.877L77.6971 188.883C77.0681 189.514 76.6655 190.404 76.6655 191.375C76.6655 192.34 77.0618 193.224 77.7034 193.854L77.6971 193.861C78.3387 194.492 79.2131 194.895 80.1881 194.895C81.1568 194.895 82.0374 194.498 82.6727 193.861C83.3017 193.217 83.7043 192.34 83.7043 191.369C83.7043 190.391 83.308 189.514 82.6727 188.871C82.2324 188.429 81.6663 188.107 81.0435 187.95V173.623L85.7738 168.866C86.3714 169.333 87.1262 169.611 87.9439 169.611C88.9126 169.611 89.787 169.22 90.4286 168.576C91.0576 167.945 91.4602 167.056 91.4602 166.084C91.4539 165.138 91.0513 164.248 90.4223 163.618ZM81.5279 190.019V190.025C81.8676 190.366 82.0814 190.851 82.0814 191.381C82.0814 191.899 81.8676 192.384 81.5279 192.725C81.1819 193.072 80.6976 193.287 80.1755 193.287C79.6471 193.287 79.169 193.072 78.8231 192.725H78.8168C78.4771 192.384 78.2632 191.911 78.2632 191.381C78.2632 190.845 78.4771 190.366 78.8168 190.025L78.8231 190.019C79.1628 189.678 79.6471 189.464 80.1755 189.464C80.7039 189.464 81.1819 189.678 81.5279 190.019ZM89.29 167.46C88.9441 167.806 88.466 168.015 87.9376 168.015C87.4093 168.015 86.9312 167.806 86.5852 167.46C86.2393 167.113 86.0254 166.633 86.0254 166.103C86.0254 165.573 86.2393 165.1 86.5852 164.753C86.9249 164.406 87.4093 164.198 87.9376 164.198C88.466 164.198 88.9441 164.406 89.29 164.753C89.6297 165.1 89.8436 165.58 89.8436 166.103C89.8436 166.639 89.6234 167.113 89.29 167.46Z" fill="#1467DB"/>
<path fill-rule="evenodd" clip-rule="evenodd" d="M72.9543 188.89V188.883C72.4888 188.416 71.8912 188.076 71.2245 187.937V172.973L70.9917 172.74L65.8903 167.624C66.1042 167.163 66.23 166.652 66.23 166.116C66.23 165.144 65.84 164.267 65.1984 163.624C64.5568 162.98 63.6824 162.589 62.7138 162.589C61.7451 162.589 60.8707 162.98 60.2291 163.624C59.5875 164.255 59.1975 165.144 59.1975 166.116C59.1975 167.087 59.5875 167.971 60.2291 168.608C60.8581 169.251 61.7451 169.642 62.7138 169.642C63.5252 169.642 64.28 169.365 64.8776 168.898L69.6204 173.654V187.981C68.9977 188.139 68.4379 188.461 67.9913 188.902C67.3497 189.546 66.9597 190.423 66.9597 191.4C66.9597 192.372 67.3497 193.249 67.9913 193.892C68.6203 194.523 69.5072 194.927 70.4759 194.927C71.4446 194.927 72.3252 194.529 72.9606 193.892V193.886C73.6022 193.255 73.9922 192.366 73.9922 191.407C73.9859 190.41 73.5959 189.527 72.9543 188.89ZM64.0599 167.46C63.7139 167.807 63.2358 168.015 62.7075 168.015C62.1791 168.015 61.701 167.807 61.3551 167.46C61.0091 167.113 60.8015 166.633 60.8015 166.103C60.8015 165.573 61.0091 165.1 61.3551 164.753C61.701 164.406 62.1791 164.198 62.7075 164.198C63.2358 164.198 63.7139 164.406 64.0599 164.753C64.4058 165.1 64.6197 165.58 64.6197 166.103C64.626 166.639 64.4058 167.113 64.0599 167.46ZM71.822 192.725C71.4761 193.072 70.998 193.287 70.4696 193.287C69.9412 193.287 69.4632 193.072 69.1172 192.725C68.7713 192.384 68.5637 191.899 68.5637 191.381C68.5637 190.852 68.7713 190.366 69.1172 190.025V190.019C69.4632 189.678 69.9412 189.464 70.4696 189.464C70.998 189.464 71.4761 189.678 71.822 190.019V190.025C72.168 190.366 72.3819 190.839 72.3819 191.381C72.3819 191.911 72.168 192.391 71.822 192.725Z" fill="#1467DB"/>
<path fill-rule="evenodd" clip-rule="evenodd" d="M77.8102 156.641C77.1686 156.01 76.2943 155.606 75.3256 155.606C74.3569 155.606 73.4825 156.003 72.8409 156.641C72.1993 157.284 71.8093 158.161 71.8093 159.132C71.8093 160.104 72.1993 160.987 72.8409 161.624C73.2624 162.06 73.8096 162.381 74.4135 162.545V184.531H76.0238V162.589C76.7094 162.451 77.3322 162.11 77.8039 161.624C78.4455 160.993 78.8355 160.104 78.8355 159.132C78.8355 158.161 78.4455 157.278 77.8102 156.641ZM76.6717 160.489C76.3257 160.836 75.8477 161.05 75.3193 161.05C74.7909 161.05 74.3128 160.836 73.9669 160.489C73.6209 160.148 73.407 159.662 73.407 159.132C73.407 158.603 73.6209 158.129 73.9669 157.782C74.3128 157.442 74.7909 157.227 75.3193 157.227C75.8477 157.227 76.3257 157.442 76.6717 157.782C77.0176 158.129 77.2252 158.609 77.2252 159.132C77.2252 159.662 77.0176 160.142 76.6717 160.489Z" fill="#1467DB"/>
<path fill-rule="evenodd" clip-rule="evenodd" d="M618.991 239.282H618.985C618.356 238.651 617.469 238.248 616.5 238.248C615.531 238.248 614.657 238.645 614.016 239.282C613.374 239.926 612.984 240.803 612.984 241.774C612.984 242.31 613.103 242.821 613.324 243.282L608.222 248.398L607.989 248.631V263.595C607.323 263.74 606.725 264.081 606.26 264.548C605.618 265.179 605.228 266.068 605.228 267.04C605.228 268.011 605.618 268.888 606.26 269.532C606.889 270.162 607.776 270.566 608.744 270.566C609.713 270.566 610.594 270.169 611.229 269.532C611.871 268.901 612.261 268.011 612.261 267.04C612.261 266.068 611.871 265.185 611.229 264.548C610.789 264.106 610.222 263.778 609.6 263.62V249.294L614.343 244.537C614.94 245.004 615.695 245.282 616.506 245.282C617.475 245.282 618.356 244.89 618.997 244.247C619.626 243.616 620.016 242.727 620.016 241.755C620.01 240.803 619.62 239.913 618.991 239.282ZM610.084 265.683V265.69C610.43 266.037 610.644 266.516 610.644 267.046C610.644 267.576 610.43 268.049 610.084 268.402C609.738 268.743 609.26 268.957 608.732 268.957C608.203 268.957 607.725 268.743 607.379 268.402C607.033 268.055 606.826 267.576 606.826 267.046C606.826 266.516 607.033 266.03 607.379 265.69V265.683C607.725 265.343 608.203 265.128 608.732 265.128C609.266 265.128 609.738 265.349 610.084 265.683ZM617.846 243.124C617.5 243.471 617.022 243.686 616.494 243.686C615.965 243.686 615.487 243.471 615.141 243.124C614.795 242.777 614.588 242.298 614.588 241.768C614.588 241.238 614.795 240.765 615.141 240.418C615.487 240.071 615.965 239.863 616.494 239.863C617.022 239.863 617.5 240.071 617.846 240.418C618.192 240.765 618.406 241.244 618.406 241.768C618.406 242.304 618.192 242.777 617.846 243.124Z" fill="#1467DB"/>
<path fill-rule="evenodd" clip-rule="evenodd" d="M601.523 264.554H601.517C601.051 264.087 600.46 263.747 599.787 263.602V248.638L599.554 248.404L594.459 243.288C594.673 242.828 594.799 242.317 594.799 241.78C594.799 240.809 594.403 239.932 593.767 239.288H593.761C593.132 238.658 592.245 238.254 591.289 238.254C590.32 238.254 589.44 238.651 588.798 239.288C588.169 239.919 587.766 240.809 587.766 241.78C587.766 242.752 588.163 243.635 588.798 244.272C589.44 244.916 590.314 245.307 591.289 245.307C592.1 245.307 592.855 245.029 593.453 244.562L598.196 249.319V263.646C597.567 263.803 597.013 264.131 596.566 264.573H596.56C595.931 265.204 595.529 266.093 595.529 267.065C595.529 268.036 595.925 268.92 596.56 269.557C597.202 270.188 598.082 270.591 599.051 270.591C600.02 270.591 600.894 270.194 601.536 269.557C602.165 268.913 602.567 268.036 602.567 267.065C602.555 266.074 602.152 265.191 601.523 264.554ZM592.629 243.124H592.622C592.283 243.471 591.798 243.686 591.283 243.686C590.754 243.686 590.27 243.471 589.93 243.124C589.584 242.777 589.37 242.298 589.37 241.768C589.37 241.238 589.584 240.765 589.93 240.418C590.27 240.071 590.742 239.863 591.283 239.863C591.811 239.863 592.289 240.071 592.622 240.418H592.629C592.968 240.765 593.182 241.244 593.182 241.768C593.182 242.304 592.968 242.777 592.629 243.124ZM600.391 268.402H600.385C600.045 268.743 599.561 268.957 599.045 268.957C598.516 268.957 598.032 268.743 597.692 268.402C597.346 268.055 597.133 267.576 597.133 267.046C597.133 266.516 597.346 266.037 597.692 265.69V265.683C598.032 265.343 598.504 265.128 599.045 265.128C599.573 265.128 600.051 265.343 600.385 265.683L600.391 265.69C600.731 266.03 600.944 266.516 600.944 267.046C600.944 267.576 600.724 268.055 600.391 268.402Z" fill="#1467DB"/>
<path fill-rule="evenodd" clip-rule="evenodd" d="M606.373 232.305L606.367 232.311C605.738 231.668 604.851 231.271 603.882 231.271C602.92 231.271 602.039 231.668 601.41 232.305L601.404 232.311C600.775 232.942 600.372 233.832 600.372 234.803C600.372 235.768 600.768 236.652 601.404 237.295C601.838 237.718 602.372 238.04 602.976 238.204V260.189H604.587V238.254C605.278 238.115 605.895 237.768 606.379 237.289C607.008 236.658 607.411 235.768 607.411 234.797C607.411 233.825 607.008 232.949 606.373 232.305ZM605.234 236.153C604.888 236.5 604.41 236.715 603.882 236.715C603.36 236.715 602.876 236.5 602.53 236.153C602.19 235.813 601.976 235.339 601.976 234.81C601.976 234.273 602.19 233.794 602.53 233.453V233.447C602.876 233.106 603.354 232.892 603.882 232.892C604.41 232.892 604.895 233.106 605.234 233.447V233.453C605.58 233.794 605.794 234.28 605.794 234.81C605.794 235.339 605.58 235.813 605.234 236.153Z" fill="#1467DB"/>
<path fill-rule="evenodd" clip-rule="evenodd" d="M44.0381 241.465H38.3455C36.6974 241.465 35.3513 242.815 35.3513 244.468C35.3513 246.121 36.6974 247.471 38.3455 247.471H44.0381C45.6862 247.471 47.0323 246.121 47.0323 244.468C47.026 242.815 45.6799 241.465 44.0381 241.465Z" fill="#4298FF"/>
<path fill-rule="evenodd" clip-rule="evenodd" d="M51.209 251.622H31.1746C29.5265 251.622 28.1804 252.972 28.1804 254.624C28.1804 256.277 29.5265 257.627 31.1746 257.627H51.209C52.857 257.627 54.2031 256.277 54.2031 254.624C54.1969 252.972 52.857 251.622 51.209 251.622Z" fill="#4298FF"/>
<path fill-rule="evenodd" clip-rule="evenodd" d="M44.6986 261.785H37.6787C36.0307 261.785 34.6846 263.135 34.6846 264.788C34.6846 266.44 36.0307 267.79 37.6787 267.79H44.7049C46.353 267.79 47.6991 266.44 47.6991 264.788C47.6928 263.135 46.3467 261.785 44.6986 261.785Z" fill="#4298FF"/>
<path fill-rule="evenodd" clip-rule="evenodd" d="M562.712 107.895H557.02C555.372 107.895 554.025 109.245 554.025 110.897C554.025 112.55 555.372 113.9 557.02 113.9H562.712C564.36 113.9 565.706 112.55 565.706 110.897C565.706 109.245 564.36 107.895 562.712 107.895Z" fill="#4298FF"/>
<path fill-rule="evenodd" clip-rule="evenodd" d="M569.883 118.051H549.849C548.201 118.051 546.854 119.401 546.854 121.054C546.854 122.707 548.201 124.057 549.849 124.057H569.883C571.531 124.057 572.877 122.707 572.877 121.054C572.877 119.408 571.531 118.051 569.883 118.051Z" fill="#4298FF"/>
<path fill-rule="evenodd" clip-rule="evenodd" d="M563.379 128.214H556.353C554.705 128.214 553.359 129.564 553.359 131.217C553.359 132.87 554.705 134.22 556.353 134.22H563.379C565.027 134.22 566.373 132.87 566.373 131.217C566.373 129.564 565.021 128.214 563.379 128.214Z" fill="#4298FF"/>
<path d="M81.5278 104.191V59.3882C81.5278 49.345 89.6485 41.207 99.6563 41.207H559.655C569.669 41.207 577.784 49.3513 577.784 59.3882V84.9882V104.198H81.5278V104.191Z" fill="#1769BC"/>
<path d="M82.0122 84.9882C81.6977 87.1016 81.5278 89.2654 81.5278 91.4734V362.506C81.5278 372.335 89.4724 380.303 99.2726 380.303H534.702C558.498 380.303 577.79 360.955 577.79 337.089V91.4671C577.79 89.2654 577.627 87.1016 577.306 84.9819H82.0122V84.9882Z" fill="#2E8DFF"/>
<path d="M528.141 93.9466H371.766C351.593 93.9466 335.238 77.5445 335.238 57.313V43.1819C335.238 25.2973 349.693 10.8003 367.526 10.8003H532.387C550.22 10.8003 564.675 25.2973 564.675 43.1819V57.313C564.668 77.5445 548.314 93.9466 528.141 93.9466Z" fill="#0024A5"/>
<path d="M353.946 247.363L338.063 251.565C342.107 268.131 357.009 280.426 374.773 280.426V263.961C364.626 263.961 356.128 256.87 353.946 247.363Z" fill="#F7931A"/>
<path d="M396.153 242.518C396.153 254.359 386.579 263.961 374.772 263.961V280.426C395.643 280.426 412.564 263.456 412.564 242.525C412.564 233.276 409.262 224.804 403.777 218.224L391.473 229.144C394.404 232.803 396.153 237.459 396.153 242.518Z" fill="#1769BC"/>
<path d="M338.063 251.565L353.945 247.363C353.587 245.805 353.398 244.19 353.398 242.525C353.398 230.684 362.972 221.082 374.779 221.082C381.541 221.082 387.56 224.23 391.479 229.138L403.783 218.218C396.851 209.903 386.428 204.617 374.779 204.617C353.908 204.617 336.987 221.587 336.987 242.518C336.981 245.635 337.358 248.663 338.063 251.565Z" fill="white"/>
<path d="M395.021 337.14L410.721 341.973C415.999 325.76 409.803 307.433 394.706 298.034L386.051 312.02C394.668 317.382 398.159 327.898 395.021 337.14Z" fill="#F7931A"/>
<path d="M356.613 318.921C362.84 308.859 376.018 305.768 386.051 312.013L394.706 298.027C376.974 286.987 353.675 292.457 342.661 310.241C337.798 318.095 336.15 327.04 337.346 335.538L353.543 332.768C352.989 328.106 353.946 323.224 356.613 318.921Z" fill="#1769BC"/>
<path d="M410.721 341.966L395.021 337.134C394.505 338.648 393.813 340.124 392.939 341.537C386.711 351.599 373.533 354.691 363.5 348.445C357.757 344.868 354.291 339.008 353.549 332.762L337.352 335.532C338.868 346.262 344.938 356.268 354.839 362.431C372.571 373.471 395.87 368.008 406.884 350.218C408.52 347.575 409.797 344.805 410.721 341.966Z" fill="white"/>
<path opacity="0.69" d="M526.745 85.1842H365.941C346.988 85.1842 331.628 69.7788 331.628 50.7712V38.0722C331.628 19.0646 346.988 3.65918 365.941 3.65918H526.745C545.697 3.65918 561.058 19.0646 561.058 38.0722V50.7712C561.058 69.7788 545.697 85.1842 526.745 85.1842Z" fill="url(#paint0_linear_1028_5074)"/>
<g opacity="0.72">
<path d="M537.847 74.6171H346.869C346.114 74.6171 345.504 74.0052 345.504 73.2482V14.5789C345.504 13.8219 346.114 13.21 346.869 13.21C347.624 13.21 348.234 13.8219 348.234 14.5789V71.8792H537.847C538.602 71.8792 539.212 72.4911 539.212 73.2482C539.212 74.0052 538.602 74.6171 537.847 74.6171Z" fill="white"/>
</g>
<g opacity="0.72">
<path d="M444.802 59.1549C431.693 59.1549 423.887 49.6795 416.905 41.1945C408.488 30.9747 401.84 22.8998 388.429 33.9776C360.846 56.7766 346.794 50.405 346.209 50.1211C345.655 49.8561 345.422 49.1811 345.687 48.626C345.951 48.0708 346.617 47.8374 347.171 48.1024C347.202 48.1213 350.524 49.6164 357.028 48.443C363.092 47.3454 373.219 43.6486 387.007 32.2554C402.135 19.7519 410.143 29.4796 418.622 39.7751C426.164 48.9351 434.719 59.3189 450.06 56.4044C464.05 53.7485 471.969 46.5883 479.625 39.6679C484.801 34.9933 490.148 30.1546 497.237 26.8679C505.169 23.19 514.51 21.8842 525.782 22.862C526.399 22.9188 526.852 23.4613 526.795 24.0732C526.745 24.6914 526.204 25.1394 525.587 25.0889C501.408 22.9755 491.551 31.8895 481.115 41.327C473.234 48.4557 465.075 55.824 450.469 58.5998C448.482 58.9783 446.595 59.1549 444.802 59.1549Z" fill="white"/>
</g>
<path d="M530.431 191.584H368.174C349.624 191.584 334.584 176.5 334.584 157.896V147.146C334.584 128.543 349.624 113.459 368.174 113.459H530.431C548.981 113.459 564.021 128.543 564.021 147.146V157.896C564.014 176.5 548.981 191.584 530.431 191.584Z" fill="#0024A5"/>
<path opacity="0.69" d="M526.6 183.603H364.35C345.8 183.603 330.76 168.52 330.76 149.916V139.166C330.76 120.562 345.8 105.479 364.35 105.479H526.606C545.156 105.479 560.196 120.562 560.196 139.166V149.916C560.19 168.52 545.15 183.603 526.6 183.603Z" fill="url(#paint1_linear_1028_5074)"/>
<path opacity="0.72" d="M361.576 156.136H353.776V175.143H361.576V156.136Z" fill="white"/>
<path opacity="0.72" d="M386.661 163.044H378.861V175.15H386.661V163.044Z" fill="white"/>
<path opacity="0.72" d="M411.747 155.291H403.947V175.143H411.747V155.291Z" fill="white"/>
<path opacity="0.72" d="M436.832 144.541H429.032V175.144H436.832V144.541Z" fill="white"/>
<path opacity="0.72" d="M461.918 133.589H454.118V175.15H461.918V133.589Z" fill="white"/>
<path opacity="0.72" d="M487.003 140.213H479.203V175.15H487.003V140.213Z" fill="white"/>
<path opacity="0.72" d="M512.088 131.753H504.289V175.143H512.088V131.753Z" fill="white"/>
<path opacity="0.72" d="M537.174 120.196H529.374V175.144H537.174V120.196Z" fill="white"/>
<path d="M524.103 402.212C577.894 402.212 621.501 358.479 621.501 304.531C621.501 250.583 577.894 206.85 524.103 206.85C470.311 206.85 426.705 250.583 426.705 304.531C426.705 358.479 470.311 402.212 524.103 402.212Z" fill="#8ADEFF"/>
<path d="M524.103 380.252C565.801 380.252 599.605 346.351 599.605 304.531C599.605 262.712 565.801 228.81 524.103 228.81C482.404 228.81 448.601 262.712 448.601 304.531C448.601 346.351 482.404 380.252 524.103 380.252Z" fill="#1769BC"/>
<path d="M524.103 358.292C553.708 358.292 577.708 334.223 577.708 304.531C577.708 274.84 553.708 250.77 524.103 250.77C494.497 250.77 470.497 274.84 470.497 304.531C470.497 334.223 494.497 358.292 524.103 358.292Z" fill="#8ADEFF"/>
<path d="M524.103 336.333C541.615 336.333 555.812 322.095 555.812 304.531C555.812 286.968 541.615 272.73 524.103 272.73C506.59 272.73 492.394 286.968 492.394 304.531C492.394 322.095 506.59 336.333 524.103 336.333Z" fill="#1769BC"/>
<path d="M524.103 314.373C529.522 314.373 533.916 309.966 533.916 304.531C533.916 299.096 529.522 294.69 524.103 294.69C518.683 294.69 514.29 299.096 514.29 304.531C514.29 309.966 518.683 314.373 524.103 314.373Z" fill="#F7931A"/>
<path d="M550.603 383.009C550.088 383.009 549.628 382.694 549.433 382.215L539.539 357.447C539.539 357.447 524.719 357.971 524.707 357.971C524.379 357.971 524.065 357.845 523.832 357.618C523.587 357.378 523.448 357.05 523.448 356.709V302.191C523.448 301.655 523.782 301.182 524.285 301.005C524.423 300.954 524.568 300.929 524.707 300.929C525.078 300.929 525.436 301.093 525.682 301.396L569.971 355.914C570.279 356.293 570.342 356.81 570.135 357.252C569.927 357.693 569.487 357.971 568.996 357.971H552.522L562.656 381.237C562.825 381.628 562.788 382.076 562.555 382.435C562.322 382.789 561.926 383.003 561.504 383.003H550.603V383.009Z" fill="white"/>
<path d="M524.713 302.191L569.002 356.715H550.604L561.504 381.748H550.604L540.382 356.154L524.707 356.709V302.191M524.713 299.667C524.43 299.667 524.147 299.718 523.87 299.813C522.87 300.172 522.197 301.125 522.197 302.191V356.715C522.197 357.403 522.474 358.053 522.964 358.532C523.436 358.987 524.059 359.239 524.713 359.239C524.744 359.239 524.769 359.239 524.801 359.239L538.709 358.747L548.27 382.694C548.654 383.653 549.578 384.277 550.604 384.277H561.504C562.354 384.277 563.146 383.848 563.612 383.136C564.077 382.423 564.153 381.527 563.813 380.745L554.447 359.245H569.002C569.971 359.245 570.858 358.684 571.273 357.807C571.688 356.93 571.563 355.883 570.952 355.132L526.663 300.607C526.172 299.996 525.455 299.667 524.713 299.667Z" fill="#2E8DFF"/>
<path d="M75.6841 391.116L86.648 402.137L86.7046 402.2C90.7178 406.584 96.4733 409.341 102.883 409.341H259.535C276.758 409.341 290.716 395.342 290.716 378.07V37.4914C290.716 31.3847 288.238 25.8585 284.231 21.8778L283.916 21.5687L273.059 10.6802L273.116 15.9226C271.713 15.6387 270.266 15.4936 268.782 15.4936H102.883C96.8759 15.4936 91.4286 17.9097 87.4657 21.8336C85.673 23.619 84.1822 25.6945 83.0877 28.0034C81.7227 30.8738 80.949 34.0911 80.949 37.4851V387.343C80.949 388.22 80.9993 389.078 81.1 389.923L75.6841 391.116Z" fill="#2B333F"/>
<path d="M70.0608 26.565V376.417C70.0608 388.567 79.8799 398.414 91.9949 398.414H257.894C262.297 398.414 266.385 397.115 269.82 394.875L275.167 389.961C275.173 389.961 275.173 389.961 275.173 389.955H266.87C266.939 389.248 266.97 388.529 266.97 387.804V37.9456C266.97 25.7954 257.151 15.9478 245.036 15.9478H79.1502C76.7222 15.9478 74.3822 16.3452 72.1932 17.077C70.8282 19.9537 70.0608 23.1647 70.0608 26.565Z" fill="#2A313D"/>
<path d="M70.0608 26.5652V376.417C70.0608 388.567 79.8799 398.415 91.9949 398.415H257.894C262.297 398.415 266.385 397.115 269.82 394.876C271.864 393.545 273.682 391.885 275.167 389.961C275.173 389.961 275.173 389.961 275.173 389.955C278.085 386.227 279.821 381.527 279.821 376.423V26.5652C279.821 14.415 270.002 4.56738 257.887 4.56738H91.9886C85.9814 4.56738 80.534 6.98355 76.5712 10.9074C74.7785 12.6928 73.2877 14.7683 72.1932 17.0772C70.8282 19.9539 70.0608 23.1649 70.0608 26.5652Z" fill="#373F51"/>
<path d="M258.164 391.948H90.265C82.767 391.948 76.6843 385.848 76.6843 378.328V25.5557C76.6843 17.342 83.3268 10.6802 91.5167 10.6802H258.372C266.562 10.6802 273.204 17.342 273.204 25.5557V376.865C273.204 385.198 266.467 391.948 258.164 391.948Z" fill="#101316"/>
<path d="M216.85 27.4673H215.472V29.0318H216.85V27.4673Z" fill="#A3E5FF"/>
<path d="M219.303 26.1426H217.925V29.0319H219.303V26.1426Z" fill="#A3E5FF"/>
<path d="M221.756 24.4458H220.379V29.0258H221.756V24.4458Z" fill="#A3E5FF"/>
<path d="M224.209 23.0957H222.832V29.032H224.209V23.0957Z" fill="#A3E5FF"/>
<path d="M226.662 21.9224H225.285V29.0258H226.662V21.9224Z" fill="#A3E5FF"/>
<path d="M229.116 20.7173H227.738V29.0319H229.116V20.7173Z" fill="#A3E5FF"/>
<path d="M244.609 25.6127C244.432 25.6127 244.269 25.5118 244.193 25.3351C243.929 24.7106 243.552 24.1491 243.074 23.6697C242.596 23.1902 242.036 22.8117 241.413 22.5468C240.124 21.9979 238.633 21.9979 237.343 22.5468C236.721 22.8117 236.161 23.1902 235.683 23.6697C235.205 24.1491 234.827 24.7106 234.563 25.3351C234.469 25.5622 234.205 25.6695 233.972 25.5749C233.745 25.4802 233.638 25.2153 233.733 24.9819C234.041 24.2501 234.481 23.594 235.047 23.0325C235.607 22.4711 236.261 22.0232 236.991 21.714C238.501 21.0706 240.249 21.0706 241.759 21.714C242.489 22.0232 243.143 22.4648 243.703 23.0325C244.263 23.594 244.709 24.2501 245.017 24.9819C245.112 25.209 245.005 25.4739 244.778 25.5749C244.722 25.6001 244.665 25.6127 244.609 25.6127Z" fill="#A3E5FF"/>
<path d="M242.797 26.3825C242.621 26.3825 242.457 26.2816 242.382 26.1049C242.218 25.7138 241.979 25.3668 241.684 25.064C241.382 24.7612 241.036 24.5278 240.646 24.3638C239.841 24.0231 238.91 24.0231 238.105 24.3638C237.715 24.5278 237.369 24.7612 237.067 25.064C236.765 25.3668 236.532 25.7138 236.369 26.1049C236.274 26.332 236.01 26.4393 235.777 26.3447C235.551 26.25 235.444 25.9851 235.538 25.7517C235.746 25.2533 236.048 24.8117 236.431 24.4269C236.815 24.042 237.255 23.7455 237.752 23.5311C238.778 23.0958 239.967 23.0958 240.992 23.5311C241.489 23.7392 241.929 24.042 242.313 24.4269C242.697 24.8117 242.992 25.2533 243.206 25.7517C243.3 25.9788 243.193 26.2437 242.967 26.3447C242.917 26.3699 242.854 26.3825 242.797 26.3825Z" fill="#A3E5FF"/>
<path d="M237.809 27.1647C237.752 27.1647 237.689 27.152 237.633 27.1268C237.406 27.0322 237.299 26.7672 237.394 26.5338C237.501 26.2752 237.658 26.0481 237.853 25.8462C238.048 25.6506 238.281 25.4929 238.539 25.3857C239.067 25.1586 239.683 25.1586 240.212 25.3857C240.47 25.4929 240.696 25.6506 240.897 25.8462C241.092 26.0417 241.25 26.2752 241.357 26.5338C241.451 26.7609 241.344 27.0259 241.118 27.1268C240.891 27.2214 240.627 27.1142 240.526 26.8871C240.463 26.7357 240.375 26.6032 240.256 26.4897C240.143 26.3761 240.004 26.2815 239.859 26.2184C239.551 26.0859 239.193 26.0859 238.884 26.2184C238.733 26.2815 238.601 26.3698 238.488 26.4897C238.375 26.6032 238.281 26.742 238.218 26.8871C238.155 27.0637 237.985 27.1647 237.809 27.1647Z" fill="#A3E5FF"/>
<path d="M240.067 27.8899C240.067 28.2684 239.759 28.5775 239.381 28.5775C239.004 28.5775 238.696 28.2684 238.696 27.8899C238.696 27.5114 239.004 27.2022 239.381 27.2022C239.759 27.1959 240.067 27.5051 240.067 27.8899Z" fill="#A3E5FF"/>
<path d="M263.819 24.1363H262.391V22.6475H249.1V28.3062H262.391V26.6471H263.819V24.1363Z" fill="#A3E5FF"/>
<path d="M88.6107 28.5903C88.8372 28.6155 89.0951 28.5903 89.4473 28.5524C90.0512 28.4704 90.6173 28.2181 91.0513 27.808C91.5608 27.3475 91.9257 26.6725 92.0641 25.7578H92.0263C91.5986 26.2814 90.9884 26.5842 90.221 26.5842C88.8372 26.5842 87.9565 25.5433 87.9565 24.2311C87.9565 22.7738 89.007 21.4995 90.5796 21.4995C92.1521 21.4995 93.1145 22.7801 93.1145 24.7421C93.1145 26.4328 92.5484 27.6188 91.7936 28.3506C91.2023 28.9309 90.3909 29.2842 89.5606 29.3789C89.1831 29.4356 88.8498 29.4482 88.6044 29.4356V28.5903H88.6107ZM88.9881 24.1617C88.9881 25.1206 89.5668 25.7956 90.4664 25.7956C91.1646 25.7956 91.7055 25.455 91.976 24.9881C92.0326 24.8935 92.0704 24.7736 92.0704 24.6096C92.0704 23.2974 91.586 22.2881 90.4978 22.2881C89.6172 22.2944 88.9881 23.0766 88.9881 24.1617Z" fill="#A3E5FF"/>
<path d="M94.1523 24.5403C94.1523 24.105 94.448 23.7959 94.8631 23.7959C95.2783 23.7959 95.5488 24.105 95.5614 24.5403C95.5614 24.9567 95.2909 25.2721 94.8506 25.2721C94.4354 25.2784 94.1523 24.9567 94.1523 24.5403ZM94.1523 28.7229C94.1523 28.2876 94.448 27.9784 94.8631 27.9784C95.2783 27.9784 95.5488 28.2876 95.5614 28.7229C95.5614 29.1392 95.2909 29.4546 94.8506 29.4546C94.4354 29.4546 94.1523 29.1329 94.1523 28.7229Z" fill="#A3E5FF"/>
<path d="M101.606 25.3919C101.606 28.0099 100.638 29.4546 98.9393 29.4546C97.4422 29.4546 96.4232 28.0478 96.4043 25.4991C96.4043 22.9189 97.5114 21.4995 99.0714 21.4995C100.688 21.4995 101.606 22.9442 101.606 25.3919ZM97.4422 25.5117C97.4422 27.5115 98.0586 28.6471 99.0022 28.6471C100.065 28.6471 100.575 27.4043 100.575 25.4423C100.575 23.5498 100.09 22.307 99.0148 22.307C98.1027 22.307 97.4422 23.4173 97.4422 25.5117Z" fill="#A3E5FF"/>
<path d="M107.664 25.3919C107.664 28.0099 106.695 29.4546 104.997 29.4546C103.5 29.4546 102.481 28.0478 102.462 25.4991C102.462 22.9189 103.569 21.4995 105.129 21.4995C106.746 21.4995 107.664 22.9442 107.664 25.3919ZM103.5 25.5117C103.5 27.5115 104.116 28.6471 105.06 28.6471C106.123 28.6471 106.632 27.4043 106.632 25.4423C106.632 23.5498 106.148 22.307 105.072 22.307C104.16 22.307 103.5 23.4173 103.5 25.5117Z" fill="#A3E5FF"/>
<path d="M154.941 26.1931H185.99C188.927 26.1931 191.311 23.8021 191.311 20.8561C191.311 17.91 188.927 15.519 185.99 15.519H154.941C152.004 15.519 149.62 17.91 149.62 20.8561C149.62 23.8021 152.004 26.1931 154.941 26.1931Z" fill="#373F51"/>
<path d="M300.938 61.6279H132.114V124.145H300.938V61.6279Z" fill="#2E8DFF"/>
<path d="M300.938 124.139L308.643 131.873V69.3559L300.938 61.6279" fill="#1769BC"/>
<path d="M308.643 131.873H139.826L132.114 124.139H300.938L308.643 131.873Z" fill="#0F5996"/>
<path d="M209.144 156.218H40.3206V249.016H209.144V156.218Z" fill="#2E8DFF"/>
<path d="M209.144 249.016L216.856 256.75V163.952L209.144 156.218" fill="#1769BC"/>
<path d="M216.856 256.75H48.0324L40.3206 249.016H209.144L216.856 256.75Z" fill="#0F5996"/>
<path d="M132.114 124.139C179.203 123.881 253.289 123.71 300.925 123.685L300.472 124.139V61.6217L300.925 62.0759L216.516 61.956C195.507 61.9245 153.123 61.7289 132.108 61.6217C153.174 61.5144 195.457 61.3252 216.516 61.2873L300.925 61.1675C301.177 61.1675 301.378 61.3694 301.378 61.6217V124.139C301.378 124.391 301.177 124.593 300.925 124.593C253.1 124.492 179.404 124.473 132.114 124.139Z" fill="#64B0ED"/>
<path d="M301.259 61.2935L308.643 69.3621L300.592 61.9622L301.259 61.2935Z" fill="#64B0ED"/>
<path d="M301.259 123.805L308.643 131.88L300.592 124.473L301.259 123.805Z" fill="#64B0ED"/>
<path d="M40.3206 249.016C87.4093 248.777 161.496 248.632 209.132 248.581L208.698 249.016V156.218L209.138 156.66C161.313 156.647 87.6169 156.458 40.3268 156.218C61.3929 156.111 103.676 155.928 124.736 155.922L209.144 155.783C209.383 155.783 209.585 155.978 209.585 156.218V249.016C209.585 249.256 209.39 249.452 209.151 249.452C161.307 249.288 87.6106 249.363 40.3206 249.016Z" fill="#64B0ED"/>
<path d="M209.472 155.884L216.856 163.958L208.805 156.552C208.333 156.117 209.031 155.41 209.472 155.884Z" fill="#64B0ED"/>
<path d="M209.472 248.682L216.856 256.757L208.805 249.35C208.333 248.909 209.031 248.209 209.472 248.682Z" fill="#64B0ED"/>
<path d="M287.716 93.4609H201.369C200.678 93.4609 200.118 94.0224 200.118 94.7163C200.118 95.4103 200.678 95.9717 201.369 95.9717H287.716C288.407 95.9717 288.967 95.4103 288.967 94.7163C288.961 94.0224 288.401 93.4609 287.716 93.4609Z" fill="#8ADEFF"/>
<path d="M287.716 85.8843H201.369C200.678 85.8843 200.118 86.4457 200.118 87.1397C200.118 87.8336 200.678 88.3951 201.369 88.3951H287.716C288.407 88.3951 288.967 87.8336 288.967 87.1397C288.961 86.4457 288.401 85.8843 287.716 85.8843Z" fill="#8ADEFF"/>
<path d="M287.716 78.3076H201.369C200.678 78.3076 200.118 78.8691 200.118 79.563C200.118 80.257 200.678 80.8184 201.369 80.8184H287.716C288.407 80.8184 288.967 80.257 288.967 79.563C288.961 78.8691 288.401 78.3076 287.716 78.3076Z" fill="#8ADEFF"/>
<path d="M249.584 101.801H201.369C200.678 101.801 200.118 102.362 200.118 103.056C200.118 103.75 200.678 104.312 201.369 104.312H249.584C250.276 104.312 250.836 103.75 250.836 103.056C250.836 102.362 250.276 101.801 249.584 101.801Z" fill="#8ADEFF"/>
<path d="M197.142 168.141H52.165V236.822H197.142V168.141Z" fill="#8ADEFF"/>
<path d="M300.938 284.042H132.114V356.653H300.938V284.042Z" fill="#2E8DFF"/>
<path d="M300.938 356.653L308.643 364.387V291.776L300.938 284.042" fill="#1769BC"/>
<path d="M308.643 364.387H139.826L132.114 356.652H300.938L308.643 364.387Z" fill="#0F5996"/>
<path d="M132.114 356.652C179.196 356.444 253.295 356.286 300.925 356.249L300.523 356.652L300.472 320.347C300.435 311.307 300.485 293.081 300.491 284.041L300.931 284.483L216.523 284.344C195.52 284.338 153.123 284.167 132.114 284.048C153.186 283.934 195.463 283.757 216.523 283.751L300.931 283.612C301.171 283.612 301.372 283.808 301.372 284.054C301.372 293.107 301.416 311.307 301.384 320.359L301.334 356.665C301.334 356.886 301.152 357.069 300.931 357.069C253.113 356.924 179.391 356.955 132.114 356.652Z" fill="#64B0ED"/>
<path d="M301.259 283.707L308.643 291.782L300.592 284.376L301.259 283.707Z" fill="#64B0ED"/>
<path d="M301.259 356.318L308.643 364.393L300.592 356.987L301.259 356.318Z" fill="#64B0ED"/>
<path d="M286.307 307.989H217.844C216.378 307.989 215.189 306.796 215.189 305.326V305.2C215.189 303.73 216.378 302.538 217.844 302.538H286.313C287.779 302.538 288.967 303.73 288.967 305.2V305.326C288.961 306.796 287.772 307.989 286.307 307.989Z" fill="#8ADEFF"/>
<path d="M286.307 322.675H217.844C216.378 322.675 215.189 321.482 215.189 320.012V319.886C215.189 318.416 216.378 317.224 217.844 317.224H286.313C287.779 317.224 288.967 318.416 288.967 319.886V320.012C288.961 321.482 287.772 322.675 286.307 322.675Z" fill="#8ADEFF"/>
<path d="M256.113 337.758H217.837C216.372 337.758 215.183 336.566 215.183 335.096V334.97C215.183 333.5 216.372 332.308 217.837 332.308H256.113C257.579 332.308 258.768 333.5 258.768 334.97V335.096C258.768 336.566 257.579 337.758 256.113 337.758Z" fill="#8ADEFF"/>
<path d="M196.318 299.238H158.898C157.237 299.238 155.891 300.588 155.891 302.254V325.444C155.891 327.109 157.237 328.466 158.898 328.466H186.147L188.896 331.222L192.211 334.547V328.466H196.306C197.967 328.466 199.313 327.109 199.313 325.444V302.254C199.325 300.588 197.979 299.238 196.318 299.238ZM168.604 316.896C166.949 316.896 165.61 315.552 165.61 313.887C165.61 312.228 166.943 310.884 168.604 310.884C170.258 310.884 171.598 312.228 171.598 313.887C171.598 315.546 170.252 316.896 168.604 316.896ZM177.611 316.896C175.957 316.896 174.617 315.552 174.617 313.887C174.617 312.228 175.957 310.884 177.611 310.884C179.266 310.884 180.605 312.228 180.605 313.887C180.599 315.546 179.259 316.896 177.611 316.896ZM188.902 315.823C188.355 316.479 187.531 316.896 186.613 316.896C184.958 316.896 183.618 315.552 183.618 313.887C183.618 312.228 184.958 310.884 186.613 310.884C187.531 310.884 188.355 311.3 188.902 311.956C189.343 312.48 189.607 313.155 189.607 313.887C189.607 314.625 189.343 315.3 188.902 315.823Z" fill="white"/>
<path d="M185.38 330.327L188.902 333.853V334.85C188.902 336.516 187.556 337.872 185.895 337.872H158.646L152.576 343.953V337.872H148.481C146.82 337.872 145.474 336.516 145.474 334.85V311.66C145.474 309.995 146.82 308.645 148.481 308.645H154.042V325.444C154.042 328.138 156.224 330.327 158.904 330.327H185.38Z" fill="white"/>
<path d="M144.38 111.869H188.657C189.783 111.869 190.695 110.954 190.695 109.825V74.4785C190.695 73.3493 189.783 72.4346 188.657 72.4346H144.38C143.254 72.4346 142.342 73.3493 142.342 74.4785V109.825C142.342 110.954 143.254 111.869 144.38 111.869Z" fill="#0F5996"/>
<path d="M118.508 193.237L121.295 207.336L106.582 204.725L103.789 190.625L118.508 193.237Z" fill="#2E8DFF"/>
<path d="M118.502 193.243L103.789 190.618L116.388 182.556L131.101 185.18L118.502 193.243Z" fill="#00B7FF"/>
<path d="M131.095 185.187L133.888 199.287L121.295 207.336L118.508 193.237L131.095 185.187Z" fill="#1769BC"/>
<path d="M115.193 176.506L117.986 190.606L103.273 187.994L100.48 173.895L115.193 176.506Z" fill="#2E8DFF"/>
<path d="M115.193 176.512L100.48 173.888L113.074 165.826L127.786 168.45L115.193 176.512Z" fill="#00B7FF"/>
<path d="M127.78 168.457L130.573 182.556L117.986 190.606L115.193 176.506L127.78 168.457Z" fill="#1769BC"/>
<path d="M109.802 149.279L112.595 163.378L97.8825 160.76L95.0896 146.661L109.802 149.279Z" fill="#2E8DFF"/>
<path d="M109.802 149.278L95.0896 146.66L107.683 138.598L122.396 141.222L109.802 149.278Z" fill="#F7F7F7"/>
<path d="M122.389 141.229L125.182 155.329L112.595 163.378L109.802 149.279L122.389 141.229Z" fill="#1769BC"/>
<path d="M135.649 196.63L138.442 210.729L123.729 208.118L120.936 194.018L135.649 196.63Z" fill="#2E8DFF"/>
<path d="M135.649 196.636L120.936 194.012L133.536 185.95L148.249 188.574L135.649 196.636Z" fill="#00B7FF"/>
<path d="M148.242 188.581L151.035 202.68L138.442 210.73L135.649 196.63L148.242 188.581Z" fill="#1769BC"/>
<path d="M132.34 179.9L135.133 194L120.414 191.388L117.627 177.289L132.34 179.9Z" fill="#2E8DFF"/>
<path d="M132.34 179.906L117.627 177.282L130.221 169.22L144.933 171.844L132.34 179.906Z" fill="#00B7FF"/>
<path d="M144.927 171.851L147.72 185.95L135.133 194L132.34 179.9L144.927 171.851Z" fill="#1769BC"/>
<path d="M129.025 163.17L131.818 177.269L117.105 174.658L114.312 160.558L129.025 163.17Z" fill="#2E8DFF"/>
<path d="M129.025 163.176L114.312 160.558L126.912 152.496L141.625 155.114L129.025 163.176Z" fill="#00B7FF"/>
<path d="M141.618 155.12L144.405 169.22L131.818 177.269L129.025 163.17L141.618 155.12Z" fill="#1769BC"/>
<path d="M152.796 200.024L155.589 214.123L140.876 211.512L138.083 197.412L152.796 200.024Z" fill="#2E8DFF"/>
<path d="M152.796 200.03L138.083 197.406L150.683 189.344L165.389 191.968L152.796 200.03Z" fill="#00B7FF"/>
<path d="M165.389 191.975L168.176 206.074L155.589 214.124L152.796 200.024L165.389 191.975Z" fill="#1769BC"/>
<path d="M160.81 180.298L163.603 194.404L148.884 191.786L146.097 177.686L160.81 180.298Z" fill="#2E8DFF"/>
<path d="M160.804 180.304L146.097 177.686L158.69 169.624L173.403 172.248L160.804 180.304Z" fill="#F7F7F7"/>
<path d="M173.397 172.254L176.19 186.354L163.603 194.404L160.81 180.298L173.397 172.254Z" fill="#1769BC"/>
<path d="M146.173 166.564L148.965 180.67L134.253 178.052L131.46 163.952L146.173 166.564Z" fill="#2E8DFF"/>
<path d="M146.173 166.57L131.46 163.952L144.059 155.89L158.766 158.514L146.173 166.57Z" fill="#F7F7F7"/>
<path d="M158.759 158.521L161.552 172.62L148.965 180.67L146.173 166.564L158.759 158.521Z" fill="#1769BC"/>
<path d="M104.041 203.355L106.827 217.454L92.1144 214.843L89.3215 200.743L104.041 203.355Z" fill="#2E8DFF"/>
<path d="M104.034 203.361L89.3279 200.737L101.921 192.675L116.634 195.299L104.034 203.361Z" fill="#00B7FF"/>
<path d="M116.628 195.306L119.42 209.405L106.827 217.455L104.041 203.355L116.628 195.306Z" fill="#1769BC"/>
<path d="M100.726 186.625L103.518 200.725L88.8056 198.113L86.0127 184.014L100.726 186.625Z" fill="#2E8DFF"/>
<path d="M100.726 186.631L86.0127 184.007L98.612 175.945L113.319 178.569L100.726 186.631Z" fill="#00B7FF"/>
<path d="M113.312 178.576L116.105 192.675L103.518 200.725L100.726 186.625L113.312 178.576Z" fill="#1769BC"/>
<path d="M97.4169 169.895L100.203 183.994L85.4906 181.383L82.6978 167.283L97.4169 169.895Z" fill="#2E8DFF"/>
<path d="M97.4106 169.901L82.6978 167.277L95.2971 159.214L110.01 161.839L97.4106 169.901Z" fill="#F7F7F7"/>
<path d="M110.004 161.845L112.797 175.945L100.204 183.994L97.417 169.895L110.004 161.845Z" fill="#1769BC"/>
<path d="M121.182 206.749L123.974 220.848L109.262 218.237L106.469 204.137L121.182 206.749Z" fill="#2E8DFF"/>
<path d="M121.182 206.755L106.469 204.131L119.068 196.069L133.781 198.693L121.182 206.755Z" fill="#00B7FF"/>
<path d="M133.775 198.7L136.568 212.799L123.975 220.849L121.182 206.749L133.775 198.7Z" fill="#1769BC"/>
<path d="M117.873 190.019L120.666 204.118L105.953 201.507L103.16 187.407L117.873 190.019Z" fill="#2E8DFF"/>
<path d="M117.873 190.025L103.16 187.401L115.753 179.338L130.466 181.963L117.873 190.025Z" fill="#00B7FF"/>
<path d="M130.46 181.969L133.252 196.069L120.666 204.118L117.873 190.019L130.46 181.969Z" fill="#1769BC"/>
<path d="M114.558 173.289L117.351 187.389L102.638 184.777L99.845 170.677L114.558 173.289Z" fill="#2E8DFF"/>
<path d="M114.558 173.295L99.845 170.671L112.444 162.615L127.157 165.233L114.558 173.295Z" fill="#00B7FF"/>
<path d="M127.151 165.239L129.944 179.339L117.351 187.388L114.558 173.289L127.151 165.239Z" fill="#1769BC"/>
<path d="M140.562 221.41L143.355 235.51L128.635 232.898L125.849 218.798L140.562 221.41Z" fill="#2E8DFF"/>
<path d="M140.562 221.417L125.849 218.792L138.442 210.73L153.155 213.354L140.562 221.417Z" fill="#00B7FF"/>
<path d="M153.149 213.361L155.941 227.46L143.355 235.51L140.562 221.411L153.149 213.361Z" fill="#1769BC"/>
<path d="M135.02 193.413L137.813 207.513L123.094 204.901L120.307 190.801L135.02 193.413Z" fill="#2E8DFF"/>
<path d="M135.014 193.419L120.307 190.795L132.9 182.732L147.613 185.357L135.014 193.419Z" fill="#F7F7F7"/>
<path d="M147.607 185.363L150.4 199.463L137.813 207.513L135.02 193.413L147.607 185.363Z" fill="#1769BC"/>
<path d="M131.705 176.683L134.498 190.783L119.785 188.171L116.992 174.071L131.705 176.683Z" fill="#2E8DFF"/>
<path d="M131.705 176.689L116.992 174.071L129.592 166.009L144.298 168.627L131.705 176.689Z" fill="#00B7FF"/>
<path d="M144.298 168.633L147.085 182.733L134.498 190.783L131.705 176.683L144.298 168.633Z" fill="#1769BC"/>
<path d="M89.573 213.474L92.3658 227.573L77.6467 224.961L74.8601 210.862L89.573 213.474Z" fill="#2E8DFF"/>
<path d="M89.5667 213.48L74.8601 210.856L87.4532 202.793L102.166 205.418L89.5667 213.48Z" fill="#00B7FF"/>
<path d="M102.16 205.424L104.953 219.524L92.3659 227.574L89.573 213.474L102.16 205.424Z" fill="#1769BC"/>
<path d="M78.0619 196.605L80.8485 210.704L66.1356 208.093L63.3428 193.993L78.0619 196.605Z" fill="#2E8DFF"/>
<path d="M78.0556 196.611L63.3428 193.987L75.9421 185.925L90.655 188.549L78.0556 196.611Z" fill="#F7F7F7"/>
<path d="M90.6488 188.556L93.4417 202.655L80.8486 210.705L78.062 196.605L90.6488 188.556Z" fill="#1769BC"/>
<path d="M82.9494 180.014L85.736 194.113L71.0231 191.501L68.2302 177.402L82.9494 180.014Z" fill="#2E8DFF"/>
<path d="M82.9432 180.02L68.2366 177.396L80.8296 169.333L95.5425 171.958L82.9432 180.02Z" fill="#00B7FF"/>
<path d="M95.5362 171.964L98.3291 186.064L85.736 194.114L82.9495 180.014L95.5362 171.964Z" fill="#1769BC"/>
<path d="M107.871 222.704L110.664 236.803L95.945 234.191L93.1584 220.092L107.871 222.704Z" fill="#2E8DFF"/>
<path d="M107.871 222.71L93.1584 220.085L105.752 212.029L120.464 214.647L107.871 222.71Z" fill="#F7F7F7"/>
<path d="M120.458 214.654L123.251 228.753L110.664 236.803L107.871 222.703L120.458 214.654Z" fill="#1769BC"/>
<path d="M103.405 200.138L106.198 214.237L91.4853 211.625L88.6924 197.526L103.405 200.138Z" fill="#2E8DFF"/>
<path d="M103.405 200.144L88.6924 197.52L101.285 189.458L115.998 192.082L103.405 200.144Z" fill="#00B7FF"/>
<path d="M115.992 192.088L118.785 206.188L106.198 214.238L103.405 200.138L115.992 192.088Z" fill="#1769BC"/>
<path d="M100.09 183.408L102.883 197.507L88.1703 194.895L85.3774 180.796L100.09 183.408Z" fill="#2E8DFF"/>
<path d="M100.09 183.414L85.3774 180.789L97.9768 172.727L112.69 175.351L100.09 183.414Z" fill="#F7F7F7"/>
<path d="M112.683 175.358L115.476 189.457L102.883 197.507L100.09 183.408L112.683 175.358Z" fill="#1769BC"/>
<path d="M123.861 220.262L126.654 234.362L111.941 231.75L109.148 217.65L123.861 220.262Z" fill="#2E8DFF"/>
<path d="M123.861 220.268L109.148 217.644L121.748 209.582L136.46 212.206L123.861 220.268Z" fill="#F7F7F7"/>
<path d="M136.454 212.212L139.247 226.312L126.654 234.362L123.861 220.262L136.454 212.212Z" fill="#1769BC"/>
<path d="M120.552 203.532L123.345 217.631L108.626 215.019L105.84 200.92L120.552 203.532Z" fill="#2E8DFF"/>
<path d="M120.552 203.538L105.84 200.914L118.433 192.852L133.146 195.476L120.552 203.538Z" fill="#00B7FF"/>
<path d="M133.139 195.482L135.932 209.582L123.345 217.632L120.552 203.532L133.139 195.482Z" fill="#1769BC"/>
<path d="M117.238 186.802L120.03 200.901L105.318 198.289L102.525 184.19L117.238 186.802Z" fill="#2E8DFF"/>
<path d="M117.238 186.808L102.525 184.183L115.124 176.127L129.837 178.745L117.238 186.808Z" fill="#00B7FF"/>
<path d="M129.831 178.752L132.617 192.852L120.03 200.901L117.238 186.802L129.831 178.752Z" fill="#1769BC"/>
<path d="M185.587 96.9242C182.964 107.485 172.296 113.913 161.76 111.282C151.23 108.652 144.82 97.9525 147.45 87.392C150.073 76.8315 160.741 70.4032 171.271 73.0338C181.801 75.6645 188.21 86.3637 185.587 96.9242Z" fill="#F7931A"/>
<path d="M175.183 89.3474C175.573 86.7231 173.586 85.3163 170.862 84.37L171.743 80.8183L169.585 80.2821L168.723 83.7455C168.157 83.6067 167.572 83.4679 166.993 83.3354L167.861 79.8531L165.704 79.3169L164.817 82.8686C164.345 82.7613 163.886 82.6541 163.439 82.5469V82.5342L160.464 81.7898L159.892 84.0988C159.892 84.0988 161.489 84.4646 161.458 84.4899C162.332 84.7107 162.49 85.2911 162.464 85.7453L161.458 89.7953C161.521 89.808 161.596 89.8332 161.684 89.8647C161.615 89.8458 161.533 89.8269 161.458 89.808L160.049 95.4793C159.942 95.7443 159.672 96.148 159.061 95.9903C159.08 96.0219 157.495 95.5992 157.495 95.5992L156.426 98.0784L159.231 98.7787C159.753 98.9112 160.263 99.05 160.772 99.1761L159.879 102.772L162.037 103.308L162.924 99.7502C163.515 99.9079 164.081 100.059 164.641 100.198L163.76 103.737L165.918 104.273L166.811 100.684C170.491 101.384 173.258 101.1 174.422 97.763C175.359 95.0756 174.378 93.5237 172.441 92.5143C173.843 92.1989 174.907 91.2652 175.183 89.3474ZM170.258 96.2805C169.591 98.9679 165.081 97.517 163.622 97.1511L164.804 92.3881C166.264 92.754 170.956 93.4732 170.258 96.2805ZM170.925 89.3096C170.315 91.751 166.566 90.5145 165.345 90.2054L166.421 85.8841C167.635 86.1869 171.56 86.761 170.925 89.3096Z" fill="white"/>
<defs>
<linearGradient id="paint0_linear_1028_5074" x1="331.63" y1="44.4221" x2="561.06" y2="44.4221" gradientUnits="userSpaceOnUse">
<stop stop-color="#81C2D7" stop-opacity="0.69"/>
<stop offset="1" stop-color="#1769E0"/>
</linearGradient>
<linearGradient id="paint1_linear_1028_5074" x1="330.76" y1="144.543" x2="560.19" y2="144.543" gradientUnits="userSpaceOnUse">
<stop offset="0.00446955" stop-color="#A9D9E0" stop-opacity="0.69"/>
<stop offset="1" stop-color="#1769E0"/>
</linearGradient>
</defs>
</svg>
