<svg xmlns="http://www.w3.org/2000/svg" xmlns:xlink="http://www.w3.org/1999/xlink" viewBox="0 0 719.76 717.26"><defs><style>.cls-1{mask:url(#mask);filter:url(#luminosity-noclip-6);}.cls-10,.cls-2,.cls-20,.cls-22,.cls-39,.cls-4,.cls-43,.cls-44,.cls-47,.cls-51,.cls-6,.cls-8{mix-blend-mode:multiply;}.cls-2{fill:url(#radial-gradient);}.cls-3{mask:url(#mask-2);filter:url(#luminosity-noclip-7);}.cls-4{fill:url(#radial-gradient-2);}.cls-5{mask:url(#mask-3);filter:url(#luminosity-noclip-8);}.cls-6{fill:url(#radial-gradient-3);}.cls-7{mask:url(#mask-4);filter:url(#luminosity-noclip-9);}.cls-8{fill:url(#radial-gradient-4);}.cls-9{mask:url(#mask-5);filter:url(#luminosity-noclip-10);}.cls-10{fill:url(#radial-gradient-5);}.cls-11{isolation:isolate;}.cls-12{fill:#0a5796;}.cls-12,.cls-13,.cls-14{fill-rule:evenodd;}.cls-13{fill:#0472cf;}.cls-14{fill:#1467db;}.cls-15{fill:#4298ff;}.cls-16{fill:#8feaff;}.cls-17{fill:#caf3ff;}.cls-18{fill:url(#linear-gradient);}.cls-19{fill:url(#linear-gradient-2);}.cls-20,.cls-22,.cls-43,.cls-47{opacity:0.3;}.cls-20{fill:url(#linear-gradient-3);}.cls-21{fill:url(#linear-gradient-4);}.cls-22{fill:url(#linear-gradient-5);}.cls-23{fill:url(#linear-gradient-6);}.cls-24{fill:url(#linear-gradient-7);}.cls-25,.cls-33{fill:#fff;}.cls-26{fill:none;}.cls-27{fill:#007cff;}.cls-28{opacity:0.2;}.cls-29,.cls-30{fill:url(#linear-gradient-8);}.cls-30{opacity:0.7;}.cls-31,.cls-32{fill:#f7931a;}.cls-32{opacity:0.4;}.cls-33{opacity:0.68;}.cls-34{fill:#2e8dff;}.cls-35{fill:#00b7ff;}.cls-36{fill:#1769bc;}.cls-37{fill:#f7f7f7;}.cls-38{fill:#f4f7fa;mix-blend-mode:soft-light;opacity:0.44;}.cls-39{opacity:0.6;}.cls-40{mask:url(#mask-6);}.cls-41{fill:url(#radial-gradient-6);}.cls-42{mask:url(#mask-7);}.cls-43{fill:url(#radial-gradient-7);}.cls-44{opacity:0.5;}.cls-45{mask:url(#mask-8);}.cls-46{fill:url(#radial-gradient-8);}.cls-48{mask:url(#mask-9);}.cls-49{fill:url(#radial-gradient-9);}.cls-50{mask:url(#mask-10);}.cls-51{opacity:0.8;fill:url(#radial-gradient-10);}.cls-52{filter:url(#luminosity-noclip-5);}.cls-53{filter:url(#luminosity-noclip-4);}.cls-54{filter:url(#luminosity-noclip-3);}.cls-55{filter:url(#luminosity-noclip-2);}.cls-56{filter:url(#luminosity-noclip);}</style><filter id="luminosity-noclip" x="374.54" y="-8550.3" width="263.86" height="32766" filterUnits="userSpaceOnUse" color-interpolation-filters="sRGB"><feFlood flood-color="#fff" result="bg"/><feBlend in="SourceGraphic" in2="bg"/></filter><mask id="mask" x="374.54" y="-8550.3" width="263.86" height="32766" maskUnits="userSpaceOnUse"><g class="cls-56"/></mask><radialGradient id="radial-gradient" cx="506.47" cy="311.61" r="131.93" gradientUnits="userSpaceOnUse"><stop offset="0.34" stop-color="#fff"/><stop offset="0.51" stop-color="#fcfcfc"/><stop offset="0.62" stop-color="#f3f3f3"/><stop offset="0.72" stop-color="#e5e5e5"/><stop offset="0.81" stop-color="#cfcfcf"/><stop offset="0.89" stop-color="#b4b4b4"/><stop offset="0.96" stop-color="#939393"/><stop offset="1" stop-color="gray"/></radialGradient><filter id="luminosity-noclip-2" x="423.18" y="-8550.3" width="192.64" height="32766" filterUnits="userSpaceOnUse" color-interpolation-filters="sRGB"><feFlood flood-color="#fff" result="bg"/><feBlend in="SourceGraphic" in2="bg"/></filter><mask id="mask-2" x="423.18" y="-8550.3" width="192.64" height="32766" maskUnits="userSpaceOnUse"><g class="cls-55"/></mask><radialGradient id="radial-gradient-2" cx="519.5" cy="302.5" r="120.4" gradientUnits="userSpaceOnUse"><stop offset="0.6"/><stop offset="0.62" stop-color="#050505"/><stop offset="0.64" stop-color="#121212"/><stop offset="0.67" stop-color="#292929"/><stop offset="0.7" stop-color="#494949"/><stop offset="0.72" stop-color="#737373"/><stop offset="0.75" stop-color="#a4a4a4"/><stop offset="0.75" stop-color="#a6a6a6"/><stop offset="0.8" stop-color="#a8a8a8"/><stop offset="0.82" stop-color="#afafaf"/><stop offset="0.83" stop-color="#bababa"/><stop offset="0.84" stop-color="#cbcbcb"/><stop offset="0.84" stop-color="#e1e1e1"/><stop offset="0.85" stop-color="#fcfcfc"/><stop offset="0.85" stop-color="#fff"/></radialGradient><filter id="luminosity-noclip-3" x="562.72" y="-8550.3" width="143.1" height="32766" filterUnits="userSpaceOnUse" color-interpolation-filters="sRGB"><feFlood flood-color="#fff" result="bg"/><feBlend in="SourceGraphic" in2="bg"/></filter><mask id="mask-3" x="562.72" y="-8550.3" width="143.1" height="32766" maskUnits="userSpaceOnUse"><g class="cls-54"/></mask><radialGradient id="radial-gradient-3" cx="-746.54" cy="1000.08" r="72.11" gradientTransform="translate(1665 -554.67) rotate(18.94)" xlink:href="#radial-gradient"/><filter id="luminosity-noclip-4" x="635.06" y="-8550.3" width="84.7" height="32766" filterUnits="userSpaceOnUse" color-interpolation-filters="sRGB"><feFlood flood-color="#fff" result="bg"/><feBlend in="SourceGraphic" in2="bg"/></filter><mask id="mask-4" x="635.06" y="-8550.3" width="84.7" height="32766" maskUnits="userSpaceOnUse"><g class="cls-53"/></mask><radialGradient id="radial-gradient-4" cx="677.41" cy="263.9" r="42.35" xlink:href="#radial-gradient"/><filter id="luminosity-noclip-5" x="648.34" y="-8550.3" width="49.4" height="32766" filterUnits="userSpaceOnUse" color-interpolation-filters="sRGB"><feFlood flood-color="#fff" result="bg"/><feBlend in="SourceGraphic" in2="bg"/></filter><mask id="mask-5" x="648.34" y="-8550.3" width="49.4" height="32766" maskUnits="userSpaceOnUse"><g class="cls-52"/></mask><radialGradient id="radial-gradient-5" cx="673.04" cy="262.4" r="30.87" gradientUnits="userSpaceOnUse"><stop offset="0.57"/><stop offset="0.6" stop-color="#040404"/><stop offset="0.63" stop-color="#101010"/><stop offset="0.66" stop-color="#242424"/><stop offset="0.68" stop-color="#3f3f3f"/><stop offset="0.71" stop-color="#636363"/><stop offset="0.74" stop-color="#8f8f8f"/><stop offset="0.77" stop-color="#c2c2c2"/><stop offset="0.79" stop-color="#f2f2f2"/></radialGradient><linearGradient id="linear-gradient" x1="5276.05" y1="729.22" x2="5280.36" y2="694.7" gradientTransform="matrix(-1, 0, 0, 1, 5642.81, 0)" gradientUnits="userSpaceOnUse"><stop offset="0" stop-color="#26264f"/><stop offset="1" stop-color="#444b8c"/></linearGradient><linearGradient id="linear-gradient-2" x1="5258.3" y1="697.76" x2="5301.45" y2="620.08" xlink:href="#linear-gradient"/><linearGradient id="linear-gradient-3" x1="5209.5" y1="660.95" x2="5352.72" y2="660.95" xlink:href="#linear-gradient"/><linearGradient id="linear-gradient-4" x1="5262.41" y1="676.53" x2="5305.02" y2="594.54" xlink:href="#linear-gradient"/><linearGradient id="linear-gradient-5" x1="5203.09" y1="636.81" x2="5359.06" y2="636.81" xlink:href="#linear-gradient"/><linearGradient id="linear-gradient-6" x1="5200.78" y1="608.63" x2="5361.45" y2="608.63" xlink:href="#linear-gradient"/><linearGradient id="linear-gradient-7" x1="5277.12" y1="596.51" x2="5292.94" y2="522.43" xlink:href="#linear-gradient"/><linearGradient id="linear-gradient-8" x1="5496.33" y1="528.23" x2="5637.23" y2="690.03" gradientTransform="matrix(-1, 0, 0, 1, 5642.81, 0)" gradientUnits="userSpaceOnUse"><stop offset="0" stop-color="#444b8c"/><stop offset="1" stop-color="#26264f" stop-opacity="0"/></linearGradient><filter id="luminosity-noclip-6" x="374.54" y="179.68" width="263.86" height="263.87" filterUnits="userSpaceOnUse" color-interpolation-filters="sRGB"><feFlood flood-color="#fff" result="bg"/><feBlend in="SourceGraphic" in2="bg"/></filter><mask id="mask-6" x="374.54" y="179.68" width="263.86" height="263.87" maskUnits="userSpaceOnUse"><g class="cls-1"><path class="cls-2" d="M615,329.55,637.88,323a130.22,130.22,0,0,0-1-31.63l-23.29-5a107.37,107.37,0,0,0-4.11-13.5L626,255.76a133.39,133.39,0,0,0-16.76-26.88l-22.64,7.31a110.68,110.68,0,0,0-10.29-9.66L582,203.47a130.71,130.71,0,0,0-27.95-14.88l-15.94,17.64c-3.31-1-6.7-1.85-10.15-2.54-1.2-.24-2.4-.42-3.58-.62l-6.56-22.88a131.3,131.3,0,0,0-31.64,1l-5,23.3a108.28,108.28,0,0,0-13.49,4.12l-17.1-16.52a132.28,132.28,0,0,0-26.87,16.75l7.31,22.65a109.14,109.14,0,0,0-9.65,10.28L398.33,236a130.51,130.51,0,0,0-14.88,28l17.64,15.94c-1,3.31-1.85,6.69-2.54,10.15-.24,1.2-.43,2.38-.63,3.58L375,300.23a131.85,131.85,0,0,0,1,31.64l23.29,5a109.09,109.09,0,0,0,4.12,13.5L387,367.45a132.12,132.12,0,0,0,16.76,26.88L426.36,387a109.36,109.36,0,0,0,10.29,9.66l-5.76,23.07a131.64,131.64,0,0,0,28,14.87L474.79,417c3.31,1,6.7,1.86,10.16,2.55,1.19.24,2.39.42,3.57.61L495.08,443a131.3,131.3,0,0,0,31.64-1l5-23.3a109,109,0,0,0,13.5-4.11l17.1,16.51a132.87,132.87,0,0,0,26.87-16.76l-7.31-22.63a112.16,112.16,0,0,0,9.66-10.3l23.06,5.76a131,131,0,0,0,14.87-28l-17.63-15.94c1-3.32,1.86-6.69,2.55-10.16C614.62,331.93,614.81,330.75,615,329.55Zm-21.07-4.42A94.14,94.14,0,1,1,520,214.42,94.15,94.15,0,0,1,593.93,325.13Z"/></g></mask><radialGradient id="radial-gradient-6" cx="506.47" cy="311.61" r="131.93" gradientUnits="userSpaceOnUse"><stop offset="0.34" stop-color="#808285"/><stop offset="0.51" stop-color="#838588"/><stop offset="0.62" stop-color="#8c8d90"/><stop offset="0.72" stop-color="#9a9c9e"/><stop offset="0.81" stop-color="#b0b1b3"/><stop offset="0.89" stop-color="#cbcccd"/><stop offset="0.96" stop-color="#eceded"/><stop offset="1" stop-color="#fff"/></radialGradient><filter id="luminosity-noclip-7" x="423.18" y="206.18" width="192.64" height="192.64" filterUnits="userSpaceOnUse" color-interpolation-filters="sRGB"><feFlood flood-color="#fff" result="bg"/><feBlend in="SourceGraphic" in2="bg"/></filter><mask id="mask-7" x="423.18" y="206.18" width="192.64" height="192.64" maskUnits="userSpaceOnUse"><g class="cls-3"><path class="cls-4" d="M423.18,302.5a96.32,96.32,0,1,1,96.32,96.32A96.31,96.31,0,0,1,423.18,302.5Z"/></g></mask><radialGradient id="radial-gradient-7" cx="519.5" cy="302.5" r="120.4" gradientUnits="userSpaceOnUse"><stop offset="0.6" stop-color="#fff"/><stop offset="0.61" stop-color="#fafafa"/><stop offset="0.63" stop-color="#edeced"/><stop offset="0.65" stop-color="#d7d6d6"/><stop offset="0.68" stop-color="#b8b6b6"/><stop offset="0.7" stop-color="#908c8d"/><stop offset="0.72" stop-color="#5f5a5b"/><stop offset="0.75" stop-color="#261f21"/><stop offset="0.75" stop-color="#130c0e"/><stop offset="0.84" stop-color="#130c0e"/><stop offset="0.85" stop-color="#130c0e"/></radialGradient><filter id="luminosity-noclip-8" x="562.72" y="77.41" width="143.1" height="143.11" filterUnits="userSpaceOnUse" color-interpolation-filters="sRGB"><feFlood flood-color="#fff" result="bg"/><feBlend in="SourceGraphic" in2="bg"/></filter><mask id="mask-8" x="562.72" y="77.41" width="143.1" height="143.11" maskUnits="userSpaceOnUse"><g class="cls-5"><path class="cls-6" d="M691.65,192.68l-12.4-18.48c.66-1.17,1.28-2.35,1.83-3.55l22.24-.76a70.16,70.16,0,0,0,2.5-11.76l-20-9.8c0-1.33-.08-2.65-.2-4l18.89-11.78a73.37,73.37,0,0,0-3.68-11.45l-22.21,1.51c-.68-1.14-1.41-2.26-2.18-3.35l10.46-19.64c-1.37-1.45-2.78-2.86-4.29-4.22s-3-2.63-4.64-3.84L659.51,104c-1.16-.65-2.34-1.27-3.54-1.83l-.76-22.25a72.4,72.4,0,0,0-11.76-2.49l-9.81,20c-1.33,0-2.65.09-4,.21L617.88,78.7a72.51,72.51,0,0,0-11.43,3.69l1.49,22.21c-1.14.68-2.24,1.41-3.34,2.18L585,96.32c-1.45,1.37-2.87,2.78-4.23,4.28s-2.62,3.06-3.83,4.65l12.4,18.48c-.65,1.16-1.27,2.34-1.83,3.54l-22.25.76a73.74,73.74,0,0,0-2.5,11.76l20,9.8c0,1.33.08,2.66.2,4L564,165.36a70.77,70.77,0,0,0,3.68,11.43l22.21-1.5c.67,1.14,1.4,2.25,2.18,3.34l-10.47,19.64c1.37,1.45,2.79,2.87,4.29,4.23s3.06,2.62,4.65,3.83L609,193.93c1.17.66,2.34,1.28,3.54,1.83l.77,22.25a73.42,73.42,0,0,0,11.75,2.51l9.81-20c1.33,0,2.66-.1,4-.21l11.79,18.89a72.92,72.92,0,0,0,11.44-3.68l-1.5-22.2c1.13-.69,2.25-1.42,3.34-2.19l19.64,10.45c1.45-1.35,2.88-2.77,4.23-4.27S690.44,194.26,691.65,192.68Zm-34.73-27.47a31.26,31.26,0,1,1-2.25-44.15A31.26,31.26,0,0,1,656.92,165.21Z"/></g></mask><radialGradient id="radial-gradient-8" cx="-746.54" cy="1000.08" r="72.11" gradientTransform="translate(1665 -554.67) rotate(18.94)" xlink:href="#radial-gradient-6"/><filter id="luminosity-noclip-9" x="635.06" y="221.56" width="84.7" height="84.69" filterUnits="userSpaceOnUse" color-interpolation-filters="sRGB"><feFlood flood-color="#fff" result="bg"/><feBlend in="SourceGraphic" in2="bg"/></filter><mask id="mask-9" x="635.06" y="221.56" width="84.7" height="84.69" maskUnits="userSpaceOnUse"><g class="cls-7"><path class="cls-8" d="M707.89,263.21l11.57-6.78a42.43,42.43,0,0,0-2.6-8.89l-13.39.53,6.63-11.66a42.77,42.77,0,0,0-6.7-6.4l-11.35,7.15L692,223.75a45.69,45.69,0,0,0-4.44-1.35,43.36,43.36,0,0,0-4.56-.84l-6.25,11.86L670,221.84a42.79,42.79,0,0,0-8.9,2.61l.52,13.4-11.65-6.64a43.27,43.27,0,0,0-6.41,6.7l7.16,11.35-13.41.08a41.86,41.86,0,0,0-2.2,9l11.87,6.25-11.58,6.78a42.88,42.88,0,0,0,2.61,8.89l13.39-.52-6.63,11.65a42.83,42.83,0,0,0,6.7,6.41l11.35-7.15.08,13.41a42.64,42.64,0,0,0,9,2.19l6.25-11.87L684.87,306a42.37,42.37,0,0,0,8.9-2.61L693.24,290l11.66,6.63a42.25,42.25,0,0,0,6.4-6.69l-7.15-11.35,13.41-.08c.52-1.45,1-2.93,1.35-4.45a46.16,46.16,0,0,0,.85-4.56Zm-9.25,4.66A25.58,25.58,0,1,1,679.85,237,25.6,25.6,0,0,1,698.64,267.87Z"/></g></mask><radialGradient id="radial-gradient-9" cx="677.41" cy="263.9" r="42.35" xlink:href="#radial-gradient-6"/><filter id="luminosity-noclip-10" x="648.34" y="237.7" width="49.4" height="49.4" filterUnits="userSpaceOnUse" color-interpolation-filters="sRGB"><feFlood flood-color="#fff" result="bg"/><feBlend in="SourceGraphic" in2="bg"/></filter><mask id="mask-10" x="648.34" y="237.7" width="49.4" height="49.4" maskUnits="userSpaceOnUse"><g class="cls-9"><path class="cls-10" d="M648.34,262.4A24.7,24.7,0,1,1,673,287.1,24.7,24.7,0,0,1,648.34,262.4Z"/></g></mask><radialGradient id="radial-gradient-10" cx="673.04" cy="262.4" r="30.87" gradientUnits="userSpaceOnUse"><stop offset="0.57" stop-color="#fff"/><stop offset="0.6" stop-color="#fbfbfb"/><stop offset="0.63" stop-color="#f0efef"/><stop offset="0.66" stop-color="#dcdbdc"/><stop offset="0.68" stop-color="#c1c0c0"/><stop offset="0.71" stop-color="#9f9c9d"/><stop offset="0.74" stop-color="#747071"/><stop offset="0.77" stop-color="#433d3f"/><stop offset="0.79" stop-color="#130c0e"/></radialGradient></defs><g class="cls-11"><g id="Layer_1" data-name="Layer 1"><path class="cls-12" d="M353.84,57.71c0-.11,0-.21,0-.32a11.61,11.61,0,0,0-.39-1.88,11.92,11.92,0,0,0-1.49-3.17,14.14,14.14,0,0,0-1.7-2.07l-5-5a12.24,12.24,0,0,0-8.95-3.7H309.05l-9.12-9.13A12.21,12.21,0,0,0,291,28.75H258.79a12.23,12.23,0,0,0-9,3.71l-7.68,7.69h-28a12.16,12.16,0,0,0-8.94,3.7l-.17.17-5.23,5.23a12.69,12.69,0,0,0,0,17.89L205.63,73a12.23,12.23,0,0,0,9,3.71h40.7l12.35,7.13,2.47,1.42,5.65,3.27,3.95,2.27v19.17a12.67,12.67,0,0,0,.13,1.87,12.15,12.15,0,0,0,3.58,7.08l1.89,1.89.59.6a12.54,12.54,0,0,0,2.44,1.9,12.71,12.71,0,0,0,15.46-1.9L323,102.16l3.92-3.9,2.56-2.57,20.76-20.77c.17-.17.34-.35.5-.53a11.88,11.88,0,0,0,2.88-5.48,12.71,12.71,0,0,0,.33-2.93V59.23A12.54,12.54,0,0,0,353.84,57.71ZM261.14,99c.1,1.48.16,3,.16,4.48,0,.72,0,1.43,0,2.14a58.69,58.69,0,0,1-.86,8.23c-.25,1.39-.54,2.78-.88,4.13a59.69,59.69,0,0,1-32.95,39.65q-3.49,5.75-6.51,11.76s0,0,0,0a2.59,2.59,0,0,0,.13,2.57,2.62,2.62,0,0,0,2.28,1.28H229A188.59,188.59,0,0,1,256.64,158l5.47-5.47a12.63,12.63,0,0,0,1.86-2.32,12.12,12.12,0,0,0,1.85-6.64v-34.7a12.57,12.57,0,0,0-.81-4.54A12.2,12.2,0,0,0,261.14,99ZM422.52,62.83a12.79,12.79,0,0,0-1.74-3A12.15,12.15,0,0,0,415.84,56a12.86,12.86,0,0,0-4.31-1l-.69,0H391.71a12.35,12.35,0,0,0-3.36.51,1.2,1.2,0,0,0-.27.08,12.33,12.33,0,0,0-5,3.11l-.83.84a12.6,12.6,0,0,0-3.54,6.62,12.86,12.86,0,0,0-4.05-.63H373.5a12.18,12.18,0,0,0-8.94,3.7l0,0a12.08,12.08,0,0,0-3.2,5.37,6.69,6.69,0,0,0-.2.77,12.92,12.92,0,0,0-.3,2.8v1.14c0,.26,0,.52,0,.78a14.13,14.13,0,0,0,.29,2.07,12.57,12.57,0,0,0,6,8.11,13.94,13.94,0,0,0,1.5.74,13,13,0,0,0,3.64.93l.87,0a12.13,12.13,0,0,0,6.61-1.68,12.32,12.32,0,0,0,1.26-.82c.28-.21.56-.44.84-.68l.57-.55,1.17-1.17a13.57,13.57,0,0,0,1.56-1.87,12.34,12.34,0,0,0,1.82-4,.8.8,0,0,0,0-.21,4.48,4.48,0,0,0,.11-.5l.31.08a12.7,12.7,0,0,0,3.73.54H410a12.27,12.27,0,0,0,6.29-1.64,12.89,12.89,0,0,0,2.58-2l.08-.09.84-.84a12.77,12.77,0,0,0,2.83-4.2,12.43,12.43,0,0,0-.09-9.58Zm167.72,195A12.64,12.64,0,0,0,568.7,250l-.91.91-.07.07-.2.2a12.55,12.55,0,0,0-3.53,6.62,12.87,12.87,0,0,0-4-.64H541.12a12.23,12.23,0,0,0-9,3.71l-.83.83a12.65,12.65,0,0,0,8.94,21.6h18.83a13.23,13.23,0,0,0,3.48-.45,11.91,11.91,0,0,0,2.08-.8c.54-2.89,1-5.79,1.39-8.68v7.87a12.72,12.72,0,0,0,2-1.65l.84-.83a12.64,12.64,0,0,0,3.54-6.62,12.8,12.8,0,0,0,4,.63h1.14a12.21,12.21,0,0,0,8.95-3.71l0,0a12.18,12.18,0,0,0,3.65-7.72c0-.41.06-.82.06-1.24V259A10,10,0,0,0,590.24,257.85ZM276.1,259.08l-17.36-17.37a13.72,13.72,0,0,0-2.39-1.91,12.35,12.35,0,0,0-6.57-1.8H228.12l-4.71-4.71L210.9,220.77V203.72l16.43-16.43,2.46-2.45,9-9,23.34-23.34a12.63,12.63,0,0,0,1.86-2.32,12.12,12.12,0,0,0,1.85-6.64v-34.7a12.57,12.57,0,0,0-.81-4.54,12.2,12.2,0,0,0-3.87-5.3,16.29,16.29,0,0,0-1.64-1.12l-.52-.3-3.45-2-8.22-4.75A12.12,12.12,0,0,0,241,89.17H187.47L159.65,61.34l-10-10-2.44-2.45a12.26,12.26,0,0,0-9-3.7h-27A12.19,12.19,0,0,0,104,47.55L89.62,57.72a12.29,12.29,0,0,0-5.35,10.33V84.43a12.16,12.16,0,0,0,3.66,8.89l0,.05,2.39,2.4,5,5a12.27,12.27,0,0,0,9,3.71h10.32l14.67,14.67V202a12.23,12.23,0,0,0,3.71,9L143.15,221a12.19,12.19,0,0,0,8.95,3.71h20.21L187,239.42V275a12.24,12.24,0,0,0,3.7,8.95l1.56,1.55,23.94,23.94.28.3v47.74a190.54,190.54,0,0,0,22.43,26.72,12.31,12.31,0,0,0,5.36-10.35v-8.39l7.48-12.95,5.37-9.31a13.5,13.5,0,0,0,.8-1.62,11,11,0,0,0,.71-2.5,11.87,11.87,0,0,0,.17-1.6c0-.2,0-.4,0-.61V309.31l1.92-1.92,1.23-1.23,4.57-4.56.05-.06L276.1,292a12.21,12.21,0,0,0,3.71-8.95V268A12.19,12.19,0,0,0,276.1,259.08Zm368.37,52.63L634,301.2a12.2,12.2,0,0,0-7.63-3.64c-.43,0-.87-.06-1.31-.06H565.88a12.25,12.25,0,0,0-8.94,3.7l-3.45,3.44a12.87,12.87,0,0,0-2.62,3.77,12.52,12.52,0,0,0-1.07,5.19v6.13a12.08,12.08,0,0,0,1.4,5.81c.08.17.18.35.28.52l1.27,2.18,4.58,7.94.2.34a12.51,12.51,0,0,0,2.28,2.92,12.33,12.33,0,0,0,8.67,3.41h8.64l10.51,18.21,2,3.47,1.67,2.89a12.38,12.38,0,0,0,11,6.33h4.42a12.2,12.2,0,0,0,8.94-3.71L636,349.72l2.45-2.45,6.07-6.06a12.26,12.26,0,0,0,3.7-9v-11.6A12.22,12.22,0,0,0,644.47,311.71Zm-81.88-28.85v-8.14a81.89,81.89,0,0,1-3.9,8.59h.42A13.23,13.23,0,0,0,562.59,282.86Zm77.6-239.33L638,41.32A12.19,12.19,0,0,0,629,37.61h-25.4a12.19,12.19,0,0,0-8.95,3.71L584.32,51.69H547.07a12.34,12.34,0,0,0-11,6.32l-4.84,8.37H473.67a12.19,12.19,0,0,0-8.94,3.71L449.21,85.6h-48a13.59,13.59,0,0,0-1.93.14,2,2,0,0,0-.24,0,0,0,0,0,0,0,0,11.75,11.75,0,0,0-5.35,2.3,11.44,11.44,0,0,0-1.46,1.27l-8.43,8.53-2.61,2.63c-.31.31-.58.62-.85.94h0a12.11,12.11,0,0,0-2,3.46,12.26,12.26,0,0,0-.77,4.27,1.62,1.62,0,0,0,0,.22v5.19l-14.29,14.28-5.92,5.91-2.56,2.56a12.28,12.28,0,0,0-3.7,9V166l-29,29A12.16,12.16,0,0,0,318.3,204v33a12.13,12.13,0,0,0,3.21,8.41c.16.18.33.36.5.53l.94.94.52.52,6.77,6.78.71.7.73.73a12.35,12.35,0,0,0,8.94,3.71h9.62l16.35,16.35,2,2v31a12.2,12.2,0,0,0,3.71,8.94L384,329.25a12.22,12.22,0,0,0,8.95,3.7h9.79a12.57,12.57,0,0,0,5-1,11.75,11.75,0,0,0,3.44-2.25,12.93,12.93,0,0,0,2.41-3l3.71-6.44a12,12,0,0,0,1.7-6.33V306l10.25-10.25a12.19,12.19,0,0,0,3.71-8.95V257l8.57-8.56a12.29,12.29,0,0,0,3.7-8.95v-9.22L464,211.46h14.23l6.55,3.77h0l1.51.86,1.79,1,4.11,2.38,1.66,1,6.24,3.59a12,12,0,0,0,6.32,1.7h39.78a12.16,12.16,0,0,0,8.94-3.71l9.5-9.5,11.23-11.23a12.19,12.19,0,0,0,3.71-8.94V178.93l8.18-14.18,2.11-3.65L598,147h12.71a12.24,12.24,0,0,0,8.94-3.71l3.49-3.49a12.23,12.23,0,0,0,3.71-9V111.25a12.19,12.19,0,0,0-3.71-9L617.9,97V92.7l22.29-22.29a12.26,12.26,0,0,0,3.7-9v-9A12.18,12.18,0,0,0,640.19,43.53Z"/><path class="cls-13" d="M451.91,377.3a21.29,21.29,0,0,0-3.3-8.43v9.9a16.25,16.25,0,0,1,.1,1.73,1.77,1.77,0,0,1,0,.23,18.39,18.39,0,0,1-.11,2v9.89a21.36,21.36,0,0,0,3.58-11.85v-.08A20.75,20.75,0,0,0,451.91,377.3Zm256.44-88.21-14.16-14.16a3.61,3.61,0,0,1-.34-4.73,21.41,21.41,0,0,0-2.08-27.91l0,0a21.55,21.55,0,0,0-11.07-5.9,3.59,3.59,0,0,1-2.94-3.55V192.53a1.73,1.73,0,0,0-.51-1.23l-16.74-16.73a3.5,3.5,0,0,1-1.06-2.57l0-51.94A1.68,1.68,0,0,0,659,119a237.87,237.87,0,0,0-33.21-34.24c-2.11-1.79-4.26-3.55-6.44-5.26a237,237,0,0,0-45-27.81c-.75-.37-1.5-.72-2.25-1.06a1.71,1.71,0,0,1-.27-.14,1.72,1.72,0,0,0-2.55,1.2,1.08,1.08,0,0,0,0,.32V89.82a1.75,1.75,0,0,0,.5,1.23l20.56,20.56a3.47,3.47,0,0,1,1.07,2.56v4a3.45,3.45,0,0,1-1.08,2.57,3.49,3.49,0,0,1-2.58,1h-.43a21.34,21.34,0,0,0-15.16,6.29l0,0c-.25.25-.5.51-.74.77a21.44,21.44,0,0,0-.66,28c.08.09.15.2.24.29a3.63,3.63,0,0,1-.19,4.92L567.84,165l-.8.79a3.51,3.51,0,0,1-2.57,1.07h-52.2a1.67,1.67,0,0,0-1.1.41.53.53,0,0,0-.12.1l-.47.47L508,170.44l-16.73,16.72-2.1,2.11-1,1-2.19,2.2-2.41,2.4-.79.8a3.61,3.61,0,0,1-4.51.5,21.38,21.38,0,0,0-26.59,3l0,0a21.68,21.68,0,0,0-3,3.81v22.7l.06.09a2.73,2.73,0,0,1,.33.69,3.5,3.5,0,0,1-.39,3.27v5l1.95-1.94a3.58,3.58,0,0,1,4.55-.48,21.4,21.4,0,0,0,26.87-2.8l0,0a21.4,21.4,0,0,0,2.8-26.87.86.86,0,0,1-.1-.16,3.6,3.6,0,0,1-.39-2.71,3.8,3.8,0,0,1,1-1.68l4.87-4.86,4.49-4.5,17.3-17.3a3.63,3.63,0,0,1,1.77-1,4.07,4.07,0,0,1,.79-.08H566.7a1.71,1.71,0,0,0,1.22-.51l6.33-6.32a3.55,3.55,0,0,1,4.09-.73,21.22,21.22,0,0,0,8.95,2h.48a21.37,21.37,0,0,0,14.68-6.28v0a21.39,21.39,0,0,0,0-30.32v0a21.91,21.91,0,0,0-5.6-4,3.52,3.52,0,0,1-2-3.23V112a1.72,1.72,0,0,0-.51-1.23L573.78,90.16a3.5,3.5,0,0,1-1.06-2.56V60.51a3.56,3.56,0,0,1,1.73-3.09,3.51,3.51,0,0,1,3.53-.15,233.27,233.27,0,0,1,39.27,25c2.07,1.62,4.12,3.28,6.13,5a233.94,233.94,0,0,1,31.77,32.41,3.53,3.53,0,0,1,.8,2.28v52.32a1.73,1.73,0,0,0,.51,1.23l16.74,16.74a3.48,3.48,0,0,1,1.06,2.56v38.32a3.6,3.6,0,0,1-2.76,3.52,21.51,21.51,0,0,0-10.07,5.67l0,0a21.4,21.4,0,0,0,0,30.31l0,0a21.39,21.39,0,0,0,25.49,3.64,3.58,3.58,0,0,1,4.31.61l12.85,12.86a3.5,3.5,0,0,1,1,3,232.15,232.15,0,0,1-39.88,105.87,234.62,234.62,0,0,1-79.83,72,3.64,3.64,0,0,1-5.38-3.18V422.71a3.5,3.5,0,0,1,1.06-2.56l19.34-19.33a3.52,3.52,0,0,1,2.57-1.06h28.7a1.73,1.73,0,0,0,1.31-.62l.18-.19,18.89-18.9a1.76,1.76,0,0,0,.51-1.21V362.19a1.72,1.72,0,0,0-.51-1.23L638.4,347.27l-3-3a1.75,1.75,0,0,0-1.23-.5H609a1.75,1.75,0,0,0-1.23.5L592.1,360a3.52,3.52,0,0,1-2.56,1.06h-4.11a3.63,3.63,0,0,1-3.62-3.63,21.35,21.35,0,0,0-5.74-14.58c-.17-.2-.36-.39-.55-.58l0,0a21.41,21.41,0,0,0-30.33,0,3.61,3.61,0,0,1-3,1,3.75,3.75,0,0,1-2.15-1l-33.52-33.52a3.47,3.47,0,0,1-1.07-2.56v-20a1.69,1.69,0,0,0-.51-1.22l-16.48-16.48-1.25-1.26-2.63-2.62a1.66,1.66,0,0,0-1.22-.52h-15.3a1.68,1.68,0,0,0-1.35.64l-.16.2-1.38,1.44L459.83,272l-6.95,7.28-4.27,4.47v5l1.06-1.1,4.86-5.11,8.64-9,4.55-4.77a2.56,2.56,0,0,1,.34-.31,3.43,3.43,0,0,1,2.27-.81h10.81a3.54,3.54,0,0,1,2.56,1.06l3.66,3.66,4.69,4.7,8.86,8.86a3.48,3.48,0,0,1,1.06,2.56v20a1.71,1.71,0,0,0,.51,1.22l14.21,14.22,2.28,2.29,20.29,20.28a3.75,3.75,0,0,1,.6.79,3.5,3.5,0,0,1,.25,3,21.34,21.34,0,0,0-1.23,6.11c0,.37,0,.75,0,1.12a21.37,21.37,0,0,0,6.3,15.16l0,0a21.4,21.4,0,0,0,30.31,0l0,0a21.66,21.66,0,0,0,4.22-6,3.56,3.56,0,0,1,3.27-2.07h8.75A1.77,1.77,0,0,0,593,364l15.69-15.7a3.46,3.46,0,0,1,2.56-1.06H632a3.49,3.49,0,0,1,2.57,1.06l13.52,13.51a3.54,3.54,0,0,1,1.06,2.57v12.24a3.52,3.52,0,0,1-1.06,2.56l-16,16a3.5,3.5,0,0,1-2.56,1.06H600.8a1.68,1.68,0,0,0-1.24.51l-22.48,22.48a1.71,1.71,0,0,0-.51,1.22v55.29c0,.15,0,.28,0,.42a1.85,1.85,0,0,0,.18.77,1.74,1.74,0,0,0,2.31.77,238.08,238.08,0,0,0,89-77.22A235.65,235.65,0,0,0,708.8,290.86a2,2,0,0,1,0-.24A1.73,1.73,0,0,0,708.35,289.09ZM484.82,214.34c0,.29,0,.59,0,.89h0a17.91,17.91,0,0,1-5.24,11.83l0,0a18,18,0,0,1-25.45,0v0a17.57,17.57,0,0,1-2.52-3.16,18,18,0,0,1,2.52-22.29v0a18,18,0,0,1,25.45,0l0,0A17.92,17.92,0,0,1,484.82,214.34ZM600,130.54l0,0A18.07,18.07,0,0,1,600,156l0,0a17.9,17.9,0,0,1-10.14,5.06,20.37,20.37,0,0,1-2.59.18A18,18,0,0,1,574.56,156l0,0a17.55,17.55,0,0,1-2.8-3.65,18.08,18.08,0,0,1,.47-18.91,17.26,17.26,0,0,1,2.33-2.89l0,0a18.08,18.08,0,0,1,25.46,0Zm89.32,139.63,0,0a18,18,0,0,1-25.45,0l0,0a18,18,0,0,1,0-25.45l0,0a18,18,0,0,1,25.45,0l0,0a18,18,0,0,1,0,25.45Zm-116.26,100,0,0a18,18,0,0,1-25.45,0l0,0a18,18,0,0,1,0-25.44l0,0a17.88,17.88,0,0,1,12.2-5.25h.52a17.93,17.93,0,0,1,10.57,3.42,16.41,16.41,0,0,1,2.16,1.84l0,0a18,18,0,0,1,0,25.44ZM260.72,307.39H242.26a1.62,1.62,0,0,0-.31,0,1.7,1.7,0,0,0-1.37,2c0,.3.11.6.17.89.84,4.5,1.83,9,2.94,13.43.62,2.49,1.3,5,2,7.42.48,1.69,1,3.36,1.5,5,.12.39.24.78.37,1.17,0,.11.05.2.08.32a1.75,1.75,0,0,0,1.7,1.36h8.84a3,3,0,0,1,.43,0,3.48,3.48,0,0,1,2.14,1l14,14v-4.91l-13.15-13.15a1.73,1.73,0,0,0-1.23-.51h-7.13a3.56,3.56,0,0,1-3.35-2.24,2.84,2.84,0,0,1-.13-.35c-1-3.33-1.9-6.68-2.76-10.06-.63-2.54-1.23-5.1-1.79-7.66a3.47,3.47,0,0,1,.41-2.59,3.1,3.1,0,0,1,.31-.46,3.53,3.53,0,0,1,2.83-1.35h26v-3.46Z"/><path class="cls-13" d="M626.33,291.28v6.28c-.43,0-.87-.06-1.31-.06h-2.16v-4a3.51,3.51,0,0,0-1.07-2.57l-28.54-28.54a3.54,3.54,0,0,0-2.57-1.06h-.44c0-.41.06-.82.06-1.24V259a10,10,0,0,0-.06-1.1h2.66a1.72,1.72,0,0,1,1.24.52l31.68,31.68A1.72,1.72,0,0,1,626.33,291.28Z"/><path class="cls-13" d="M274.79,368.88a21.4,21.4,0,0,0,0,23.7v-9.91a15.66,15.66,0,0,1-.11-1.94,16,16,0,0,1,.11-2Zm-3-169.7,0,0a21.38,21.38,0,0,0-26.59-3,3.59,3.59,0,0,1-4.5-.5l-17.91-17.91-1.92-1.92h0l-8.45-8.45a1.72,1.72,0,0,0-1.23-.51h-52.2a3.49,3.49,0,0,1-2.56-1.07l-3.72-3.71a3.64,3.64,0,0,1-.2-4.92,21.38,21.38,0,0,0,2.77-4.14,21.1,21.1,0,0,0,2.36-9.58v-.18a21.38,21.38,0,0,0-6.28-15.16l0,0a21.51,21.51,0,0,0-14.84-6.28h-.75a3.53,3.53,0,0,1-2.59-1A3.48,3.48,0,0,1,132,118.2v-4a3.5,3.5,0,0,1,1.06-2.56l1.2-1.2,7.9-7.91,11.46-11.45a1.72,1.72,0,0,0,.51-1.23V52a1.74,1.74,0,0,0-1.74-1.75,1.72,1.72,0,0,0-.85.23c-.09.06-.18.09-.27.14l-1.6.75A237.09,237.09,0,0,0,104,79.5q-8.34,6.56-16.07,13.82A237.82,237.82,0,0,0,64.36,119a1.69,1.69,0,0,0-.37,1.06L64,172a3.54,3.54,0,0,1-1.06,2.57L46.17,191.3a1.7,1.7,0,0,0-.52,1.23v40.28a3.58,3.58,0,0,1-2.93,3.55,21.51,21.51,0,0,0-11.07,5.9l0,0a21.39,21.39,0,0,0-2.07,27.91,3.61,3.61,0,0,1-.35,4.73L15.05,289.09a1.73,1.73,0,0,0-.49,1.53,2,2,0,0,1,0,.24A235.56,235.56,0,0,0,55.31,400.52a238.08,238.08,0,0,0,89,77.22,1.71,1.71,0,0,0,2.48-1.54,3.07,3.07,0,0,1,0-.42V420.49a1.71,1.71,0,0,0-.51-1.22l-22.48-22.48a1.7,1.7,0,0,0-1.24-.51H93.89a3.48,3.48,0,0,1-2.56-1.06l-16-16a3.48,3.48,0,0,1-1.06-2.56V364.41a3.5,3.5,0,0,1,1.06-2.57l13.52-13.51a3.46,3.46,0,0,1,2.56-1.06h20.75a3.46,3.46,0,0,1,2.56,1.06L130.41,364a1.77,1.77,0,0,0,1.23.5h8.74a3.57,3.57,0,0,1,3.28,2.07,21.66,21.66,0,0,0,4.22,6l0,0a21.41,21.41,0,0,0,30.32,0l0,0a21.45,21.45,0,0,0,5-22.39,3.56,3.56,0,0,1,.84-3.79L200.56,330,215,315.54l5.91-5.92a1.68,1.68,0,0,0,.52-1.22v-20a3.52,3.52,0,0,1,1.06-2.56l1.65-1.65,4.35-4.36,11.21-11.21a3.56,3.56,0,0,1,2.57-1.06h10.8a3.47,3.47,0,0,1,2.62,1.12l1.45,1.51,6.12,6.42,11.54,12.09v-5l-12-12.55L256.85,265l-.08-.09a1.35,1.35,0,0,1-.09-.11,1.72,1.72,0,0,0-1.35-.64H240a1.7,1.7,0,0,0-1.23.52l-12.87,12.88-3.28,3.28-4.2,4.2a1.6,1.6,0,0,0-.5,1,.78.78,0,0,0,0,.21v20a3.5,3.5,0,0,1-1.06,2.56l-.69.69-1.14,1.14-1.64,1.64-30,30.05a3.65,3.65,0,0,1-5.13,0,21.4,21.4,0,0,0-30.33,0l0,0a21.4,21.4,0,0,0-6.29,15.16,3.64,3.64,0,0,1-3.63,3.63h-4.1a3.54,3.54,0,0,1-2.57-1.06L115.6,344.3a1.72,1.72,0,0,0-1.22-.5H89.19a1.71,1.71,0,0,0-1.22.5L71.3,361a1.76,1.76,0,0,0-.51,1.23v16.65a1.8,1.8,0,0,0,.51,1.21L90.19,399a1.57,1.57,0,0,1,.18.19,1.75,1.75,0,0,0,1.32.62h28.69a3.49,3.49,0,0,1,2.57,1.06l19.33,19.33a3.44,3.44,0,0,1,1.07,2.56v44.65a3.63,3.63,0,0,1-5.37,3.18,234.62,234.62,0,0,1-79.83-72A232,232,0,0,1,18.27,292.71a3.52,3.52,0,0,1,1-3l12.86-12.86a3.58,3.58,0,0,1,4.31-.61A21.37,21.37,0,0,0,62,272.62l0,0a21.4,21.4,0,0,0,0-30.31l0,0a21.48,21.48,0,0,0-10.06-5.67,3.59,3.59,0,0,1-2.77-3.52V194.75a3.52,3.52,0,0,1,1.06-2.56l16.75-16.74a1.77,1.77,0,0,0,.5-1.23V121.9a3.54,3.54,0,0,1,.81-2.28A234.34,234.34,0,0,1,90.37,95.77c5.06-4.74,10.32-9.27,15.77-13.54a233.67,233.67,0,0,1,39.27-25,3.53,3.53,0,0,1,3.54.15A3.47,3.47,0,0,1,150.37,59a3.71,3.71,0,0,1,.3,1.47V87.6a3.46,3.46,0,0,1-1.06,2.56L134,105.81l-4.91,4.91a1.75,1.75,0,0,0-.5,1.23v8.89a3.54,3.54,0,0,1-2,3.23,22.13,22.13,0,0,0-5.61,4v0a21.41,21.41,0,0,0,0,30.32v0a21.43,21.43,0,0,0,24.12,4.33,3.54,3.54,0,0,1,4.08.73l6.34,6.32a1.69,1.69,0,0,0,1.22.51h52.2a3.43,3.43,0,0,1,2.33.85l.24.21,8.5,8.51,7.36,7.36,10.8,10.79a3.59,3.59,0,0,1,.46,4.55A21.49,21.49,0,0,0,236.16,221a21.86,21.86,0,0,0,3.13,6.07,21.21,21.21,0,0,0,2.11,2.44l0,0a21.33,21.33,0,0,0,15,6.29h.12a20.69,20.69,0,0,0,5.55-.74,21.21,21.21,0,0,0,6.15-2.75,3.58,3.58,0,0,1,4.55.48l2,1.94v-5a3.57,3.57,0,0,1-.06-4l.06-.09V203A22,22,0,0,0,271.76,199.18ZM150.32,344.71l0,0a18,18,0,0,1,25.44,0l0,0a18,18,0,0,1,0,25.44l0,0a18,18,0,0,1-25.44,0l0,0a18,18,0,0,1,0-25.44Zm-90.8-100,0,0a18.07,18.07,0,0,1,0,25.45l0,0a18,18,0,0,1-25.45,0l0,0a18.07,18.07,0,0,1,0-25.45l0,0a18,18,0,0,1,25.45,0ZM148.86,156l0,0a17.94,17.94,0,0,1-12.73,5.24A18.11,18.11,0,0,1,123.38,156l0,0a18,18,0,0,1,0-25.45l0,0a17.89,17.89,0,0,1,12.72-5.24c.47,0,1,0,1.41,0a17.9,17.9,0,0,1,11,4.87l.33.32,0,0a18,18,0,0,1,5.24,12.72A18.06,18.06,0,0,1,148.86,156Zm125.71,58.32a18.06,18.06,0,0,1-.82,5.39,17.83,17.83,0,0,1-4.43,7.34l0,0a18,18,0,0,1-12.68,5.25h0a18,18,0,0,1-12.73-5.25l0,0a18,18,0,0,1,0-25.45l0,0a18,18,0,0,1,21.69-2.87,17.3,17.3,0,0,1,3.75,2.87l0,0a17.91,17.91,0,0,1,5.17,11.11C274.54,213.26,274.57,213.8,274.57,214.34Zm207.55,93.39a1.46,1.46,0,0,0-1-.33H448.61v3.46h26a3.63,3.63,0,0,1,3.55,4.4c-.56,2.56-1.16,5.12-1.8,7.66Q475.08,328,473.59,333a3.57,3.57,0,0,1-3.48,2.59H463a1.73,1.73,0,0,0-1.22.51l-13.15,13.15v4.91l14-14a3.47,3.47,0,0,1,2.57-1.07h9a1.72,1.72,0,0,0,1.56-1.35,3,3,0,0,1,.08-.32c1.43-4.5,2.73-9,3.87-13.62,1.2-4.74,2.23-9.52,3.12-14.32A1.66,1.66,0,0,0,482.12,307.73Z"/><path class="cls-13" d="M159.07,257.85H130.49a1.69,1.69,0,0,0-1.23.52L97.57,290.05a1.75,1.75,0,0,0-.5,1.23v24.9a1.74,1.74,0,0,0,1.74,1.73H128.3a1.73,1.73,0,0,0,1.23-.51l30.77-30.77a1.71,1.71,0,0,0,.51-1.22V259.59A1.74,1.74,0,0,0,159.07,257.85Zm-1.73,25.33a3.51,3.51,0,0,1-1.07,2.57l-27.62,27.63a3.56,3.56,0,0,1-2.57,1.06H104.17a3.63,3.63,0,0,1-3.63-3.62V293.5a3.54,3.54,0,0,1,1.06-2.57l28.54-28.54a3.56,3.56,0,0,1,2.57-1.06h21a3.64,3.64,0,0,1,3.64,3.63Z"/><path class="cls-14" d="M111.64,217.09a3.84,3.84,0,0,0-5.44,0h0a3.82,3.82,0,0,0-1.12,2.72,3.66,3.66,0,0,0,.37,1.65l-5.6,5.6-.26.25v16.36a3.84,3.84,0,0,0-1.89,1h0a3.86,3.86,0,0,0-1.13,2.72,3.82,3.82,0,0,0,1.14,2.71h0a3.85,3.85,0,1,0,5.45-5.45,3.77,3.77,0,0,0-1.78-1V228l5.19-5.19a3.84,3.84,0,0,0,2.38.81,3.79,3.79,0,0,0,2.72-1.13,3.84,3.84,0,0,0,0-5.44ZM101.89,246h0a2.09,2.09,0,1,1-3,2.95h0a2.09,2.09,0,0,1,0-2.95h0a2.1,2.1,0,0,1,3,0Zm8.51-24.66a2.09,2.09,0,1,1,0-3,2.13,2.13,0,0,1,0,3Z"/><path class="cls-14" d="M92.49,244.72h0a3.87,3.87,0,0,0-1.9-1V227.31l-.25-.25-5.6-5.6a3.83,3.83,0,1,0-1.11,1.39l5.2,5.19V243.7a3.85,3.85,0,0,0-1.78,6.46,3.84,3.84,0,0,0,5.44,0h0a3.83,3.83,0,0,0,0-5.43Zm-9.75-23.43a2.08,2.08,0,1,1,.62-1.48A2.08,2.08,0,0,1,82.74,221.29Zm8.51,27.62a2.08,2.08,0,0,1-3,0,2.09,2.09,0,0,1,0-2.95h0a2.1,2.1,0,0,1,3,0h0a2.09,2.09,0,0,1,0,2.95Z"/><path class="cls-14" d="M97.81,209.46a3.84,3.84,0,0,0-5.44,0,3.81,3.81,0,0,0-1.13,2.73,3.77,3.77,0,0,0,1.13,2.72,3.82,3.82,0,0,0,1.72,1v24h1.77V216a3.77,3.77,0,0,0,2-1.05,3.85,3.85,0,0,0,0-5.45Zm-1.24,4.2a2.08,2.08,0,0,1-3,0,2,2,0,0,1-.62-1.47,2.09,2.09,0,0,1,.62-1.48,2.1,2.1,0,0,1,3,0,2.08,2.08,0,0,1,.61,1.48A2.05,2.05,0,0,1,96.57,213.66Z"/><path class="cls-14" d="M691.15,299.81h0a3.86,3.86,0,0,0-6.58,2.72,4,4,0,0,0,.37,1.65l-5.59,5.59-.26.26v16.36a3.84,3.84,0,0,0-1.89,1,3.85,3.85,0,0,0,0,5.45,3.85,3.85,0,1,0,3.66-6.46V310.76l5.19-5.2a3.85,3.85,0,0,0,5.11-5.75Zm-9.76,28.86h0a2.1,2.1,0,0,1,0,3,2.09,2.09,0,0,1-3.57-1.48,2.06,2.06,0,0,1,.61-1.48h0a2.1,2.1,0,0,1,3,0Zm8.5-24.66a2.09,2.09,0,0,1-2.95,0,2.09,2.09,0,0,1,1.48-3.57,2.05,2.05,0,0,1,1.47.61,2.08,2.08,0,0,1,0,3Z"/><path class="cls-14" d="M672,327.43h0a3.82,3.82,0,0,0-1.9-1V310l-.26-.26-5.58-5.59a3.83,3.83,0,0,0,.37-1.65,3.87,3.87,0,0,0-1.13-2.72h0a3.85,3.85,0,1,0-2.71,6.57,3.87,3.87,0,0,0,2.37-.82l5.2,5.2v15.66a3.84,3.84,0,0,0-1.79,1h0a3.86,3.86,0,1,0,5.46,0ZM662.25,304h0a2.09,2.09,0,0,1-3,0,2.08,2.08,0,0,1,0-3,2.09,2.09,0,0,1,3,0h0a2.13,2.13,0,0,1,0,3Zm8.5,27.63h0a2.1,2.1,0,0,1-2.94,0,2.08,2.08,0,0,1,0-3h0a2.08,2.08,0,0,1,2.94,0h0a2.1,2.1,0,0,1,.61,1.48A2.14,2.14,0,0,1,670.75,331.64Z"/><path class="cls-14" d="M677.32,292.18h0a3.82,3.82,0,0,0-2.72-1.14,3.87,3.87,0,0,0-2.72,1.13h0a3.86,3.86,0,0,0,0,5.44,4,4,0,0,0,1.73,1v24h1.76v-24a4,4,0,0,0,2-1.06,3.86,3.86,0,0,0,1.13-2.72A3.9,3.9,0,0,0,677.32,292.18Zm-1.25,4.2a2.08,2.08,0,0,1-3,0,2.09,2.09,0,0,1,0-2.95h0a2.13,2.13,0,0,1,3,0h0a2.06,2.06,0,0,1,.61,1.48A2,2,0,0,1,676.07,296.38Z"/><rect class="cls-15" x="51.26" y="302.19" width="12.8" height="6.57" rx="3.28"/><rect class="cls-15" x="43.4" y="313.3" width="28.53" height="6.57" rx="3.28"/><rect class="cls-15" x="50.53" y="324.41" width="14.26" height="6.56" rx="3.28"/><rect class="cls-15" x="619.92" y="156.17" width="12.8" height="6.57" rx="3.28"/><rect class="cls-15" x="612.06" y="167.28" width="28.53" height="6.57" rx="3.28"/><rect class="cls-15" x="619.19" y="178.39" width="14.26" height="6.56" rx="3.28"/><rect class="cls-15" x="90.13" y="158.89" width="14.1" height="6.9" rx="3.45"/><rect class="cls-15" x="82.19" y="170.56" width="29.97" height="6.9" rx="3.45"/><rect class="cls-15" x="94.51" y="182.23" width="17.65" height="6.9" rx="3.45"/><rect class="cls-15" x="82.22" y="182.23" width="7.49" height="6.9" rx="3.45"/><path class="cls-16" d="M118.74,231.34C118.74,103.58,227.52,0,361.7,0s243,103.58,243,231.34c0,77.54-40.06,146.17-101.56,188.14a95.45,95.45,0,0,0-41.9,78.75v17.7a69.65,69.65,0,0,1-69.65,69.65h-59.7a69.64,69.64,0,0,1-69.64-69.65v-17.7a95.46,95.46,0,0,0-41.91-78.75C158.8,377.51,118.74,308.88,118.74,231.34Z"/><path class="cls-16" d="M604.66,231.34c0,77.54-40.06,146.17-101.56,188.14a95.45,95.45,0,0,0-41.9,78.75v17.7a69.65,69.65,0,0,1-69.65,69.65h-59.7a69.64,69.64,0,0,1-69.64-69.65v-17.7a94.77,94.77,0,0,0-21.35-59.84,96.31,96.31,0,0,0-20.56-18.91c-61.5-42-101.56-110.6-101.56-188.14C118.74,103.57,227.52,0,361.7,0A250.67,250.67,0,0,1,494,37.3a241.63,241.63,0,0,1,32.18,23.82C574.44,103.38,604.66,164,604.66,231.34Z"/><path class="cls-17" d="M424.64,485c-96.1,76.28-113.07,41.17-160.39,17.59a22.69,22.69,0,0,1-2-1.15v-3.22a94.77,94.77,0,0,0-21.35-59.84c-1.44-65.65,26.26-159.07,71.62-179.83C379.6,227.84,363.82,97.67,416.65,59.8,460.14,28.63,486.19,34.31,494,37.3a241.63,241.63,0,0,1,32.18,23.82C537.07,131.73,509.53,417.62,424.64,485Z"/><ellipse class="cls-18" cx="361.7" cy="688.73" rx="53.9" ry="28.53"/><path class="cls-19" d="M433.31,637.76V666.9A25.58,25.58,0,0,1,418.8,690c-12.36,5.89-32.89,12.36-62.75,11.59-24.21-.62-40-4.57-50-8.73a26,26,0,0,1-15.92-24.1V652.67Z"/><path class="cls-20" d="M433.31,663.28a28.61,28.61,0,0,1-7.55,5.28c-13.86,6.61-104.64,21.37-126.54,13.15a29.44,29.44,0,0,1-7.64-4.23,26.35,26.35,0,0,1-1.49-8.69V652.67l143.22-14.91Z"/><path class="cls-21" d="M427,617.93A13.67,13.67,0,0,1,442,631.53v.82a28.72,28.72,0,0,1-16.27,26c-13.86,6.61-104.64,21.38-126.54,13.15-11-4.14-17.85-13.61-17.85-25.38v-.67a13.66,13.66,0,0,1,12.25-13.59Z"/><path class="cls-22" d="M293.62,631.82,427,617.93a13.62,13.62,0,0,1,12.77,6,28.5,28.5,0,0,1-14,14.65c-13.86,6.61-108.51,23.3-126.54,14.8a31.24,31.24,0,0,1-15.47-15.68A13.62,13.62,0,0,1,293.62,631.82Z"/><path class="cls-23" d="M432.17,570.72a9.86,9.86,0,0,1,9.86,9.87v22.82a28.72,28.72,0,0,1-16.27,26c-13.86,6.61-108.51,23.3-126.54,14.8-10.65-5-17.85-15.26-17.85-27V580.59a9.86,9.86,0,0,1,9.86-9.87Z"/><ellipse class="cls-24" cx="361.7" cy="577.83" rx="78.35" ry="18.52"/><circle class="cls-25" cx="279.68" cy="171.05" r="8.89"/><circle class="cls-25" cx="193.52" cy="249.26" r="8.89"/><circle class="cls-25" cx="277.02" cy="254.3" r="8.89"/><circle class="cls-25" cx="361.7" cy="172.2" r="8.89"/><circle class="cls-25" cx="287.09" cy="339.36" r="8.89"/><path class="cls-26" d="M118.74,231.34C118.74,103.58,227.52,0,361.7,0a252,252,0,0,1,106,23.12A138.13,138.13,0,0,1,463.15,72c-19.9,70.32-82.92,69.81-134,162.42C289.64,306.19,309.47,339.12,268.72,385A164.14,164.14,0,0,1,222.37,421c-.69-.5-1.37-1-2.07-1.47C158.8,377.51,118.74,308.88,118.74,231.34Z"/><path class="cls-27" d="M108.9,524.85l44.56,37.51s22.86-30.53,56.62-30.2c10-28.25,19.22-87.39,21.7-104.26L180.7,488.58a8.68,8.68,0,1,1-3.73-3.14l51.08-60.68c-16.2,5.32-72.91,24.44-99,39.16C135.08,497.12,108.9,524.85,108.9,524.85Z"/><path class="cls-28" d="M129,463.93c26.11-14.72,82.84-33.85,99-39.17L177,485.44A8.66,8.66,0,0,0,167.91,500l-36.72,43.62L108.9,524.84S135.08,497.12,129,463.93Z"/><path class="cls-29" d="M8.91,688.85h0c9.42,7.94,22.52,8,29.1.21L148,558.38l-34.27-28.85L3.74,660.21C-2.84,668-.51,680.92,8.91,688.85Z"/><path class="cls-30" d="M8.91,688.85h0c9.42,7.94,22.52,8,29.1.21L148,558.38l-34.27-28.85L3.74,660.21C-2.84,668-.51,680.92,8.91,688.85Z"/><rect class="cls-27" x="100.21" y="541.74" width="49.25" height="18.82" rx="2.93" transform="translate(-134.62 1053.18) rotate(-139.91)"/><rect class="cls-31" x="97.24" y="533.75" width="67.88" height="19.71" rx="3.52" transform="translate(-118.56 1043.96) rotate(-139.91)"/><rect class="cls-32" x="97.24" y="533.75" width="67.88" height="19.71" rx="3.52" transform="translate(-118.56 1043.96) rotate(-139.91)"/><circle class="cls-25" cx="303.69" cy="474.58" r="7.07"/><polygon class="cls-25" points="304.58 477.16 305.73 475.66 232.85 419.91 232.58 419.88 126.62 409.13 126.43 411.01 232.13 421.73 304.58 477.16"/><circle class="cls-25" cx="126.53" cy="411.54" r="7.07" transform="translate(-302.11 370.94) rotate(-67.5)"/><circle class="cls-25" cx="232.49" cy="420.82" r="9.28"/><rect class="cls-33" x="139.69" y="544.4" width="8.3" height="19.71" transform="translate(-103.08 1070.91) rotate(-139.91)"/><rect class="cls-33" x="133.38" y="537.03" width="3.4" height="19.71" transform="translate(383.94 41.51) rotate(40.09)"/><polygon class="cls-34" points="365.69 242.67 375.56 292.39 323.52 283.17 313.65 233.46 365.69 242.67"/><polygon class="cls-35" points="365.68 242.69 313.65 233.44 358.2 205.01 410.23 214.26 365.68 242.69"/><polygon class="cls-36" points="410.21 214.28 420.08 264 375.56 292.39 365.69 242.67 410.21 214.28"/><polygon class="cls-34" points="353.97 183.68 363.85 233.4 311.81 224.19 301.94 174.47 353.97 183.68"/><polygon class="cls-35" points="353.97 183.7 301.94 174.45 346.49 146.03 398.51 155.28 353.97 183.7"/><polygon class="cls-36" points="398.49 155.3 408.37 205.01 363.85 233.4 353.97 183.68 398.49 155.3"/><polygon class="cls-34" points="334.91 87.66 344.78 137.38 292.75 128.17 282.88 78.45 334.91 87.66"/><polygon class="cls-37" points="334.9 87.68 282.88 78.43 327.42 50.01 379.45 59.26 334.9 87.68"/><polygon class="cls-36" points="379.43 59.28 389.3 108.99 344.78 137.38 334.91 87.66 379.43 59.28"/><polygon class="cls-34" points="426.32 254.64 436.19 304.36 384.16 295.14 374.29 245.43 426.32 254.64"/><polygon class="cls-35" points="426.31 254.66 374.29 245.41 418.83 216.99 470.86 226.24 426.31 254.66"/><polygon class="cls-36" points="470.84 226.25 480.71 275.97 436.19 304.36 426.32 254.64 470.84 226.25"/><polygon class="cls-34" points="414.61 195.65 424.48 245.37 372.45 236.16 362.57 186.44 414.61 195.65"/><polygon class="cls-35" points="414.6 195.67 362.58 186.42 407.12 158 459.15 167.25 414.6 195.67"/><polygon class="cls-36" points="459.13 167.27 469 216.98 424.48 245.37 414.61 195.65 459.13 167.27"/><polygon class="cls-34" points="402.9 136.66 412.77 186.38 360.73 177.17 350.86 127.45 402.9 136.66"/><polygon class="cls-35" points="402.89 136.68 350.86 127.43 395.41 99.01 447.44 108.26 402.89 136.68"/><polygon class="cls-36" points="447.42 108.28 457.29 158 412.77 186.38 402.9 136.66 447.42 108.28"/><polygon class="cls-34" points="486.96 266.61 496.83 316.33 444.8 307.11 434.92 257.4 486.96 266.61"/><polygon class="cls-35" points="486.95 266.63 434.92 257.38 479.47 228.96 531.5 238.21 486.95 266.63"/><polygon class="cls-36" points="531.48 238.22 541.35 287.94 496.83 316.33 486.96 266.61 531.48 238.22"/><polygon class="cls-34" points="515.29 197.06 525.16 246.78 473.12 237.56 463.25 187.85 515.29 197.06"/><polygon class="cls-37" points="515.28 197.08 463.25 187.83 507.8 159.41 559.83 168.66 515.28 197.08"/><polygon class="cls-36" points="559.8 168.68 569.68 218.39 525.16 246.78 515.29 197.06 559.8 168.68"/><polygon class="cls-34" points="463.53 148.63 473.4 198.35 421.37 189.14 411.5 139.42 463.53 148.63"/><polygon class="cls-37" points="463.52 148.65 411.5 139.4 456.04 110.98 508.07 120.23 463.52 148.65"/><polygon class="cls-36" points="508.05 120.25 517.92 169.97 473.4 198.35 463.53 148.63 508.05 120.25"/><polygon class="cls-34" points="314.53 278.35 324.4 328.06 272.36 318.85 262.49 269.13 314.53 278.35"/><polygon class="cls-35" points="314.52 278.37 262.49 269.12 307.04 240.69 359.06 249.94 314.52 278.37"/><polygon class="cls-36" points="359.05 249.96 368.92 299.68 324.4 328.06 314.53 278.35 359.05 249.96"/><polygon class="cls-34" points="302.81 219.36 312.69 269.08 260.65 259.86 250.78 210.15 302.81 219.36"/><polygon class="cls-35" points="302.81 219.38 250.78 210.13 295.33 181.7 347.35 190.95 302.81 219.38"/><polygon class="cls-36" points="347.33 190.97 357.2 240.69 312.69 269.08 302.81 219.36 347.33 190.97"/><polygon class="cls-34" points="291.1 160.37 300.97 210.09 248.94 200.88 239.07 151.16 291.1 160.37"/><polygon class="cls-37" points="291.09 160.39 239.07 151.14 283.61 122.72 335.64 131.97 291.09 160.39"/><polygon class="cls-36" points="335.62 131.99 345.49 181.7 300.97 210.09 291.1 160.37 335.62 131.99"/><polygon class="cls-34" points="375.16 290.32 385.03 340.03 333 330.82 323.13 281.1 375.16 290.32"/><polygon class="cls-35" points="375.15 290.34 323.13 281.09 367.67 252.66 419.7 261.91 375.15 290.34"/><polygon class="cls-36" points="419.68 261.93 429.55 311.65 385.03 340.03 375.16 290.32 419.68 261.93"/><polygon class="cls-34" points="363.45 231.33 373.32 281.05 321.29 271.83 311.41 222.12 363.45 231.33"/><polygon class="cls-35" points="363.44 231.35 311.42 222.1 355.96 193.67 407.99 202.92 363.44 231.35"/><polygon class="cls-36" points="407.97 202.94 417.84 252.66 373.32 281.05 363.45 231.33 407.97 202.94"/><polygon class="cls-34" points="351.74 172.34 361.61 222.06 309.57 212.84 299.7 163.13 351.74 172.34"/><polygon class="cls-35" points="351.73 172.36 299.7 163.11 344.25 134.69 396.27 143.94 351.73 172.36"/><polygon class="cls-36" points="396.25 143.96 406.13 193.67 361.61 222.06 351.74 172.34 396.25 143.96"/><polygon class="cls-34" points="443.68 342.01 453.56 391.73 401.52 382.51 391.65 332.8 443.68 342.01"/><polygon class="cls-35" points="443.68 342.03 391.65 332.78 436.2 304.36 488.22 313.61 443.68 342.03"/><polygon class="cls-36" points="488.2 313.63 498.07 363.34 453.56 391.73 443.68 342.01 488.2 313.63"/><polygon class="cls-34" points="424.08 243.3 433.95 293.02 381.92 283.8 372.05 234.09 424.08 243.3"/><polygon class="cls-37" points="424.08 243.32 372.05 234.07 416.6 205.65 468.62 214.89 424.08 243.32"/><polygon class="cls-36" points="468.6 214.91 478.48 264.63 433.95 293.02 424.08 243.3 468.6 214.91"/><polygon class="cls-34" points="412.37 184.31 422.24 234.03 370.21 224.81 360.34 175.1 412.37 184.31"/><polygon class="cls-35" points="412.36 184.33 360.34 175.08 404.88 146.66 456.91 155.91 412.36 184.33"/><polygon class="cls-36" points="456.89 155.93 466.76 205.64 422.24 234.03 412.37 184.31 456.89 155.93"/><polygon class="cls-34" points="263.37 314.02 273.24 363.74 221.2 354.53 211.33 304.81 263.37 314.02"/><polygon class="cls-35" points="263.36 314.05 211.33 304.8 255.88 276.37 307.9 285.62 263.36 314.05"/><polygon class="cls-36" points="307.88 285.64 317.76 335.36 273.24 363.74 263.37 314.02 307.88 285.64"/><polygon class="cls-34" points="222.65 254.55 232.52 304.26 180.49 295.05 170.62 245.33 222.65 254.55"/><polygon class="cls-37" points="222.65 254.57 170.62 245.32 215.16 216.89 267.19 226.14 222.65 254.57"/><polygon class="cls-36" points="267.17 226.16 277.04 275.88 232.52 304.26 222.65 254.55 267.17 226.16"/><polygon class="cls-34" points="239.94 196.05 249.81 245.76 197.78 236.55 187.91 186.84 239.94 196.05"/><polygon class="cls-35" points="239.93 196.07 187.91 186.82 232.45 158.39 284.48 167.64 239.93 196.07"/><polygon class="cls-36" points="284.46 167.66 294.33 217.38 249.81 245.76 239.94 196.05 284.46 167.66"/><polygon class="cls-34" points="328.08 346.58 337.95 396.3 285.92 387.09 276.04 337.37 328.08 346.58"/><polygon class="cls-37" points="328.07 346.61 276.05 337.36 320.59 308.93 372.62 318.18 328.07 346.61"/><polygon class="cls-36" points="372.6 318.2 382.47 367.92 337.95 396.3 328.08 346.58 372.6 318.2"/><polygon class="cls-34" points="312.29 267.01 322.16 316.72 270.13 307.51 260.25 257.79 312.29 267.01"/><polygon class="cls-35" points="312.28 267.03 260.25 257.78 304.8 229.35 356.83 238.6 312.28 267.03"/><polygon class="cls-36" points="356.81 238.62 366.68 288.34 322.16 316.72 312.29 267.01 356.81 238.62"/><polygon class="cls-34" points="300.57 208.02 310.45 257.74 258.41 248.52 248.54 198.81 300.57 208.02"/><polygon class="cls-37" points="300.57 208.04 248.54 198.79 293.09 170.36 345.11 179.61 300.57 208.04"/><polygon class="cls-36" points="345.09 179.63 354.96 229.35 310.45 257.74 300.57 208.02 345.09 179.63"/><polygon class="cls-34" points="384.64 337.96 394.51 387.68 342.47 378.47 332.6 328.75 384.64 337.96"/><polygon class="cls-37" points="384.63 337.99 332.6 328.74 377.15 300.31 429.17 309.56 384.63 337.99"/><polygon class="cls-36" points="429.15 309.58 439.03 359.3 394.51 387.68 384.64 337.96 429.15 309.58"/><polygon class="cls-34" points="372.92 278.98 382.8 328.69 330.76 319.48 320.89 269.76 372.92 278.98"/><polygon class="cls-35" points="372.92 279 320.89 269.75 365.44 241.32 417.46 250.57 372.92 279"/><polygon class="cls-36" points="417.44 250.59 427.31 300.31 382.8 328.69 372.92 278.98 417.44 250.59"/><polygon class="cls-34" points="361.21 219.99 371.08 269.71 319.05 260.49 309.18 210.78 361.21 219.99"/><polygon class="cls-35" points="361.2 220.01 309.18 210.76 353.72 182.33 405.75 191.58 361.2 220.01"/><polygon class="cls-36" points="405.73 191.6 415.6 241.32 371.08 269.71 361.21 219.99 405.73 191.6"/><path class="cls-35" d="M604.66,231.34c0,77.54-40.06,146.17-101.56,188.14a95.45,95.45,0,0,0-41.9,78.75v17.7a69.65,69.65,0,0,1-69.65,69.65h-59.7a69.64,69.64,0,0,1-69.64-69.65V501.77c6.69,4.6,16.2,9.54,28,10.61,34.25,3.1,71.24-27.87,83.2-61.35a70.26,70.26,0,0,0,2.69-9.51c9.63-46.64-36.84-76.23-29.4-148.42,1.06-10.25,5.36-47.69,30.95-82.3,42.12-57,117.7-73.59,130.89-114q.18-.52.33-1a65.87,65.87,0,0,0,1.57-29.63c-2.4-10.24-7.84-19.79-15.9-28.52C560.84,78.93,604.66,150.26,604.66,231.34Z"/><path class="cls-38" d="M570.77,240.36c0,106.7-85.92,194-194.68,201.16,9.63-46.64-36.84-76.23-29.4-148.42,1.06-10.25,5.36-47.69,30.95-82.3,42.12-57,117.7-73.59,130.89-114C547,133.38,570.77,184.19,570.77,240.36Z"/><g class="cls-39"><g class="cls-40"><path class="cls-41" d="M615,329.55,637.88,323a130.22,130.22,0,0,0-1-31.63l-23.29-5a107.37,107.37,0,0,0-4.11-13.5L626,255.76a133.39,133.39,0,0,0-16.76-26.88l-22.64,7.31a110.68,110.68,0,0,0-10.29-9.66L582,203.47a130.71,130.71,0,0,0-27.95-14.88l-15.94,17.64c-3.31-1-6.7-1.85-10.15-2.54-1.2-.24-2.4-.42-3.58-.62l-6.56-22.88a131.3,131.3,0,0,0-31.64,1l-5,23.3a108.28,108.28,0,0,0-13.49,4.12l-17.1-16.52a132.28,132.28,0,0,0-26.87,16.75l7.31,22.65a109.14,109.14,0,0,0-9.65,10.28L398.33,236a130.51,130.51,0,0,0-14.88,28l17.64,15.94c-1,3.31-1.85,6.69-2.54,10.15-.24,1.2-.43,2.38-.63,3.58L375,300.23a131.85,131.85,0,0,0,1,31.64l23.29,5a109.09,109.09,0,0,0,4.12,13.5L387,367.45a132.12,132.12,0,0,0,16.76,26.88L426.36,387a109.36,109.36,0,0,0,10.29,9.66l-5.76,23.07a131.64,131.64,0,0,0,28,14.87L474.79,417c3.31,1,6.7,1.86,10.16,2.55,1.19.24,2.39.42,3.57.61L495.08,443a131.3,131.3,0,0,0,31.64-1l5-23.3a109,109,0,0,0,13.5-4.11l17.1,16.51a132.87,132.87,0,0,0,26.87-16.76l-7.31-22.63a112.16,112.16,0,0,0,9.66-10.3l23.06,5.76a131,131,0,0,0,14.87-28l-17.63-15.94c1-3.32,1.86-6.69,2.55-10.16C614.62,331.93,614.81,330.75,615,329.55Zm-21.07-4.42A94.14,94.14,0,1,1,520,214.42,94.15,94.15,0,0,1,593.93,325.13Z"/></g></g><g class="cls-42"><path class="cls-43" d="M423.18,302.5a96.32,96.32,0,1,1,96.32,96.32A96.31,96.31,0,0,1,423.18,302.5Z"/></g><path class="cls-37" d="M609.64,324.19l22.88-6.57a130.22,130.22,0,0,0-1-31.63l-23.29-5a107.37,107.37,0,0,0-4.11-13.5l16.52-17.1a133.32,133.32,0,0,0-16.76-26.87l-22.64,7.31a110.68,110.68,0,0,0-10.29-9.66l5.75-23.06a130.71,130.71,0,0,0-27.95-14.88l-15.94,17.64c-3.31-1-6.7-1.85-10.15-2.54-1.2-.24-2.4-.42-3.58-.62l-6.57-22.88a131.24,131.24,0,0,0-31.63,1l-5,23.3a110,110,0,0,0-13.49,4.11l-17.1-16.51a132.28,132.28,0,0,0-26.87,16.75l7.31,22.65A109.14,109.14,0,0,0,416,236.43L393,230.68a130.51,130.51,0,0,0-14.88,28l17.64,15.94c-1,3.31-1.85,6.69-2.54,10.15-.24,1.2-.43,2.38-.63,3.58l-22.88,6.56a131.85,131.85,0,0,0,1,31.64l23.29,5A110,110,0,0,0,398.12,345l-16.52,17.1A132.12,132.12,0,0,0,398.36,389L421,381.66a108,108,0,0,0,10.29,9.65l-5.76,23.08a131.4,131.4,0,0,0,28,14.87l15.94-17.64c3.31,1,6.7,1.86,10.16,2.55,1.19.24,2.39.42,3.57.61l6.56,22.89a131.3,131.3,0,0,0,31.64-1l5-23.3a109.57,109.57,0,0,0,13.5-4.11L557,425.75A132.87,132.87,0,0,0,583.83,409l-7.31-22.63a112.16,112.16,0,0,0,9.66-10.3l23.06,5.76a131,131,0,0,0,14.87-28l-17.63-15.94c1-3.32,1.86-6.7,2.55-10.16C609.26,326.57,609.45,325.38,609.64,324.19Zm-21-.5a89.28,89.28,0,1,1-70.1-105A89.27,89.27,0,0,1,588.66,323.69Z"/><g class="cls-44"><g class="cls-45"><path class="cls-46" d="M691.65,192.68l-12.4-18.48c.66-1.17,1.28-2.35,1.83-3.55l22.24-.76a70.16,70.16,0,0,0,2.5-11.76l-20-9.8c0-1.33-.08-2.65-.2-4l18.89-11.78a73.37,73.37,0,0,0-3.68-11.45l-22.21,1.51c-.68-1.14-1.41-2.26-2.18-3.35l10.46-19.64c-1.37-1.45-2.78-2.86-4.29-4.22s-3-2.63-4.64-3.84L659.51,104c-1.16-.65-2.34-1.27-3.54-1.83l-.76-22.25a72.4,72.4,0,0,0-11.76-2.49l-9.81,20c-1.33,0-2.65.09-4,.21L617.88,78.7a72.51,72.51,0,0,0-11.43,3.69l1.49,22.21c-1.14.68-2.24,1.41-3.34,2.18L585,96.32c-1.45,1.37-2.87,2.78-4.23,4.28s-2.62,3.06-3.83,4.65l12.4,18.48c-.65,1.16-1.27,2.34-1.83,3.54l-22.25.76a73.74,73.74,0,0,0-2.5,11.76l20,9.8c0,1.33.08,2.66.2,4L564,165.36a70.77,70.77,0,0,0,3.68,11.43l22.21-1.5c.67,1.14,1.4,2.25,2.18,3.34l-10.47,19.64c1.37,1.45,2.79,2.87,4.29,4.23s3.06,2.62,4.65,3.83L609,193.93c1.17.66,2.34,1.28,3.54,1.83l.77,22.25a73.42,73.42,0,0,0,11.75,2.51l9.81-20c1.33,0,2.66-.1,4-.21l11.79,18.89a72.92,72.92,0,0,0,11.44-3.68l-1.5-22.2c1.13-.69,2.25-1.42,3.34-2.19l19.64,10.45c1.45-1.35,2.88-2.77,4.23-4.27S690.44,194.26,691.65,192.68Zm-34.73-27.47a31.26,31.26,0,1,1-2.25-44.15A31.26,31.26,0,0,1,656.92,165.21Z"/></g></g><path class="cls-37" d="M690.06,189.41l-12.41-18.48c.66-1.16,1.28-2.35,1.83-3.54l22.24-.77a71.08,71.08,0,0,0,2.51-11.75l-20-9.81c0-1.32-.08-2.65-.2-4l18.89-11.79a73.25,73.25,0,0,0-3.68-11.44L677,119.36c-.67-1.14-1.41-2.25-2.18-3.35l10.46-19.63c-1.37-1.46-2.78-2.87-4.29-4.23s-3-2.62-4.63-3.84l-18.48,12.41c-1.17-.66-2.35-1.28-3.55-1.83l-.76-22.25a72.21,72.21,0,0,0-11.76-2.5l-9.81,20c-1.33,0-2.65.09-4,.2L616.28,75.44a72.8,72.8,0,0,0-11.43,3.68l1.49,22.21c-1.13.68-2.24,1.41-3.34,2.19L583.36,93.05c-1.45,1.37-2.87,2.78-4.23,4.28s-2.62,3.07-3.83,4.65l12.4,18.48c-.65,1.16-1.27,2.34-1.83,3.54l-22.24.76a71.61,71.61,0,0,0-2.5,11.76l20,9.8c0,1.33.08,2.66.2,4l-18.89,11.79a71.45,71.45,0,0,0,3.68,11.43L588.32,172c.67,1.13,1.41,2.24,2.18,3.34L580,195c1.37,1.45,2.78,2.87,4.28,4.22s3.06,2.63,4.65,3.84l18.48-12.4c1.16.65,2.33,1.27,3.54,1.82l.76,22.26a73.39,73.39,0,0,0,11.75,2.5l9.82-20c1.32,0,2.65-.09,4-.21l11.79,18.89a70.57,70.57,0,0,0,11.44-3.68l-1.5-22.2c1.13-.68,2.25-1.42,3.34-2.19L682,198.33c1.46-1.36,2.88-2.78,4.23-4.28S688.85,191,690.06,189.41Zm-36.67-25a27.91,27.91,0,1,1-2-39.42A27.92,27.92,0,0,1,653.39,164.4Z"/><g class="cls-47"><g class="cls-48"><path class="cls-49" d="M707.89,263.21l11.57-6.78a42.43,42.43,0,0,0-2.6-8.89l-13.39.53,6.63-11.66a42.77,42.77,0,0,0-6.7-6.4l-11.35,7.15L692,223.75a45.69,45.69,0,0,0-4.44-1.35,43.36,43.36,0,0,0-4.56-.84l-6.25,11.86L670,221.84a42.79,42.79,0,0,0-8.9,2.61l.52,13.4-11.65-6.64a43.27,43.27,0,0,0-6.41,6.7l7.16,11.35-13.41.08a41.86,41.86,0,0,0-2.2,9l11.87,6.25-11.58,6.78a42.88,42.88,0,0,0,2.61,8.89l13.39-.52-6.63,11.65a42.83,42.83,0,0,0,6.7,6.41l11.35-7.15.08,13.41a42.64,42.64,0,0,0,9,2.19l6.25-11.87L684.87,306a42.37,42.37,0,0,0,8.9-2.61L693.24,290l11.66,6.63a42.25,42.25,0,0,0,6.4-6.69l-7.15-11.35,13.41-.08c.52-1.45,1-2.93,1.35-4.45a46.16,46.16,0,0,0,.85-4.56Zm-9.25,4.66A25.58,25.58,0,1,1,679.85,237,25.6,25.6,0,0,1,698.64,267.87Z"/></g></g><g class="cls-50"><path class="cls-51" d="M648.34,262.4A24.7,24.7,0,1,1,673,287.1,24.7,24.7,0,0,1,648.34,262.4Z"/></g><path class="cls-37" d="M704.72,261.1l11.57-6.78a42.52,42.52,0,0,0-2.6-8.9L700.3,246l6.63-11.65a42.4,42.4,0,0,0-6.7-6.41l-11.35,7.16-.08-13.41a41.86,41.86,0,0,0-9-2.2l-6.25,11.87-6.77-11.58a42.79,42.79,0,0,0-8.9,2.61l.52,13.4-11.65-6.64a42.83,42.83,0,0,0-6.41,6.7l7.16,11.35-13.41.08a41.86,41.86,0,0,0-2.2,9l11.87,6.25-11.57,6.77a42.52,42.52,0,0,0,2.6,8.9l13.39-.53-6.63,11.66a43.27,43.27,0,0,0,6.7,6.41l11.35-7.15.08,13.4a43.5,43.5,0,0,0,9,2.2l6.25-11.87,6.77,11.58a42.79,42.79,0,0,0,8.9-2.61l-.53-13.39,11.66,6.63a43.27,43.27,0,0,0,6.41-6.7L701,276.43l13.41-.08c.52-1.44,1-2.92,1.36-4.44s.63-3.05.84-4.56Zm-9.17,6.7a22.91,22.91,0,1,1-16.83-27.69A22.93,22.93,0,0,1,695.55,267.8Z"/></g></g></svg>