<svg xmlns="http://www.w3.org/2000/svg" xmlns:xlink="http://www.w3.org/1999/xlink" viewBox="0 0 705.22 717.26"><defs><style>.cls-1{mask:url(#mask);filter:url(#luminosity-noclip-6);}.cls-10,.cls-2,.cls-23,.cls-25,.cls-29,.cls-33,.cls-34,.cls-37,.cls-4,.cls-41,.cls-6,.cls-8{mix-blend-mode:multiply;}.cls-2{fill:url(#radial-gradient);}.cls-3{mask:url(#mask-2);filter:url(#luminosity-noclip-7);}.cls-4{fill:url(#radial-gradient-2);}.cls-5{mask:url(#mask-3);filter:url(#luminosity-noclip-8);}.cls-6{fill:url(#radial-gradient-3);}.cls-7{mask:url(#mask-4);filter:url(#luminosity-noclip-9);}.cls-8{fill:url(#radial-gradient-4);}.cls-9{mask:url(#mask-5);filter:url(#luminosity-noclip-10);}.cls-10{fill:url(#radial-gradient-5);}.cls-11{isolation:isolate;}.cls-12{fill:#0a5796;}.cls-12,.cls-13{fill-rule:evenodd;}.cls-13,.cls-14{fill:#f7931a;}.cls-15{fill:#2e8dff;}.cls-16{fill:#00b7ff;}.cls-17{fill:#1769bc;}.cls-18{fill:#f7f7f7;}.cls-19{fill:#8feaff;}.cls-20{fill:#caf3ff;}.cls-21{fill:url(#linear-gradient);}.cls-22{fill:url(#linear-gradient-2);}.cls-23,.cls-25,.cls-33,.cls-37{opacity:0.3;}.cls-23{fill:url(#linear-gradient-3);}.cls-24{fill:url(#linear-gradient-4);}.cls-25{fill:url(#linear-gradient-5);}.cls-26{fill:url(#linear-gradient-6);}.cls-27{fill:url(#linear-gradient-7);}.cls-28{fill:none;}.cls-29{opacity:0.6;}.cls-30{mask:url(#mask-6);}.cls-31{fill:url(#radial-gradient-6);}.cls-32{mask:url(#mask-7);}.cls-33{fill:url(#radial-gradient-7);}.cls-34{opacity:0.5;}.cls-35{mask:url(#mask-8);}.cls-36{fill:url(#radial-gradient-8);}.cls-38{mask:url(#mask-9);}.cls-39{fill:url(#radial-gradient-9);}.cls-40{mask:url(#mask-10);}.cls-41{opacity:0.8;fill:url(#radial-gradient-10);}.cls-42{fill:url(#linear-gradient-8);}.cls-43{fill:url(#linear-gradient-9);}.cls-44{fill:url(#linear-gradient-10);}.cls-45{fill:#f4f7fa;mix-blend-mode:soft-light;opacity:0.44;}.cls-46{filter:url(#luminosity-noclip-5);}.cls-47{filter:url(#luminosity-noclip-4);}.cls-48{filter:url(#luminosity-noclip-3);}.cls-49{filter:url(#luminosity-noclip-2);}.cls-50{filter:url(#luminosity-noclip);}</style><filter id="luminosity-noclip" x="360" y="-8550.26" width="263.86" height="32766" filterUnits="userSpaceOnUse" color-interpolation-filters="sRGB"><feFlood flood-color="#fff" result="bg"/><feBlend in="SourceGraphic" in2="bg"/></filter><mask id="mask" x="360" y="-8550.26" width="263.86" height="32766" maskUnits="userSpaceOnUse"><g class="cls-50"/></mask><radialGradient id="radial-gradient" cx="491.93" cy="311.61" r="131.93" gradientUnits="userSpaceOnUse"><stop offset="0.34" stop-color="#fff"/><stop offset="0.51" stop-color="#fcfcfc"/><stop offset="0.62" stop-color="#f3f3f3"/><stop offset="0.72" stop-color="#e5e5e5"/><stop offset="0.81" stop-color="#cfcfcf"/><stop offset="0.89" stop-color="#b4b4b4"/><stop offset="0.96" stop-color="#939393"/><stop offset="1" stop-color="gray"/></radialGradient><filter id="luminosity-noclip-2" x="408.64" y="-8550.26" width="192.64" height="32766" filterUnits="userSpaceOnUse" color-interpolation-filters="sRGB"><feFlood flood-color="#fff" result="bg"/><feBlend in="SourceGraphic" in2="bg"/></filter><mask id="mask-2" x="408.64" y="-8550.26" width="192.64" height="32766" maskUnits="userSpaceOnUse"><g class="cls-49"/></mask><radialGradient id="radial-gradient-2" cx="504.96" cy="302.5" r="120.4" gradientUnits="userSpaceOnUse"><stop offset="0.6"/><stop offset="0.62" stop-color="#050505"/><stop offset="0.64" stop-color="#121212"/><stop offset="0.67" stop-color="#292929"/><stop offset="0.7" stop-color="#494949"/><stop offset="0.72" stop-color="#737373"/><stop offset="0.75" stop-color="#a4a4a4"/><stop offset="0.75" stop-color="#a6a6a6"/><stop offset="0.8" stop-color="#a8a8a8"/><stop offset="0.82" stop-color="#afafaf"/><stop offset="0.83" stop-color="#bababa"/><stop offset="0.84" stop-color="#cbcbcb"/><stop offset="0.84" stop-color="#e1e1e1"/><stop offset="0.85" stop-color="#fcfcfc"/><stop offset="0.85" stop-color="#fff"/></radialGradient><filter id="luminosity-noclip-3" x="548.19" y="-8550.26" width="143.1" height="32766" filterUnits="userSpaceOnUse" color-interpolation-filters="sRGB"><feFlood flood-color="#fff" result="bg"/><feBlend in="SourceGraphic" in2="bg"/></filter><mask id="mask-3" x="548.19" y="-8550.26" width="143.1" height="32766" maskUnits="userSpaceOnUse"><g class="cls-48"/></mask><radialGradient id="radial-gradient-3" cx="-760.57" cy="1003.08" r="72.11" gradientTransform="translate(1664.7 -552.95) rotate(18.94)" xlink:href="#radial-gradient"/><filter id="luminosity-noclip-4" x="620.52" y="-8550.26" width="84.7" height="32766" filterUnits="userSpaceOnUse" color-interpolation-filters="sRGB"><feFlood flood-color="#fff" result="bg"/><feBlend in="SourceGraphic" in2="bg"/></filter><mask id="mask-4" x="620.52" y="-8550.26" width="84.7" height="32766" maskUnits="userSpaceOnUse"><g class="cls-47"/></mask><radialGradient id="radial-gradient-4" cx="662.87" cy="263.9" r="42.35" xlink:href="#radial-gradient"/><filter id="luminosity-noclip-5" x="633.8" y="-8550.26" width="49.4" height="32766" filterUnits="userSpaceOnUse" color-interpolation-filters="sRGB"><feFlood flood-color="#fff" result="bg"/><feBlend in="SourceGraphic" in2="bg"/></filter><mask id="mask-5" x="633.8" y="-8550.26" width="49.4" height="32766" maskUnits="userSpaceOnUse"><g class="cls-46"/></mask><radialGradient id="radial-gradient-5" cx="658.5" cy="262.4" r="30.87" gradientUnits="userSpaceOnUse"><stop offset="0.57"/><stop offset="0.6" stop-color="#040404"/><stop offset="0.63" stop-color="#101010"/><stop offset="0.66" stop-color="#242424"/><stop offset="0.68" stop-color="#3f3f3f"/><stop offset="0.71" stop-color="#636363"/><stop offset="0.74" stop-color="#8f8f8f"/><stop offset="0.77" stop-color="#c2c2c2"/><stop offset="0.79" stop-color="#f2f2f2"/></radialGradient><linearGradient id="linear-gradient" x1="5279.98" y1="729.22" x2="5284.3" y2="694.7" gradientTransform="matrix(-1, 0, 0, 1, 5632.2, 0)" gradientUnits="userSpaceOnUse"><stop offset="0" stop-color="#26264f"/><stop offset="1" stop-color="#444b8c"/></linearGradient><linearGradient id="linear-gradient-2" x1="5262.23" y1="697.76" x2="5305.38" y2="620.08" xlink:href="#linear-gradient"/><linearGradient id="linear-gradient-3" x1="5213.43" y1="660.95" x2="5356.65" y2="660.95" xlink:href="#linear-gradient"/><linearGradient id="linear-gradient-4" x1="5266.34" y1="676.53" x2="5308.95" y2="594.54" xlink:href="#linear-gradient"/><linearGradient id="linear-gradient-5" x1="5207.02" y1="636.81" x2="5362.99" y2="636.81" xlink:href="#linear-gradient"/><linearGradient id="linear-gradient-6" x1="5204.71" y1="608.63" x2="5365.38" y2="608.63" xlink:href="#linear-gradient"/><linearGradient id="linear-gradient-7" x1="5281.05" y1="596.51" x2="5296.87" y2="522.43" xlink:href="#linear-gradient"/><filter id="luminosity-noclip-6" x="360" y="179.68" width="263.86" height="263.87" filterUnits="userSpaceOnUse" color-interpolation-filters="sRGB"><feFlood flood-color="#fff" result="bg"/><feBlend in="SourceGraphic" in2="bg"/></filter><mask id="mask-6" x="360" y="179.68" width="263.86" height="263.87" maskUnits="userSpaceOnUse"><g class="cls-1"><path class="cls-2" d="M600.47,329.55,623.34,323a130.22,130.22,0,0,0-1-31.63l-23.28-5a109.09,109.09,0,0,0-4.12-13.5l16.52-17.09a133.39,133.39,0,0,0-16.76-26.88L572,236.19a112.07,112.07,0,0,0-10.3-9.66l5.75-23.06a130.47,130.47,0,0,0-28-14.88L523.6,206.23c-3.31-1-6.69-1.85-10.15-2.54-1.2-.24-2.39-.42-3.58-.62l-6.56-22.88a131.3,131.3,0,0,0-31.64,1l-5,23.3a108.28,108.28,0,0,0-13.49,4.12l-17.1-16.52a132.28,132.28,0,0,0-26.87,16.75l7.31,22.65a110.46,110.46,0,0,0-9.65,10.28L383.79,236a131,131,0,0,0-14.88,28l17.64,15.94c-1,3.31-1.85,6.69-2.54,10.15-.24,1.2-.43,2.38-.62,3.58l-22.88,6.56a130.83,130.83,0,0,0,1,31.64l23.28,5a109.09,109.09,0,0,0,4.12,13.5l-16.52,17.1a132.56,132.56,0,0,0,16.76,26.88L411.82,387a109.36,109.36,0,0,0,10.29,9.66l-5.75,23.07a131.33,131.33,0,0,0,27.95,14.87L460.25,417c3.31,1,6.7,1.86,10.16,2.55,1.19.24,2.39.42,3.57.61L480.54,443a131.3,131.3,0,0,0,31.64-1l5-23.3a109,109,0,0,0,13.5-4.11l17.1,16.51a132.6,132.6,0,0,0,26.87-16.76l-7.3-22.63a113.45,113.45,0,0,0,9.65-10.3l23.06,5.76a131,131,0,0,0,14.87-28L597.3,343.28c1-3.32,1.86-6.69,2.55-10.16C600.09,331.93,600.27,330.75,600.47,329.55Zm-21.08-4.42a94.14,94.14,0,1,1-73.93-110.71A94.15,94.15,0,0,1,579.39,325.13Z"/></g></mask><radialGradient id="radial-gradient-6" cx="491.93" cy="311.61" r="131.93" gradientUnits="userSpaceOnUse"><stop offset="0.34" stop-color="#808285"/><stop offset="0.51" stop-color="#838588"/><stop offset="0.62" stop-color="#8c8d90"/><stop offset="0.72" stop-color="#9a9c9e"/><stop offset="0.81" stop-color="#b0b1b3"/><stop offset="0.89" stop-color="#cbcccd"/><stop offset="0.96" stop-color="#eceded"/><stop offset="1" stop-color="#fff"/></radialGradient><filter id="luminosity-noclip-7" x="408.64" y="206.18" width="192.64" height="192.64" filterUnits="userSpaceOnUse" color-interpolation-filters="sRGB"><feFlood flood-color="#fff" result="bg"/><feBlend in="SourceGraphic" in2="bg"/></filter><mask id="mask-7" x="408.64" y="206.18" width="192.64" height="192.64" maskUnits="userSpaceOnUse"><g class="cls-3"><path class="cls-4" d="M408.64,302.5A96.32,96.32,0,1,1,505,398.82,96.31,96.31,0,0,1,408.64,302.5Z"/></g></mask><radialGradient id="radial-gradient-7" cx="504.96" cy="302.5" r="120.4" gradientUnits="userSpaceOnUse"><stop offset="0.6" stop-color="#fff"/><stop offset="0.61" stop-color="#fafafa"/><stop offset="0.63" stop-color="#edeced"/><stop offset="0.65" stop-color="#d7d6d6"/><stop offset="0.68" stop-color="#b8b6b6"/><stop offset="0.7" stop-color="#908c8d"/><stop offset="0.72" stop-color="#5f5a5b"/><stop offset="0.75" stop-color="#261f21"/><stop offset="0.75" stop-color="#130c0e"/><stop offset="0.84" stop-color="#130c0e"/><stop offset="0.85" stop-color="#130c0e"/></radialGradient><filter id="luminosity-noclip-8" x="548.19" y="77.41" width="143.1" height="143.11" filterUnits="userSpaceOnUse" color-interpolation-filters="sRGB"><feFlood flood-color="#fff" result="bg"/><feBlend in="SourceGraphic" in2="bg"/></filter><mask id="mask-8" x="548.19" y="77.41" width="143.1" height="143.11" maskUnits="userSpaceOnUse"><g class="cls-5"><path class="cls-6" d="M677.12,192.68,664.71,174.2c.66-1.17,1.28-2.35,1.83-3.55l22.24-.76a71.2,71.2,0,0,0,2.51-11.76l-20-9.8c0-1.33-.08-2.65-.2-4L690,132.57a73.37,73.37,0,0,0-3.68-11.45l-22.21,1.51c-.67-1.14-1.41-2.26-2.18-3.35l10.46-19.64c-1.37-1.45-2.78-2.86-4.29-4.22s-3.05-2.63-4.63-3.84L645,104c-1.17-.65-2.35-1.27-3.55-1.83l-.76-22.25a72.18,72.18,0,0,0-11.76-2.49l-9.81,20c-1.33,0-2.65.09-4,.21L603.34,78.7a72.84,72.84,0,0,0-11.43,3.69l1.49,22.21c-1.14.68-2.24,1.41-3.34,2.18L570.42,96.32c-1.45,1.37-2.87,2.78-4.23,4.28s-2.62,3.06-3.83,4.65l12.4,18.48c-.65,1.16-1.27,2.34-1.83,3.54l-22.24.76a71.61,71.61,0,0,0-2.5,11.76l20,9.8c0,1.33.08,2.66.2,4l-18.89,11.79a71.77,71.77,0,0,0,3.68,11.43l22.21-1.5c.67,1.14,1.4,2.25,2.18,3.34L567.1,198.27c1.37,1.45,2.78,2.87,4.28,4.23s3.06,2.62,4.65,3.83l18.47-12.4c1.17.66,2.34,1.28,3.55,1.83l.76,22.25a73.42,73.42,0,0,0,11.75,2.51l9.82-20c1.32,0,2.65-.1,4-.21l11.79,18.89a72.58,72.58,0,0,0,11.44-3.68l-1.5-22.2c1.13-.69,2.25-1.42,3.34-2.19l19.64,10.45c1.45-1.35,2.88-2.77,4.23-4.27S675.91,194.26,677.12,192.68Zm-34.73-27.47a31.26,31.26,0,1,1-2.25-44.15A31.27,31.27,0,0,1,642.39,165.21Z"/></g></mask><radialGradient id="radial-gradient-8" cx="-760.57" cy="1003.08" r="72.11" gradientTransform="translate(1664.7 -552.95) rotate(18.94)" xlink:href="#radial-gradient-6"/><filter id="luminosity-noclip-9" x="620.52" y="221.56" width="84.7" height="84.69" filterUnits="userSpaceOnUse" color-interpolation-filters="sRGB"><feFlood flood-color="#fff" result="bg"/><feBlend in="SourceGraphic" in2="bg"/></filter><mask id="mask-9" x="620.52" y="221.56" width="84.7" height="84.69" maskUnits="userSpaceOnUse"><g class="cls-7"><path class="cls-8" d="M693.35,263.21l11.57-6.78a42.43,42.43,0,0,0-2.6-8.89l-13.39.53,6.63-11.66a42.33,42.33,0,0,0-6.7-6.4l-11.35,7.15-.07-13.41c-1.45-.52-2.93-1-4.45-1.35a42.89,42.89,0,0,0-4.56-.84l-6.25,11.86-6.77-11.58a42.79,42.79,0,0,0-8.9,2.61l.52,13.4-11.65-6.64a43.27,43.27,0,0,0-6.41,6.7l7.16,11.35-13.41.08a41.86,41.86,0,0,0-2.2,9l11.87,6.25-11.57,6.78a42.25,42.25,0,0,0,2.6,8.89l13.4-.52-6.64,11.65a43.27,43.27,0,0,0,6.7,6.41l11.35-7.15.08,13.41a42.64,42.64,0,0,0,9,2.19l6.25-11.87L670.33,306a42.19,42.19,0,0,0,8.9-2.61L678.71,290l11.65,6.63a42.76,42.76,0,0,0,6.41-6.69l-7.16-11.35,13.41-.08c.52-1.45,1-2.93,1.36-4.45s.63-3,.84-4.56Zm-9.25,4.66A25.58,25.58,0,1,1,665.31,237,25.59,25.59,0,0,1,684.1,267.87Z"/></g></mask><radialGradient id="radial-gradient-9" cx="662.87" cy="263.9" r="42.35" xlink:href="#radial-gradient-6"/><filter id="luminosity-noclip-10" x="633.8" y="237.7" width="49.4" height="49.4" filterUnits="userSpaceOnUse" color-interpolation-filters="sRGB"><feFlood flood-color="#fff" result="bg"/><feBlend in="SourceGraphic" in2="bg"/></filter><mask id="mask-10" x="633.8" y="237.7" width="49.4" height="49.4" maskUnits="userSpaceOnUse"><g class="cls-9"><path class="cls-10" d="M633.8,262.4a24.7,24.7,0,1,1,24.7,24.7A24.7,24.7,0,0,1,633.8,262.4Z"/></g></mask><radialGradient id="radial-gradient-10" cx="658.5" cy="262.4" r="30.87" gradientUnits="userSpaceOnUse"><stop offset="0.57" stop-color="#fff"/><stop offset="0.6" stop-color="#fbfbfb"/><stop offset="0.63" stop-color="#f0efef"/><stop offset="0.66" stop-color="#dcdbdc"/><stop offset="0.68" stop-color="#c1c0c0"/><stop offset="0.71" stop-color="#9f9c9d"/><stop offset="0.74" stop-color="#747071"/><stop offset="0.77" stop-color="#433d3f"/><stop offset="0.79" stop-color="#130c0e"/></radialGradient><linearGradient id="linear-gradient-8" x1="134.06" y1="163.35" x2="426.03" y2="163.35" gradientUnits="userSpaceOnUse"><stop offset="0" stop-color="#2580e3"/><stop offset="0.04" stop-color="#2383e5"/><stop offset="0.41" stop-color="#10a0f3"/><stop offset="0.74" stop-color="#04b1fc"/><stop offset="0.98" stop-color="#00b7ff"/></linearGradient><linearGradient id="linear-gradient-9" x1="203.06" y1="232.34" x2="495.02" y2="232.34" xlink:href="#linear-gradient-8"/><linearGradient id="linear-gradient-10" x1="272.05" y1="301.34" x2="564.02" y2="301.34" xlink:href="#linear-gradient-8"/></defs><g class="cls-11"><g id="Layer_1" data-name="Layer 1"><path class="cls-12" d="M625.65,43.53l-2.2-2.21a12.21,12.21,0,0,0-9-3.71H589.1a12.21,12.21,0,0,0-9,3.71L569.78,51.68H532.54a12.36,12.36,0,0,0-11,6.33l-4.83,8.37H459.14a12.24,12.24,0,0,0-8.95,3.7L434.67,85.6h-48a15.1,15.1,0,0,0-1.92.13l-.25,0a0,0,0,0,0,0,0,11.74,11.74,0,0,0-5.35,2.3,12.17,12.17,0,0,0-1.46,1.27l-8.43,8.52-2.61,2.64a12.28,12.28,0,0,0-.84.94h0a11.88,11.88,0,0,0-2,3.46,12.26,12.26,0,0,0-.78,4.27,1.62,1.62,0,0,0,0,.22v5.19l-14.28,14.28-5.92,5.91-2.56,2.56a12.24,12.24,0,0,0-3.7,9V166l-29,29.05a12.18,12.18,0,0,0-3.7,8.94v33a12.16,12.16,0,0,0,3.2,8.41c.16.18.33.36.5.53l.94.94.53.52,6.77,6.77.7.71.73.73a12.33,12.33,0,0,0,8.94,3.7h9.62l16.35,16.36,2,2v31a12.24,12.24,0,0,0,3.71,8.94l11.7,11.68A12.16,12.16,0,0,0,378.4,333h9.79a12.66,12.66,0,0,0,5-1,11.58,11.58,0,0,0,3.43-2.25,12.67,12.67,0,0,0,2.41-3l3.72-6.44a12.15,12.15,0,0,0,1.7-6.33V306l10.25-10.25a12.23,12.23,0,0,0,3.71-8.95V257l8.56-8.56a12.26,12.26,0,0,0,3.7-8.95v-9.22l3.78-3.77h0l2.56-2.55h0l12.45-12.45h14.24l6.54,3.78h0l1.52.86,1.78,1,4.12,2.39,1.66.95,6.23,3.6a12.13,12.13,0,0,0,6.33,1.7h39.77a12.23,12.23,0,0,0,9-3.71l9.49-9.5,11.23-11.23a12.16,12.16,0,0,0,3.71-8.94V178.93l8.19-14.18,2.1-3.65L583.47,147h12.71a12.22,12.22,0,0,0,8.94-3.7l3.49-3.5a12.19,12.19,0,0,0,3.71-8.94V111.25a12.23,12.23,0,0,0-3.71-9L603.36,97V92.7l5.49-5.49,2.45-2.45,14.35-14.35a12.23,12.23,0,0,0,3.71-9v-9A12.16,12.16,0,0,0,625.65,43.53Zm4.29,268.18L619.43,301.2a12.2,12.2,0,0,0-7.64-3.64c-.43,0-.86-.06-1.31-.06H551.35a12.35,12.35,0,0,0-5,1,12.55,12.55,0,0,0-4,2.72L539,304.64a12.91,12.91,0,0,0-2.63,3.77,12.51,12.51,0,0,0-1.07,5.18v6.14a12.19,12.19,0,0,0,1.4,5.81c.09.17.18.35.29.52l1.26,2.18,4.58,7.94.2.34a12.55,12.55,0,0,0,2.29,2.92,12.31,12.31,0,0,0,8.66,3.41h8.65l10.5,18.21,2,3.47,1.66,2.89a12.39,12.39,0,0,0,11,6.33h4.42a12.23,12.23,0,0,0,8.94-3.71l20.32-20.32,2.46-2.45,6.07-6.07a12.26,12.26,0,0,0,3.7-8.95v-11.6A12.26,12.26,0,0,0,629.94,311.71ZM261.57,259.08,244.2,241.71a13.36,13.36,0,0,0-2.39-1.91,12.29,12.29,0,0,0-6.56-1.8H213.59l-4.72-4.71-12.51-12.52V203.72l16.44-16.43,2.45-2.45h0l9-9L242.11,158a187.15,187.15,0,0,0-27.61,15.31h-6.59a2.69,2.69,0,0,1-2.41-3.85s0,0,0,0q3-6,6.51-11.76A59.66,59.66,0,0,0,245,118c.34-1.36.64-2.74.88-4.13a57.23,57.23,0,0,0,.86-8.23c0-.71,0-1.42,0-2.14,0-1.51,0-3-.16-4.48A12.79,12.79,0,0,0,245,97.89l-.52-.3-3.44-2-8.23-4.75a12.11,12.11,0,0,0-6.32-1.69H172.93L145.12,61.34l-5.51-5.51-4.45-4.45-2.45-2.45a12.25,12.25,0,0,0-9-3.71h-27a12.15,12.15,0,0,0-7.31,2.33L75.08,57.72A12.29,12.29,0,0,0,69.73,68V84.42a12.18,12.18,0,0,0,3.66,8.9l0,.05,2.4,2.4,5,5a12.23,12.23,0,0,0,9,3.71H100.1l14.67,14.67V202a12.23,12.23,0,0,0,3.71,9L128.61,221a12.22,12.22,0,0,0,9,3.71h20.21l14.67,14.67V275a12.21,12.21,0,0,0,3.71,8.95l1.55,1.55,24.23,24.23v47.75a189.78,189.78,0,0,0,22.42,26.72,12.32,12.32,0,0,0,5.37-10.35v-8.39l7.47-12.95,5.37-9.31a14.53,14.53,0,0,0,.81-1.63,11.41,11.41,0,0,0,.71-2.49,13.76,13.76,0,0,0,.16-1.6c0-.2,0-.4,0-.61V309.31l1.91-1.92,1.24-1.23,4.62-4.62,9.53-9.53a12.26,12.26,0,0,0,3.71-8.95V268A12.23,12.23,0,0,0,261.57,259.08Zm314.13-1.23A12.64,12.64,0,0,0,554.16,250l-.91.91-.06.07-.2.19a12.56,12.56,0,0,0-3.54,6.63,12.8,12.8,0,0,0-4-.64H526.58a12.19,12.19,0,0,0-8.94,3.71l-.84.83a12.65,12.65,0,0,0,9,21.6h18.41a82.73,82.73,0,0,0,3.89-8.59v8.13a10.63,10.63,0,0,0,2.08-.79q.81-4.35,1.4-8.68v7.87a13.2,13.2,0,0,0,2-1.65l.83-.83a12.67,12.67,0,0,0,3.54-6.62,13.14,13.14,0,0,0,4,.63h1.15a12.19,12.19,0,0,0,8.94-3.71l0,0a12.09,12.09,0,0,0,3.65-7.72q.06-.6.06-1.23V259A10,10,0,0,0,575.7,257.85ZM408,62.83a12.79,12.79,0,0,0-1.74-3A12.19,12.19,0,0,0,401.31,56,12.92,12.92,0,0,0,397,55l-.69,0H377.18a12.76,12.76,0,0,0-3.37.5,2,2,0,0,0-.26.09,12.33,12.33,0,0,0-5,3.11l-.84.84a12.58,12.58,0,0,0-3.53,6.62,12.91,12.91,0,0,0-4.05-.63H359a12.2,12.2,0,0,0-9,3.7l0,0a12,12,0,0,0-3.21,5.37c-.08.25-.14.51-.2.77a12.79,12.79,0,0,0-.29,2.8v1.14c0,.26,0,.52,0,.78a13.81,13.81,0,0,0,.28,2.06,12.31,12.31,0,0,0,3.88,6.59,11.86,11.86,0,0,0,2.12,1.52,11.6,11.6,0,0,0,1.5.74,12.78,12.78,0,0,0,3.64.94l.88,0a12.15,12.15,0,0,0,6.61-1.68c.42-.25.84-.52,1.25-.82a10.58,10.58,0,0,0,.84-.69q.29-.26.57-.54l1.18-1.17a12.81,12.81,0,0,0,1.55-1.87,12.36,12.36,0,0,0,1.83-4,1.55,1.55,0,0,0,0-.21,4.54,4.54,0,0,0,.12-.5l.3.08a12.81,12.81,0,0,0,3.74.54h18.81a12.27,12.27,0,0,0,6.29-1.64,12.62,12.62,0,0,0,2.58-2l.09-.09.83-.84a12.72,12.72,0,0,0,2.83-4.2,12,12,0,0,0,.48-1.43A12.5,12.5,0,0,0,408,62.83Zm-68.67-5.12c0-.11,0-.21,0-.32a12.8,12.8,0,0,0-.4-1.88,11.48,11.48,0,0,0-1.49-3.17,12.54,12.54,0,0,0-1.7-2.07l-5-5a12.18,12.18,0,0,0-8.94-3.7H294.52l-9.13-9.13a12.19,12.19,0,0,0-8.95-3.71H244.25a12.19,12.19,0,0,0-8.95,3.71l-7.69,7.69h-28a12.18,12.18,0,0,0-8.94,3.7l-5.4,5.4a12.67,12.67,0,0,0,0,17.88L191.1,73A12.23,12.23,0,0,0,200,76.66h40.7l12.36,7.13,2.46,1.42,5.66,3.26,3.94,2.28v19.17a11.51,11.51,0,0,0,.14,1.87,12.08,12.08,0,0,0,3.57,7.07l1.89,1.9.6.6a12.48,12.48,0,0,0,2.43,1.9,12.71,12.71,0,0,0,15.46-1.9l19.19-19.2,3.92-3.91,2.56-2.56,20.76-20.77c.17-.17.34-.35.5-.53a11.9,11.9,0,0,0,2.89-5.48,12.71,12.71,0,0,0,.32-2.93V59.22A15,15,0,0,0,339.31,57.71Z"/><path class="cls-13" d="M231.44,312.2a3.51,3.51,0,0,1,2.82-1.35h26v-3.46H227.73a1.67,1.67,0,0,0-1.69,2c.06.3.11.6.17.89.84,4.5,1.83,9,2.94,13.43q.94,3.74,2,7.42c.48,1.69,1,3.36,1.51,5,.11.39.24.77.36,1.16,0,.12.06.21.08.33a1.76,1.76,0,0,0,1.7,1.36h8.84a3.15,3.15,0,0,1,.44,0,3.49,3.49,0,0,1,2.13,1l14,14v-4.91L247.1,336.07a1.72,1.72,0,0,0-1.23-.51h-7.12a3.56,3.56,0,0,1-3.36-2.24,2.86,2.86,0,0,1-.12-.35c-1-3.33-1.91-6.68-2.76-10.06q-1-3.81-1.8-7.67a3.54,3.54,0,0,1,.41-2.58A2.72,2.72,0,0,1,231.44,312.2Zm462.38-23.11-.7-.7-13.47-13.46a3.68,3.68,0,0,1-.87-1.43,23,23,0,0,1-2.21,3.26.69.69,0,0,1,.13.11l12.85,12.86a3.58,3.58,0,0,1,1,1.64,4,4,0,0,1,.08,1.34,232.13,232.13,0,0,1-39.87,105.87,234.65,234.65,0,0,1-79.84,72,3.63,3.63,0,0,1-5.37-3.18V422.71a3.5,3.5,0,0,1,1.06-2.56l19.34-19.33a3.45,3.45,0,0,1,2.56-1.07h28.7a1.74,1.74,0,0,0,1.32-.61,1.07,1.07,0,0,1,.18-.19L637.55,380a1.68,1.68,0,0,0,.51-1.2V362.18a1.69,1.69,0,0,0-.51-1.22l-13.68-13.69-3-3a1.72,1.72,0,0,0-1.24-.51H594.48a1.73,1.73,0,0,0-1.23.51L577.56,360a3.47,3.47,0,0,1-2.56,1.07h-4.11a3.64,3.64,0,0,1-3.62-3.63,21.35,21.35,0,0,0-5.74-14.58c-.17-.2-.36-.39-.55-.58l0,0a21.29,21.29,0,0,0-18.16-6.07,21.13,21.13,0,0,0-7,2.25,21.52,21.52,0,0,0-5.21,3.84,3.62,3.62,0,0,1-3,1,3.42,3.42,0,0,1-1.26-.39,3.34,3.34,0,0,1-.89-.64L492,308.74a3.48,3.48,0,0,1-1.06-2.56v-20a1.69,1.69,0,0,0-.51-1.22L470,264.63a1.69,1.69,0,0,0-1.22-.51h-15.3a1.81,1.81,0,0,0-1.06.36,1.92,1.92,0,0,0-.29.28l-.16.2-1.37,1.44L445.3,272l-7,7.28-4.26,4.47v5l1.05-1.1,4.87-5.1,8.64-9,4.54-4.76a2.5,2.5,0,0,1,.34-.31,3.47,3.47,0,0,1,2.28-.82h10.8a3.47,3.47,0,0,1,2.56,1.07l3.66,3.66,4.7,4.7,8.86,8.86a3.46,3.46,0,0,1,1.06,2.56v20a1.74,1.74,0,0,0,.5,1.22l14.22,14.22,2.27,2.28,20.29,20.29a3.28,3.28,0,0,1,.61.79,3.53,3.53,0,0,1,.25,3,21.36,21.36,0,0,0-1.24,6.11c0,.37,0,.75,0,1.12a21.37,21.37,0,0,0,6.3,15.16l0,0a21.4,21.4,0,0,0,30.31,0l0,0a21.74,21.74,0,0,0,4.22-6,3.57,3.57,0,0,1,3.28-2.07h8.74a1.73,1.73,0,0,0,1.23-.51l15.69-15.69a3.48,3.48,0,0,1,2.56-1.06h20.74a3.53,3.53,0,0,1,2.58,1.06l1.39,1.39,12.12,12.12a3.54,3.54,0,0,1,1.06,2.56v12.25a3.54,3.54,0,0,1-1.06,2.56l-16,16a3.46,3.46,0,0,1-2.56,1.06H586.26a1.66,1.66,0,0,0-1.23.51l-22.48,22.47a1.75,1.75,0,0,0-.51,1.23v55.29c0,.15,0,.28,0,.42a1.85,1.85,0,0,0,.18.77,1.75,1.75,0,0,0,2.31.77,238,238,0,0,0,89-77.22,235.44,235.44,0,0,0,40.71-109.66,1.72,1.72,0,0,1,0-.24A1.74,1.74,0,0,0,693.82,289.09ZM558.54,370.15v0a18,18,0,0,1-25.45,0l0,0a18,18,0,0,1,0-25.45h0a17.84,17.84,0,0,1,12.2-5.25h.52a17.92,17.92,0,0,1,10.56,3.42,17.18,17.18,0,0,1,2.17,1.84h0a18,18,0,0,1,0,25.45Zm-118-137.83a21.4,21.4,0,0,0,26.87-2.8l0,0a21.28,21.28,0,0,0,4.84-7.41,21,21,0,0,0,1.26-5,21.55,21.55,0,0,0,.19-2.79,21.26,21.26,0,0,0-3.49-11.71.51.51,0,0,1-.09-.16,3.51,3.51,0,0,1-.39-2.71,3.66,3.66,0,0,1,1-1.68l4.86-4.87,4.5-4.49,17.3-17.3a3.49,3.49,0,0,1,2.56-1.06h52.2a1.66,1.66,0,0,0,1.22-.52l6.33-6.31a3.55,3.55,0,0,1,4.09-.73,21.26,21.26,0,0,0,9,2h.49a21.34,21.34,0,0,0,14.67-6.28l0,0a21.38,21.38,0,0,0,0-30.31l0,0a21.5,21.5,0,0,0-5.6-4,3.53,3.53,0,0,1-2-3.23V112a1.72,1.72,0,0,0-.51-1.23L559.25,90.16a3.47,3.47,0,0,1-1.07-2.56V60.5a3.63,3.63,0,0,1,5.26-3.23,234.34,234.34,0,0,1,39.28,24.95c2.06,1.63,4.11,3.29,6.12,5h0a234,234,0,0,1,31.77,32.41,3.52,3.52,0,0,1,.79,2.28v52.32a1.73,1.73,0,0,0,.51,1.23l16.75,16.74a3.48,3.48,0,0,1,1.06,2.56v38.32a3.6,3.6,0,0,1-2.76,3.52,21.49,21.49,0,0,0-10.08,5.67v0c-.39.39-.77.8-1.13,1.22a22.83,22.83,0,0,1,14.77-4c.51-.05,1-.07,1.54-.07a17.94,17.94,0,0,1,12.72,5.25l0,0a17.87,17.87,0,0,1,4.47,7.47v0a22.87,22.87,0,0,1,1.85,15,21.43,21.43,0,0,0-3.9-25l0,0a21.55,21.55,0,0,0-11.08-5.9,3.59,3.59,0,0,1-2.93-3.56V192.53a1.72,1.72,0,0,0-.5-1.23L646,174.57a3.47,3.47,0,0,1-1.07-2.57l0-51.94a1.69,1.69,0,0,0-.37-1.06,237.29,237.29,0,0,0-33.2-34.24q-3.18-2.7-6.44-5.26a237.89,237.89,0,0,0-45-27.82q-1.12-.54-2.25-1a1.83,1.83,0,0,1-.28-.14,1.69,1.69,0,0,0-.85-.23,1.72,1.72,0,0,0-1.7,1.42,1.19,1.19,0,0,0,0,.33V89.82a1.72,1.72,0,0,0,.51,1.23l20.56,20.56a3.5,3.5,0,0,1,1.06,2.56v4a3.64,3.64,0,0,1-3.66,3.62h-.43a21.32,21.32,0,0,0-15.15,6.29l0,0c-.26.25-.51.51-.74.77a21.42,21.42,0,0,0-.67,28l.24.29a3.61,3.61,0,0,1-.19,4.91L553.3,165l-.8.79a3.53,3.53,0,0,1-2.57,1.06H497.74a1.64,1.64,0,0,0-1.1.42.41.41,0,0,0-.13.1l-25.08,25.08L469,194.89l-.8.8a3.6,3.6,0,0,1-4.5.5,21.4,21.4,0,0,0-26.6,3l0,0a21.92,21.92,0,0,0-3,3.8v22.71l.05.09a2.71,2.71,0,0,1,.34.68h0a3.56,3.56,0,0,1-.39,3.27v5l1.94-2A3.59,3.59,0,0,1,440.57,232.32Zm116.64-80a18,18,0,0,1,.46-18.9,17.32,17.32,0,0,1,2.34-2.89v0a18.06,18.06,0,0,1,25.46,0l0,0a17.92,17.92,0,0,1,5.25,12.72,18.44,18.44,0,0,1-.39,3.73,17.9,17.9,0,0,1-4.86,9h0a17.91,17.91,0,0,1-10.14,5.07,20.11,20.11,0,0,1-2.59.18A17.94,17.94,0,0,1,560,156h0A17.61,17.61,0,0,1,557.21,152.36Zm-122.92,62a17.9,17.9,0,0,1,5.25-12.72l0,0a18,18,0,0,1,25.45,0l0,0a17.94,17.94,0,0,1,5.25,12.72c0,.29,0,.58,0,.89h0A18,18,0,0,1,465,227.07h0a18,18,0,0,1-25.45,0h0a17.52,17.52,0,0,1-2.51-3.16h0A17.88,17.88,0,0,1,434.29,214.34Zm3.09,163a21.55,21.55,0,0,0-3.3-8.42v9.89c.05.57.09,1.15.09,1.74a1.77,1.77,0,0,1,0,.23c0,.65,0,1.31-.1,2v9.88a21.38,21.38,0,0,0,3.57-11.84v-.08A20.77,20.77,0,0,0,437.38,377.29Z"/><path class="cls-13" d="M611.79,291.28v6.28c-.43,0-.86-.06-1.31-.06h-2.16v-4a3.54,3.54,0,0,0-1.06-2.57l-28.55-28.54a3.52,3.52,0,0,0-2.56-1.06h-.45c0-.41.06-.82.06-1.24V259a10,10,0,0,0-.06-1.1h2.67a1.7,1.7,0,0,1,1.23.52l31.68,31.68A1.72,1.72,0,0,1,611.79,291.28Z"/><path class="cls-13" d="M467.59,307.72a1.65,1.65,0,0,0-.69-.3,1.46,1.46,0,0,0-.3,0H434.08v3.46h26a3.62,3.62,0,0,1,3.55,4.39q-.84,3.86-1.8,7.67Q460.55,328,459.05,333a3.56,3.56,0,0,1-3.47,2.59h-7.13a1.73,1.73,0,0,0-1.23.51l-13.14,13.15v4.91l14-14a3.52,3.52,0,0,1,2.57-1.06h9a1.71,1.71,0,0,0,1.55-1.35,2,2,0,0,1,.09-.33c1.42-4.49,2.72-9,3.87-13.61q1.79-7.11,3.12-14.32A1.69,1.69,0,0,0,467.59,307.72Zm-207.34-82V203a21.82,21.82,0,0,0-3-3.79l0,0a21.53,21.53,0,0,0-10.75-5.82,20.26,20.26,0,0,0-4.41-.47,21.24,21.24,0,0,0-11.44,3.32,3.59,3.59,0,0,1-4.49-.5l-10.85-10.85h0l-7.05-7.06-1.93-1.92-8.46-8.46a1.69,1.69,0,0,0-1.23-.52h-52.2a3.54,3.54,0,0,1-2.56-1.06l-3.71-3.72a3.61,3.61,0,0,1-.2-4.91A21.47,21.47,0,0,0,143,143.47v-.18a21.39,21.39,0,0,0-6.29-15.16l0,0a21.39,21.39,0,0,0-14.83-6.28h-.75a3.62,3.62,0,0,1-3.66-3.62v-4a3.5,3.5,0,0,1,1.06-2.56l1.19-1.2,7.9-7.91L139.1,91.05a1.72,1.72,0,0,0,.51-1.23V52A1.73,1.73,0,0,0,137,50.49c-.09.06-.18.09-.27.14-.53.25-1.06.49-1.59.75A236.67,236.67,0,0,0,89.46,79.5Q81.12,86,73.39,93.32A237.82,237.82,0,0,0,49.82,119a1.75,1.75,0,0,0-.37,1.06l0,51.94a3.54,3.54,0,0,1-1.06,2.57L31.63,191.3a1.73,1.73,0,0,0-.51,1.23V232.8a3.6,3.6,0,0,1-2.93,3.56,21.51,21.51,0,0,0-11.08,5.9l0,0A21.39,21.39,0,0,0,15,270.2a3.61,3.61,0,0,1-.35,4.73L.51,289.09A1.69,1.69,0,0,0,0,290.62a1.75,1.75,0,0,1,0,.24A235.44,235.44,0,0,0,40.77,400.52a238,238,0,0,0,89,77.22,1.72,1.72,0,0,0,2.29-.77,1.59,1.59,0,0,0,.18-.77,3.07,3.07,0,0,1,0-.42V420.49a1.75,1.75,0,0,0-.51-1.23L109.3,396.79a1.69,1.69,0,0,0-1.23-.51H79.36a3.46,3.46,0,0,1-2.56-1.06l-16-16a3.47,3.47,0,0,1-1.07-2.56V364.4a3.47,3.47,0,0,1,1.07-2.56l13.51-13.51a3.48,3.48,0,0,1,2.56-1.06H97.63a3.5,3.5,0,0,1,2.56,1.06L115.87,364a1.76,1.76,0,0,0,1.24.51h8.73a3.56,3.56,0,0,1,3.28,2.07,22.17,22.17,0,0,0,4.22,6l0,0a21.43,21.43,0,0,0,30.33,0l0,0a21.47,21.47,0,0,0,5-22.39,3.56,3.56,0,0,1,.85-3.79L186,330l20.35-20.35a1.71,1.71,0,0,0,.51-1.22v-20a3.5,3.5,0,0,1,1.06-2.56l6-6,11.21-11.21a3.51,3.51,0,0,1,2.57-1.07h10.79a3.5,3.5,0,0,1,2.63,1.13l1.44,1.51,6.13,6.42,11.53,12.08v-5l-12-12.55L242.31,265l-.07-.09s-.07-.06-.1-.11a1.7,1.7,0,0,0-1.34-.64H225.51a1.76,1.76,0,0,0-1.24.51L211.4,277.51l-3.28,3.29-4.2,4.2a1.62,1.62,0,0,0-.49,1,.78.78,0,0,0,0,.21v20a3.52,3.52,0,0,1-1.06,2.56l-.7.69-1.13,1.14-1.65,1.64-30,30.05a3.65,3.65,0,0,1-5.13,0,21.41,21.41,0,0,0-30.34,0l0,0a21.39,21.39,0,0,0-6.28,15.16,3.65,3.65,0,0,1-3.64,3.63h-4.09a3.5,3.5,0,0,1-2.57-1.07L101.07,344.3a1.72,1.72,0,0,0-1.23-.51H74.65a1.69,1.69,0,0,0-1.22.51L56.76,361a1.73,1.73,0,0,0-.51,1.22v16.66a1.76,1.76,0,0,0,.51,1.2L75.66,399a1.62,1.62,0,0,1,.18.19,1.71,1.71,0,0,0,1.32.61h28.69a3.47,3.47,0,0,1,2.57,1.07l19.33,19.33a3.46,3.46,0,0,1,1.06,2.56v44.65a3.51,3.51,0,0,1-1.77,3.12,3.57,3.57,0,0,1-3.6.06,234.71,234.71,0,0,1-79.83-72A232,232,0,0,1,3.74,292.71a3.48,3.48,0,0,1,1-3l12.86-12.86a3.59,3.59,0,0,1,4.32-.61,21.36,21.36,0,0,0,25.47-3.64l0,0a21.4,21.4,0,0,0,0-30.31l0,0a21.48,21.48,0,0,0-10.06-5.67,3.59,3.59,0,0,1-2.77-3.52V194.75a3.52,3.52,0,0,1,1.06-2.56L52.4,175.45a1.77,1.77,0,0,0,.5-1.23V121.9a3.54,3.54,0,0,1,.81-2.28A233.3,233.3,0,0,1,75.84,95.77c5-4.74,10.32-9.27,15.76-13.55a234.34,234.34,0,0,1,39.28-24.95,3.63,3.63,0,0,1,5,1.76,3.61,3.61,0,0,1,.3,1.47V87.6a3.46,3.46,0,0,1-1.06,2.56l-15.65,15.65-4.9,4.91A1.72,1.72,0,0,0,114,112v8.89a3.53,3.53,0,0,1-2,3.23,21.84,21.84,0,0,0-5.6,4l0,0a21.4,21.4,0,0,0,0,30.31l0,0a21.43,21.43,0,0,0,24.12,4.33,3.54,3.54,0,0,1,4.08.73l6.33,6.31a1.67,1.67,0,0,0,1.23.52h52.19a3.43,3.43,0,0,1,2.33.85,1.57,1.57,0,0,1,.24.21l15.87,15.87,10.79,10.79a3.59,3.59,0,0,1,.47,4.55,21.33,21.33,0,0,0-3.48,11.71,21.56,21.56,0,0,0,1,6.65,21.34,21.34,0,0,0,3.13,6.07,22,22,0,0,0,2.1,2.44l0,0a21.4,21.4,0,0,0,15.05,6.29H242a21.44,21.44,0,0,0,11.7-3.49,3.61,3.61,0,0,1,4.56.47l1.95,2v-5a3.58,3.58,0,0,1-.06-4Zm-124.47,119h0a18,18,0,0,1,25.45,0h0a18,18,0,0,1,0,25.45l0,0a18,18,0,0,1-25.45,0l0,0a18,18,0,0,1,0-25.45ZM45,244.7l0,0a18,18,0,0,1,0,25.44l0,0a18,18,0,0,1-25.45,0l0,0a18,18,0,0,1,0-25.44l0,0a18,18,0,0,1,25.45,0ZM134.32,156h0A18,18,0,0,1,114.77,160a17.49,17.49,0,0,1-5.92-3.92h0a18,18,0,0,1,0-25.45l0,0a17.77,17.77,0,0,1,5.92-3.93,18.2,18.2,0,0,1,6.79-1.32c.48,0,1,0,1.42.06a17.84,17.84,0,0,1,11,4.87c.11.1.23.21.33.32l0,0a18.09,18.09,0,0,1,5.25,12.72A18,18,0,0,1,134.32,156Zm124.9,63.7a18,18,0,0,1-4.43,7.35h0a18,18,0,0,1-12.68,5.26h0a18,18,0,0,1-12.73-5.26h0a18.05,18.05,0,0,1-4.62-8,18.22,18.22,0,0,1-.62-4.73,17.93,17.93,0,0,1,5.24-12.72l0,0a18,18,0,0,1,16.54-4.85,18.18,18.18,0,0,1,5.15,2,17.72,17.72,0,0,1,3.76,2.88l0,0a17.93,17.93,0,0,1,5.17,11.1c0,.54.07,1.08.07,1.62A17.93,17.93,0,0,1,259.22,219.72Zm1,149.16a21.39,21.39,0,0,0,0,23.69v-9.9a15.66,15.66,0,0,1-.1-1.94,16,16,0,0,1,.1-2Z"/><path class="cls-13" d="M144.54,257.85H116a1.68,1.68,0,0,0-1.22.52L83,290a1.79,1.79,0,0,0-.5,1.24v24.89a1.73,1.73,0,0,0,1.73,1.74h29.5a1.73,1.73,0,0,0,1.22-.51l30.77-30.77a1.71,1.71,0,0,0,.51-1.22V259.59A1.74,1.74,0,0,0,144.54,257.85Zm-1.74,25.33a3.54,3.54,0,0,1-1.06,2.57l-27.63,27.63a3.54,3.54,0,0,1-2.57,1.06H89.63A3.63,3.63,0,0,1,86,310.82V293.5a3.54,3.54,0,0,1,1.06-2.57l28.54-28.54a3.49,3.49,0,0,1,2.56-1.07h21A3.64,3.64,0,0,1,142.8,265Z"/><path class="cls-13" d="M97.1,217.09a3.84,3.84,0,0,0-5.44,0h0a3.87,3.87,0,0,0-1.12,2.72,3.66,3.66,0,0,0,.37,1.65l-5.85,5.85v16.36a3.72,3.72,0,0,0-1.9,1h0A3.86,3.86,0,0,0,82,247.44a3.82,3.82,0,0,0,1.14,2.71h0a3.86,3.86,0,0,0,5.46-5.45,3.81,3.81,0,0,0-1.79-1V228l5.19-5.2a3.85,3.85,0,0,0,5.1-5.75ZM87.35,246h0a2.09,2.09,0,1,1-3,2.95h0a2.11,2.11,0,0,1,0-2.95h0a2.1,2.1,0,0,1,3,0Zm8.51-24.66a2.09,2.09,0,1,1,0-3,2.1,2.1,0,0,1,0,3Z"/><path class="cls-13" d="M78,244.72h0a3.69,3.69,0,0,0-1.89-1V227.31l-.26-.25-5.6-5.6a3.86,3.86,0,0,0-.75-4.37,3.85,3.85,0,0,0-5.45,0,3.85,3.85,0,0,0,5.1,5.75l5.19,5.2V243.7a3.77,3.77,0,0,0-1.78,1A3.85,3.85,0,1,0,78,250.16h0a3.83,3.83,0,0,0,0-5.43ZM68.2,221.29a2.08,2.08,0,1,1,.62-1.48A2.08,2.08,0,0,1,68.2,221.29Zm8.51,27.62a2.08,2.08,0,0,1-3,0,2.11,2.11,0,0,1,0-2.95h0a2.1,2.1,0,0,1,3,0h0a2.06,2.06,0,0,1,0,2.95Z"/><path class="cls-13" d="M83.27,209.46a3.85,3.85,0,1,0-3.71,6.45v24h1.76V216a3.85,3.85,0,0,0,2-6.5ZM82,213.66a2.08,2.08,0,0,1-3,0,2.06,2.06,0,0,1-.61-1.48A2.09,2.09,0,1,1,82,213.66Z"/><path class="cls-13" d="M676.61,299.8h0a4.28,4.28,0,0,0-.61-.5,3.88,3.88,0,0,0-4.83.5,3.81,3.81,0,0,0-1.13,2.73,3.08,3.08,0,0,0,.07.68,3.64,3.64,0,0,0,.3,1l-5.6,5.59-.25.26v16.36a3.85,3.85,0,1,0,3.54,6.49,3.85,3.85,0,0,0,0-5.45,3.86,3.86,0,0,0-1.78-1V310.76l5.2-5.2a3.85,3.85,0,0,0,5.1-5.76Zm-9.76,28.87h0a2.06,2.06,0,0,1,.62,1.47,2.09,2.09,0,0,1-.62,1.48,2.1,2.1,0,0,1-3,0,2.08,2.08,0,0,1-.61-1.48,2,2,0,0,1,.61-1.47h0a2.1,2.1,0,0,1,3,0ZM675.36,304a2.1,2.1,0,0,1-3,0,2.08,2.08,0,0,1-.6-1.26,1.62,1.62,0,0,1,0-.22,2.09,2.09,0,0,1,3.57-1.48,1.87,1.87,0,0,1,.28.35,2,2,0,0,1,.34,1.13A2.1,2.1,0,0,1,675.36,304Z"/><path class="cls-13" d="M657.46,327.43h0a3.82,3.82,0,0,0-1.9-1V310l-.25-.26-5.59-5.59a4.56,4.56,0,0,0,.28-.81,3.88,3.88,0,0,0-1-3.57h0a3.84,3.84,0,0,0-2.71-1.12,4.14,4.14,0,0,0-1.11.16,3.85,3.85,0,1,0,3.48,6.72l5.2,5.2v15.66a3.81,3.81,0,0,0-1.78,1h0a3.85,3.85,0,0,0,0,5.45,3.85,3.85,0,1,0,5.45-5.45ZM647.71,304h0a2.09,2.09,0,1,1-3-3,1.91,1.91,0,0,1,.38-.31,2.1,2.1,0,0,1,1.1-.3,2,2,0,0,1,1.47.61h0a2.12,2.12,0,0,1,.61,1.48,1.84,1.84,0,0,1,0,.41A2.15,2.15,0,0,1,647.71,304Zm8.51,27.62h0a2.1,2.1,0,0,1-3.57-1.48,2.06,2.06,0,0,1,.62-1.47h0a2.09,2.09,0,0,1,3,0h0a2.08,2.08,0,0,1,.61,1.47A2.12,2.12,0,0,1,656.22,331.63Z"/><path class="cls-13" d="M662.78,292.18h0a3.81,3.81,0,0,0-5.43,0h0a3.84,3.84,0,0,0,0,5.44,1.07,1.07,0,0,0,.16.14,3.8,3.8,0,0,0,1.56.86v24h1.77v-24a3.87,3.87,0,0,0,2-1.05,4.47,4.47,0,0,0,.44-.52,3.86,3.86,0,0,0,.69-2.2A3.9,3.9,0,0,0,662.78,292.18Zm-1.25,4.2a2.08,2.08,0,0,1-3,0,1.64,1.64,0,0,1-.21-.25,2,2,0,0,1-.4-1.22,2.08,2.08,0,0,1,.61-1.48h0a2.12,2.12,0,0,1,1.48-.61h.05a2.17,2.17,0,0,1,1.43.61h0a2.07,2.07,0,0,1,.62,1.48,1.76,1.76,0,0,1,0,.33A2,2,0,0,1,661.53,296.38Z"/><rect class="cls-14" x="36.72" y="302.19" width="12.8" height="6.57" rx="3.28"/><rect class="cls-14" x="28.86" y="313.3" width="28.53" height="6.57" rx="3.28"/><rect class="cls-14" x="35.99" y="324.41" width="14.26" height="6.56" rx="3.28"/><rect class="cls-14" x="75.59" y="158.89" width="14.1" height="6.9" rx="3.45"/><rect class="cls-14" x="67.65" y="170.56" width="29.97" height="6.9" rx="3.45"/><rect class="cls-14" x="79.97" y="182.23" width="17.65" height="6.9" rx="3.45"/><rect class="cls-14" x="67.69" y="182.23" width="7.49" height="6.9" rx="3.45"/><polygon class="cls-15" points="164.15 465.28 171.57 502.64 132.47 495.71 125.05 458.35 164.15 465.28"/><polygon class="cls-16" points="164.15 465.29 125.05 458.34 158.53 436.98 197.62 443.93 164.15 465.29"/><polygon class="cls-17" points="197.6 443.95 205.02 481.31 171.57 502.64 164.15 465.28 197.6 443.95"/><polygon class="cls-15" points="155.35 420.95 162.77 458.31 123.67 451.39 116.25 414.03 155.35 420.95"/><polygon class="cls-16" points="155.34 420.97 116.25 414.02 149.72 392.66 188.82 399.61 155.34 420.97"/><polygon class="cls-17" points="188.8 399.62 196.22 436.98 162.77 458.31 155.35 420.95 188.8 399.62"/><polygon class="cls-15" points="141.03 348.8 148.44 386.16 109.34 379.24 101.92 341.88 141.03 348.8"/><polygon class="cls-18" points="141.02 348.81 101.92 341.86 135.4 320.5 174.49 327.45 141.02 348.81"/><polygon class="cls-17" points="174.48 327.47 181.9 364.83 148.44 386.16 141.03 348.8 174.48 327.47"/><polygon class="cls-15" points="209.71 474.27 217.13 511.63 178.03 504.71 170.61 467.35 209.71 474.27"/><polygon class="cls-16" points="209.71 474.29 170.62 467.34 204.09 445.98 243.18 452.93 209.71 474.29"/><polygon class="cls-17" points="243.17 452.94 250.59 490.3 217.13 511.63 209.71 474.27 243.17 452.94"/><polygon class="cls-15" points="200.91 429.95 208.33 467.31 169.23 460.38 161.81 423.02 200.91 429.95"/><polygon class="cls-16" points="200.91 429.96 161.81 423.01 195.29 401.65 234.38 408.6 200.91 429.96"/><polygon class="cls-17" points="234.37 408.62 241.78 445.98 208.33 467.31 200.91 429.95 234.37 408.62"/><polygon class="cls-15" points="192.11 385.62 199.53 422.98 160.43 416.06 153.01 378.7 192.11 385.62"/><polygon class="cls-16" points="192.11 385.64 153.01 378.69 186.49 357.33 225.58 364.28 192.11 385.64"/><polygon class="cls-17" points="225.56 364.29 232.98 401.65 199.53 422.98 192.11 385.62 225.56 364.29"/><polygon class="cls-15" points="255.28 483.27 262.7 520.63 223.6 513.7 216.18 476.34 255.28 483.27"/><polygon class="cls-16" points="255.27 483.28 216.18 476.33 249.65 454.97 288.75 461.92 255.27 483.28"/><polygon class="cls-17" points="288.73 461.94 296.15 499.3 262.7 520.63 255.28 483.27 288.73 461.94"/><polygon class="cls-15" points="276.57 431 283.98 468.36 244.88 461.44 237.47 424.08 276.57 431"/><polygon class="cls-18" points="276.56 431.02 237.47 424.07 270.94 402.71 310.03 409.66 276.56 431.02"/><polygon class="cls-17" points="310.02 409.68 317.44 447.04 283.98 468.36 276.57 431 310.02 409.68"/><polygon class="cls-15" points="237.68 394.62 245.09 431.98 205.99 425.05 198.57 387.69 237.68 394.62"/><polygon class="cls-18" points="237.67 394.63 198.58 387.68 232.05 366.32 271.14 373.27 237.67 394.63"/><polygon class="cls-17" points="271.13 373.29 278.55 410.65 245.09 431.98 237.68 394.62 271.13 373.29"/><polygon class="cls-15" points="125.71 492.09 133.13 529.45 94.03 522.52 86.61 485.16 125.71 492.09"/><polygon class="cls-16" points="125.7 492.1 86.61 485.15 120.08 463.79 159.18 470.74 125.7 492.1"/><polygon class="cls-17" points="159.16 470.76 166.58 508.12 133.13 529.45 125.71 492.09 159.16 470.76"/><polygon class="cls-15" points="116.91 447.76 124.32 485.12 85.22 478.2 77.81 440.84 116.91 447.76"/><polygon class="cls-16" points="116.9 447.78 77.81 440.83 111.28 419.47 150.37 426.42 116.9 447.78"/><polygon class="cls-17" points="150.36 426.43 157.78 463.79 124.32 485.12 116.91 447.76 150.36 426.43"/><polygon class="cls-15" points="108.1 403.44 115.52 440.79 76.42 433.87 69 396.51 108.1 403.44"/><polygon class="cls-18" points="108.1 403.45 69 396.5 102.48 375.14 141.57 382.09 108.1 403.45"/><polygon class="cls-17" points="141.56 382.11 148.97 419.46 115.52 440.79 108.1 403.44 141.56 382.11"/><polygon class="cls-15" points="171.27 501.08 178.69 538.44 139.59 531.52 132.17 494.16 171.27 501.08"/><polygon class="cls-16" points="171.26 501.1 132.17 494.15 165.64 472.79 204.74 479.74 171.26 501.1"/><polygon class="cls-17" points="204.72 479.75 212.14 517.11 178.69 538.44 171.27 501.08 204.72 479.75"/><polygon class="cls-15" points="162.47 456.76 169.89 494.12 130.79 487.19 123.37 449.83 162.47 456.76"/><polygon class="cls-16" points="162.46 456.77 123.37 449.82 156.84 428.46 195.94 435.41 162.46 456.77"/><polygon class="cls-17" points="195.92 435.43 203.34 472.79 169.89 494.12 162.47 456.76 195.92 435.43"/><polygon class="cls-15" points="153.67 412.43 161.09 449.79 121.99 442.87 114.57 405.51 153.67 412.43"/><polygon class="cls-16" points="153.66 412.45 114.57 405.5 148.04 384.13 187.14 391.09 153.66 412.45"/><polygon class="cls-17" points="187.12 391.1 194.54 428.46 161.09 449.79 153.67 412.43 187.12 391.1"/><polygon class="cls-15" points="222.76 539.93 230.18 577.28 191.08 570.36 183.66 533 222.76 539.93"/><polygon class="cls-16" points="222.76 539.94 183.66 532.99 217.13 511.63 256.23 518.58 222.76 539.94"/><polygon class="cls-17" points="256.21 518.6 263.63 555.96 230.18 577.28 222.76 539.93 256.21 518.6"/><polygon class="cls-15" points="208.03 465.75 215.45 503.11 176.35 496.19 168.93 458.83 208.03 465.75"/><polygon class="cls-18" points="208.03 465.77 168.93 458.82 202.41 437.46 241.5 444.41 208.03 465.77"/><polygon class="cls-17" points="241.49 444.42 248.9 481.78 215.45 503.11 208.03 465.75 241.49 444.42"/><polygon class="cls-15" points="199.23 421.43 206.65 458.78 167.55 451.86 160.13 414.5 199.23 421.43"/><polygon class="cls-16" points="199.23 421.44 160.13 414.49 193.6 393.13 232.7 400.08 199.23 421.44"/><polygon class="cls-17" points="232.68 400.1 240.1 437.45 206.65 458.78 199.23 421.43 232.68 400.1"/><polygon class="cls-15" points="87.26 518.9 94.68 556.26 55.58 549.33 48.16 511.97 87.26 518.9"/><polygon class="cls-16" points="87.26 518.91 48.16 511.96 81.64 490.6 120.73 497.55 87.26 518.91"/><polygon class="cls-17" points="120.72 497.57 128.13 534.93 94.68 556.26 87.26 518.9 120.72 497.57"/><polygon class="cls-15" points="56.67 474.2 64.09 511.56 24.99 504.64 17.57 467.28 56.67 474.2"/><polygon class="cls-18" points="56.66 474.22 17.57 467.27 51.04 445.91 90.14 452.86 56.66 474.22"/><polygon class="cls-17" points="90.12 452.87 97.54 490.23 64.09 511.56 56.67 474.2 90.12 452.87"/><polygon class="cls-15" points="69.66 430.25 77.08 467.6 37.98 460.68 30.56 423.32 69.66 430.25"/><polygon class="cls-16" points="69.66 430.26 30.56 423.31 64.03 401.95 103.13 408.9 69.66 430.26"/><polygon class="cls-17" points="103.11 408.92 110.53 446.27 77.08 467.6 69.66 430.25 103.11 408.92"/><polygon class="cls-15" points="135.89 543.36 143.31 580.72 104.21 573.8 96.79 536.44 135.89 543.36"/><polygon class="cls-18" points="135.88 543.38 96.79 536.43 130.26 515.07 169.36 522.02 135.88 543.38"/><polygon class="cls-17" points="169.34 522.03 176.76 559.39 143.31 580.72 135.89 543.36 169.34 522.03"/><polygon class="cls-15" points="124.03 483.56 131.44 520.92 92.34 514 84.92 476.64 124.03 483.56"/><polygon class="cls-16" points="124.02 483.58 84.93 476.63 118.4 455.27 157.49 462.22 124.02 483.58"/><polygon class="cls-17" points="157.48 462.24 164.9 499.6 131.44 520.92 124.03 483.56 157.48 462.24"/><polygon class="cls-15" points="115.22 439.24 122.64 476.6 83.54 469.68 76.12 432.32 115.22 439.24"/><polygon class="cls-18" points="115.22 439.25 76.12 432.31 109.6 410.94 148.69 417.9 115.22 439.25"/><polygon class="cls-17" points="148.68 417.91 156.09 455.27 122.64 476.6 115.22 439.24 148.68 417.91"/><polygon class="cls-15" points="178.39 536.89 185.81 574.25 146.71 567.32 139.29 529.96 178.39 536.89"/><polygon class="cls-18" points="178.38 536.9 139.29 529.95 172.76 508.59 211.86 515.54 178.38 536.9"/><polygon class="cls-17" points="211.84 515.56 219.26 552.92 185.81 574.25 178.39 536.89 211.84 515.56"/><polygon class="cls-15" points="169.59 492.56 177.01 529.92 137.91 523 130.49 485.64 169.59 492.56"/><polygon class="cls-16" points="169.58 492.58 130.49 485.63 163.96 464.27 203.06 471.22 169.58 492.58"/><polygon class="cls-17" points="203.04 471.23 210.46 508.59 177.01 529.92 169.59 492.56 203.04 471.23"/><polygon class="cls-15" points="160.79 448.24 168.21 485.59 129.1 478.67 121.69 441.31 160.79 448.24"/><polygon class="cls-16" points="160.78 448.25 121.69 441.3 155.16 419.94 194.25 426.89 160.78 448.25"/><polygon class="cls-17" points="194.24 426.91 201.66 464.26 168.21 485.59 160.79 448.24 194.24 426.91"/><path class="cls-19" d="M104.2,231.34C104.2,103.58,213,0,347.16,0s243,103.58,243,231.34c0,77.54-40.06,146.17-101.55,188.14a95.44,95.44,0,0,0-41.91,78.75v17.7A69.65,69.65,0,0,1,377,585.58H317.32a69.65,69.65,0,0,1-69.65-69.65v-17.7a95.44,95.44,0,0,0-41.91-78.75C144.27,377.51,104.2,308.88,104.2,231.34Z"/><path class="cls-19" d="M590.12,231.34c0,77.54-40.06,146.17-101.56,188.14a95.45,95.45,0,0,0-41.9,78.75v17.7A69.65,69.65,0,0,1,377,585.58h-59.7a69.64,69.64,0,0,1-69.64-69.65v-17.7a94.77,94.77,0,0,0-21.35-59.84,96.31,96.31,0,0,0-20.56-18.91c-61.5-42-101.56-110.6-101.56-188.14C104.2,103.57,213,0,347.16,0A250.67,250.67,0,0,1,479.5,37.3a241.63,241.63,0,0,1,32.18,23.82C559.9,103.38,590.12,164,590.12,231.34Z"/><path class="cls-20" d="M410.1,485C314,561.29,297,526.18,249.71,502.6a22.69,22.69,0,0,1-2-1.15v-3.22a94.77,94.77,0,0,0-21.35-59.84c-1.44-65.65,26.26-159.07,71.62-179.83C365.06,227.84,349.28,97.67,402.11,59.8c43.49-31.17,69.54-25.49,77.39-22.5a241.63,241.63,0,0,1,32.18,23.82C522.53,131.73,495,417.62,410.1,485Z"/><ellipse class="cls-21" cx="347.16" cy="688.73" rx="53.9" ry="28.53"/><path class="cls-22" d="M418.77,637.76V666.9A25.58,25.58,0,0,1,404.26,690c-12.35,5.89-32.89,12.36-62.74,11.59-24.22-.62-40-4.57-50-8.73a26,26,0,0,1-15.92-24.1V652.67Z"/><path class="cls-23" d="M418.77,663.28a28.45,28.45,0,0,1-7.55,5.28c-13.86,6.61-104.64,21.37-126.54,13.15a29.44,29.44,0,0,1-7.64-4.23,26.35,26.35,0,0,1-1.49-8.69V652.67l143.22-14.91Z"/><path class="cls-24" d="M412.41,617.93a13.67,13.67,0,0,1,15.09,13.6v.82a28.73,28.73,0,0,1-16.28,26c-13.86,6.61-104.64,21.38-126.54,13.15-11-4.14-17.85-13.61-17.85-25.38v-.67a13.66,13.66,0,0,1,12.25-13.59Z"/><path class="cls-25" d="M279.08,631.82l133.33-13.89a13.65,13.65,0,0,1,12.78,6,28.56,28.56,0,0,1-14,14.65c-13.86,6.61-108.51,23.3-126.54,14.8a31.24,31.24,0,0,1-15.47-15.68A13.63,13.63,0,0,1,279.08,631.82Z"/><path class="cls-26" d="M417.63,570.72a9.87,9.87,0,0,1,9.87,9.87v22.82a28.73,28.73,0,0,1-16.28,26c-13.86,6.61-108.51,23.3-126.54,14.8-10.65-5-17.85-15.26-17.85-27V580.59a9.87,9.87,0,0,1,9.87-9.87Z"/><ellipse class="cls-27" cx="347.16" cy="577.83" rx="78.35" ry="18.52"/><path class="cls-28" d="M104.2,231.34C104.2,103.58,213,0,347.16,0a252.06,252.06,0,0,1,106,23.12A138.34,138.34,0,0,1,448.61,72c-19.9,70.32-82.92,69.81-134,162.42C275.1,306.19,294.93,339.12,254.18,385A164.14,164.14,0,0,1,207.83,421q-1-.75-2.07-1.47C144.26,377.51,104.2,308.88,104.2,231.34Z"/><g class="cls-29"><g class="cls-30"><path class="cls-31" d="M600.47,329.55,623.34,323a130.22,130.22,0,0,0-1-31.63l-23.28-5a109.09,109.09,0,0,0-4.12-13.5l16.52-17.09a133.39,133.39,0,0,0-16.76-26.88L572,236.19a112.07,112.07,0,0,0-10.3-9.66l5.75-23.06a130.47,130.47,0,0,0-28-14.88L523.6,206.23c-3.31-1-6.69-1.85-10.15-2.54-1.2-.24-2.39-.42-3.58-.62l-6.56-22.88a131.3,131.3,0,0,0-31.64,1l-5,23.3a108.28,108.28,0,0,0-13.49,4.12l-17.1-16.52a132.28,132.28,0,0,0-26.87,16.75l7.31,22.65a110.46,110.46,0,0,0-9.65,10.28L383.79,236a131,131,0,0,0-14.88,28l17.64,15.94c-1,3.31-1.85,6.69-2.54,10.15-.24,1.2-.43,2.38-.62,3.58l-22.88,6.56a130.83,130.83,0,0,0,1,31.64l23.28,5a109.09,109.09,0,0,0,4.12,13.5l-16.52,17.1a132.56,132.56,0,0,0,16.76,26.88L411.82,387a109.36,109.36,0,0,0,10.29,9.66l-5.75,23.07a131.33,131.33,0,0,0,27.95,14.87L460.25,417c3.31,1,6.7,1.86,10.16,2.55,1.19.24,2.39.42,3.57.61L480.54,443a131.3,131.3,0,0,0,31.64-1l5-23.3a109,109,0,0,0,13.5-4.11l17.1,16.51a132.6,132.6,0,0,0,26.87-16.76l-7.3-22.63a113.45,113.45,0,0,0,9.65-10.3l23.06,5.76a131,131,0,0,0,14.87-28L597.3,343.28c1-3.32,1.86-6.69,2.55-10.16C600.09,331.93,600.27,330.75,600.47,329.55Zm-21.08-4.42a94.14,94.14,0,1,1-73.93-110.71A94.15,94.15,0,0,1,579.39,325.13Z"/></g></g><g class="cls-32"><path class="cls-33" d="M408.64,302.5A96.32,96.32,0,1,1,505,398.82,96.31,96.31,0,0,1,408.64,302.5Z"/></g><g class="cls-34"><g class="cls-35"><path class="cls-36" d="M677.12,192.68,664.71,174.2c.66-1.17,1.28-2.35,1.83-3.55l22.24-.76a71.2,71.2,0,0,0,2.51-11.76l-20-9.8c0-1.33-.08-2.65-.2-4L690,132.57a73.37,73.37,0,0,0-3.68-11.45l-22.21,1.51c-.67-1.14-1.41-2.26-2.18-3.35l10.46-19.64c-1.37-1.45-2.78-2.86-4.29-4.22s-3.05-2.63-4.63-3.84L645,104c-1.17-.65-2.35-1.27-3.55-1.83l-.76-22.25a72.18,72.18,0,0,0-11.76-2.49l-9.81,20c-1.33,0-2.65.09-4,.21L603.34,78.7a72.84,72.84,0,0,0-11.43,3.69l1.49,22.21c-1.14.68-2.24,1.41-3.34,2.18L570.42,96.32c-1.45,1.37-2.87,2.78-4.23,4.28s-2.62,3.06-3.83,4.65l12.4,18.48c-.65,1.16-1.27,2.34-1.83,3.54l-22.24.76a71.61,71.61,0,0,0-2.5,11.76l20,9.8c0,1.33.08,2.66.2,4l-18.89,11.79a71.77,71.77,0,0,0,3.68,11.43l22.21-1.5c.67,1.14,1.4,2.25,2.18,3.34L567.1,198.27c1.37,1.45,2.78,2.87,4.28,4.23s3.06,2.62,4.65,3.83l18.47-12.4c1.17.66,2.34,1.28,3.55,1.83l.76,22.25a73.42,73.42,0,0,0,11.75,2.51l9.82-20c1.32,0,2.65-.1,4-.21l11.79,18.89a72.58,72.58,0,0,0,11.44-3.68l-1.5-22.2c1.13-.69,2.25-1.42,3.34-2.19l19.64,10.45c1.45-1.35,2.88-2.77,4.23-4.27S675.91,194.26,677.12,192.68Zm-34.73-27.47a31.26,31.26,0,1,1-2.25-44.15A31.27,31.27,0,0,1,642.39,165.21Z"/></g></g><path class="cls-18" d="M675.52,189.41l-12.4-18.48c.65-1.16,1.27-2.35,1.82-3.54l22.25-.77a71.05,71.05,0,0,0,2.5-11.75l-20-9.81c0-1.32-.08-2.65-.2-4l18.9-11.79a73.3,73.3,0,0,0-3.69-11.44l-22.21,1.5c-.67-1.14-1.41-2.25-2.17-3.35l10.45-19.63c-1.36-1.46-2.78-2.87-4.28-4.23s-3.06-2.62-4.64-3.84l-18.48,12.41c-1.17-.66-2.35-1.28-3.55-1.83l-.76-22.25a72.21,72.21,0,0,0-11.76-2.5l-9.81,20c-1.32,0-2.65.09-4,.2L601.75,75.44a72.92,72.92,0,0,0-11.44,3.68l1.5,22.21c-1.14.68-2.25,1.41-3.35,2.19L568.82,93.05c-1.45,1.37-2.87,2.78-4.22,4.28S562,100.4,560.76,102l12.4,18.48c-.65,1.16-1.27,2.34-1.83,3.54l-22.24.76a71.61,71.61,0,0,0-2.5,11.76l20,9.8c0,1.33.08,2.66.2,4l-18.89,11.79a71.45,71.45,0,0,0,3.68,11.43L573.78,172c.68,1.13,1.41,2.24,2.18,3.34L565.5,195c1.37,1.45,2.78,2.87,4.28,4.22s3.06,2.63,4.65,3.84l18.48-12.4c1.16.65,2.34,1.27,3.54,1.82l.76,22.26a73.28,73.28,0,0,0,11.76,2.5l9.81-20c1.32,0,2.65-.09,4-.21l11.79,18.89A71.2,71.2,0,0,0,646,212.26l-1.5-22.2c1.12-.68,2.24-1.42,3.34-2.19l19.64,10.46c1.45-1.36,2.87-2.78,4.23-4.28S674.31,191,675.52,189.41Zm-36.67-25a27.91,27.91,0,1,1-2-39.42A27.92,27.92,0,0,1,638.85,164.4Z"/><g class="cls-37"><g class="cls-38"><path class="cls-39" d="M693.35,263.21l11.57-6.78a42.43,42.43,0,0,0-2.6-8.89l-13.39.53,6.63-11.66a42.33,42.33,0,0,0-6.7-6.4l-11.35,7.15-.07-13.41c-1.45-.52-2.93-1-4.45-1.35a42.89,42.89,0,0,0-4.56-.84l-6.25,11.86-6.77-11.58a42.79,42.79,0,0,0-8.9,2.61l.52,13.4-11.65-6.64a43.27,43.27,0,0,0-6.41,6.7l7.16,11.35-13.41.08a41.86,41.86,0,0,0-2.2,9l11.87,6.25-11.57,6.78a42.25,42.25,0,0,0,2.6,8.89l13.4-.52-6.64,11.65a43.27,43.27,0,0,0,6.7,6.41l11.35-7.15.08,13.41a42.64,42.64,0,0,0,9,2.19l6.25-11.87L670.33,306a42.19,42.19,0,0,0,8.9-2.61L678.71,290l11.65,6.63a42.76,42.76,0,0,0,6.41-6.69l-7.16-11.35,13.41-.08c.52-1.45,1-2.93,1.36-4.45s.63-3,.84-4.56Zm-9.25,4.66A25.58,25.58,0,1,1,665.31,237,25.59,25.59,0,0,1,684.1,267.87Z"/></g></g><g class="cls-40"><path class="cls-41" d="M633.8,262.4a24.7,24.7,0,1,1,24.7,24.7A24.7,24.7,0,0,1,633.8,262.4Z"/></g><path class="cls-18" d="M690.18,261.1l11.58-6.78a42,42,0,0,0-2.61-8.9l-13.39.53,6.63-11.65a42.4,42.4,0,0,0-6.7-6.41L674.35,235l-.08-13.41a42.48,42.48,0,0,0-4.45-1.34,40.56,40.56,0,0,0-4.56-.85l-2,3.9L659.73,230l-.71,1.35-6.78-11.58a43.15,43.15,0,0,0-8.9,2.61l.52,13.4-11.64-6.65a42,42,0,0,0-6.41,6.71L633,247.15l-13.41.08a43.07,43.07,0,0,0-1.35,4.44,45.63,45.63,0,0,0-.85,4.56l11.88,6.24-11.58,6.78a42.52,42.52,0,0,0,2.6,8.9l13.4-.53L627,289.28a43.7,43.7,0,0,0,6.69,6.41l11.35-7.16.06,10.31v3.1c1,.37,2.07.71,3.14,1,.43.12.86.24,1.3.34.14,0,.27.07.41.09a38.16,38.16,0,0,0,4.15.76l3.35-6.36.87-1.64,1.74-3.32.29-.54.4.68,1.33,2.29,1.1,1.87,3.94,6.74c1-.18,2-.39,2.94-.64.57-.14,1.14-.29,1.7-.46,1.3-.39,2.59-.84,3.84-1.35l.42-.17L676,299.3l-.45-11.45,11.65,6.63a42.41,42.41,0,0,0,3.32-3.11c.91-.95,1.79-1.94,2.61-3l.48-.61-7.16-11.35,13.42-.08c.51-1.44,1-2.92,1.35-4.44a46.1,46.1,0,0,0,.84-4.56Zm-36.85,23.53a22.92,22.92,0,0,1,7.19-45.11,22.3,22.3,0,0,1,3.66.59,22.84,22.84,0,0,1,15.1,12.08v0a22.87,22.87,0,0,1,1.85,15c0,.18-.09.36-.13.54a22.93,22.93,0,0,1-27.68,16.83Z"/><path class="cls-42" d="M424.57,74.51l-179.4,179.4a22.65,22.65,0,0,1-16,6.64l-90.15.07a4.94,4.94,0,0,1-3.5-8.44l179.4-179.4a22.64,22.64,0,0,1,16-6.63l90.15-.08A5,5,0,0,1,424.57,74.51Z"/><path class="cls-43" d="M493.56,143.51,314.17,322.91a22.66,22.66,0,0,1-16,6.63l-90.15.07a5,5,0,0,1-3.5-8.44l179.4-179.39a22.67,22.67,0,0,1,16-6.64l90.15-.07A4.94,4.94,0,0,1,493.56,143.51Z"/><path class="cls-44" d="M562.56,212.5,383.16,391.9a22.65,22.65,0,0,1-16,6.64l-90.15.07a4.94,4.94,0,0,1-3.5-8.44l179.4-179.4a22.64,22.64,0,0,1,16-6.63l90.15-.08A5,5,0,0,1,562.56,212.5Z"/><path class="cls-16" d="M590.12,231.34c0,77.54-40.06,146.17-101.56,188.14a95.45,95.45,0,0,0-41.9,78.75v17.7A69.65,69.65,0,0,1,377,585.58h-59.7a69.64,69.64,0,0,1-69.64-69.65V501.77c6.69,4.6,16.2,9.54,28,10.61,34.25,3.1,71.24-27.87,83.2-61.35a70.26,70.26,0,0,0,2.69-9.51c9.63-46.64-36.84-76.23-29.4-148.42,1.06-10.25,5.36-47.69,31-82.3,42.12-57,117.7-73.59,130.89-114q.18-.52.33-1a65.87,65.87,0,0,0,1.57-29.63c-2.4-10.24-7.84-19.79-15.9-28.52C546.3,78.93,590.12,150.26,590.12,231.34Z"/><path class="cls-45" d="M556.23,240.36c0,106.7-85.92,194-194.68,201.16,9.63-46.64-36.84-76.23-29.4-148.42,1.06-10.25,5.36-47.69,31-82.3,42.12-57,117.7-73.59,130.89-114C532.41,133.38,556.23,184.19,556.23,240.36Z"/><path class="cls-18" d="M595.11,324.19,618,317.62A130.22,130.22,0,0,0,617,286l-23.28-5a109.09,109.09,0,0,0-4.12-13.5l16.52-17.1a133.32,133.32,0,0,0-16.76-26.87l-22.63,7.31a112.07,112.07,0,0,0-10.3-9.66l5.75-23.06a130.47,130.47,0,0,0-28-14.88l-15.94,17.64c-3.31-1-6.69-1.85-10.15-2.54-1.2-.24-2.39-.42-3.58-.62L498,174.83a131.3,131.3,0,0,0-31.64,1l-5,23.3a110,110,0,0,0-13.49,4.11l-17.1-16.51a132.28,132.28,0,0,0-26.87,16.75l7.31,22.65a109.14,109.14,0,0,0-9.65,10.28l-23.07-5.75a131,131,0,0,0-14.88,28l17.64,15.94c-1,3.31-1.85,6.69-2.54,10.15-.24,1.2-.43,2.38-.62,3.58l-22.89,6.56a131.85,131.85,0,0,0,1,31.64l23.29,5A110,110,0,0,0,383.58,345l-16.52,17.1A132.56,132.56,0,0,0,383.82,389l22.64-7.31a108,108,0,0,0,10.29,9.65L411,414.39A131.33,131.33,0,0,0,439,429.26l15.94-17.64c3.31,1,6.7,1.86,10.16,2.55,1.19.24,2.39.42,3.57.61l6.56,22.89a131.3,131.3,0,0,0,31.64-1l5-23.3a109,109,0,0,0,13.5-4.11l17.1,16.51A132.6,132.6,0,0,0,569.29,409L562,386.36a113.45,113.45,0,0,0,9.65-10.3l23.06,5.76a131,131,0,0,0,14.87-28l-17.63-15.94c1-3.32,1.86-6.7,2.55-10.16C594.73,326.57,594.91,325.38,595.11,324.19Zm-21-.5a89.28,89.28,0,1,1-70.1-105A89.27,89.27,0,0,1,574.12,323.69Z"/></g></g></svg>