<svg width="509" height="554" viewBox="0 0 509 554" fill="none" xmlns="http://www.w3.org/2000/svg">
<path d="M391.362 527.376L376.399 542.358L376.324 542.444C370.846 548.409 362.99 552.158 354.243 552.158H140.437C116.931 552.158 97.8727 533.116 97.8727 509.63V46.5226C97.8727 38.2119 101.26 30.7044 106.716 25.296L107.144 24.8784L121.968 10.0669L121.893 17.1888C123.801 16.8033 125.784 16.6105 127.81 16.6105H354.243C362.443 16.6105 369.882 19.8984 375.284 25.2318C377.728 27.6522 379.764 30.4902 381.265 33.6174C383.13 37.5265 384.18 41.896 384.18 46.5119V522.224C384.18 523.413 384.116 524.58 383.977 525.737L391.362 527.376Z" fill="#2B333F"/>
<path d="M399.047 31.6686V507.381C399.047 523.895 385.649 537.293 369.11 537.293H142.677C136.664 537.293 131.079 535.526 126.395 532.484L119.096 525.802C119.085 525.802 119.085 525.802 119.085 525.791H130.415C130.318 524.827 130.275 523.852 130.275 522.867V47.144C130.275 30.6297 143.674 17.2319 160.213 17.2319H386.635C389.958 17.2319 393.141 17.7781 396.132 18.7634C397.997 22.6724 399.047 27.0527 399.047 31.6686Z" fill="#2A313D"/>
<path d="M399.047 31.6684V507.381C399.047 523.895 385.649 537.293 369.11 537.293H142.677C136.664 537.293 131.079 535.526 126.395 532.484C123.598 530.674 121.132 528.425 119.096 525.801C119.085 525.801 119.085 525.801 119.085 525.791C115.108 520.725 112.74 514.331 112.74 507.391V31.6684C112.74 15.1541 126.138 1.75635 142.677 1.75635H369.11C377.31 1.75635 384.749 5.04421 390.151 10.3776C392.595 12.798 394.631 15.6361 396.132 18.7633C397.997 22.6723 399.047 27.0526 399.047 31.6684Z" fill="#373F51"/>
<path d="M147.404 528.511H366.859C379.636 528.511 390.001 518.155 390.001 505.389V35.331C390.001 21.387 378.682 10.0776 364.726 10.0776H147.05C133.094 10.0776 121.775 21.387 121.775 35.331V502.904C121.775 517.041 133.255 528.511 147.404 528.511Z" fill="#101316"/>
<path d="M62.8654 268.523H446.982" stroke="url(#paint0_radial_1060_3824)" stroke-width="3" stroke-miterlimit="10" stroke-linecap="round" stroke-linejoin="round"/>
<path d="M119.117 132.832L390.73 404.214" stroke="url(#paint1_radial_1060_3824)" stroke-width="3" stroke-miterlimit="10" stroke-linecap="round" stroke-linejoin="round"/>
<path d="M254.923 76.6274V460.419" stroke="url(#paint2_radial_1060_3824)" stroke-width="3" stroke-miterlimit="10" stroke-linecap="round" stroke-linejoin="round"/>
<path d="M390.73 132.832L119.117 404.214" stroke="url(#paint3_radial_1060_3824)" stroke-width="3" stroke-miterlimit="10" stroke-linecap="round" stroke-linejoin="round"/>
<path d="M254.923 392.134C323.25 392.134 378.639 336.792 378.639 268.523C378.639 200.255 323.25 144.913 254.923 144.913C186.597 144.913 131.208 200.255 131.208 268.523C131.208 336.792 186.597 392.134 254.923 392.134Z" fill="#373F51" stroke="url(#paint4_linear_1060_3824)" stroke-miterlimit="10"/>
<path d="M288.88 197.626L208.233 278.205C206.325 280.111 203.741 281.182 201.04 281.182L160.513 281.215C158.53 281.215 157.544 278.826 158.937 277.423L239.585 196.844C241.493 194.938 244.076 193.867 246.777 193.867L287.305 193.834C289.288 193.834 290.274 196.233 288.88 197.626Z" fill="url(#paint5_linear_1060_3824)"/>
<path d="M319.89 228.619L239.242 309.199C237.334 311.105 234.751 312.176 232.05 312.176L191.522 312.208C189.539 312.208 188.553 309.82 189.946 308.417L270.594 227.838C272.502 225.931 275.085 224.86 277.786 224.86L318.314 224.828C320.297 224.828 321.294 227.216 319.89 228.619Z" fill="url(#paint6_linear_1060_3824)"/>
<path d="M350.91 259.613L270.262 340.192C268.354 342.099 265.771 343.17 263.07 343.17L222.542 343.202C220.559 343.202 219.573 340.814 220.967 339.411L301.614 258.831C303.522 256.925 306.105 255.854 308.806 255.854L349.334 255.822C351.317 255.822 352.314 258.21 350.91 259.613Z" fill="url(#paint7_linear_1060_3824)"/>
<path d="M73.8841 524.003C112.665 524.003 144.102 492.591 144.102 453.844C144.102 415.096 112.665 383.685 73.8841 383.685C35.1036 383.685 3.66577 415.096 3.66577 453.844C3.66577 492.591 35.1036 524.003 73.8841 524.003Z" fill="#373F51" stroke="url(#paint8_linear_1060_3824)" stroke-miterlimit="10"/>
<path d="M110.381 441.12V466.588C110.381 468.109 108.774 469.094 107.423 468.409L92.6633 459.894V472.296C92.6633 473.271 91.8808 474.042 90.9161 474.042H39.134C38.1693 474.042 37.3868 473.271 37.3868 472.296V435.412C37.3868 434.438 38.1693 433.667 39.134 433.667H90.9161C91.8808 433.667 92.6633 434.438 92.6633 435.412V447.814L107.423 439.3C108.784 438.614 110.381 439.6 110.381 441.12Z" fill="url(#paint9_linear_1060_3824)"/>
<path d="M435.244 523.531C474.025 523.531 505.463 492.12 505.463 453.372C505.463 414.624 474.025 383.213 435.244 383.213C396.464 383.213 365.026 414.624 365.026 453.372C365.026 492.12 396.464 523.531 435.244 523.531Z" fill="#373F51" stroke="url(#paint10_linear_1060_3824)" stroke-miterlimit="10"/>
<path d="M437.71 465.602H432.779C425.651 465.602 419.874 459.83 419.874 452.708V426.276C419.874 419.154 425.651 413.382 432.779 413.382H437.71C444.838 413.382 450.615 419.154 450.615 426.276V452.708C450.615 459.83 444.838 465.602 437.71 465.602Z" fill="url(#paint11_linear_1060_3824)"/>
<path d="M435.244 474.802V493.372" stroke="url(#paint12_linear_1060_3824)" stroke-width="5" stroke-miterlimit="10" stroke-linecap="round" stroke-linejoin="round"/>
<path d="M448.375 493.372H422.114" stroke="url(#paint13_linear_1060_3824)" stroke-width="5" stroke-miterlimit="10" stroke-linecap="round" stroke-linejoin="round"/>
<path d="M459.083 453.961C459.083 464.938 450.401 473.838 439.693 473.838H430.807C420.099 473.838 411.417 464.938 411.417 453.961" stroke="url(#paint14_linear_1060_3824)" stroke-width="5" stroke-miterlimit="10" stroke-linecap="round" stroke-linejoin="round"/>
<path d="M435.244 149.41C474.025 149.41 505.463 117.999 505.463 79.2513C505.463 40.5035 474.025 9.09229 435.244 9.09229C396.464 9.09229 365.026 40.5035 365.026 79.2513C365.026 117.999 396.464 149.41 435.244 149.41Z" fill="#373F51" stroke="url(#paint15_linear_1060_3824)" stroke-miterlimit="10"/>
<path d="M437.045 84.1775L439.714 97.6395L425.619 95.1442L422.939 81.6821L437.045 84.1775Z" fill="#2E8DFF"/>
<path d="M437.034 84.1882L422.939 81.6822L435.009 73.9819L449.114 76.488L437.034 84.1882Z" fill="#00B7FF"/>
<path d="M449.104 76.4878L451.783 89.9498L439.714 97.6394L437.045 84.1773L449.104 76.4878Z" fill="#1769BC"/>
<path d="M433.862 68.2092L436.541 81.6713L422.446 79.1759L419.767 65.7139L433.862 68.2092Z" fill="#2E8DFF"/>
<path d="M433.862 68.2093L419.767 65.7032L431.836 58.0137L445.931 60.5197L433.862 68.2093Z" fill="#00B7FF"/>
<path d="M445.931 60.5195L448.611 73.9816L436.541 81.6711L433.862 68.2091L445.931 60.5195Z" fill="#1769BC"/>
<path d="M428.695 42.2063L431.375 55.6683L417.28 53.173L414.6 39.7109L428.695 42.2063Z" fill="#2E8DFF"/>
<path d="M428.695 42.217L414.6 39.711L426.669 32.0107L440.765 34.5168L428.695 42.217Z" fill="#00B7FF"/>
<path d="M440.765 34.5273L443.444 47.9894L431.375 55.6682L428.695 42.2062L440.765 34.5273Z" fill="#1769BC"/>
<path d="M453.466 87.4226L456.146 100.885L442.051 98.3893L439.371 84.9272L453.466 87.4226Z" fill="#2E8DFF"/>
<path d="M453.466 87.4226L439.371 84.9166L451.44 77.2271L465.546 79.7331L453.466 87.4226Z" fill="#00B7FF"/>
<path d="M465.536 79.7329L468.215 93.195L456.146 100.884L453.466 87.4224L465.536 79.7329Z" fill="#1769BC"/>
<path d="M450.294 71.4436L452.973 84.9056L438.867 82.4103L436.198 68.9482L450.294 71.4436Z" fill="#2E8DFF"/>
<path d="M450.294 71.4544L436.198 68.9483L448.268 61.248L462.363 63.7541L450.294 71.4544Z" fill="#00B7FF"/>
<path d="M462.363 63.7646L465.032 77.2267L452.973 84.9055L450.294 71.4435L462.363 63.7646Z" fill="#1769BC"/>
<path d="M447.121 55.4753L449.8 68.9374L435.695 66.442L433.026 52.98L447.121 55.4753Z" fill="#2E8DFF"/>
<path d="M447.121 55.4861L433.026 52.98L445.095 45.2798L459.19 47.7858L447.121 55.4861Z" fill="#00B7FF"/>
<path d="M459.19 47.7856L461.859 61.2477L449.801 68.9372L447.121 55.4752L459.19 47.7856Z" fill="#1769BC"/>
<path d="M469.898 90.657L472.578 104.119L458.483 101.624L455.803 88.1616L469.898 90.657Z" fill="#2E8DFF"/>
<path d="M469.898 90.6677L455.803 88.1617L467.872 80.4614L481.967 82.9675L469.898 90.6677Z" fill="#00B7FF"/>
<path d="M481.967 82.978L484.647 96.4401L472.578 104.119L469.898 90.6569L481.967 82.978Z" fill="#1769BC"/>
<path d="M477.583 71.8293L480.252 85.2914L466.157 82.796L463.478 69.334L477.583 71.8293Z" fill="#2E8DFF"/>
<path d="M477.573 71.8294L463.478 69.334L475.547 61.6338L489.653 64.1398L477.573 71.8294Z" fill="#00B7FF"/>
<path d="M489.642 64.1396L492.322 77.6017L480.252 85.2912L477.583 71.8292L489.642 64.1396Z" fill="#1769BC"/>
<path d="M463.553 58.7205L466.232 72.1825L452.126 69.6871L449.458 56.2251L463.553 58.7205Z" fill="#2E8DFF"/>
<path d="M463.553 58.7205L449.458 56.2144L461.527 48.5249L475.622 51.031L463.553 58.7205Z" fill="#00B7FF"/>
<path d="M475.622 51.0308L478.291 64.4928L466.232 72.1823L463.553 58.7203L475.622 51.0308Z" fill="#1769BC"/>
<path d="M423.175 93.8376L425.855 107.3L411.749 104.804L409.08 91.3423L423.175 93.8376Z" fill="#2E8DFF"/>
<path d="M423.175 93.8484L409.08 91.3423L421.149 83.6421L435.244 86.1482L423.175 93.8484Z" fill="#00B7FF"/>
<path d="M435.245 86.1479L437.914 99.61L425.855 107.3L423.175 93.8375L435.245 86.1479Z" fill="#1769BC"/>
<path d="M420.002 77.8694L422.682 91.3314L408.576 88.8361L405.907 75.374L420.002 77.8694Z" fill="#2E8DFF"/>
<path d="M420.002 77.8694L405.907 75.3634L417.977 67.6738L432.072 70.1799L420.002 77.8694Z" fill="#00B7FF"/>
<path d="M432.072 70.1797L434.741 83.6417L422.682 91.3313L420.002 77.8692L432.072 70.1797Z" fill="#1769BC"/>
<path d="M416.83 61.8909L419.499 75.3529L405.404 72.8576L402.724 59.3955L416.83 61.8909Z" fill="#2E8DFF"/>
<path d="M416.83 61.9016L402.724 59.3956L414.804 51.6953L428.899 54.2014L416.83 61.9016Z" fill="#00B7FF"/>
<path d="M428.888 54.2119L431.568 67.674L419.499 75.3528L416.83 61.8907L428.888 54.2119Z" fill="#1769BC"/>
<path d="M439.607 97.0828L442.287 110.545L428.181 108.049L425.512 94.5874L439.607 97.0828Z" fill="#2E8DFF"/>
<path d="M439.607 97.0828L425.512 94.5767L437.581 86.8872L451.676 89.3933L439.607 97.0828Z" fill="#00B7FF"/>
<path d="M451.676 89.3931L454.345 102.855L442.287 110.545L439.607 97.0826L451.676 89.3931Z" fill="#1769BC"/>
<path d="M436.434 81.1038L439.114 94.5658L425.008 92.0704L422.328 78.6084L436.434 81.1038Z" fill="#2E8DFF"/>
<path d="M436.434 81.1145L422.328 78.6085L434.408 70.9082L448.503 73.4143L436.434 81.1145Z" fill="#00B7FF"/>
<path d="M448.493 73.4248L451.173 86.8868L439.114 94.5657L436.434 81.1036L448.493 73.4248Z" fill="#1769BC"/>
<path d="M433.261 65.1355L435.93 78.5975L421.835 76.1022L419.156 62.6401L433.261 65.1355Z" fill="#2E8DFF"/>
<path d="M433.261 65.1463L419.156 62.6402L431.236 54.9399L445.331 57.446L433.261 65.1463Z" fill="#00B7FF"/>
<path d="M445.32 57.4458L448 70.9078L435.93 78.5974L433.261 65.1353L445.32 57.4458Z" fill="#1769BC"/>
<path d="M458.172 111.08L460.851 124.532L446.746 122.047L444.077 108.585L458.172 111.08Z" fill="#2E8DFF"/>
<path d="M458.172 111.08L444.077 108.574L456.146 100.885L470.241 103.38L458.172 111.08Z" fill="#00B7FF"/>
<path d="M470.241 103.391L472.91 116.853L460.852 124.531L458.172 111.08L470.241 103.391Z" fill="#1769BC"/>
<path d="M452.866 84.3489L455.535 97.8109L441.44 95.3156L438.76 81.8535L452.866 84.3489Z" fill="#2E8DFF"/>
<path d="M452.866 84.3489L438.76 81.8536L450.84 74.1533L464.935 76.6594L452.866 84.3489Z" fill="#00B7FF"/>
<path d="M464.925 76.6592L467.604 90.1212L455.535 97.8108L452.866 84.3487L464.925 76.6592Z" fill="#1769BC"/>
<path d="M449.693 68.3806L452.362 81.8426L438.267 79.3473L435.587 65.8853L449.693 68.3806Z" fill="#2E8DFF"/>
<path d="M449.693 68.3807L435.587 65.8746L447.657 58.1851L461.763 60.6911L449.693 68.3807Z" fill="#00B7FF"/>
<path d="M461.752 60.6909L464.432 74.153L452.362 81.8425L449.693 68.3805L461.752 60.6909Z" fill="#1769BC"/>
<path d="M409.316 103.498L411.985 116.96L397.89 114.464L395.21 101.002L409.316 103.498Z" fill="#2E8DFF"/>
<path d="M409.316 103.509L395.21 101.002L407.279 93.3022L421.385 95.8083L409.316 103.509Z" fill="#00B7FF"/>
<path d="M421.374 95.8081L424.054 109.27L411.985 116.96L409.316 103.498L421.374 95.8081Z" fill="#1769BC"/>
<path d="M398.276 87.3904L400.955 100.852L386.849 98.3571L384.18 84.895L398.276 87.3904Z" fill="#2E8DFF"/>
<path d="M398.276 87.4011L384.18 84.8951L396.25 77.1948L410.345 79.7009L398.276 87.4011Z" fill="#00B7FF"/>
<path d="M410.345 79.7114L413.025 93.1735L400.955 100.852L398.276 87.3903L410.345 79.7114Z" fill="#1769BC"/>
<path d="M402.96 71.5505L405.639 85.0126L391.544 82.5172L388.865 69.0552L402.96 71.5505Z" fill="#2E8DFF"/>
<path d="M402.96 71.5613L388.865 69.0552L400.934 61.355L415.029 63.861L402.96 71.5613Z" fill="#00B7FF"/>
<path d="M415.029 63.8716L417.709 77.3336L405.639 85.0124L402.96 71.5504L415.029 63.8716Z" fill="#1769BC"/>
<path d="M426.852 112.312L429.521 125.774L415.426 123.278L412.746 109.816L426.852 112.312Z" fill="#2E8DFF"/>
<path d="M426.852 112.323L412.746 109.816L424.815 102.116L438.921 104.622L426.852 112.323Z" fill="#00B7FF"/>
<path d="M438.91 104.633L441.59 118.084L429.521 125.774L426.852 112.312L438.91 104.633Z" fill="#1769BC"/>
<path d="M422.575 90.7639L425.244 104.226L411.149 101.731L408.469 88.2686L422.575 90.7639Z" fill="#2E8DFF"/>
<path d="M422.564 90.7747L408.469 88.2686L420.538 80.5684L434.644 83.0744L422.564 90.7747Z" fill="#00B7FF"/>
<path d="M434.634 83.085L437.313 96.547L425.244 104.226L422.575 90.7638L434.634 83.085Z" fill="#1769BC"/>
<path d="M419.392 74.7956L422.071 88.2577L407.965 85.7623L405.296 72.3003L419.392 74.7956Z" fill="#2E8DFF"/>
<path d="M419.392 74.8064L405.296 72.3003L417.366 64.6001L431.461 67.1062L419.392 74.8064Z" fill="#00B7FF"/>
<path d="M431.461 67.106L434.13 80.568L422.071 88.2575L419.392 74.7955L431.461 67.106Z" fill="#1769BC"/>
<path d="M442.179 109.977L444.848 123.439L430.753 120.943L428.073 107.481L442.179 109.977Z" fill="#2E8DFF"/>
<path d="M442.169 109.988L428.073 107.481L440.143 99.7812L454.249 102.287L442.169 109.988Z" fill="#00B7FF"/>
<path d="M454.238 102.298L456.918 115.76L444.848 123.439L442.179 109.977L454.238 102.298Z" fill="#1769BC"/>
<path d="M438.996 94.009L441.676 107.471L427.581 104.976L424.901 91.5137L438.996 94.009Z" fill="#2E8DFF"/>
<path d="M438.996 94.0091L424.901 91.5137L436.97 83.8135L451.065 86.3195L438.996 94.0091Z" fill="#00B7FF"/>
<path d="M451.065 86.3193L453.745 99.7814L441.676 107.471L438.996 94.0089L451.065 86.3193Z" fill="#1769BC"/>
<path d="M435.823 78.0408L438.503 91.5028L424.397 89.0075L421.728 75.5454L435.823 78.0408Z" fill="#2E8DFF"/>
<path d="M435.823 78.0408L421.728 75.5348L433.797 67.8452L447.892 70.3513L435.823 78.0408Z" fill="#00B7FF"/>
<path d="M447.893 70.3511L450.561 83.8131L438.503 91.5027L435.823 78.0406L447.893 70.3511Z" fill="#1769BC"/>
<path d="M254.923 119.252C277.034 119.252 294.958 101.343 294.958 79.2516C294.958 57.1598 277.034 39.251 254.923 39.251C232.813 39.251 214.889 57.1598 214.889 79.2516C214.889 101.343 232.813 119.252 254.923 119.252Z" fill="#373F51" stroke="url(#paint16_linear_1060_3824)" stroke-miterlimit="10"/>
<path d="M259.232 75.7816L276.103 56.5898H272.105L257.453 73.2541L245.748 56.5898H232.253L249.95 81.7897L232.253 101.913H236.251L251.718 84.3172L264.077 101.913H277.572M237.698 59.5457H243.84L272.116 99.1179H265.974" fill="white"/>
<path d="M254.923 493.373C277.034 493.373 294.958 475.464 294.958 453.372C294.958 431.28 277.034 413.372 254.923 413.372C232.813 413.372 214.889 431.28 214.889 453.372C214.889 475.464 232.813 493.373 254.923 493.373Z" fill="#373F51" stroke="url(#paint17_linear_1060_3824)" stroke-miterlimit="10"/>
<path d="M271.891 437.629C268.729 436.151 265.342 435.069 261.805 434.459C261.365 435.241 260.862 436.301 260.508 437.136C256.746 436.569 253.015 436.569 249.328 437.136C248.974 436.301 248.46 435.241 248.021 434.459C244.483 435.069 241.085 436.151 237.923 437.629C231.535 447.268 229.809 456.671 230.678 465.935C234.912 469.094 239.017 471.011 243.047 472.275C244.044 470.904 244.934 469.447 245.695 467.916C244.237 467.359 242.843 466.684 241.525 465.892C241.879 465.635 242.222 465.367 242.543 465.078C250.593 468.837 259.329 468.837 267.282 465.078C267.614 465.356 267.957 465.624 268.3 465.892C266.982 466.684 265.578 467.37 264.12 467.927C264.881 469.458 265.771 470.915 266.768 472.285C270.809 471.032 274.914 469.115 279.148 465.945C280.177 455.204 277.422 445.886 271.891 437.629ZM246.799 460.248C244.387 460.248 242.404 457.999 242.404 455.246C242.404 452.505 244.344 450.245 246.799 450.245C249.253 450.245 251.236 452.494 251.193 455.246C251.193 457.988 249.253 460.248 246.799 460.248ZM263.048 460.248C260.636 460.248 258.653 457.999 258.653 455.246C258.653 452.505 260.594 450.245 263.048 450.245C265.503 450.245 267.486 452.494 267.443 455.246C267.443 457.988 265.503 460.248 263.048 460.248Z" fill="white"/>
<path d="M70.2184 308.524C92.3288 308.524 110.253 290.615 110.253 268.524C110.253 246.432 92.3288 228.523 70.2184 228.523C48.108 228.523 30.184 246.432 30.184 268.524C30.184 290.615 48.108 308.524 70.2184 308.524Z" fill="#373F51" stroke="url(#paint18_linear_1060_3824)" stroke-miterlimit="10"/>
<path d="M91.6666 271.726V290.725H83.2309V274.971C83.2309 265.503 71.9763 266.221 71.9763 274.971V290.725H63.5299V259.806H71.9763V264.764C75.91 257.493 91.6666 256.957 91.6666 271.726Z" fill="white"/>
<path d="M58.6208 251.27C58.6208 254.012 56.4127 256.229 53.7009 256.229C50.9783 256.229 48.7703 254.012 48.7703 251.27C48.7703 248.539 50.9783 246.322 53.7009 246.322C56.4127 246.322 58.6208 248.539 58.6208 251.27Z" fill="white"/>
<path d="M57.924 259.795H49.4777V290.714H57.924V259.795Z" fill="white"/>
<path d="M438.246 308.524C460.356 308.524 478.28 290.615 478.28 268.524C478.28 246.432 460.356 228.523 438.246 228.523C416.135 228.523 398.211 246.432 398.211 268.524C398.211 290.615 416.135 308.524 438.246 308.524Z" fill="#373F51" stroke="url(#paint19_linear_1060_3824)" stroke-miterlimit="10"/>
<path d="M425.308 271.447L430.056 284.577C430.056 284.577 430.646 285.809 431.289 285.809C431.932 285.809 441.386 275.977 441.386 275.977L451.901 255.683L425.48 268.052L425.308 271.447Z" fill="#C8DAEA"/>
<path d="M431.611 274.81L430.7 284.492C430.7 284.492 430.314 287.458 433.283 284.492C436.252 281.525 439.092 279.233 439.092 279.233" fill="#A9C6D8"/>
<path d="M425.394 271.919L415.629 268.738C415.629 268.738 414.461 268.267 414.836 267.196C414.911 266.971 415.072 266.789 415.533 266.467C417.698 264.957 455.599 251.345 455.599 251.345C455.599 251.345 456.671 250.981 457.304 251.228C457.625 251.324 457.861 251.592 457.936 251.913C458 252.191 458.032 252.481 458.022 252.77C458.022 253.016 457.99 253.252 457.968 253.616C457.732 257.332 450.829 285.113 450.829 285.113C450.829 285.113 450.411 286.741 448.932 286.794C448.193 286.816 447.485 286.537 446.96 286.034C444.055 283.539 434.012 276.792 431.793 275.314C431.697 275.249 431.622 275.132 431.611 275.014C431.579 274.853 431.75 274.66 431.75 274.66C431.75 274.66 449.243 259.131 449.704 257.493C449.736 257.364 449.608 257.3 449.425 257.364C448.268 257.793 428.127 270.494 425.908 271.897C425.737 271.929 425.565 271.94 425.394 271.919Z" fill="white"/>
<path d="M73.8841 149.603C112.665 149.603 144.102 118.192 144.102 79.4441C144.102 40.6964 112.665 9.28516 73.8841 9.28516C35.1036 9.28516 3.66577 40.6964 3.66577 79.4441C3.66577 118.192 35.1036 149.603 73.8841 149.603Z" fill="#373F51" stroke="url(#paint20_linear_1060_3824)" stroke-miterlimit="10"/>
<path fill-rule="evenodd" clip-rule="evenodd" d="M115.173 79.5086V79.5621C115.173 79.787 115.173 80.0119 115.162 80.2368C115.151 80.7295 115.14 81.2328 115.108 81.7255C115.087 82.0468 115.076 82.3574 115.044 82.6786C114.98 83.4712 114.894 84.2744 114.787 85.0669C114.701 85.6881 114.604 86.3092 114.487 86.9304C114.422 87.2945 114.347 87.6693 114.272 88.0335C114.101 88.8474 113.908 89.6506 113.683 90.4539C113.136 92.4244 112.45 94.3629 111.592 96.2692C111.024 97.5651 110.371 98.8395 109.652 100.082C109.631 100.114 109.62 100.146 109.599 100.178C109.449 100.425 109.309 100.682 109.149 100.928C101.367 113.769 87.6576 120.934 73.5732 120.923H73.5303C73.4124 120.923 73.2945 120.923 73.1766 120.912C73.1766 120.912 73.1766 120.912 73.1659 120.912C66.263 120.837 59.2851 119.049 52.886 115.354C49.7133 113.522 46.8728 111.338 44.3861 108.874C42.5853 107.097 40.9775 105.169 39.5627 103.134C38.255 101.249 37.1081 99.2786 36.1434 97.2224C36.0255 96.9868 35.9183 96.7404 35.8111 96.5048C33.3887 91.1393 32.1239 85.2918 32.1346 79.3801V79.3265C32.1346 79.2087 32.1346 79.0909 32.1453 78.9838V78.9731C32.156 78.2341 32.1775 77.4952 32.2203 76.7562C32.5205 72.0761 33.6245 67.396 35.586 62.9193C35.6932 62.673 35.8004 62.4267 35.9183 62.1697C36.3685 61.1737 36.8723 60.1884 37.4189 59.2138C37.5154 59.0424 37.6119 58.8818 37.7083 58.7104C37.8155 58.5284 37.912 58.357 38.0192 58.1749C40.6989 53.6983 44.0967 49.8964 47.9769 46.8441C48.9844 46.0516 50.0349 45.3019 51.1067 44.6058C56.5197 41.1145 62.6722 38.9404 69.0284 38.2228C70.5827 38.0515 72.1476 37.9658 73.7125 37.9658H73.7661C74.9345 37.9658 76.1028 38.0194 77.2711 38.1265C79.3613 38.3085 81.4514 38.6512 83.5202 39.1546C86.4249 39.8614 89.2868 40.9003 92.063 42.2818C92.8454 42.6674 93.6279 43.085 94.3997 43.5348C102.16 48.0115 107.927 54.6086 111.389 62.1697C111.507 62.416 111.614 62.6623 111.721 62.9193C112.986 65.8324 113.908 68.8739 114.487 71.9904C114.937 74.4643 115.173 76.9811 115.173 79.5086Z" fill="#0472CF"/>
<path fill-rule="evenodd" clip-rule="evenodd" d="M37.7084 58.7105C46.8193 42.9352 67.0027 37.5375 82.7914 46.6407C98.58 55.7439 103.982 75.9102 94.8714 91.6855C85.7605 107.461 65.5771 112.859 49.7884 103.755C33.9997 94.6414 28.5868 74.4751 37.7084 58.7105Z" fill="#2E8DFF"/>
<path fill-rule="evenodd" clip-rule="evenodd" d="M37.7299 58.721C43.8824 48.0649 57.5167 44.4129 68.1818 50.571C78.8469 56.7183 82.502 70.341 76.3387 80.9971C70.1862 91.6532 56.552 95.3052 45.8868 89.1472C35.2217 82.9998 31.5666 69.3664 37.7299 58.721Z" fill="#4A9CFF"/>
<path fill-rule="evenodd" clip-rule="evenodd" d="M99.1589 78.2235C99.1267 76.6277 99.041 75.0427 98.9016 73.4791C98.7409 71.6584 98.505 69.8592 98.1942 68.0921C98.1406 67.7923 98.087 67.4924 98.0334 67.2032C97.8298 66.1323 97.5939 65.072 97.3367 64.0225C97.1438 63.2299 96.9294 62.4374 96.7043 61.6663C96.5971 61.2915 96.4792 60.9167 96.372 60.5525C96.2005 60.0063 96.0183 59.4708 95.8361 58.9354C95.6967 58.5284 95.5467 58.1321 95.3966 57.7359C95.2037 57.2218 95 56.7185 94.7964 56.2151C94.6141 55.7867 94.4319 55.3583 94.2497 54.9407C94.0675 54.5337 93.8746 54.1267 93.6816 53.7198C93.4244 53.1843 93.1564 52.6488 92.8777 52.1347C91.495 49.5644 89.8979 47.2404 88.0972 45.2377C87.9364 45.0557 87.7649 44.8736 87.5934 44.6915C87.4648 44.5523 87.3361 44.4131 87.1968 44.2846C86.9395 44.0275 86.6823 43.7705 86.425 43.5242C85.6426 42.7959 84.8494 42.1319 84.0455 41.5536C81.6231 39.7972 79.1042 38.6941 76.5745 38.2336C75.7706 38.0837 74.956 37.998 74.1414 37.9766C74.9346 37.998 75.7278 38.0944 76.5102 38.255C79.0291 38.7584 81.5373 39.9471 83.9383 41.8642C84.5707 42.3675 85.1924 42.9244 85.8141 43.5349C85.9427 43.6634 86.0713 43.7919 86.1892 43.9204C86.4358 44.1775 86.6823 44.4345 86.9181 44.7022C86.9503 44.7344 86.9824 44.7772 87.0146 44.8093C88.5902 46.5764 90.0158 48.6113 91.2699 50.8603C91.4521 51.1816 91.6343 51.5136 91.8058 51.8456C92.7062 53.5591 93.4994 55.3798 94.2068 57.2968C94.2176 57.3396 94.239 57.3718 94.2497 57.4146C94.3247 57.6074 94.389 57.8001 94.4641 58.0036C94.5284 58.175 94.582 58.3356 94.6356 58.507C94.8178 59.0425 94.9893 59.5779 95.1608 60.1241C95.954 62.7052 96.5864 65.4147 97.0473 68.1992C97.1009 68.5419 97.1545 68.8954 97.2081 69.2488C97.2402 69.4415 97.2617 69.6343 97.2938 69.8271C97.4332 70.791 97.5511 71.7763 97.6368 72.7615C97.6797 73.1899 97.7119 73.6183 97.744 74.0467C97.9905 77.2489 98.0227 80.5046 97.819 83.7604C97.7976 84.0924 97.7762 84.4244 97.7547 84.7456C97.744 84.9277 97.7226 85.1098 97.7119 85.2918C97.6368 86.2236 97.5404 87.1553 97.4225 88.0871C97.401 88.2798 97.3689 88.4726 97.3474 88.6761C97.1759 89.9505 96.9723 91.2143 96.7257 92.4673C96.2863 94.7592 95.7182 97.0082 95.0215 99.193C94.9143 99.5357 94.8071 99.8677 94.6892 100.2C94.6677 100.275 94.6356 100.35 94.6141 100.414C94.4748 100.821 94.3355 101.217 94.1854 101.613C93.7888 102.695 93.3601 103.723 92.9206 104.719C92.6955 105.223 92.4597 105.715 92.2239 106.186C87.6255 115.515 80.9478 120.709 74.0556 120.923C81.7517 120.709 89.2119 114.84 94.0353 104.366C94.2497 103.916 94.4534 103.445 94.6463 102.973C94.8928 102.384 95.1394 101.785 95.3645 101.174C95.4824 100.853 95.611 100.521 95.7289 100.189C95.7503 100.125 95.7825 100.05 95.8039 99.9855C95.8146 99.9534 95.8254 99.9105 95.8361 99.8784C96.0076 99.3858 96.1791 98.8824 96.3399 98.3683C97.2724 95.4232 97.9584 92.3816 98.43 89.2973C98.4622 89.1045 98.4836 88.9117 98.5158 88.7189C98.6444 87.7658 98.7623 86.8126 98.848 85.8595C98.8802 85.5382 98.9124 85.2169 98.9338 84.8956C99.1267 82.6573 99.2018 80.4297 99.1589 78.2235ZM55.0942 106.219C54.3653 104.751 53.7008 103.198 53.1112 101.592C52.9612 101.196 52.8218 100.799 52.6825 100.392C51.8893 98.0792 51.2355 95.6374 50.721 93.1206C50.6674 92.8743 50.6245 92.628 50.5709 92.3816C50.4852 91.9747 50.4101 91.557 50.3458 91.1393C50.3458 91.1286 50.3458 91.1286 50.3458 91.1179C50.0457 89.3615 49.8099 87.5837 49.6491 85.7738C49.6169 85.3882 49.5848 84.992 49.5526 84.5957C49.4133 82.7215 49.349 80.8366 49.3597 78.941C49.3597 78.2342 49.3811 77.538 49.4026 76.8312C49.4133 76.5742 49.424 76.3064 49.4347 76.0494C49.5419 73.6933 49.7777 71.3479 50.1314 69.0239C50.1743 68.7668 50.2065 68.5098 50.2493 68.2528C50.528 66.5714 50.871 64.9114 51.2783 63.2728C51.3427 63.0265 51.3963 62.7801 51.4713 62.5445C51.8036 61.2701 52.1787 60.0063 52.5967 58.764C52.6075 58.7533 52.6075 58.7426 52.6075 58.7212C52.6289 58.6462 52.6611 58.5712 52.6825 58.507C52.7361 58.357 52.7897 58.1964 52.8433 58.0465C52.929 57.8001 53.0148 57.5538 53.1112 57.3075C53.7008 55.7118 54.3439 54.2124 55.0299 52.8094C55.4479 51.9527 55.8874 51.128 56.3376 50.3462C56.4448 50.1534 56.552 49.9714 56.6591 49.7893C57.1093 49.0289 57.581 48.3114 58.0633 47.6153C59.4996 45.5697 61.0538 43.8347 62.6938 42.4211C64.7196 40.6754 66.8848 39.4331 69.1143 38.7048C70.4649 38.2657 71.8476 38.0194 73.2196 37.9766C71.8369 38.0194 70.4541 38.2336 69.1036 38.6299C66.6597 39.3474 64.2802 40.6433 62.0507 42.4853C60.3678 43.8776 58.7707 45.5804 57.2916 47.5724C56.7771 48.2685 56.284 48.9968 55.8016 49.7679C55.6837 49.95 55.5766 50.132 55.4586 50.3141C55.0835 50.9353 54.7191 51.5778 54.3653 52.2418C53.465 53.9232 52.6396 55.7546 51.9 57.7145C51.7821 58.0358 51.6535 58.3678 51.5356 58.6998C51.5142 58.764 51.482 58.839 51.4606 58.9032C51.4498 58.9247 51.4391 58.9461 51.4391 58.9675C51.139 59.8243 50.8603 60.7025 50.6031 61.5807C50.0028 63.6262 49.5098 65.7253 49.1346 67.8458C49.0917 68.0921 49.0489 68.3385 49.006 68.5848C48.5879 71.1123 48.3093 73.6719 48.1914 76.2315C48.1806 76.4778 48.1699 76.7241 48.1592 76.9811C48.1485 77.2703 48.1378 77.5488 48.1378 77.8379C48.0949 79.6371 48.127 81.4364 48.2342 83.2249C48.2557 83.6104 48.2771 83.996 48.3093 84.3815C48.47 86.5127 48.7273 88.6118 49.081 90.6681C49.1668 91.15 49.2525 91.6213 49.349 92.1032C49.3704 92.1889 49.3811 92.2852 49.4026 92.3709C49.4562 92.6172 49.499 92.8636 49.5526 93.1099C50.0564 95.4767 50.6995 97.7686 51.4606 99.9534C51.5999 100.35 51.7393 100.746 51.8893 101.142C51.8893 101.142 51.8893 101.142 51.8893 101.153C51.9536 101.335 52.0287 101.517 52.093 101.699C52.6396 103.113 53.2506 104.473 53.9044 105.769C55.7909 109.517 58.1276 112.784 60.8609 115.354C64.7411 118.995 68.9642 120.794 73.1445 120.912C69.1679 120.784 65.1591 118.984 61.4719 115.354C59.0065 112.891 56.8521 109.785 55.0942 106.219Z" fill="#004179"/>
<path fill-rule="evenodd" clip-rule="evenodd" d="M115.151 80.2476C115.13 80.7403 115.076 81.2329 114.99 81.7256C114.808 82.8501 114.497 83.9639 114.047 85.067C113.758 85.7845 113.404 86.4914 112.997 87.1982C112.129 88.6976 111.003 90.1648 109.599 91.5892C108.195 93.0136 106.587 94.3094 104.808 95.4982C104.593 95.6374 104.39 95.7766 104.165 95.9159C101.828 97.3938 99.2232 98.679 96.4042 99.7606C96.222 99.8356 96.0397 99.8999 95.8468 99.9641C95.8361 99.9748 95.8254 99.9748 95.8147 99.9748C95.4181 100.125 95.0215 100.264 94.6142 100.403C93.1993 100.885 91.7308 101.324 90.2409 101.699C90.0051 101.763 89.7586 101.817 89.5228 101.881C87.7756 102.299 85.9749 102.652 84.1527 102.931C83.7561 102.995 83.3702 103.049 82.9736 103.102C82.4163 103.177 81.8696 103.241 81.3122 103.306C81.1622 103.327 81.0014 103.338 80.8513 103.359C80.2939 103.413 79.7259 103.466 79.1685 103.509C70.3898 104.205 61.1717 103.263 52.9076 100.467C52.8326 100.446 52.7575 100.414 52.6932 100.393C52.2859 100.253 51.8893 100.114 51.4927 99.9641C51.0747 99.8142 50.6674 99.6535 50.2601 99.4929C49.7241 99.2787 49.1989 99.0645 48.6844 98.8396C48.3736 98.7004 48.0735 98.5719 47.7733 98.4326C47.4303 98.272 47.0981 98.1114 46.7765 97.9507C46.4657 97.8008 46.1655 97.6401 45.8654 97.4902C43.593 96.2907 41.5779 94.9627 39.8415 93.549C39.7557 93.4741 39.6593 93.3991 39.5735 93.3241C39.4663 93.2385 39.3699 93.1528 39.2627 93.0671C38.6517 92.5423 38.0943 92.0068 37.5584 91.4607C36.583 90.4539 35.7255 89.4044 35.0073 88.3334C34.2677 87.2411 33.6782 86.1165 33.2173 84.9706C32.5527 83.2999 32.1883 81.5971 32.1347 79.8728C32.1883 81.6827 32.5527 83.4927 33.2173 85.2491C33.5282 86.0737 33.9033 86.8876 34.3535 87.6801C35.3932 89.5543 36.7866 91.3643 38.5124 93.0457C38.641 93.1742 38.7696 93.292 38.8982 93.4205C39.0805 93.5919 39.2627 93.7632 39.4449 93.9239C39.477 93.956 39.5199 93.9881 39.5521 94.0203C41.4279 95.6803 43.6359 97.2117 46.1655 98.5719C46.5514 98.7861 46.948 98.9895 47.3446 99.1823C47.709 99.3644 48.0842 99.5465 48.4701 99.7285C49.0167 99.9855 49.5741 100.232 50.1422 100.467C50.7103 100.714 51.2998 100.939 51.9 101.174C51.9 101.174 51.9 101.174 51.9108 101.174C52.2323 101.292 52.5646 101.421 52.8862 101.538C52.9505 101.56 53.0255 101.592 53.0898 101.613C61.6005 104.591 71.108 105.522 80.0903 104.644C80.2725 104.623 80.4547 104.612 80.6369 104.591C80.9049 104.559 81.1729 104.526 81.4409 104.505C85.8998 103.98 90.2088 103.006 94.1747 101.624C94.582 101.485 94.9786 101.335 95.3752 101.185C95.536 101.121 95.686 101.067 95.8468 101.003C96.029 100.928 96.2113 100.853 96.4042 100.778C99.4161 99.5679 102.192 98.1114 104.658 96.4085C104.861 96.2586 105.076 96.1194 105.279 95.9694C106.876 94.8128 108.323 93.5597 109.599 92.1996C111.11 90.5825 112.311 88.9118 113.2 87.2089C113.522 86.5985 113.801 85.9773 114.036 85.3669C114.508 84.1674 114.819 82.9572 115.001 81.747C115.076 81.2329 115.13 80.7296 115.151 80.2476C115.162 80.1405 115.162 80.0227 115.173 79.9156C115.162 80.0227 115.151 80.1298 115.151 80.2476ZM113.704 72.7616C112.129 69.1846 109.277 65.811 105.29 62.9301C105.279 62.9194 105.269 62.9194 105.269 62.9087C105.022 62.7266 104.765 62.5446 104.508 62.3732C104.4 62.2983 104.304 62.234 104.197 62.159C101.667 60.4776 98.7301 58.9783 95.3966 57.7252C95.2037 57.6503 95 57.5753 94.7964 57.5003C94.6678 57.4575 94.5391 57.4039 94.4105 57.3611C94.3569 57.3397 94.3033 57.3183 94.239 57.2968C94.2283 57.2968 94.2176 57.2861 94.1961 57.2861C94.1104 57.254 94.0353 57.2326 93.9496 57.2005C91.5164 56.3651 88.9975 55.6904 86.4465 55.1763C86.2643 55.1442 86.0821 55.1014 85.8891 55.0692C81.5373 54.2446 77.0676 53.8805 72.6515 53.9447C72.1477 53.9554 71.6439 53.9661 71.1402 53.9876C64.8161 54.2232 58.6314 55.3477 53.1113 57.2754C52.7039 57.4146 52.3074 57.5646 51.9108 57.7145C51.1926 57.9823 50.4852 58.2714 49.7885 58.5713C46.605 59.9421 43.7002 61.6021 41.192 63.5406C40.9562 63.7226 40.7204 63.9047 40.4953 64.0868C40.3024 64.2474 40.1095 64.4081 39.9165 64.5687C39.1233 65.2434 38.3837 65.9502 37.687 66.6892C36.508 67.9422 35.5218 69.2274 34.7287 70.534C34.1606 71.4657 33.6889 72.4082 33.3031 73.3613C32.8422 74.518 32.5099 75.6853 32.3169 76.8634C32.199 77.5595 32.1347 78.2664 32.1133 78.9625C32.1347 78.2664 32.2098 77.5809 32.3384 76.8848C32.5313 75.8138 32.8422 74.7536 33.2816 73.6933C33.6675 72.7616 34.1498 71.8513 34.7394 70.9409C35.5326 69.6986 36.508 68.4884 37.6763 67.2997C38.4802 66.4857 39.3591 65.7039 40.3024 64.965C40.4953 64.8043 40.699 64.6544 40.8919 64.5044C41.0849 64.3652 41.2671 64.226 41.46 64.0868C41.7173 63.894 41.9852 63.7226 42.2425 63.5406C44.0539 62.3197 46.0476 61.2166 48.1806 60.2527C49.2311 59.7708 50.3244 59.3317 51.4499 58.914C51.4713 58.9033 51.482 58.9033 51.5035 58.8926C51.8786 58.7534 52.2645 58.6141 52.6504 58.4856C53.2828 58.2714 53.9259 58.0572 54.5797 57.8645C59.3388 56.4294 64.5267 55.5512 69.8432 55.262C71.1402 55.187 72.4586 55.1549 73.7662 55.1549C77.8179 55.1656 81.891 55.519 85.8677 56.2366C86.0499 56.2687 86.2321 56.3008 86.4251 56.3437C89.0833 56.847 91.6987 57.5217 94.2176 58.3571C94.2712 58.3785 94.3248 58.3892 94.3891 58.4106C94.4641 58.4321 94.5391 58.4642 94.6034 58.4856C94.657 58.507 94.7106 58.5177 94.7535 58.5392H94.7642C95.1179 58.657 95.4609 58.7855 95.8039 58.914C98.4407 59.8886 100.831 61.0131 102.953 62.2447C103.018 62.2875 103.093 62.3304 103.157 62.3625C103.457 62.5339 103.747 62.7159 104.036 62.898C104.047 62.9087 104.057 62.9087 104.068 62.9194C108.602 65.7789 111.818 69.1953 113.576 72.858C114.54 74.8607 115.065 76.9276 115.13 79.0267C115.098 76.9062 114.615 74.7964 113.704 72.7616Z" fill="#004179"/>
<path d="M74.12 37.9658C74.8381 65.0934 74.8274 93.7524 74.12 120.912C73.4232 93.7524 73.4018 65.1041 74.12 37.9658Z" fill="#004179"/>
<path d="M115.634 79.4443C88.483 80.1619 59.7997 80.1511 32.6171 79.4443C59.8105 78.7375 88.4723 78.7268 115.634 79.4443Z" fill="#004179"/>
<defs>
<radialGradient id="paint0_radial_1060_3824" cx="0" cy="0" r="1" gradientUnits="userSpaceOnUse" gradientTransform="translate(-nan -nan) rotate(-nan) scale(-nan -nan)">
<stop stop-color="#F7931A"/>
<stop offset="0.3771" stop-color="#F8A138"/>
</radialGradient>
<radialGradient id="paint1_radial_1060_3824" cx="0" cy="0" r="1" gradientUnits="userSpaceOnUse" gradientTransform="translate(254.921 268.521) scale(137.413 137.296)">
<stop stop-color="#F7931A"/>
<stop offset="0.3771" stop-color="#F8A138"/>
</radialGradient>
<radialGradient id="paint2_radial_1060_3824" cx="0" cy="0" r="1" gradientUnits="userSpaceOnUse" gradientTransform="translate(-nan -nan) rotate(-nan) scale(-nan -nan)">
<stop stop-color="#F7931A"/>
<stop offset="0.3771" stop-color="#F8A138"/>
</radialGradient>
<radialGradient id="paint3_radial_1060_3824" cx="0" cy="0" r="1" gradientUnits="userSpaceOnUse" gradientTransform="translate(254.921 268.521) scale(137.413 137.296)">
<stop stop-color="#F7931A"/>
<stop offset="0.3771" stop-color="#F8A138"/>
</radialGradient>
<linearGradient id="paint4_linear_1060_3824" x1="317.054" y1="160.995" x2="192.945" y2="376.14" gradientUnits="userSpaceOnUse">
<stop stop-color="white"/>
<stop offset="1" stop-color="white" stop-opacity="0"/>
</linearGradient>
<linearGradient id="paint5_linear_1060_3824" x1="158.275" y1="237.531" x2="289.531" y2="237.531" gradientUnits="userSpaceOnUse">
<stop stop-color="#2580E3"/>
<stop offset="0.0361" stop-color="#2383E5"/>
<stop offset="0.4123" stop-color="#10A0F3"/>
<stop offset="0.7403" stop-color="#04B1FC"/>
<stop offset="0.9818" stop-color="#00B7FF"/>
</linearGradient>
<linearGradient id="paint6_linear_1060_3824" x1="189.293" y1="268.522" x2="320.548" y2="268.522" gradientUnits="userSpaceOnUse">
<stop stop-color="#2580E3"/>
<stop offset="0.0361" stop-color="#2383E5"/>
<stop offset="0.4123" stop-color="#10A0F3"/>
<stop offset="0.7403" stop-color="#04B1FC"/>
<stop offset="0.9818" stop-color="#00B7FF"/>
</linearGradient>
<linearGradient id="paint7_linear_1060_3824" x1="220.31" y1="299.513" x2="351.565" y2="299.513" gradientUnits="userSpaceOnUse">
<stop stop-color="#2580E3"/>
<stop offset="0.0361" stop-color="#2383E5"/>
<stop offset="0.4123" stop-color="#10A0F3"/>
<stop offset="0.7403" stop-color="#04B1FC"/>
<stop offset="0.9818" stop-color="#00B7FF"/>
</linearGradient>
<linearGradient id="paint8_linear_1060_3824" x1="109.269" y1="392.614" x2="38.5917" y2="515.134" gradientUnits="userSpaceOnUse">
<stop stop-color="white"/>
<stop offset="1" stop-color="white" stop-opacity="0"/>
</linearGradient>
<linearGradient id="paint9_linear_1060_3824" x1="37.3852" y1="453.848" x2="110.386" y2="453.848" gradientUnits="userSpaceOnUse">
<stop stop-color="#2580E3"/>
<stop offset="0.0361" stop-color="#2383E5"/>
<stop offset="0.4123" stop-color="#10A0F3"/>
<stop offset="0.7403" stop-color="#04B1FC"/>
<stop offset="0.9818" stop-color="#00B7FF"/>
</linearGradient>
<linearGradient id="paint10_linear_1060_3824" x1="470.629" y1="392.138" x2="399.952" y2="514.658" gradientUnits="userSpaceOnUse">
<stop stop-color="white"/>
<stop offset="1" stop-color="white" stop-opacity="0"/>
</linearGradient>
<linearGradient id="paint11_linear_1060_3824" x1="419.874" y1="439.486" x2="450.618" y2="439.486" gradientUnits="userSpaceOnUse">
<stop stop-color="#2580E3"/>
<stop offset="0.0361" stop-color="#2383E5"/>
<stop offset="0.4123" stop-color="#10A0F3"/>
<stop offset="0.7403" stop-color="#04B1FC"/>
<stop offset="0.9818" stop-color="#00B7FF"/>
</linearGradient>
<linearGradient id="paint12_linear_1060_3824" x1="-nan" y1="-nan" x2="-nan" y2="-nan" gradientUnits="userSpaceOnUse">
<stop stop-color="#2580E3"/>
<stop offset="0.0361" stop-color="#2383E5"/>
<stop offset="0.4123" stop-color="#10A0F3"/>
<stop offset="0.7403" stop-color="#04B1FC"/>
<stop offset="0.9818" stop-color="#00B7FF"/>
</linearGradient>
<linearGradient id="paint13_linear_1060_3824" x1="-nan" y1="-nan" x2="-nan" y2="-nan" gradientUnits="userSpaceOnUse">
<stop stop-color="#2580E3"/>
<stop offset="0.0361" stop-color="#2383E5"/>
<stop offset="0.4123" stop-color="#10A0F3"/>
<stop offset="0.7403" stop-color="#04B1FC"/>
<stop offset="0.9818" stop-color="#00B7FF"/>
</linearGradient>
<linearGradient id="paint14_linear_1060_3824" x1="408.727" y1="463.903" x2="461.765" y2="463.903" gradientUnits="userSpaceOnUse">
<stop stop-color="#2580E3"/>
<stop offset="0.0361" stop-color="#2383E5"/>
<stop offset="0.4123" stop-color="#10A0F3"/>
<stop offset="0.7403" stop-color="#04B1FC"/>
<stop offset="0.9818" stop-color="#00B7FF"/>
</linearGradient>
<linearGradient id="paint15_linear_1060_3824" x1="470.629" y1="18.0199" x2="399.952" y2="140.54" gradientUnits="userSpaceOnUse">
<stop stop-color="white"/>
<stop offset="1" stop-color="white" stop-opacity="0"/>
</linearGradient>
<linearGradient id="paint16_linear_1060_3824" x1="275.207" y1="44.1461" x2="234.685" y2="114.392" gradientUnits="userSpaceOnUse">
<stop stop-color="white"/>
<stop offset="1" stop-color="white" stop-opacity="0"/>
</linearGradient>
<linearGradient id="paint17_linear_1060_3824" x1="275.207" y1="418.264" x2="234.685" y2="488.51" gradientUnits="userSpaceOnUse">
<stop stop-color="white"/>
<stop offset="1" stop-color="white" stop-opacity="0"/>
</linearGradient>
<linearGradient id="paint18_linear_1060_3824" x1="90.5059" y1="233.414" x2="49.9838" y2="303.66" gradientUnits="userSpaceOnUse">
<stop stop-color="white"/>
<stop offset="1" stop-color="white" stop-opacity="0"/>
</linearGradient>
<linearGradient id="paint19_linear_1060_3824" x1="458.533" y1="233.414" x2="418.011" y2="303.66" gradientUnits="userSpaceOnUse">
<stop stop-color="white"/>
<stop offset="1" stop-color="white" stop-opacity="0"/>
</linearGradient>
<linearGradient id="paint20_linear_1060_3824" x1="109.269" y1="18.2086" x2="38.5917" y2="140.728" gradientUnits="userSpaceOnUse">
<stop stop-color="white"/>
<stop offset="1" stop-color="white" stop-opacity="0"/>
</linearGradient>
</defs>
</svg>
