<svg id="Layer_1" data-name="Layer 1" xmlns="http://www.w3.org/2000/svg" xmlns:xlink="http://www.w3.org/1999/xlink" viewBox="0 0 928.5 928.5"><defs><style>.cls-1,.cls-2,.cls-3,.cls-4,.cls-5{fill:none;}.cls-2,.cls-3,.cls-4,.cls-5{stroke:#f7931a;stroke-miterlimit:10;}.cls-2{stroke-width:6px;}.cls-3{stroke-width:4.33px;opacity:0.67;}.cls-4{stroke-width:2.67px;opacity:0.33;}.cls-5{opacity:0;}.cls-6{fill:#0472cf;}.cls-10,.cls-11,.cls-12,.cls-6,.cls-7,.cls-8,.cls-9{fill-rule:evenodd;}.cls-7{fill:#2e8dff;}.cls-8{fill:#4a9cff;}.cls-9{fill:#004179;}.cls-10{fill:url(#radial-gradient);}.cls-11{fill:#f7931a;}.cls-12,.cls-14{fill:#fffdfc;}.cls-13{clip-path:url(#clip-path);}.cls-15{clip-path:url(#clip-path-2);}.cls-16{clip-path:url(#clip-path-3);}.cls-17{clip-path:url(#clip-path-4);}.cls-18{clip-path:url(#clip-path-5);}.cls-19{clip-path:url(#clip-path-6);}</style><radialGradient id="radial-gradient" cx="459.13" cy="462.49" r="221.35" gradientUnits="userSpaceOnUse"><stop offset="0" stop-color="#0472cf"/><stop offset="1" stop-color="#0751bd"/></radialGradient><clipPath id="clip-path"><path class="cls-1" d="M322.71,292.27c-.7-35.37-29.71-66.46-66.46-66.46S190.48,257,189.79,292.27c-.71,36.56,29.08,69.35,66.81,69.16C294,361.24,323.42,328.64,322.71,292.27Z"/></clipPath><clipPath id="clip-path-2"><path class="cls-1" d="M377.36,488.42c-1.21-31.59-27.08-60.95-60.95-60.95s-59.76,29.42-60.94,60.95c-1.28,33.86,26,66.21,61.47,65.91C352,554,378.64,522,377.36,488.42Z"/></clipPath><clipPath id="clip-path-3"><path class="cls-1" d="M714.51,330.74c-.79-36.17-30.48-68.32-68.32-68.32s-67.53,32.08-68.32,68.32c-.83,37.39,29.32,71.2,67.9,71.43C684.68,402.41,715.32,368.37,714.51,330.74Z"/></clipPath><clipPath id="clip-path-4"><path class="cls-1" d="M512.56,210.48c-.6-19.74-16.78-37.69-37.69-37.69s-37.1,18-37.69,37.69c-.63,20.83,16.23,40.25,37.93,40.11C496.63,250.46,513.19,231.17,512.56,210.48Z"/></clipPath><clipPath id="clip-path-5"><path class="cls-1" d="M495.78,679.78c-.93-38.77-32.71-73.27-73.28-73.27s-72.36,34.59-73.28,73.27c-1,40.43,32,77.22,73.83,76.92C464.48,756.39,496.74,719.89,495.78,679.78Z"/></clipPath><clipPath id="clip-path-6"><path class="cls-1" d="M687.9,566.83c-.76-28.4-24-53.86-53.86-53.86s-53.11,25.56-53.85,53.86c-.78,29.86,23.62,57.24,54.55,56.85C665.12,623.29,688.69,596.28,687.9,566.83Z"/></clipPath></defs><circle class="cls-2" cx="464.25" cy="464.25" r="305.29"/><circle class="cls-3" cx="464.25" cy="464.25" r="358.11"/><circle class="cls-4" cx="464.25" cy="464.25" r="410.93"/><circle class="cls-5" cx="464.25" cy="464.25" r="463.75"/><path class="cls-6" d="M719.53,465v.3c0,1.38,0,2.78,0,4.17q-.08,4.62-.33,9.27c-.1,2-.22,3.93-.39,5.9q-.57,7.42-1.58,14.85-.78,5.79-1.87,11.59c-.4,2.3-.86,4.59-1.34,6.87q-1.61,7.58-3.68,15.07a260.52,260.52,0,0,1-25,59.89c-.11.19-.21.38-.33.57-.9,1.56-1.82,3.12-2.76,4.65A257.69,257.69,0,0,1,461.25,722.42h-.31c-.73,0-1.47,0-2.2,0h0A258.58,258.58,0,0,1,280,647.55a257.33,257.33,0,0,1-51.23-72.45c-.72-1.49-1.41-3-2.08-4.49a259,259,0,0,1-22.85-106.48v-.31c0-.72,0-1.43,0-2.15v-.08c.05-4.59.19-9.19.48-13.79a256.49,256.49,0,0,1,20.87-86c.67-1.56,1.36-3.09,2.09-4.64q4.25-9.3,9.32-18.36c.58-1.06,1.18-2.09,1.79-3.15s1.29-2.21,1.95-3.32A256.57,256.57,0,0,1,302.2,261.9q9.44-7.42,19.47-13.89A258.72,258.72,0,0,1,433,208.31a261.61,261.61,0,0,1,29.11-1.62h.3q10.88,0,21.79,1a256,256,0,0,1,91.86,25.83q7.35,3.63,14.53,7.78A256.58,256.58,0,0,1,696.07,357.15q1.06,2.33,2.07,4.64A259.06,259.06,0,0,1,719.53,465Z"/><path class="cls-7" d="M238.4,335.64c56.6-98,182-131.63,280-75s131.63,182,75,280-182,131.63-280,75S181.79,433.69,238.4,335.64Z"/><path class="cls-8" d="M238.53,335.72a138.47,138.47,0,1,1,50.68,189.16A138.47,138.47,0,0,1,238.53,335.72Z"/><path class="cls-9" d="M620.09,457c-.18-9.9-.71-19.75-1.6-29.49q-1.51-17-4.41-33.52-.48-2.78-1-5.54-1.91-10-4.3-19.77c-1.22-4.94-2.52-9.83-3.94-14.66-.68-2.34-1.37-4.66-2.09-6.95-1.07-3.4-2.18-6.74-3.34-10.06-.87-2.5-1.77-5-2.7-7.43q-1.8-4.79-3.74-9.46-1.65-4-3.42-7.92T586,304.62q-2.41-5-5-9.84a218.67,218.67,0,0,0-29.69-42.85c-1-1.16-2.07-2.29-3.12-3.4q-1.21-1.29-2.46-2.55c-1.57-1.61-3.18-3.17-4.81-4.7A153.19,153.19,0,0,0,526.12,229c-15.05-10.94-30.7-17.75-46.43-20.66a97.61,97.61,0,0,0-15.09-1.61,87.9,87.9,0,0,1,14.73,1.72C495,211.58,510.55,219,525.47,230.9a149.14,149.14,0,0,1,11.65,10.38c.78.77,1.57,1.57,2.36,2.37q2.29,2.37,4.55,4.88c.21.23.41.46.62.68a210.27,210.27,0,0,1,26.4,37.62c1.13,2,2.23,4.07,3.31,6.15a290.4,290.4,0,0,1,14.93,33.88c.09.24.17.47.25.71.44,1.2.89,2.42,1.31,3.64.38,1,.73,2.08,1.09,3.12q1.68,4.95,3.27,10a387.66,387.66,0,0,1,11.71,50.22c.35,2.16.7,4.32,1,6.5.19,1.21.36,2.41.52,3.63q1.27,9,2.16,18.21.38,4,.69,8a438.74,438.74,0,0,1,.5,60.37c-.12,2-.26,4.11-.41,6.15-.09,1.13-.18,2.25-.26,3.38-.49,5.79-1.08,11.59-1.8,17.35-.16,1.22-.31,2.42-.47,3.64q-1.58,11.85-3.86,23.55a371.74,371.74,0,0,1-10.59,41.84c-.66,2.1-1.35,4.18-2,6.26-.16.46-.31.91-.47,1.36-.86,2.52-1.75,5-2.66,7.46-2.46,6.71-5.1,13.15-7.86,19.32q-2.11,4.68-4.31,9.14c-28.53,58-70.07,90.31-112.82,91.63,47.77-1.35,94.11-37.8,124.1-102.9,1.32-2.83,2.58-5.72,3.83-8.67q2.31-5.47,4.48-11.22,1.14-3,2.25-6.12l.45-1.29c.08-.23.16-.44.23-.67,1.08-3.1,2.12-6.23,3.11-9.36a371.82,371.82,0,0,0,12.95-56.41c.18-1.19.36-2.4.53-3.6q1.25-8.86,2.09-17.8c.21-2,.38-4,.55-6C619.92,484.53,620.34,470.72,620.09,457ZM346.37,631A296.77,296.77,0,0,1,334,602.23c-.9-2.46-1.79-4.94-2.63-7.45a363,363,0,0,1-12.21-45.24c-.32-1.53-.62-3.08-.91-4.62-.51-2.56-1-5.15-1.41-7.75a.29.29,0,0,1,0-.1q-2.81-16.35-4.33-33.23c-.23-2.42-.42-4.87-.61-7.3q-1.28-17.44-1.16-35.14,0-6.56.27-13.13c.07-1.62.13-3.26.22-4.89a425.2,425.2,0,0,1,4.33-43.68c.24-1.61.5-3.22.76-4.81q2.6-15.67,6.38-31c.38-1.52.76-3,1.17-4.55q3.11-11.91,7-23.48a2.58,2.58,0,0,0,.08-.26l.47-1.35c.33-1,.66-1.93,1-2.88.54-1.55,1.09-3.07,1.66-4.59a298,298,0,0,1,11.93-28c2.6-5.33,5.33-10.43,8.14-15.33.67-1.16,1.34-2.3,2-3.43q4.24-7.08,8.74-13.49a174.41,174.41,0,0,1,28.77-32.25c12.61-10.85,26.06-18.61,39.89-23.1a92.06,92.06,0,0,1,25.52-4.51,100.63,100.63,0,0,0-25.57,4.09c-15.21,4.49-30,12.55-43.82,24a177.07,177.07,0,0,0-29.53,31.65q-4.8,6.48-9.28,13.62c-.71,1.13-1.42,2.27-2.12,3.42q-3.5,5.79-6.8,12a289.67,289.67,0,0,0-15.3,34q-1.14,3-2.25,6.12c-.15.43-.3.85-.44,1.28-.05.13-.1.27-.14.4q-2.81,8-5.21,16.22a366.92,366.92,0,0,0-9.15,39c-.29,1.52-.54,3-.8,4.57a404.92,404.92,0,0,0-5,47.55c-.08,1.55-.14,3.09-.21,4.64-.06,1.79-.11,3.56-.15,5.34-.25,11.2-.06,22.39.57,33.5.13,2.39.28,4.77.47,7.16,1,13.23,2.59,26.3,4.81,39.1q.75,4.49,1.64,8.91c.1.56.21,1.1.33,1.65.31,1.54.62,3.09,1,4.62a353.07,353.07,0,0,0,11.86,42.58q1.29,3.72,2.69,7.39a.08.08,0,0,0,0,0c.42,1.12.85,2.25,1.29,3.37q5.11,13.16,11.27,25.32c11.75,23.3,26.24,43.62,43.23,59.59,24.1,22.62,50.32,33.8,76.31,34.55-24.69-.8-49.61-12-72.53-34.55C370.67,672.49,357.33,653.15,346.37,631Z"/><path class="cls-9" d="M719.39,469.54a86.92,86.92,0,0,1-1,9.18,94.05,94.05,0,0,1-5.87,20.78A105.19,105.19,0,0,1,706,512.74,135.55,135.55,0,0,1,684.94,540a188.09,188.09,0,0,1-29.76,24.3c-1.3.87-2.62,1.73-4,2.6A270.48,270.48,0,0,1,603,590.79c-1.14.44-2.28.87-3.44,1.29a1.57,1.57,0,0,1-.23.09c-2.46.91-5,1.8-7.46,2.65-8.8,3-17.89,5.7-27.19,8.07-1.48.38-3,.75-4.49,1.12q-16.29,3.93-33.36,6.55c-2.43.37-4.88.72-7.33,1.05q-5.16.71-10.35,1.27l-2.84.3c-3.47.36-7,.68-10.45,1-54.52,4.3-111.81-1.54-163.13-18.88l-1.35-.47c-2.53-.86-5-1.75-7.47-2.66s-5.12-1.92-7.63-2.93c-3.32-1.32-6.58-2.67-9.76-4.08q-2.85-1.26-5.63-2.55c-2.1-1-4.17-2-6.21-3s-3.8-1.9-5.65-2.89a220.48,220.48,0,0,1-37.39-24.53c-.56-.45-1.12-.91-1.66-1.38s-1.28-1.07-1.9-1.61q-5.66-4.9-10.59-10a139.28,139.28,0,0,1-15.83-19.45,111.71,111.71,0,0,1-11.09-20.89,93.13,93.13,0,0,1-6.74-31.69,102.19,102.19,0,0,0,6.74,33.41,115.66,115.66,0,0,0,7,15.11A145.46,145.46,0,0,0,243.49,549c.8.78,1.6,1.56,2.42,2.32,1.12,1,2.26,2.1,3.43,3.13.21.2.44.4.67.59a218.79,218.79,0,0,0,41.06,28.32q3.6,2,7.34,3.81c2.28,1.16,4.62,2.28,7,3.37q5.07,2.4,10.36,4.61t10.9,4.36h0c2,.76,4,1.51,6.08,2.23l1.28.44C386.9,620.75,446,626.52,501.77,621.09l3.42-.34,5-.56a373.77,373.77,0,0,0,79.07-17.91c2.49-.87,5-1.77,7.42-2.7,1-.36,2-.73,2.93-1.11,1.16-.45,2.3-.9,3.44-1.37A262.29,262.29,0,0,0,654.26,570q1.93-1.35,3.84-2.74a187.7,187.7,0,0,0,26.84-23.43,140.91,140.91,0,0,0,22.39-31,111.53,111.53,0,0,0,5.21-11.49,102.09,102.09,0,0,0,6-22.53c.44-3.07.75-6.14.9-9.21,0-.67.05-1.35.08-2C719.47,468.17,719.43,468.86,719.39,469.54ZM710.46,423c-9.81-22.25-27.49-43.19-52.29-61.11l-.15-.12c-1.54-1.11-3.12-2.23-4.72-3.32l-2-1.32a269.53,269.53,0,0,0-54.64-27.59c-1.23-.47-2.48-.93-3.74-1.38l-2.38-.86-1-.37-.25-.09c-.51-.18-1-.36-1.51-.52a358.66,358.66,0,0,0-46.63-12.57c-1.16-.23-2.3-.46-3.44-.66a406.71,406.71,0,0,0-82.23-7q-4.69.06-9.37.24c-39.3,1.49-77.69,8.47-112,20.46q-3.74,1.32-7.42,2.7-6.72,2.53-13.2,5.32a247.63,247.63,0,0,0-53.36,30.87q-2.19,1.69-4.31,3.42h0q-1.83,1.49-3.57,3a177.08,177.08,0,0,0-13.83,13.2A143.84,143.84,0,0,0,220,409.25a115.12,115.12,0,0,0-8.82,17.58,102.89,102.89,0,0,0-6.11,21.75,97.35,97.35,0,0,0-1.25,13,87.33,87.33,0,0,1,1.38-12.92,93.6,93.6,0,0,1,5.88-19.83,109.45,109.45,0,0,1,9-17.14,138.39,138.39,0,0,1,18.27-22.64,175.37,175.37,0,0,1,16.28-14.51q1.83-1.47,3.69-2.86t3.54-2.59c1.6-1.17,3.23-2.29,4.88-3.42a249.72,249.72,0,0,1,36.9-20.46q9.82-4.47,20.3-8.33l.33-.11c2.34-.86,4.73-1.71,7.12-2.52q5.9-2,12-3.84a406,406,0,0,1,94.79-16.19q12.14-.66,24.38-.65a425.93,425.93,0,0,1,75.13,6.72c1.14.19,2.28.41,3.44.64a370.08,370.08,0,0,1,48.39,12.54l1,.35c.46.15.91.3,1.36.47l1,.32.06,0c2.18.75,4.32,1.51,6.44,2.31a280.58,280.58,0,0,1,44.43,20.72l1.29.76c1.85,1.09,3.66,2.19,5.45,3.32l.19.12c28.15,17.75,48.15,39,59.06,61.75A94.37,94.37,0,0,1,719.48,462,102.8,102.8,0,0,0,710.46,423Z"/><path class="cls-10" d="M249.61,369.13m-1.5-2.54M255,364a3.49,3.49,0,0,1-.15-3.48A231.43,231.43,0,0,1,316,284.66l.42-.35a3.44,3.44,0,0,1,2.25-.79h51.66a1.62,1.62,0,0,0,1.2-.5L388,266.49a3.5,3.5,0,0,1,2.53-1.05h37.83a3.53,3.53,0,0,1,3.48,2.72,21.3,21.3,0,0,0,5.62,9.95h0a21.12,21.12,0,0,0,27.73,1.93,19.09,19.09,0,0,0,2.21-1.93h0a21.19,21.19,0,0,0,6.13-13.18c0-.58.07-1.19.07-1.79A21.12,21.12,0,0,0,471,253s0,0,0-.07a3.51,3.51,0,0,1,.64-4.19l12.7-12.7a3.48,3.48,0,0,1,2.93-1,230.17,230.17,0,0,1,55.59,13.55c.6.22,1.19.46,1.79.69,2.22.86,4.43,1.78,6.62,2.72a228.9,228.9,0,0,1,40.54,22.41,231.51,231.51,0,0,1,71.05,78.83,3.45,3.45,0,0,1-.06,3.55,2.61,2.61,0,0,1-.31.43,3.4,3.4,0,0,1-2.77,1.32H615.63a3.51,3.51,0,0,1-2.53-1l-10.37-10.38-6.54-6.53L594,338.33a3.5,3.5,0,0,1-1-2.53V307.47a1.68,1.68,0,0,0-.6-1.31l-.19-.18L581,294.78l-7.45-7.44a1.72,1.72,0,0,0-1.19-.51H555.87a1.69,1.69,0,0,0-1.12.43l-.09.08-16.44,16.44a1.72,1.72,0,0,0-.5,1.22v24.87a1.75,1.75,0,0,0,.5,1.21l15.49,15.48a3.53,3.53,0,0,1,1,2.55v4.05a3.59,3.59,0,0,1-3.58,3.57,21.17,21.17,0,0,0-15,6.21v0a21.14,21.14,0,0,0,0,30,3.58,3.58,0,0,1,0,5.05l-33.1,33.11a3.52,3.52,0,0,1-2.53,1H480.87a1.73,1.73,0,0,0-1.21.49l-20.11,20.12A1.66,1.66,0,0,0,459,454v15.1a1.77,1.77,0,0,0,.64,1.33l.2.17,13,12.4,19.8,18.91a1.71,1.71,0,0,0,1.18.47H549.4a3.6,3.6,0,0,1,3.58,3.58,21,21,0,0,0,6.22,15v0a21.14,21.14,0,0,0,29.93,0l0,0a20.49,20.49,0,0,0,3.36-4.38,3.59,3.59,0,0,1,4.9-1.29l6.81,3.94,4.62,2.67,6.79,3.91,6.82,3.94a3.47,3.47,0,0,1,1.79,3.09v34.86a3.52,3.52,0,0,1-1.77,3.09l-19.8,11.43-2.23,1.29a1.72,1.72,0,0,0-.87,1.47v17a3.45,3.45,0,0,1-1,2.54l-6.38,6.38L581.38,621.6l-16.75,16.73L530.1,672.87a1.7,1.7,0,0,0-.51,1.21v7a3.51,3.51,0,0,1-2.56,3.42c-3.29,1-6.61,1.9-9.94,2.73-2.51.64-5,1.24-7.56,1.77a3.56,3.56,0,0,1-4.34-3.49V620a3.54,3.54,0,0,1,3.16-3.54,21.3,21.3,0,0,0,11.17-4.89c.45-.38.87-.77,1.3-1.19l0,0a21.16,21.16,0,0,0,0-29.93l0,0a21.37,21.37,0,0,0-10.63-5.77,22.51,22.51,0,0,0-4.35-.43,20.83,20.83,0,0,0-10.56,2.84,3.53,3.53,0,0,1-4.32-.58l-6.3-6.3a3.38,3.38,0,0,1-1.05-2.52V518.54a1.67,1.67,0,0,0-.61-1.31,1.51,1.51,0,0,1-.2-.17L468.28,503a1.8,1.8,0,0,0-1.19-.48H445.76a3.47,3.47,0,0,1-2.54-1.06l-15.1-15.1a3.54,3.54,0,0,1-.47-4.5c.25-.4.49-.8.71-1.19a21.07,21.07,0,0,0-3.48-25.34l0,0a21.12,21.12,0,0,0-26.53-2.76,3.56,3.56,0,0,1-4.49-.47l-7.76-7.75-18.56-18.57a3.48,3.48,0,0,1-1-2.53V371.65a1.66,1.66,0,0,0-.51-1.2l-6.26-6.25a3.52,3.52,0,0,1-.7-4,21.15,21.15,0,0,0-4.27-23.82l0,0a21,21,0,0,0-11.29-5.88c-4.05,1.22-8,2.49-12,3.85-2.41.81-4.78,1.66-7.12,2.52-.17.17-.32.33-.48.51q-2.82,8-5.21,16.23a21.08,21.08,0,0,0,4.07,10.38,21.85,21.85,0,0,0,2,2.36v0a21.15,21.15,0,0,0,28.7,1.15,3.57,3.57,0,0,1,4.85.19l3.67,3.67a3.48,3.48,0,0,1,1,2.53v51.54a1.75,1.75,0,0,0,.51,1.23l22.54,22.52,5.4,5.4A3.53,3.53,0,0,1,392,459a23.08,23.08,0,0,0-1.6,3.08,21.18,21.18,0,0,0,4.54,23.19h0a21.18,21.18,0,0,0,26.27,2.95,3.57,3.57,0,0,1,4.45.49l16.72,16.74a1.79,1.79,0,0,0,1.21.48H465a3.49,3.49,0,0,1,2.51,1l11.64,11.26a3.51,3.51,0,0,1,1.08,2.57v49.11a1.7,1.7,0,0,0,.5,1.21l7.51,7.51a3,3,0,0,1,.39.48,3.53,3.53,0,0,1,0,4.12,21.1,21.1,0,0,0,2.3,27.21l0,0a21.22,21.22,0,0,0,5,3.71,21.44,21.44,0,0,0,3.42,1.46,3.55,3.55,0,0,1,2.46,3.41v5.29l0,67.72a1.51,1.51,0,0,0,0,.3,1.71,1.71,0,0,0,2,1.37c4.75-.88,9.46-1.92,14.14-3.08s9-2.42,13.45-3.82l.31-.09A1.74,1.74,0,0,0,533,685v-8.73a3.46,3.46,0,0,1,1-2.53l26.16-26.16,4.78-4.77,12.07-12.08,11.28-11.27,14.17-14.18a1.65,1.65,0,0,0,.51-1.21V588a3.51,3.51,0,0,1,1.79-3.11l21.69-12.53.23-.12a1.7,1.7,0,0,0,1-1.53V530.14c0-.13,0-.27,0-.41a1.71,1.71,0,0,0-.86-1.47l-10.64-6.14-6.85-4L605.56,516l-8.48-4.89a3.53,3.53,0,0,1-1.78-3.4,17.73,17.73,0,0,0,.08-1.79,21.06,21.06,0,0,0-5.46-14.18c-.24-.27-.5-.53-.75-.78h0a21.25,21.25,0,0,0-4.36-3.36,21.14,21.14,0,0,0-25.57,3.36h0a21,21,0,0,0-4.17,5.92,3.52,3.52,0,0,1-3.23,2H496a3.47,3.47,0,0,1-2.47-1l-18.69-17.85-11.2-10.69a3.46,3.46,0,0,1-1.12-2.58V456.14a3.48,3.48,0,0,1,1-2.53l17-17a3.45,3.45,0,0,1,2.53-1.06h19.71a1.64,1.64,0,0,0,1.21-.5l36.32-36.31a3.48,3.48,0,0,1,3.73-.84,21.22,21.22,0,0,0,22.11-5l0,0a21.15,21.15,0,0,0,0-29.94l0,0a21.38,21.38,0,0,0-5.91-4.17,3.49,3.49,0,0,1-2-3.23v-8.63a1.72,1.72,0,0,0-.5-1.22l-15.5-15.48a3.47,3.47,0,0,1-1.05-2.54V307.18a3.48,3.48,0,0,1,1.05-2.53l13.34-13.35a3.44,3.44,0,0,1,2.41-1h12.2a3.51,3.51,0,0,1,2.55,1L586,304.61l2.49,2.5a3.5,3.5,0,0,1,1,2.53V338a1.7,1.7,0,0,0,.5,1.21L604.83,354l7.42,7.41a1.62,1.62,0,0,0,1.2.51h54.6a2.6,2.6,0,0,1,.4,0,1.48,1.48,0,0,0,.55-.09.85.85,0,0,0,.22-.09,1.68,1.68,0,0,0,.75-2.26c-.38-.77-.76-1.52-1.16-2.29A234.53,234.53,0,0,0,552,248.52c-2.07-.88-4.16-1.72-6.25-2.54s-4.13-1.59-6.23-2.33q-9.36-3.35-19-5.89a232.69,232.69,0,0,0-35-6.42l-.22,0a1.71,1.71,0,0,0-1.52.49l-14,14a3.58,3.58,0,0,1-4.67.35,21.1,21.1,0,0,0-27.56,2v0a21.1,21.1,0,0,0-5.83,10.93,3.56,3.56,0,0,1-3.51,2.89H388.36a1.68,1.68,0,0,0-1.22.5l-5.83,5.84L370.62,279a3.5,3.5,0,0,1-2.53,1H334.5l-17.71,0a1.77,1.77,0,0,0-.84.21,1.3,1.3,0,0,0-.2.15,234.42,234.42,0,0,0-66,82.6M469,269.71a0,0,0,0,1,0,0,17.54,17.54,0,0,1-2.7,4.63c-.38.46-.79.92-1.23,1.36v0a17.83,17.83,0,0,1-25.13,0l0,0a17.82,17.82,0,0,1,0-25.14h0a17.83,17.83,0,0,1,25.13,0h0a17,17,0,0,1,3.17,4.33,17.85,17.85,0,0,1,.77,14.81ZM352.31,363.89l0,0a17.81,17.81,0,0,1-25.11,0l0,0A17.68,17.68,0,0,1,322,351.32a17.64,17.64,0,0,1,5.19-12.55l0,0a17.12,17.12,0,0,1,3.7-2.84,17.81,17.81,0,0,1,21.41,2.84l0,0a17.79,17.79,0,0,1,0,25.12Zm72,116.76a16.63,16.63,0,0,1-1.86,2.18v0a17.8,17.8,0,0,1-25.13,0l0,0a17.68,17.68,0,0,1-5.2-12.55,17.82,17.82,0,0,1,5.2-12.57l0,0a17.85,17.85,0,0,1,25.13,0v0a17.81,17.81,0,0,1,1.86,22.94Zm69,127.37h0a17.84,17.84,0,0,1,0-25.14h0a17.58,17.58,0,0,1,12.32-5.18h.23a17.62,17.62,0,0,1,12.48,5.1l.12.1a17.81,17.81,0,0,1-.13,25.24,17.4,17.4,0,0,1-9.13,4.77,16.68,16.68,0,0,1-2.84.3,4.1,4.1,0,0,1-.5,0A17.68,17.68,0,0,1,493.29,608Zm68.3-114.66,0,0a17.84,17.84,0,0,1,20.74-3.2,16.46,16.46,0,0,1,3.85,2.69l.54.51,0,0a17.79,17.79,0,0,1,0,25.12l0,0a17.84,17.84,0,0,1-25.11,0l0,0a19.74,19.74,0,0,1-1.37-1.55,17.82,17.82,0,0,1,1.37-23.57Zm2.16-128v0a17.83,17.83,0,0,1,0,25.13v0a17.82,17.82,0,0,1-25.14,0v0a17.8,17.8,0,0,1,0-25.13v0a17.84,17.84,0,0,1,25.14,0Z"/><path class="cls-11" d="M452.45,271.52a8.38,8.38,0,1,0-8.37-8.38A8.4,8.4,0,0,0,452.45,271.52Z"/><path class="cls-11" d="M339.73,359.7a8.38,8.38,0,1,0-8.38-8.38A8.39,8.39,0,0,0,339.73,359.7Z"/><path class="cls-11" d="M551.18,386.31a8.38,8.38,0,1,0-8.38-8.37A8.39,8.39,0,0,0,551.18,386.31Z"/><path class="cls-11" d="M574.18,514.3a8.38,8.38,0,1,0-8.38-8.38A8.4,8.4,0,0,0,574.18,514.3Z"/><path class="cls-11" d="M505.85,603.81a8.38,8.38,0,1,0-8.38-8.38A8.39,8.39,0,0,0,505.85,603.81Z"/><path class="cls-11" d="M409.89,479.25a8.38,8.38,0,1,0-8.38-8.38A8.39,8.39,0,0,0,409.89,479.25Z"/><path class="cls-12" d="M194.73,248.05A76.22,76.22,0,0,0,307.67,349l2.74.26L341,352.22,328.22,324.3l-1.15-2.5a76.22,76.22,0,0,0-132.34-73.75Z"/><circle cx="256.25" cy="292.27" r="66.46"/><g class="cls-13"><path class="cls-14" d="M313.4,363.42H199.1c1.44-9.49,0-27.42,15.91-37.95,4.44-2.94,9.92-3.94,14.78-6.13a10.24,10.24,0,0,0,1.94-.89c1.9-1.14,2.31-2,4.15-3.38a5.06,5.06,0,0,1,2.14-1c2.56-.41,3.68-1.32,4.29-3.84a22.94,22.94,0,0,0,.66-10.06,3.53,3.53,0,0,0-2.3-3c-3-1.18-6-2.5-9-3.77-2.24-.95-2.38-1.74-1.57-4.06a89.2,89.2,0,0,0,5.13-22.55c.47-5.85.08-11.88,2.2-17.53,1.52-4,4-7.67,8-8.85,3.09-.9,5.75-3,9-3.4a14.11,14.11,0,0,1,1.73-.09l.18,0c7.71.49,16.88,5.14,19,13.68.13.44.17.9.28,1.35h.19c1.19,4.85,1.07,9.89,1.45,14.83a88.64,88.64,0,0,0,5.13,22.55c.81,2.32.67,3.11-1.57,4-3,1.27-6,2.59-9,3.77a3.52,3.52,0,0,0-2.31,3,22.63,22.63,0,0,0,.67,10.06c.59,2.53,1.72,3.44,4.28,3.84a5,5,0,0,1,2.14,1c1.43,1.09,2.58,2.66,4.15,3.37,5.51,2.5,11.49,4,16.75,7C313.4,334.51,312,353.93,313.4,363.42Z"/></g><path class="cls-12" d="M248.07,501a69.9,69.9,0,0,0,138.55-10.42l1.91-1.64,21.36-18.33-26.55-9.33-2.38-.84A69.9,69.9,0,0,0,248.07,501Z"/><circle cx="316.41" cy="488.42" r="60.94"/><g class="cls-15"><path class="cls-14" d="M368.82,553.66H264c1.33-8.69,0-25.14,14.59-34.8,4.08-2.69,9.1-3.61,13.56-5.62a8.45,8.45,0,0,0,1.77-.82c1.75-1,2.12-1.81,3.81-3.09a4.83,4.83,0,0,1,2-.95c2.35-.37,3.38-1.21,3.94-3.52a21.14,21.14,0,0,0,.61-9.23,3.25,3.25,0,0,0-2.12-2.78c-2.78-1.08-5.52-2.28-8.27-3.45-2.05-.87-2.18-1.59-1.43-3.72a82.36,82.36,0,0,0,4.7-20.68c.43-5.37.07-10.9,2-16.08,1.38-3.65,3.63-7,7.32-8.12,2.83-.82,5.26-2.71,8.24-3.12a13.7,13.7,0,0,1,1.58-.08l.17,0c7.06.44,15.48,4.7,17.47,12.54.11.4.15.82.26,1.23h.17c1.09,4.45,1,9.08,1.33,13.6a81.17,81.17,0,0,0,4.7,20.68c.75,2.13.61,2.86-1.43,3.72-2.75,1.17-5.5,2.37-8.27,3.46a3.24,3.24,0,0,0-2.12,2.78,21,21,0,0,0,.61,9.22c.55,2.32,1.59,3.15,3.93,3.52a4.67,4.67,0,0,1,2,1c1.31,1,2.37,2.43,3.81,3.09,5.05,2.29,10.54,3.7,15.36,6.43C368.82,527.15,367.5,545,368.82,553.66Z"/></g><path class="cls-12" d="M715.84,295.76a78,78,0,0,0-145.3,53.84L569,351.94l-17.24,26.23L583.08,380l2.81.17a78,78,0,0,0,130-84.4Z"/><circle cx="646.19" cy="330.74" r="68.32"/><g class="cls-16"><path class="cls-14" d="M701.79,374.4a318.08,318.08,0,0,0-31.43-13.66,3.91,3.91,0,0,1-2.07-1.62,51,51,0,0,1-2.1-6c-.39-1.29-.74-2.51-2.15-3.12a1.76,1.76,0,0,1-.72-1.39c.07-4.69-1-9.61,2.46-13.7a1.78,1.78,0,0,0,.22-.46c1.87-4.11,2.21-8.79,4.83-12.6a.75.75,0,0,0,.09-.34c.31-2.91.62-5.81.86-8.73a1.35,1.35,0,0,0-.6-1.11c-1.45-.52-1.36-1.67-1.35-2.83q0-8.55,0-17.07a10.92,10.92,0,0,0-3.47-8.5c-2.85-2.56-5.77-5-8.69-7.51-1.42-1.19-1.54-2.11-.22-3.43a15.85,15.85,0,0,1,2-1.49l-.44-.66a16.6,16.6,0,0,0-2.64,0c-3.23.52-6.48,1-9.66,1.72-6.06,1.44-12,3.33-16.88,7.39-3.38,2.78-6.07,6-6.39,10.59-.17,2.39-.15,4.8-.17,7.21,0,3.9,0,7.82,0,11.72,0,.64-.38,1.68-.81,1.82-1.59.52-1.63,1.53-1.42,2.85.15.9,0,1.85.23,2.73.55,2.45,1.13,4.89,1.84,7.3.53,1.79,1.54,3.49,1.83,5.31a17.94,17.94,0,0,0,4.36,9.55,2.78,2.78,0,0,1,.67,1.81c-.19,2.81-.48,5.61-.85,8.39a2,2,0,0,1-1.12,1.45c-1.86.39-2.15,1.83-2.59,3.27-.58,1.91-1.22,3.82-2,5.68a2.91,2.91,0,0,1-1.38,1.43c-3.31,1.45-6.68,2.77-10,4.16-3.55,1.49-7.13,2.92-10.59,4.57s-7,3.63-10.53,5.5a26.17,26.17,0,0,0-5.6,3.84v23H707.07v-23.3A20.46,20.46,0,0,0,701.79,374.4Z"/></g><path class="cls-12" d="M492.8,171.69a43,43,0,0,0-43.29,73.71l.16,1.55,1.78,17.22,14-10.15,1.26-.91a43,43,0,0,0,26.07-81.42Z"/><circle cx="474.87" cy="210.48" r="37.69"/><g class="cls-17"><path class="cls-14" d="M505.55,234.57A176.36,176.36,0,0,0,488.21,227a2.1,2.1,0,0,1-1.14-.89,26.87,26.87,0,0,1-1.16-3.3c-.22-.71-.41-1.38-1.19-1.72a1,1,0,0,1-.4-.77c0-2.58-.55-5.3,1.36-7.55a1.23,1.23,0,0,0,.12-.26c1-2.26,1.22-4.85,2.66-6.95a.3.3,0,0,0,.05-.19c.18-1.6.35-3.2.48-4.81a.75.75,0,0,0-.33-.62c-.8-.28-.75-.92-.75-1.56,0-3.14,0-6.28,0-9.42A6,6,0,0,0,486,184.3c-1.57-1.41-3.18-2.77-4.79-4.14-.78-.66-.85-1.17-.12-1.89a8.38,8.38,0,0,1,1.11-.82l-.24-.37a10.14,10.14,0,0,0-1.46,0c-1.79.29-3.57.54-5.33.95-3.35.79-6.6,1.84-9.31,4.08-1.87,1.53-3.35,3.32-3.53,5.84-.1,1.32-.08,2.65-.1,4,0,2.15,0,4.31,0,6.47,0,.35-.21.92-.45,1-.87.29-.9.84-.78,1.57.08.5,0,1,.13,1.51.3,1.35.62,2.7,1,4a24.62,24.62,0,0,1,1,2.92,9.9,9.9,0,0,0,2.4,5.27,1.46,1.46,0,0,1,.37,1c-.1,1.55-.26,3.1-.47,4.63a1.09,1.09,0,0,1-.61.8c-1,.21-1.19,1-1.43,1.8-.32,1.06-.67,2.11-1.08,3.14a1.62,1.62,0,0,1-.76.79c-1.82.8-3.68,1.53-5.52,2.3s-3.93,1.6-5.84,2.52-3.88,2-5.81,3a14.2,14.2,0,0,0-3.09,2.12v12.71h67.18V236.69A11.41,11.41,0,0,0,505.55,234.57Z"/></g><path class="cls-12" d="M361.72,740.56A86,86,0,0,1,468.48,607.14l3-.81,33.43-9-9,33.44-.8,3A86,86,0,0,1,361.72,740.56Z"/><circle cx="422.5" cy="679.78" r="73.28"/><g class="cls-18"><path class="cls-14" d="M482.14,726.61A342.18,342.18,0,0,0,448.43,712a4.17,4.17,0,0,1-2.22-1.74A53.55,53.55,0,0,1,444,703.8c-.42-1.38-.8-2.68-2.31-3.34a1.87,1.87,0,0,1-.77-1.49c.08-5-1.08-10.31,2.63-14.69a2.26,2.26,0,0,0,.25-.49c2-4.41,2.37-9.43,5.17-13.53a.68.68,0,0,0,.1-.35c.33-3.12.66-6.24.93-9.37a1.48,1.48,0,0,0-.64-1.19c-1.56-.56-1.47-1.79-1.46-3q0-9.15,0-18.31a11.68,11.68,0,0,0-3.72-9.11c-3.05-2.75-6.19-5.4-9.33-8.06-1.51-1.28-1.65-2.26-.23-3.68a17.44,17.44,0,0,1,2.16-1.59c-.15-.24-.31-.48-.47-.71a19.23,19.23,0,0,0-2.84,0c-3.46.57-6.94,1-10.36,1.86-6.5,1.53-12.82,3.57-18.1,7.92-3.63,3-6.51,6.45-6.86,11.36-.18,2.56-.16,5.15-.18,7.73,0,4.19,0,8.39-.05,12.57,0,.69-.41,1.81-.87,2-1.7.55-1.75,1.64-1.52,3,.16,1,0,2,.25,2.93.59,2.63,1.21,5.25,2,7.83.56,1.92,1.65,3.74,2,5.69A19.29,19.29,0,0,0,404.33,688a2.9,2.9,0,0,1,.72,1.94c-.19,3-.51,6-.91,9a2.14,2.14,0,0,1-1.2,1.55c-2,.42-2.31,2-2.78,3.51-.62,2-1.3,4.1-2.09,6.09a3.14,3.14,0,0,1-1.47,1.54c-3.56,1.55-7.17,3-10.75,4.46-3.8,1.6-7.64,3.13-11.35,4.9s-7.54,3.9-11.3,5.9a28.08,28.08,0,0,0-6,4.12v24.71H487.81v-25A21.83,21.83,0,0,0,482.14,726.61Z"/></g><path class="cls-12" d="M678.26,611.45A62.82,62.82,0,0,1,581.11,533l-.58-2.19-6.44-24.47L598.5,513l2.19.6a62.83,62.83,0,0,1,77.57,97.87Z"/><circle cx="634.04" cy="566.82" r="53.86"/><g class="cls-19"><path class="cls-14" d="M680.36,624.48H587.73c1.17-7.68,0-22.22,12.89-30.75,3.6-2.38,8-3.19,12-5a9,9,0,0,0,1.57-.73c1.54-.92,1.87-1.6,3.37-2.73a3.94,3.94,0,0,1,1.73-.84c2.07-.33,3-1.07,3.48-3.11a18.88,18.88,0,0,0,.54-8.16,2.86,2.86,0,0,0-1.87-2.45c-2.46-1-4.89-2-7.31-3.06-1.81-.76-1.93-1.4-1.27-3.28A72.52,72.52,0,0,0,617,546.13c.39-4.74.06-9.63,1.79-14.21,1.22-3.22,3.21-6.21,6.47-7.17,2.5-.73,4.65-2.39,7.28-2.76a12.87,12.87,0,0,1,1.4-.07l.15,0c6.24.39,13.68,4.16,15.44,11.09.1.35.13.72.22,1.09h.15c1,3.93.87,8,1.18,12a71.8,71.8,0,0,0,4.16,18.27c.66,1.88.54,2.52-1.27,3.29-2.43,1-4.86,2.09-7.31,3a2.86,2.86,0,0,0-1.87,2.46,18.38,18.38,0,0,0,.54,8.15c.48,2,1.4,2.78,3.47,3.11a4.08,4.08,0,0,1,1.74.84c1.16.88,2.09,2.16,3.36,2.73,4.47,2,9.32,3.27,13.57,5.69C680.36,601.06,679.19,616.8,680.36,624.48Z"/></g></svg>