<svg width="500" height="500" viewBox="0 0 500 500" fill="none" xmlns="http://www.w3.org/2000/svg">
<path d="M250 45.0625C316.75 45.0625 324.667 45.3125 351.042 46.5208C418.792 49.6042 450.437 81.75 453.521 149C454.729 175.354 454.958 183.271 454.958 250.021C454.958 316.792 454.708 324.688 453.521 351.042C450.417 418.229 418.854 450.437 351.042 453.521C324.667 454.729 316.792 454.979 250 454.979C183.25 454.979 175.333 454.729 148.979 453.521C81.0625 450.417 49.5833 418.125 46.5 351.021C45.2917 324.667 45.0417 316.771 45.0417 250C45.0417 183.25 45.3125 175.354 46.5 148.979C49.6042 81.75 81.1667 49.5833 148.979 46.5C175.354 45.3125 183.25 45.0625 250 45.0625ZM250 0C182.104 0 173.604 0.291667 146.938 1.5C56.1458 5.66667 5.6875 56.0417 1.52083 146.917C0.291667 173.604 0 182.104 0 250C0 317.896 0.291667 326.417 1.5 353.083C5.66667 443.875 56.0417 494.333 146.917 498.5C173.604 499.708 182.104 500 250 500C317.896 500 326.417 499.708 353.083 498.5C443.792 494.333 494.375 443.958 498.479 353.083C499.708 326.417 500 317.896 500 250C500 182.104 499.708 173.604 498.5 146.938C494.417 56.2292 443.979 5.6875 353.104 1.52083C326.417 0.291667 317.896 0 250 0ZM250 121.625C179.104 121.625 121.625 179.104 121.625 250C121.625 320.896 179.104 378.396 250 378.396C320.896 378.396 378.375 320.917 378.375 250C378.375 179.104 320.896 121.625 250 121.625ZM250 333.333C203.979 333.333 166.667 296.042 166.667 250C166.667 203.979 203.979 166.667 250 166.667C296.021 166.667 333.333 203.979 333.333 250C333.333 296.042 296.021 333.333 250 333.333ZM383.458 86.5625C366.875 86.5625 353.438 100 353.438 116.562C353.438 133.125 366.875 146.563 383.458 146.563C400.021 146.563 413.437 133.125 413.437 116.562C413.437 100 400.021 86.5625 383.458 86.5625Z" fill="#696F8C"/>
</svg>
