<svg id="Layer_1" data-name="Layer 1" xmlns="http://www.w3.org/2000/svg" viewBox="0 0 861.66 891.11"><defs><style>.cls-1{fill:#00b7ff;}.cls-2{fill:#2e8dff;}.cls-3{fill:#1769bc;}.cls-4{fill:#fff;}.cls-5{fill:#f7931a;}.cls-6{fill:#0098d4;}.cls-7{fill:#7ddaff;}</style></defs><rect class="cls-1" x="234.43" y="778.9" width="147.52" height="112.2" rx="9.98"/><rect class="cls-2" x="234.43" y="849.25" width="147.52" height="41.85" rx="4.35"/><circle class="cls-3" cx="308.19" cy="813.57" r="25.43"/><path class="cls-4" d="M299.5,822.21V804.92a2.86,2.86,0,0,1,4.15-2.56L320.94,811a2.87,2.87,0,0,1,0,5.13l-17.29,8.64A2.86,2.86,0,0,1,299.5,822.21Z"/><path class="cls-1" d="M267.54,866.66H249.19a2.61,2.61,0,0,1-2.6-2.61h0a2.6,2.6,0,0,1,2.6-2.6h18.35a2.59,2.59,0,0,1,2.6,2.6h0A2.6,2.6,0,0,1,267.54,866.66Z"/><path class="cls-1" d="M267.54,875H249.19a2.61,2.61,0,0,1-2.6-2.61h0a2.61,2.61,0,0,1,2.6-2.6h18.35a2.6,2.6,0,0,1,2.6,2.6h0A2.6,2.6,0,0,1,267.54,875Z"/><path class="cls-5" d="M312.53,722.34h-8.67V698.46h8.67Zm1.93-45.9-8.08-3.17a36.62,36.62,0,0,1,17.93-19.48l3.84,7.78A27.89,27.89,0,0,0,314.46,676.44Z"/><path class="cls-5" d="M328.26,741.72a20.36,20.36,0,1,1-16.63-23.5A20.36,20.36,0,0,1,328.26,741.72Z"/><path class="cls-5" d="M202.75,385.45h-26v-8.68h26Zm-52,0H130.18a37,37,0,0,1-6.17-.52l1.45-8.55a28.28,28.28,0,0,0,4.72.39h20.54ZM99.87,369.38a36.46,36.46,0,0,1-6.3-20.55v-6.78h8.67v6.78a27.83,27.83,0,0,0,4.81,15.68ZM102.24,316H93.57V290h8.67Zm0-52H93.57V238h8.67Zm0-52H93.57V186h8.67Z"/><path class="cls-5" d="M118,175.62a20.36,20.36,0,1,1-16.63-23.5A20.36,20.36,0,0,1,118,175.62Z"/><path class="cls-1" d="M87.83,116.26l-6.16-3.78a26.52,26.52,0,0,0,1.18-6.37l7.1-1.32A6.8,6.8,0,0,0,94.82,97l-1.64-8.22a6.43,6.43,0,0,0-3.41-4.32,6.69,6.69,0,0,0-3.83-.71.87.87,0,0,1-.55.16l-3.3.71-3.55.66c-1.24-1.81-2.49-3.63-3.78-5.18l4-6.11a6,6,0,0,0,.89-1.94A6.66,6.66,0,0,0,77,65.22L69.65,60.7a5.12,5.12,0,0,0-3.21-1.12,6.16,6.16,0,0,0-3.65,1.17,2.61,2.61,0,0,0-1.25,1.08c-.3.21-.35.46-.65.67L58.65,66l-1.8,2.57a24.88,24.88,0,0,0-6.11-1.14l-1.58-7.14a6.58,6.58,0,0,0-5.91-5,1.25,1.25,0,0,1-.81.11c-.51-.09-.56.16-.82.11l-8.26,1.9a6.3,6.3,0,0,0-5.08,7.49l1.63,6.89a3.77,3.77,0,0,1-1.21.83,48,48,0,0,0-4,3l-6.1-4a6.42,6.42,0,0,0-7.47.46A11.67,11.67,0,0,0,9.8,73.59L5.33,80.67a6,6,0,0,0,1.8,8.77l6.1,4a24.94,24.94,0,0,0-1.13,6.12l-.81.11L5,101.16A6.5,6.5,0,0,0,.13,108.7l1.64,8.22a6.56,6.56,0,0,0,4.39,4.76l1,.19a7,7,0,0,0,2.34.17l6.89-1.62a4.36,4.36,0,0,1,.78,1.46,45.11,45.11,0,0,0,3,3.72l-4,6.11a6.4,6.4,0,0,0,2.06,8.82l7,4.73a7.35,7.35,0,0,0,3.27.87,6.75,6.75,0,0,0,5.55-2.93l3.77-6.15a27.54,27.54,0,0,0,6.33,1.43l.32,1.11,1.3,5.78a5.42,5.42,0,0,0,2.7,3.93,5.49,5.49,0,0,0,4.84.9l5.48-1.1,2.73-.54A6.28,6.28,0,0,0,66.37,141l-1.32-7.09a25.22,25.22,0,0,0,5.18-3.79l4,2.84,2.15,1.19a6.8,6.8,0,0,0,7.72-.41l1-1.39,4.77-7.28A6.41,6.41,0,0,0,87.83,116.26ZM53,129.05c-.25,0-.3.21-.55.16a31.89,31.89,0,0,1-11-.19,27.46,27.46,0,0,1-20.17-20.61,17.61,17.61,0,0,1-.38-2.18,27,27,0,0,1,21-29.58,33.84,33.84,0,0,1,8.74-.23,24.73,24.73,0,0,1,10.17,3.47A25.28,25.28,0,0,1,70.21,89a25.1,25.1,0,0,1,3.47,8.28A26.68,26.68,0,0,1,53,129.05Z"/><path class="cls-3" d="M73.68,97.29A25.1,25.1,0,0,0,70.21,89a25.28,25.28,0,0,0-9.38-9.12,24.73,24.73,0,0,0-10.17-3.47,33.84,33.84,0,0,0-8.74.23,27,27,0,0,0-21,29.58,17.61,17.61,0,0,0,.38,2.18A27.46,27.46,0,0,0,41.44,129a31.89,31.89,0,0,0,11,.19c.25,0,.3-.2.55-.16A26.68,26.68,0,0,0,73.68,97.29ZM52.23,119.15c-.55.16-.81.12-1.11.32a16.29,16.29,0,0,1-9.83-1,17.7,17.7,0,0,1-9.27-8.3,14.17,14.17,0,0,1-1.16-3.65,17,17,0,0,1,13-20.26,22,22,0,0,1,7.11,0,14.21,14.21,0,0,1,5.37,2.31,14.73,14.73,0,0,1,4.74,4.31,16.37,16.37,0,0,1,3,6.61A16.91,16.91,0,0,1,52.23,119.15Z"/><path class="cls-1" d="M140.14,50.8,135.63,48a20,20,0,0,0,.87-4.67l5.2-1a5,5,0,0,0,3.57-5.71l-1.2-6a4.7,4.7,0,0,0-2.51-3.17,4.86,4.86,0,0,0-2.8-.52.69.69,0,0,1-.41.12l-2.41.51-2.6.49c-.92-1.33-1.83-2.66-2.78-3.8l3-4.48a4.33,4.33,0,0,0,.65-1.42,4.88,4.88,0,0,0-2-5l-5.38-3.32a3.77,3.77,0,0,0-2.36-.82,4.48,4.48,0,0,0-2.66.86,1.92,1.92,0,0,0-.93.79c-.22.16-.25.34-.47.49L118.76,14l-1.32,1.88a18.45,18.45,0,0,0-4.48-.83l-1.15-5.24a4.85,4.85,0,0,0-4.34-3.7,1,1,0,0,1-.6.08c-.37-.07-.4.12-.59.09l-6,1.39a4.62,4.62,0,0,0-3.73,5.49l1.19,5.05a2.87,2.87,0,0,1-.88.61A34.66,34.66,0,0,0,93.89,21L89.42,18a4.68,4.68,0,0,0-5.47.34,7.68,7.68,0,0,0-1,1.16l-3.28,5.19A4.4,4.4,0,0,0,81,31.15l4.47,3a18.54,18.54,0,0,0-.83,4.48l-.59.09-4.64,1.07a4.76,4.76,0,0,0-3.54,5.53l1.2,6a4.83,4.83,0,0,0,3.22,3.5l.75.14a5.43,5.43,0,0,0,1.71.12l5-1.19a3.45,3.45,0,0,1,.58,1.07,29.93,29.93,0,0,0,2.2,2.73l-3,4.48a4.69,4.69,0,0,0,1.51,6.46l5.15,3.46a5.25,5.25,0,0,0,2.39.64,4.94,4.94,0,0,0,4.07-2.14L103.51,66a20.29,20.29,0,0,0,4.63,1l.24.81,1,4.24a4.63,4.63,0,0,0,5.53,3.53l4-.8,2-.4A4.59,4.59,0,0,0,124.41,69l-1-5.21A18.35,18.35,0,0,0,127.24,61l2.9,2.08,1.58.87a5,5,0,0,0,5.66-.3l.77-1,3.5-5.34A4.69,4.69,0,0,0,140.14,50.8Zm-25.5,9.38c-.19,0-.22.15-.41.12a23.25,23.25,0,0,1-8.08-.15,20.1,20.1,0,0,1-14.78-15.1,14.22,14.22,0,0,1-.29-1.6A19.79,19.79,0,0,1,106.5,21.77a24.61,24.61,0,0,1,6.4-.16,18,18,0,0,1,7.45,2.54,18.42,18.42,0,0,1,6.88,6.68,18.37,18.37,0,0,1,2.54,6.07A19.56,19.56,0,0,1,114.64,60.18Z"/><path class="cls-3" d="M129.77,36.9a18.37,18.37,0,0,0-2.54-6.07,18.42,18.42,0,0,0-6.88-6.68,18,18,0,0,0-7.45-2.54,24.61,24.61,0,0,0-6.4.16A19.79,19.79,0,0,0,91.08,43.45a14.22,14.22,0,0,0,.29,1.6,20.1,20.1,0,0,0,14.78,15.1,23.25,23.25,0,0,0,8.08.15c.19,0,.22-.16.41-.12A19.56,19.56,0,0,0,129.77,36.9Zm-15.72,16c-.4.12-.59.09-.81.24a11.91,11.91,0,0,1-7.2-.76,12.9,12.9,0,0,1-6.8-6.09,10.18,10.18,0,0,1-.85-2.67,12.51,12.51,0,0,1,9.51-14.85,16.32,16.32,0,0,1,5.22,0,10.43,10.43,0,0,1,3.93,1.7,11.07,11.07,0,0,1,3.48,3.15,12.37,12.37,0,0,1-6.48,19.28Z"/><path class="cls-1" d="M152.66,125.54l-3.36-2.06A14.74,14.74,0,0,0,150,120l3.87-.72a3.71,3.71,0,0,0,2.66-4.25l-.9-4.48a3.5,3.5,0,0,0-1.86-2.35,3.6,3.6,0,0,0-2.09-.39.51.51,0,0,1-.3.09l-1.8.38-1.93.36c-.68-1-1.36-2-2.07-2.82l2.2-3.33a3.38,3.38,0,0,0,.49-1.06,3.62,3.62,0,0,0-1.47-3.72l-4-2.47a2.78,2.78,0,0,0-1.75-.61,3.34,3.34,0,0,0-2,.64,1.45,1.45,0,0,0-.69.59c-.16.11-.19.25-.35.36l-1.22,1.93-1,1.4a14,14,0,0,0-3.33-.62L131.58,95a3.62,3.62,0,0,0-3.23-2.76.67.67,0,0,1-.44.07c-.28-.06-.31.08-.44.06l-4.51,1a3.45,3.45,0,0,0-2.77,4.09l.89,3.75a2.18,2.18,0,0,1-.66.46,25.73,25.73,0,0,0-2.17,1.61l-3.33-2.2a3.51,3.51,0,0,0-4.07.25,6.38,6.38,0,0,0-.74.87l-2.44,3.86a3.27,3.27,0,0,0,1,4.78l3.33,2.2a13.13,13.13,0,0,0-.62,3.34l-.45.06-3.45.79a3.55,3.55,0,0,0-2.63,4.12l.9,4.47a3.54,3.54,0,0,0,2.39,2.6l.55.11a4.21,4.21,0,0,0,1.28.09l3.76-.88a2.44,2.44,0,0,1,.42.79,25.63,25.63,0,0,0,1.64,2l-2.2,3.33a3.5,3.5,0,0,0,1.12,4.81l3.84,2.58a3.94,3.94,0,0,0,1.78.47,3.67,3.67,0,0,0,3-1.59l2.06-3.36a14.72,14.72,0,0,0,3.44.78l.18.61.71,3.15a2.94,2.94,0,0,0,1.47,2.14,3,3,0,0,0,2.64.49l3-.59,1.49-.3A3.43,3.43,0,0,0,141,139l-.72-3.88a13.45,13.45,0,0,0,2.82-2.06l2.16,1.55,1.17.65a3.72,3.72,0,0,0,4.21-.23l.58-.75,2.6-4A3.48,3.48,0,0,0,152.66,125.54Zm-19,7c-.14,0-.17.12-.31.09a17.52,17.52,0,0,1-6-.11,15,15,0,0,1-11-11.24,8.81,8.81,0,0,1-.21-1.18,14.72,14.72,0,0,1,11.47-16.13,18.17,18.17,0,0,1,4.76-.13,13.58,13.58,0,0,1,5.55,1.89,13.77,13.77,0,0,1,5.11,5,13.57,13.57,0,0,1,1.9,4.51A14.55,14.55,0,0,1,133.69,132.51Z"/><path class="cls-3" d="M145,115.19a13.57,13.57,0,0,0-1.9-4.51,13.77,13.77,0,0,0-5.11-5,13.58,13.58,0,0,0-5.55-1.89,18.17,18.17,0,0,0-4.76.13,14.72,14.72,0,0,0-11.47,16.13,8.81,8.81,0,0,0,.21,1.18,15,15,0,0,0,11,11.24,17.52,17.52,0,0,0,6,.11c.14,0,.17-.11.31-.09A14.55,14.55,0,0,0,145,115.19Zm-11.7,11.92a2.37,2.37,0,0,0-.61.18,8.89,8.89,0,0,1-5.35-.56,9.66,9.66,0,0,1-5.06-4.53,7.86,7.86,0,0,1-.64-2,9.31,9.31,0,0,1,7.08-11,12.31,12.31,0,0,1,3.88,0,7.79,7.79,0,0,1,2.93,1.26,8.11,8.11,0,0,1,2.59,2.35,9.1,9.1,0,0,1,1.63,3.61A9.22,9.22,0,0,1,133.25,127.11Z"/><path class="cls-5" d="M800.47,386.89v6.77H791.8v-6.77A27.75,27.75,0,0,0,787,371.21l7.18-4.87A36.4,36.4,0,0,1,800.47,386.89Zm0,73.15v26H791.8V460Zm0-48.81v26H791.8v-26Zm0,100.84v26H791.8v-26Zm0,52v26H791.8v-26ZM770,350.79l-1.46,8.55a28.18,28.18,0,0,0-4.72-.4H743.32v-8.67h20.54A37.08,37.08,0,0,1,770,350.79Z"/><path class="cls-5" d="M799.57,585.62a20.36,20.36,0,1,1-23.5,16.64A20.37,20.37,0,0,1,799.57,585.62Z"/><path class="cls-3" d="M856.81,648.38a9.13,9.13,0,0,0-4.44-1.13H736.85a9.27,9.27,0,0,0-9.28,9.28v71.39a9.29,9.29,0,0,0,9.28,9.29H821l8.49,8.5,10.24,10.23V737.21h12.65a9.29,9.29,0,0,0,9.29-9.29V656.53A9.25,9.25,0,0,0,856.81,648.38Zm-65.91,31a9.23,9.23,0,0,1,8.11,4.82h0a9.24,9.24,0,1,1-12.52,12.54h0a9.25,9.25,0,0,1,4.41-17.37Zm-27.81,0a9.23,9.23,0,0,1,8.12,4.82h0a9.24,9.24,0,1,1-12.53,12.54h0a9.25,9.25,0,0,1,4.41-17.37Zm59.33,22.2a11.65,11.65,0,1,1,3.35-18.91,8.63,8.63,0,0,1,1.05,1.53,9.25,9.25,0,0,1-4.4,17.38Z"/><path class="cls-1" d="M856.81,648.38a9.27,9.27,0,0,0-8.15-4.85H733.14a9.29,9.29,0,0,0-9.29,9.29v71.39a9.28,9.28,0,0,0,9.29,9.29h84.13l12.21,12.21,6.53,6.51V733.5h12.65a9.28,9.28,0,0,0,9.28-9.29V652.82A9.13,9.13,0,0,0,856.81,648.38Zm-98.13,48.39a9.25,9.25,0,1,1,12.53-12.55h0a9.24,9.24,0,0,1-12.53,12.54Zm27.81,0A9.24,9.24,0,1,1,799,684.22h0a9.24,9.24,0,0,1-12.52,12.54Zm23-8.13a9.24,9.24,0,0,1,16.31-5.95,8.63,8.63,0,0,1,1.05,1.53,9.23,9.23,0,0,1-1.05,10.38,9.24,9.24,0,0,1-11.48,2.17A9.29,9.29,0,0,1,809.46,688.64Z"/><path class="cls-3" d="M772.33,688.64a9.23,9.23,0,0,1-13.64,8.13h0a9,9,0,0,1-1.12-.73,9.24,9.24,0,1,1,12.94-12.92,9,9,0,0,1,.71,1.1h0A9.22,9.22,0,0,1,772.33,688.64Z"/><path class="cls-3" d="M826.11,683.11a9.24,9.24,0,0,0-12.92,12.95,9.24,9.24,0,1,1,12.58-13.37Z"/><path class="cls-4" d="M828,688.64a9.25,9.25,0,0,1-13.66,8.13,9.82,9.82,0,0,1-1.1-.71,9.16,9.16,0,0,1-1.87-5.57,9.23,9.23,0,0,1,14.79-7.38,9.1,9.1,0,0,1,.71,1.11A9.27,9.27,0,0,1,828,688.64Z"/><path class="cls-3" d="M798.3,683.11A9.24,9.24,0,0,0,785.37,696a9.24,9.24,0,1,1,12.93-12.93Z"/><path class="cls-4" d="M800.14,688.64a9.23,9.23,0,0,1-13.64,8.13h0a9,9,0,0,1-1.12-.73,9.15,9.15,0,0,1-1.85-5.55,9.23,9.23,0,0,1,14.78-7.38,8.69,8.69,0,0,1,.71,1.11h0A9.23,9.23,0,0,1,800.14,688.64Z"/><path class="cls-4" d="M772.33,688.64a9.23,9.23,0,0,1-13.64,8.13h0a9,9,0,0,1-1.12-.73A9.24,9.24,0,0,1,765,681.25a9.1,9.1,0,0,1,5.55,1.87,9,9,0,0,1,.71,1.1h0A9.22,9.22,0,0,1,772.33,688.64Z"/><path class="cls-4" d="M828,688.64a9.25,9.25,0,0,1-13.66,8.13,9.82,9.82,0,0,1-1.1-.71,9.16,9.16,0,0,1-1.87-5.57,9.23,9.23,0,0,1,14.79-7.38,9.1,9.1,0,0,1,.71,1.11A9.27,9.27,0,0,1,828,688.64Z"/><path class="cls-4" d="M800.14,688.64a9.23,9.23,0,0,1-13.64,8.13h0a9,9,0,0,1-1.12-.73,9.15,9.15,0,0,1-1.85-5.55,9.23,9.23,0,0,1,14.78-7.38,8.69,8.69,0,0,1,.71,1.11h0A9.23,9.23,0,0,1,800.14,688.64Z"/><polygon class="cls-1" points="359.68 524.72 303.38 571.54 234.28 544.8 291.58 497.83 359.68 524.72"/><polygon class="cls-6" points="359.93 524.82 371.14 594.86 314.64 641.85 303.38 571.54 359.68 524.72 359.93 524.82"/><polygon class="cls-1" points="303.38 571.54 314.64 641.85 245.5 615.1 234.25 544.83 234.28 544.8 303.38 571.54"/><path class="cls-4" d="M234.3,544.94c22.95,8,46.8,17.06,69.47,25.81l-1,.16c13.56-11.28,28.7-23.64,42.55-34.72,4.79-3.78,9.55-7.6,14.38-11.33-4.55,4.07-9.18,8-13.76,12.08-13.46,11.6-28.3,24.22-41.9,35.51l-.45.37-.55-.21c-22.64-8.79-46.35-18.18-68.74-27.67Z"/><polygon class="cls-4" points="304.39 571.52 314.62 641.7 302.42 571.84 304.39 571.52 304.39 571.52"/><polygon class="cls-7" points="290.51 401.24 234.22 448.06 165.12 421.32 222.42 374.35 290.51 401.24"/><polygon class="cls-6" points="290.76 401.34 301.98 471.38 245.48 518.37 234.22 448.06 290.51 401.24 290.76 401.34"/><polygon class="cls-1" points="234.22 448.06 245.48 518.37 176.34 491.62 165.09 421.35 165.12 421.32 234.22 448.06"/><path class="cls-4" d="M165.14,421.46c23,8.05,46.79,17.06,69.46,25.81l-1,.16c13.56-11.28,28.7-23.64,42.55-34.72,4.8-3.78,9.55-7.6,14.39-11.33-4.55,4.07-9.18,8.05-13.76,12.08-13.47,11.6-28.31,24.22-41.9,35.51l-.45.37-.55-.21c-22.65-8.79-46.35-18.18-68.74-27.67Z"/><polygon class="cls-4" points="235.23 448.04 245.46 518.22 233.25 448.36 235.23 448.04 235.23 448.04"/><polygon class="cls-1" points="511.68 393.74 455.38 440.56 386.28 413.82 443.58 366.86 511.68 393.74"/><polygon class="cls-6" points="511.93 393.85 523.14 463.89 466.64 510.87 455.38 440.56 511.68 393.74 511.93 393.85"/><polygon class="cls-1" points="455.38 440.56 466.64 510.87 397.5 484.13 386.25 413.85 386.28 413.82 455.38 440.56"/><path class="cls-4" d="M385.37,408.13c22.95,8.06,46.79,17.07,69.46,25.81l-1,.16c13.56-11.27,28.7-23.63,42.55-34.72,4.8-3.77,9.55-7.6,14.39-11.33-4.55,4.08-9.18,8.05-13.77,12.08-13.46,11.61-28.3,24.22-41.89,35.51l-.45.38-.55-.22c-22.65-8.79-46.35-18.18-68.74-27.67Z"/><polygon class="cls-4" points="455.46 434.71 465.68 504.9 453.48 435.03 455.46 434.71 455.46 434.71"/><polygon class="cls-1" points="602.91 427.94 546.62 474.76 477.52 448.02 534.81 401.05 602.91 427.94"/><polygon class="cls-6" points="603.16 428.04 614.38 498.09 557.88 545.07 546.62 474.76 602.91 427.94 603.16 428.04"/><polygon class="cls-1" points="546.62 474.76 557.88 545.07 488.74 518.32 477.48 448.05 477.52 448.02 546.62 474.76"/><path class="cls-4" d="M477.54,448.18c22.95,8.06,46.79,17.07,69.46,25.81l-1,.17c13.57-11.28,28.71-23.64,42.55-34.73,4.8-3.77,9.55-7.6,14.39-11.33-4.55,4.08-9.18,8.06-13.76,12.08-13.47,11.61-28.31,24.23-41.9,35.51l-.45.38-.55-.21c-22.64-8.79-46.35-18.19-68.74-27.68Z"/><polygon class="cls-4" points="547.63 474.77 557.86 544.95 545.66 475.08 547.63 474.77 547.63 474.77"/><polygon class="cls-1" points="433.62 455.05 377.33 501.87 308.23 475.13 365.52 428.16 433.62 455.05"/><polygon class="cls-6" points="433.87 455.15 445.09 525.2 388.59 572.18 377.33 501.87 433.62 455.05 433.87 455.15"/><polygon class="cls-1" points="377.33 501.87 388.59 572.18 319.45 545.43 308.19 475.16 308.23 475.13 377.33 501.87"/><path class="cls-4" d="M308.25,475.27c22.95,8.06,46.79,17.07,69.46,25.81l-1,.16c13.56-11.27,28.7-23.63,42.55-34.72,4.8-3.77,9.55-7.6,14.39-11.33-4.55,4.08-9.18,8.05-13.77,12.08-13.46,11.61-28.3,24.22-41.89,35.51l-.45.38-.55-.22c-22.65-8.79-46.35-18.18-68.74-27.67Z"/><polygon class="cls-4" points="378.34 501.85 388.56 572.04 376.36 502.17 378.34 501.85 378.34 501.85"/><polygon class="cls-1" points="694.54 464.6 638.25 511.42 569.15 484.68 626.44 437.72 694.54 464.6"/><polygon class="cls-6" points="694.79 464.71 706.01 534.75 649.51 581.73 638.25 511.42 694.54 464.6 694.79 464.71"/><polygon class="cls-1" points="638.25 511.42 649.51 581.73 580.37 554.99 569.11 484.71 569.15 484.68 638.25 511.42"/><path class="cls-4" d="M569.17,484.82c23,8.06,46.79,17.07,69.46,25.81l-1,.17c13.56-11.28,28.7-23.64,42.55-34.73,4.8-3.77,9.55-7.6,14.39-11.33-4.55,4.08-9.18,8.06-13.77,12.08-13.46,11.61-28.3,24.23-41.89,35.51l-.45.38-.55-.21c-22.65-8.79-46.35-18.19-68.74-27.68Z"/><polygon class="cls-4" points="639.26 511.41 649.48 581.59 637.28 511.72 639.26 511.41 639.26 511.41"/><polygon class="cls-1" points="527.24 496.02 470.95 542.84 401.85 516.1 459.14 469.13 527.24 496.02"/><polygon class="cls-6" points="527.49 496.12 538.71 566.16 482.21 613.15 470.95 542.84 527.24 496.02 527.49 496.12"/><polygon class="cls-1" points="470.95 542.84 482.21 613.15 413.07 586.4 401.81 516.13 401.85 516.1 470.95 542.84"/><path class="cls-4" d="M402.64,516c22.95,8,46.79,17.07,69.46,25.81l-1,.16c13.56-11.27,28.7-23.64,42.55-34.72,4.8-3.77,9.55-7.6,14.39-11.33-4.55,4.08-9.18,8.05-13.77,12.08-13.46,11.61-28.3,24.22-41.89,35.51l-.45.38-.55-.22C448.73,534.85,425,525.46,402.64,516Z"/><polygon class="cls-4" points="472.73 542.55 482.95 612.74 470.75 542.87 472.73 542.55 472.73 542.55"/><polygon class="cls-1" points="626.53 568.53 570.23 615.35 501.13 588.61 558.43 541.64 626.53 568.53"/><polygon class="cls-6" points="626.78 568.63 638 638.67 581.49 685.66 570.23 615.35 626.53 568.53 626.78 568.63"/><polygon class="cls-1" points="570.23 615.35 581.49 685.66 512.35 658.91 501.1 588.64 501.13 588.61 570.23 615.35"/><path class="cls-4" d="M501.16,588.75c22.95,8,46.79,17.06,69.46,25.81l-1,.16c13.56-11.27,28.7-23.64,42.55-34.72,4.79-3.77,9.55-7.6,14.38-11.33-4.55,4.07-9.17,8.05-13.76,12.08-13.46,11.61-28.3,24.22-41.9,35.51l-.45.38-.55-.22c-22.64-8.79-46.35-18.18-68.73-27.67Z"/><polygon class="cls-4" points="571.24 615.33 581.47 685.51 569.27 615.65 571.24 615.33 571.24 615.33"/><polygon class="cls-7" points="456.87 603.03 400.58 649.85 331.48 623.11 388.77 576.14 456.87 603.03"/><polygon class="cls-6" points="457.12 603.13 468.34 673.17 411.84 720.16 400.58 649.85 456.87 603.03 457.12 603.13"/><polygon class="cls-1" points="400.58 649.85 411.84 720.16 342.7 693.41 331.44 623.14 331.48 623.11 400.58 649.85"/><path class="cls-4" d="M331.5,623.25c22.95,8,46.79,17.06,69.46,25.81l-1,.16c13.56-11.28,28.7-23.64,42.55-34.72,4.8-3.78,9.55-7.6,14.39-11.33-4.55,4.07-9.18,8.05-13.77,12.08-13.46,11.61-28.3,24.22-41.89,35.51l-.45.37-.55-.21c-22.65-8.79-46.35-18.18-68.74-27.67Z"/><polygon class="cls-4" points="401.59 649.83 411.81 720.01 399.61 650.15 401.59 649.83 401.59 649.83"/><polygon class="cls-7" points="543.42 591.94 487.12 638.76 418.02 612.02 475.32 565.05 543.42 591.94"/><polygon class="cls-6" points="543.67 592.04 554.88 662.09 498.38 709.07 487.12 638.76 543.42 591.94 543.67 592.04"/><polygon class="cls-1" points="487.12 638.76 498.38 709.07 429.24 682.33 417.99 612.05 418.02 612.02 487.12 638.76"/><path class="cls-4" d="M418,612.16C441,620.22,464.83,629.23,487.5,638l-1,.17c13.57-11.28,28.71-23.64,42.55-34.73,4.8-3.77,9.55-7.6,14.39-11.33-4.55,4.08-9.18,8-13.76,12.08-13.47,11.61-28.31,24.23-41.9,35.51l-.45.38-.55-.21c-22.64-8.79-46.35-18.19-68.74-27.68Z"/><polygon class="cls-4" points="488.13 638.75 498.36 708.93 486.16 639.06 488.13 638.75 488.13 638.75"/><polygon class="cls-1" points="496.08 296.34 439.78 343.16 370.69 316.42 427.98 269.45 496.08 296.34"/><polygon class="cls-6" points="496.33 296.44 507.55 366.49 451.04 413.47 439.78 343.16 496.08 296.34 496.33 296.44"/><polygon class="cls-1" points="439.78 343.16 451.04 413.47 381.9 386.73 370.65 316.45 370.69 316.42 439.78 343.16"/><path class="cls-4" d="M369.77,310.73c23,8.06,46.79,17.07,69.46,25.81l-1,.16c13.57-11.27,28.71-23.64,42.55-34.72,4.8-3.77,9.55-7.6,14.39-11.33-4.55,4.08-9.18,8.05-13.76,12.08-13.47,11.61-28.31,24.22-41.9,35.51l-.45.38-.55-.22c-22.64-8.79-46.35-18.18-68.74-27.67Z"/><polygon class="cls-4" points="439.86 337.31 450.09 407.5 437.89 337.63 439.86 337.31 439.86 337.31"/><polygon class="cls-1" points="587.32 330.54 531.02 377.36 461.92 350.62 519.22 303.65 587.32 330.54"/><polygon class="cls-6" points="587.57 330.64 598.78 400.69 542.28 447.67 531.02 377.36 587.32 330.54 587.57 330.64"/><polygon class="cls-1" points="531.02 377.36 542.28 447.67 473.14 420.92 461.89 350.65 461.92 350.62 531.02 377.36"/><path class="cls-4" d="M462,350.78c22.95,8.06,46.79,17.07,69.46,25.81l-1,.17C544,365.48,559.11,353.12,573,342c4.79-3.77,9.55-7.6,14.38-11.33-4.54,4.08-9.17,8.05-13.76,12.08-13.46,11.61-28.3,24.23-41.9,35.51l-.45.38-.54-.21C508,369.67,484.33,360.27,462,350.78Z"/><polygon class="cls-4" points="532.03 377.37 542.26 447.55 530.06 377.68 532.03 377.37 532.03 377.37"/><polygon class="cls-1" points="418.03 357.65 361.73 404.47 292.63 377.73 349.93 330.76 418.03 357.65"/><polygon class="cls-6" points="418.27 357.75 429.49 427.8 372.99 474.78 361.73 404.47 418.03 357.65 418.27 357.75"/><polygon class="cls-1" points="361.73 404.47 372.99 474.78 303.85 448.03 292.6 377.76 292.63 377.73 361.73 404.47"/><path class="cls-4" d="M292.65,377.87c23,8.06,46.79,17.07,69.46,25.81l-1,.16c13.56-11.27,28.71-23.63,42.55-34.72,4.8-3.77,9.55-7.6,14.39-11.33-4.55,4.08-9.18,8-13.76,12.08-13.47,11.61-28.31,24.22-41.9,35.51l-.45.38-.55-.22c-22.64-8.79-46.35-18.18-68.74-27.67Z"/><polygon class="cls-4" points="362.74 404.45 372.97 474.64 360.76 404.77 362.74 404.45 362.74 404.45"/><polygon class="cls-7" points="734.47 322.16 678.17 368.98 609.07 342.24 666.37 295.27 734.47 322.16"/><polygon class="cls-6" points="734.72 322.26 745.93 392.31 689.43 439.29 678.17 368.98 734.47 322.16 734.72 322.26"/><polygon class="cls-1" points="678.17 368.98 689.43 439.29 620.29 412.54 609.04 342.27 609.07 342.24 678.17 368.98"/><path class="cls-4" d="M609.09,342.38c22.95,8.06,46.8,17.07,69.46,25.81l-1,.16c13.57-11.27,28.71-23.64,42.55-34.72,4.8-3.77,9.56-7.6,14.39-11.33-4.55,4.08-9.18,8.05-13.76,12.08-13.47,11.61-28.3,24.22-41.9,35.51l-.45.38-.55-.22c-22.64-8.79-46.35-18.18-68.74-27.67Z"/><polygon class="cls-4" points="679.18 368.96 689.41 439.15 677.21 369.28 679.18 368.96 679.18 368.96"/><polygon class="cls-1" points="511.65 398.62 455.35 445.44 386.25 418.7 443.55 371.73 511.65 398.62"/><polygon class="cls-6" points="511.9 398.72 523.11 468.76 466.61 515.75 455.35 445.44 511.65 398.62 511.9 398.72"/><polygon class="cls-1" points="455.35 445.44 466.61 515.75 397.47 489 386.22 418.73 386.25 418.7 455.35 445.44"/><path class="cls-4" d="M387,418.57c22.95,8.05,46.79,17.06,69.46,25.81l-1,.16c13.56-11.27,28.71-23.64,42.55-34.72,4.8-3.78,9.55-7.6,14.39-11.33-4.55,4.07-9.18,8.05-13.76,12.08-13.47,11.61-28.31,24.22-41.9,35.51l-.45.38-.55-.22c-22.64-8.79-46.35-18.18-68.74-27.67Z"/><polygon class="cls-4" points="457.13 445.15 467.36 515.34 455.15 445.47 457.13 445.15 457.13 445.15"/><polygon class="cls-7" points="603.41 431.04 547.11 477.86 478.01 451.12 535.31 404.15 603.41 431.04"/><polygon class="cls-6" points="603.66 431.14 614.88 501.19 558.37 548.17 547.11 477.86 603.41 431.04 603.66 431.14"/><polygon class="cls-1" points="547.11 477.86 558.37 548.17 489.23 521.42 477.98 451.15 478.01 451.12 547.11 477.86"/><path class="cls-4" d="M478,451.26c22.95,8.06,46.79,17.07,69.46,25.81l-1,.16c13.56-11.27,28.7-23.63,42.55-34.72,4.79-3.77,9.55-7.6,14.38-11.33-4.54,4.08-9.17,8.05-13.76,12.08-13.46,11.61-28.3,24.22-41.89,35.51l-.46.38-.54-.21c-22.65-8.79-46.36-18.19-68.74-27.68Z"/><polygon class="cls-4" points="548.12 477.85 558.35 548.03 546.15 478.16 548.12 477.85 548.12 477.85"/><polygon class="cls-1" points="434.12 458.15 377.82 504.97 308.72 478.23 366.02 431.26 434.12 458.15"/><polygon class="cls-6" points="434.37 458.25 445.59 528.3 389.08 575.28 377.82 504.97 434.12 458.15 434.37 458.25"/><polygon class="cls-1" points="377.82 504.97 389.08 575.28 319.94 548.53 308.69 478.26 308.72 478.23 377.82 504.97"/><path class="cls-4" d="M308.75,478.37c22.95,8.06,46.79,17.07,69.46,25.81l-1,.16c13.56-11.27,28.7-23.63,42.55-34.72,4.79-3.77,9.55-7.6,14.38-11.33-4.54,4.08-9.17,8-13.76,12.08-13.46,11.61-28.3,24.22-41.9,35.51l-.45.38-.54-.22c-22.65-8.79-46.36-18.18-68.74-27.67Z"/><polygon class="cls-4" points="378.83 504.95 389.06 575.14 376.86 505.27 378.83 504.95 378.83 504.95"/><polygon class="cls-1" points="527.82 494.54 471.52 541.36 402.42 514.62 459.72 467.65 527.82 494.54"/><polygon class="cls-6" points="528.07 494.64 539.29 564.69 482.78 611.67 471.52 541.36 527.82 494.54 528.07 494.64"/><polygon class="cls-1" points="471.52 541.36 482.78 611.67 413.64 584.92 402.39 514.65 402.42 514.62 471.52 541.36"/><path class="cls-4" d="M402.45,514.76c22.95,8.06,46.79,17.07,69.46,25.81l-1,.16c13.56-11.27,28.7-23.63,42.55-34.72,4.79-3.77,9.55-7.6,14.38-11.33-4.54,4.08-9.17,8.05-13.76,12.08-13.46,11.61-28.3,24.23-41.89,35.51l-.46.38-.54-.21c-22.65-8.8-46.36-18.19-68.74-27.68Z"/><polygon class="cls-4" points="472.53 541.35 482.76 611.53 470.56 541.66 472.53 541.35 472.53 541.35"/><polygon class="cls-7" points="477.08 164.13 420.79 210.95 351.69 184.21 408.98 137.25 477.08 164.13"/><polygon class="cls-6" points="477.33 164.24 488.55 234.28 432.05 281.26 420.79 210.95 477.08 164.13 477.33 164.24"/><polygon class="cls-1" points="420.79 210.95 432.05 281.26 362.91 254.52 351.65 184.25 351.69 184.21 420.79 210.95"/><path class="cls-4" d="M351.23,183.22c22.95,8.06,46.8,17.07,69.47,25.81l-1,.17c13.56-11.28,28.7-23.64,42.55-34.73,4.79-3.77,9.55-7.6,14.38-11.33-4.55,4.08-9.18,8.05-13.76,12.08-13.46,11.61-28.3,24.23-41.9,35.51l-.45.38-.55-.21c-22.64-8.79-46.35-18.19-68.74-27.68Z"/><polygon class="cls-4" points="421.32 209.81 431.55 279.99 419.35 210.12 421.32 209.81 421.32 209.81"/><polygon class="cls-1" points="571.72 233.14 515.42 279.96 446.32 253.22 503.62 206.25 571.72 233.14"/><polygon class="cls-6" points="571.97 233.24 583.18 303.29 526.68 350.27 515.42 279.96 571.72 233.14 571.97 233.24"/><polygon class="cls-1" points="515.42 279.96 526.68 350.27 457.54 323.52 446.29 253.25 446.32 253.22 515.42 279.96"/><path class="cls-4" d="M446.35,253.38c22.95,8.06,46.79,17.07,69.46,25.81l-1,.16c13.56-11.27,28.7-23.63,42.55-34.72,4.8-3.77,9.55-7.6,14.38-11.33-4.54,4.08-9.17,8-13.76,12.08-13.46,11.61-28.3,24.23-41.89,35.51l-.45.38-.55-.21c-22.65-8.79-46.35-18.19-68.74-27.68Z"/><polygon class="cls-4" points="516.44 279.96 526.66 350.15 514.46 280.28 516.44 279.96 516.44 279.96"/><polygon class="cls-7" points="402.43 260.25 346.13 307.07 277.03 280.33 334.33 233.36 402.43 260.25"/><polygon class="cls-6" points="402.68 260.35 413.89 330.39 357.39 377.38 346.13 307.07 402.43 260.25 402.68 260.35"/><polygon class="cls-1" points="346.13 307.07 357.39 377.38 288.25 350.63 277 280.36 277.03 280.33 346.13 307.07"/><path class="cls-4" d="M277.05,280.47c22.95,8.06,46.8,17.07,69.47,25.81l-1,.16c13.56-11.27,28.7-23.64,42.55-34.72,4.79-3.77,9.55-7.6,14.38-11.33-4.55,4.08-9.18,8.05-13.76,12.08-13.46,11.61-28.3,24.22-41.9,35.51l-.45.38-.55-.22c-22.64-8.79-46.35-18.18-68.74-27.67Z"/><polygon class="cls-4" points="347.14 307.05 357.37 377.24 345.17 307.37 347.14 307.05 347.14 307.05"/><polygon class="cls-1" points="325.26 323.94 268.96 370.76 199.86 344.02 257.16 297.06 325.26 323.94"/><polygon class="cls-6" points="325.51 324.04 336.73 394.09 280.22 441.07 268.96 370.76 325.26 323.94 325.51 324.04"/><polygon class="cls-1" points="268.96 370.76 280.22 441.07 211.08 414.32 199.83 344.05 199.86 344.02 268.96 370.76"/><path class="cls-4" d="M199.89,344.16c23,8.06,46.79,17.07,69.46,25.81l-1,.16c13.56-11.27,28.7-23.63,42.55-34.72,4.79-3.77,9.55-7.6,14.38-11.33-4.54,4.08-9.17,8.05-13.76,12.08-13.46,11.61-28.3,24.23-41.89,35.51l-.46.38-.54-.21c-22.65-8.79-46.36-18.19-68.74-27.68Z"/><polygon class="cls-4" points="269.97 370.75 280.2 440.93 268 371.06 269.97 370.75 269.97 370.75"/><polygon class="cls-7" points="663.35 269.8 607.05 316.62 537.95 289.88 595.25 242.91 663.35 269.8"/><polygon class="cls-6" points="663.6 269.9 674.82 339.95 618.31 386.93 607.05 316.62 663.35 269.8 663.6 269.9"/><polygon class="cls-1" points="607.05 316.62 618.31 386.93 549.17 360.18 537.92 289.91 537.95 289.88 607.05 316.62"/><path class="cls-4" d="M538,290c22.95,8.06,46.8,17.07,69.47,25.81l-1,.16c13.56-11.27,28.7-23.63,42.55-34.72,4.79-3.77,9.55-7.6,14.38-11.33C658.82,274,654.19,278,649.61,282c-13.46,11.61-28.3,24.23-41.9,35.51l-.45.38-.55-.21C584.07,308.91,560.36,299.51,538,290Z"/><polygon class="cls-4" points="608.06 316.61 618.29 386.79 606.09 316.92 608.06 316.61 608.06 316.61"/><polygon class="cls-1" points="496.05 301.22 439.75 348.04 370.65 321.3 427.95 274.33 496.05 301.22"/><polygon class="cls-6" points="496.3 301.32 507.51 371.36 451.01 418.35 439.75 348.04 496.05 301.22 496.3 301.32"/><polygon class="cls-1" points="439.75 348.04 451.01 418.35 381.87 391.6 370.62 321.33 370.65 321.3 439.75 348.04"/><path class="cls-4" d="M371.44,321.17c22.95,8.05,46.8,17.06,69.47,25.81l-1,.16c13.56-11.27,28.7-23.64,42.55-34.72,4.79-3.78,9.55-7.6,14.38-11.33-4.55,4.07-9.18,8.05-13.76,12.08-13.46,11.61-28.3,24.22-41.9,35.51l-.45.37-.55-.21c-22.64-8.79-46.35-18.18-68.74-27.67Z"/><polygon class="cls-4" points="441.53 347.75 451.76 417.94 439.56 348.07 441.53 347.75 441.53 347.75"/><polygon class="cls-1" points="587.81 333.64 531.52 380.46 462.42 353.72 519.71 306.75 587.81 333.64"/><polygon class="cls-6" points="588.06 333.74 599.28 403.79 542.77 450.77 531.52 380.46 587.81 333.64 588.06 333.74"/><polygon class="cls-1" points="531.52 380.46 542.77 450.77 473.63 424.02 462.38 353.75 462.42 353.72 531.52 380.46"/><path class="cls-4" d="M462.44,353.86c22.95,8.06,46.79,17.07,69.46,25.81l-1,.16c13.56-11.27,28.7-23.63,42.55-34.72,4.8-3.77,9.55-7.6,14.39-11.33-4.55,4.08-9.18,8.05-13.77,12.08-13.46,11.61-28.3,24.22-41.89,35.51l-.45.38-.55-.22c-22.65-8.79-46.35-18.18-68.74-27.67Z"/><polygon class="cls-4" points="532.53 380.44 542.75 450.63 530.55 380.76 532.53 380.44 532.53 380.44"/><polygon class="cls-7" points="418.52 360.75 362.23 407.57 293.13 380.83 350.42 333.86 418.52 360.75"/><polygon class="cls-6" points="418.77 360.85 429.99 430.9 373.49 477.88 362.23 407.57 418.52 360.75 418.77 360.85"/><polygon class="cls-1" points="362.23 407.57 373.49 477.88 304.35 451.13 293.09 380.86 293.13 380.83 362.23 407.57"/><path class="cls-4" d="M293.15,381c23,8.06,46.79,17.07,69.46,25.81l-1,.16c13.56-11.27,28.7-23.63,42.55-34.72,4.8-3.77,9.55-7.6,14.39-11.33C414,365,409.37,368.94,404.78,373c-13.46,11.61-28.3,24.22-41.89,35.51l-.45.38-.55-.22c-22.65-8.79-46.35-18.18-68.74-27.67Z"/><polygon class="cls-4" points="363.24 407.55 373.46 477.74 361.26 407.87 363.24 407.55 363.24 407.55"/><polygon class="cls-1" points="512.22 397.14 455.93 443.96 386.83 417.22 444.12 370.25 512.22 397.14"/><polygon class="cls-6" points="512.47 397.24 523.69 467.29 467.19 514.27 455.93 443.96 512.22 397.14 512.47 397.24"/><polygon class="cls-1" points="455.93 443.96 467.19 514.27 398.05 487.52 386.79 417.25 386.83 417.22 455.93 443.96"/><path class="cls-4" d="M386.85,417.36c22.95,8.06,46.79,17.07,69.46,25.81l-1,.16c13.56-11.27,28.7-23.63,42.55-34.72,4.8-3.77,9.55-7.6,14.39-11.33-4.55,4.08-9.18,8.05-13.77,12.08C485,421,470.18,433.58,456.59,444.87l-.45.38-.55-.22c-22.65-8.79-46.35-18.18-68.74-27.67Z"/><polygon class="cls-4" points="456.94 443.94 467.16 514.13 454.96 444.26 456.94 443.94 456.94 443.94"/><rect class="cls-5" x="407.65" y="158.78" width="8.67" height="13.01"/><path class="cls-5" d="M416.32,134.89h-8.67V111h8.67ZM418.25,89l-8.08-3.17A36.66,36.66,0,0,1,428.1,66.34l3.84,7.79A27.91,27.91,0,0,0,418.25,89ZM572.81,71.27H548.93V62.6h23.88Zm-47.77,0H501.16V62.6H525Zm-47.76,0H453.39V62.6h23.89Z"/><rect class="cls-5" x="596.79" y="62.6" width="13.01" height="8.67"/><path class="cls-5" d="M650.22,70.37a20.36,20.36,0,1,1-16.63-23.5A20.34,20.34,0,0,1,650.22,70.37Z"/><circle class="cls-1" cx="739.52" cy="66.93" r="66.93" transform="translate(169.27 542.53) rotate(-45)"/><path class="cls-3" d="M737.13,131.47a66.92,66.92,0,0,0,48.5-113A66.92,66.92,0,1,1,691,113,66.7,66.7,0,0,0,737.13,131.47Z"/><circle class="cls-3" cx="743.15" cy="45.52" r="20.33" transform="translate(569.38 769.5) rotate(-80.01)"/><path class="cls-3" d="M774.06,101.73h0a88.21,88.21,0,0,1-61.83,0h0a30.92,30.92,0,0,1,61.83,0Z"/><circle class="cls-4" cx="739.52" cy="43.21" r="20.33" transform="translate(186.05 535.58) rotate(-45)"/><path class="cls-4" d="M770.44,99.42h0a88.21,88.21,0,0,1-61.83,0h0a30.92,30.92,0,1,1,61.83,0Z"/></svg>