<svg id="Layer_1" data-name="Layer 1" xmlns="http://www.w3.org/2000/svg" viewBox="0 0 178.86 24"><defs><style>.cls-1,.cls-2{fill:#fff;}.cls-2{fill-opacity:0.2;}</style></defs><path class="cls-1" d="M27.71,0h-19c-2.17,0-3.39,1.78-4,4L.08,19.68a2,2,0,0,0-.07.69A4,4,0,0,0,4,24H32a4,4,0,0,0,4-3.66,1.74,1.74,0,0,0-.06-.64L31.68,4C31.05,1.93,29.91,0,27.71,0ZM4.35,21.69c-.08.08-.19-.26-.27-.58a1.84,1.84,0,0,1,0-1L8.74,3.39c.36-1.46.86-2.27,2-2.53H25.2ZM32,20.61a2.59,2.59,0,0,1-2.58,2.6h-20a.38.38,0,0,1-.26-.65L23,9.05A8.61,8.61,0,0,0,25.2,3.12c0-1.2.4-1.91.89-2.14a3,3,0,0,1,1.62,2.41Z" transform="translate(0 0)"/><path class="cls-1" d="M74.3,6a3.26,3.26,0,0,0-.22-1.15,3.19,3.19,0,0,0-.64-1,3,3,0,0,0-1-.65A2.83,2.83,0,0,0,71.37,3H53.92a2.89,2.89,0,0,0-2.06.88A3,3,0,0,0,51,6V18a3.06,3.06,0,0,0,.86,2.13,2.88,2.88,0,0,0,2.06.88H71.37a2.91,2.91,0,0,0,2.07-.88,2.92,2.92,0,0,0,.64-1A3.18,3.18,0,0,0,74.3,18ZM55.82,20.4a1.87,1.87,0,0,1-1.34-.57,1.89,1.89,0,0,1-.41-.64,1.93,1.93,0,0,1-.15-.75V5.54a2,2,0,0,1,.56-1.38,1.89,1.89,0,0,1,1.34-.57H69.48a1.9,1.9,0,0,1,1.34.57,2,2,0,0,1,.55,1.38V18.45a2.17,2.17,0,0,1-.14.75,2,2,0,0,1-1,1.06,2,2,0,0,1-.72.14ZM98.59,15V18a3.25,3.25,0,0,1-.21,1.15,3.16,3.16,0,0,1-.63,1,3,3,0,0,1-.94.65,2.84,2.84,0,0,1-1.12.23H78.22a2.72,2.72,0,0,1-1.12-.21,3,3,0,0,1-1.58-1.6A3,3,0,0,1,75.3,18v-12a3.07,3.07,0,0,1,.84-2.15A2.91,2.91,0,0,1,78.22,3H98.59v.64l-18.47,0a2,2,0,0,0-.73.13,2.11,2.11,0,0,0-.61.41,1.76,1.76,0,0,0-.41.63,1.85,1.85,0,0,0-.15.74V18.47a1.92,1.92,0,0,0,.15.74,1.81,1.81,0,0,0,.41.62,1.77,1.77,0,0,0,.61.41,1.82,1.82,0,0,0,.73.13H93.8a1.87,1.87,0,0,0,1.33-.56,2,2,0,0,0,.56-1.36V15Zm24.3,0V18a3.05,3.05,0,0,1-.22,1.15,2.86,2.86,0,0,1-1.57,1.63A2.83,2.83,0,0,1,120,21H102.51a2.64,2.64,0,0,1-1.11-.21,2.9,2.9,0,0,1-1-.64,2.81,2.81,0,0,1-.63-1A3,3,0,0,1,99.59,18v-12a3.08,3.08,0,0,1,.85-2.15A2.89,2.89,0,0,1,102.51,3h20.38v.64l-18.48,0a2,2,0,0,0-.72.13,1.87,1.87,0,0,0-.61.41,1.82,1.82,0,0,0-.41.61,2,2,0,0,0-.16.73V18.45a2.38,2.38,0,0,0,.15.74,2.16,2.16,0,0,0,.41.62,1.83,1.83,0,0,0,1.34.54h13.68a1.83,1.83,0,0,0,.73-.15,2,2,0,0,0,.62-.42,2,2,0,0,0,.55-1.39V15Zm1-12v.64h16.93L123.89,21H128L139.15,9.8a6.55,6.55,0,0,0,1.65-4.45,1.75,1.75,0,0,1,3.5,0V21h2.87V6a3,3,0,0,0-.2-1.14,3.28,3.28,0,0,0-.62-1,3,3,0,0,0-.94-.64A2.83,2.83,0,0,0,144.3,3ZM171,3a2.87,2.87,0,0,0-1.12.22,2.75,2.75,0,0,0-1,.66l-2.2,2.28a5.78,5.78,0,0,0-1.56,4.14,1.64,1.64,0,0,1-.47,1.15,1.54,1.54,0,0,1-1.12.48,1.55,1.55,0,0,1-1.12-.48,1.67,1.67,0,0,1-.46-1.15,5.78,5.78,0,0,0-1.56-4.14l-2.2-2.28a2.85,2.85,0,0,0-1-.66A2.92,2.92,0,0,0,156.09,3h-5a2.91,2.91,0,0,0-2.07.88,3.12,3.12,0,0,0-.63,1A3.05,3.05,0,0,0,148.18,6V21h2.92V5.55a2.05,2.05,0,0,1,.31-1.08,1.89,1.89,0,0,1,1.94-.84,1.9,1.9,0,0,1,1,.53l7.42,7.69a2.49,2.49,0,0,0,3.54,0l7.45-7.69a2,2,0,0,1,1-.52,1.85,1.85,0,0,1,1.09.12,1.89,1.89,0,0,1,.84.72A2,2,0,0,1,176,5.55V21h2.91V6a3.05,3.05,0,0,0-.22-1.15,3,3,0,0,0-.63-1A2.91,2.91,0,0,0,176,3Z" transform="translate(0 0)"/><path class="cls-2" d="M74.3,6a3.26,3.26,0,0,0-.22-1.15,3.19,3.19,0,0,0-.64-1,3,3,0,0,0-1-.65A2.83,2.83,0,0,0,71.37,3H53.92a2.89,2.89,0,0,0-2.06.88A3,3,0,0,0,51,6V18a3.06,3.06,0,0,0,.86,2.13,2.88,2.88,0,0,0,2.06.88H71.37a2.91,2.91,0,0,0,2.07-.88,2.92,2.92,0,0,0,.64-1A3.18,3.18,0,0,0,74.3,18ZM55.82,20.4a1.87,1.87,0,0,1-1.34-.57,1.89,1.89,0,0,1-.41-.64,1.93,1.93,0,0,1-.15-.75V5.54a2,2,0,0,1,.56-1.38,1.89,1.89,0,0,1,1.34-.57H69.48a1.9,1.9,0,0,1,1.34.57,2,2,0,0,1,.55,1.38V18.45a2.17,2.17,0,0,1-.14.75,2,2,0,0,1-1,1.06,2,2,0,0,1-.72.14ZM98.59,15V18a3.25,3.25,0,0,1-.21,1.15,3.16,3.16,0,0,1-.63,1,3,3,0,0,1-.94.65,2.84,2.84,0,0,1-1.12.23H78.22a2.72,2.72,0,0,1-1.12-.21,3,3,0,0,1-1.58-1.6A3,3,0,0,1,75.3,18v-12a3.07,3.07,0,0,1,.84-2.15A2.91,2.91,0,0,1,78.22,3H98.59v.64l-18.47,0a2,2,0,0,0-.73.13,2.11,2.11,0,0,0-.61.41,1.76,1.76,0,0,0-.41.63,1.85,1.85,0,0,0-.15.74V18.47a1.92,1.92,0,0,0,.15.74,1.81,1.81,0,0,0,.41.62,1.77,1.77,0,0,0,.61.41,1.82,1.82,0,0,0,.73.13H93.8a1.87,1.87,0,0,0,1.33-.56,2,2,0,0,0,.56-1.36V15Zm24.3,0V18a3.05,3.05,0,0,1-.22,1.15,2.86,2.86,0,0,1-1.57,1.63A2.83,2.83,0,0,1,120,21H102.51a2.64,2.64,0,0,1-1.11-.21,2.9,2.9,0,0,1-1-.64,2.81,2.81,0,0,1-.63-1A3,3,0,0,1,99.59,18v-12a3.08,3.08,0,0,1,.85-2.15A2.89,2.89,0,0,1,102.51,3h20.38v.64l-18.48,0a2,2,0,0,0-.72.13,1.87,1.87,0,0,0-.61.41,1.82,1.82,0,0,0-.41.61,2,2,0,0,0-.16.73V18.45a2.38,2.38,0,0,0,.15.74,2.16,2.16,0,0,0,.41.62,1.83,1.83,0,0,0,1.34.54h13.68a1.83,1.83,0,0,0,.73-.15,2,2,0,0,0,.62-.42,2,2,0,0,0,.55-1.39V15Zm1-12v.64h16.93L123.89,21H128L139.15,9.8a6.55,6.55,0,0,0,1.65-4.45,1.75,1.75,0,0,1,3.5,0V21h2.87V6a3,3,0,0,0-.2-1.14,3.28,3.28,0,0,0-.62-1,3,3,0,0,0-.94-.64A2.83,2.83,0,0,0,144.3,3ZM171,3a2.87,2.87,0,0,0-1.12.22,2.75,2.75,0,0,0-1,.66l-2.2,2.28a5.78,5.78,0,0,0-1.56,4.14,1.64,1.64,0,0,1-.47,1.15,1.54,1.54,0,0,1-1.12.48,1.55,1.55,0,0,1-1.12-.48,1.67,1.67,0,0,1-.46-1.15,5.78,5.78,0,0,0-1.56-4.14l-2.2-2.28a2.85,2.85,0,0,0-1-.66A2.92,2.92,0,0,0,156.09,3h-5a2.91,2.91,0,0,0-2.07.88,3.12,3.12,0,0,0-.63,1A3.05,3.05,0,0,0,148.18,6V21h2.92V5.55a2.05,2.05,0,0,1,.31-1.08,1.89,1.89,0,0,1,1.94-.84,1.9,1.9,0,0,1,1,.53l7.42,7.69a2.49,2.49,0,0,0,3.54,0l7.45-7.69a2,2,0,0,1,1-.52,1.85,1.85,0,0,1,1.09.12,1.89,1.89,0,0,1,.84.72A2,2,0,0,1,176,5.55V21h2.91V6a3.05,3.05,0,0,0-.22-1.15,3,3,0,0,0-.63-1A2.91,2.91,0,0,0,176,3Z" transform="translate(0 0)"/></svg>