<svg xmlns="http://www.w3.org/2000/svg" xmlns:xlink="http://www.w3.org/1999/xlink" viewBox="0 0 859.71 853.67"><defs><style>.cls-1,.cls-10{fill:none;}.cls-2{isolation:isolate;}.cls-24,.cls-3{fill:#f7931a;}.cls-4{fill:#0a5b9e;}.cls-5{fill:#1d2228;}.cls-6{fill:url(#Áåçûìÿííûé_ãðàäèåíò_2);}.cls-7{fill:#24126a;}.cls-8{mix-blend-mode:lighten;opacity:0.8;fill:url(#Áåçûìÿííûé_ãðàäèåíò_56);}.cls-25,.cls-9{fill:#fff;}.cls-10{stroke:#00f7ff;stroke-miterlimit:10;stroke-width:3px;}.cls-11{clip-path:url(#clip-path);}.cls-12{opacity:0.19;}.cls-13{fill:#00f7ff;}.cls-14{fill:#00d3d3;}.cls-15{clip-path:url(#clip-path-2);}.cls-16{opacity:0.06;}.cls-17{fill:#7ddaff;}.cls-18{fill:#0098d4;}.cls-19{fill:#bbf2ff;}.cls-20{fill:#007cff;}.cls-21{opacity:0.2;}.cls-22,.cls-23{fill:url(#linear-gradient);}.cls-23{opacity:0.7;}.cls-24{opacity:0.4;}.cls-25{opacity:0.68;}</style><linearGradient id="Áåçûìÿííûé_ãðàäèåíò_2" x1="471.91" y1="605.22" x2="1256.29" y2="605.22" gradientTransform="matrix(-1, 0, 0, 1, 993.83, 0)" gradientUnits="userSpaceOnUse"><stop offset="0" stop-color="#c0bff6"/><stop offset="0.29" stop-color="#c5c4f7"/><stop offset="0.64" stop-color="#d3d2f9"/><stop offset="1" stop-color="#e9e9fd"/></linearGradient><linearGradient id="Áåçûìÿííûé_ãðàäèåíò_56" y1="595.11" x2="786.63" y2="595.11" gradientUnits="userSpaceOnUse"><stop offset="0" stop-color="#42e8e0"/><stop offset="0.11" stop-color="#37b6bf"/><stop offset="0.22" stop-color="#2c87a1"/><stop offset="0.34" stop-color="#235f87"/><stop offset="0.46" stop-color="#1c3f72"/><stop offset="0.58" stop-color="#162561"/><stop offset="0.71" stop-color="#121355"/><stop offset="0.85" stop-color="#10084e"/><stop offset="1" stop-color="#0f054c"/></linearGradient><clipPath id="clip-path"><path class="cls-1" d="M5.43,554.56l475.62,274.6c5.21,3,13.08,3.34,17.59.73L782.46,666c4.51-2.6,3.94-7.15-1.26-10.16L305.58,381.27c-5.21-3-13.08-3.33-17.59-.73L4.17,544.41C-.34,547,.22,551.56,5.43,554.56Z"/></clipPath><clipPath id="clip-path-2"><polyline class="cls-1" points="781.76 644.79 309.76 372.29 368.78 14.97 842.21 288.18 780.64 646.74"/></clipPath><linearGradient id="linear-gradient" x1="-3452.32" y1="7993.4" x2="-3318.42" y2="8147.17" gradientTransform="matrix(0.59, 0.81, 0.81, -0.59, -3832.9, 7841.04)" gradientUnits="userSpaceOnUse"><stop offset="0" stop-color="#444b8c"/><stop offset="1" stop-color="#26264f" stop-opacity="0"/></linearGradient></defs><g class="cls-2"><g id="Layer_1" data-name="Layer 1"><path class="cls-3" d="M304.72,363.5,364.84,6.8l-4.83-2L367.27.6v0c1.41-.94,3.41-.88,5.6.39L853.37,278.45c3.94,2.28,6.93,8.12,6.24,12.21L799,650.19a4.5,4.5,0,0,1-2.54,3.66h0l-7.11,4.1-1.22-6.63.41.12L311,375.71C307,373.43,304,367.59,304.72,363.5Z"/><path class="cls-3" d="M850.69,288.2l7.9-3.49a10.88,10.88,0,0,1,1,6L799,650.19a4.5,4.5,0,0,1-2.54,3.66h0l-7.11,4.1-1.22-6.63.41.12-24.17-14Z"/><path class="cls-4" d="M303.42,380,783.93,657.46c3.71,2.14,6.89.9,7.54-2.94L852.07,295c.69-4.08-2.29-9.93-6.24-12.21L365.32,5.35c-3.71-2.14-6.88-.9-7.54,2.94l-60.6,359.54C296.49,371.91,299.48,377.76,303.42,380Z"/><path class="cls-5" d="M366.85,13.85,845,289.76a2.52,2.52,0,0,1,1.22,2.6L785.5,651.09,303.05,372.68,363.11,15.61A2.52,2.52,0,0,1,366.85,13.85Z"/><path class="cls-3" d="M1.37,550.25,27.6,564,290.54,412.14c4.4-2.54,12.09-2.22,17.17.71l453.5,261.83c4.34-2.43,24.13-11.94,24.13-11.94l-9.6,15.6,0,0a5.75,5.75,0,0,1-2.68,3L496.08,841.17c-4.39,2.54-12.08,2.23-17.16-.71L14.84,572.53A8.32,8.32,0,0,1,11,568.39l0,0Z"/><path class="cls-6" d="M5.43,554.56l475.62,274.6c5.21,3,13.08,3.34,17.59.73L782.46,666c4.51-2.6,3.94-7.15-1.26-10.16L305.58,381.27c-5.21-3-13.08-3.33-17.59-.73L4.17,544.41C-.34,547,.22,551.56,5.43,554.56Z"/><path class="cls-7" d="M5.43,554.56l475.62,274.6c5.21,3,13.08,3.34,17.59.73L782.46,666c4.51-2.6,3.94-7.15-1.26-10.16L305.58,381.27c-5.21-3-13.08-3.33-17.59-.73L4.17,544.41C-.34,547,.22,551.56,5.43,554.56Z"/><path class="cls-5" d="M5.43,554.56l475.62,274.6c5.21,3,13.08,3.34,17.59.73L782.46,666c4.51-2.6,3.94-7.15-1.26-10.16L305.58,381.27c-5.21-3-13.08-3.33-17.59-.73L4.17,544.41C-.34,547,.22,551.56,5.43,554.56Z"/><path class="cls-8" d="M491,822.68A21.4,21.4,0,0,1,480.49,820L4.87,545.43C1.77,543.64,0,541.2,0,538.71c0-2.13,1.28-4,3.61-5.38L287.43,369.47c4.89-2.83,13.11-2.51,18.71.72L781.76,644.8c3.09,1.78,4.87,4.23,4.87,6.71,0,2.13-1.28,4-3.61,5.38L499.2,820.76A16.68,16.68,0,0,1,491,822.68ZM295.63,369.79a14.41,14.41,0,0,0-7.08,1.62L4.73,535.27c-1.14.66-2.49,1.79-2.49,3.44s1.37,3.4,3.75,4.77H6L481.61,818.09c4.89,2.81,12.28,3.14,16.47.73L781.9,655c1.13-.66,2.48-1.78,2.48-3.44s-1.36-3.4-3.74-4.77L305,372.14A19.18,19.18,0,0,0,295.63,369.79Z"/><path class="cls-9" d="M5.43,552.43,481.05,827c5.21,3,13.08,3.34,17.59.73L782.46,663.9a5.73,5.73,0,0,0,2.86-3.33c.5,2-.39,4-2.86,5.46L498.64,829.89c-4.51,2.61-12.38,2.28-17.59-.73L5.43,554.56C2.06,552.62.67,550,1.31,547.73,1.72,549.4,3.07,551.08,5.43,552.43Z"/><path class="cls-3" d="M765,290.05a7.11,7.11,0,0,1-3.52-1c-3.56-2.06-5.77-6.72-4.92-10.4a5.2,5.2,0,0,1,3-3.76,6.24,6.24,0,0,1,5.6.6c3.62,2.09,5.79,6.66,4.92,10.4a5.16,5.16,0,0,1-3,3.75A5.06,5.06,0,0,1,765,290.05Zm-3.41-14a3.46,3.46,0,0,0-3.46,2.92c-.7,3,1.17,6.91,4.16,8.64a4.63,4.63,0,0,0,4.14.51,3.62,3.62,0,0,0,2-2.64c.7-3-1.17-6.9-4.16-8.63A5.46,5.46,0,0,0,761.54,276.08Z"/><path class="cls-3" d="M784.18,301.15a7.08,7.08,0,0,1-3.52-1c-3.57-2.06-5.78-6.72-4.93-10.4a5.23,5.23,0,0,1,3-3.76,6.22,6.22,0,0,1,5.59.6c3.63,2.09,5.79,6.66,4.93,10.4a5,5,0,0,1-5,4.17Zm-3.41-14a3.44,3.44,0,0,0-3.46,2.92c-.7,3,1.16,6.91,4.16,8.64a4.63,4.63,0,0,0,4.14.51,3.65,3.65,0,0,0,2-2.64c.7-3-1.17-6.9-4.17-8.63A5.43,5.43,0,0,0,780.77,287.18Z"/><path class="cls-3" d="M807.65,307.9c-.78,3.36-4.07,4.54-7.36,2.64s-5.32-6.16-4.55-9.52,4.08-4.54,7.36-2.64S808.43,304.54,807.65,307.9Z"/><polygon class="cls-3" points="439.01 95.76 428.73 89.82 429.53 85.06 439.81 91 439.01 95.76"/><polygon class="cls-3" points="453.96 104.39 443.68 98.45 444.48 93.69 454.76 99.63 453.96 104.39"/><polygon class="cls-3" points="424.22 87.22 401.67 74.2 402.47 69.44 425.02 82.46 424.22 87.22"/><path class="cls-10" d="M622,593.38,400.33,460.73a9.22,9.22,0,0,0-9.43,0L164.75,593.47a4.49,4.49,0,0,0,0,7.75L390.9,733.78a9.24,9.24,0,0,0,9.43,0L622,601.08A4.49,4.49,0,0,0,622,593.38Z"/><g class="cls-11"><g class="cls-12"><polygon class="cls-13" points="439.01 600.86 394.22 627.4 348.72 600.86 394.22 574.33 439.01 600.86"/><polygon class="cls-14" points="439.17 600.96 439.17 651.39 394.22 678.03 394.22 627.4 439.01 600.86 439.17 600.96"/><polygon class="cls-13" points="394.22 627.4 394.22 678.03 348.69 651.48 348.69 600.88 348.72 600.86 394.22 627.4"/><path class="cls-9" d="M348.72,601c15.55,8.16,30.82,16.86,46,25.68h-1c7.48-4.4,15-8.79,22.51-13.08S431.35,605,439,601c-7.26,4.77-14.6,9.39-22,13.94s-15.16,9.22-22.78,13.76l-.51-.29c-15.16-8.88-30.24-17.89-45-27.41Z"/><polygon class="cls-9" points="395.22 627.5 394.22 677.93 393.22 627.5 395.22 627.5 395.22 627.5"/><polygon class="cls-13" points="499.22 635.13 454.43 661.67 408.92 635.13 454.43 608.59 499.22 635.13"/><polygon class="cls-14" points="499.38 635.23 499.38 685.66 454.43 712.29 454.43 661.67 499.22 635.13 499.38 635.23"/><polygon class="cls-13" points="454.43 661.67 454.43 712.29 408.9 685.74 408.9 635.14 408.92 635.13 454.43 661.67"/><path class="cls-9" d="M408.92,635.24c15.56,8.16,30.83,16.86,46,25.68h-1c7.48-4.41,15-8.8,22.51-13.08s15.12-8.53,22.79-12.61c-7.26,4.77-14.61,9.39-22,13.94-7.55,4.67-15.16,9.23-22.79,13.77l-.5-.3c-15.16-8.88-30.24-17.88-45-27.41Z"/><polygon class="cls-9" points="455.43 661.79 454.43 712.21 453.43 661.79 455.43 661.79 455.43 661.79"/><polygon class="cls-13" points="377.32 635.13 332.53 661.67 287.02 635.13 332.53 608.59 377.32 635.13"/><polygon class="cls-14" points="377.48 635.23 377.48 685.66 332.53 712.29 332.53 661.67 377.32 635.13 377.48 635.23"/><polygon class="cls-13" points="332.53 661.67 332.53 712.29 287 685.74 287 635.14 287.02 635.13 332.53 661.67"/><path class="cls-9" d="M287,635.23c15.56,8.16,30.83,16.85,46,25.68h-1c7.48-4.41,15-8.79,22.51-13.08s15.12-8.52,22.79-12.6q-10.89,7.14-22,13.94c-7.55,4.66-15.16,9.22-22.79,13.76l-.5-.3c-15.16-8.87-30.25-17.88-45-27.4Z"/><polygon class="cls-9" points="333.53 661.77 332.53 712.19 331.53 661.77 333.53 661.77 333.53 661.77"/><polygon class="cls-13" points="315.98 740.47 271.19 767.01 225.69 740.47 271.19 713.94 315.98 740.47"/><polygon class="cls-14" points="316.14 740.57 316.14 791.01 271.19 817.64 271.19 767.01 315.98 740.47 316.14 740.57"/><polygon class="cls-13" points="271.19 767.01 271.19 817.64 225.66 791.09 225.66 740.49 225.69 740.47 271.19 767.01"/><path class="cls-9" d="M225.69,740.5c15.55,8.16,30.82,16.86,46,25.68h-1c7.48-4.41,15-8.8,22.51-13.08s15.12-8.53,22.79-12.61c-7.26,4.77-14.61,9.39-22,13.94-7.55,4.67-15.16,9.23-22.78,13.77l-.51-.3c-15.16-8.88-30.24-17.88-45-27.41Z"/><polygon class="cls-9" points="272.19 767.05 271.19 817.47 270.19 767.05 272.19 767.05 272.19 767.05"/><polygon class="cls-13" points="559.43 740.47 514.64 767.01 469.13 740.47 514.64 713.94 559.43 740.47"/><polygon class="cls-14" points="559.59 740.57 559.59 791.01 514.64 817.64 514.64 767.01 559.43 740.47 559.59 740.57"/><polygon class="cls-13" points="514.64 767.01 514.64 817.64 469.11 791.09 469.11 740.49 469.13 740.47 514.64 767.01"/><path class="cls-9" d="M469.13,740.5c15.56,8.16,30.82,16.86,46,25.68h-1c7.47-4.41,15-8.8,22.51-13.08s15.12-8.53,22.79-12.61c-7.26,4.77-14.61,9.39-22,13.94-7.55,4.67-15.16,9.23-22.79,13.77l-.5-.3C499,759,483.89,750,469.13,740.5Z"/><polygon class="cls-9" points="515.64 767.05 514.64 817.47 513.64 767.05 515.64 767.05 515.64 767.05"/><polygon class="cls-13" points="439.01 529.78 394.22 556.32 348.72 529.78 394.22 503.25 439.01 529.78"/><polygon class="cls-14" points="439.17 529.88 439.17 580.32 394.22 606.95 394.22 556.32 439.01 529.78 439.17 529.88"/><polygon class="cls-13" points="394.22 556.32 394.22 606.95 348.69 580.4 348.69 529.8 348.72 529.78 394.22 556.32"/><polygon class="cls-13" points="499.22 565.93 454.43 592.47 408.92 565.93 454.43 539.4 499.22 565.93"/><polygon class="cls-14" points="499.38 566.03 499.38 616.47 454.43 643.1 454.43 592.47 499.22 565.93 499.38 566.03"/><polygon class="cls-13" points="454.43 592.47 454.43 643.1 408.9 616.55 408.9 565.95 408.92 565.93 454.43 592.47"/><polygon class="cls-13" points="377.32 565.93 332.53 592.47 287.02 565.93 332.53 539.4 377.32 565.93"/><polygon class="cls-14" points="377.48 566.03 377.48 616.47 332.53 643.1 332.53 592.47 377.32 565.93 377.48 566.03"/><polygon class="cls-13" points="332.53 592.47 332.53 643.1 287 616.55 287 565.95 287.02 565.93 332.53 592.47"/><polygon class="cls-13" points="559.43 671.17 514.64 697.71 469.13 671.17 514.64 644.63 559.43 671.17"/><polygon class="cls-14" points="559.59 671.27 559.59 721.7 514.64 748.34 514.64 697.71 559.43 671.17 559.59 671.27"/><polygon class="cls-13" points="514.64 697.71 514.64 748.34 469.11 721.78 469.11 671.18 469.13 671.17 514.64 697.71"/><polygon class="cls-13" points="315.98 671.17 271.19 697.71 225.69 671.17 271.19 644.63 315.98 671.17"/><polygon class="cls-14" points="316.14 671.27 316.14 721.7 271.19 748.34 271.19 697.71 315.98 671.17 316.14 671.27"/><polygon class="cls-13" points="271.19 697.71 271.19 748.34 225.66 721.78 225.66 671.18 225.69 671.17 271.19 697.71"/><polygon class="cls-13" points="438.44 674.41 393.65 700.96 348.14 674.41 393.65 647.88 438.44 674.41"/><polygon class="cls-14" points="438.6 674.51 438.6 724.95 393.65 751.58 393.65 700.96 438.44 674.41 438.6 674.51"/><polygon class="cls-13" points="393.65 700.96 393.65 751.58 348.12 725.03 348.12 674.43 348.14 674.41 393.65 700.96"/><polygon class="cls-13" points="377.32 776.5 332.53 803.05 287.02 776.5 332.53 749.97 377.32 776.5"/><polygon class="cls-14" points="377.48 776.61 377.48 827.04 332.53 853.67 332.53 803.05 377.32 776.5 377.48 776.61"/><polygon class="cls-13" points="332.53 803.05 332.53 853.67 287 827.12 287 776.52 287.02 776.5 332.53 803.05"/><polygon class="cls-13" points="499.22 707.49 454.43 734.03 408.92 707.49 454.43 680.96 499.22 707.49"/><polygon class="cls-14" points="499.38 707.59 499.38 758.03 454.43 784.66 454.43 734.03 499.22 707.49 499.38 707.59"/><polygon class="cls-13" points="454.43 734.03 454.43 784.66 408.9 758.11 408.9 707.51 408.92 707.49 454.43 734.03"/><polygon class="cls-13" points="377.32 707.49 332.53 734.03 287.02 707.49 332.53 680.96 377.32 707.49"/><polygon class="cls-14" points="377.48 707.59 377.48 758.03 332.53 784.66 332.53 734.03 377.32 707.49 377.48 707.59"/><polygon class="cls-13" points="332.53 734.03 332.53 784.66 287 758.11 287 707.51 287.02 707.49 332.53 734.03"/><polygon class="cls-13" points="559.43 602.03 514.64 628.57 469.13 602.03 514.64 575.5 559.43 602.03"/><polygon class="cls-14" points="559.59 602.13 559.59 652.57 514.64 679.2 514.64 628.57 559.43 602.03 559.59 602.13"/><polygon class="cls-13" points="514.64 628.57 514.64 679.2 469.11 652.65 469.11 602.05 469.13 602.03 514.64 628.57"/><polygon class="cls-13" points="315.98 602.03 271.19 628.57 225.69 602.03 271.19 575.5 315.98 602.03"/><polygon class="cls-14" points="316.14 602.13 316.14 652.57 271.19 679.2 271.19 628.57 315.98 602.03 316.14 602.13"/><polygon class="cls-13" points="271.19 628.57 271.19 679.2 225.66 652.65 225.66 602.05 225.69 602.03 271.19 628.57"/><path class="cls-9" d="M225.69,602c15.55,8.16,30.82,16.86,46,25.68h-1c7.48-4.4,15-8.79,22.51-13.08S308.31,606.11,316,602c-7.26,4.77-14.61,9.39-22,13.94-7.55,4.67-15.16,9.22-22.78,13.77l-.51-.3c-15.16-8.88-30.24-17.88-45-27.41Z"/><polygon class="cls-9" points="272.19 628.57 271.19 679 270.19 628.57 272.19 628.57 272.19 628.57"/><path class="cls-9" d="M225.69,671.27c15.55,8.16,30.82,16.86,46,25.68h-1c7.48-4.41,15-8.79,22.51-13.08s15.12-8.52,22.79-12.6q-10.89,7.14-22,13.94c-7.55,4.66-15.16,9.22-22.78,13.76l-.51-.3c-15.16-8.87-30.24-17.88-45-27.4Z"/><polygon class="cls-9" points="272.19 697.81 271.19 748.23 270.19 697.81 272.19 697.81 272.19 697.81"/><path class="cls-9" d="M287,565.93c15.56,8.16,30.83,16.86,46,25.68h-1c7.48-4.4,15-8.79,22.51-13.08s15.12-8.52,22.79-12.6q-10.89,7.14-22,13.94c-7.55,4.66-15.16,9.22-22.79,13.76l-.5-.29c-15.16-8.88-30.25-17.89-45-27.41Z"/><polygon class="cls-9" points="333.53 592.47 332.53 642.89 331.53 592.47 333.53 592.47 333.53 592.47"/><path class="cls-9" d="M348.72,529.78c15.55,8.16,30.82,16.86,46,25.68h-1c7.48-4.41,15-8.79,22.51-13.08s15.13-8.52,22.79-12.6q-10.89,7.14-22,13.94c-7.55,4.66-15.16,9.22-22.78,13.76l-.51-.3c-15.16-8.87-30.24-17.88-45-27.4Z"/><polygon class="cls-9" points="395.22 556.32 394.22 606.74 393.22 556.32 395.22 556.32 395.22 556.32"/><path class="cls-9" d="M408.92,565.93c15.56,8.16,30.83,16.86,46,25.68h-1c7.48-4.4,15-8.79,22.51-13.08s15.12-8.52,22.79-12.6q-10.89,7.14-22,13.94c-7.55,4.66-15.16,9.22-22.79,13.76l-.5-.29c-15.16-8.88-30.24-17.89-45-27.41Z"/><polygon class="cls-9" points="455.43 592.47 454.43 642.89 453.43 592.47 455.43 592.47 455.43 592.47"/><path class="cls-9" d="M408.92,707.6c15.56,8.15,30.83,16.85,46,25.67h-1c7.48-4.41,15-8.8,22.51-13.08s15.12-8.52,22.79-12.6c-7.26,4.76-14.61,9.38-22,13.94-7.55,4.66-15.16,9.22-22.79,13.76l-.5-.3c-15.16-8.88-30.24-17.88-45-27.4Z"/><polygon class="cls-9" points="455.43 734.14 454.43 784.56 453.43 734.14 455.43 734.14 455.43 734.14"/><path class="cls-9" d="M287,707.6c15.56,8.15,30.83,16.85,46,25.67h-1c7.48-4.41,15-8.8,22.51-13.08s15.12-8.52,22.79-12.6c-7.26,4.76-14.61,9.38-22,13.94-7.55,4.66-15.16,9.22-22.79,13.76l-.5-.3c-15.16-8.88-30.25-17.88-45-27.4Z"/><polygon class="cls-9" points="333.53 734.14 332.53 784.56 331.53 734.14 333.53 734.14 333.53 734.14"/><path class="cls-9" d="M287,776.4c15.56,8.16,30.83,16.86,46,25.68h-1c7.48-4.4,15-8.79,22.51-13.08s15.12-8.52,22.79-12.6c-7.26,4.77-14.61,9.39-22,13.94-7.55,4.67-15.16,9.23-22.79,13.77l-.5-.3c-15.16-8.88-30.25-17.88-45-27.41Z"/><polygon class="cls-9" points="333.53 802.95 332.53 853.37 331.53 802.95 333.53 802.95 333.53 802.95"/><path class="cls-9" d="M469.13,602c15.56,8.16,30.82,16.86,46,25.68h-1c7.47-4.4,15-8.79,22.51-13.08s15.12-8.52,22.79-12.6c-7.26,4.77-14.61,9.39-22,13.94-7.55,4.67-15.16,9.22-22.79,13.77l-.5-.3c-15.16-8.88-30.25-17.88-45-27.41Z"/><polygon class="cls-9" points="515.64 628.57 514.64 679 513.64 628.57 515.64 628.57 515.64 628.57"/><path class="cls-9" d="M469.13,671.27c15.56,8.16,30.82,16.86,46,25.68h-1c7.47-4.41,15-8.79,22.51-13.08s15.12-8.52,22.79-12.6q-10.89,7.14-22,13.94c-7.55,4.66-15.16,9.22-22.79,13.76l-.5-.3c-15.16-8.87-30.25-17.88-45-27.4Z"/><polygon class="cls-9" points="515.64 697.81 514.64 748.23 513.64 697.81 515.64 697.81 515.64 697.81"/><path class="cls-9" d="M348.72,674.41c15.55,8.16,30.82,16.86,46,25.68h-1c7.48-4.4,15-8.79,22.51-13.08s15.13-8.52,22.79-12.6c-7.26,4.77-14.6,9.39-22,13.94s-15.16,9.23-22.78,13.77l-.51-.3c-15.16-8.88-30.24-17.88-45-27.41Z"/><polygon class="cls-9" points="395.22 700.96 394.22 751.38 393.22 700.96 395.22 700.96 395.22 700.96"/><polygon class="cls-13" points="439.01 743.58 394.22 770.12 348.72 743.58 394.22 717.04 439.01 743.58"/><polygon class="cls-14" points="439.17 743.68 439.17 794.11 394.22 820.75 394.22 770.12 439.01 743.58 439.17 743.68"/><polygon class="cls-13" points="394.22 770.12 394.22 820.75 348.69 794.2 348.69 743.6 348.72 743.58 394.22 770.12"/><polygon class="cls-13" points="499.22 637.6 454.43 664.14 408.92 637.6 454.43 611.07 499.22 637.6"/><polygon class="cls-14" points="499.38 637.7 499.38 688.14 454.43 714.77 454.43 664.14 499.22 637.6 499.38 637.7"/><polygon class="cls-13" points="454.43 664.14 454.43 714.77 408.9 688.22 408.9 637.62 408.92 637.6 454.43 664.14"/><polygon class="cls-13" points="377.32 637.6 332.53 664.14 287.02 637.6 332.53 611.07 377.32 637.6"/><polygon class="cls-14" points="377.48 637.7 377.48 688.14 332.53 714.77 332.53 664.14 377.32 637.6 377.48 637.7"/><polygon class="cls-13" points="332.53 664.14 332.53 714.77 287 688.22 287 637.62 287.02 637.6 332.53 664.14"/><polygon class="cls-13" points="439.01 673.68 394.22 700.23 348.72 673.68 394.22 647.15 439.01 673.68"/><polygon class="cls-14" points="439.17 673.78 439.17 724.22 394.22 750.85 394.22 700.23 439.01 673.68 439.17 673.78"/><polygon class="cls-13" points="394.22 700.23 394.22 750.85 348.69 724.3 348.69 673.7 348.72 673.68 394.22 700.23"/><path class="cls-9" d="M348.72,743.68c15.55,8.16,30.82,16.86,46,25.68h-1c7.48-4.41,15-8.79,22.51-13.08s15.13-8.52,22.79-12.6q-10.89,7.14-22,13.94c-7.55,4.66-15.16,9.22-22.78,13.76l-.51-.3c-15.16-8.87-30.24-17.88-45-27.4Z"/><polygon class="cls-9" points="395.22 770.22 394.22 820.64 393.22 770.22 395.22 770.22 395.22 770.22"/></g></g><g class="cls-15"><g class="cls-16"><polygon class="cls-13" points="670.57 254.24 625.78 280.78 580.27 254.24 625.78 227.7 670.57 254.24"/><polygon class="cls-14" points="670.73 254.34 670.73 304.77 625.78 331.4 625.78 280.78 670.57 254.24 670.73 254.34"/><polygon class="cls-13" points="625.78 280.78 625.78 331.4 580.25 304.85 580.25 254.25 580.27 254.24 625.78 280.78"/><path class="cls-9" d="M580.28,254.34c15.55,8.16,30.82,16.85,46,25.68h-1c7.48-4.41,15-8.79,22.51-13.08s15.12-8.52,22.79-12.6q-10.89,7.14-22,13.94c-7.55,4.66-15.16,9.22-22.78,13.76l-.51-.3c-15.16-8.87-30.24-17.88-45-27.4Z"/><polygon class="cls-9" points="626.78 280.88 625.78 331.3 624.78 280.88 626.78 280.88 626.78 280.88"/><polygon class="cls-13" points="730.78 288.5 685.99 315.04 640.48 288.5 685.99 261.97 730.78 288.5"/><polygon class="cls-14" points="730.94 288.6 730.94 339.04 685.99 365.67 685.99 315.04 730.78 288.5 730.94 288.6"/><polygon class="cls-13" points="685.99 315.04 685.99 365.67 640.46 339.12 640.46 288.52 640.48 288.5 685.99 315.04"/><path class="cls-9" d="M640.48,288.62c15.56,8.16,30.83,16.86,46,25.68h-1c7.48-4.4,15-8.79,22.51-13.08s15.12-8.52,22.79-12.6q-10.89,7.14-22,13.94c-7.55,4.66-15.16,9.22-22.79,13.76l-.5-.3c-15.16-8.87-30.25-17.88-45-27.4Z"/><polygon class="cls-9" points="686.99 315.16 685.99 365.58 684.99 315.16 686.99 315.16 686.99 315.16"/><polygon class="cls-13" points="608.88 288.5 564.09 315.04 518.58 288.5 564.09 261.97 608.88 288.5"/><polygon class="cls-14" points="609.04 288.6 609.04 339.04 564.09 365.67 564.09 315.04 608.88 288.5 609.04 288.6"/><polygon class="cls-13" points="564.09 315.04 564.09 365.67 518.55 339.12 518.55 288.52 518.58 288.5 564.09 315.04"/><path class="cls-9" d="M518.58,288.6c15.56,8.16,30.82,16.86,46,25.68h-1c7.47-4.41,15-8.8,22.51-13.08s15.12-8.53,22.79-12.61c-7.26,4.77-14.61,9.39-22,13.94-7.55,4.67-15.16,9.23-22.79,13.77l-.5-.3c-15.16-8.88-30.25-17.88-45-27.41Z"/><polygon class="cls-9" points="565.09 315.15 564.09 365.57 563.09 315.15 565.09 315.15 565.09 315.15"/><polygon class="cls-13" points="547.54 393.85 502.75 420.39 457.24 393.85 502.75 367.32 547.54 393.85"/><polygon class="cls-14" points="547.7 393.95 547.7 444.39 502.75 471.02 502.75 420.39 547.54 393.85 547.7 393.95"/><polygon class="cls-13" points="502.75 420.39 502.75 471.02 457.22 444.47 457.22 393.87 457.24 393.85 502.75 420.39"/><path class="cls-9" d="M457.24,393.88c15.56,8.16,30.83,16.86,46,25.68h-1c7.48-4.4,15-8.79,22.51-13.08s15.12-8.52,22.79-12.6c-7.26,4.77-14.61,9.39-22,13.94-7.55,4.66-15.16,9.22-22.78,13.76l-.51-.29c-15.16-8.88-30.24-17.89-45-27.41Z"/><polygon class="cls-9" points="503.75 420.42 502.75 470.85 501.75 420.42 503.75 420.42 503.75 420.42"/><polygon class="cls-13" points="790.99 393.85 746.2 420.39 700.69 393.85 746.2 367.32 790.99 393.85"/><polygon class="cls-14" points="791.15 393.95 791.15 444.39 746.2 471.02 746.2 420.39 790.99 393.85 791.15 393.95"/><polygon class="cls-13" points="746.2 420.39 746.2 471.02 700.66 444.47 700.66 393.87 700.69 393.85 746.2 420.39"/><path class="cls-9" d="M700.69,393.88c15.56,8.16,30.82,16.86,46,25.68h-1c7.47-4.4,15-8.79,22.51-13.08S783.32,398,791,393.88c-7.26,4.77-14.61,9.39-22,13.94-7.55,4.66-15.16,9.22-22.79,13.76l-.51-.29c-15.15-8.88-30.24-17.89-45-27.41Z"/><polygon class="cls-9" points="747.2 420.42 746.2 470.85 745.2 420.42 747.2 420.42 747.2 420.42"/><polygon class="cls-13" points="670.57 183.15 625.78 209.7 580.27 183.15 625.78 156.62 670.57 183.15"/><polygon class="cls-14" points="670.73 183.25 670.73 233.69 625.78 260.32 625.78 209.7 670.57 183.15 670.73 183.25"/><polygon class="cls-13" points="625.78 209.7 625.78 260.32 580.25 233.77 580.25 183.17 580.27 183.15 625.78 209.7"/><polygon class="cls-13" points="608.88 219.31 564.09 245.85 518.58 219.31 564.09 192.77 608.88 219.31"/><polygon class="cls-14" points="609.04 219.41 609.04 269.84 564.09 296.48 564.09 245.85 608.88 219.31 609.04 219.41"/><polygon class="cls-13" points="564.09 245.85 564.09 296.48 518.55 269.93 518.55 219.32 518.58 219.31 564.09 245.85"/><polygon class="cls-13" points="790.99 324.54 746.2 351.08 700.69 324.54 746.2 298.01 790.99 324.54"/><polygon class="cls-14" points="791.15 324.64 791.15 375.08 746.2 401.71 746.2 351.08 790.99 324.54 791.15 324.64"/><polygon class="cls-13" points="746.2 351.08 746.2 401.71 700.66 375.16 700.66 324.56 700.69 324.54 746.2 351.08"/><polygon class="cls-13" points="547.54 324.54 502.75 351.08 457.24 324.54 502.75 298.01 547.54 324.54"/><polygon class="cls-14" points="547.7 324.64 547.7 375.08 502.75 401.71 502.75 351.08 547.54 324.54 547.7 324.64"/><polygon class="cls-13" points="502.75 351.08 502.75 401.71 457.22 375.16 457.22 324.56 457.24 324.54 502.75 351.08"/><polygon class="cls-13" points="670 327.79 625.21 354.33 579.7 327.79 625.21 301.26 670 327.79"/><polygon class="cls-14" points="670.16 327.89 670.16 378.32 625.21 404.96 625.21 354.33 670 327.79 670.16 327.89"/><polygon class="cls-13" points="625.21 354.33 625.21 404.96 579.68 378.41 579.68 327.81 579.7 327.79 625.21 354.33"/><polygon class="cls-13" points="730.78 429.88 685.99 456.42 640.48 429.88 685.99 403.35 730.78 429.88"/><polygon class="cls-14" points="730.94 429.98 730.94 480.42 685.99 507.05 685.99 456.42 730.78 429.88 730.94 429.98"/><polygon class="cls-13" points="685.99 456.42 685.99 507.05 640.46 480.5 640.46 429.9 640.48 429.88 685.99 456.42"/><polygon class="cls-13" points="608.88 429.88 564.09 456.42 518.58 429.88 564.09 403.35 608.88 429.88"/><polygon class="cls-14" points="609.04 429.98 609.04 480.42 564.09 507.05 564.09 456.42 608.88 429.88 609.04 429.98"/><polygon class="cls-13" points="564.09 456.42 564.09 507.05 518.55 480.5 518.55 429.9 518.58 429.88 564.09 456.42"/><polygon class="cls-13" points="730.78 360.87 685.99 387.41 640.48 360.87 685.99 334.34 730.78 360.87"/><polygon class="cls-14" points="730.94 360.97 730.94 411.41 685.99 438.04 685.99 387.41 730.78 360.87 730.94 360.97"/><polygon class="cls-13" points="685.99 387.41 685.99 438.04 640.46 411.49 640.46 360.89 640.48 360.87 685.99 387.41"/><polygon class="cls-13" points="608.88 360.87 564.09 387.41 518.58 360.87 564.09 334.34 608.88 360.87"/><polygon class="cls-14" points="609.04 360.97 609.04 411.41 564.09 438.04 564.09 387.41 608.88 360.87 609.04 360.97"/><polygon class="cls-13" points="564.09 387.41 564.09 438.04 518.55 411.49 518.55 360.89 518.58 360.87 564.09 387.41"/><polygon class="cls-13" points="547.54 255.41 502.75 281.95 457.24 255.41 502.75 228.88 547.54 255.41"/><polygon class="cls-14" points="547.7 255.51 547.7 305.94 502.75 332.58 502.75 281.95 547.54 255.41 547.7 255.51"/><polygon class="cls-13" points="502.75 281.95 502.75 332.58 457.22 306.03 457.22 255.43 457.24 255.41 502.75 281.95"/><path class="cls-9" d="M457.24,255.41c15.56,8.16,30.83,16.86,46,25.68h-1c7.48-4.41,15-8.79,22.51-13.08s15.12-8.52,22.79-12.6q-10.89,7.14-22,13.94c-7.55,4.66-15.16,9.22-22.78,13.76l-.51-.3c-15.16-8.87-30.24-17.88-45-27.4Z"/><polygon class="cls-9" points="503.75 281.95 502.75 332.37 501.75 281.95 503.75 281.95 503.75 281.95"/><path class="cls-9" d="M457.24,324.64c15.56,8.16,30.83,16.86,46,25.68h-1c7.48-4.41,15-8.8,22.51-13.08s15.12-8.53,22.79-12.61c-7.26,4.77-14.61,9.39-22,13.94-7.55,4.67-15.16,9.23-22.78,13.77l-.51-.3c-15.16-8.88-30.24-17.88-45-27.41Z"/><polygon class="cls-9" points="503.75 351.19 502.75 401.61 501.75 351.19 503.75 351.19 503.75 351.19"/><path class="cls-9" d="M518.58,219.31c15.56,8.16,30.82,16.85,46,25.67h-1c7.47-4.41,15-8.8,22.51-13.08s15.12-8.52,22.79-12.6c-7.26,4.76-14.61,9.38-22,13.94-7.55,4.66-15.16,9.22-22.79,13.76l-.5-.3c-15.16-8.88-30.25-17.88-45-27.4Z"/><polygon class="cls-9" points="565.09 245.85 564.09 296.27 563.09 245.85 565.09 245.85 565.09 245.85"/><path class="cls-9" d="M580.28,183.15c15.55,8.16,30.82,16.86,46,25.68h-1c7.48-4.41,15-8.8,22.51-13.08s15.12-8.53,22.79-12.61c-7.26,4.77-14.61,9.39-22,13.94-7.55,4.67-15.16,9.23-22.78,13.77l-.51-.3c-15.16-8.88-30.24-17.88-45-27.41Z"/><polygon class="cls-9" points="626.78 209.7 625.78 260.12 624.78 209.7 626.78 209.7 626.78 209.7"/><path class="cls-9" d="M640.48,361c15.56,8.16,30.83,16.86,46,25.68h-1c7.48-4.4,15-8.79,22.51-13.08s15.12-8.52,22.79-12.6c-7.26,4.77-14.61,9.39-22,13.94-7.55,4.67-15.16,9.22-22.79,13.76l-.5-.29c-15.16-8.88-30.25-17.88-45-27.41Z"/><polygon class="cls-9" points="686.99 387.51 685.99 437.94 684.99 387.51 686.99 387.51 686.99 387.51"/><path class="cls-9" d="M640.48,429.78c15.56,8.16,30.83,16.86,46,25.68h-1c7.48-4.41,15-8.79,22.51-13.08s15.12-8.52,22.79-12.6q-10.89,7.14-22,13.94c-7.55,4.66-15.16,9.22-22.79,13.76l-.5-.3c-15.16-8.87-30.25-17.88-45-27.4Z"/><polygon class="cls-9" points="686.99 456.32 685.99 506.74 684.99 456.32 686.99 456.32 686.99 456.32"/><path class="cls-9" d="M518.58,361c15.56,8.16,30.82,16.86,46,25.68h-1c7.47-4.4,15-8.79,22.51-13.08s15.12-8.52,22.79-12.6c-7.26,4.77-14.61,9.39-22,13.94-7.55,4.67-15.16,9.22-22.79,13.76l-.5-.29c-15.16-8.88-30.25-17.88-45-27.41Z"/><polygon class="cls-9" points="565.09 387.51 564.09 437.94 563.09 387.51 565.09 387.51 565.09 387.51"/><path class="cls-9" d="M518.58,429.78c15.56,8.16,30.82,16.86,46,25.68h-1c7.47-4.41,15-8.79,22.51-13.08s15.12-8.52,22.79-12.6q-10.89,7.14-22,13.94c-7.55,4.66-15.16,9.22-22.79,13.76l-.5-.3c-15.16-8.87-30.25-17.88-45-27.4Z"/><polygon class="cls-9" points="565.09 456.32 564.09 506.74 563.09 456.32 565.09 456.32 565.09 456.32"/><path class="cls-9" d="M700.69,324.64c15.56,8.16,30.82,16.86,46,25.68h-1c7.47-4.41,15-8.8,22.51-13.08s15.12-8.53,22.79-12.61c-7.26,4.77-14.61,9.39-22,13.94-7.55,4.67-15.16,9.23-22.79,13.77l-.51-.3c-15.15-8.88-30.24-17.88-45-27.41Z"/><polygon class="cls-9" points="747.2 351.19 746.2 401.61 745.2 351.19 747.2 351.19 747.2 351.19"/><path class="cls-9" d="M580.28,327.79c15.55,8.16,30.82,16.86,46,25.68h-1c7.48-4.41,15-8.79,22.51-13.08s15.12-8.52,22.79-12.6q-10.89,7.14-22,13.94c-7.55,4.66-15.16,9.22-22.78,13.76l-.51-.3c-15.16-8.87-30.24-17.88-45-27.4Z"/><polygon class="cls-9" points="626.78 354.33 625.78 404.75 624.78 354.33 626.78 354.33 626.78 354.33"/><polygon class="cls-13" points="670.57 465.91 625.78 492.45 580.27 465.91 625.78 439.38 670.57 465.91"/><polygon class="cls-14" points="670.73 466.01 670.73 516.45 625.78 543.08 625.78 492.45 670.57 465.91 670.73 466.01"/><polygon class="cls-13" points="625.78 492.45 625.78 543.08 580.25 516.53 580.25 465.93 580.27 465.91 625.78 492.45"/><polygon class="cls-13" points="670.57 396.95 625.78 423.49 580.27 396.95 625.78 370.42 670.57 396.95"/><polygon class="cls-14" points="670.73 397.05 670.73 447.49 625.78 474.12 625.78 423.49 670.57 396.95 670.73 397.05"/><polygon class="cls-13" points="625.78 423.49 625.78 474.12 580.25 447.57 580.25 396.97 580.27 396.95 625.78 423.49"/><path class="cls-9" d="M580.28,397.05c15.55,8.16,30.82,16.86,46,25.68h-1c7.48-4.41,15-8.8,22.51-13.08s15.12-8.53,22.79-12.61c-7.26,4.77-14.61,9.39-22,13.94-7.55,4.67-15.16,9.23-22.78,13.77l-.51-.3c-15.16-8.88-30.24-17.88-45-27.41Z"/><polygon class="cls-9" points="626.78 423.6 625.78 474.02 624.78 423.6 626.78 423.6 626.78 423.6"/><path class="cls-9" d="M580.28,466c15.55,8.16,30.82,16.86,46,25.68h-1c7.48-4.41,15-8.8,22.51-13.08s15.12-8.53,22.79-12.61c-7.26,4.77-14.61,9.39-22,13.94-7.55,4.67-15.16,9.23-22.78,13.77l-.51-.3c-15.16-8.88-30.24-17.88-45-27.41Z"/><polygon class="cls-9" points="626.78 492.56 625.78 542.98 624.78 492.56 626.78 492.56 626.78 492.56"/><polygon class="cls-13" points="608.81 292.31 564.02 318.85 518.51 292.31 564.02 265.78 608.81 292.31"/><polygon class="cls-14" points="608.97 292.41 608.97 342.85 564.02 369.48 564.02 318.85 608.81 292.31 608.97 292.41"/><polygon class="cls-13" points="564.02 318.85 564.02 369.48 518.49 342.93 518.49 292.33 518.51 292.31 564.02 318.85"/><path class="cls-9" d="M518.51,292.31c15.56,8.16,30.83,16.86,46,25.68h-1c7.48-4.41,15-8.79,22.51-13.08s15.12-8.52,22.79-12.6q-10.89,7.14-22,13.94c-7.55,4.66-15.16,9.22-22.79,13.76l-.5-.3c-15.16-8.87-30.24-17.88-45-27.4Z"/><polygon class="cls-9" points="565.02 318.85 564.02 369.27 563.02 318.85 565.02 318.85 565.02 318.85"/><polygon class="cls-13" points="670.5 329.92 625.71 356.46 580.21 329.92 625.71 303.39 670.5 329.92"/><polygon class="cls-14" points="670.66 330.02 670.66 380.46 625.71 407.09 625.71 356.46 670.5 329.92 670.66 330.02"/><polygon class="cls-13" points="625.71 356.46 625.71 407.09 580.18 380.54 580.18 329.94 580.21 329.92 625.71 356.46"/><path class="cls-9" d="M580.21,329.92c15.55,8.16,30.82,16.86,46,25.68h-1c7.48-4.4,15-8.79,22.51-13.08s15.13-8.52,22.79-12.6c-7.26,4.77-14.6,9.39-22,13.94s-15.16,9.22-22.78,13.76l-.51-.29c-15.16-8.88-30.24-17.88-45-27.41Z"/><polygon class="cls-9" points="626.71 356.46 625.71 406.89 624.71 356.46 626.71 356.46 626.71 356.46"/></g></g><polygon class="cls-17" points="439.68 391.4 394.89 417.94 349.38 391.4 394.89 364.86 439.68 391.4"/><polygon class="cls-18" points="439.84 391.5 439.84 441.93 394.89 468.57 394.89 417.94 439.68 391.4 439.84 391.5"/><polygon class="cls-17" points="394.89 417.94 394.89 468.57 349.36 442.01 349.36 391.42 349.38 391.4 394.89 417.94"/><path class="cls-19" d="M349.38,391.5c15.56,8.16,30.83,16.86,46,25.68h-1c7.48-4.41,15-8.79,22.51-13.08s15.12-8.52,22.79-12.6q-10.89,7.14-22,13.94c-7.55,4.66-15.16,9.22-22.79,13.76l-.5-.3c-15.16-8.87-30.25-17.88-45-27.4Z"/><polygon class="cls-19" points="395.89 418.04 394.89 468.46 393.89 418.04 395.89 418.04 395.89 418.04"/><polygon class="cls-17" points="499.89 425.66 455.1 452.2 409.59 425.66 455.1 399.13 499.89 425.66"/><polygon class="cls-18" points="500.05 425.76 500.05 476.2 455.1 502.83 455.1 452.2 499.89 425.66 500.05 425.76"/><polygon class="cls-17" points="455.1 452.2 455.1 502.83 409.56 476.28 409.56 425.68 409.59 425.66 455.1 452.2"/><path class="cls-19" d="M409.59,425.78c15.56,8.16,30.82,16.86,46,25.68h-1c7.47-4.4,15-8.79,22.51-13.08s15.12-8.52,22.79-12.6c-7.26,4.77-14.61,9.39-22,13.94-7.55,4.67-15.16,9.22-22.79,13.76l-.5-.29c-15.16-8.88-30.25-17.88-45-27.41Z"/><polygon class="cls-19" points="456.1 452.32 455.1 502.75 454.1 452.32 456.1 452.32 456.1 452.32"/><polygon class="cls-19" points="377.99 425.66 333.2 452.2 287.69 425.66 333.2 399.13 377.99 425.66"/><polygon class="cls-18" points="378.15 425.76 378.15 476.2 333.2 502.83 333.2 452.2 377.99 425.66 378.15 425.76"/><polygon class="cls-17" points="333.2 452.2 333.2 502.83 287.66 476.28 287.66 425.68 287.69 425.66 333.2 452.2"/><path class="cls-9" d="M287.69,425.77c15.56,8.15,30.82,16.85,46,25.67h-1c7.47-4.41,15-8.8,22.51-13.08s15.12-8.52,22.79-12.6c-7.26,4.76-14.61,9.38-22,13.94-7.55,4.66-15.16,9.22-22.79,13.76l-.51-.3c-15.15-8.88-30.24-17.88-45-27.4Z"/><polygon class="cls-9" points="334.2 452.31 333.2 502.73 332.2 452.31 334.2 452.31 334.2 452.31"/><polygon class="cls-17" points="316.65 531.01 271.86 557.55 226.35 531.01 271.86 504.48 316.65 531.01"/><polygon class="cls-18" points="316.81 531.11 316.81 581.55 271.86 608.18 271.86 557.55 316.65 531.01 316.81 531.11"/><polygon class="cls-17" points="271.86 557.55 271.86 608.18 226.33 581.63 226.33 531.03 226.35 531.01 271.86 557.55"/><path class="cls-19" d="M226.35,531c15.56,8.16,30.83,16.86,46,25.68h-1c7.48-4.4,15-8.79,22.51-13.08S309,535.12,316.65,531c-7.26,4.77-14.61,9.39-22,13.94-7.55,4.67-15.16,9.23-22.79,13.77l-.5-.3c-15.16-8.88-30.25-17.88-45-27.41Z"/><polygon class="cls-19" points="272.86 557.59 271.86 608.01 270.86 557.59 272.86 557.59 272.86 557.59"/><polygon class="cls-17" points="560.1 531.01 515.31 557.55 469.8 531.01 515.31 504.48 560.1 531.01"/><polygon class="cls-18" points="560.26 531.11 560.26 581.55 515.31 608.18 515.31 557.55 560.1 531.01 560.26 531.11"/><polygon class="cls-17" points="515.31 557.55 515.31 608.18 469.77 581.63 469.77 531.03 469.8 531.01 515.31 557.55"/><path class="cls-19" d="M469.8,531c15.56,8.16,30.82,16.86,46,25.68h-1c7.47-4.4,15-8.79,22.5-13.08s15.13-8.52,22.8-12.6c-7.26,4.77-14.61,9.39-22,13.94-7.55,4.67-15.17,9.23-22.79,13.77l-.51-.3c-15.15-8.88-30.24-17.88-45-27.41Z"/><polygon class="cls-19" points="516.31 557.59 515.31 608.01 514.31 557.59 516.31 557.59 516.31 557.59"/><polygon class="cls-19" points="439.68 320.32 394.89 346.86 349.38 320.32 394.89 293.78 439.68 320.32"/><polygon class="cls-18" points="439.84 320.42 439.84 370.85 394.89 397.49 394.89 346.86 439.68 320.32 439.84 320.42"/><polygon class="cls-17" points="394.89 346.86 394.89 397.49 349.36 370.94 349.36 320.33 349.38 320.32 394.89 346.86"/><polygon class="cls-17" points="499.89 356.47 455.1 383.01 409.59 356.47 455.1 329.94 499.89 356.47"/><polygon class="cls-18" points="500.05 356.57 500.05 407 455.1 433.64 455.1 383.01 499.89 356.47 500.05 356.57"/><polygon class="cls-17" points="455.1 383.01 455.1 433.64 409.56 407.09 409.56 356.49 409.59 356.47 455.1 383.01"/><polygon class="cls-17" points="377.99 356.47 333.2 383.01 287.69 356.47 333.2 329.94 377.99 356.47"/><polygon class="cls-18" points="378.15 356.57 378.15 407 333.2 433.64 333.2 383.01 377.99 356.47 378.15 356.57"/><polygon class="cls-17" points="333.2 383.01 333.2 433.64 287.66 407.09 287.66 356.49 287.69 356.47 333.2 383.01"/><polygon class="cls-17" points="560.1 461.7 515.31 488.25 469.8 461.7 515.31 435.17 560.1 461.7"/><polygon class="cls-18" points="560.26 461.81 560.26 512.24 515.31 538.87 515.31 488.25 560.1 461.7 560.26 461.81"/><polygon class="cls-17" points="515.31 488.25 515.31 538.87 469.77 512.32 469.77 461.72 469.8 461.7 515.31 488.25"/><polygon class="cls-17" points="316.65 461.7 271.86 488.25 226.35 461.7 271.86 435.17 316.65 461.7"/><polygon class="cls-18" points="316.81 461.81 316.81 512.24 271.86 538.87 271.86 488.25 316.65 461.7 316.81 461.81"/><polygon class="cls-17" points="271.86 488.25 271.86 538.87 226.33 512.32 226.33 461.72 226.35 461.7 271.86 488.25"/><polygon class="cls-17" points="439.11 464.95 394.32 491.49 348.81 464.95 394.32 438.42 439.11 464.95"/><polygon class="cls-18" points="439.27 465.05 439.27 515.49 394.32 542.12 394.32 491.49 439.11 464.95 439.27 465.05"/><polygon class="cls-17" points="394.32 491.49 394.32 542.12 348.79 515.57 348.79 464.97 348.81 464.95 394.32 491.49"/><polygon class="cls-17" points="499.89 567.04 455.1 593.58 409.59 567.04 455.1 540.51 499.89 567.04"/><polygon class="cls-18" points="500.05 567.14 500.05 617.58 455.1 644.21 455.1 593.58 499.89 567.04 500.05 567.14"/><polygon class="cls-17" points="455.1 593.58 455.1 644.21 409.56 617.66 409.56 567.06 409.59 567.04 455.1 593.58"/><polygon class="cls-19" points="377.99 567.04 333.2 593.58 287.69 567.04 333.2 540.51 377.99 567.04"/><polygon class="cls-18" points="378.15 567.14 378.15 617.58 333.2 644.21 333.2 593.58 377.99 567.04 378.15 567.14"/><polygon class="cls-17" points="333.2 593.58 333.2 644.21 287.66 617.66 287.66 567.06 287.69 567.04 333.2 593.58"/><polygon class="cls-19" points="499.89 498.03 455.1 524.57 409.59 498.03 455.1 471.5 499.89 498.03"/><polygon class="cls-18" points="500.05 498.13 500.05 548.57 455.1 575.2 455.1 524.57 499.89 498.03 500.05 498.13"/><polygon class="cls-17" points="455.1 524.57 455.1 575.2 409.56 548.65 409.56 498.05 409.59 498.03 455.1 524.57"/><polygon class="cls-17" points="377.99 498.03 333.2 524.57 287.69 498.03 333.2 471.5 377.99 498.03"/><polygon class="cls-18" points="378.15 498.13 378.15 548.57 333.2 575.2 333.2 524.57 377.99 498.03 378.15 498.13"/><polygon class="cls-17" points="333.2 524.57 333.2 575.2 287.66 548.65 287.66 498.05 287.69 498.03 333.2 524.57"/><polygon class="cls-19" points="560.1 392.57 515.31 419.11 469.8 392.57 515.31 366.04 560.1 392.57"/><polygon class="cls-18" points="560.26 392.67 560.26 443.11 515.31 469.74 515.31 419.11 560.1 392.57 560.26 392.67"/><polygon class="cls-17" points="515.31 419.11 515.31 469.74 469.77 443.19 469.77 392.59 469.8 392.57 515.31 419.11"/><polygon class="cls-19" points="316.65 392.57 271.86 419.11 226.35 392.57 271.86 366.04 316.65 392.57"/><polygon class="cls-18" points="316.81 392.67 316.81 443.11 271.86 469.74 271.86 419.11 316.65 392.57 316.81 392.67"/><polygon class="cls-17" points="271.86 419.11 271.86 469.74 226.33 443.19 226.33 392.59 226.35 392.57 271.86 419.11"/><path class="cls-9" d="M226.35,392.57c15.56,8.16,30.83,16.86,46,25.68h-1c7.48-4.4,15-8.79,22.51-13.08s15.12-8.52,22.79-12.6c-7.26,4.77-14.61,9.39-22,13.94-7.55,4.66-15.16,9.22-22.79,13.76l-.5-.29c-15.16-8.88-30.25-17.89-45-27.41Z"/><polygon class="cls-9" points="272.86 419.11 271.86 469.54 270.86 419.11 272.86 419.11 272.86 419.11"/><path class="cls-19" d="M226.35,461.81c15.56,8.16,30.83,16.85,46,25.68h-1c7.48-4.41,15-8.8,22.51-13.08s15.12-8.52,22.79-12.6q-10.89,7.14-22,13.94c-7.55,4.66-15.16,9.22-22.79,13.76l-.5-.3c-15.16-8.87-30.25-17.88-45-27.4Z"/><polygon class="cls-19" points="272.86 488.35 271.86 538.77 270.86 488.35 272.86 488.35 272.86 488.35"/><path class="cls-19" d="M287.69,356.47c15.56,8.16,30.82,16.86,46,25.68h-1c7.47-4.41,15-8.79,22.51-13.08s15.12-8.52,22.79-12.6q-10.89,7.14-22,13.94c-7.55,4.66-15.16,9.22-22.79,13.76l-.51-.3c-15.15-8.87-30.24-17.88-45-27.4Z"/><polygon class="cls-19" points="334.2 383.01 333.2 433.43 332.2 383.01 334.2 383.01 334.2 383.01"/><path class="cls-9" d="M349.38,320.32c15.56,8.16,30.83,16.85,46,25.67h-1c7.48-4.41,15-8.8,22.51-13.08s15.12-8.52,22.79-12.6c-7.26,4.76-14.61,9.38-22,13.94-7.55,4.66-15.16,9.22-22.79,13.76l-.5-.3c-15.16-8.88-30.25-17.88-45-27.4Z"/><polygon class="cls-9" points="395.89 346.86 394.89 397.28 393.89 346.86 395.89 346.86 395.89 346.86"/><path class="cls-19" d="M409.59,356.47c15.56,8.16,30.82,16.86,46,25.68h-1c7.47-4.41,15-8.79,22.51-13.08s15.12-8.52,22.79-12.6q-10.89,7.14-22,13.94c-7.55,4.66-15.16,9.22-22.79,13.76l-.5-.3c-15.16-8.87-30.25-17.88-45-27.4Z"/><polygon class="cls-19" points="456.1 383.01 455.1 433.43 454.1 383.01 456.1 383.01 456.1 383.01"/><path class="cls-9" d="M409.59,498.13c15.56,8.16,30.82,16.86,46,25.68h-1c7.47-4.41,15-8.8,22.51-13.08s15.12-8.53,22.79-12.61c-7.26,4.77-14.61,9.39-22,13.94-7.55,4.67-15.16,9.23-22.79,13.77l-.5-.3c-15.16-8.88-30.25-17.88-45-27.41Z"/><polygon class="cls-9" points="456.1 524.67 455.1 575.1 454.1 524.67 456.1 524.67 456.1 524.67"/><path class="cls-19" d="M409.59,566.94c15.56,8.16,30.82,16.86,46,25.68h-1c7.47-4.4,15-8.79,22.51-13.08s15.12-8.52,22.79-12.6c-7.26,4.77-14.61,9.39-22,13.94-7.55,4.66-15.16,9.22-22.79,13.76l-.5-.29c-15.16-8.88-30.25-17.89-45-27.41Z"/><polygon class="cls-19" points="456.1 593.48 455.1 643.91 454.1 593.48 456.1 593.48 456.1 593.48"/><path class="cls-19" d="M287.69,498.13c15.56,8.16,30.82,16.86,46,25.68h-1c7.47-4.41,15-8.8,22.51-13.08s15.12-8.53,22.79-12.61c-7.26,4.77-14.61,9.39-22,13.94-7.55,4.67-15.16,9.23-22.79,13.77l-.51-.3c-15.15-8.88-30.24-17.88-45-27.41Z"/><polygon class="cls-19" points="334.2 524.67 333.2 575.1 332.2 524.67 334.2 524.67 334.2 524.67"/><path class="cls-19" d="M287.69,566.94c15.56,8.16,30.82,16.86,46,25.68h-1c7.47-4.4,15-8.79,22.51-13.08S370.32,571,378,566.94c-7.26,4.77-14.61,9.39-22,13.94-7.55,4.66-15.16,9.22-22.79,13.76l-.51-.29c-15.15-8.88-30.24-17.89-45-27.41Z"/><polygon class="cls-19" points="334.2 593.48 333.2 643.91 332.2 593.48 334.2 593.48 334.2 593.48"/><path class="cls-9" d="M469.8,392.57c15.56,8.16,30.82,16.86,46,25.68h-1c7.47-4.4,15-8.79,22.5-13.08s15.13-8.52,22.8-12.6c-7.26,4.77-14.61,9.39-22,13.94-7.55,4.66-15.17,9.22-22.79,13.76l-.51-.29c-15.15-8.88-30.24-17.89-45-27.41Z"/><polygon class="cls-9" points="516.31 419.11 515.31 469.54 514.31 419.11 516.31 419.11 516.31 419.11"/><path class="cls-19" d="M469.8,461.81c15.56,8.16,30.82,16.85,46,25.68h-1c7.47-4.41,15-8.8,22.5-13.08s15.13-8.52,22.8-12.6q-10.89,7.14-22,13.94c-7.55,4.66-15.17,9.22-22.79,13.76l-.51-.3c-15.15-8.87-30.24-17.88-45-27.4Z"/><polygon class="cls-19" points="516.31 488.35 515.31 538.77 514.31 488.35 516.31 488.35 516.31 488.35"/><path class="cls-19" d="M349.38,465c15.56,8.16,30.83,16.86,46,25.68h-1c7.48-4.4,15-8.79,22.51-13.08S432,469,439.68,465c-7.26,4.77-14.61,9.39-22,13.94-7.55,4.66-15.16,9.22-22.79,13.76l-.5-.29c-15.16-8.88-30.25-17.89-45-27.41Z"/><polygon class="cls-19" points="395.89 491.49 394.89 541.92 393.89 491.49 395.89 491.49 395.89 491.49"/><polygon class="cls-17" points="439.68 603.07 394.89 629.62 349.38 603.07 394.89 576.54 439.68 603.07"/><polygon class="cls-18" points="439.84 603.17 439.84 653.61 394.89 680.24 394.89 629.62 439.68 603.07 439.84 603.17"/><polygon class="cls-17" points="394.89 629.62 394.89 680.24 349.36 653.69 349.36 603.09 349.38 603.07 394.89 629.62"/><polygon class="cls-17" points="439.68 534.11 394.89 560.66 349.38 534.11 394.89 507.58 439.68 534.11"/><polygon class="cls-18" points="439.84 534.22 439.84 584.65 394.89 611.28 394.89 560.66 439.68 534.11 439.84 534.22"/><polygon class="cls-17" points="394.89 560.66 394.89 611.28 349.36 584.73 349.36 534.13 349.38 534.11 394.89 560.66"/><path class="cls-19" d="M349.38,534.22c15.56,8.16,30.83,16.85,46,25.67h-1c7.48-4.41,15-8.8,22.51-13.08s15.12-8.52,22.79-12.6q-10.89,7.14-22,13.94c-7.55,4.66-15.16,9.22-22.79,13.76l-.5-.3c-15.16-8.87-30.25-17.88-45-27.4Z"/><polygon class="cls-19" points="395.89 560.76 394.89 611.18 393.89 560.76 395.89 560.76 395.89 560.76"/><path class="cls-19" d="M349.38,603.18c15.56,8.15,30.83,16.85,46,25.67h-1c7.48-4.41,15-8.8,22.51-13.08s15.12-8.52,22.79-12.6c-7.26,4.76-14.61,9.38-22,13.94-7.55,4.66-15.16,9.22-22.79,13.76l-.5-.3c-15.16-8.88-30.25-17.88-45-27.4Z"/><polygon class="cls-19" points="395.89 629.72 394.89 680.14 393.89 629.72 395.89 629.72 395.89 629.72"/><path class="cls-20" d="M605.38,369.9l3.82-55.22s-36.24-.44-54.91-26.53c-27.31,8.11-77.84,34.22-92.18,41.76l75.2,5.2a8.25,8.25,0,1,1-.32,4.63l-75.2-5.2C475,344,521.41,376.8,547.34,388.6,569.42,365.34,605.38,369.9,605.38,369.9Z"/><path class="cls-21" d="M547.35,388.59C521.42,376.8,475,344,461.79,334.53l75.2,5.2a8.22,8.22,0,0,0,16.24-1.19l54.06,3.74-1.91,27.62S569.42,365.34,547.35,388.59Z"/><path class="cls-22" d="M787.28,354.73h0c.81-11.68-6.45-21.78-16.14-22.45l-162-11.2-2.93,42.46,162,11.2C777.89,375.41,786.48,366.41,787.28,354.73Z"/><path class="cls-23" d="M787.28,354.73h0c.81-11.68-6.45-21.78-16.14-22.45l-162-11.2-2.93,42.46,162,11.2C777.89,375.41,786.48,366.41,787.28,354.73Z"/><rect class="cls-20" x="593.24" y="333.98" width="46.8" height="17.88" rx="2.93" transform="translate(1001.3 -248.58) rotate(93.96)"/><rect class="cls-3" x="575.04" y="332.91" width="64.51" height="18.73" rx="3.52" transform="translate(990.66 -239.95) rotate(93.96)"/><rect class="cls-24" x="575.04" y="332.91" width="64.51" height="18.73" rx="3.52" transform="translate(990.66 -239.95) rotate(93.96)"/><circle class="cls-9" cx="457.64" cy="248.57" r="6.72"/><polygon class="cls-9" points="459.12 246.44 457.33 246.4 455.38 333.58 455.51 333.8 506.64 421.14 508.19 420.24 457.18 333.11 459.12 246.44"/><circle class="cls-9" cx="508.54" cy="419.87" r="6.72" transform="translate(-84.65 131.72) rotate(-13.64)"/><circle class="cls-9" cx="456.28" cy="333.34" r="8.82"/><rect class="cls-25" x="604.43" y="317.23" width="7.89" height="18.73" transform="translate(976.17 -257.79) rotate(93.96)"/><rect class="cls-25" x="606.01" y="328.08" width="3.24" height="18.73" transform="matrix(0.07, -1, 1, 0.07, 229.07, 920.35)"/></g></g></svg>