<svg width="417" height="480" viewBox="0 0 417 480" fill="none" xmlns="http://www.w3.org/2000/svg">
<path d="M219.009 0.399995C245.207 0 271.206 0.199997 297.205 0C298.805 30.5996 309.805 61.7992 332.204 83.399C354.603 105.599 386.201 115.799 417 119.199V199.797C388.201 198.797 359.202 192.798 333.004 180.398C321.604 175.198 311.005 168.598 300.605 161.798C300.405 220.197 300.805 278.596 300.205 336.796C298.605 364.795 289.405 392.595 273.206 415.595C247.007 453.994 201.609 478.994 155.011 479.794C126.413 481.394 97.8138 473.594 73.4149 459.194C33.0166 435.394 4.61783 391.795 0.418016 344.996C0.0180331 334.996 -0.181958 324.996 0.218025 315.196C3.81787 277.197 22.6171 240.797 51.8158 215.997C85.0144 187.198 131.412 173.398 174.81 181.598C175.21 211.197 174.01 240.797 174.01 270.397C154.211 263.997 131.012 265.797 113.613 277.797C101.014 285.996 91.4141 298.596 86.4143 312.796C82.2145 322.996 83.4144 334.196 83.6144 344.996C88.4142 377.795 120.013 405.395 153.611 402.395C176.01 402.195 197.409 389.195 209.009 370.195C212.809 363.595 217.009 356.796 217.209 348.996C219.209 313.196 218.409 277.597 218.609 241.797C218.809 161.198 218.409 80.799 219.009 0.399995Z" fill="#696F8C"/>
</svg>
