<?xml version="1.0" encoding="UTF-8"?><svg id="Layer_1" xmlns="http://www.w3.org/2000/svg" xmlns:xlink="http://www.w3.org/1999/xlink" viewBox="0 0 578.31 565.32"><defs><style>.cls-1{fill:#101316;}.cls-2{fill:#181d21;}.cls-3{fill:#2a313d;}.cls-4{fill:#0472cf;}.cls-4,.cls-5,.cls-6,.cls-7,.cls-8,.cls-9{fill-rule:evenodd;}.cls-10{fill:#8adeff;}.cls-11{fill:#fff;}.cls-5{fill:#4a9cff;}.cls-12,.cls-6{fill:#fffdfc;}.cls-13{clip-path:url(#clippath-2);}.cls-7,.cls-14{fill:#2e8dff;}.cls-15{stroke-width:3px;}.cls-15,.cls-16{stroke:#a3e5ff;stroke-linecap:round;stroke-linejoin:round;}.cls-15,.cls-16,.cls-17{fill:none;}.cls-18{clip-path:url(#clippath-1);}.cls-19{clip-path:url(#clippath-4);}.cls-16{stroke-width:2px;}.cls-20{fill:#a3e5ff;}.cls-21{clip-path:url(#clippath);}.cls-8{fill:#004179;}.cls-22{clip-path:url(#clippath-3);}.cls-23{fill:#2b333f;}.cls-24{fill:#1769bc;}.cls-25{clip-path:url(#clippath-5);}.cls-9{fill:#ff9100;}.cls-26{fill:#373f51;}</style><clipPath id="clippath"><path class="cls-17" d="M86.45,99.36c-.42-21.51-18.07-40.42-40.42-40.42S6.02,77.88,5.6,99.36c-.43,22.24,17.68,42.18,40.63,42.07,22.78-.12,40.65-19.95,40.21-42.07Z"/></clipPath><clipPath id="clippath-1"><path class="cls-17" d="M120.1,208.66c-.61-16.04-13.75-30.95-30.95-30.95s-30.35,14.94-30.95,30.95c-.65,17.2,13.23,33.63,31.22,33.48,17.78-.15,31.33-16.44,30.68-33.48Z"/></clipPath><clipPath id="clippath-2"><path class="cls-17" d="M292.93,125.21c-.4-18.37-15.48-34.69-34.69-34.69s-34.29,16.29-34.69,34.69c-.42,18.99,14.89,36.16,34.48,36.27,19.76,.12,35.32-17.16,34.91-36.27Z"/></clipPath><clipPath id="clippath-3"><path class="cls-17" d="M188.46,67.9c-.31-10.03-8.52-19.14-19.14-19.14s-18.84,9.13-19.14,19.14c-.32,10.58,8.24,20.44,19.26,20.37,10.93-.07,19.34-9.86,19.02-20.37Z"/></clipPath><clipPath id="clippath-4"><path class="cls-17" d="M180.84,306.23c-.47-19.69-16.61-37.21-37.21-37.21s-36.75,17.57-37.21,37.21c-.48,20.53,16.23,39.21,37.49,39.06,21.04-.15,37.42-18.69,36.94-39.06Z"/></clipPath><clipPath id="clippath-5"><path class="cls-17" d="M279.91,248.1c-.39-14.42-12.2-27.35-27.35-27.35s-26.97,12.98-27.35,27.35c-.4,15.16,12,29.07,27.71,28.87,15.43-.2,27.4-13.91,27-28.87Z"/></clipPath></defs><path class="cls-24" d="M149.98,121.65v-48.16c0-14.14,11.46-25.6,25.6-25.6h377.12c14.14,0,25.6,11.46,25.6,25.6v48.16H149.98Z"/><path class="cls-14" d="M150.66,94.61c-.45,2.98-.68,6.02-.68,9.13V485.35c0,13.84,11.22,25.05,25.05,25.05h380.39c12.63,0,22.88-10.24,22.88-22.88V103.74c0-3.1-.23-6.15-.68-9.13H150.66Z"/><path class="cls-2" d="M542.24,136.92V400.74c0,5.26-4.27,9.53-9.54,9.53H206.6c-5.27,0-9.54-4.27-9.54-9.53V136.92c0-5.26,4.27-9.53,9.54-9.53h326.1c5.27,0,9.54,4.27,9.54,9.53Z"/><rect class="cls-10" x="344.28" y="427.66" width="197.95" height="6.44" rx="3.22" ry="3.22"/><path class="cls-10" d="M535,457.85h-183.49c-3.99,0-7.23-1.41-7.23-3.15v-.15c0-1.74,3.24-3.15,7.23-3.15h183.49c3.99,0,7.23,1.41,7.23,3.15v.15c0,1.74-3.24,3.15-7.23,3.15Z"/><rect class="cls-10" x="344.28" y="475.17" width="115.45" height="6.44" rx="3.15" ry="3.15"/><path class="cls-11" d="M495.26,409.93v.34H217.99c3.63-3.34,7.92-6.04,12.48-8.49,7.98-4.27,15.85-8.66,24-12.54,7.88-3.76,16.05-7.02,24.14-10.41,7.59-3.18,15.27-6.19,22.82-9.5,1.3-.57,2.61-1.96,3.14-3.25,1.67-4.23,3.11-8.58,4.44-12.95,1-3.28,1.66-6.57,5.9-7.45,1.07-.23,2.38-2.07,2.55-3.3,.85-6.33,1.52-12.73,1.94-19.12,.11-1.34-.6-3.1-1.53-4.13-5.59-6.27-8.65-13.49-9.93-21.78-.65-4.14-2.96-8.01-4.17-12.09-1.61-5.49-2.93-11.05-4.18-16.63-.47-2.01-.2-4.18-.53-6.23-.49-3.01-.39-5.32,3.23-6.49,.98-.33,1.81-2.7,1.84-4.15,.19-8.9,.06-17.83,.11-26.73,.05-5.47,0-10.97,.39-16.42,.75-10.43,6.87-17.8,14.58-24.14,11.22-9.25,24.64-13.57,38.46-16.84,7.26-1.7,14.65-2.74,22.02-3.93,1.96-.31,4.02-.04,6.03-.04,.33,.5,.67,1,1,1.51-1.55,1.12-3.27,2.08-4.6,3.39-3.01,3-2.71,5.1,.5,7.82,6.66,5.64,13.33,11.27,19.81,17.11,5.69,5.14,7.91,11.84,7.92,19.38,.01,12.95,.03,25.93,.01,38.9-.01,2.66-.21,5.28,3.1,6.46,.69,.24,1.42,1.71,1.36,2.54-.56,6.64-1.27,13.26-1.97,19.89-.02,.27-.06,.56-.21,.76-5.96,8.7-6.73,19.37-11,28.74-.17,.32-.25,.76-.51,1.04-7.9,9.32-5.44,20.53-5.61,31.23-.02,1.07,.8,2.79,1.65,3.15,3.21,1.41,4.02,4.17,4.91,7.11,1.43,4.62,2.81,9.28,4.78,13.64,.75,1.64,2.92,2.99,4.72,3.69,24.34,9.35,48.41,19.21,71.63,31.13,4.62,2.37,8.64,5.32,12.05,8.78Z"/><g><g><g><path class="cls-23" d="M23.3,539.87l15.36,15.39,.08,.09c5.62,6.13,13.69,9.97,22.66,9.97h219.42c24.12,0,43.68-19.55,43.68-43.68V45.99c0-8.53-3.47-16.25-9.08-21.81l-.44-.43-15.21-15.21,.08,7.32c-1.96-.39-3.99-.6-6.07-.6H61.4c-8.42,0-16.04,3.38-21.59,8.86-2.51,2.49-4.6,5.4-6.14,8.62-1.91,4.01-2.99,8.5-2.99,13.24v488.61c0,1.22,.07,2.42,.21,3.61l-7.59,1.66Z"/><path class="cls-3" d="M15.42,30.72v488.61c0,16.97,13.75,30.72,30.72,30.72h232.37c6.17,0,11.9-1.82,16.71-4.94l7.49-6.87s0,0,0,0h-11.63c.1-.99,.14-1.99,.14-3V46.62c0-16.97-13.75-30.72-30.72-30.72H28.16c-3.4,0-6.68,.56-9.74,1.58-1.91,4.01-2.99,8.5-2.99,13.24Z"/><path class="cls-26" d="M15.42,30.72v488.61c0,16.97,13.75,30.72,30.72,30.72h232.37c6.17,0,11.9-1.82,16.71-4.94,2.87-1.86,5.41-4.17,7.49-6.87t0,0c4.08-5.2,6.51-11.77,6.51-18.9V30.72C309.24,13.75,295.48,0,278.52,0H46.14C37.73,0,30.1,3.38,24.55,8.86c-2.51,2.49-4.6,5.4-6.14,8.62-1.91,4.01-2.99,8.5-2.99,13.24Z"/><path class="cls-1" d="M48.61,8.54h229.76c11.92,0,21.59,9.67,21.59,21.59v487.32c0,13.02-10.57,23.58-23.58,23.58H48.28c-13.01,0-23.58-10.57-23.58-23.58V32.45c0-13.2,10.71-23.91,23.91-23.91Z" transform="translate(324.66 549.57) rotate(-180)"/><g><rect class="cls-20" x="219.1" y="31.98" width="1.93" height="2.18"/><rect class="cls-20" x="222.54" y="30.13" width="1.93" height="4.03"/><rect class="cls-20" x="225.97" y="27.77" width="1.93" height="6.4"/><rect class="cls-20" x="229.41" y="25.88" width="1.93" height="8.29"/><rect class="cls-20" x="232.85" y="24.24" width="1.93" height="9.92"/><rect class="cls-20" x="236.28" y="22.56" width="1.93" height="11.61"/></g><g><g><path class="cls-20" d="M259.91,29.4c-.25,0-.48-.14-.58-.38-.37-.87-.9-1.65-1.57-2.33-.67-.67-1.46-1.2-2.33-1.57-1.8-.76-3.89-.76-5.7,0-.87,.37-1.65,.9-2.33,1.57-.67,.67-1.2,1.46-1.57,2.33-.14,.32-.5,.47-.82,.33-.32-.14-.47-.5-.33-.82,.43-1.02,1.05-1.94,1.84-2.73,.79-.79,1.7-1.41,2.73-1.84,2.12-.9,4.56-.9,6.68,0,1.02,.43,1.94,1.05,2.73,1.84,.79,.79,1.41,1.7,1.84,2.73,.14,.32-.01,.69-.33,.82-.08,.03-.16,.05-.24,.05Z"/><path class="cls-20" d="M257.37,30.47c-.25,0-.48-.14-.58-.38-.23-.54-.56-1.03-.98-1.45-.42-.42-.91-.75-1.45-.98-1.13-.48-2.43-.48-3.56,0-.54,.23-1.03,.56-1.45,.98-.42,.42-.75,.91-.98,1.45-.14,.32-.5,.47-.82,.33-.32-.14-.47-.5-.33-.82,.29-.69,.71-1.32,1.25-1.85,.53-.53,1.16-.95,1.85-1.25,1.44-.61,3.1-.61,4.54,0,.69,.29,1.32,.71,1.85,1.25,.53,.53,.95,1.16,1.25,1.85,.14,.32-.01,.69-.33,.82-.08,.03-.16,.05-.24,.05Z"/><path class="cls-20" d="M250.39,31.56c-.08,0-.16-.02-.24-.05-.32-.14-.47-.5-.33-.82,.15-.36,.37-.68,.65-.96,.28-.28,.6-.49,.96-.64,.74-.31,1.6-.31,2.34,0,.36,.15,.68,.37,.96,.64,.28,.28,.49,.6,.65,.96,.14,.32-.01,.69-.33,.82-.32,.13-.69-.01-.82-.33-.09-.21-.21-.4-.38-.56-.16-.16-.35-.29-.56-.38-.43-.18-.93-.18-1.36,0-.21,.09-.4,.21-.56,.38-.16,.16-.29,.35-.38,.56-.1,.24-.33,.38-.58,.38Z"/></g><path class="cls-20" d="M253.55,32.57c0,.53-.43,.96-.96,.96s-.96-.43-.96-.96,.43-.96,.96-.96,.96,.43,.96,.96Z"/></g><polygon class="cls-20" points="286.82 27.33 284.82 27.33 284.82 25.25 266.21 25.25 266.21 33.16 284.82 33.16 284.82 30.84 286.82 30.84 286.82 27.33"/><rect class="cls-26" x="126.86" y="15.29" width="58.39" height="14.91" rx="7.45" ry="7.45" transform="translate(312.12 45.49) rotate(-180)"/><g><path class="cls-20" d="M39.81,32.71c.31,.03,.68,0,1.17-.05,.84-.12,1.64-.46,2.25-1.04,.71-.64,1.22-1.59,1.42-2.86h-.05c-.59,.73-1.45,1.16-2.53,1.16-1.93,0-3.17-1.45-3.17-3.29,0-2.03,1.47-3.82,3.67-3.82s3.55,1.79,3.55,4.53c0,2.36-.79,4.02-1.85,5.04-.83,.81-1.97,1.31-3.12,1.44-.53,.08-.99,.1-1.34,.08v-1.19Zm.53-6.18c0,1.34,.81,2.28,2.07,2.28,.98,0,1.74-.48,2.12-1.12,.08-.13,.13-.3,.13-.53,0-1.83-.68-3.24-2.2-3.24-1.24,0-2.12,1.09-2.12,2.61Z"/><path class="cls-20" d="M47.57,27.06c0-.61,.41-1.04,.99-1.04s.96,.43,.98,1.04c0,.58-.38,1.03-.99,1.03-.58,0-.98-.45-.98-1.03Zm0,5.84c0-.61,.41-1.04,.99-1.04s.96,.43,.98,1.04c0,.58-.38,1.03-.99,1.03-.58,0-.98-.45-.98-1.03Z"/><path class="cls-20" d="M58.02,28.25c0,3.65-1.36,5.67-3.74,5.67-2.1,0-3.52-1.97-3.55-5.52,0-3.6,1.55-5.59,3.74-5.59s3.55,2.02,3.55,5.44Zm-5.84,.17c0,2.79,.86,4.38,2.18,4.38,1.49,0,2.2-1.74,2.2-4.48s-.68-4.38-2.18-4.38c-1.27,0-2.2,1.55-2.2,4.48Z"/><path class="cls-20" d="M66.5,28.25c0,3.65-1.36,5.67-3.74,5.67-2.1,0-3.52-1.97-3.55-5.52,0-3.6,1.55-5.59,3.74-5.59s3.55,2.02,3.55,5.44Zm-5.84,.17c0,2.79,.86,4.38,2.18,4.38,1.49,0,2.2-1.74,2.2-4.48s-.68-4.38-2.18-4.38c-1.27,0-2.2,1.55-2.2,4.48Z"/></g><path class="cls-20" d="M192.74,516.53c-.54,0-1.08-.19-1.51-.58-2.38-2.12-6.58-6-8.06-8.14-.96-1.39-1.89-2.9-1.89-4.8,0-3.91,3.18-7.09,7.09-7.09,1.62,0,3.16,.54,4.41,1.54,1.32-1.05,2.99-1.61,4.69-1.54,3.44,.13,6.34,2.82,6.75,6.24h0c.21,1.77-.24,3.51-1.32,5.02-1.69,2.37-6.6,6.91-8.63,8.75-.43,.39-.98,.59-1.53,.59Zm-4.38-18.78c-2.91,0-5.27,2.36-5.27,5.27,0,1.38,.71,2.52,1.57,3.76,1.42,2.06,5.91,6.15,7.77,7.82,.17,.16,.44,.15,.61,0,1.99-1.8,6.78-6.22,8.37-8.45,.56-.79,1.2-2.08,1-3.74h0c-.31-2.55-2.46-4.54-5.02-4.64-1.5-.06-2.92,.5-3.97,1.58l-.65,.66-.65-.66c-1-1.02-2.33-1.58-3.76-1.58Z"/><path class="cls-20" d="M68.59,494.31l-8.98,8.99c-.4,.4-.63,.95-.63,1.51,0,2.09,0,7.32,0,9.65,0,.64,.52,1.15,1.15,1.15h6.38c.55,0,1-.45,1-1v-4.45c0-1.11,.89-2.01,2-2.02h0c1.13-.01,2.05,.89,2.05,2.02v4.45c0,.55,.45,1,1,1h6.38c.64,0,1.15-.52,1.15-1.15v-9.64c0-.57-.23-1.11-.63-1.52-2.13-2.14-8.98-9-8.98-9-.52-.52-1.37-.52-1.9,0Z"/><g><path class="cls-20" d="M130.12,514.11c-4.95,0-8.97-4.02-8.97-8.97s4.02-8.97,8.97-8.97,8.97,4.02,8.97,8.97-4.02,8.97-8.97,8.97Zm0-16.12c-3.94,0-7.15,3.21-7.15,7.15s3.21,7.15,7.15,7.15,7.15-3.21,7.15-7.15-3.21-7.15-7.15-7.15Z"/><rect class="cls-20" x="137.04" y="510.05" width="1.82" height="6.52" transform="translate(-322.56 247.89) rotate(-45)"/></g><g><path class="cls-20" d="M254.39,507.66c-3.32,0-6.01-2.7-6.01-6.01s2.7-6.01,6.01-6.01,6.01,2.7,6.01,6.01-2.7,6.01-6.01,6.01Zm0-10.21c-2.31,0-4.19,1.88-4.19,4.19s1.88,4.19,4.19,4.19,4.19-1.88,4.19-4.19-1.88-4.19-4.19-4.19Z"/><path class="cls-20" d="M262.97,515.91c-1.25-3.66-4.7-6.12-8.57-6.12s-7.32,2.46-8.57,6.12l-1.72-.59c1.5-4.4,5.64-7.35,10.29-7.35s8.79,2.95,10.29,7.35l-1.72,.59Z"/></g></g><rect class="cls-1" x="24.7" y="61.73" width="275.27" height="275.27"/><g><g><circle class="cls-1" cx="150.26" cy="349.88" r="2.8"/><circle class="cls-1" cx="163.09" cy="349.88" r="2.8"/><circle class="cls-1" cx="175.92" cy="349.88" r="2.8"/></g><path class="cls-20" d="M93.75,352.7c2.56,0,4.63,2.07,4.63,4.63v3.67c0,2.56-2.07,4.63-4.63,4.63h-6.98c-.76,3.82-3.67,5.09-6.06,5.47-.04,0-.08,0-.11,0-.56,0-.88-.68-.47-1.12,1.08-1.16,1.46-2.96,1.57-4.35-2.56,0-4.63-2.07-4.63-4.63v-3.67c0-2.56,2.07-4.63,4.63-4.63h12.05m0-2h-12.05c-3.65,0-6.63,2.97-6.63,6.63v3.67c0,2.84,1.8,5.27,4.32,6.21-.18,.6-.43,1.08-.73,1.4-.73,.78-.93,1.92-.51,2.89,.42,.97,1.38,1.6,2.43,1.6,.14,0,.29-.01,.43-.03,3.59-.57,6.11-2.48,7.25-5.44h5.48c3.65,0,6.63-2.97,6.63-6.63v-3.67c0-3.65-2.97-6.63-6.63-6.63h0Z"/><line class="cls-15" x1="43.07" y1="395.47" x2="112.89" y2="395.47"/><line class="cls-15" x1="43.07" y1="416.4" x2="160.29" y2="416.4"/><path class="cls-20" d="M51.72,372.91c-.6,0-1.21-.21-1.69-.65-2.66-2.37-7.36-6.7-9.01-9.1-1.07-1.55-2.11-3.24-2.11-5.36,0-4.37,3.55-7.92,7.92-7.92,1.82,0,3.53,.61,4.93,1.73,1.48-1.17,3.35-1.8,5.24-1.72,3.84,.15,7.09,3.15,7.55,6.98h0c.24,1.98-.27,3.92-1.48,5.61-1.89,2.65-7.38,7.72-9.65,9.78-.49,.44-1.1,.66-1.71,.66Zm-4.89-21c-3.25,0-5.89,2.64-5.89,5.89,0,1.54,.79,2.82,1.75,4.21,1.59,2.3,6.61,6.88,8.69,8.74,.19,.17,.49,.17,.68,0,2.22-2.01,7.58-6.96,9.36-9.45,.63-.89,1.34-2.33,1.11-4.18h0c-.34-2.85-2.76-5.08-5.61-5.19-1.68-.06-3.26,.56-4.44,1.77l-.73,.74-.73-.74c-1.12-1.14-2.61-1.77-4.2-1.77Z"/><polygon class="cls-16" points="286.82 351.87 286.82 371.93 278.19 364.56 269.56 371.93 269.56 351.87 286.82 351.87"/></g></g><g><g><path class="cls-4" d="M294.47,197.14v.15c0,.7,0,1.41-.03,2.12-.03,1.56-.08,3.13-.17,4.71-.05,1-.12,2-.2,3-.19,2.51-.46,5.03-.8,7.54-.26,1.96-.58,3.93-.95,5.89-.21,1.17-.44,2.33-.68,3.49-.54,2.56-1.17,5.11-1.87,7.65-1.71,6.2-3.9,12.35-6.59,18.36-1.81,4.07-3.85,8.1-6.11,12.05-.06,.1-.11,.19-.17,.29-.46,.79-.93,1.58-1.4,2.36-24.53,40.55-67.77,63.16-112.2,63.12h-.15c-.37,0-.75,0-1.12-.02h-.02c-21.76-.24-43.77-5.89-63.95-17.55-10.01-5.78-18.97-12.68-26.81-20.46-5.67-5.62-10.75-11.7-15.22-18.13-4.13-5.93-7.74-12.18-10.8-18.66-.37-.75-.71-1.52-1.06-2.28-7.63-16.95-11.62-35.41-11.61-54.07v-.15c0-.37,.02-.73,.02-1.09v-.04c.03-2.33,.1-4.66,.24-7,.96-14.76,4.43-29.54,10.6-43.68,.34-.79,.69-1.57,1.06-2.36,1.44-3.15,3.01-6.26,4.73-9.33,.3-.53,.6-1.06,.91-1.6,.33-.57,.66-1.13,.99-1.69,8.44-14.15,19.16-26.14,31.41-35.76,3.19-2.52,6.49-4.87,9.89-7.05,17.08-11.03,36.48-17.9,56.53-20.16,4.9-.55,9.83-.82,14.78-.82h.15c3.68,0,7.38,.17,11.06,.5,6.6,.57,13.19,1.65,19.72,3.26,9.15,2.25,18.18,5.52,26.93,9.86,2.48,1.23,4.94,2.55,7.38,3.95,24.47,14.13,42.66,34.96,53.57,58.84,.36,.79,.71,1.57,1.05,2.36,3.99,9.19,6.91,18.81,8.71,28.64,1.44,7.81,2.16,15.77,2.16,23.76Z"/><path class="cls-7" d="M50.13,131.46c28.74-49.79,92.41-66.85,142.2-38.1,49.79,28.75,66.85,92.41,38.1,142.2-28.75,49.79-92.41,66.85-142.2,38.1-49.79-28.75-66.85-92.41-38.1-142.2Z"/><path class="cls-5" d="M50.2,131.5c19.42-33.63,62.43-45.16,96.06-25.74,33.63,19.42,45.16,62.43,25.74,96.06-19.42,33.63-62.43,45.16-96.06,25.74-33.64-19.42-45.16-62.43-25.74-96.06Z"/><path class="cls-8" d="M243.97,193.08c-.09-5.03-.36-10.03-.81-14.98-.51-5.75-1.26-11.44-2.24-17.02-.16-.94-.33-1.88-.51-2.81-.64-3.39-1.37-6.74-2.18-10.04-.62-2.51-1.28-5-2-7.45-.34-1.18-.7-2.36-1.06-3.53-.54-1.72-1.11-3.42-1.69-5.11-.44-1.27-.9-2.52-1.37-3.77-.61-1.62-1.24-3.22-1.9-4.8-.56-1.36-1.14-2.7-1.74-4.02-.59-1.3-1.18-2.58-1.8-3.84-.82-1.7-1.67-3.37-2.55-4.99-4.36-8.11-9.4-15.44-15.08-21.76-.51-.59-1.05-1.16-1.58-1.73-.41-.44-.82-.87-1.25-1.29-.8-.82-1.62-1.61-2.44-2.39-2.46-2.31-4.97-4.39-7.51-6.24-7.64-5.56-15.59-9.01-23.58-10.49-2.55-.47-5.1-.75-7.66-.82,2.49,.08,4.99,.37,7.48,.88,7.95,1.59,15.85,5.34,23.43,11.4,2,1.6,3.97,3.35,5.92,5.27,.4,.39,.8,.8,1.2,1.2,.78,.8,1.55,1.63,2.31,2.48,.11,.12,.21,.23,.32,.35,4.98,5.58,9.46,12.01,13.41,19.1,.57,1.03,1.13,2.07,1.68,3.12,2.83,5.41,5.36,11.16,7.58,17.21,.04,.12,.09,.24,.13,.36,.23,.61,.45,1.23,.66,1.85,.19,.53,.37,1.06,.55,1.58,.57,1.68,1.13,3.38,1.66,5.1,2.5,8.14,4.49,16.69,5.95,25.5,.18,1.09,.35,2.2,.51,3.3,.1,.61,.18,1.22,.26,1.84,.43,3.06,.8,6.15,1.09,9.25,.13,1.35,.24,2.7,.35,4.06,.78,10.11,.88,20.4,.25,30.66-.06,1.04-.13,2.09-.21,3.12-.05,.57-.09,1.15-.14,1.72-.24,2.94-.55,5.88-.91,8.81-.08,.62-.15,1.23-.24,1.85-.53,4.01-1.18,8-1.96,11.96-1.4,7.22-3.19,14.33-5.38,21.25-.33,1.07-.68,2.12-1.04,3.18-.08,.23-.15,.46-.24,.69-.44,1.28-.89,2.55-1.35,3.79-1.25,3.41-2.59,6.67-3.99,9.81-.71,1.58-1.44,3.13-2.19,4.64-14.49,29.44-35.58,45.86-57.29,46.53,24.26-.68,47.79-19.19,63.02-52.25,.67-1.44,1.31-2.9,1.94-4.4,.79-1.85,1.54-3.75,2.28-5.7,.39-1.02,.77-2.06,1.14-3.11,.08-.22,.15-.44,.23-.66,.04-.12,.08-.23,.12-.34,.55-1.57,1.07-3.16,1.58-4.75,2.93-9.28,5.11-18.89,6.58-28.65,.09-.61,.18-1.22,.27-1.83,.42-3,.77-6.01,1.06-9.04,.1-1.02,.19-2.04,.28-3.06,.56-7,.77-14.01,.64-20.99Zm-139,88.37c-2.3-4.64-4.38-9.52-6.26-14.6-.46-1.25-.91-2.51-1.34-3.78-2.5-7.32-4.58-15.02-6.2-22.97-.16-.78-.32-1.56-.46-2.35-.26-1.3-.5-2.61-.71-3.93,0-.02-.01-.03-.01-.05-.95-5.54-1.69-11.17-2.2-16.88-.12-1.23-.21-2.47-.31-3.71-.43-5.9-.63-11.86-.59-17.84,.01-2.22,.06-4.44,.14-6.67,.03-.82,.06-1.65,.11-2.48,.35-7.43,1.08-14.85,2.2-22.18,.12-.82,.25-1.63,.39-2.45,.88-5.3,1.95-10.55,3.24-15.72,.19-.77,.39-1.54,.59-2.31,1.06-4.04,2.24-8.01,3.56-11.93,.02-.04,.03-.08,.05-.13,.08-.23,.15-.46,.24-.69,.17-.49,.33-.98,.51-1.46,.27-.79,.55-1.56,.84-2.33,1.85-5.03,3.87-9.76,6.06-14.21,1.32-2.7,2.7-5.3,4.13-7.78,.34-.59,.68-1.17,1.02-1.74,1.44-2.39,2.92-4.68,4.43-6.85,4.52-6.45,9.43-11.93,14.61-16.38,6.4-5.51,13.23-9.45,20.26-11.73,4.27-1.38,8.61-2.16,12.96-2.29-4.37,.12-8.71,.82-12.99,2.08-7.72,2.28-15.23,6.37-22.25,12.18-5.32,4.4-10.35,9.76-15,16.07-1.62,2.2-3.19,4.5-4.71,6.92-.36,.57-.72,1.15-1.07,1.74-1.18,1.96-2.34,3.99-3.46,6.09-2.83,5.32-5.44,11.08-7.77,17.27-.39,1.02-.77,2.06-1.14,3.11-.08,.22-.15,.43-.23,.65-.03,.06-.05,.14-.07,.2-.95,2.72-1.83,5.46-2.65,8.24-1.91,6.47-3.45,13.09-4.65,19.79-.15,.77-.28,1.54-.41,2.32-1.33,7.97-2.18,16.06-2.56,24.15-.04,.79-.07,1.57-.1,2.36-.03,.91-.06,1.81-.08,2.71-.13,5.69-.03,11.37,.29,17.01,.06,1.22,.14,2.43,.24,3.64,.5,6.72,1.31,13.36,2.44,19.86,.26,1.52,.53,3.03,.84,4.52,.05,.28,.1,.56,.17,.84,.15,.79,.32,1.57,.49,2.35,1.6,7.47,3.61,14.71,6.02,21.62,.44,1.26,.89,2.51,1.36,3.75,0,0,0,.01,0,.02,.21,.57,.43,1.15,.66,1.71,1.73,4.45,3.64,8.75,5.72,12.86,5.97,11.83,13.32,22.15,21.96,30.26,12.24,11.49,25.55,17.17,38.75,17.55-12.54-.41-25.19-6.07-36.83-17.55-7.89-7.79-14.67-17.61-20.23-28.86Z"/><path class="cls-8" d="M294.4,199.46c-.08,1.55-.25,3.11-.5,4.66-.56,3.53-1.55,7.06-2.98,10.56-.91,2.25-2.01,4.5-3.3,6.72-2.73,4.72-6.29,9.36-10.71,13.85-4.42,4.48-9.49,8.6-15.11,12.34-.66,.44-1.33,.88-2.01,1.32-7.36,4.68-15.6,8.73-24.47,12.13-.58,.23-1.16,.44-1.74,.66-.04,.02-.08,.03-.12,.04-1.25,.46-2.52,.91-3.79,1.35-4.47,1.53-9.08,2.9-13.81,4.1-.75,.19-1.51,.38-2.28,.57-5.52,1.33-11.17,2.45-16.94,3.33-1.24,.19-2.48,.37-3.73,.53-1.74,.24-3.5,.45-5.25,.64-.48,.05-.97,.1-1.44,.15-1.76,.18-3.53,.34-5.31,.48-27.68,2.18-56.78-.79-82.84-9.59-.23-.08-.46-.15-.69-.24-1.28-.44-2.54-.89-3.79-1.35-1.31-.48-2.6-.97-3.87-1.49-1.69-.67-3.34-1.36-4.96-2.07-.97-.42-1.92-.86-2.86-1.29-1.07-.5-2.12-1-3.15-1.52-.97-.48-1.93-.97-2.87-1.47-7.18-3.78-13.52-7.96-18.99-12.46-.28-.23-.57-.46-.84-.7-.33-.27-.65-.55-.97-.82-1.91-1.66-3.7-3.35-5.37-5.08-3.08-3.19-5.77-6.49-8.04-9.88-2.32-3.45-4.2-7-5.63-10.61-2.1-5.27-3.26-10.66-3.42-16.09,.16,5.73,1.32,11.42,3.42,16.97,.98,2.59,2.18,5.16,3.57,7.67,3.28,5.92,7.67,11.62,13.13,16.95,.41,.4,.81,.79,1.23,1.18,.57,.53,1.15,1.07,1.74,1.59,.11,.1,.23,.21,.34,.3,5.9,5.23,12.88,10.07,20.85,14.38,1.22,.66,2.46,1.31,3.73,1.94,1.16,.59,2.34,1.16,3.54,1.71,1.71,.81,3.47,1.59,5.26,2.34,1.8,.77,3.65,1.5,5.54,2.21,0,0,.01,0,.02,0,1.02,.39,2.05,.77,3.09,1.13,.22,.08,.43,.15,.65,.23,26.84,9.4,56.83,12.33,85.18,9.58,.58-.06,1.16-.12,1.74-.17,.84-.09,1.69-.19,2.53-.28,14.05-1.66,27.64-4.72,40.15-9.09,1.27-.44,2.52-.9,3.77-1.37,.5-.19,.99-.37,1.49-.57,.59-.23,1.17-.46,1.74-.7,9.49-3.82,18.27-8.43,26.02-13.79,.66-.46,1.31-.92,1.95-1.39,5.03-3.64,9.6-7.61,13.63-11.9,4.78-5.1,8.56-10.38,11.37-15.76,1.01-1.93,1.89-3.87,2.65-5.83,1.48-3.79,2.48-7.61,3.04-11.44,.23-1.56,.38-3.12,.46-4.67,.01-.34,.03-.69,.04-1.03-.01,.35-.03,.7-.05,1.04Zm-4.54-23.62c-4.98-11.3-13.96-21.94-26.55-31.04l-.08-.06c-.79-.57-1.58-1.13-2.4-1.69-.33-.23-.66-.44-.99-.67-7.98-5.32-17.25-10.05-27.75-14.01-.62-.24-1.26-.47-1.9-.7-.4-.15-.8-.3-1.21-.44-.17-.06-.35-.12-.53-.19-.05-.01-.08-.03-.13-.04-.26-.09-.51-.18-.77-.26-7.68-2.65-15.61-4.77-23.68-6.39-.59-.12-1.16-.23-1.74-.33-13.72-2.61-27.82-3.77-41.76-3.55-1.59,.02-3.17,.06-4.76,.12-19.96,.75-39.46,4.3-56.88,10.39-1.27,.44-2.52,.9-3.77,1.37-2.27,.86-4.51,1.76-6.7,2.7-10.04,4.33-19.19,9.57-27.1,15.67-.74,.57-1.47,1.15-2.19,1.74,0,0,0,0,0,0-.62,.5-1.22,1-1.82,1.51-2.49,2.14-4.84,4.38-7.02,6.7-3.71,3.95-6.82,8.01-9.33,12.15-1.8,2.94-3.29,5.92-4.48,8.93-1.47,3.66-2.5,7.35-3.1,11.05-.36,2.21-.57,4.42-.64,6.62,.07-2.18,.3-4.37,.7-6.56,.6-3.37,1.59-6.74,2.99-10.07,1.22-2.93,2.74-5.83,4.58-8.7,2.5-3.91,5.59-7.76,9.28-11.5,2.55-2.58,5.31-5.04,8.27-7.37,.62-.5,1.24-.98,1.87-1.45,.59-.44,1.19-.88,1.8-1.31,.81-.59,1.64-1.17,2.48-1.74,5.71-3.86,12-7.33,18.74-10.39,3.33-1.51,6.77-2.92,10.31-4.23,.06-.02,.11-.04,.17-.06,1.19-.44,2.4-.87,3.62-1.28,2-.69,4.02-1.34,6.08-1.95,15-4.53,31.37-7.32,48.14-8.22,4.11-.23,8.24-.33,12.38-.33,12.76,.02,25.62,1.13,38.16,3.41,.58,.1,1.16,.21,1.74,.32,8.39,1.59,16.62,3.71,24.58,6.37,.17,.06,.35,.12,.53,.17,.23,.08,.46,.15,.69,.24,.17,.05,.33,.11,.49,.17,.01,0,.03,0,.03,.01,1.11,.38,2.19,.77,3.27,1.17,8.32,3.07,15.85,6.61,22.56,10.52,.22,.13,.44,.26,.66,.39,.94,.55,1.86,1.11,2.77,1.69,.03,.02,.06,.04,.1,.06,14.3,9.02,24.45,19.81,29.99,31.36,3.04,6.32,4.71,12.86,4.9,19.46-.19-6.7-1.73-13.35-4.58-19.78Z"/><path class="cls-9" d="M54.98,147.81m15.99-23.41c5.45-6.95,11.68-13.28,18.54-18.83,.07-.06,.14-.12,.21-.18,.34-.27,.71-.4,1.14-.4h26.23c.23,0,.45-.08,.61-.25l8.4-8.4c.36-.35,.79-.53,1.29-.53h19.21c.85,0,1.56,.56,1.77,1.38,.47,1.91,1.46,3.66,2.85,5.05h0c2.02,2.03,4.74,3.16,7.6,3.16,2.36,0,4.63-.77,6.48-2.18,.4-.3,.77-.62,1.12-.98h.01c1.8-1.81,2.9-4.17,3.12-6.7,.02-.29,.03-.6,.03-.91,0-1.81-.45-3.58-1.33-5.17,0-.01-.01-.02-.01-.03-.38-.71-.25-1.55,.32-2.13l6.45-6.45c.41-.4,.92-.58,1.49-.52,5.11,.58,10.16,1.51,15.11,2.75,4.46,1.11,8.84,2.5,13.12,4.13,.31,.11,.6,.23,.91,.35,1.13,.44,2.25,.9,3.36,1.38,7.21,3.08,14.1,6.88,20.59,11.38,14.95,10.36,27.33,24.09,36.08,40.04,.32,.58,.31,1.23-.03,1.8-.05,.08-.1,.16-.16,.22-.34,.43-.84,.67-1.41,.67h-22.39c-.5,0-.93-.18-1.29-.53l-5.27-5.27-3.32-3.32-1.1-1.11c-.35-.36-.53-.79-.53-1.29v-14.39c0-.26-.11-.49-.31-.66-.03-.03-.06-.06-.1-.09l-5.69-5.69-3.79-3.78c-.18-.18-.4-.26-.6-.26h-8.36c-.21,0-.41,.08-.57,.22-.02,.01-.03,.03-.05,.04l-8.35,8.35c-.16,.16-.25,.38-.25,.62v12.63c0,.23,.09,.45,.25,.62l7.87,7.86c.35,.36,.53,.79,.53,1.29v2.06c0,.99-.82,1.81-1.82,1.81-2.86,0-5.58,1.14-7.6,3.16h0c-2.03,2.03-3.16,4.75-3.16,7.62s1.14,5.58,3.16,7.61c.71,.71,.71,1.86,0,2.56l-16.81,16.82c-.36,.35-.79,.53-1.29,.53h-10.01c-.23,0-.45,.09-.62,.25l-10.21,10.21c-.17,.17-.26,.38-.26,.62v7.67c0,.26,.12,.51,.32,.68,.04,.03,.06,.06,.1,.08l6.6,6.3,10.06,9.6c.17,.16,.38,.24,.6,.24h28.21c1,0,1.82,.82,1.82,1.82,0,2.87,1.13,5.58,3.16,7.6h0c2.03,2.03,4.74,3.17,7.6,3.17s5.58-1.14,7.6-3.16h.01c.67-.68,1.24-1.42,1.71-2.24,.5-.86,1.62-1.16,2.49-.66l3.46,2,2.34,1.36,3.45,1.99,3.47,2c.58,.33,.91,.9,.91,1.57v17.7c0,.66-.33,1.23-.9,1.57l-10.05,5.8-1.14,.66c-.27,.16-.44,.44-.44,.75v8.63c0,.5-.17,.92-.53,1.29l-3.24,3.24-5.48,5.48-8.51,8.5-17.54,17.54c-.17,.17-.26,.39-.26,.62v3.58c0,.81-.51,1.51-1.3,1.74-1.67,.51-3.36,.96-5.05,1.38-1.28,.32-2.56,.63-3.84,.9-.55,.12-1.08,0-1.53-.36-.44-.36-.68-.85-.68-1.42v-33.28c0-.92,.68-1.69,1.6-1.8,2.1-.25,4.06-1.12,5.67-2.48,.23-.19,.44-.39,.66-.6h.01c2.02-2.03,3.15-4.75,3.15-7.61s-1.13-5.58-3.15-7.6h-.01c-1.49-1.51-3.36-2.51-5.4-2.94-.72-.14-1.46-.22-2.21-.22-1.89,0-3.73,.49-5.36,1.44-.72,.42-1.61,.3-2.19-.29l-3.2-3.2c-.36-.34-.53-.79-.53-1.28v-24.95c0-.27-.11-.51-.31-.67-.03-.03-.06-.05-.1-.08l-7.38-7.15c-.17-.16-.38-.25-.6-.25h-10.83c-.51,0-.93-.18-1.29-.54l-7.67-7.67c-.62-.62-.71-1.56-.24-2.29,.13-.2,.25-.4,.36-.6,.91-1.6,1.39-3.42,1.39-5.27,0-2.86-1.14-5.58-3.16-7.6h-.01c-2.02-2.03-4.74-3.17-7.6-3.17-2.09,0-4.12,.6-5.87,1.75-.73,.47-1.67,.38-2.28-.24l-3.94-3.93-9.43-9.43c-.35-.36-.53-.79-.53-1.29v-26.18c0-.23-.09-.45-.26-.61l-3.18-3.17c-.55-.55-.69-1.34-.36-2.05,.65-1.42,.99-2.94,.99-4.49,0-2.86-1.14-5.58-3.16-7.6h-.01c-1.58-1.59-3.57-2.62-5.73-3-1.12-.16-3.61-.36-6.33,.87-1.58,.71-2.68,1.66-3.37,2.37-.08,.08-.16,.17-.24,.26-.6,.64-1.62,1.9-2.24,3.78-.63,1.92-.53,3.58-.41,4.46,.21,1.92,.92,3.73,2.07,5.27,.31,.43,.66,.82,1.03,1.2h0c2.03,2.03,4.74,3.16,7.6,3.16,2.57,0,5.02-.91,6.97-2.57,.72-.62,1.79-.57,2.46,.1l1.86,1.86c.35,.36,.53,.79,.53,1.29v26.17c0,.23,.09,.45,.26,.62l11.45,11.44,2.74,2.74c.61,.61,.71,1.53,.25,2.25-.31,.51-.58,1.03-.81,1.56-.56,1.32-.84,2.73-.84,4.17,0,2.86,1.12,5.57,3.15,7.6h0c2.03,2.03,4.75,3.16,7.6,3.16,2.04,0,4.02-.56,5.73-1.66,.73-.46,1.66-.36,2.26,.25l8.49,8.5c.17,.16,.38,.25,.62,.25h10.86c.5,0,.92,.18,1.27,.52l5.91,5.71c.36,.36,.55,.8,.55,1.31v24.94c0,.23,.09,.45,.25,.62l3.81,3.81c.07,.08,.14,.16,.2,.25,.44,.62,.45,1.45-.01,2.09-1.29,1.82-1.99,3.98-1.99,6.22,0,2.86,1.13,5.58,3.16,7.6h.01c.75,.77,1.61,1.4,2.54,1.9,.56,.3,1.14,.55,1.73,.74,.76,.25,1.25,.93,1.25,1.73v37.07c0,.05,0,.1,.02,.16,.08,.46,.53,.78,1,.69,2.41-.45,4.8-.97,7.18-1.56,2.3-.58,4.57-1.23,6.83-1.94,.05-.02,.1-.03,.16-.05,.4-.08,.69-.45,.69-.85v-4.43c0-.5,.18-.93,.53-1.29l13.28-13.28,2.43-2.42,6.13-6.14,5.73-5.72,7.19-7.2c.17-.16,.26-.38,.26-.62v-8.19c0-.67,.33-1.24,.91-1.58l11.02-6.36s.07-.04,.12-.06c.29-.14,.48-.45,.48-.78v-20.58c0-.06,0-.14,0-.21,0-.31-.17-.59-.43-.75l-5.4-3.12-3.48-2.01-1.92-1.11-4.3-2.48c-.62-.36-.96-1.01-.9-1.73,.03-.3,.04-.6,.04-.91,0-2.68-.99-5.23-2.77-7.2-.12-.14-.25-.27-.38-.4h-.01c-.67-.68-1.42-1.25-2.21-1.71-1.62-.95-3.47-1.45-5.38-1.45-2.86,0-5.58,1.12-7.6,3.16h0c-.88,.88-1.59,1.9-2.12,3.01-.31,.65-.93,1.03-1.64,1.03h-28.36c-.49,0-.91-.17-1.25-.5l-9.49-9.06-5.69-5.43c-.37-.35-.56-.8-.56-1.31v-5.42c0-.5,.18-.93,.53-1.29l8.64-8.63c.36-.36,.79-.54,1.29-.54h10.01c.23,0,.45-.08,.61-.25l18.45-18.44c.51-.52,1.22-.67,1.9-.43,1.17,.42,2.39,.62,3.63,.62,2.86,0,5.58-1.12,7.6-3.15h.01c2.02-2.04,3.16-4.75,3.16-7.61s-1.14-5.58-3.16-7.6h-.01c-.87-.88-1.88-1.6-3-2.13-.65-.31-1.03-.92-1.03-1.64v-4.38c0-.23-.09-.45-.26-.62l-7.87-7.86c-.36-.36-.53-.79-.53-1.29v-10.4c0-.5,.18-.93,.53-1.29l6.77-6.78c.34-.34,.75-.51,1.23-.53h6.19c.51,0,.93,.18,1.29,.53l6.76,6.76,1.27,1.27c.35,.36,.53,.79,.53,1.29v14.39c0,.23,.09,.45,.25,.62l7.51,7.51,3.77,3.76c.16,.17,.38,.26,.61,.26h27.73c.06,0,.13-.01,.2-.01,.1,0,.19-.01,.28-.05,.04-.01,.08-.03,.11-.05,.42-.21,.6-.73,.38-1.15-.19-.39-.39-.77-.59-1.16-8.93-17.38-22.06-32.34-38.13-43.48-6.69-4.63-13.79-8.54-21.21-11.69-1.05-.45-2.11-.88-3.17-1.29-1.05-.41-2.1-.81-3.16-1.18-3.17-1.14-6.39-2.14-9.66-2.99-5.81-1.53-11.75-2.62-17.78-3.26l-.11-.02c-.29-.05-.57,.04-.77,.25l-7.1,7.1c-.64,.64-1.64,.71-2.37,.18-1.86-1.38-4.08-2.12-6.4-2.12-1.63,0-3.21,.36-4.64,1.05-1.08,.52-2.09,1.23-2.96,2.1h0c-1.52,1.53-2.55,3.46-2.96,5.56-.17,.86-.91,1.47-1.78,1.47h-20.2c-.23,0-.45,.09-.62,.26l-2.96,2.97-5.43,5.43c-.36,.35-.79,.53-1.29,.53h-26.05c-.15,.01-.3,.05-.43,.12-.03,.02-.07,.05-.1,.07-.18,.14-10.06,10.08-19.8,19.88m97.61-25.35s0,0,0,0c-.33,.84-.79,1.64-1.37,2.35-.19,.23-.4,.47-.62,.69h0c-1.69,1.71-3.98,2.64-6.38,2.64s-4.68-.93-6.38-2.63h-.01c-1.69-1.71-2.64-4-2.64-6.4s.94-4.68,2.64-6.38h.01c.68-.69,1.46-1.25,2.29-1.67,1.26-.64,2.65-.97,4.08-.97,2.4,0,4.69,.93,6.38,2.63h0c.66,.66,1.2,1.4,1.61,2.21,.67,1.27,1.03,2.71,1.03,4.18,0,1.16-.22,2.29-.64,3.34Zm-59.24,47.83h-.01c-1.69,1.7-3.98,2.64-6.38,2.64s-4.69-.94-6.38-2.63h-.01c-.68-.69-1.24-1.47-1.66-2.3-.64-1.26-.97-2.66-.97-4.1,0-2.4,.94-4.69,2.64-6.38h.01c.56-.58,1.2-1.06,1.88-1.45,1.35-.78,2.9-1.19,4.49-1.19,2.4,0,4.69,.94,6.38,2.64h.01c1.7,1.7,2.64,3.99,2.64,6.39s-.93,4.69-2.64,6.38Zm36.57,59.29c-.28,.39-.6,.77-.95,1.11h0c-1.69,1.71-3.98,2.65-6.38,2.65s-4.68-.94-6.38-2.64h-.01c-1.69-1.71-2.64-3.99-2.64-6.39,0-.97,.15-1.92,.45-2.82,.43-1.33,1.18-2.55,2.19-3.56h.01c1.69-1.71,3.98-2.64,6.38-2.64s4.69,.93,6.38,2.63h0c1.7,1.71,2.64,4,2.64,6.4,0,1.9-.59,3.74-1.69,5.27Zm35.02,64.68h-.01c-1.69-1.71-2.63-3.99-2.63-6.39s.93-4.69,2.63-6.38h.01c.83-.84,1.8-1.48,2.85-1.93,1.07-.45,2.22-.69,3.41-.71,.04,0,.08,0,.12,0,2.4,0,4.69,.93,6.34,2.59l.06,.05c1.69,1.69,2.63,3.98,2.63,6.38s-.94,4.68-2.69,6.43c-1.29,1.27-2.89,2.1-4.64,2.42-.47,.09-.95,.14-1.44,.16-.08,0-.17,0-.25,0-2.4,0-4.68-.93-6.38-2.63Zm34.69-58.23h.01c1.7-1.71,3.99-2.64,6.38-2.64,1.46,0,2.88,.34,4.15,1.01,.71,.36,1.36,.81,1.95,1.36,.09,.08,.18,.17,.27,.26h.01c1.7,1.71,2.64,4,2.64,6.39s-.94,4.69-2.64,6.38h-.01c-1.69,1.71-3.98,2.64-6.38,2.64s-4.67-.94-6.38-2.62l-.02-.02c-.25-.25-.48-.52-.69-.79-1.25-1.58-1.93-3.55-1.93-5.6,0-2.39,.94-4.68,2.63-6.38Zm1.1-65.01h0c1.7,1.71,2.63,3.99,2.63,6.4s-.93,4.68-2.63,6.38h0c-1.7,1.71-3.99,2.65-6.38,2.65s-4.68-.94-6.38-2.64h0c-1.7-1.71-2.64-3.99-2.64-6.39s.93-4.69,2.64-6.38h0c1.7-1.71,3.99-2.64,6.38-2.64s4.68,.94,6.38,2.63Z"/></g><g><path class="cls-9" d="M158.84,98.9c2.34,0,4.25-1.91,4.25-4.25s-1.91-4.25-4.25-4.25-4.25,1.91-4.25,4.25,1.91,4.25,4.25,4.25Z"/><path class="cls-9" d="M101.59,143.68c2.34,0,4.25-1.91,4.25-4.25s-1.91-4.25-4.25-4.25-4.25,1.91-4.25,4.25,1.91,4.25,4.25,4.25Z"/><path class="cls-9" d="M208.97,157.19c2.34,0,4.25-1.91,4.25-4.25s-1.91-4.25-4.25-4.25-4.25,1.91-4.25,4.25,1.91,4.25,4.25,4.25Z"/><path class="cls-9" d="M220.65,222.19c2.34,0,4.25-1.91,4.25-4.25s-1.91-4.25-4.25-4.25-4.25,1.91-4.25,4.25,1.91,4.25,4.25,4.25Z"/><path class="cls-9" d="M185.95,267.64c2.34,0,4.25-1.91,4.25-4.25s-1.91-4.25-4.25-4.25-4.25,1.91-4.25,4.25,1.91,4.25,4.25,4.25Z"/><path class="cls-9" d="M137.22,204.39c2.34,0,4.25-1.91,4.25-4.25s-1.91-4.26-4.25-4.26-4.25,1.91-4.25,4.26,1.91,4.25,4.25,4.25Z"/></g><g><path class="cls-6" d="M8.61,72.46c-14.86,20.85-10,49.8,10.86,64.65,18.01,12.83,42.05,10.95,57.84-3.22l1.66,.16,18.58,1.78-7.75-16.98-.69-1.52c8.24-19.56,2.16-42.89-15.84-55.72-20.85-14.86-49.8-10-64.65,10.86Z"/><circle cx="46.02" cy="99.36" r="40.42"/><g class="cls-21"><path class="cls-12" d="M80.79,142.64H11.26c.88-5.77,0-16.68,9.68-23.08,2.7-1.79,6.03-2.4,8.99-3.73,.27-.09,.7-.26,1.18-.54,1.16-.69,1.4-1.2,2.53-2.05,.38-.29,.84-.56,1.3-.63,1.55-.25,2.24-.8,2.61-2.34,.48-2.02,.82-4.02,.4-6.12-.19-.92-.52-1.5-1.4-1.84-1.84-.72-3.66-1.52-5.48-2.29-1.36-.57-1.45-1.06-.95-2.47,1.57-4.44,2.73-8.96,3.12-13.72,.29-3.56,.05-7.23,1.34-10.66,.92-2.42,2.41-4.67,4.85-5.39,1.88-.55,3.49-1.8,5.47-2.07,.34-.02,.69-.07,1.05-.05,.03,0,.07,.01,.11,.02,4.68,.3,10.26,3.12,11.59,8.32,.08,.27,.1,.54,.17,.82h.11c.72,2.95,.65,6.02,.89,9.02,.38,4.75,1.55,9.27,3.12,13.72,.49,1.41,.4,1.89-.95,2.47-1.82,.77-3.64,1.57-5.48,2.29-.89,.34-1.22,.93-1.4,1.84-.43,2.1-.08,4.11,.4,6.12,.36,1.54,1.05,2.09,2.61,2.34,.46,.07,.92,.34,1.3,.63,.87,.66,1.57,1.62,2.53,2.05,3.35,1.52,6.99,2.45,10.19,4.27,9.68,5.5,8.8,17.31,9.68,23.08Z"/></g></g><g><path class="cls-6" d="M54.45,215.02c3.62,19.27,22.17,31.95,41.44,28.33,16.64-3.12,28.36-17.39,28.92-33.62l.97-.83,10.85-9.31-13.48-4.74-1.21-.42c-6.42-14.93-22.52-23.96-39.15-20.84-19.27,3.62-31.95,22.17-28.33,41.43Z"/><circle cx="89.15" cy="208.66" r="30.95"/><g class="cls-18"><path class="cls-12" d="M115.77,241.79H62.54c.67-4.41,0-12.77,7.41-17.67,2.07-1.37,4.62-1.84,6.88-2.85,.21-.07,.54-.2,.9-.42,.88-.53,1.07-.92,1.93-1.57,.29-.22,.65-.43,.99-.48,1.19-.19,1.71-.61,2-1.79,.37-1.54,.63-3.08,.31-4.68-.14-.7-.4-1.14-1.07-1.41-1.41-.55-2.81-1.16-4.2-1.76-1.04-.44-1.11-.81-.73-1.89,1.2-3.4,2.09-6.86,2.39-10.5,.22-2.73,.03-5.53,1.03-8.16,.7-1.85,1.85-3.57,3.72-4.12,1.44-.42,2.67-1.38,4.19-1.58,.26-.02,.53-.05,.8-.04,.03,0,.05,0,.09,.01,3.59,.23,7.86,2.39,8.87,6.37,.06,.21,.08,.42,.13,.63h.09c.55,2.26,.5,4.61,.68,6.91,.29,3.64,1.18,7.09,2.39,10.5,.38,1.08,.31,1.45-.73,1.89-1.4,.59-2.79,1.2-4.2,1.76-.68,.26-.94,.71-1.07,1.41-.33,1.61-.06,3.14,.31,4.68,.28,1.18,.81,1.6,2,1.79,.35,.05,.7,.26,.99,.48,.67,.51,1.2,1.24,1.93,1.57,2.56,1.17,5.35,1.88,7.8,3.27,7.41,4.21,6.74,13.26,7.41,17.67Z"/></g></g><g><path class="cls-6" d="M293.61,107.45c-9.81-19.54-33.6-27.42-53.14-17.61-16.87,8.47-25.05,27.37-20.65,44.95l-.78,1.19-8.76,13.32,15.91,.93,1.43,.08c11.47,14.03,31.51,18.75,48.39,10.28,19.54-9.81,27.42-33.6,17.61-53.14Z"/><g><circle cx="258.23" cy="125.21" r="34.69"/><g class="cls-13"><path class="cls-12" d="M286.47,147.38c-5.17-2.66-10.54-4.85-15.96-6.94-.4-.15-.89-.46-1.05-.82-.44-.97-.75-2.01-1.06-3.04-.2-.65-.38-1.27-1.09-1.58-.19-.08-.37-.46-.37-.7,.04-2.38-.51-4.88,1.25-6.96,.06-.06,.08-.16,.11-.23,.95-2.09,1.12-4.46,2.45-6.4,.03-.04,.04-.11,.05-.17,.16-1.48,.32-2.95,.44-4.43,.01-.18-.15-.51-.3-.56-.74-.26-.69-.85-.69-1.44,0-2.89,0-5.78,0-8.67,0-1.68-.5-3.17-1.76-4.32-1.44-1.3-2.93-2.56-4.41-3.81-.72-.61-.78-1.07-.11-1.74,.3-.29,.68-.51,1.02-.76-.07-.11-.15-.23-.22-.34-.45,0-.91-.06-1.34,0-1.64,.27-3.29,.5-4.91,.88-3.08,.73-6.07,1.69-8.57,3.75-1.72,1.41-3.08,3.05-3.25,5.38-.09,1.21-.08,2.44-.09,3.66-.01,1.98,.02,3.97-.02,5.95,0,.32-.19,.85-.41,.93-.81,.26-.83,.77-.72,1.44,.07,.46,.01,.94,.12,1.39,.28,1.24,.57,2.48,.93,3.71,.27,.91,.78,1.77,.93,2.69,.29,1.85,.97,3.46,2.21,4.85,.21,.23,.36,.62,.34,.92-.09,1.42-.24,2.85-.43,4.26-.04,.27-.33,.68-.57,.74-.95,.2-1.09,.93-1.31,1.66-.3,.97-.62,1.94-.99,2.88-.12,.29-.41,.6-.7,.73-1.68,.74-3.39,1.41-5.09,2.12-1.8,.76-3.62,1.48-5.38,2.32-1.81,.86-3.57,1.84-5.35,2.79-1.04,.56-2.02,1.18-2.84,1.95v11.7h61.84v-11.83c-.76-.77-1.66-1.43-2.68-1.96Z"/></g></g></g><g><path class="cls-6" d="M178.42,48.2c-11.01-4.92-23.93,.01-28.85,11.02-4.25,9.51-1.15,20.44,6.86,26.41l.08,.78,.91,8.75,7.12-5.16,.64-.46c9.8,1.99,20.01-2.99,24.26-12.5,4.92-11.01-.01-23.93-11.02-28.85Z"/><circle cx="169.32" cy="67.9" r="19.14"/><g class="cls-22"><path class="cls-12" d="M184.9,80.13c-2.85-1.47-5.81-2.68-8.8-3.83-.22-.09-.49-.25-.58-.45-.24-.54-.41-1.11-.59-1.68-.11-.36-.21-.7-.6-.87-.1-.04-.21-.26-.2-.39,.02-1.31-.28-2.69,.69-3.84,.03-.03,.04-.09,.06-.13,.52-1.15,.62-2.46,1.35-3.53,.02-.02,.02-.06,.03-.09,.09-.82,.17-1.63,.24-2.45,0-.1-.08-.28-.17-.31-.41-.15-.38-.47-.38-.79,0-1.59,0-3.19,0-4.78,0-.93-.27-1.75-.97-2.38-.8-.72-1.62-1.41-2.44-2.1-.4-.33-.43-.59-.06-.96,.16-.16,.37-.28,.57-.42-.04-.06-.08-.12-.12-.19-.25,0-.5-.03-.74,0-.91,.15-1.81,.27-2.71,.48-1.7,.4-3.35,.93-4.73,2.07-.95,.78-1.7,1.68-1.79,2.97-.05,.67-.04,1.35-.05,2.02,0,1.09,0,2.19-.01,3.29,0,.18-.11,.47-.23,.51-.45,.14-.46,.43-.4,.8,.04,.25,0,.52,.06,.77,.15,.69,.32,1.37,.51,2.04,.15,.5,.43,.98,.51,1.49,.16,1.02,.53,1.91,1.22,2.68,.11,.13,.2,.34,.19,.51-.05,.79-.13,1.57-.24,2.35-.02,.15-.18,.38-.31,.41-.52,.11-.6,.51-.73,.92-.16,.54-.34,1.07-.55,1.59-.07,.16-.23,.33-.39,.4-.93,.41-1.87,.78-2.81,1.17-.99,.42-2,.82-2.97,1.28-1,.48-1.97,1.02-2.95,1.54-.58,.31-1.11,.65-1.57,1.07v6.46h34.12v-6.53c-.42-.43-.91-.79-1.48-1.08Z"/></g></g><g><path class="cls-6" d="M112.76,337.09c-17.05-17.05-17.05-44.69,0-61.73,14.72-14.72,37.34-16.73,54.22-6.02l1.52-.41,16.98-4.55-4.55,16.98-.41,1.52c10.7,16.88,8.7,39.49-6.02,54.22-17.05,17.05-44.69,17.05-61.74,0Z"/><circle cx="143.63" cy="306.23" r="37.21"/><g class="cls-19"><path class="cls-12" d="M173.91,330.01c-5.55-2.85-11.3-5.21-17.12-7.44-.43-.17-.95-.49-1.13-.88-.47-1.04-.8-2.16-1.14-3.26-.21-.7-.41-1.36-1.17-1.7-.2-.09-.4-.5-.39-.75,.04-2.56-.55-5.24,1.34-7.46,.06-.07,.08-.17,.12-.25,1.02-2.24,1.2-4.79,2.63-6.87,.04-.05,.05-.12,.05-.18,.17-1.59,.34-3.17,.47-4.76,.01-.2-.16-.55-.33-.61-.79-.28-.74-.91-.74-1.54,0-3.1,0-6.2,0-9.3,0-1.8-.53-3.4-1.89-4.63-1.55-1.4-3.14-2.74-4.73-4.09-.77-.65-.84-1.15-.12-1.87,.32-.31,.73-.54,1.1-.81-.08-.12-.16-.24-.24-.36-.48,0-.97-.06-1.44,0-1.76,.29-3.53,.53-5.26,.94-3.3,.78-6.51,1.81-9.19,4.02-1.84,1.52-3.31,3.28-3.48,5.77-.09,1.3-.08,2.62-.09,3.92-.01,2.13,.02,4.26-.03,6.39,0,.35-.21,.92-.44,.99-.87,.28-.89,.83-.77,1.55,.08,.49,.01,1.01,.13,1.49,.3,1.33,.61,2.66,1,3.97,.29,.98,.84,1.9,1,2.89,.31,1.98,1.04,3.71,2.37,5.2,.22,.25,.39,.67,.36,.99-.1,1.53-.26,3.06-.46,4.57-.04,.29-.35,.73-.61,.79-1.01,.21-1.17,1-1.41,1.78-.32,1.04-.66,2.08-1.06,3.09-.13,.31-.44,.64-.75,.78-1.8,.79-3.64,1.51-5.45,2.27-1.93,.81-3.88,1.59-5.77,2.49-1.95,.93-3.83,1.98-5.73,3-1.12,.6-2.17,1.26-3.05,2.09v12.55h66.33v-12.69c-.81-.83-1.78-1.53-2.88-2.1Z"/></g></g><g><path class="cls-6" d="M275.01,270.76c-12.52,12.4-32.72,12.31-45.12-.21-10.71-10.81-12.1-27.35-4.22-39.64l-.29-1.11-3.27-12.42,12.39,3.38,1.11,.3c12.37-7.77,28.89-6.22,39.6,4.59,12.4,12.52,12.31,32.72-.21,45.12Z"/><circle cx="252.56" cy="248.1" r="27.35"/><g class="cls-25"><path class="cls-12" d="M276.08,277.38h-47.04c.59-3.9,0-11.28,6.55-15.62,1.83-1.21,4.08-1.62,6.08-2.52,.18-.06,.47-.17,.8-.37,.78-.47,.95-.81,1.71-1.39,.26-.19,.57-.38,.88-.43,1.05-.17,1.51-.54,1.77-1.58,.33-1.36,.56-2.72,.27-4.14-.13-.62-.35-1.01-.95-1.25-1.25-.49-2.48-1.03-3.71-1.55-.92-.39-.98-.71-.65-1.67,1.06-3.01,1.85-6.07,2.11-9.28,.19-2.41,.03-4.89,.91-7.21,.62-1.64,1.63-3.16,3.28-3.64,1.27-.37,2.36-1.22,3.7-1.4,.23-.01,.47-.05,.71-.04,.02,0,.05,0,.08,.01,3.17,.2,6.95,2.11,7.84,5.63,.05,.18,.07,.37,.12,.55h.08c.49,2,.44,4.07,.6,6.1,.26,3.21,1.05,6.27,2.11,9.28,.33,.95,.27,1.28-.65,1.67-1.23,.52-2.47,1.06-3.71,1.55-.6,.23-.83,.63-.95,1.25-.29,1.42-.06,2.78,.27,4.14,.24,1.04,.71,1.41,1.76,1.58,.31,.05,.62,.23,.88,.43,.59,.45,1.06,1.09,1.71,1.39,2.27,1.03,4.73,1.66,6.89,2.89,6.55,3.72,5.95,11.72,6.55,15.62Z"/></g></g></g></g></svg>