<svg xmlns="http://www.w3.org/2000/svg" xmlns:xlink="http://www.w3.org/1999/xlink" id="Layer_1" data-name="Layer 1" viewBox="0 0 512 512"><defs><style>.cls-1{fill:url(#linear-gradient);}.cls-2{fill:url(#linear-gradient-2);}.cls-3{fill:url(#linear-gradient-3);}</style><linearGradient id="linear-gradient" x1="76.32" y1="198.29" x2="320.03" y2="198.29" gradientUnits="userSpaceOnUse"><stop offset="0" stop-color="#2580e3"></stop><stop offset="0.04" stop-color="#2383e5"></stop><stop offset="0.41" stop-color="#10a0f3"></stop><stop offset="0.74" stop-color="#04b1fc"></stop><stop offset="0.98" stop-color="#00b7ff"></stop></linearGradient><linearGradient id="linear-gradient-2" x1="133.91" y1="255.88" x2="377.62" y2="255.88" xlink:href="#linear-gradient"></linearGradient><linearGradient id="linear-gradient-3" x1="191.5" y1="313.47" x2="435.21" y2="313.47" xlink:href="#linear-gradient"></linearGradient></defs><path class="cls-1" d="M318.81,124.14,169.07,273.89a19,19,0,0,1-13.36,5.54l-75.25.06a4.13,4.13,0,0,1-2.92-7.05L227.28,122.7a18.88,18.88,0,0,1,13.36-5.54l75.25-.06A4.12,4.12,0,0,1,318.81,124.14Z"></path><path class="cls-2" d="M376.4,181.73,226.66,331.48A19,19,0,0,1,213.3,337l-75.25.06a4.13,4.13,0,0,1-2.92-7.05L284.87,180.29a18.88,18.88,0,0,1,13.36-5.54l75.25-.06A4.12,4.12,0,0,1,376.4,181.73Z"></path><path class="cls-3" d="M434,239.32,284.25,389.07a19,19,0,0,1-13.36,5.54l-75.25.06a4.13,4.13,0,0,1-2.92-7.05L342.46,237.88a18.88,18.88,0,0,1,13.36-5.54l75.25-.06A4.12,4.12,0,0,1,434,239.32Z"></path></svg>