<svg width="110" height="124" viewBox="0 0 110 124" fill="none" xmlns="http://www.w3.org/2000/svg">
<g clip-path="url(#clip0_543_100)">
<path d="M74.2226 22.3699C74.5533 22.6013 74.8235 22.9106 75.0097 23.2712C75.1959 23.6317 75.2926 24.0327 75.2915 24.4395V25.5178C75.293 26.4791 75.671 27.4007 76.3428 28.0807C77.0146 28.7607 77.9254 29.1437 78.8759 29.1459H82.9906C83.9425 29.1452 84.8552 28.7624 85.5282 28.0816C86.2013 27.4009 86.5798 26.4778 86.5805 25.515V24.4367C86.5845 24.0227 86.6875 23.6159 86.8809 23.251C87.0744 22.8862 87.3524 22.5742 87.6911 22.3418C89.7689 20.8859 91.3321 18.7964 92.1525 16.3782C92.9729 13.9601 93.0075 11.34 92.2512 8.90061C91.4949 6.46118 89.9874 4.33017 87.9488 2.81875C85.9102 1.30733 83.4472 0.494665 80.9195 0.49941C78.3919 0.504155 75.9319 1.32606 73.8988 2.84513C71.8657 4.3642 70.3661 6.50085 69.6187 8.9431C68.8714 11.3853 68.9156 14.0053 69.7449 16.4203C70.5741 18.8354 72.145 20.919 74.2281 22.3671L74.2226 22.3699ZM80.936 3.31092C82.869 3.31425 84.7505 3.94148 86.3066 5.1013C87.8627 6.26113 89.0122 7.893 89.5877 9.75939C90.1633 11.6258 90.1348 13.6292 89.5066 15.4782C88.8783 17.3271 87.683 18.9249 86.0947 20.0391C85.389 20.5304 84.8114 21.1874 84.4116 21.9537C84.0117 22.72 83.8013 23.573 83.7985 24.4395V25.5178C83.7985 25.736 83.7128 25.9453 83.5603 26.0996C83.4077 26.2539 83.2008 26.3406 82.985 26.3406H78.8759C78.6606 26.3399 78.4544 26.2528 78.3025 26.0986C78.1505 25.9444 78.0652 25.7355 78.0652 25.5178V24.4395C78.0662 23.5774 77.86 22.7279 77.4644 21.9643C77.0687 21.2006 76.4955 20.5457 75.794 20.0559C74.1977 18.9462 72.9943 17.349 72.3597 15.4979C71.7252 13.6468 71.6928 11.639 72.2674 9.76798C72.8419 7.89696 73.9932 6.26093 75.5529 5.09914C77.1127 3.93734 78.999 3.31073 80.936 3.31092Z" fill="white"/>
<path d="M85.3978 31.3307C85.3978 31.1073 85.31 30.893 85.1538 30.735C84.9976 30.577 84.7857 30.4883 84.5648 30.4883H77.31C77.0891 30.4883 76.8772 30.577 76.721 30.735C76.5648 30.893 76.4771 31.1073 76.4771 31.3307C76.4771 31.5542 76.5648 31.7684 76.721 31.9264C76.8772 32.0844 77.0891 32.1732 77.31 32.1732H84.5648C84.7857 32.1732 84.9976 32.0844 85.1538 31.9264C85.31 31.7684 85.3978 31.5542 85.3978 31.3307Z" fill="white"/>
<path d="M78.754 33.4818C78.6968 33.4815 78.6402 33.4941 78.5884 33.5187C78.5366 33.5432 78.4909 33.5791 78.4545 33.6237C78.4181 33.6683 78.392 33.7205 78.378 33.7766C78.364 33.8327 78.3624 33.8912 78.3736 33.948C78.4899 34.5494 78.8092 35.0912 79.2769 35.4807C79.7447 35.8702 80.3318 36.0832 80.9376 36.0832C81.5435 36.0832 82.1305 35.8702 82.5983 35.4807C83.066 35.0912 83.3854 34.5494 83.5017 33.948C83.5123 33.8913 83.5104 33.833 83.4962 33.7771C83.482 33.7212 83.4558 33.6692 83.4195 33.6247C83.3832 33.5802 83.3377 33.5444 83.2862 33.5197C83.2346 33.495 83.1783 33.482 83.1213 33.4818H78.754Z" fill="white"/>
<path d="M39.5891 39.7468C43.1069 39.7468 46.5456 38.6917 49.4705 36.7151C52.3953 34.7384 54.675 31.9289 56.0212 28.6418C57.3673 25.3548 57.7196 21.7378 57.0333 18.2482C56.347 14.7587 54.6531 11.5534 52.1657 9.03755C49.6783 6.52174 46.5091 4.80845 43.059 4.11434C39.6089 3.42023 36.0327 3.77647 32.7828 5.13802C29.5328 6.49957 26.755 8.80526 24.8007 11.7635C22.8464 14.7218 21.8032 18.1998 21.8032 21.7577C21.8091 26.5269 23.6849 31.099 27.0191 34.4713C30.3533 37.8436 34.8738 39.7408 39.5891 39.7468ZM39.5891 6.57684C42.5577 6.57684 45.4596 7.46718 47.9279 9.13528C50.3962 10.8034 52.32 13.1743 53.4561 15.9482C54.5921 18.7222 54.8893 21.7746 54.3102 24.7194C53.731 27.6642 52.3015 30.3691 50.2024 32.4922C48.1033 34.6153 45.4289 36.0612 42.5173 36.6469C39.6058 37.2327 36.5879 36.932 33.8453 35.783C31.1026 34.634 28.7585 32.6883 27.1092 30.1918C25.46 27.6953 24.5797 24.7602 24.5797 21.7577C24.5841 17.7329 26.1668 13.8741 28.9807 11.0281C31.7946 8.18214 35.6097 6.5813 39.5891 6.57684Z" fill="white"/>
<path d="M109.997 48.6177C109.997 46.1381 107.887 44.1247 105.294 44.1247H55.2288C54.3075 44.1216 53.4043 44.3836 52.6245 44.8801C50.1753 44.2438 47.6569 43.9202 45.1281 43.9169H29.8577C20.8203 43.9169 13.1795 47.9297 7.75993 55.5173C2.76232 62.504 0.0219727 72.2427 0.0219727 82.939V94.2193C0.0219727 110.369 11.4776 123.508 25.5653 123.508H55.276C58.3551 123.508 61.0816 121.394 62.2171 118.254H107.126C107.868 118.269 108.586 117.985 109.121 117.464C109.656 116.944 109.965 116.23 109.98 115.48V54.2621L109.997 48.6177ZM105.294 46.9328C106.357 46.9328 107.221 47.691 107.221 48.6177V52.83H53.2992V48.6177C53.2992 47.6854 54.1654 46.9328 55.2427 46.9328H105.294ZM59.8572 116.527C59.3019 118.979 57.4083 120.695 55.2816 120.695H25.5375C12.9852 120.695 2.77066 108.813 2.77066 94.2137V82.9334C2.77066 72.824 5.33054 63.6666 9.98942 57.1573C14.8676 50.3279 21.731 46.7194 29.8382 46.7194H45.1087C46.9941 46.7216 48.8743 46.9192 50.7199 47.3091C50.5838 47.7317 50.5144 48.1733 50.5144 48.6177V54.234V106.533H45.7278V105.971C45.7278 102.442 43.1679 99.5717 40.0195 99.5717C39.834 99.5705 39.6486 99.5799 39.4642 99.5998C36.249 99.9396 36.3046 102.885 36.3434 105.036C36.3434 105.34 36.3434 105.651 36.3434 105.971V106.005L24.3881 102.057L24.3159 102.037C22.1475 101.442 20.5704 99.069 20.5704 96.3957V77.2721H17.794V96.3957C17.794 100.369 20.1734 103.792 23.5857 104.736L39.1338 109.872V105.969C39.1338 105.632 39.1338 105.303 39.1338 104.983C39.0866 102.456 39.2448 102.456 39.7696 102.388C39.8556 102.384 39.9418 102.384 40.0278 102.388C41.6437 102.388 42.9597 103.997 42.9597 105.98V109.35H55.276C57.7276 109.35 59.76 111.554 59.996 114.475C60.0126 114.673 60.021 114.86 60.021 115.036C60.0215 115.538 59.9666 116.038 59.8572 116.527ZM107.221 115.424C107.196 115.436 107.17 115.441 107.143 115.441H62.7919C62.7919 115.303 62.7919 115.16 62.7919 115.031C62.7919 114.778 62.7919 114.514 62.7585 114.236C62.4004 109.847 59.1797 106.533 55.2621 106.533H53.2798V55.6465H107.201L107.221 115.424Z" fill="white"/>
<path d="M63.5417 50.7687C63.7146 50.7551 63.8798 50.6907 64.0171 50.5834C64.1543 50.4762 64.2577 50.3308 64.3145 50.1651C64.3712 49.9993 64.3789 49.8204 64.3366 49.6503C64.2944 49.4802 64.2039 49.3262 64.0764 49.2073C63.9489 49.0884 63.7899 49.0097 63.6188 48.9809C63.4477 48.9521 63.272 48.9743 63.1133 49.045C62.9546 49.1156 62.8196 49.2316 62.7251 49.3787C62.6306 49.5257 62.5805 49.6975 62.5811 49.8729C62.5919 50.1202 62.6989 50.3532 62.8789 50.521C63.0589 50.6888 63.2971 50.7779 63.5417 50.7687Z" fill="white"/>
<path d="M58.9607 50.7687C59.1336 50.7551 59.2988 50.6907 59.436 50.5834C59.5733 50.4762 59.6766 50.3308 59.7334 50.1651C59.7902 49.9993 59.7979 49.8204 59.7556 49.6503C59.7133 49.4802 59.6229 49.3262 59.4954 49.2073C59.3679 49.0884 59.2088 49.0097 59.0377 48.9809C58.8667 48.9521 58.691 48.9743 58.5322 49.045C58.3735 49.1156 58.2386 49.2316 58.144 49.3787C58.0495 49.5257 57.9995 49.6975 58 49.8729C58.0101 50.1205 58.1169 50.3539 58.2971 50.5219C58.4772 50.6898 58.7159 50.7786 58.9607 50.7687Z" fill="white"/>
<path d="M67.9815 50.7687C68.1542 50.7545 68.3191 50.6897 68.456 50.5822C68.5929 50.4747 68.6958 50.3291 68.7521 50.1634C68.8085 49.9976 68.8158 49.8188 68.7733 49.6489C68.7307 49.479 68.6401 49.3253 68.5125 49.2067C68.3849 49.0881 68.2259 49.0096 68.0549 48.981C67.8839 48.9523 67.7084 48.9748 67.5498 49.0455C67.3912 49.1162 67.2565 49.2321 67.162 49.3791C67.0676 49.526 67.0176 49.6977 67.0181 49.8729C67.0231 49.9958 67.052 50.1164 67.1031 50.2279C67.1543 50.3395 67.2267 50.4397 67.3161 50.5229C67.4056 50.6061 67.5104 50.6707 67.6246 50.7128C67.7388 50.755 67.8601 50.774 67.9815 50.7687Z" fill="white"/>
<path d="M84.9842 62.4788H100.235C100.419 62.4788 100.596 62.4048 100.726 62.2732C100.856 62.1415 100.929 61.9629 100.929 61.7767C100.929 61.5906 100.856 61.412 100.726 61.2803C100.596 61.1487 100.419 61.0747 100.235 61.0747H84.9842C84.8001 61.0747 84.6235 61.1487 84.4933 61.2803C84.3632 61.412 84.29 61.5906 84.29 61.7767C84.29 61.9629 84.3632 62.1415 84.4933 62.2732C84.6235 62.4048 84.8001 62.4788 84.9842 62.4788Z" fill="white"/>
<path d="M84.9842 70.9875H100.235C100.419 70.9875 100.596 70.9135 100.726 70.7818C100.856 70.6502 100.929 70.4716 100.929 70.2854C100.929 70.0992 100.856 69.9207 100.726 69.789C100.596 69.6573 100.419 69.5834 100.235 69.5834H84.9842C84.8001 69.5834 84.6235 69.6573 84.4933 69.789C84.3632 69.9207 84.29 70.0992 84.29 70.2854C84.29 70.4716 84.3632 70.6502 84.4933 70.7818C84.6235 70.9135 84.8001 70.9875 84.9842 70.9875Z" fill="white"/>
<path d="M84.9842 80.2207H100.235C100.419 80.2207 100.596 80.1468 100.726 80.0151C100.856 79.8834 100.929 79.7049 100.929 79.5187C100.929 79.3325 100.856 79.1539 100.726 79.0223C100.596 78.8906 100.419 78.8167 100.235 78.8167H84.9842C84.8001 78.8167 84.6235 78.8906 84.4933 79.0223C84.3632 79.1539 84.29 79.3325 84.29 79.5187C84.29 79.7049 84.3632 79.8834 84.4933 80.0151C84.6235 80.1468 84.8001 80.2207 84.9842 80.2207Z" fill="white"/>
<path d="M60.2932 89.4483H100.23C100.414 89.4483 100.59 89.3743 100.72 89.2426C100.851 89.111 100.924 88.9324 100.924 88.7462C100.924 88.56 100.851 88.3815 100.72 88.2498C100.59 88.1182 100.414 88.0442 100.23 88.0442H60.2932C60.1091 88.0442 59.9326 88.1182 59.8024 88.2498C59.6723 88.3815 59.5991 88.56 59.5991 88.7462C59.5991 88.9324 59.6723 89.111 59.8024 89.2426C59.9326 89.3743 60.1091 89.4483 60.2932 89.4483Z" fill="white"/>
<path d="M60.2932 98.6787H100.23C100.414 98.6787 100.59 98.6048 100.72 98.4731C100.851 98.3415 100.924 98.1629 100.924 97.9767C100.924 97.7905 100.851 97.6119 100.72 97.4803C100.59 97.3486 100.414 97.2747 100.23 97.2747H60.2932C60.1091 97.2747 59.9326 97.3486 59.8024 97.4803C59.6723 97.6119 59.5991 97.7905 59.5991 97.9767C59.5991 98.1629 59.6723 98.3415 59.8024 98.4731C59.9326 98.6048 60.1091 98.6787 60.2932 98.6787Z" fill="white"/>
<path d="M100.23 106.505H64.5051C64.3211 106.505 64.1445 106.579 64.0143 106.711C63.8842 106.842 63.811 107.021 63.811 107.207C63.811 107.393 63.8842 107.572 64.0143 107.703C64.1445 107.835 64.3211 107.909 64.5051 107.909H100.23C100.414 107.909 100.59 107.835 100.72 107.703C100.851 107.572 100.924 107.393 100.924 107.207C100.924 107.021 100.851 106.842 100.72 106.711C100.59 106.579 100.414 106.505 100.23 106.505Z" fill="white"/>
<path d="M62.6393 81.4732H76.4244C77.232 81.4694 78.0052 81.1424 78.575 80.5635C79.1447 79.9846 79.4646 79.201 79.4646 78.3842V64.1524C79.4646 63.3356 79.1447 62.5521 78.575 61.9732C78.0052 61.3943 77.232 61.0672 76.4244 61.0635H62.6393C61.8317 61.0672 61.0585 61.3943 60.4887 61.9732C59.919 62.5521 59.5991 63.3356 59.5991 64.1524V78.3982C59.6028 79.2126 59.9242 79.9926 60.4936 80.5684C61.063 81.1443 61.8341 81.4695 62.6393 81.4732ZM60.9873 64.1524C60.9873 63.708 61.1609 63.2816 61.4703 62.966C61.7798 62.6504 62.1999 62.4713 62.6393 62.4676H76.4244C76.8638 62.4713 77.284 62.6504 77.5934 62.966C77.9028 63.2816 78.0764 63.708 78.0764 64.1524V78.3982C78.0764 78.8427 77.9028 79.2691 77.5934 79.5847C77.284 79.9003 76.8638 80.0794 76.4244 80.0831H62.6393C62.1999 80.0794 61.7798 79.9003 61.4703 79.5847C61.1609 79.2691 60.9873 78.8427 60.9873 78.3982V64.1524Z" fill="white"/>
</g>
<defs>
<clipPath id="clip0_543_100">
<rect width="110" height="123" fill="white" transform="translate(0 0.5)"/>
</clipPath>
</defs>
</svg>
