<svg width="114" height="113" viewBox="0 0 114 113" fill="none" xmlns="http://www.w3.org/2000/svg">
<g clip-path="url(#clip0_229_4835)">
<path d="M31.3766 8.5683C31.5518 8.55451 31.7191 8.49003 31.8581 8.38277C31.9971 8.27552 32.1017 8.13014 32.1592 7.96444C32.2166 7.79875 32.2243 7.61992 32.1815 7.44989C32.1386 7.27986 32.047 7.12601 31.9178 7.00717C31.7886 6.88833 31.6275 6.80967 31.4541 6.78083C31.2808 6.75199 31.1028 6.77422 30.942 6.8448C30.7811 6.91537 30.6444 7.03123 30.5486 7.17817C30.4527 7.32512 30.4019 7.49676 30.4023 7.67209C30.4129 7.91969 30.5214 8.15302 30.704 8.321C30.8866 8.48897 31.1284 8.5779 31.3766 8.5683Z" fill="white"/>
<path d="M26.7366 8.56834C26.9116 8.55406 27.0786 8.48919 27.2172 8.38167C27.3559 8.27415 27.4601 8.12863 27.5172 7.96293C27.5742 7.79723 27.5816 7.61852 27.5385 7.44867C27.4954 7.27883 27.4036 7.12522 27.2743 7.00663C27.1451 6.88803 26.984 6.80961 26.8107 6.78094C26.6375 6.75228 26.4597 6.77462 26.299 6.84523C26.1383 6.91584 26.0017 7.03167 25.9059 7.17853C25.8102 7.32539 25.7594 7.49692 25.7598 7.67213C25.7703 7.92019 25.8791 8.15392 26.0623 8.32196C26.2454 8.49001 26.488 8.57863 26.7366 8.56834Z" fill="white"/>
<path d="M35.887 8.56834C36.062 8.55406 36.229 8.48919 36.3676 8.38167C36.5063 8.27415 36.6105 8.12863 36.6676 7.96293C36.7246 7.79723 36.732 7.61852 36.6889 7.44867C36.6458 7.27883 36.554 7.12522 36.4247 7.00663C36.2955 6.88803 36.1344 6.80961 35.9611 6.78094C35.7879 6.75228 35.6101 6.77462 35.4494 6.84523C35.2887 6.91584 35.1521 7.03167 35.0563 7.17853C34.9605 7.32539 34.9098 7.49692 34.9102 7.67213C34.9207 7.92019 35.0295 8.15392 35.2127 8.32196C35.3958 8.49001 35.6384 8.57863 35.887 8.56834Z" fill="white"/>
<path d="M104.346 57.6316H102.616V7.0595C102.614 5.32043 101.921 3.65317 100.689 2.42346C99.4562 1.19375 97.7853 0.50201 96.0425 0.5H26.2187C24.4754 0.50134 22.8039 1.19278 21.571 2.42256C20.3381 3.65234 19.6445 5.31999 19.6425 7.0595V90.138H4.07984C3.48793 90.1374 2.90302 90.2654 2.36575 90.5133C1.82849 90.7611 1.35178 91.1228 0.968808 91.5731C0.585836 92.0235 0.305791 92.5517 0.14815 93.121C-0.00949168 93.6902 -0.0409494 94.287 0.0559813 94.8696C0.878322 99.7965 3.42587 104.272 7.24525 107.501C11.0646 110.729 15.908 112.501 20.9136 112.5H92.5057V112.401C96.867 111.938 99.7137 109.849 101.185 106.049C102.619 102.338 102.619 97.5076 102.616 91.9127V88.3988H104.346C106.904 88.3961 109.356 87.3821 111.166 85.579C112.976 83.7759 113.996 81.3305 114.003 78.7785V67.2671C114 64.7124 112.982 62.2632 111.171 60.4568C109.361 58.6504 106.907 57.6343 104.346 57.6316ZM26.2187 3.03165H96.0425C97.1126 3.03299 98.1386 3.45778 98.8953 4.21286C99.652 4.96794 100.078 5.99165 100.079 7.0595V10.857H22.1897V7.0595C22.1917 5.99317 22.6166 4.97099 23.3715 4.21627C24.1265 3.46155 25.15 3.03566 26.2187 3.03165ZM80.5128 109.968H20.9136C16.5048 109.986 12.2344 108.433 8.8702 105.59C5.50595 102.747 3.2685 98.7991 2.56011 94.457C2.52362 94.2367 2.53566 94.0112 2.5954 93.796C2.65514 93.5809 2.76115 93.3813 2.90603 93.2112C3.05092 93.0411 3.23121 92.9045 3.43436 92.811C3.63751 92.7174 3.85864 92.6692 4.08238 92.6696H67.0864C67.7124 92.6677 68.3185 92.8887 68.7957 93.293C69.2729 93.6972 69.5898 94.2581 69.6895 94.8747C70.4566 99.4526 72.7144 103.651 76.1135 106.819C76.3393 107.029 76.5702 107.237 76.8061 107.439C77.0421 107.642 77.3465 107.882 77.6205 108.097L77.8743 108.287C78.0696 108.434 78.265 108.576 78.4628 108.715L78.7724 108.925C78.9627 109.052 79.1529 109.178 79.3458 109.295L79.6654 109.492C79.8709 109.614 80.0815 109.733 80.2896 109.849L80.5128 109.968ZM100.087 91.9127C100.087 97.0317 100.087 101.867 98.8181 105.138C97.9479 107.386 96.2226 109.968 90.5496 109.968C86.1431 109.987 81.8742 108.437 78.5098 105.598C75.1454 102.758 72.9059 98.814 72.1937 94.4747C71.9969 93.2656 71.3746 92.1661 70.4386 91.3736C69.5025 90.581 68.314 90.1475 67.0864 90.1506H22.1796V71.5734V13.3785H100.069V57.6316H80.9543C78.3946 57.635 75.9407 58.6513 74.1309 60.4577C72.3211 62.264 71.3033 64.7129 71.3006 67.2671V78.7785C71.3066 81.3303 72.3261 83.7757 74.1355 85.5789C75.945 87.3821 78.397 88.3961 80.9543 88.3988H100.069L100.087 91.9127ZM111.466 78.7785C111.46 80.6593 110.707 82.4611 109.373 83.7896C108.039 85.1181 106.231 85.8651 104.346 85.8671H80.9644C79.082 85.8618 77.2782 85.1132 75.9471 83.785C74.6161 82.4568 73.8659 80.6569 73.8605 78.7785V67.2671C73.8625 65.3863 74.6111 63.5829 75.9425 62.2515C77.2739 60.9202 79.0796 60.1693 80.9644 60.1633H104.346C106.234 60.1653 108.044 60.9144 109.378 62.2462C110.713 63.578 111.464 65.3837 111.466 67.2671V78.7785Z" fill="white"/>
<path d="M64.0568 21.6368C64.0118 21.5826 63.9588 21.5356 63.8995 21.4976C63.6787 21.0635 63.3419 20.6987 62.9264 20.4436C62.511 20.1885 62.0329 20.053 61.545 20.052H30.2726C29.5716 20.0527 28.8996 20.3308 28.404 20.8254C27.9083 21.32 27.6296 21.9906 27.6289 22.69V46.9254C27.6288 47.2816 27.7014 47.6342 27.8423 47.9615C27.9832 48.2888 28.1894 48.5841 28.4484 48.8292C28.47 48.8929 28.5017 48.9528 28.5423 49.0064C28.5981 49.0824 28.6705 49.1447 28.754 49.1885C28.8375 49.2324 28.93 49.2567 29.0243 49.2596C29.4079 49.466 29.8368 49.5739 30.2726 49.5735H61.545C62.2459 49.5729 62.918 49.2947 63.4136 48.8001C63.9093 48.3056 64.188 47.635 64.1887 46.9355V22.69C64.1881 22.5406 64.1745 22.3915 64.1481 22.2444C64.1849 22.1436 64.1958 22.0351 64.1798 21.929C64.1639 21.8229 64.1216 21.7224 64.0568 21.6368ZM28.8975 22.69C28.8975 22.3261 29.0424 21.9771 29.3002 21.7197C29.5581 21.4624 29.9079 21.3178 30.2726 21.3178H61.545C61.7663 21.3181 61.9842 21.3716 62.1803 21.4738C62.3764 21.5761 62.5449 21.7241 62.6715 21.9052L29.1613 47.728C28.9938 47.493 28.905 47.2112 28.9076 46.9229L28.8975 22.69ZM61.545 48.2976H30.4984L62.9201 23.3128V46.9254C62.9201 47.2893 62.7752 47.6383 62.5174 47.8957C62.2595 48.153 61.9097 48.2976 61.545 48.2976Z" fill="white"/>
<path d="M73.9263 25.5278H94.8448C95.013 25.5278 95.1743 25.4611 95.2933 25.3424C95.4122 25.2237 95.479 25.0627 95.479 24.8949C95.479 24.727 95.4122 24.566 95.2933 24.4473C95.1743 24.3286 95.013 24.262 94.8448 24.262H73.9263C73.758 24.262 73.5967 24.3286 73.4778 24.4473C73.3588 24.566 73.292 24.727 73.292 24.8949C73.292 25.0627 73.3588 25.2237 73.4778 25.3424C73.5967 25.4611 73.758 25.5278 73.9263 25.5278Z" fill="white"/>
<path d="M76.1157 34.176C75.9475 34.176 75.7862 34.2427 75.6672 34.3614C75.5483 34.4801 75.4814 34.6411 75.4814 34.8089C75.4814 34.9768 75.5483 35.1378 75.6672 35.2565C75.7862 35.3752 75.9475 35.4418 76.1157 35.4418H92.6552C92.8234 35.4418 92.9847 35.3752 93.1036 35.2565C93.2226 35.1378 93.2894 34.9768 93.2894 34.8089C93.2894 34.6411 93.2226 34.4801 93.1036 34.3614C92.9847 34.2427 92.8234 34.176 92.6552 34.176H76.1157Z" fill="white"/>
<path d="M73.9263 45.3608H94.8448C95.013 45.3608 95.1743 45.2941 95.2933 45.1754C95.4122 45.0567 95.479 44.8957 95.479 44.7279C95.479 44.56 95.4122 44.399 95.2933 44.2803C95.1743 44.1617 95.013 44.095 94.8448 44.095H73.9263C73.758 44.095 73.5967 44.1617 73.4778 44.2803C73.3588 44.399 73.292 44.56 73.292 44.7279C73.292 44.8957 73.3588 45.0567 73.4778 45.1754C73.5967 45.2941 73.758 45.3608 73.9263 45.3608Z" fill="white"/>
<path d="M60.7208 61.0291H29.0425C28.8743 61.0291 28.7129 61.0957 28.594 61.2144C28.475 61.3331 28.4082 61.4941 28.4082 61.662C28.4082 61.8298 28.475 61.9908 28.594 62.1095C28.7129 62.2282 28.8743 62.2949 29.0425 62.2949H60.7208C60.8891 62.2949 61.0504 62.2282 61.1694 62.1095C61.2883 61.9908 61.3551 61.8298 61.3551 61.662C61.3551 61.4941 61.2883 61.3331 61.1694 61.2144C61.0504 61.0957 60.8891 61.0291 60.7208 61.0291Z" fill="white"/>
<path d="M57.4043 72.1962C57.5725 72.1962 57.7338 72.1296 57.8528 72.0109C57.9717 71.8922 58.0386 71.7312 58.0386 71.5633C58.0386 71.3955 57.9717 71.2345 57.8528 71.1158C57.7338 70.9971 57.5725 70.9304 57.4043 70.9304H32.3579C32.1897 70.9304 32.0284 70.9971 31.9094 71.1158C31.7905 71.2345 31.7236 71.3955 31.7236 71.5633C31.7236 71.7312 31.7905 71.8922 31.9094 72.0109C32.0284 72.1296 32.1897 72.1962 32.3579 72.1962H57.4043Z" fill="white"/>
<path d="M60.7208 80.8518H29.0425C28.8743 80.8518 28.7129 80.9185 28.594 81.0372C28.475 81.1559 28.4082 81.3169 28.4082 81.4847C28.4082 81.6526 28.475 81.8136 28.594 81.9323C28.7129 82.0509 28.8743 82.1176 29.0425 82.1176H60.7208C60.8891 82.1176 61.0504 82.0509 61.1694 81.9323C61.2883 81.8136 61.3551 81.6526 61.3551 81.4847C61.3551 81.3169 61.2883 81.1559 61.1694 81.0372C61.0504 80.9185 60.8891 80.8518 60.7208 80.8518Z" fill="white"/>
<path d="M97.1791 71.6343C97.149 71.4189 97.0758 71.2117 96.9637 71.0251C96.8517 70.8385 96.7032 70.6763 96.527 70.5482C96.1749 70.2705 95.781 70.0501 95.3599 69.8951C95.2813 69.8621 95.2737 69.8292 95.2965 69.7533C95.4437 69.2748 95.5832 68.7963 95.7278 68.3178C95.7456 68.2571 95.7278 68.2368 95.6771 68.2191C95.3955 68.1406 95.1164 68.0571 94.8373 67.9659C94.7739 67.9457 94.7587 67.966 94.7434 68.0242C94.6064 68.4925 94.4643 68.9584 94.3273 69.4267C94.307 69.4925 94.2893 69.5153 94.2132 69.4925C94.0077 69.4267 93.7996 69.3735 93.5916 69.3153C93.5358 69.3001 93.5104 69.2875 93.5307 69.2166C93.6778 68.7406 93.8149 68.2647 93.9595 67.7887C93.9772 67.7305 93.9595 67.7077 93.9113 67.69L93.0715 67.4368C93.0106 67.4166 92.9928 67.4368 92.9751 67.4951C92.833 67.9761 92.6858 68.4571 92.5463 68.9406C92.5235 69.0115 92.5032 69.0267 92.4321 69.0039C91.8258 68.8242 91.2219 68.647 90.6181 68.4647C90.5471 68.4444 90.5267 68.4647 90.509 68.5254C90.4303 68.8039 90.3466 69.0799 90.2553 69.3558C90.2147 69.49 90.2147 69.4875 90.3441 69.5254L90.4811 69.5634C90.6839 69.6136 90.8824 69.6796 91.0748 69.7609C91.1866 69.8129 91.2756 69.9038 91.3251 70.0166C91.3746 70.1294 91.3812 70.2562 91.3437 70.3735C91.2498 70.6875 91.1534 70.9989 91.0621 71.3128L90.8261 72.1254C90.8388 72.1457 90.8261 72.1533 90.8109 72.1609C90.564 72.9811 90.3187 73.8014 90.0751 74.6216C90.0684 74.6803 90.0479 74.7365 90.0153 74.7857C89.9826 74.8349 89.9388 74.8757 89.8874 74.9048C89.8359 74.934 89.7783 74.9505 89.7193 74.9532C89.6602 74.9559 89.6013 74.9447 89.5474 74.9204C89.3495 74.8672 89.1516 74.8065 88.9563 74.7432C88.8903 74.7204 88.8599 74.728 88.8269 74.7938C88.6772 75.1128 88.5224 75.4318 88.3626 75.7457C88.322 75.8242 88.3499 75.8394 88.4184 75.8596L90.2299 76.4014C90.2883 76.4166 90.301 76.4368 90.2832 76.4976C90.1335 76.9862 89.9914 77.4748 89.8443 77.9609C89.8189 78.0394 89.8443 78.0647 89.9128 78.0849C90.1665 78.1584 90.4405 78.2343 90.7018 78.3178C90.7881 78.3482 90.8109 78.3178 90.8337 78.2444C90.9707 77.771 91.1154 77.2976 91.2524 76.8216C91.2752 76.7432 91.3031 76.7381 91.3741 76.7609C91.572 76.8267 91.7725 76.8875 91.9729 76.9432C92.0465 76.9659 92.0642 76.9887 92.0389 77.0647C91.8934 77.5406 91.7505 78.0166 91.6101 78.4925C91.5898 78.5558 91.5949 78.5862 91.6685 78.6065C91.9425 78.6824 92.2139 78.7634 92.4829 78.847C92.5463 78.8672 92.5717 78.8621 92.5945 78.7913C92.7366 78.3027 92.8837 77.814 93.0258 77.3254C93.0461 77.2622 93.0715 77.2419 93.1375 77.2596C93.244 77.2875 93.3556 77.3102 93.4647 77.333C93.9467 77.4391 94.4423 77.4699 94.9337 77.4242C95.1965 77.4007 95.4515 77.3226 95.6822 77.1948C95.9129 77.067 96.1143 76.8925 96.2733 76.6824C96.5408 76.3252 96.7191 75.9095 96.7934 75.4697C96.8535 75.2049 96.8424 74.929 96.7614 74.6698C96.6803 74.4107 96.5321 74.1775 96.3317 73.9938C96.2053 73.8741 96.0667 73.7681 95.9181 73.6773C95.8902 73.6596 95.8521 73.652 95.8369 73.6115C96.1186 73.5644 96.3819 73.4409 96.598 73.2546C96.8179 73.0507 96.9855 72.7971 97.0866 72.5151C97.1878 72.2332 97.2194 71.9311 97.1791 71.6343ZM94.0127 75.9381C93.8323 75.9731 93.648 75.9841 93.4647 75.971C92.9654 75.9276 92.4731 75.8248 91.9983 75.6647L91.7446 75.5837C91.6862 75.5837 91.6786 75.5457 91.6938 75.49C91.8359 75.0242 91.9763 74.5567 92.115 74.0875L92.2977 73.4723C92.2977 73.4444 92.2977 73.3963 92.3611 73.4115C92.9153 73.5416 93.4544 73.7291 93.9696 73.971C94.2249 74.0949 94.4494 74.2739 94.6267 74.4951C94.7182 74.6233 94.7753 74.7728 94.7924 74.9293C94.8096 75.0859 94.7863 75.2441 94.7247 75.3891C94.6631 75.5341 94.5654 75.6609 94.4407 75.7574C94.3161 75.854 94.1687 75.917 94.0127 75.9406V75.9381ZM94.6293 72.69C94.5582 72.7088 94.4862 72.724 94.4136 72.7356C94.3026 72.7507 94.1905 72.7549 94.0787 72.7482C93.5939 72.6998 93.1168 72.5927 92.6579 72.4292C92.597 72.4115 92.6173 72.3786 92.6275 72.3432L93.0461 70.9381C93.0867 70.7989 93.1298 70.6571 93.1704 70.5153C93.1704 70.4773 93.1933 70.4546 93.244 70.4697L94.5125 70.9052C94.7392 71.0086 94.937 71.1659 95.0885 71.3634C95.1684 71.4763 95.2203 71.6064 95.24 71.7432C95.2596 71.8799 95.2465 72.0194 95.2017 72.1501C95.1569 72.2808 95.0816 72.399 94.9821 72.4951C94.8826 72.5912 94.7617 72.6623 94.6293 72.7027V72.69Z" fill="white"/>
<path d="M96.8693 63.809C95.7975 63.5035 94.6854 63.3618 93.5711 63.3887C91.0668 63.3099 88.6255 64.1797 86.7377 65.8235C84.8499 67.4672 83.6556 69.763 83.3947 72.2495C83.3935 72.257 83.3935 72.2647 83.3947 72.2723C83.3947 72.3685 83.377 72.4647 83.3693 72.5609C83.3617 72.6571 83.3541 72.7431 83.3516 72.8343C83.3516 72.8672 83.3516 72.9001 83.3516 72.9305C83.3516 73.0723 83.3516 73.214 83.3516 73.3558C83.3516 73.5128 83.3516 73.6697 83.3668 73.8242C83.3681 73.8368 83.3681 73.8495 83.3668 73.8621C83.3668 73.9963 83.3871 74.128 83.3998 74.2596L83.4226 74.4571C83.4226 74.5254 83.4404 74.5938 83.4505 74.6596C83.7796 77.0296 84.9557 79.2012 86.7622 80.7744C88.5687 82.3477 90.884 83.2168 93.2818 83.2216C93.3985 83.2216 93.5152 83.2216 93.6319 83.2216H93.8146C98.3129 83.2216 102.489 80.4621 103.864 76.1938C104.256 74.985 104.399 73.7094 104.284 72.444C104.168 71.1787 103.797 69.9498 103.192 68.8318C102.533 67.6115 101.633 66.5372 100.546 65.6739C99.4596 64.8106 98.2087 64.1762 96.8693 63.809ZM91.1405 81.576C89.9641 81.2553 88.8651 80.7001 87.9097 79.9439C86.9543 79.1876 86.1624 78.2461 85.5817 77.176C85.1273 76.3321 84.8242 75.4153 84.6861 74.4672C84.6861 74.4393 84.6861 74.414 84.6861 74.3887C84.6861 74.3026 84.6633 74.2165 84.6556 74.1355C84.648 74.0545 84.6379 73.9457 84.6328 73.8495V73.7634C84.6328 73.6419 84.6328 73.5102 84.6328 73.3963C84.6328 73.3811 84.6328 73.3659 84.6328 73.3533C84.6328 73.2393 84.6328 73.1279 84.6328 73.0166C84.6328 72.976 84.6328 72.9381 84.6328 72.9001L84.648 72.6976C84.6965 72.054 84.8209 71.4184 85.0185 70.8039C86.1906 67.171 89.6867 64.7912 93.5203 64.6621C95.7755 64.7131 97.922 65.6393 99.504 67.2439C101.086 68.8485 101.979 71.0052 101.993 73.2561C102.007 75.507 101.142 77.6747 99.58 79.2991C98.0184 80.9234 95.8838 81.8765 93.6294 81.9558C92.7867 81.938 91.95 81.8103 91.1405 81.576Z" fill="white"/>
</g>
<defs>
<clipPath id="clip0_229_4835">
<rect width="114" height="112" fill="white" transform="translate(0 0.5)"/>
</clipPath>
</defs>
</svg>
