<svg width="105" height="109" viewBox="0 0 105 109" fill="none" xmlns="http://www.w3.org/2000/svg">
<g clip-path="url(#clip0_543_342)">
<path d="M32.2966 87.3314H22.7879C22.6303 87.3421 22.4827 87.4123 22.3749 87.5278C22.267 87.6432 22.207 87.7954 22.207 87.9534C22.207 88.1114 22.267 88.2635 22.3749 88.3789C22.4827 88.4944 22.6303 88.5646 22.7879 88.5753H32.2966C32.4542 88.5646 32.6018 88.4944 32.7097 88.3789C32.8175 88.2635 32.8775 88.1114 32.8775 87.9534C32.8775 87.7954 32.8175 87.6432 32.7097 87.5278C32.6018 87.4123 32.4542 87.3421 32.2966 87.3314Z" fill="white"/>
<path d="M11.4959 88.5753H17.2253C17.3829 88.5646 17.5305 88.4944 17.6383 88.3789C17.7462 88.2635 17.8062 88.1114 17.8062 87.9534C17.8062 87.7954 17.7462 87.6432 17.6383 87.5278C17.5305 87.4123 17.3829 87.3421 17.2253 87.3314H11.4959C11.3383 87.3421 11.1907 87.4123 11.0829 87.5278C10.975 87.6432 10.915 87.7954 10.915 87.9534C10.915 88.1114 10.975 88.2635 11.0829 88.3789C11.1907 88.4944 11.3383 88.5646 11.4959 88.5753Z" fill="white"/>
<path d="M11.4959 80.8221H25.0539C25.2115 80.8114 25.3591 80.7412 25.467 80.6258C25.5748 80.5103 25.6348 80.3582 25.6348 80.2002C25.6348 80.0422 25.5748 79.8901 25.467 79.7746C25.3591 79.6591 25.2115 79.589 25.0539 79.5782H11.4959C11.3383 79.589 11.1907 79.6591 11.0829 79.7746C10.975 79.8901 10.915 80.0422 10.915 80.2002C10.915 80.3582 10.975 80.5103 11.0829 80.6258C11.1907 80.7412 11.3383 80.8114 11.4959 80.8221Z" fill="white"/>
<path d="M11.4959 73.3503H25.0539C25.2115 73.3396 25.3591 73.2694 25.467 73.154C25.5748 73.0385 25.6348 72.8864 25.6348 72.7284C25.6348 72.5704 25.5748 72.4183 25.467 72.3028C25.3591 72.1874 25.2115 72.1172 25.0539 72.1064H11.4959C11.3383 72.1172 11.1907 72.1874 11.0829 72.3028C10.975 72.4183 10.915 72.5704 10.915 72.7284C10.915 72.8864 10.975 73.0385 11.0829 73.154C11.1907 73.2694 11.3383 73.3396 11.4959 73.3503Z" fill="white"/>
<path d="M19.7121 65.2551H22.7878C22.9401 65.2551 23.0862 65.1946 23.1939 65.0869C23.3016 64.9791 23.3622 64.833 23.3622 64.6806C23.3622 64.5282 23.3016 64.3821 23.1939 64.2743C23.0862 64.1666 22.9401 64.1061 22.7878 64.1061H19.7121C19.5597 64.1061 19.4136 64.1666 19.3059 64.2743C19.1982 64.3821 19.1377 64.5282 19.1377 64.6806C19.1377 64.833 19.1982 64.9791 19.3059 65.0869C19.4136 65.1946 19.5597 65.2551 19.7121 65.2551Z" fill="white"/>
<path d="M11.4958 65.2551H15.6772C15.8295 65.2551 15.9756 65.1946 16.0833 65.0869C16.191 64.9791 16.2515 64.833 16.2515 64.6806C16.2515 64.5282 16.191 64.3821 16.0833 64.2743C15.9756 64.1666 15.8295 64.1061 15.6772 64.1061H11.4958C11.3434 64.1061 11.1973 64.1666 11.0896 64.2743C10.9819 64.3821 10.9214 64.5282 10.9214 64.6806C10.9214 64.833 10.9819 64.9791 11.0896 65.0869C11.1973 65.1946 11.3434 65.2551 11.4958 65.2551Z" fill="white"/>
<path d="M11.4959 57.7835H15.6773C15.8123 57.7619 15.9351 57.693 16.0238 57.589C16.1125 57.485 16.1612 57.3528 16.1612 57.2161C16.1612 57.0795 16.1125 56.9473 16.0238 56.8433C15.9351 56.7393 15.8123 56.6703 15.6773 56.6488H11.4959C11.4139 56.6357 11.33 56.6405 11.25 56.663C11.17 56.6855 11.0959 56.7251 11.0326 56.779C10.9694 56.833 10.9187 56.9 10.8839 56.9754C10.8491 57.0509 10.8311 57.133 10.8311 57.2161C10.8311 57.2992 10.8491 57.3814 10.8839 57.4568C10.9187 57.5323 10.9694 57.5993 11.0326 57.6532C11.0959 57.7072 11.17 57.7467 11.25 57.7692C11.33 57.7917 11.4139 57.7966 11.4959 57.7835Z" fill="white"/>
<path d="M32.2965 95.6421H11.4958C11.3313 95.6421 11.1735 95.7075 11.0572 95.8238C10.9408 95.9402 10.8755 96.098 10.8755 96.2626C10.8755 96.4272 10.9408 96.585 11.0572 96.7013C11.1735 96.8177 11.3313 96.8831 11.4958 96.8831H32.2965C32.461 96.8831 32.6188 96.8177 32.7351 96.7013C32.8515 96.585 32.9168 96.4272 32.9168 96.2626C32.9168 96.098 32.8515 95.9402 32.7351 95.8238C32.6188 95.7075 32.461 95.6421 32.2965 95.6421Z" fill="white"/>
<path d="M103.426 58.447C103.431 58.3906 103.431 58.334 103.426 58.2776C103.426 58.2546 103.426 58.2345 103.426 58.2115C103.426 58.1885 103.426 58.1828 103.426 58.1684C103.426 58.154 103.426 58.1512 103.426 58.1425C103.421 58.1192 103.414 58.0962 103.406 58.0736C103.403 58.056 103.398 58.0387 103.392 58.0219C103.392 58.0018 103.375 57.9845 103.369 57.9644L103.323 57.8581C103.323 57.8352 103.303 57.8093 103.291 57.7863L97.5994 45.7212C97.4837 45.4751 97.3004 45.2669 97.071 45.1208C96.8992 45.0117 96.7062 44.9403 96.5048 44.9114C96.3033 44.8825 96.098 44.8968 95.9025 44.9533C95.707 45.0098 95.5257 45.1072 95.3706 45.2391C95.2156 45.371 95.0904 45.5344 95.0033 45.7183L89.3113 57.7835C89.2879 57.8448 89.262 57.9052 89.2338 57.9644C89.2338 57.9845 89.2165 57.9989 89.2108 58.019C89.2095 58.0362 89.2095 58.0535 89.2108 58.0707C89.2028 58.0933 89.1961 58.1163 89.1907 58.1397C89.1895 58.1473 89.1895 58.155 89.1907 58.1626C89.1893 58.1789 89.1893 58.1952 89.1907 58.2115C89.1891 58.2325 89.1891 58.2536 89.1907 58.2747C89.1877 58.3283 89.1877 58.382 89.1907 58.4356C89.1907 58.4356 89.1907 58.4585 89.1907 58.47V103.571C89.1927 104.864 89.7014 106.105 90.6076 107.028C91.5139 107.95 92.7455 108.481 94.0383 108.506H98.4954C99.8038 108.503 101.058 107.982 101.983 107.057C102.908 106.131 103.428 104.876 103.429 103.568V58.4758C103.429 58.4758 103.426 58.4557 103.426 58.447ZM96.2669 49.7085L99.7131 57.0366H92.792L96.2669 49.7085ZM98.4954 105.633H94.0383C93.4914 105.632 92.9674 105.413 92.581 105.026C92.1945 104.639 91.9771 104.115 91.9764 103.568V59.9035H100.557V103.568C100.557 104.115 100.339 104.639 99.9528 105.026C99.5664 105.413 99.0423 105.632 98.4954 105.633Z" fill="white"/>
<path d="M51.5808 22.7831C46.1816 22.7841 40.9243 24.5125 36.5773 27.7159C32.2303 30.9192 29.0216 35.4294 27.4202 40.5871C25.8189 45.7449 25.9089 51.2798 27.677 56.3827C29.4452 61.4857 32.7987 65.8891 37.2475 68.9494C38.2337 69.6311 39.0394 70.5424 39.5952 71.6049C40.151 72.6673 40.4403 73.8489 40.4381 75.048V77.4811C40.4397 79.1934 41.1203 80.835 42.3307 82.0457C43.5411 83.2565 45.1823 83.9373 46.894 83.9388H56.2763C57.9873 83.9358 59.6273 83.2544 60.8369 82.0439C62.0465 80.8334 62.727 79.1926 62.7293 77.4811V75.0509C62.7361 73.8394 63.0359 72.6476 63.603 71.5771C64.17 70.5066 64.9876 69.5893 65.986 68.9034C69.3527 66.5758 72.1046 63.4657 74.0054 59.8402C75.9061 56.2147 76.8991 52.182 76.8989 48.0882C76.8989 47.9791 76.8989 47.867 76.8989 47.7579C76.824 41.0999 74.1237 34.7409 69.3855 30.0643C64.6473 25.3877 58.2546 22.7719 51.5981 22.786L51.5808 22.7831ZM74.0099 47.7923C74.0593 51.4699 73.2041 55.1032 71.5194 58.3723C69.8347 61.6414 67.3723 64.446 64.349 66.5392C62.9693 67.4895 61.8401 68.7598 61.0579 70.2415C60.2758 71.7233 59.8639 73.3724 59.8575 75.048V77.4811C59.8567 78.4317 59.4789 79.3432 58.8069 80.0153C58.1349 80.6875 57.2237 81.0654 56.2734 81.0662H54.714L57.1091 65.3069C57.1352 65.2275 57.1436 65.1434 57.1338 65.0604C57.1241 64.9775 57.0963 64.8977 57.0525 64.8265C57.0088 64.7554 56.95 64.6947 56.8804 64.6486C56.8107 64.6025 56.7319 64.5721 56.6493 64.5596C56.5667 64.5472 56.4825 64.5528 56.4023 64.5763C56.3221 64.5997 56.2481 64.6403 56.1852 64.6953C56.1224 64.7503 56.0723 64.8183 56.0384 64.8947C56.0045 64.971 55.9877 65.0539 55.9891 65.1374L53.5682 81.0662H49.6883L47.2674 65.1288C47.2433 64.9806 47.1622 64.8477 47.0414 64.7586C46.9207 64.6695 46.7698 64.6312 46.6212 64.6519C46.4736 64.6767 46.3415 64.758 46.253 64.8788C46.1645 64.9995 46.1266 65.15 46.1473 65.2983L48.5396 81.0576H46.8911C45.9428 81.0561 45.0337 80.679 44.3626 80.0087C43.6915 79.3385 43.313 78.4297 43.31 77.4811V75.0509C43.3126 73.3866 42.9106 71.7466 42.1387 70.2723C41.3667 68.798 40.2479 67.5336 38.8787 66.5881C35.6934 64.409 33.1232 61.4457 31.416 57.9839C29.7087 54.5221 28.9221 50.6787 29.1319 46.8243C29.3417 42.9699 30.5409 39.2347 32.6138 35.9788C34.6867 32.7229 37.5634 30.0562 40.9664 28.236C44.3694 26.4157 48.1839 25.5033 52.042 25.5868C55.9001 25.6703 59.6716 26.7468 62.9927 28.7125C66.3139 30.6782 69.0726 33.4667 71.0029 36.8092C72.9331 40.1517 73.9697 43.9354 74.0128 47.7952L74.0099 47.7923Z" fill="white"/>
<path d="M59.8517 86.0187H43.3099C42.9291 86.0187 42.5639 86.17 42.2946 86.4394C42.0253 86.7087 41.874 87.0741 41.874 87.455C41.874 87.8359 42.0253 88.2013 42.2946 88.4706C42.5639 88.74 42.9291 88.8913 43.3099 88.8913H59.8517C60.2325 88.8913 60.5978 88.74 60.8671 88.4706C61.1363 88.2013 61.2876 87.8359 61.2876 87.455C61.2876 87.0741 61.1363 86.7087 60.8671 86.4394C60.5978 86.17 60.2325 86.0187 59.8517 86.0187Z" fill="white"/>
<path d="M56.5635 90.6953H46.6011C46.4717 90.6955 46.3439 90.7243 46.2269 90.7796C46.1099 90.8349 46.0066 90.9154 45.9243 91.0153C45.842 91.1152 45.7827 91.232 45.7508 91.3575C45.7189 91.4829 45.715 91.6139 45.7396 91.741C46.0016 93.1004 46.7287 94.3261 47.7959 95.2075C48.8632 96.0889 50.204 96.571 51.5881 96.571C52.9721 96.571 54.3129 96.0889 55.3802 95.2075C56.4474 94.3261 57.1745 93.1004 57.4365 91.741C57.4607 91.613 57.4563 91.4812 57.4235 91.3552C57.3907 91.2291 57.3304 91.1119 57.2469 91.0119C57.1634 90.9119 57.0589 90.8317 56.9407 90.777C56.8225 90.7222 56.6937 90.6943 56.5635 90.6953Z" fill="white"/>
<path d="M65.3717 58.9469L60.8802 55.9191C60.7861 55.8567 60.6757 55.8235 60.5629 55.8235C60.45 55.8235 60.3396 55.8567 60.2455 55.9191L56.0756 58.7343L51.9 55.9191C51.8062 55.8574 51.6964 55.8244 51.5841 55.8244C51.4718 55.8244 51.3619 55.8574 51.2682 55.9191L47.0925 58.7343L42.9169 55.9191C42.8231 55.8574 42.7133 55.8244 42.601 55.8244C42.4887 55.8244 42.3788 55.8574 42.2851 55.9191L37.7935 58.9469C37.718 58.9817 37.651 59.0325 37.597 59.0957C37.543 59.1589 37.5034 59.2331 37.4809 59.3132C37.4584 59.3932 37.4535 59.4772 37.4667 59.5593C37.4798 59.6414 37.5105 59.7197 37.5568 59.7888C37.6031 59.8578 37.6639 59.916 37.7349 59.9593C37.8058 60.0025 37.8853 60.0299 37.9679 60.0394C38.0505 60.049 38.1341 60.0405 38.2131 60.0145C38.2921 59.9886 38.3645 59.9458 38.4253 59.8891L42.601 57.0739L46.7766 59.8891C46.8704 59.9509 46.9802 59.9838 47.0925 59.9838C47.2048 59.9838 47.3146 59.9509 47.4084 59.8891L51.5841 57.0739L55.7568 59.8891C55.8509 59.9515 55.9613 59.9848 56.0742 59.9848C56.1871 59.9848 56.2974 59.9515 56.3915 59.8891L60.5643 57.0739L64.7371 59.8891C64.8308 59.9509 64.9407 59.9839 65.053 59.9839C65.1458 59.9835 65.2372 59.9605 65.3192 59.9169C65.4012 59.8734 65.4715 59.8106 65.5239 59.734C65.6061 59.6088 65.6362 59.4565 65.6078 59.3095C65.5793 59.1625 65.4947 59.0324 65.3717 58.9469Z" fill="white"/>
<path d="M104.627 28.4594L85.4744 9.30458V8.27904C85.4736 6.21559 84.6542 4.23679 83.1961 2.77717C81.738 1.31756 79.7604 0.496454 77.6975 0.49417H25.568C24.6255 0.491442 23.6919 0.675913 22.8213 1.03688C21.9507 1.39784 21.1604 1.92812 20.4963 2.59695L2.09933 21.002C1.43185 21.667 0.902666 22.4578 0.542347 23.3285C0.182027 24.1992 -0.00228938 25.1327 2.14623e-05 26.0751V98.799C2.14623e-05 101.91 0.126384 104.625 1.68866 106.354C3.30263 108.135 6.05673 108.5 9.69821 108.5H78.4557C80.3167 108.498 82.1011 107.758 83.417 106.442C84.7329 105.126 85.4729 103.341 85.4744 101.479V37.6088L90.4772 42.6129C90.5956 42.7314 90.7361 42.8254 90.8909 42.8895C91.0456 42.9536 91.2114 42.9866 91.3789 42.9866C91.5464 42.9866 91.7122 42.9536 91.8669 42.8895C92.0217 42.8254 92.1623 42.7314 92.2807 42.6129L104.63 30.2605C104.869 30.0208 105.003 29.6959 105.003 29.3571C105.003 29.0183 104.869 28.6933 104.63 28.4536L104.627 28.4594ZM91.3789 39.904L72.2037 20.7233L72.0888 10.0687L82.6026 10.1779H82.7404L85.4744 12.9126L101.916 29.3614L91.3789 39.904ZM22.5267 4.63365C22.8308 4.32954 23.1783 4.07205 23.5577 3.86953V19.4249C23.5562 20.4583 23.1451 21.4489 22.4146 22.1797C21.6841 22.9104 20.6937 23.3216 19.6606 23.3231H3.86552C3.9488 23.2225 4.03782 23.1249 4.12972 23.0358L22.5267 4.63365ZM82.6026 101.479C82.6026 102.58 82.1659 103.636 81.3883 104.414C80.6108 105.193 79.556 105.631 78.4557 105.633H9.70969C6.34965 105.633 4.59209 105.274 3.83106 104.432C3.07002 103.591 2.88334 101.706 2.88334 98.8047V26.1957H19.6721C21.4666 26.1935 23.187 25.4794 24.4559 24.2101C25.7248 22.9408 26.4387 21.2199 26.441 19.4249V3.36682H77.709C78.8961 3.36731 80.0428 3.79845 80.9363 4.58026C81.8299 5.36206 82.4096 6.44148 82.5681 7.61833L70.8252 7.49481C70.6565 7.49518 70.4896 7.52888 70.3339 7.59398C70.1783 7.65907 70.037 7.75427 69.9183 7.87412C69.7996 7.99397 69.7057 8.1361 69.642 8.29235C69.5783 8.4486 69.5461 8.61589 69.5472 8.78462L69.6793 21.2634C69.6831 21.5981 69.8182 21.918 70.0555 22.1539L82.6284 34.7304L82.6026 101.479Z" fill="white"/>
<path d="M80.8507 14.0963C80.2665 13.5177 79.4883 13.1768 78.6671 13.14C77.8458 13.1032 77.0402 13.3731 76.4067 13.8971C75.7732 14.4211 75.357 15.162 75.2389 15.9758C75.1209 16.7895 75.3094 17.6182 75.7679 18.3007C76.2264 18.9832 76.9222 19.4709 77.72 19.6691C78.5178 19.8673 79.3608 19.7617 80.0853 19.373C80.8097 18.9844 81.3638 18.3402 81.6401 17.5657C81.9163 16.7913 81.895 15.9417 81.5801 15.1821C81.4111 14.7755 81.1632 14.4064 80.8507 14.0963ZM80.104 18.0864C79.7283 18.4626 79.2338 18.6969 78.7047 18.7492C78.1757 18.8016 77.6448 18.6688 77.2027 18.3735C76.7606 18.0781 76.4345 17.6386 76.2801 17.1298C76.1257 16.6209 76.1525 16.0742 76.3559 15.5829C76.5593 15.0916 76.9268 14.6861 77.3957 14.4354C77.8646 14.1848 78.4058 14.1045 78.9272 14.2084C79.4486 14.3122 79.9178 14.5938 80.255 15.0049C80.5921 15.4161 80.7762 15.9315 80.776 16.4633C80.7757 17.072 80.534 17.6557 80.104 18.0864Z" fill="white"/>
<path d="M90.6494 35.2016C90.7489 35.3007 90.8837 35.3563 91.0242 35.3563C91.1646 35.3563 91.2993 35.3007 91.3989 35.2016L97.2144 29.3816C97.2667 29.3333 97.3088 29.2749 97.338 29.21C97.3673 29.1451 97.3831 29.0749 97.3845 29.0037C97.386 28.9325 97.373 28.8617 97.3465 28.7956C97.3199 28.7295 97.2802 28.6695 97.2299 28.6192C97.1796 28.5688 97.1196 28.5291 97.0535 28.5026C96.9874 28.476 96.9167 28.463 96.8455 28.4645C96.7743 28.4659 96.7042 28.4817 96.6392 28.511C96.5743 28.5402 96.516 28.5823 96.4677 28.6347L90.6494 34.4547C90.5511 34.5541 90.4961 34.6883 90.4961 34.8281C90.4961 34.9679 90.5511 35.1021 90.6494 35.2016Z" fill="white"/>
<path d="M88.0361 32.3806C88.1055 32.3807 88.1742 32.3671 88.2383 32.3404C88.3023 32.3138 88.3605 32.2748 88.4095 32.2255L94.2278 26.4084C94.3203 26.3081 94.3703 26.1759 94.3676 26.0394C94.3648 25.903 94.3094 25.7729 94.2129 25.6764C94.1164 25.5799 93.9864 25.5245 93.85 25.5217C93.7136 25.5189 93.5814 25.569 93.4811 25.6615L87.6627 31.4786C87.589 31.5526 87.5388 31.6467 87.5184 31.7491C87.4981 31.8516 87.5086 31.9578 87.5485 32.0543C87.5884 32.1508 87.6561 32.2333 87.7429 32.2914C87.8296 32.3495 87.9317 32.3805 88.0361 32.3806Z" fill="white"/>
<path d="M32.2967 9.91947H63.729C63.811 9.93257 63.8949 9.92771 63.9749 9.90522C64.0549 9.88273 64.129 9.84316 64.1922 9.78922C64.2554 9.73528 64.3062 9.66827 64.341 9.5928C64.3758 9.51734 64.3938 9.43522 64.3938 9.35212C64.3938 9.26901 64.3758 9.18689 64.341 9.11143C64.3062 9.03597 64.2554 8.96896 64.1922 8.91502C64.129 8.86109 64.0549 8.82151 63.9749 8.79902C63.8949 8.77654 63.811 8.77167 63.729 8.78477H32.2967C32.2147 8.77167 32.1308 8.77654 32.0508 8.79902C31.9708 8.82151 31.8967 8.86109 31.8334 8.91502C31.7702 8.96896 31.7195 9.03597 31.6847 9.11143C31.6499 9.18689 31.6318 9.26901 31.6318 9.35212C31.6318 9.43522 31.6499 9.51734 31.6847 9.5928C31.7195 9.66827 31.7702 9.73528 31.8334 9.78922C31.8967 9.84316 31.9708 9.88273 32.0508 9.90522C32.1308 9.92771 32.2147 9.93257 32.2967 9.91947Z" fill="white"/>
<path d="M32.2967 16.8138H63.729C63.811 16.8269 63.8949 16.822 63.9749 16.7995C64.0549 16.777 64.129 16.7374 64.1922 16.6835C64.2554 16.6296 64.3062 16.5626 64.341 16.4871C64.3758 16.4116 64.3938 16.3295 64.3938 16.2464C64.3938 16.1633 64.3758 16.0812 64.341 16.0057C64.3062 15.9303 64.2554 15.8632 64.1922 15.8093C64.129 15.7554 64.0549 15.7158 63.9749 15.6933C63.8949 15.6708 63.811 15.666 63.729 15.6791H32.2967C32.2147 15.666 32.1308 15.6708 32.0508 15.6933C31.9708 15.7158 31.8967 15.7554 31.8334 15.8093C31.7702 15.8632 31.7195 15.9303 31.6847 16.0057C31.6499 16.0812 31.6318 16.1633 31.6318 16.2464C31.6318 16.3295 31.6499 16.4116 31.6847 16.4871C31.7195 16.5626 31.7702 16.6296 31.8334 16.6835C31.8967 16.7374 31.9708 16.777 32.0508 16.7995C32.1308 16.822 32.2147 16.8269 32.2967 16.8138Z" fill="white"/>
</g>
<defs>
<clipPath id="clip0_543_342">
<rect width="105" height="108" fill="white" transform="translate(0 0.5)"/>
</clipPath>
</defs>
</svg>
