<svg width="122" height="138" viewBox="0 0 122 138" fill="none" xmlns="http://www.w3.org/2000/svg">
<g clip-path="url(#clip0_229_5740)">
<path d="M60.5395 115.277C59.7308 115.277 58.9402 115.516 58.2679 115.963C57.5955 116.41 57.0715 117.045 56.7621 117.789C56.4528 118.532 56.372 119.35 56.5299 120.139C56.6879 120.929 57.0775 121.653 57.6495 122.222C58.2215 122.791 58.9502 123.178 59.7434 123.335C60.5367 123.492 61.3587 123.411 62.1057 123.103C62.8527 122.794 63.4911 122.272 63.94 121.603C64.3889 120.934 64.6283 120.147 64.6278 119.342C64.6264 118.264 64.1952 117.23 63.4287 116.468C62.6622 115.706 61.6231 115.278 60.5395 115.277ZM60.5395 122.159C59.9797 122.159 59.4325 121.994 58.967 121.684C58.5016 121.375 58.1388 120.935 57.9246 120.42C57.7103 119.906 57.6543 119.339 57.7635 118.793C57.8727 118.247 58.1423 117.745 58.5381 117.351C58.9339 116.957 59.4383 116.689 59.9873 116.58C60.5363 116.472 61.1054 116.527 61.6226 116.74C62.1398 116.954 62.5818 117.315 62.8928 117.778C63.2038 118.241 63.3698 118.785 63.3698 119.342C63.3692 120.089 63.0708 120.805 62.5401 121.333C62.0095 121.861 61.2899 122.158 60.5395 122.159Z" fill="white"/>
<path d="M60.5395 12.492C61.3479 12.492 62.1381 12.2536 62.8103 11.8068C63.4825 11.36 64.0065 10.725 64.3161 9.98191C64.6257 9.23887 64.7069 8.42117 64.5496 7.63219C64.3922 6.84321 64.0034 6.11835 63.4321 5.54923C62.8609 4.9801 62.1329 4.59227 61.3402 4.43474C60.5474 4.27721 59.7256 4.35705 58.9784 4.66418C58.2313 4.97131 57.5925 5.49195 57.1426 6.16027C56.6928 6.8286 56.4522 7.61461 56.4512 8.41898C56.4512 9.49835 56.8817 10.5336 57.6483 11.2973C58.4149 12.061 59.4547 12.4907 60.5395 12.492ZM60.5395 5.60766C61.0995 5.60766 61.6469 5.77296 62.1125 6.08264C62.578 6.39233 62.9408 6.83248 63.1549 7.34739C63.3689 7.86229 63.4247 8.42882 63.3151 8.97527C63.2055 9.52172 62.9354 10.0235 62.5391 10.4172C62.1427 10.8109 61.6379 11.0787 61.0886 11.1868C60.5392 11.2949 59.97 11.2384 59.4529 11.0245C58.9358 10.8106 58.4941 10.4488 58.1837 9.98501C57.8733 9.52121 57.7081 8.97621 57.7091 8.41898C57.7118 7.67332 58.011 6.95903 58.5413 6.43223C59.0717 5.90544 59.7901 5.60897 60.5395 5.60766Z" fill="white"/>
<path d="M107.768 87.8193C106.959 87.8188 106.168 88.057 105.496 88.5037C104.823 88.9504 104.299 89.5856 103.989 90.3289C103.679 91.0722 103.598 91.8902 103.755 92.6795C103.912 93.4688 104.302 94.1938 104.873 94.763C105.445 95.3322 106.173 95.7199 106.967 95.8771C107.76 96.0342 108.582 95.9538 109.329 95.646C110.076 95.3382 110.715 94.8167 111.164 94.1477C111.614 93.4787 111.853 92.6921 111.853 91.8874C111.852 90.8093 111.421 89.7757 110.655 89.0132C109.889 88.2506 108.851 87.8213 107.768 87.8193ZM107.768 94.7037C107.208 94.7042 106.66 94.5394 106.194 94.2303C105.729 93.9211 105.365 93.4814 105.151 92.9669C104.936 92.4523 104.88 91.8859 104.989 91.3395C105.098 90.793 105.367 90.2909 105.763 89.8968C106.159 89.5027 106.663 89.2342 107.212 89.1253C107.761 89.0165 108.33 89.0721 108.848 89.2852C109.365 89.4983 109.807 89.8593 110.118 90.3224C110.429 90.7856 110.595 91.3302 110.595 91.8874C110.595 92.6337 110.297 93.3492 109.767 93.8772C109.236 94.4051 108.518 94.7024 107.768 94.7037Z" fill="white"/>
<path d="M107.768 39.8944C108.577 39.8944 109.367 39.6558 110.039 39.2088C110.712 38.7618 111.236 38.1264 111.545 37.3831C111.855 36.6398 111.935 35.8218 111.778 35.0327C111.62 34.2436 111.231 33.5187 110.659 32.9498C110.087 32.3809 109.359 31.9934 108.566 31.8365C107.773 31.6795 106.95 31.7601 106.203 32.068C105.456 32.3759 104.818 32.8973 104.369 33.5663C103.919 34.2352 103.68 35.0218 103.68 35.8263C103.681 36.9048 104.112 37.9388 104.879 38.7014C105.645 39.464 106.684 39.893 107.768 39.8944ZM107.768 33.01C108.328 33.01 108.875 33.1752 109.34 33.4846C109.806 33.7941 110.169 34.234 110.383 34.7486C110.597 35.2632 110.653 35.8295 110.544 36.3758C110.435 36.9221 110.165 37.4239 109.769 37.8178C109.374 38.2116 108.869 38.4799 108.32 38.5885C107.771 38.6972 107.202 38.6414 106.685 38.4283C106.168 38.2151 105.726 37.8541 105.415 37.391C105.104 36.9279 104.938 36.3834 104.938 35.8263C104.938 35.0796 105.237 34.3636 105.767 33.8356C106.298 33.3076 107.018 33.0107 107.768 33.01Z" fill="white"/>
<path d="M14.2348 39.8944C15.0434 39.8944 15.8338 39.6558 16.5061 39.2088C17.1784 38.7618 17.7025 38.1264 18.0119 37.3831C18.3213 36.6398 18.4023 35.8218 18.2445 35.0327C18.0868 34.2436 17.6974 33.5187 17.1257 32.9498C16.5539 32.3809 15.8254 31.9934 15.0324 31.8365C14.2393 31.6795 13.4173 31.7601 12.6703 32.068C11.9232 32.3759 11.2847 32.8973 10.8355 33.5663C10.3863 34.2352 10.1465 35.0218 10.1465 35.8263C10.1472 36.905 10.5781 37.9394 11.3447 38.7021C12.1112 39.4649 13.1507 39.8937 14.2348 39.8944ZM14.2348 33.01C14.7946 33.01 15.3418 33.1752 15.8073 33.4846C16.2727 33.7941 16.6355 34.234 16.8497 34.7486C17.0639 35.2632 17.12 35.8295 17.0108 36.3758C16.9016 36.9221 16.632 37.4239 16.2362 37.8178C15.8403 38.2116 15.336 38.4799 14.787 38.5885C14.2379 38.6972 13.6688 38.6414 13.1517 38.4283C12.6345 38.2151 12.1924 37.8541 11.8814 37.391C11.5704 36.9279 11.4044 36.3834 11.4044 35.8263C11.4051 35.0796 11.7035 34.3636 12.2342 33.8356C12.7648 33.3076 13.4843 33.0107 14.2348 33.01Z" fill="white"/>
<path d="M14.2344 87.2109C13.4258 87.2104 12.6352 87.4486 11.9626 87.8951C11.29 88.3417 10.7656 88.9767 10.4557 89.7199C10.1458 90.463 10.0644 91.2809 10.2216 92.0701C10.3789 92.8594 10.7678 93.5844 11.3392 94.1537C11.9106 94.723 12.6389 95.1109 13.4318 95.2683C14.2248 95.4258 15.0468 95.3457 15.7941 95.0383C16.5413 94.7308 17.1801 94.2098 17.6298 93.5411C18.0794 92.8724 18.3197 92.0861 18.3202 91.2815C18.3195 90.203 17.889 89.1688 17.123 88.4057C16.3571 87.6426 15.3183 87.2129 14.2344 87.2109ZM14.2344 94.0928C13.6743 94.0933 13.1266 93.9284 12.6607 93.619C12.1948 93.3096 11.8317 92.8697 11.6172 92.3548C11.4027 91.8399 11.3466 91.2733 11.4559 90.7267C11.5653 90.1801 11.8352 89.678 12.2314 89.2841C12.6276 88.8902 13.1324 88.6221 13.6818 88.5138C14.2313 88.4055 14.8007 88.4619 15.3179 88.6757C15.8351 88.8896 16.277 89.2513 16.5875 89.7152C16.898 90.179 17.0632 90.7241 17.0622 91.2815C17.0609 92.0271 16.7624 92.7418 16.2323 93.2688C15.7022 93.7958 14.9837 94.0921 14.2344 94.0928Z" fill="white"/>
<path d="M111.225 82.7849V53.7305C113.414 53.1875 115.442 52.1343 117.142 50.6579C118.842 49.1815 120.164 47.3241 121.001 45.2389C121.837 43.1538 122.163 40.9007 121.952 38.6654C121.741 36.4301 121 34.2768 119.788 32.383C118.576 30.4892 116.929 28.9093 114.983 27.7735C113.036 26.6376 110.847 25.9785 108.594 25.8505C106.341 25.7225 104.09 26.1292 102.027 27.0371C99.9634 27.945 98.1463 29.328 96.7256 31.0722L74.1355 18.3875C74.8021 16.2645 74.9568 14.0151 74.5871 11.8216C74.2173 9.628 73.3335 7.55196 72.0072 5.76158C70.681 3.9712 68.9496 2.51683 66.9532 1.51628C64.9569 0.515728 62.7518 -0.00287646 60.5165 0.00248252C58.2812 0.0078415 56.0787 0.537009 54.0872 1.54712C52.0957 2.55724 50.3714 4.01989 49.0538 5.81661C47.7363 7.61333 46.8625 9.69359 46.5034 11.8889C46.1442 14.0842 46.3098 16.3328 46.9867 18.4525L25.0231 30.7718C23.5999 29.1197 21.8132 27.8162 19.8017 26.9626C17.7902 26.109 15.608 25.7284 13.4247 25.8501C11.2413 25.9719 9.11552 26.5928 7.21244 27.6646C5.30936 28.7365 3.68022 30.2304 2.45153 32.0304C1.22284 33.8304 0.427687 35.888 0.127824 38.0434C-0.172038 40.1988 0.0314584 42.394 0.72252 44.4584C1.41358 46.5229 2.5736 48.401 4.11248 49.947C5.65135 51.4929 7.52767 52.6651 9.59569 53.3725V83.1329C7.58121 83.8203 5.74745 84.9488 4.22964 86.4352C2.71183 87.9216 1.54868 89.7281 0.825941 91.7214C0.103206 93.7147 -0.160663 95.844 0.0537637 97.9523C0.268191 100.061 0.955452 102.094 2.06489 103.903C3.17432 105.712 4.67763 107.25 6.46396 108.403C8.25029 109.557 10.2741 110.297 12.3861 110.569C14.4982 110.841 16.6446 110.637 18.6671 109.974C20.6896 109.31 22.5367 108.203 24.0721 106.735L46.9666 119.582C46.2948 121.702 46.1335 123.948 46.4958 126.141C46.858 128.334 47.7336 130.411 49.0519 132.204C50.3701 133.998 52.0939 135.458 54.084 136.466C56.0741 137.474 58.2747 138.002 60.5078 138.007C62.741 138.013 64.944 137.495 66.939 136.497C68.934 135.498 70.6648 134.047 71.9917 132.259C73.3186 130.472 74.2042 128.399 74.5771 126.208C74.95 124.017 74.7996 121.77 74.138 119.648L97.6338 106.457C99.1758 108.015 101.059 109.197 103.137 109.909C105.215 110.622 107.43 110.846 109.609 110.563C111.789 110.281 113.873 109.501 115.698 108.283C117.523 107.065 119.04 105.443 120.13 103.544C121.22 101.645 121.853 99.521 121.979 97.3379C122.106 95.1548 121.723 92.9722 120.859 90.9612C119.996 88.9502 118.677 87.1655 117.004 85.7469C115.332 84.3284 113.352 83.3146 111.22 82.7849H111.225ZM108.709 82.3944C108.397 82.3744 108.082 82.3594 107.765 82.3594C105.461 82.3601 103.192 82.9178 101.153 83.9844C99.1139 85.0511 97.3657 86.5948 96.0589 88.4827L88.9968 84.0066C91.7449 79.1033 93.1629 73.5726 93.1113 67.9586C93.0597 62.3445 91.5403 56.8406 88.7025 51.9881L95.7319 47.5321C97.0128 49.5565 98.7881 51.225 100.892 52.382C102.997 53.539 105.361 54.1468 107.765 54.1485C108.082 54.1485 108.397 54.1335 108.709 54.1135V82.3944ZM30.4951 69.0463H42.9864C43.022 73.8211 43.6704 78.5718 44.9161 83.183C41.8488 83.7113 38.8106 84.3956 35.8137 85.2333C32.492 80.4693 30.6433 74.8426 30.4951 69.0463ZM35.5898 51.5901C35.6429 51.6169 35.6985 51.6387 35.7558 51.6552C38.738 52.4903 41.7609 53.1738 44.813 53.7029C43.7095 57.8984 43.1008 62.2073 42.999 66.5429H30.5353C30.8354 61.1965 32.5818 56.0302 35.5898 51.5901ZM64.9828 24.3405C62.1341 25.4938 58.9453 25.4938 56.0967 24.3405V19.0183C56.0967 17.8458 56.5648 16.7213 57.398 15.8922C58.2313 15.0631 59.3614 14.5973 60.5397 14.5973C61.7181 14.5973 62.8482 15.0631 63.6814 15.8922C64.5147 16.7213 64.9828 17.8458 64.9828 19.0183V24.3405ZM90.5466 66.5429H78.0804C77.9776 62.2083 77.3689 57.9002 76.2665 53.7054C79.3183 53.1742 82.3412 52.4899 85.3237 51.6552C85.3808 51.6383 85.4363 51.6165 85.4897 51.5901C88.4976 56.0304 90.2447 61.1965 90.5466 66.5429ZM61.7977 38.4597C65.2016 39.038 68.4144 41.947 70.9555 46.8036C71.7691 48.3761 72.4613 50.0081 73.026 51.6852C69.3053 52.2092 65.5551 52.4985 61.7977 52.5514V38.4597ZM59.2818 38.4597V52.5514C55.5252 52.4977 51.7757 52.2075 48.0559 51.6827C48.62 50.0061 49.3122 48.375 50.1265 46.8036C52.6675 41.942 55.8803 39.033 59.2818 38.4597ZM59.2818 55.0548V66.5479H45.5199C45.6185 62.3439 46.219 58.1664 47.3087 54.1035C51.2745 54.6804 55.2742 54.9965 59.2818 55.0498V55.0548ZM59.2818 69.0513V81.8587C55.3099 81.9123 51.3458 82.2226 47.4144 82.7875C46.1781 78.3095 45.5345 73.69 45.4998 69.0463L59.2818 69.0513ZM59.2818 84.3621V98.0407C55.8803 97.4624 52.6675 94.5534 50.1265 89.6968C49.3728 88.2424 48.7237 86.7366 48.1842 85.1907C51.8623 84.6826 55.5687 84.4042 59.2818 84.3571V84.3621ZM61.7977 98.0557V84.3621C65.5111 84.4171 69.2174 84.7022 72.8952 85.2158C72.3553 86.7611 71.7071 88.2668 70.9555 89.7219C68.4144 94.5635 65.2016 97.4724 61.7977 98.0407V98.0557ZM61.7977 81.8587V69.0463H75.5922C75.5576 73.6909 74.914 78.3111 73.6777 82.79C69.7422 82.2221 65.7739 81.9094 61.7977 81.8537V81.8587ZM61.7977 66.5479V55.0498C65.8061 54.9944 69.8065 54.6775 73.7733 54.101C74.862 58.1633 75.4624 62.3398 75.562 66.5429L61.7977 66.5479ZM75.5419 51.2922C74.9121 49.35 74.1246 47.4621 73.187 45.647C71.8637 43.1211 70.3542 41.0507 68.7063 39.4736C74.6815 41.1615 79.9864 44.6459 83.8946 49.4497C81.1389 50.194 78.3547 50.8065 75.5419 51.2872V51.2922ZM47.8949 45.642C46.9576 47.4575 46.1693 49.3453 45.5375 51.2872C42.7298 50.8082 39.9473 50.1948 37.1898 49.4472C41.0961 44.6402 46.4001 41.1523 52.3757 39.4611C50.7278 41.0457 49.2157 43.1161 47.8949 45.642ZM45.6533 85.5963C46.2608 87.4029 47.0069 89.1604 47.8849 90.8534C49.2057 93.3793 50.7177 95.4497 52.3656 97.0268C46.5292 95.3773 41.3292 92.0128 37.4465 87.3737C40.1603 86.6544 42.8959 86.0619 45.6533 85.5963ZM73.177 90.8534C74.0539 89.16 74.8 87.4025 75.4086 85.5963C78.166 86.0619 80.9016 86.6577 83.6154 87.3837C79.7352 92.0216 74.5391 95.3867 68.7063 97.0393C70.3542 95.4597 71.8637 93.3894 73.187 90.8634L73.177 90.8534ZM85.2532 85.2233C82.2561 84.3862 79.218 83.7018 76.1507 83.173C77.3958 78.5617 78.0434 73.811 78.0779 69.0363H90.5693C90.4284 74.8343 88.5857 80.4646 85.2683 85.2333L85.2532 85.2233ZM112.193 50.7614C109.348 51.9264 106.155 51.9264 103.31 50.7614V46.4205C103.337 45.2666 103.817 44.1691 104.647 43.3626C105.477 42.5562 106.591 42.1047 107.751 42.1047C108.911 42.1047 110.026 42.5562 110.856 43.3626C111.686 44.1691 112.166 45.2666 112.193 46.4205V50.7614ZM107.75 28.3159C110.345 28.3153 112.866 29.1718 114.918 30.751C116.971 32.3302 118.438 34.5428 119.091 37.0415C119.743 39.5402 119.543 42.1837 118.522 44.5572C117.502 46.9307 115.718 48.8998 113.451 50.1556V46.4005C113.42 44.917 112.806 43.5047 111.74 42.4666C110.675 41.4284 109.243 40.847 107.751 40.847C106.26 40.847 104.828 41.4284 103.763 42.4666C102.697 43.5047 102.083 44.917 102.052 46.4005V50.1556C99.7851 48.8999 98.0015 46.931 96.9807 44.5578C95.96 42.1845 95.7599 39.5413 96.4119 37.0427C97.0638 34.5441 98.5309 32.3316 100.583 30.7522C102.635 29.1728 105.156 28.3159 107.75 28.3159ZM95.2891 33.1425C94.1615 35.1717 93.5537 37.4461 93.5195 39.7646C93.4853 42.0831 94.0256 44.3743 95.0928 46.4356L88.0332 50.9066C85.1525 46.3812 81.1897 42.6366 76.499 40.0076C71.8084 37.3785 66.5361 35.9471 61.1536 35.8412V28.3109C63.6442 28.1989 66.0617 27.4385 68.1645 26.1056C70.2673 24.7728 71.9818 22.9142 73.1367 20.7156L95.2891 33.1425ZM60.5397 2.50337C63.1351 2.50176 65.6574 3.35782 67.7109 4.93717C69.7643 6.51651 71.2325 8.72969 71.8849 11.2292C72.5373 13.7288 72.3369 16.3731 71.3154 18.7471C70.2938 21.1211 68.5088 23.0903 66.2407 24.3455V19.0183C66.2407 17.5138 65.6401 16.0709 64.5709 15.0071C63.5018 13.9433 62.0517 13.3456 60.5397 13.3456C59.0277 13.3456 57.5777 13.9433 56.5085 15.0071C55.4394 16.0709 54.8387 17.5138 54.8387 19.0183V24.343C52.5719 23.0872 50.7882 21.1181 49.7675 18.7446C48.7468 16.3711 48.5469 13.7276 49.1992 11.2289C49.8515 8.73019 51.319 6.51764 53.3714 4.93844C55.4239 3.35924 57.9452 2.50275 60.5397 2.50337ZM47.9603 20.7782C49.121 22.9612 50.8342 24.8048 52.9306 26.1268C55.027 27.4489 57.4339 28.2034 59.9133 28.3159V35.8562C54.5723 35.9611 49.3393 37.3714 44.6751 39.9628C40.011 42.5542 36.0589 46.2472 33.167 50.7164L26.7842 46.6634C27.9359 44.5262 28.5154 42.13 28.4669 39.7054C28.4184 37.2808 27.7436 34.9095 26.5074 32.8196L47.9603 20.7782ZM2.51601 39.9843C2.51458 37.9292 3.05898 35.9103 4.09408 34.132C5.12918 32.3537 6.61819 30.8791 8.41032 29.8577C10.2025 28.8363 12.234 28.3043 14.2993 28.3156C16.3646 28.3268 18.3902 28.881 20.1709 29.9219C21.9517 30.9629 23.4243 32.4536 24.4397 34.2431C25.4552 36.0326 25.9772 38.0574 25.9531 40.1123C25.929 42.1672 25.3596 44.1793 24.3025 45.9448C23.2454 47.7102 21.7381 49.1663 19.9334 50.1656V46.4105C19.9021 44.927 19.2879 43.5147 18.2224 42.4766C17.1569 41.4384 15.725 40.857 14.2337 40.857C12.7425 40.857 11.3106 41.4384 10.2451 42.4766C9.17959 43.5147 8.56532 44.927 8.534 46.4105V50.1656C6.71089 49.1553 5.1919 47.6789 4.13396 45.889C3.07602 44.0992 2.51746 42.0608 2.51601 39.9843ZM18.6755 50.7715C15.83 51.9364 12.6374 51.9364 9.79194 50.7715V46.4205C9.81954 45.2666 10.2996 44.1691 11.1296 43.3626C11.9596 42.5562 13.0737 42.1047 14.2337 42.1047C15.3938 42.1047 16.5078 42.5562 17.3378 43.3626C18.1678 44.1691 18.6479 45.2666 18.6755 46.4205V50.7715ZM12.1191 53.9808C14.8125 54.3839 17.5655 54.0083 20.0504 52.8987C22.5353 51.7892 24.6473 49.9924 26.1351 47.7223L32.5028 51.7603C29.5861 56.6631 28.0227 62.2455 27.9705 67.9426C27.9184 73.6398 29.3795 79.2495 32.2059 84.2044L25.798 88.2774C24.2735 86.1556 22.1889 84.4948 19.7747 83.4786C17.3606 82.4625 14.7111 82.1305 12.1191 82.5196V53.9808ZM18.6755 107.183C15.8281 108.338 12.6394 108.338 9.79194 107.183V101.873C9.77784 101.284 9.88231 100.698 10.0992 100.149C10.3161 99.601 10.641 99.1012 11.0549 98.6795C11.4687 98.2578 11.9631 97.9226 12.5091 97.6938C13.055 97.465 13.6413 97.3472 14.2337 97.3472C14.8261 97.3472 15.4125 97.465 15.9584 97.6938C16.5043 97.9226 16.9987 98.2578 17.4126 98.6795C17.8264 99.1012 18.1514 99.601 18.3682 100.149C18.5851 100.698 18.6896 101.284 18.6755 101.873V107.183ZM19.9334 106.682V101.873C19.9494 101.119 19.8137 100.368 19.5345 99.6662C19.2552 98.9642 18.8379 98.3248 18.307 97.7854C17.7762 97.2459 17.1425 96.8174 16.443 96.5248C15.7436 96.2322 14.9925 96.0815 14.2337 96.0815C13.475 96.0815 12.7239 96.2322 12.0244 96.5248C11.325 96.8174 10.6912 97.2459 10.1604 97.7854C9.62955 98.3248 9.21225 98.9642 8.93297 99.6662C8.65369 100.368 8.51806 101.119 8.534 101.873V106.702C6.2662 105.446 4.48162 103.477 3.46026 101.102C2.4389 98.7282 2.23856 96.0838 2.89065 93.584C3.54275 91.0843 5.01037 88.8706 7.06329 87.2904C9.11621 85.7102 11.6382 84.8529 14.2337 84.8529C16.8292 84.8529 19.3512 85.7102 21.4041 87.2904C23.4571 88.8706 24.9247 91.0843 25.5768 93.584C26.2289 96.0838 26.0285 98.7282 25.0072 101.102C23.9858 103.477 22.2012 105.446 19.9334 106.702V106.682ZM25.7778 104.8C27.4025 102.571 28.3365 99.9174 28.4648 97.1667C28.593 94.4161 27.9101 91.6881 26.4999 89.3188L32.86 85.2883C35.7232 89.8936 39.6999 93.7119 44.4273 96.3947C49.1547 99.0775 54.4822 100.539 59.9233 100.647V109.684C57.4385 109.796 55.0265 110.554 52.927 111.881C50.8275 113.208 49.1135 115.059 47.9553 117.249L25.7778 104.8ZM64.9828 134.625C62.1364 135.79 58.9431 135.79 56.0967 134.625V129.939C56.0967 128.766 56.5648 127.642 57.398 126.813C58.2313 125.984 59.3614 125.518 60.5397 125.518C61.7181 125.518 62.8482 125.984 63.6814 126.813C64.5147 127.642 64.9828 128.766 64.9828 129.939V134.625ZM66.2407 134.02V129.939C66.2407 128.435 65.6401 126.992 64.5709 125.928C63.5018 124.864 62.0517 124.266 60.5397 124.266C59.0277 124.266 57.5777 124.864 56.5085 125.928C55.4394 126.992 54.8387 128.435 54.8387 129.939V134.02C52.5712 132.763 50.7869 130.793 49.7659 128.419C48.7448 126.045 48.5446 123.401 49.1968 120.901C49.8491 118.402 51.3167 116.188 53.3696 114.608C55.4225 113.028 57.9444 112.171 60.5397 112.171C63.1351 112.171 65.657 113.028 67.7099 114.608C69.7627 116.188 71.2304 118.402 71.8826 120.901C72.5348 123.401 72.3347 126.045 71.3136 128.419C70.2925 130.793 68.5083 132.763 66.2407 134.02ZM73.1694 117.317C72.0166 115.11 70.301 113.245 68.1946 111.906C66.0883 110.568 63.6653 109.804 61.1687 109.691V100.654C66.6518 100.546 72.0188 99.0633 76.7725 96.3423C81.5262 93.6212 85.5128 89.7503 88.3628 85.0881L95.3897 89.5416C94.0744 91.8415 93.4353 94.4628 93.5452 97.1067C93.655 99.7506 94.5095 102.311 96.0111 104.494L73.1694 117.317ZM112.208 107.303C109.363 108.468 106.17 108.468 103.325 107.303V102.484C103.311 101.895 103.415 101.309 103.632 100.76C103.849 100.212 104.174 99.712 104.588 99.2903C105.002 98.8686 105.496 98.5335 106.042 98.3047C106.588 98.0759 107.174 97.958 107.767 97.958C108.359 97.958 108.945 98.0759 109.491 98.3047C110.037 98.5335 110.532 98.8686 110.945 99.2903C111.359 99.712 111.684 100.212 111.901 100.76C112.118 101.309 112.222 101.895 112.208 102.484V107.303ZM113.466 106.697V102.484C113.482 101.729 113.347 100.979 113.067 100.277C112.788 99.5751 112.371 98.9356 111.84 98.3962C111.309 97.8568 110.675 97.4282 109.976 97.1356C109.276 96.843 108.525 96.6923 107.767 96.6923C107.008 96.6923 106.257 96.843 105.557 97.1356C104.858 97.4282 104.224 97.8568 103.693 98.3962C103.162 98.9356 102.745 99.5751 102.466 100.277C102.187 100.979 102.051 101.729 102.067 102.484V106.702C99.799 105.446 98.0144 103.477 96.9931 101.102C95.9717 98.7282 95.7714 96.0838 96.4235 93.584C97.0756 91.0843 98.5432 88.8706 100.596 87.2904C102.649 85.7102 105.171 84.8529 107.767 84.8529C110.362 84.8529 112.884 85.7102 114.937 87.2904C116.99 88.8706 118.458 91.0843 119.11 93.584C119.762 96.0838 119.561 98.7282 118.54 101.102C117.519 103.477 115.734 105.446 113.466 106.702V106.697Z" fill="white"/>
</g>
<defs>
<clipPath id="clip0_229_5740">
<rect width="122" height="138" fill="white"/>
</clipPath>
</defs>
</svg>
