<svg width="109" height="128" viewBox="0 0 109 128" fill="none" xmlns="http://www.w3.org/2000/svg">
<g clip-path="url(#clip0_543_1088)">
<path d="M54.5001 40.1016C52.4381 40.1016 50.4225 40.715 48.7081 41.8643C46.9936 43.0136 45.6574 44.6471 44.8683 46.5583C44.0792 48.4695 43.8728 50.5725 44.275 52.6014C44.6773 54.6303 45.6702 56.494 47.1282 57.9568C48.5862 59.4195 50.4439 60.4157 52.4662 60.8192C54.4885 61.2228 56.5847 61.0157 58.4897 60.2241C60.3947 59.4324 62.0229 58.0918 63.1684 56.3718C64.314 54.6517 64.9254 52.6296 64.9254 50.5609C64.9217 47.788 63.8221 45.1298 61.8678 43.1691C59.9135 41.2084 57.2639 40.1053 54.5001 40.1016ZM54.5001 58.2025C52.9936 58.2025 51.521 57.7543 50.2684 56.9147C49.0158 56.075 48.0396 54.8815 47.4631 53.4852C46.8866 52.0889 46.7357 50.5524 47.0296 49.0701C47.3235 47.5878 48.0489 46.2262 49.1142 45.1575C50.1794 44.0888 51.5366 43.361 53.0141 43.0661C54.4916 42.7712 56.0231 42.9226 57.4149 43.501C58.8067 44.0793 59.9963 45.0588 60.8332 46.3154C61.6701 47.5721 62.1169 49.0495 62.1169 50.5609C62.1146 52.5869 61.3114 54.5293 59.8835 55.9619C58.4556 57.3945 56.5195 58.2003 54.5001 58.2025Z" fill="white"/>
<path d="M106.071 88.2309H106.29V39.7804H106.071C107.622 38.6695 108.67 36.9858 108.985 35.0996C109.299 33.2134 108.853 31.2792 107.746 29.7226C106.639 28.166 104.961 27.1144 103.08 26.7992C101.2 26.484 99.2725 26.931 97.7209 28.0418L61.6788 7.64444C61.6788 7.50074 61.6928 7.36267 61.6928 7.21615C61.6928 5.30231 60.935 3.46686 59.5861 2.11356C58.2372 0.760274 56.4077 0 54.5001 0C52.5925 0 50.763 0.760274 49.4141 2.11356C48.0652 3.46686 47.3074 5.30231 47.3074 7.21615C47.3074 7.38522 47.3074 7.55146 47.3271 7.71771L11.341 28.0841C9.79506 26.9631 7.86854 26.5042 5.9853 26.8083C4.10206 27.1125 2.41637 28.1547 1.29906 29.7057C0.181743 31.2567 -0.275662 33.1895 0.0274576 35.0789C0.330577 36.9683 1.36939 38.6594 2.91538 39.7804H2.43792V88.2309H2.91538C1.44482 89.3226 0.444347 90.9357 0.117745 92.7415C-0.208857 94.5474 0.162959 96.4103 1.15748 97.9507C2.152 99.4912 3.69443 100.593 5.47061 101.033C7.24679 101.472 9.12315 101.216 10.7175 100.316L10.4929 100.713L47.3327 121.564C47.5223 123.327 48.3517 124.957 49.6627 126.145C50.9738 127.333 52.6748 127.995 54.4414 128.006C56.2081 128.016 57.9167 127.374 59.2417 126.202C60.5666 125.029 61.4151 123.409 61.6254 121.649L98.6169 100.713L98.454 100.432C100.061 101.301 101.938 101.525 103.703 101.057C105.469 100.588 106.991 99.4641 107.96 97.9115C108.929 96.3588 109.273 94.4944 108.923 92.6965C108.572 90.8987 107.552 89.3021 106.071 88.2309ZM103.481 87.0193C102.929 86.8881 102.364 86.8219 101.796 86.822C100.779 86.8214 99.7734 87.038 98.8461 87.4572C97.9188 87.8765 97.0911 88.4889 96.4178 89.2537L83.5265 81.0176C86.6158 75.7312 88.208 69.699 88.1313 63.5715C88.0546 57.4441 86.3119 51.4539 83.0912 46.247L95.8841 38.0757C96.7073 39.2768 97.8737 40.1996 99.2298 40.7227C100.586 41.2458 102.068 41.3446 103.481 41.0061V87.0193ZM65.6276 92.8547C65.386 92.9477 65.1445 93.0379 64.9002 93.1365C64.8131 93.1703 64.7232 93.1985 64.6334 93.2295C64.4761 93.2858 64.316 93.3422 64.1587 93.3929L63.8385 93.4972L63.4088 93.6296L63.0718 93.7282L62.6561 93.8494L62.3107 93.9396L61.895 94.0466L61.5468 94.1283L61.1311 94.2242L60.7772 94.3002L60.3615 94.3819L60.0077 94.4496L59.5864 94.52L59.2325 94.5792L58.8056 94.6412L58.4545 94.6891L58.0164 94.7398L57.6709 94.7764C57.5193 94.7933 57.3704 94.8074 57.2188 94.8187L56.8846 94.8469C56.7245 94.8469 56.5672 94.8694 56.4071 94.8779L56.0925 94.8976L55.5617 94.9201H55.3005C55.0197 94.9201 54.7669 94.9201 54.5001 94.9201C54.2333 94.9201 53.9693 94.9201 53.7053 94.9201H53.4244L52.8992 94.9004L52.5847 94.8807C52.4246 94.8807 52.2673 94.8638 52.11 94.8497L51.773 94.8215C51.6241 94.8215 51.4725 94.7961 51.3236 94.7792L50.9754 94.7426L50.54 94.6919L50.189 94.644L49.7621 94.582L49.4054 94.5228L48.9869 94.4496L48.6302 94.3848L48.2146 94.3002L47.8607 94.227L47.445 94.1312C47.3299 94.103 47.2119 94.0776 47.0967 94.0466L46.6783 93.9396L46.3384 93.8494C46.198 93.8128 46.0576 93.7705 45.9143 93.7282L45.5829 93.6324L45.1448 93.4944L44.8359 93.3957L44.3331 93.2239L44.0916 93.1393C43.8472 93.052 43.6057 92.959 43.3614 92.8576L43.1367 92.7674L42.6648 92.5758V78.4253C42.6648 75.2791 43.9106 72.2618 46.128 70.0372C48.3455 67.8125 51.3529 66.5627 54.4889 66.5627C57.6248 66.5627 60.6323 67.8125 62.8497 70.0372C65.0671 72.2618 66.3129 75.2791 66.3129 78.4253V92.573L65.8832 92.7477L65.6276 92.8547ZM47.6781 118.496L12.6723 98.6902C13.6083 97.5843 14.1895 96.2205 14.3399 94.7775C14.4902 93.3345 14.2027 91.8796 13.5149 90.6034L26.3191 82.432C29.6607 87.5836 34.3416 91.7215 39.8563 94.3988V94.4186L40.6736 94.7877C43.9146 96.2547 47.3689 97.1917 50.9051 97.5631C51.8544 97.6646 52.8121 97.7209 53.7755 97.7406V113.59C52.3959 113.733 51.0867 114.273 50.0052 115.144C48.9236 116.015 48.1156 117.181 47.6781 118.502V118.496ZM54.5001 63.7478C50.6212 63.7523 46.9023 65.3 44.1592 68.0515C41.4161 70.803 39.8727 74.5337 39.8675 78.4253V91.2289C33.8273 87.9608 29.0468 82.7641 26.2833 76.4621C23.5198 70.16 22.9314 63.113 24.6112 56.4375C26.291 49.7621 30.1431 43.8398 35.5571 39.609C40.9711 35.3782 47.6375 33.0808 54.5001 33.0808C61.3627 33.0808 68.029 35.3782 73.4431 39.609C78.8571 43.8398 82.7091 49.7621 84.389 56.4375C86.0688 63.113 85.4804 70.16 82.7169 76.4621C79.9534 82.7641 75.1728 87.9608 69.1327 91.2289V78.4253C69.1282 74.5334 67.585 70.8024 64.8418 68.0507C62.0985 65.299 58.3793 63.7515 54.5001 63.7478ZM101.807 29.5775C102.674 29.5775 103.522 29.8354 104.243 30.3188C104.964 30.8021 105.526 31.489 105.858 32.2927C106.19 33.0964 106.276 33.9808 106.107 34.834C105.938 35.6872 105.521 36.471 104.907 37.0861C104.294 37.7012 103.513 38.1201 102.663 38.2899C101.812 38.4596 100.931 38.3725 100.13 38.0396C99.3285 37.7066 98.6438 37.1429 98.1621 36.4196C97.6804 35.6962 97.4232 34.8459 97.4232 33.9759C97.424 32.8096 97.8861 31.6913 98.7082 30.8666C99.5302 30.0419 100.645 29.5782 101.807 29.5775ZM60.9261 10.4621L95.7156 30.1551C95.096 31.1438 94.7255 32.2688 94.636 33.4332C94.5464 34.5976 94.7406 35.7664 95.2017 36.8387L82.3244 45.0692C79.3102 40.6089 75.2748 36.938 70.556 34.3638C65.8372 31.7896 60.5723 30.387 55.2022 30.2735V14.4069C56.4103 14.2866 57.5685 13.8618 58.5692 13.1721C59.5699 12.4825 60.3806 11.5503 60.9261 10.4621ZM54.5001 2.81771C55.3672 2.81771 56.2148 3.07567 56.9358 3.55898C57.6568 4.04229 58.2187 4.72923 58.5505 5.53294C58.8824 6.33665 58.9692 7.22103 58.8 8.07424C58.6308 8.92746 58.2133 9.71119 57.6002 10.3263C56.987 10.9415 56.2058 11.3604 55.3554 11.5301C54.505 11.6998 53.6235 11.6127 52.8223 11.2798C52.0213 10.9469 51.3365 10.3831 50.8548 9.6598C50.3731 8.93648 50.1159 8.08608 50.1159 7.21615C50.1167 6.04984 50.5788 4.93151 51.4008 4.1068C52.2229 3.2821 53.3376 2.81845 54.5001 2.81771ZM53.798 14.4069V30.2735C48.4727 30.3842 43.2498 31.7624 38.5593 34.2945C33.8688 36.8267 29.8449 40.4405 26.819 44.8382L13.8996 36.5795C14.305 35.5433 14.4653 34.4268 14.3679 33.3179C14.2704 32.209 13.9178 31.138 13.3379 30.1889L48.1219 10.5016C48.6687 11.5755 49.4743 12.4953 50.4656 13.1774C51.4569 13.8594 52.6024 14.2821 53.798 14.4069ZM7.1928 29.5775C8.0605 29.5747 8.90951 29.8303 9.63232 30.3119C10.3551 30.7935 10.9192 31.4795 11.2532 32.2829C11.5872 33.0864 11.676 33.9712 11.5085 34.8253C11.3409 35.6795 10.9245 36.4645 10.3119 37.0811C9.69931 37.6976 8.91815 38.1179 8.06732 38.2888C7.2165 38.4596 6.33427 38.3734 5.53235 38.0409C4.73044 37.7084 4.0449 37.1446 3.56254 36.421C3.08018 35.6974 2.8227 34.8465 2.82269 33.9759C2.82343 32.812 3.28364 31.6958 4.10264 30.8715C4.92163 30.0472 6.03272 29.5819 7.1928 29.5775ZM5.26052 40.9244C6.74569 41.3398 8.32467 41.2653 9.7644 40.7118C11.2041 40.1583 12.4284 39.1551 13.2565 37.8503L26.0438 46.0216C22.7377 51.2752 20.9453 57.3441 20.865 63.5566C20.7847 69.7691 22.4196 75.8826 25.5888 81.2204L12.7397 89.4312C11.8546 88.3536 10.6768 87.5569 9.34917 87.1378C8.02155 86.7186 6.60121 86.6951 5.26052 87.07V40.9244ZM7.1928 98.4056C6.3257 98.4056 5.47808 98.1477 4.7571 97.6644C4.03613 97.181 3.4742 96.4941 3.14237 95.6904C2.81055 94.8867 2.72373 94.0023 2.89289 93.1491C3.06205 92.2959 3.4796 91.5121 4.09273 90.897C4.70587 90.2819 5.48706 89.863 6.3375 89.6933C7.18794 89.5235 8.06945 89.6106 8.87055 89.9436C9.67165 90.2765 10.3564 90.8402 10.8381 91.5635C11.3198 92.2869 11.577 93.1373 11.577 94.0072C11.5784 94.5859 11.4662 95.1592 11.2465 95.6943C11.0269 96.2294 10.7042 96.7158 10.297 97.1256C9.88981 97.5355 9.40602 97.8607 8.87336 98.0828C8.3407 98.3048 7.76962 98.4193 7.1928 98.4197V98.4056ZM54.5001 125.174C53.3993 125.172 52.3394 124.755 51.5311 124.006C50.7229 123.256 50.2256 122.228 50.1382 121.127C50.0507 120.026 50.3796 118.933 51.0593 118.064C51.739 117.195 52.7197 116.615 53.8064 116.439C53.822 116.613 53.9018 116.774 54.0302 116.892C54.1586 117.01 54.3262 117.075 54.5001 117.075C54.674 117.075 54.8416 117.01 54.97 116.892C55.0984 116.774 55.1782 116.613 55.1938 116.439C56.2805 116.615 57.2612 117.195 57.9409 118.064C58.6206 118.933 58.9494 120.026 58.862 121.127C58.7746 122.228 58.2773 123.256 57.4691 124.006C56.6608 124.755 55.6009 125.172 54.5001 125.174ZM55.2022 113.59V97.735C56.1684 97.7153 57.1261 97.6589 58.0754 97.5575C61.6108 97.1877 65.0642 96.2517 68.3041 94.7849L69.1242 94.4158V94.396C74.7161 91.679 79.4492 87.4621 82.7991 82.2123L95.5921 90.3836C94.8325 91.6829 94.4985 93.1886 94.637 94.6884C94.7756 96.1882 95.3798 97.6066 96.3644 98.7438L61.3445 118.566C60.914 117.227 60.1036 116.044 59.0126 115.16C57.9217 114.276 56.5975 113.731 55.2022 113.59ZM101.807 98.4084C100.94 98.4084 100.093 98.1505 99.3717 97.6672C98.6507 97.1839 98.0888 96.4969 97.7569 95.6932C97.4251 94.8895 97.3383 94.0051 97.5075 93.1519C97.6766 92.2987 98.0942 91.515 98.7073 90.8998C99.3205 90.2847 100.102 89.8658 100.952 89.6961C101.803 89.5264 102.684 89.6135 103.485 89.9464C104.286 90.2793 104.971 90.843 105.453 91.5664C105.934 92.2897 106.192 93.1401 106.192 94.01C106.193 94.5885 106.08 95.1615 105.86 95.6962C105.641 96.231 105.318 96.7171 104.911 97.1266C104.503 97.5362 104.02 97.8612 103.487 98.0831C102.955 98.3049 102.384 98.4193 101.807 98.4197V98.4084Z" fill="white"/>
</g>
<defs>
<clipPath id="clip0_543_1088">
<rect width="109" height="128" fill="white"/>
</clipPath>
</defs>
</svg>
