<svg width="133" height="127" viewBox="0 0 133 127" fill="none" xmlns="http://www.w3.org/2000/svg">
<g clip-path="url(#clip0_543_746)">
<path d="M93.8316 55.4113L82.5855 59.678C82.3999 59.7484 82.25 59.8895 82.1687 60.0702C82.0874 60.251 82.0813 60.4565 82.1519 60.6417C82.2225 60.8269 82.3639 60.9765 82.545 61.0576C82.7262 61.1387 82.9322 61.1448 83.1178 61.0743L94.3638 56.8077C94.5494 56.7373 94.6993 56.5962 94.7806 56.4154C94.8619 56.2347 94.868 56.0291 94.7974 55.844C94.7268 55.6588 94.5854 55.5092 94.4043 55.4281C94.2231 55.3469 94.0171 55.3409 93.8316 55.4113Z" fill="white"/>
<path d="M96.777 81.1603L85.8031 76.2433C85.7122 76.1932 85.6117 76.1625 85.5082 76.1533C85.4047 76.1441 85.3005 76.1566 85.2021 76.1898C85.1037 76.2231 85.0133 76.2764 84.9367 76.3465C84.8601 76.4165 84.799 76.5018 84.7573 76.5967C84.7156 76.6916 84.6941 76.7942 84.6943 76.8979C84.6946 77.0016 84.7164 77.104 84.7586 77.1988C84.8007 77.2936 84.8622 77.3785 84.939 77.4483C85.0159 77.518 85.1065 77.571 85.2051 77.6038L96.179 82.5209C96.27 82.571 96.3704 82.6016 96.4739 82.6108C96.5773 82.62 96.6816 82.6076 96.78 82.5743C96.8784 82.541 96.9688 82.4877 97.0454 82.4176C97.122 82.3476 97.1831 82.2624 97.2248 82.1674C97.2665 82.0725 97.288 81.9699 97.2878 81.8663C97.2875 81.7626 97.2657 81.6601 97.2235 81.5653C97.1814 81.4706 97.1199 81.3856 97.0431 81.3159C96.9662 81.2462 96.8756 81.1932 96.777 81.1603Z" fill="white"/>
<path d="M73.8843 47.9402C73.9783 47.9827 74.0802 48.005 74.1833 48.0058C74.328 48.0059 74.4695 47.9642 74.591 47.8859C74.7125 47.8075 74.8087 47.6958 74.8681 47.5642L79.7929 36.6142C79.8346 36.5247 79.8581 36.4277 79.8619 36.3291C79.8658 36.2304 79.85 36.132 79.8155 36.0394C79.7809 35.9469 79.7283 35.8621 79.6607 35.7901C79.593 35.718 79.5117 35.66 79.4215 35.6195C79.3312 35.5791 79.2338 35.5569 79.1349 35.5542C79.036 35.5516 78.9375 35.5686 78.8452 35.6042C78.7529 35.6398 78.6687 35.6934 78.5973 35.7618C78.5259 35.8301 78.4688 35.912 78.4294 36.0025L73.5016 46.9526C73.4211 47.1342 73.4162 47.3403 73.488 47.5254C73.5598 47.7106 73.7023 47.8598 73.8843 47.9402Z" fill="white"/>
<path d="M77.7683 77.7678C79.3676 75.5463 80.34 72.9371 80.5838 70.2126C80.8276 67.4881 80.334 64.7483 79.1544 62.2792C77.9749 59.81 76.1527 57.7021 73.8781 56.1754C71.6035 54.6488 68.9599 53.7594 66.2233 53.6002L58.1079 36.647C57.8037 36.0161 57.3339 35.479 56.7485 35.0929C56.1631 34.7068 55.4838 34.4861 54.7828 34.454C53.9958 34.4017 53.209 34.559 52.5029 34.9097C51.7967 35.2604 51.1967 35.792 50.764 36.4501L38.3668 55.4143C34.2963 61.5859 28.5997 66.5185 21.9029 69.6702L7.96866 76.2999C1.24973 79.4984 -1.82416 87.0978 1.11219 93.2441L5.93235 103.332C6.65798 104.829 7.69318 106.156 8.96979 107.225C10.2464 108.294 11.7355 109.081 13.339 109.535C14.6002 109.912 15.9097 110.103 17.2262 110.102C18.8188 110.1 20.3997 109.83 21.9029 109.305L31.902 123.704C32.5103 124.894 33.5603 125.8 34.8283 126.229C36.0963 126.657 37.4819 126.575 38.6897 125.999L43.6205 123.651C44.8491 123.063 45.7944 122.014 46.2495 120.733C46.7046 119.452 46.6323 118.043 46.0485 116.815L45.9947 116.705L36.2049 102.586L37.377 102.028C44.0476 98.8206 51.4748 97.5085 58.8435 98.2358L81.4133 100.557C82.1975 100.637 82.9889 100.507 83.7062 100.181C84.4235 99.855 85.0409 99.3442 85.4949 98.7012C85.912 98.1378 86.1683 97.4722 86.2367 96.7751C86.3052 96.078 86.1832 95.3754 85.8836 94.7419L77.7683 77.7678ZM77.7982 62.9301C78.7999 65.0294 79.2538 67.3472 79.1179 69.6684C78.982 71.9895 78.2606 74.2388 77.0208 76.2074L66.9708 55.1756C69.2842 55.4531 71.4898 56.3095 73.3827 57.6652C75.2756 59.0209 76.7945 60.8319 77.7982 62.9301ZM43.4112 118.193C43.624 118.701 43.6331 119.271 43.4367 119.785C43.2402 120.3 42.8532 120.719 42.3557 120.956L37.4219 123.304C36.9075 123.549 36.3169 123.58 35.7798 123.39C35.2427 123.201 34.803 122.806 34.5573 122.293L34.5065 122.183L24.7047 108.07L33.4808 103.893L43.4112 118.193ZM83.0609 96.9856C82.9115 97.1933 82.7098 97.3579 82.4761 97.4627C82.2424 97.5674 81.9851 97.6087 81.7303 97.5823L59.1575 95.2581C51.243 94.4754 43.2654 95.8835 36.1002 99.3278L22.166 105.957C19.6914 107.168 16.8538 107.416 14.2062 106.653C13.0035 106.316 11.886 105.729 10.9269 104.93C9.9678 104.131 9.18893 103.139 8.64145 102.019L6.23137 96.9767L3.82129 91.9313C1.59361 87.2708 4.03658 81.4557 9.26341 78.9673L23.2006 72.3376C30.3921 68.9471 36.5093 63.6464 40.8815 57.0165L53.2788 38.0553C53.4202 37.8406 53.6163 37.6672 53.8469 37.5529C54.0776 37.4386 54.3345 37.3875 54.5915 37.4049C54.7612 37.4063 54.9274 37.4533 55.0726 37.541C55.2178 37.6287 55.3367 37.7538 55.4168 37.9032L83.1835 96.0219C83.2518 96.1792 83.2756 96.3522 83.2524 96.522C83.2292 96.6919 83.1599 96.8522 83.0519 96.9856H83.0609Z" fill="white"/>
<path d="M24.1994 79.8087C24.1128 79.6307 23.9594 79.494 23.7725 79.4281C23.5855 79.3622 23.3801 79.3724 23.2007 79.4567L8.34848 86.528C8.19641 86.6014 8.07377 86.7242 8.00057 86.8761C7.92737 87.0281 7.9079 87.2003 7.94536 87.3647C7.98282 87.5291 8.07501 87.6759 8.20686 87.7814C8.33871 87.8868 8.50245 87.9445 8.67141 87.9452C8.78199 87.9447 8.89114 87.9202 8.99136 87.8736L23.8465 80.8053C24.0249 80.7189 24.162 80.5659 24.2281 80.3793C24.2941 80.1928 24.2838 79.9878 24.1994 79.8087Z" fill="white"/>
<path d="M27.5577 86.8381C27.5157 86.7496 27.4566 86.6702 27.3838 86.6045C27.3109 86.5388 27.2258 86.4881 27.1332 86.4554C27.0407 86.4227 26.9426 86.4085 26.8445 86.4138C26.7465 86.4191 26.6504 86.4436 26.562 86.4861L11.7068 93.5544C11.553 93.6269 11.4286 93.7496 11.3542 93.9022C11.2798 94.0549 11.2597 94.2282 11.2973 94.3937C11.335 94.5593 11.4281 94.707 11.5612 94.8126C11.6944 94.9182 11.8596 94.9754 12.0297 94.9746C12.1407 94.9748 12.2502 94.9492 12.3496 94.9L27.2049 87.8317C27.2936 87.7898 27.3732 87.7309 27.439 87.6582C27.5049 87.5855 27.5556 87.5005 27.5884 87.4082C27.6212 87.3158 27.6354 87.2179 27.6301 87.1201C27.6248 87.0223 27.6002 86.9264 27.5577 86.8381Z" fill="white"/>
<path d="M29.9198 93.5126L15.0676 100.581C14.9138 100.653 14.7895 100.776 14.715 100.929C14.6406 101.081 14.6205 101.255 14.6582 101.42C14.6958 101.586 14.7889 101.733 14.922 101.839C15.0552 101.945 15.2205 102.002 15.3906 102.001C15.5021 102.001 15.6122 101.976 15.7135 101.929L30.5657 94.8612C30.7449 94.7761 30.8829 94.6235 30.9494 94.4369C31.0158 94.2503 31.0053 94.045 30.92 93.8661C30.8348 93.6873 30.6818 93.5496 30.4948 93.4833C30.3078 93.417 30.102 93.4275 29.9228 93.5126H29.9198Z" fill="white"/>
<path d="M115.367 63.867C118.948 63.8656 122.417 62.6254 125.184 60.3578C127.951 58.0901 129.845 54.9353 130.542 51.4309C131.239 47.9264 130.697 44.2892 129.008 41.1388C127.319 37.9884 124.588 35.5199 121.279 34.1537C117.97 32.7875 114.29 32.6083 110.863 33.6465C107.437 34.6848 104.478 36.8762 102.49 39.8476C100.501 42.8189 99.6068 46.3862 99.9588 49.9417C100.311 53.4973 101.887 56.821 104.42 59.3467C105.856 60.7827 107.563 61.9213 109.441 62.697C111.32 63.4728 113.334 63.8704 115.367 63.867ZM120.474 60.4865C117.198 61.8113 113.533 61.8113 110.257 60.4865V54.3401C110.289 53.0095 110.841 51.7442 111.796 50.8145C112.751 49.8848 114.032 49.3644 115.366 49.3644C116.699 49.3644 117.98 49.8848 118.935 50.8145C119.89 51.7442 120.442 53.0095 120.474 54.3401V60.4865ZM105.476 38.5566C106.896 37.1371 108.607 36.04 110.492 35.34C112.376 34.64 114.389 34.3535 116.394 34.5001C118.4 34.6467 120.35 35.2229 122.111 36.1895C123.873 37.156 125.406 38.4902 126.604 40.1012C127.803 41.7121 128.639 43.5619 129.056 45.5245C129.473 47.487 129.461 49.5163 129.021 51.4739C128.582 53.4315 127.724 55.2715 126.507 56.8685C125.29 58.4655 123.742 59.782 121.969 60.7282V54.3401C121.933 52.6168 121.221 50.9764 119.986 49.7706C118.752 48.5647 117.093 47.8894 115.366 47.8894C113.638 47.8894 111.979 48.5647 110.745 49.7706C109.51 50.9764 108.798 52.6168 108.762 54.3401V60.7282C106.837 59.6998 105.181 58.2362 103.925 56.4546C102.669 54.6729 101.848 52.6227 101.528 50.4679C101.209 48.313 101.399 46.1135 102.084 44.0452C102.769 41.9768 103.929 40.0972 105.473 38.5566H105.476Z" fill="white"/>
<path d="M132.997 89.9442C132.997 86.8884 132.089 83.9013 130.387 81.3606C128.686 78.8199 126.268 76.8397 123.438 75.6705C120.609 74.5013 117.496 74.1955 114.492 74.7918C111.489 75.3882 108.73 76.8599 106.565 79.0208C104.399 81.1818 102.925 83.9349 102.328 86.932C101.731 89.929 102.038 93.0355 103.21 95.8585C104.383 98.6814 106.368 101.094 108.914 102.791C111.461 104.489 114.454 105.394 117.517 105.394H117.547C121.646 105.38 125.573 103.747 128.469 100.852C131.364 97.9564 132.992 94.0345 132.997 89.9442ZM112.41 102.905V96.7618C112.41 95.4103 112.948 94.114 113.906 93.1583C114.863 92.2026 116.162 91.6657 117.517 91.6657C118.871 91.6657 120.17 92.2026 121.128 93.1583C122.086 94.114 122.624 95.4103 122.624 96.7618V102.908C121.619 103.318 120.568 103.603 119.493 103.759H119.437C119.245 103.785 119.057 103.809 118.865 103.827L118.548 103.851L118.205 103.875C117.974 103.875 117.747 103.893 117.517 103.893C117.29 103.893 117.065 103.893 116.841 103.875C116.71 103.875 116.581 103.857 116.452 103.848L116.183 103.827C114.887 103.706 113.615 103.395 112.41 102.905ZM124.119 102.246V96.7618C124.119 95.0146 123.424 93.3389 122.185 92.1035C120.947 90.868 119.268 90.1739 117.517 90.1739C115.766 90.1739 114.087 90.868 112.848 92.1035C111.61 93.3389 110.915 95.0146 110.915 96.7618V102.246C108.167 100.778 105.99 98.4355 104.728 95.5916C103.467 92.7476 103.194 89.5646 103.952 86.5481C104.711 83.5316 106.457 80.8543 108.915 78.9414C111.373 77.0285 114.4 75.9896 117.517 75.9896C120.634 75.9896 123.661 77.0285 126.119 78.9414C128.576 80.8543 130.323 83.5316 131.081 86.5481C131.84 89.5646 131.567 92.7476 130.306 95.5916C129.044 98.4355 126.867 100.778 124.119 102.246Z" fill="white"/>
<path d="M90.6174 31.3958H90.6443C94.7535 31.3922 98.6931 29.7605 101.597 26.8593C104.501 23.9581 106.131 20.025 106.129 15.9248C106.127 11.8245 104.494 7.89285 101.587 4.99418C98.6811 2.09551 94.7401 0.467163 90.6309 0.467163C86.5217 0.467163 82.5807 2.09551 79.6745 4.99418C76.7682 7.89285 75.1346 11.8245 75.1328 15.9248C75.131 20.025 76.7612 23.9581 79.665 26.8593C82.5687 29.7605 86.5083 31.3922 90.6174 31.3958ZM85.5072 28.9074V22.7641C85.5395 21.4334 86.0919 20.1682 87.0464 19.2384C88.001 18.3087 89.282 17.7883 90.6159 17.7883C91.9499 17.7883 93.2309 18.3087 94.1854 19.2384C95.14 20.1682 95.6924 21.4334 95.7247 22.7641V28.9104C94.7185 29.3201 93.6662 29.6066 92.591 29.7637H92.5431C92.3487 29.7906 92.1574 29.8144 91.963 29.8323L91.664 29.8562L91.3111 29.8801C91.0839 29.8801 90.8566 29.898 90.6264 29.898C90.3991 29.898 90.1749 29.898 89.9506 29.8801C89.8191 29.8801 89.6905 29.8622 89.5619 29.8532L89.2928 29.8323C87.9921 29.7121 86.7164 29.4004 85.5072 28.9074ZM90.6174 1.99181C93.7343 1.9918 96.7618 3.03072 99.2193 4.94363C101.677 6.85654 103.424 9.53378 104.182 12.5503C104.941 15.5669 104.667 18.7498 103.406 21.5938C102.145 24.4378 99.9674 26.7798 97.2197 28.248V22.7641C97.183 21.0407 96.4711 19.4003 95.2366 18.1945C94.0022 16.9887 92.3434 16.3134 90.6159 16.3134C88.8885 16.3134 87.2297 16.9887 85.9952 18.1945C84.7608 19.4003 84.0489 21.0407 84.0121 22.7641V28.248C81.2643 26.7797 79.0868 24.4374 77.8255 21.5931C76.5641 18.7488 76.2913 15.5656 77.0502 12.5489C77.8091 9.53217 79.5563 6.85493 82.0143 4.94225C84.4724 3.02958 87.5004 1.99113 90.6174 1.99181Z" fill="white"/>
<path d="M115.367 46.7914C116.305 46.7914 117.222 46.5138 118.002 45.9937C118.782 45.4736 119.39 44.7344 119.749 43.8696C120.108 43.0047 120.201 42.0531 120.018 41.1351C119.835 40.2171 119.383 39.3739 118.719 38.7122C118.056 38.0505 117.21 37.6001 116.29 37.4178C115.37 37.2356 114.417 37.3297 113.55 37.6883C112.684 38.047 111.943 38.6539 111.422 39.4325C110.902 40.2111 110.624 41.1263 110.625 42.0623C110.626 43.3166 111.126 44.519 112.015 45.4056C112.905 46.2923 114.11 46.7907 115.367 46.7914ZM115.367 38.8221C116.009 38.8221 116.637 39.0121 117.171 39.3682C117.705 39.7242 118.121 40.2303 118.367 40.8223C118.613 41.4144 118.677 42.0659 118.552 42.6945C118.427 43.323 118.117 43.9004 117.663 44.3536C117.209 44.8067 116.63 45.1153 116 45.2403C115.371 45.3654 114.718 45.3012 114.124 45.0559C113.531 44.8107 113.024 44.3954 112.667 43.8625C112.31 43.3297 112.12 42.7032 112.12 42.0623C112.124 41.2053 112.467 40.3846 113.076 39.7797C113.684 39.1748 114.508 38.8348 115.367 38.834V38.8221Z" fill="white"/>
<path d="M117.517 79.7639C116.579 79.7633 115.661 80.0404 114.881 80.5602C114.101 81.0799 113.492 81.8189 113.133 82.6837C112.774 83.5485 112.68 84.5002 112.862 85.4185C113.045 86.3367 113.497 87.1801 114.16 87.8421C114.824 88.5041 115.669 88.9548 116.589 89.1373C117.51 89.3198 118.463 89.2258 119.33 88.8673C120.197 88.5088 120.937 87.9018 121.458 87.1231C121.979 86.3445 122.257 85.4292 122.256 84.493C122.254 83.2395 121.754 82.038 120.866 81.1517C119.977 80.2653 118.773 79.7663 117.517 79.7639ZM117.517 87.7333C116.874 87.7339 116.246 87.5443 115.712 87.1887C115.178 86.833 114.761 86.3271 114.515 85.7351C114.268 85.1431 114.204 84.4914 114.329 83.8627C114.454 83.234 114.763 82.6563 115.217 82.2029C115.671 81.7494 116.249 81.4405 116.879 81.3152C117.509 81.19 118.162 81.254 118.756 81.4991C119.349 81.7443 119.857 82.1596 120.214 82.6925C120.571 83.2254 120.761 83.852 120.761 84.493C120.76 85.3516 120.418 86.1749 119.81 86.7823C119.202 87.3897 118.377 87.7317 117.517 87.7333Z" fill="white"/>
<path d="M90.6174 15.2274C91.5555 15.2274 92.4725 14.9498 93.2525 14.4297C94.0324 13.9096 94.6403 13.1703 94.9991 12.3055C95.358 11.4406 95.4517 10.489 95.2685 9.571C95.0852 8.65298 94.6333 7.8098 93.9698 7.14813C93.3062 6.48645 92.4609 6.036 91.5408 5.85375C90.6206 5.6715 89.667 5.76563 88.8005 6.12425C87.934 6.48287 87.1935 7.08986 86.6728 7.86844C86.152 8.64702 85.8744 9.56221 85.875 10.4983C85.8766 11.7525 86.3768 12.9549 87.266 13.8416C88.1551 14.7282 89.3604 15.2266 90.6174 15.2274ZM90.6174 7.258C91.2597 7.258 91.8875 7.44804 92.4215 7.80408C92.9555 8.16013 93.3718 8.66619 93.6176 9.25827C93.8633 9.85035 93.9276 10.5018 93.8023 11.1304C93.677 11.7589 93.3678 12.3363 92.9136 12.7895C92.4595 13.2426 91.8808 13.5512 91.2509 13.6763C90.621 13.8013 89.9681 13.7371 89.3747 13.4919C88.7813 13.2466 88.2742 12.8313 87.9174 12.2984C87.5605 11.7656 87.3701 11.1391 87.3701 10.4983C87.3709 9.63913 87.7133 8.81542 88.3221 8.20792C88.9309 7.60043 89.7564 7.25879 90.6174 7.258Z" fill="white"/>
</g>
<defs>
<clipPath id="clip0_543_746">
<rect width="133" height="126" fill="white" transform="translate(0 0.5)"/>
</clipPath>
</defs>
</svg>
