<svg width="106" height="118" viewBox="0 0 106 118" fill="none" xmlns="http://www.w3.org/2000/svg">
<g clip-path="url(#clip0_494_556)">
<path d="M42.4135 49.2616H8.57764C8.40567 49.2616 8.24073 49.1934 8.11912 49.0719C7.99752 48.9505 7.9292 48.7857 7.9292 48.614C7.9292 48.4422 7.99752 48.2775 8.11912 48.156C8.24073 48.0345 8.40567 47.9663 8.57764 47.9663H42.4135C42.5855 47.9663 42.7504 48.0345 42.872 48.156C42.9936 48.2775 43.0619 48.4422 43.0619 48.614C43.0619 48.7857 42.9936 48.9505 42.872 49.0719C42.7504 49.1934 42.5855 49.2616 42.4135 49.2616Z" fill="white"/>
<path d="M29.9608 60.386H8.57764C8.40567 60.386 8.24073 60.3178 8.11912 60.1963C7.99752 60.0749 7.9292 59.9101 7.9292 59.7384C7.9292 59.5666 7.99752 59.4019 8.11912 59.2804C8.24073 59.1589 8.40567 59.0907 8.57764 59.0907H29.9608C30.1327 59.0907 30.2977 59.1589 30.4193 59.2804C30.5409 59.4019 30.6092 59.5666 30.6092 59.7384C30.6092 59.9101 30.5409 60.0749 30.4193 60.1963C30.2977 60.3178 30.1327 60.386 29.9608 60.386Z" fill="white"/>
<path d="M35.1535 71.513H8.57764C8.40567 71.513 8.24073 71.4448 8.11912 71.3233C7.99752 71.2018 7.9292 71.0371 7.9292 70.8653C7.9292 70.6935 7.99752 70.5288 8.11912 70.4074C8.24073 70.2859 8.40567 70.2177 8.57764 70.2177H35.1535C35.3255 70.2177 35.4904 70.2859 35.612 70.4074C35.7336 70.5288 35.802 70.6935 35.802 70.8653C35.802 71.0371 35.7336 71.2018 35.612 71.3233C35.4904 71.4448 35.3255 71.513 35.1535 71.513Z" fill="white"/>
<path d="M29.9608 82.6373H8.57764C8.40567 82.6373 8.24073 82.569 8.11912 82.4476C7.99752 82.3261 7.9292 82.1614 7.9292 81.9896C7.9292 81.8178 7.99752 81.6531 8.11912 81.5316C8.24073 81.4102 8.40567 81.3419 8.57764 81.3419H29.9608C30.1327 81.3419 30.2977 81.4102 30.4193 81.5316C30.5409 81.6531 30.6092 81.8178 30.6092 81.9896C30.6092 82.1614 30.5409 82.3261 30.4193 82.4476C30.2977 82.569 30.1327 82.6373 29.9608 82.6373Z" fill="white"/>
<path d="M54.1218 82.6373H40.3748C40.2028 82.6373 40.0378 82.569 39.9162 82.4476C39.7946 82.3261 39.7263 82.1614 39.7263 81.9896C39.7263 81.8178 39.7946 81.6531 39.9162 81.5316C40.0378 81.4102 40.2028 81.3419 40.3748 81.3419H54.1218C54.2938 81.3419 54.4587 81.4102 54.5803 81.5316C54.7019 81.6531 54.7702 81.8178 54.7702 81.9896C54.7702 82.1614 54.7019 82.3261 54.5803 82.4476C54.4587 82.569 54.2938 82.6373 54.1218 82.6373Z" fill="white"/>
<path d="M51.1105 71.513H43.3888C43.2168 71.513 43.0519 71.4448 42.9303 71.3233C42.8087 71.2018 42.7404 71.0371 42.7404 70.8653C42.7404 70.6935 42.8087 70.5288 42.9303 70.4074C43.0519 70.2859 43.2168 70.2177 43.3888 70.2177H51.1105C51.2825 70.2177 51.4474 70.2859 51.569 70.4074C51.6906 70.5288 51.7589 70.6935 51.7589 70.8653C51.7589 71.0371 51.6906 71.2018 51.569 71.3233C51.4474 71.4448 51.2825 71.513 51.1105 71.513Z" fill="white"/>
<path d="M43.3888 93.7642H8.57764C8.40567 93.7642 8.24073 93.696 8.11912 93.5745C7.99752 93.453 7.9292 93.2883 7.9292 93.1165C7.9292 92.9448 7.99752 92.78 8.11912 92.6586C8.24073 92.5371 8.40567 92.4689 8.57764 92.4689H43.3888C43.5607 92.4689 43.7257 92.5371 43.8473 92.6586C43.9689 92.78 44.0372 92.9448 44.0372 93.1165C44.0372 93.2883 43.9689 93.453 43.8473 93.5745C43.7257 93.696 43.5607 93.7642 43.3888 93.7642Z" fill="white"/>
<path d="M84.8269 59.9974H82.2332V60.0933H84.8269V59.9974Z" fill="white"/>
<path d="M54.0129 104.966H5.06565C3.72234 104.964 2.43468 104.43 1.48505 103.481C0.535431 102.532 0.00137195 101.246 0 99.9041L0 5.55959C0.00137329 4.21812 0.535515 2.93199 1.48521 1.98343C2.43491 1.03487 3.72258 0.501372 5.06565 0.5L79.7665 0.5C81.1067 0.506158 82.39 1.04169 83.3362 1.98966C84.2823 2.93763 84.8146 4.22102 84.8166 5.55959V54.5933H82.2228V5.55959C82.2215 4.90655 81.9617 4.28054 81.5001 3.81804C81.0385 3.35555 80.4125 3.09409 79.7587 3.09067H5.05787C4.40385 3.09341 3.77751 3.35466 3.31578 3.8173C2.85404 4.27994 2.59446 4.90634 2.59378 5.55959V99.9041C2.59378 100.559 2.85413 101.187 3.31762 101.651C3.78111 102.114 4.40983 102.375 5.06565 102.376H54.0129V104.966Z" fill="white"/>
<path d="M79.7587 104.966H65.1376V102.376H79.7587C80.413 102.372 81.0393 102.11 81.501 101.647C81.9626 101.184 82.2221 100.558 82.2228 99.9041V75.772H84.8166V99.9041C84.8145 101.244 84.2813 102.529 83.3335 103.478C82.3857 104.426 81.1005 104.961 79.7587 104.966Z" fill="white"/>
<path d="M22.6956 40.1503H12.6732V20.5104H22.6956V40.1503ZM15.267 37.5596H20.1018V23.101H15.267V37.5596Z" fill="white"/>
<path d="M38.7614 40.1502H28.7365V14.2927H38.7614V40.1502ZM31.3302 37.5596H36.1676V16.8834H31.3302V37.5596Z" fill="white"/>
<path d="M54.8247 40.1503H44.8024V10.1477H54.8247V40.1503ZM47.3961 37.5596H52.231V12.7384H47.3961V37.5596Z" fill="white"/>
<path d="M70.8906 40.1502H60.8656V14.2927H70.8906V40.1502ZM63.4594 37.5596H68.2968V16.8834H63.4594V37.5596Z" fill="white"/>
<path d="M76.2571 40.1502H8.57765C8.23369 40.1502 7.90383 40.0138 7.66061 39.7708C7.4174 39.5279 7.28076 39.1985 7.28076 38.8549C7.28076 38.5114 7.4174 38.1819 7.66061 37.939C7.90383 37.696 8.23369 37.5596 8.57765 37.5596H76.2571C76.6011 37.5596 76.931 37.696 77.1742 37.939C77.4174 38.1819 77.554 38.5114 77.554 38.8549C77.554 39.1985 77.4174 39.5279 77.1742 39.7708C76.931 40.0138 76.6011 40.1502 76.2571 40.1502Z" fill="white"/>
<path d="M55.9063 117.5C54.9786 117.499 54.0644 117.277 53.2399 116.852L52.5344 116.49C51.1559 115.78 50.1155 114.554 49.6413 113.079C49.1672 111.605 49.2982 110.003 50.0055 108.624L70.9373 67.9508L82.0465 73.6503L61.1147 114.324C60.6211 115.279 59.8743 116.08 58.9557 116.64C58.0372 117.199 56.9823 117.496 55.9063 117.497V117.5ZM72.0578 71.4353L52.3114 109.808C51.9181 110.576 51.8456 111.467 52.1096 112.288C52.3736 113.109 52.9526 113.792 53.7198 114.187L54.4253 114.547C54.8052 114.742 55.22 114.86 55.6458 114.895C56.0716 114.931 56.5002 114.882 56.907 114.751C57.3138 114.621 57.6909 114.412 58.0168 114.136C58.3427 113.86 58.6109 113.522 58.8062 113.143L78.5526 74.7695L72.0578 71.4353Z" fill="white"/>
<path d="M87.6231 78.9585C87.1467 78.9583 86.6772 78.8446 86.2536 78.6269L64.4373 67.4274C64.0864 67.2472 63.7744 66.9997 63.5193 66.699C63.2642 66.3983 63.0709 66.0504 62.9505 65.6751C62.83 65.2998 62.7848 64.9044 62.8174 64.5117C62.85 64.1189 62.9597 63.7364 63.1404 63.386L67.957 54.0181C68.322 53.3114 68.9526 52.7781 69.7107 52.5353C70.4688 52.2925 71.2924 52.3599 72.0007 52.7228L93.817 63.9222C94.1679 64.1022 94.4797 64.3495 94.7348 64.6499C94.9899 64.9504 95.1832 65.2981 95.3037 65.6732C95.4241 66.0483 95.4693 66.4434 95.4368 66.836C95.4042 67.2286 95.2945 67.6109 95.1139 67.9611L90.2921 77.3316C90.0387 77.8219 89.6552 78.2332 89.1836 78.5206C88.712 78.808 88.1703 78.9604 87.6179 78.9611L87.6231 78.9585ZM70.6338 54.9792C70.5582 54.9788 70.4839 54.9994 70.4193 55.0387C70.3547 55.0781 70.3023 55.1346 70.2681 55.202L65.4463 64.5725C65.3971 64.6688 65.3881 64.7805 65.4211 64.8834C65.4542 64.9863 65.5266 65.072 65.6226 65.1217L87.4389 76.3212C87.5357 76.3704 87.648 76.3795 87.7514 76.3465C87.8548 76.3135 87.9411 76.2411 87.9914 76.145L92.8132 66.7746C92.8378 66.7268 92.8527 66.6747 92.857 66.6212C92.8613 66.5676 92.8549 66.5138 92.8383 66.4627C92.8217 66.4117 92.7951 66.3644 92.76 66.3237C92.725 66.2829 92.6823 66.2495 92.6343 66.2254L70.8102 55.0233C70.7551 54.9965 70.6951 54.9814 70.6338 54.9792Z" fill="white"/>
<path d="M86.6323 62.8575C86.3851 62.8577 86.1415 62.7991 85.9216 62.6866L77.5929 58.4094C77.4098 58.3164 77.2468 58.1882 77.1135 58.0321C76.9803 57.876 76.8792 57.695 76.8163 57.4997C76.7534 57.3044 76.7298 57.0985 76.7469 56.8941C76.764 56.6896 76.8214 56.4905 76.916 56.3083L78.8743 52.5078C78.9673 52.3249 79.0957 52.1621 79.252 52.029C79.4083 51.8959 79.5895 51.7949 79.785 51.7321C79.9806 51.6692 80.1867 51.6457 80.3914 51.6627C80.5961 51.6798 80.7954 51.7372 80.9778 51.8316L89.3064 56.1088C89.4894 56.202 89.6521 56.3304 89.7851 56.4866C89.9181 56.6428 90.0189 56.8238 90.0816 57.0191C90.1443 57.2144 90.1676 57.4202 90.1503 57.6246C90.133 57.8289 90.0754 58.0279 89.9808 58.2099L88.0251 62.0104C87.8941 62.2665 87.6946 62.4812 87.4487 62.6308C87.2028 62.7803 86.9202 62.8588 86.6323 62.8575ZM79.6939 56.5752L86.1783 59.9094L87.1925 57.9405L80.7081 54.6063L79.6939 56.5752Z" fill="white"/>
<path d="M103.829 94.4093C103.576 94.4097 103.329 94.3363 103.118 94.1983C102.906 94.0602 102.74 93.8634 102.638 93.6321C102.587 93.513 97.2953 81.5337 88.5464 78.2254C88.2361 78.0961 87.9881 77.8514 87.8549 77.543C87.7217 77.2346 87.7136 76.8866 87.8324 76.5724C87.9512 76.2581 88.1875 76.0023 88.4915 75.8587C88.7956 75.7152 89.1436 75.6953 89.462 75.8031C96.1592 78.3342 100.875 85.0207 103.248 89.1606C103.904 83.5881 102.693 78.5933 99.6167 74.272C97.9616 71.9153 95.8436 69.9197 93.3916 68.4067C93.0978 68.2377 92.8819 67.9605 92.7902 67.6344C92.6985 67.3084 92.7384 66.9594 92.9012 66.6623C93.064 66.3652 93.3368 66.1436 93.6612 66.045C93.9856 65.9464 94.3357 65.9786 94.6366 66.1347C94.7948 66.2202 98.5143 68.2772 101.668 72.6762C104.581 76.7358 107.538 83.6347 105.084 93.4326C105.019 93.6952 104.872 93.9306 104.666 94.1058C104.459 94.281 104.203 94.3871 103.933 94.4093H103.829Z" fill="white"/>
<path d="M64.152 65.5467C63.8962 65.5465 63.6463 65.4708 63.4335 65.3291C55.6521 60.1477 42.8155 62.8213 42.6832 62.8498C42.4182 62.9069 42.1419 62.8795 41.8932 62.7716C41.6445 62.6637 41.4359 62.4806 41.2968 62.2482C41.1576 62.0157 41.095 61.7455 41.1175 61.4757C41.1401 61.2058 41.2468 60.9497 41.4227 60.7436C47.9668 53.0544 55.2994 51.4379 60.3002 51.4379C65.716 51.4379 69.5574 53.2513 69.7182 53.342C70.0137 53.4994 70.2368 53.7648 70.3408 54.0827C70.4448 54.4006 70.4216 54.7464 70.2762 55.0476C70.1307 55.3489 69.8742 55.5823 69.5604 55.699C69.2466 55.8156 68.8998 55.8066 68.5925 55.6736C65.9649 54.5725 63.1419 54.0121 60.2924 54.026H60.1939C54.8922 54.0493 50.1196 55.9741 45.967 59.7487C50.7214 59.2721 58.9047 59.2047 64.8653 63.171C65.0969 63.3253 65.2728 63.55 65.3667 63.8119C65.4606 64.0737 65.4676 64.3588 65.3868 64.6249C65.3059 64.8911 65.1414 65.1242 64.9176 65.2897C64.6938 65.4552 64.4227 65.5444 64.1442 65.5441L64.152 65.5467Z" fill="white"/>
</g>
<defs>
<clipPath id="clip0_494_556">
<rect width="106" height="117" fill="white" transform="translate(0 0.5)"/>
</clipPath>
</defs>
</svg>
