<svg width="140" height="140" viewBox="0 0 140 140" fill="none" xmlns="http://www.w3.org/2000/svg">
<g clip-path="url(#clip0_229_4852)">
<path d="M140.003 69.7713C139.948 66.8226 138.754 64.0077 136.668 61.9082C134.582 59.8087 131.763 58.5852 128.794 58.4905C125.825 58.3959 122.933 59.4373 120.716 61.3996C118.498 63.3619 117.125 66.0951 116.88 69.0341H107.851V49.0161C107.851 48.7581 107.783 48.5047 107.653 48.2811C107.523 48.0576 107.337 47.8718 107.112 47.7423C106.967 47.6582 106.808 47.6003 106.643 47.5713L98.158 42.765L103.504 37.4576C105.761 39.4217 108.698 40.4373 111.696 40.2896C114.693 40.1418 117.516 38.8422 119.565 36.6657C121.615 34.4892 122.732 31.6064 122.679 28.6271C122.627 25.6478 121.409 22.8056 119.284 20.7015C117.159 18.5975 114.293 17.3967 111.292 17.353C108.291 17.3093 105.391 18.4263 103.204 20.4676C101.018 22.5089 99.7171 25.3145 99.5768 28.291C99.4364 31.2675 100.468 34.1815 102.452 36.4167L96.8097 42.0191L70.7376 27.2466C70.6656 27.2065 70.59 27.173 70.5119 27.1463V23.4576C73.5133 23.2662 76.3219 21.9232 78.3438 19.7127C80.3657 17.5021 81.4423 14.5974 81.3458 11.6129C81.2494 8.62847 79.9875 5.79826 77.827 3.72096C75.6666 1.64366 72.777 0.482178 69.7695 0.482178C66.762 0.482178 63.8724 1.64366 61.712 3.72096C59.5515 5.79826 58.2896 8.62847 58.1932 11.6129C58.0967 14.5974 59.1733 17.5021 61.1952 19.7127C63.2171 21.9232 66.0257 23.2662 69.027 23.4576V27.3734L43.1392 41.963L37.5411 36.4079C39.5228 34.17 40.5502 31.2545 40.4058 28.2781C40.2614 25.3017 38.9565 22.4978 36.7673 20.4594C34.5781 18.421 31.6761 17.308 28.6752 17.3558C25.6743 17.4036 22.8097 18.6085 20.6875 20.7155C18.5653 22.8226 17.3518 25.6667 17.3036 28.6462C17.2554 31.6256 18.3764 34.5069 20.4295 36.6805C22.4826 38.8541 25.3067 40.1496 28.3045 40.2929C31.3023 40.4363 34.2387 39.4163 36.4927 37.4487L41.7879 42.7179L32.8785 47.7305C32.8507 47.7455 32.8239 47.7622 32.7983 47.7806L32.7211 47.8337L32.6439 47.9015L32.5755 47.9605C32.5488 47.987 32.528 48.0136 32.5043 48.0401C32.4805 48.0666 32.4657 48.0814 32.4478 48.105C32.426 48.1331 32.4062 48.1626 32.3884 48.1934C32.3706 48.2156 32.3547 48.2393 32.3409 48.2642C32.3218 48.2954 32.3049 48.3279 32.2904 48.3615C32.2904 48.388 32.2637 48.4116 32.2548 48.4352C32.2459 48.4588 32.2281 48.5089 32.2162 48.5473C32.2065 48.5702 32.1986 48.5939 32.1924 48.618C32.1924 48.6564 32.1746 48.7006 32.1657 48.7419C32.1568 48.7831 32.1657 48.7831 32.1657 48.8067C32.1628 48.8539 32.1628 48.9011 32.1657 48.9483C32.1642 48.9659 32.1642 48.9837 32.1657 49.0013V69.0194H23.0781C22.8483 66.8066 21.977 64.7075 20.5698 62.9764C19.1626 61.2454 17.2799 59.9567 15.1499 59.2666C13.0199 58.5765 10.734 58.5146 8.56929 59.0884C6.40458 59.6623 4.45394 60.8471 2.95382 62.4995C1.4537 64.1518 0.46848 66.2007 0.117561 68.3978C-0.233358 70.5948 0.0650791 72.8458 0.97673 74.8779C1.88838 76.9099 3.3741 78.6358 5.25381 79.8464C7.13353 81.057 9.32654 81.7003 11.5671 81.6984H11.5879C14.6027 81.6901 17.4956 80.5151 19.6517 78.4228C21.8078 76.3306 23.0572 73.4861 23.1345 70.4937H32.142V91.9654C32.1418 92.2261 32.2113 92.4821 32.3433 92.7074C32.4753 92.9327 32.6651 93.1193 32.8933 93.2481L40.7366 97.671L36.1453 102.256C33.8125 100.371 30.8329 99.4616 27.8366 99.719C24.8403 99.9764 22.0624 101.381 20.0904 103.635C18.1183 105.89 17.1068 108.817 17.2698 111.799C17.4328 114.78 18.7574 117.582 20.9636 119.611C23.1698 121.641 26.0845 122.739 29.0913 122.672C32.098 122.606 34.9609 121.382 37.0746 119.258C39.1882 117.133 40.3868 114.276 40.4167 111.29C40.4467 108.304 39.3057 105.424 37.2352 103.259L42.0849 98.4376L69.027 113.62V116.569C66.1006 116.904 63.4131 118.334 61.5113 120.568C59.6095 122.802 58.6364 125.671 58.79 128.592C58.9436 131.513 60.2125 134.266 62.3383 136.29C64.4641 138.315 67.2871 139.46 70.2328 139.491H70.2536C73.2358 139.394 76.0653 138.158 78.1523 136.041C80.2393 133.924 81.4227 131.088 81.4561 128.126C81.4894 125.164 80.3699 122.303 78.3311 120.14C76.2922 117.977 73.4912 116.678 70.5119 116.515V113.862C70.5302 113.857 70.5481 113.851 70.5654 113.844C70.5892 113.844 70.6129 113.82 70.6367 113.809C70.6604 113.797 70.702 113.782 70.7347 113.764L97.9174 98.4317L102.773 103.256C100.708 105.416 99.5698 108.29 99.6 111.269C99.6303 114.248 100.826 117.098 102.935 119.217C105.044 121.336 107.9 122.558 110.9 122.623C113.899 122.689 116.807 121.594 119.008 119.57C121.209 117.545 122.531 114.75 122.694 111.775C122.856 108.801 121.847 105.88 119.88 103.631C117.913 101.382 115.142 99.9802 112.152 99.7231C109.163 99.4659 106.191 100.373 103.863 102.253L99.2568 97.6768L107.1 93.2539C107.328 93.1252 107.518 92.9386 107.65 92.7133C107.782 92.488 107.852 92.232 107.851 91.9713V70.5084H116.88C117.07 73.4211 118.369 76.1528 120.514 78.1496C122.658 80.1465 125.486 81.2591 128.426 81.262H128.453C131.518 81.2534 134.454 80.0393 136.619 77.8855C138.783 75.7318 140 72.814 140.003 69.7713ZM114.712 37.5136C112.42 38.4035 109.875 38.4035 107.584 37.5136V33.1438C107.584 32.2053 107.96 31.3054 108.628 30.6418C109.296 29.9782 110.203 29.6054 111.148 29.6054C112.093 29.6054 113 29.9782 113.668 30.6418C114.336 31.3054 114.712 32.2053 114.712 33.1438V37.5136ZM104.02 21.7356C105.942 20.0087 108.459 19.0815 111.05 19.1462C113.641 19.2109 116.108 20.2624 117.94 22.0831C119.772 23.9037 120.828 26.3541 120.891 28.9268C120.953 31.4995 120.017 33.9975 118.275 35.9037C117.656 36.5225 116.957 37.0569 116.197 37.493V33.1438C116.197 32.4855 116.066 31.8337 115.812 31.2255C115.559 30.6174 115.187 30.0648 114.718 29.5993C114.249 29.1338 113.693 28.7646 113.08 28.5127C112.467 28.2608 111.811 28.1311 111.148 28.1311C110.485 28.1311 109.828 28.2608 109.216 28.5127C108.603 28.7646 108.047 29.1338 107.578 29.5993C107.109 30.0648 106.737 30.6174 106.484 31.2255C106.23 31.8337 106.099 32.4855 106.099 33.1438V37.49C105.34 37.0535 104.641 36.5202 104.02 35.9037C102.129 34.0243 101.067 31.4767 101.066 28.8202C101.066 26.1638 102.127 23.6157 104.017 21.7356H104.02ZM18.7659 28.8123C18.7618 27.1618 19.1682 25.536 19.949 24.0789C20.7298 22.6219 21.8608 21.3787 23.2417 20.4599C24.6225 19.541 26.2105 18.9749 27.8647 18.8117C29.5188 18.6485 31.188 18.8932 32.724 19.5243C34.26 20.1553 35.6153 21.1531 36.6697 22.4291C37.724 23.705 38.4448 25.2197 38.7679 26.8387C39.0911 28.4576 39.0067 30.1307 38.5223 31.7095C38.0378 33.2883 37.1683 34.7239 35.9908 35.8889C35.3718 36.5078 34.6728 37.0422 33.912 37.4782V33.4386C33.912 32.1092 33.38 30.8342 32.4332 29.8942C31.4864 28.9541 30.2023 28.426 28.8633 28.426C27.5243 28.426 26.2401 28.9541 25.2933 29.8942C24.3465 30.8342 23.8146 32.1092 23.8146 33.4386V37.4988C23.0538 37.0628 22.3547 36.5284 21.7357 35.9096C20.7919 34.9825 20.0431 33.8784 19.5328 32.6616C19.0225 31.4447 18.7608 30.1393 18.7629 28.8211L18.7659 28.8123ZM25.2995 37.7878V33.4386C25.2995 32.5002 25.675 31.6002 26.3433 30.9367C27.0116 30.2731 27.9181 29.9003 28.8633 29.9003C29.8084 29.9003 30.7149 30.2731 31.3832 30.9367C32.0516 31.6002 32.427 32.5002 32.427 33.4386V37.8026C30.1357 38.6925 27.5908 38.6925 25.2995 37.8026V37.7878ZM8.01222 79.5813V75.2174C8.01222 74.2789 8.38768 73.3789 9.05602 72.7154C9.72436 72.0518 10.6308 71.679 11.576 71.679C12.5212 71.679 13.4276 72.0518 14.096 72.7154C14.7643 73.3789 15.1398 74.2789 15.1398 75.2174V79.5842C14.4424 79.855 13.716 80.0449 12.9748 80.1504H12.8679L12.5352 80.1916L12.2858 80.2093L12.066 80.2241C11.9056 80.2241 11.7423 80.2241 11.579 80.2241C11.4186 80.2241 11.2582 80.2241 11.0978 80.2241L10.8603 80.2093L10.6316 80.1916L10.2722 80.1504H10.195C9.44739 80.0467 8.71471 79.8557 8.01222 79.5813ZM16.6247 78.9002V75.2174C16.6247 73.8879 16.0928 72.6129 15.146 71.6729C14.1991 70.7328 12.915 70.2047 11.576 70.2047C10.237 70.2047 8.95285 70.7328 8.00604 71.6729C7.05923 72.6129 6.52731 73.8879 6.52731 75.2174V78.9002C5.01798 78.0381 3.75881 76.8031 2.87214 75.3152C1.98547 73.8273 1.50143 72.137 1.46699 70.4085C1.43256 68.68 1.8489 66.9721 2.67562 65.4505C3.50233 63.929 4.7113 62.6455 6.18512 61.7248C7.65894 60.8042 9.34752 60.2775 11.0869 60.1961C12.8262 60.1147 14.5572 60.4813 16.1117 61.2602C17.6662 62.0391 18.9915 63.2039 19.9587 64.6415C20.9259 66.0791 21.5023 67.7406 21.6318 69.4646C21.5915 69.5578 21.5703 69.6581 21.5694 69.7595C21.5703 69.8804 21.602 69.999 21.6615 70.1045C21.6615 70.1428 21.6615 70.1811 21.6615 70.2195C21.6621 71.9782 21.1968 73.7061 20.3122 75.2298C19.4276 76.7534 18.1548 78.0193 16.6217 78.9002H16.6247ZM25.2936 120.534V116.168C25.2936 115.229 25.669 114.329 26.3374 113.666C27.0057 113.002 27.9122 112.629 28.8573 112.629C29.8025 112.629 30.709 113.002 31.3773 113.666C32.0456 114.329 32.4211 115.229 32.4211 116.168V120.534C31.5762 120.865 30.6883 121.074 29.7839 121.157H29.7245C29.5939 121.157 29.4632 121.177 29.3295 121.183H29.0533H28.8603H28.6465H28.3911C28.2485 121.183 28.0941 121.165 27.9664 121.154H27.9397C27.0315 121.073 26.1395 120.865 25.2906 120.534H25.2936ZM35.9849 118.264C35.3647 118.883 34.6659 119.419 33.906 119.859V116.168C33.906 114.838 33.3741 113.563 32.4273 112.623C31.4805 111.683 30.1963 111.155 28.8573 111.155C27.5183 111.155 26.2342 111.683 25.2874 112.623C24.3406 113.563 23.8087 114.838 23.8087 116.168V119.859C23.0488 119.419 22.35 118.883 21.7298 118.264C19.9491 116.418 18.9459 113.966 18.9253 111.41C18.9047 108.854 19.8683 106.387 21.619 104.513C23.3697 102.638 25.7753 101.499 28.344 101.327C30.9127 101.156 33.4505 101.965 35.4384 103.589C35.4746 103.683 35.5314 103.769 35.6048 103.839C35.6909 103.926 35.7984 103.989 35.9166 104.022L35.9968 104.099C37.8849 105.98 38.9441 108.528 38.9419 111.184C38.9396 113.84 37.8762 116.386 35.9849 118.264ZM107.59 120.534V116.168C107.59 115.229 107.966 114.329 108.634 113.666C109.302 113.002 110.209 112.629 111.154 112.629C112.099 112.629 113.005 113.002 113.674 113.666C114.342 114.329 114.718 115.229 114.718 116.168V120.534C113.873 120.865 112.985 121.074 112.08 121.157H112.018L111.626 121.183H111.347H111.157H110.943H110.688C110.545 121.183 110.391 121.165 110.263 121.154H110.236C109.329 121.073 108.438 120.864 107.59 120.534ZM118.281 104.099C119.375 105.185 120.203 106.507 120.7 107.961C121.198 109.416 121.352 110.964 121.151 112.487C120.95 114.01 120.399 115.467 119.541 116.745C118.683 118.024 117.541 119.089 116.203 119.859V116.168C116.203 115.509 116.072 114.857 115.818 114.249C115.565 113.641 115.193 113.089 114.724 112.623C114.255 112.158 113.698 111.788 113.086 111.536C112.473 111.285 111.817 111.155 111.154 111.155C110.491 111.155 109.834 111.285 109.222 111.536C108.609 111.788 108.053 112.158 107.584 112.623C107.115 113.089 106.743 113.641 106.489 114.249C106.236 114.857 106.105 115.509 106.105 116.168V119.859C104.852 119.151 103.765 118.184 102.92 117.024C102.074 115.864 101.489 114.537 101.203 113.133C100.917 111.73 100.937 110.281 101.263 108.886C101.588 107.491 102.21 106.181 103.088 105.045C103.966 103.908 105.079 102.972 106.352 102.299C107.625 101.625 109.029 101.23 110.468 101.141C111.908 101.051 113.35 101.269 114.698 101.779C116.045 102.289 117.267 103.08 118.281 104.099ZM48.2473 58.9853L68.5162 70.4613V94.4245L48.2502 83.0017L48.2473 58.9853ZM70.0011 67.8164L49.7856 56.42L70.0011 45.0266L90.1692 56.4377L70.0011 67.8164ZM71.486 70.4701L91.7521 59.0472V83.0076L71.486 94.4245V70.4701ZM103.263 49.0662L91.6808 55.6003L70.3783 43.5405C70.2665 43.4775 70.1401 43.4443 70.0115 43.4443C69.8829 43.4443 69.7566 43.4775 69.6448 43.5405L48.2918 55.5767L36.6531 49.019L70.0011 30.2158L103.263 49.0662ZM68.8132 21.9686C68.6915 21.9686 68.5727 21.945 68.4539 21.9273H68.3767C67.6322 21.8223 66.9026 21.6313 66.2028 21.3582V16.9943C66.2028 16.0559 66.5782 15.1559 67.2466 14.4923C67.9149 13.8287 68.8214 13.456 69.7665 13.456C70.7117 13.456 71.6181 13.8287 72.2865 14.4923C72.9548 15.1559 73.3303 16.0559 73.3303 16.9943V21.3494C72.6324 21.6221 71.9048 21.813 71.1623 21.9184H71.0584C70.9455 21.9332 70.8357 21.9479 70.7228 21.9568L70.4734 21.9774L70.2536 21.9922C70.0932 21.9922 69.9299 21.9922 69.7665 21.9922C69.6032 21.9922 69.4428 21.9922 69.2825 21.9922L69.0478 21.9745C68.9706 21.9745 68.8934 21.9715 68.8132 21.9627V21.9686ZM59.6751 11.9993C59.6722 10.2389 60.1363 8.50868 61.0208 6.98281C61.9052 5.45695 63.1787 4.18922 64.7132 3.30713C66.2477 2.42505 67.9891 1.95971 69.7623 1.95794C71.5354 1.95616 73.2778 2.41801 74.8141 3.29702C76.3504 4.17603 77.6265 5.4412 78.514 6.96529C79.4015 8.48938 79.8691 10.2186 79.8698 11.9791C79.8705 13.7396 79.4043 15.4692 78.5181 16.994C77.6318 18.5188 76.3567 19.785 74.8211 20.6653V16.9795C74.8211 15.6501 74.2892 14.3751 73.3424 13.4351C72.3956 12.495 71.1115 11.9669 69.7725 11.9669C68.4335 11.9669 67.1493 12.495 66.2025 13.4351C65.2557 14.3751 64.7238 15.6501 64.7238 16.9795V20.6594C63.1923 19.7801 61.9203 18.5168 61.0353 16.9959C60.1503 15.475 59.6833 13.7499 59.681 11.9934L59.6751 11.9993ZM35.1147 51.5578L46.7594 58.1538V83.438C46.7597 83.5683 46.7948 83.6961 46.861 83.8085C46.9273 83.9209 47.0224 84.0138 47.1365 84.0779L68.5192 96.1259V109.949L35.1207 91.1221L35.1147 51.5578ZM66.666 137.362V132.995C66.666 132.057 67.0415 131.157 67.7098 130.493C68.3782 129.83 69.2847 129.457 70.2298 129.457C71.175 129.457 72.0815 129.83 72.7498 130.493C73.4181 131.157 73.7936 132.057 73.7936 132.995V137.362C73.0972 137.636 72.3704 137.826 71.6286 137.928H71.5247L71.1891 137.967C71.1059 137.967 71.0228 137.967 70.9396 137.984H70.7198C70.5595 137.984 70.3961 137.999 70.2328 137.999C70.0695 137.999 69.9091 137.999 69.7487 137.984H69.5141L69.2854 137.967L68.9231 137.925H68.8489C68.1036 137.822 67.373 137.633 66.672 137.362H66.666ZM80.3272 128.009C80.3249 129.767 79.8572 131.493 78.9711 133.014C78.085 134.536 76.8115 135.799 75.2785 136.678V132.995C75.2785 131.666 74.7466 130.391 73.7998 129.451C72.853 128.511 71.5688 127.983 70.2298 127.983C68.8908 127.983 67.6067 128.511 66.6599 129.451C65.7131 130.391 65.1811 131.666 65.1811 132.995V136.678C63.324 135.602 61.8611 133.966 61.0056 132.007C60.1501 130.049 59.9467 127.87 60.4249 125.789C60.903 123.708 62.0379 121.832 63.6642 120.436C65.2905 119.039 67.3232 118.195 69.4666 118.025C69.5694 118.07 69.6814 118.091 69.7938 118.086C69.9062 118.081 70.0158 118.05 70.114 117.996H70.2269C72.9023 117.996 75.468 119.051 77.3607 120.929C79.2533 122.806 80.3181 125.353 80.3212 128.009H80.3272ZM71.486 109.943V96.12L92.8687 84.072C92.9829 84.0079 93.0779 83.915 93.1442 83.8026C93.2104 83.6902 93.2455 83.5624 93.2459 83.4322V58.2069L104.891 51.6433V91.1221L71.486 109.943ZM124.865 79.1213V74.7574C124.865 73.8189 125.241 72.919 125.909 72.2554C126.578 71.5918 127.484 71.219 128.429 71.219C129.374 71.219 130.281 71.5918 130.949 72.2554C131.618 72.919 131.993 73.8189 131.993 74.7574V79.1242C131.295 79.3947 130.567 79.5846 129.825 79.6904H129.724L129.397 79.7317L129.148 79.7494H128.931C128.768 79.7494 128.607 79.7494 128.441 79.7494C128.278 79.7494 128.117 79.7494 127.96 79.7494H127.722L127.494 79.7317L127.131 79.6904H127.057C126.306 79.5881 125.571 79.3971 124.865 79.1213ZM133.478 78.4402V74.7574C133.478 73.4279 132.946 72.153 131.999 71.2129C131.052 70.2729 129.768 69.7448 128.429 69.7448C127.09 69.7448 125.806 70.2729 124.859 71.2129C123.913 72.153 123.381 73.4279 123.381 74.7574V78.4402C121.848 77.5619 120.576 76.2993 119.689 74.779C118.803 73.2586 118.335 71.5337 118.332 69.7772C118.331 68.0171 118.796 66.2877 119.681 64.7628C120.567 63.2379 121.841 61.9714 123.376 61.0905C124.911 60.2096 126.652 59.7454 128.425 59.7446C130.197 59.7438 131.939 60.2064 133.475 61.0859C135.01 61.9654 136.286 63.2308 137.172 64.7549C138.059 66.2789 138.526 68.0079 138.527 69.768C138.527 71.5281 138.061 73.2573 137.174 74.7817C136.288 76.3061 135.013 77.5719 133.478 78.452V78.4402Z" fill="white"/>
<path d="M111.151 27.8364C111.879 27.837 112.591 27.6232 113.196 27.2222C113.802 26.8211 114.274 26.2507 114.553 25.5832C114.832 24.9157 114.905 24.1811 114.763 23.4722C114.622 22.7633 114.272 22.1121 113.757 21.6009C113.243 21.0896 112.587 20.7414 111.873 20.6002C111.159 20.459 110.419 20.5312 109.747 20.8076C109.074 21.084 108.499 21.5523 108.095 22.1531C107.69 22.754 107.475 23.4604 107.475 24.1831C107.476 25.151 107.864 26.0789 108.553 26.7636C109.242 27.4483 110.176 27.8341 111.151 27.8364ZM111.151 22.007C111.586 22.0065 112.01 22.1338 112.372 22.373C112.733 22.6123 113.015 22.9525 113.181 23.3508C113.348 23.7491 113.391 24.1875 113.307 24.6104C113.222 25.0334 113.013 25.4219 112.706 25.7269C112.399 26.0318 112.008 26.2394 111.582 26.3233C111.156 26.4073 110.714 26.3639 110.313 26.1986C109.912 26.0333 109.569 25.7536 109.328 25.3948C109.087 25.036 108.959 24.6143 108.96 24.1831C108.959 23.6049 109.189 23.0501 109.6 22.6404C110.011 22.2307 110.569 21.9998 111.151 21.9982V22.007Z" fill="white"/>
<path d="M28.8515 28.1106C29.5792 28.1106 30.2906 27.8963 30.8957 27.4949C31.5009 27.0935 31.9725 26.5229 32.251 25.8553C32.5295 25.1878 32.6024 24.4532 32.4604 23.7445C32.3184 23.0359 31.9679 22.3849 31.4533 21.874C30.9387 21.3631 30.2831 21.0151 29.5693 20.8742C28.8556 20.7332 28.1157 20.8055 27.4434 21.0821C26.771 21.3586 26.1963 21.8268 25.792 22.4276C25.3877 23.0284 25.1719 23.7347 25.1719 24.4573C25.1734 25.4257 25.5616 26.354 26.2514 27.0388C26.9411 27.7236 27.8761 28.109 28.8515 28.1106ZM28.8515 22.2812C29.2857 22.2812 29.7101 22.4091 30.0711 22.6486C30.4321 22.8882 30.7134 23.2287 30.8794 23.627C31.0454 24.0254 31.0887 24.4636 31.0038 24.8864C30.9189 25.3092 30.7095 25.6974 30.4023 26.0021C30.0951 26.3067 29.7037 26.514 29.2778 26.5977C28.8519 26.6815 28.4105 26.6379 28.0095 26.4725C27.6086 26.3071 27.266 26.0274 27.0252 25.6687C26.7844 25.3099 26.6562 24.8884 26.6568 24.4573C26.6584 23.8801 26.8902 23.3271 27.3015 22.9192C27.7128 22.5114 28.2702 22.282 28.8515 22.2812Z" fill="white"/>
<path d="M111.151 110.845C111.879 110.846 112.591 110.632 113.197 110.231C113.802 109.83 114.274 109.259 114.553 108.592C114.832 107.924 114.905 107.189 114.763 106.48C114.621 105.771 114.271 105.12 113.756 104.609C113.241 104.098 112.585 103.75 111.871 103.609C111.157 103.468 110.417 103.541 109.745 103.817C109.072 104.094 108.498 104.563 108.093 105.164C107.689 105.766 107.474 106.472 107.475 107.195C107.476 108.163 107.864 109.09 108.553 109.775C109.242 110.459 110.177 110.844 111.151 110.845ZM111.151 105.016C111.585 105.015 112.01 105.143 112.371 105.382C112.733 105.621 113.014 105.961 113.181 106.359C113.348 106.757 113.391 107.195 113.307 107.618C113.223 108.041 113.014 108.43 112.707 108.735C112.4 109.04 112.009 109.248 111.583 109.332C111.158 109.416 110.716 109.373 110.315 109.209C109.914 109.044 109.571 108.764 109.33 108.406C109.088 108.048 108.96 107.626 108.96 107.195C108.96 106.618 109.191 106.065 109.602 105.656C110.013 105.248 110.57 105.018 111.151 105.016Z" fill="white"/>
<path d="M28.8515 103.542C28.1237 103.542 27.4123 103.756 26.8072 104.157C26.2021 104.559 25.7305 105.129 25.452 105.797C25.1735 106.465 25.1006 107.199 25.2426 107.908C25.3846 108.616 25.735 109.267 26.2496 109.778C26.7642 110.289 27.4198 110.637 28.1336 110.778C28.8474 110.919 29.5872 110.847 30.2596 110.57C30.932 110.294 31.5066 109.826 31.9109 109.225C32.3153 108.624 32.5311 107.918 32.5311 107.195C32.5295 106.227 32.1413 105.298 31.4516 104.613C30.7619 103.929 29.8269 103.543 28.8515 103.542ZM28.8515 109.371C28.4173 109.371 27.9928 109.243 27.6319 109.004C27.2709 108.764 26.9896 108.424 26.8236 108.025C26.6575 107.627 26.6143 107.189 26.6992 106.766C26.7841 106.343 26.9934 105.955 27.3006 105.65C27.6079 105.346 27.9992 105.138 28.4251 105.055C28.8511 104.971 29.2924 105.014 29.6934 105.18C30.0944 105.345 30.4369 105.625 30.6777 105.984C30.9185 106.342 31.0468 106.764 31.0462 107.195C31.0446 107.772 30.8128 108.325 30.4014 108.733C29.9901 109.141 29.4328 109.37 28.8515 109.371Z" fill="white"/>
<path d="M128.427 62.1316C127.699 62.1316 126.987 62.3458 126.382 62.7473C125.777 63.1487 125.306 63.7193 125.027 64.3868C124.749 65.0544 124.676 65.789 124.818 66.4976C124.96 67.2063 125.31 67.8573 125.825 68.3682C126.339 68.8791 126.995 69.2271 127.709 69.368C128.423 69.509 129.162 69.4366 129.835 69.1601C130.507 68.8836 131.082 68.4154 131.486 67.8146C131.89 67.2138 132.106 66.5075 132.106 65.7849C132.105 64.8162 131.718 63.8875 131.028 63.2025C130.338 62.5175 129.402 62.1324 128.427 62.1316ZM128.427 67.961C127.992 67.961 127.568 67.8331 127.207 67.5935C126.846 67.354 126.565 67.0135 126.399 66.6151C126.233 66.2168 126.189 65.7785 126.274 65.3558C126.359 64.933 126.569 64.5447 126.876 64.2401C127.183 63.9355 127.574 63.7282 128 63.6445C128.426 63.5607 128.868 63.6043 129.269 63.7697C129.67 63.935 130.012 64.2148 130.253 64.5735C130.494 64.9322 130.622 65.3538 130.621 65.7849C130.621 66.3623 130.389 66.9158 129.978 67.3238C129.566 67.7318 129.008 67.961 128.427 67.961Z" fill="white"/>
<path d="M11.5761 62.5916C10.8482 62.591 10.1365 62.8047 9.53105 63.2058C8.92555 63.6069 8.45345 64.1773 8.17449 64.8448C7.89554 65.5123 7.82226 66.2469 7.9639 66.9558C8.10554 67.6647 8.45575 68.3159 8.97024 68.8271C9.48472 69.3383 10.1404 69.6866 10.8542 69.8278C11.5681 69.969 12.3081 69.8968 12.9806 69.6204C13.6531 69.344 14.228 68.8757 14.6324 68.2748C15.0369 67.674 15.2528 66.9676 15.2528 66.2449C15.2512 65.2769 14.8634 64.3491 14.1743 63.6643C13.4853 62.9796 12.551 62.5939 11.5761 62.5916ZM11.5761 68.4209C11.1418 68.4215 10.7171 68.2942 10.3557 68.0549C9.99433 67.8157 9.71257 67.4754 9.54609 67.0772C9.37961 66.6789 9.33591 66.2405 9.42049 65.8175C9.50508 65.3946 9.71416 65.006 10.0213 64.7011C10.3284 64.3962 10.7197 64.1886 11.1457 64.1046C11.5717 64.0207 12.0132 64.064 12.4144 64.2293C12.8155 64.3946 13.1583 64.6744 13.3992 65.0332C13.6401 65.392 13.7684 65.8137 13.7679 66.2449C13.7671 66.8218 13.5359 67.3748 13.125 67.7827C12.7142 68.1906 12.1572 68.4202 11.5761 68.4209Z" fill="white"/>
<path d="M69.7694 11.6575C70.4973 11.658 71.209 11.4443 71.8145 11.0432C72.42 10.6421 72.8921 10.0718 73.171 9.40425C73.45 8.73675 73.5233 8.0021 73.3816 7.29323C73.24 6.58437 72.8898 5.93313 72.3753 5.42191C71.8608 4.91068 71.2052 4.56245 70.4913 4.42125C69.7775 4.28004 69.0375 4.35222 68.3649 4.62864C67.6924 4.90506 67.1175 5.37332 66.7131 5.97416C66.3086 6.57501 66.0928 7.28146 66.0928 8.00414C66.0943 8.97208 66.4821 9.89997 67.1712 10.5847C67.8603 11.2694 68.7945 11.6551 69.7694 11.6575ZM69.7694 5.82808C70.2037 5.82749 70.6284 5.95487 70.9898 6.19408C71.3512 6.43329 71.6329 6.77358 71.7994 7.17186C71.9659 7.57015 72.0096 8.00852 71.925 8.43148C71.8404 8.85444 71.6314 9.24298 71.3242 9.54789C71.0171 9.85281 70.6258 10.0604 70.1998 10.1444C69.7738 10.2284 69.3323 10.185 68.9311 10.0197C68.53 9.85439 68.1872 9.57464 67.9463 9.21585C67.7054 8.85706 67.5771 8.43536 67.5777 8.00414C67.5792 7.42749 67.8107 6.87491 68.2213 6.46715C68.632 6.0594 69.1886 5.82963 69.7694 5.82808Z" fill="white"/>
<path d="M66.5537 124.023C66.5537 124.745 66.7695 125.452 67.1738 126.052C67.5781 126.653 68.1528 127.121 68.8252 127.398C69.4975 127.674 70.2374 127.747 70.9512 127.606C71.6649 127.465 72.3206 127.117 72.8352 126.606C73.3498 126.095 73.7002 125.444 73.8422 124.735C73.9842 124.027 73.9113 123.292 73.6328 122.625C73.3543 121.957 72.8827 121.387 72.2776 120.985C71.6725 120.584 70.9611 120.369 70.2333 120.369C69.2579 120.371 68.3229 120.756 67.6332 121.441C66.9435 122.126 66.5553 123.054 66.5537 124.023ZM70.2333 121.844C70.6674 121.844 71.0917 121.971 71.4526 122.211C71.8135 122.45 72.0948 122.791 72.2609 123.189C72.4271 123.587 72.4705 124.025 72.3858 124.448C72.3011 124.87 72.0921 125.259 71.7852 125.564C71.4782 125.868 71.0872 126.076 70.6615 126.16C70.2357 126.244 69.7945 126.201 69.3934 126.036C68.9924 125.871 68.6496 125.592 68.4085 125.233C68.1673 124.875 68.0386 124.454 68.0386 124.023C68.0394 123.445 68.2709 122.891 68.6823 122.483C69.0937 122.074 69.6515 121.844 70.2333 121.844Z" fill="white"/>
</g>
<defs>
<clipPath id="clip0_229_4852">
<rect width="140" height="139" fill="white" transform="translate(0 0.5)"/>
</clipPath>
</defs>
</svg>
