<svg width="125" height="86" viewBox="0 0 125 86" fill="none" xmlns="http://www.w3.org/2000/svg">
<g clip-path="url(#clip0_543_1074)">
<path d="M115.881 0.5H23.4549C21.3492 0.510902 19.3114 1.23916 17.6838 2.56245C16.0562 3.88574 14.9379 5.72346 14.5168 7.76695C12.7506 8.12206 11.1292 8.98469 9.85507 10.2471C8.58094 11.5095 7.71058 13.1158 7.35269 14.8652C5.28948 15.2823 3.43404 16.3899 2.09798 18.0019C0.761923 19.614 0.0266323 21.6323 0.015625 23.7179V76.4786C0.0183991 78.8724 0.979762 81.1674 2.6888 82.8602C4.39784 84.5529 6.715 85.505 9.13194 85.5078H101.542C103.649 85.4998 105.688 84.7726 107.316 83.4488C108.944 82.125 110.062 80.2856 110.48 78.2408C112.246 77.8859 113.867 77.0237 115.141 75.7617C116.416 74.4998 117.286 72.8941 117.644 71.1452C119.709 70.7308 121.566 69.6239 122.903 68.0113C124.239 66.3986 124.973 64.3788 124.982 62.2925V9.51881C124.977 7.12924 124.017 4.83884 122.311 3.14868C120.606 1.45851 118.294 0.506172 115.881 0.5ZM101.542 82.9021H9.11622C7.39584 82.9 5.74636 82.2229 4.52889 81.019C3.31142 79.8151 2.62513 78.1825 2.62028 76.4786V23.7283C2.62658 22.1266 3.2337 20.5843 4.32374 19.4011C5.41377 18.2179 6.90892 17.4782 8.51876 17.3256H8.60524H8.62358C8.77557 17.3126 8.93803 17.3048 9.11622 17.3048H101.542C103.264 17.3069 104.915 17.9854 106.133 19.1915C107.351 20.3977 108.036 22.0329 108.038 23.7387V76.4786C108.04 76.6415 108.033 76.8043 108.017 76.9665V77.1067C107.853 78.6947 107.1 80.166 105.904 81.2363C104.708 82.3067 103.154 82.9001 101.542 82.9021ZM115.205 69.3673C115.205 69.5412 115.205 69.7047 115.184 69.8734C115.076 71.1503 114.589 72.3668 113.783 73.3689C112.977 74.371 111.888 75.1136 110.656 75.5027V23.7283C110.65 21.3367 109.688 19.0447 107.98 17.3543C106.272 15.664 103.957 14.7129 101.542 14.7095H10.091C10.4869 13.4871 11.24 12.4086 12.2549 11.6102C13.2699 10.8119 14.5012 10.3298 15.7929 10.2247C15.9423 10.2118 16.11 10.204 16.2829 10.204H108.712C110.434 10.206 112.085 10.8845 113.303 12.0907C114.52 13.2968 115.205 14.9321 115.208 16.6378L115.205 69.3673ZM122.374 62.2691C122.368 63.6368 121.925 64.9674 121.108 66.0698C120.29 67.1722 119.141 67.9896 117.825 68.4045V16.6274C117.823 14.2336 116.861 11.9386 115.152 10.2459C113.443 8.55317 111.126 7.60101 108.709 7.59826H17.2577C17.6765 6.29465 18.5022 5.15629 19.6159 4.3471C20.7295 3.5379 22.0737 3.09962 23.4549 3.09534H115.884C117.604 3.0974 119.253 3.77456 120.47 4.97853C121.687 6.1825 122.373 7.81512 122.377 9.51881L122.374 62.2691Z" fill="white"/>
<path d="M82.8461 55.9521C86.6757 55.9493 90.3602 54.5006 93.149 51.901C95.9377 49.3014 97.6209 45.7465 97.8557 41.9606L97.8976 41.2728H82.626V26.1498L81.9316 26.1913C78.0327 26.4307 74.3808 28.1634 71.7489 31.0226C69.1171 33.8819 67.7119 37.6432 67.8307 41.5105C67.9495 45.3778 69.5831 49.0476 72.3856 51.743C75.1881 54.4384 78.9397 55.948 82.8461 55.9521ZM81.3158 27.5461V42.5705H96.4904C96.2029 45.1147 95.1961 47.5268 93.5857 49.5294C91.9753 51.5319 89.8269 53.0434 87.3875 53.8901C84.9482 54.7367 82.317 54.8841 79.7969 54.3152C77.2767 53.7463 74.9699 52.4843 73.1418 50.6744C71.3138 48.8644 70.0388 46.5801 69.4635 44.0842C68.8883 41.5883 69.0362 38.9823 69.8902 36.5659C70.7441 34.1496 72.2695 32.0211 74.2908 30.4255C76.3121 28.8298 78.7472 27.8317 81.3158 27.5461Z" fill="white"/>
<path d="M85.0758 27.4266C88.074 27.6075 90.9017 28.8687 93.0256 30.9723C95.1496 33.0759 96.4229 35.8766 96.6055 38.8461C96.6142 38.9944 96.6799 39.1338 96.789 39.2356C96.8982 39.3374 97.0425 39.394 97.1925 39.3938H97.2265C97.3823 39.3837 97.5277 39.3132 97.6313 39.1976C97.7348 39.0819 97.7881 38.9304 97.7794 38.7761C97.5793 35.5202 96.1829 32.4495 93.8536 30.1435C91.5244 27.8374 88.4235 26.4556 85.1361 26.2587C85.059 26.2541 84.9818 26.2646 84.9088 26.2896C84.8358 26.3146 84.7685 26.3535 84.7107 26.4042C84.6529 26.455 84.6058 26.5165 84.572 26.5853C84.5382 26.654 84.5184 26.7287 84.5138 26.8051C84.5091 26.8814 84.5197 26.9579 84.5449 27.0302C84.5701 27.1025 84.6094 27.1692 84.6606 27.2264C84.7119 27.2836 84.774 27.3303 84.8434 27.3638C84.9129 27.3973 84.9883 27.4169 85.0653 27.4215L85.0758 27.4266Z" fill="white"/>
<path d="M97.203 60.8287H62.5118C62.35 60.8212 62.1884 60.8463 62.0366 60.9024C61.8849 60.9586 61.7463 61.0446 61.6291 61.1554C61.5119 61.2661 61.4186 61.3993 61.3549 61.5468C61.2912 61.6943 61.2583 61.853 61.2583 62.0135C61.2583 62.1739 61.2912 62.3326 61.3549 62.4801C61.4186 62.6276 61.5119 62.7608 61.6291 62.8715C61.7463 62.9823 61.8849 63.0683 62.0366 63.1245C62.1884 63.1807 62.35 63.2057 62.5118 63.1982H97.203C97.3648 63.2057 97.5265 63.1807 97.6782 63.1245C97.8299 63.0683 97.9686 62.9823 98.0858 62.8715C98.2029 62.7608 98.2962 62.6276 98.36 62.4801C98.4237 62.3326 98.4566 62.1739 98.4566 62.0135C98.4566 61.853 98.4237 61.6943 98.36 61.5468C98.2962 61.3993 98.2029 61.2661 98.0858 61.1554C97.9686 61.0446 97.8299 60.9586 97.6782 60.9024C97.5265 60.8463 97.3648 60.8212 97.203 60.8287Z" fill="white"/>
<path d="M88.4406 67.3275H62.525C62.3632 67.32 62.2016 67.3451 62.0498 67.4012C61.8981 67.4574 61.7594 67.5434 61.6423 67.6542C61.5251 67.7649 61.4318 67.8981 61.3681 68.0456C61.3043 68.1931 61.2715 68.3518 61.2715 68.5122C61.2715 68.6727 61.3043 68.8314 61.3681 68.9789C61.4318 69.1264 61.5251 69.2595 61.6423 69.3703C61.7594 69.4811 61.8981 69.5671 62.0498 69.6233C62.2016 69.6794 62.3632 69.7045 62.525 69.697H88.4406C88.6024 69.7045 88.764 69.6794 88.9157 69.6233C89.0675 69.5671 89.2061 69.4811 89.3233 69.3703C89.4405 69.2595 89.5338 69.1264 89.5975 68.9789C89.6612 68.8314 89.6941 68.6727 89.6941 68.5122C89.6941 68.3518 89.6612 68.1931 89.5975 68.0456C89.5338 67.8981 89.4405 67.7649 89.3233 67.6542C89.2061 67.5434 89.0675 67.4574 88.9157 67.4012C88.764 67.3451 88.6024 67.32 88.4406 67.3275Z" fill="white"/>
<path d="M88.4406 73.8261H62.525C62.3632 73.8186 62.2016 73.8437 62.0498 73.8999C61.8981 73.956 61.7594 74.0421 61.6423 74.1528C61.5251 74.2636 61.4318 74.3967 61.3681 74.5442C61.3043 74.6917 61.2715 74.8505 61.2715 75.0109C61.2715 75.1713 61.3043 75.3301 61.3681 75.4776C61.4318 75.6251 61.5251 75.7582 61.6423 75.869C61.7594 75.9797 61.8981 76.0658 62.0498 76.1219C62.2016 76.1781 62.3632 76.2032 62.525 76.1957H88.4406C88.6024 76.2032 88.764 76.1781 88.9157 76.1219C89.0675 76.0658 89.2061 75.9797 89.3233 75.869C89.4405 75.7582 89.5338 75.6251 89.5975 75.4776C89.6612 75.3301 89.6941 75.1713 89.6941 75.0109C89.6941 74.8505 89.6612 74.6917 89.5975 74.5442C89.5338 74.3967 89.4405 74.2636 89.3233 74.1528C89.2061 74.0421 89.0675 73.956 88.9157 73.8999C88.764 73.8437 88.6024 73.8186 88.4406 73.8261Z" fill="white"/>
<path d="M62.0348 28.073C62.0341 27.7588 61.9076 27.4578 61.6831 27.236C61.4586 27.0141 61.1544 26.8895 60.8373 26.8895H10.526C10.3642 26.882 10.2025 26.9071 10.0508 26.9632C9.89907 27.0194 9.76042 27.1054 9.64324 27.2162C9.52606 27.3269 9.43278 27.4601 9.36905 27.6076C9.30531 27.7551 9.27246 27.9138 9.27246 28.0743C9.27246 28.2347 9.30531 28.3934 9.36905 28.5409C9.43278 28.6884 9.52606 28.8216 9.64324 28.9323C9.76042 29.0431 9.89907 29.1291 10.0508 29.1853C10.2025 29.2414 10.3642 29.2665 10.526 29.259H60.8373C61.1549 29.259 61.4595 29.1341 61.684 28.9116C61.9086 28.6892 62.0348 28.3875 62.0348 28.073Z" fill="white"/>
<path d="M10.5313 35.7577H48.1128C48.2746 35.7652 48.4363 35.7401 48.588 35.6839C48.7397 35.6278 48.8784 35.5417 48.9956 35.431C49.1128 35.3202 49.206 35.1871 49.2698 35.0396C49.3335 34.8921 49.3664 34.7333 49.3664 34.5729C49.3664 34.4125 49.3335 34.2537 49.2698 34.1062C49.206 33.9588 49.1128 33.8256 48.9956 33.7148C48.8784 33.6041 48.7397 33.518 48.588 33.4619C48.4363 33.4057 48.2746 33.3806 48.1128 33.3881H10.5313C10.3695 33.3806 10.2079 33.4057 10.0562 33.4619C9.90443 33.518 9.76579 33.6041 9.64861 33.7148C9.53143 33.8256 9.43815 33.9588 9.37442 34.1062C9.31069 34.2537 9.27783 34.4125 9.27783 34.5729C9.27783 34.7333 9.31069 34.8921 9.37442 35.0396C9.43815 35.1871 9.53143 35.3202 9.64861 35.431C9.76579 35.5417 9.90443 35.6278 10.0562 35.6839C10.2079 35.7401 10.3695 35.7652 10.5313 35.7577Z" fill="white"/>
<path d="M10.5313 42.2565H48.1128C48.2746 42.264 48.4363 42.2389 48.588 42.1827C48.7397 42.1266 48.8784 42.0405 48.9956 41.9298C49.1128 41.819 49.206 41.6858 49.2698 41.5384C49.3335 41.3909 49.3664 41.2321 49.3664 41.0717C49.3664 40.9113 49.3335 40.7525 49.2698 40.605C49.206 40.4575 49.1128 40.3244 48.9956 40.2136C48.8784 40.1029 48.7397 40.0168 48.588 39.9607C48.4363 39.9045 48.2746 39.8794 48.1128 39.8869H10.5313C10.3695 39.8794 10.2079 39.9045 10.0562 39.9607C9.90443 40.0168 9.76579 40.1029 9.64861 40.2136C9.53143 40.3244 9.43815 40.4575 9.37442 40.605C9.31069 40.7525 9.27783 40.9113 9.27783 41.0717C9.27783 41.2321 9.31069 41.3909 9.37442 41.5384C9.43815 41.6858 9.53143 41.819 9.64861 41.9298C9.76579 42.0405 9.90443 42.1266 10.0562 42.1827C10.2079 42.2389 10.3695 42.264 10.5313 42.2565Z" fill="white"/>
<path d="M51.9804 50.6965C51.1933 50.6963 50.425 50.9346 49.7788 51.3796C49.1326 51.8246 48.6393 52.4548 48.3654 53.1856C48.0915 53.9164 48.05 54.7128 48.2466 55.4676C48.4431 56.2225 48.8682 56.8996 49.4648 57.4081L42.4763 65.9338C41.6933 65.4918 40.7786 65.3357 39.8914 65.4926C39.0042 65.6496 38.2007 66.1097 37.6207 66.7928L28.659 60.8495C29.001 60.2664 29.1811 59.6039 29.1809 58.9295C29.1807 58.2551 29.0003 57.5927 28.6579 57.0098C28.3156 56.4268 27.8235 55.9439 27.2318 55.6103C26.64 55.2767 25.9696 55.1042 25.2887 55.1103C24.6078 55.1165 23.9407 55.301 23.3551 55.6452C22.7695 55.9894 22.2864 56.481 21.9548 57.0701C21.6232 57.6591 21.4549 58.3246 21.4671 58.9989C21.4793 59.6732 21.6715 60.3323 22.0242 60.9092L14.6504 65.9961C13.9117 65.382 12.9673 65.0648 12.0038 65.1071C11.0403 65.1493 10.1279 65.548 9.44688 66.2243C8.76584 66.9006 8.36572 67.8054 8.3256 68.7598C8.28549 69.7141 8.60827 70.6487 9.2302 71.3787C9.85212 72.1088 10.7279 72.5812 11.6845 72.7027C12.6411 72.8241 13.6089 72.5857 14.3966 72.0346C15.1843 71.4835 15.7346 70.6598 15.9388 69.7263C16.143 68.7927 15.9862 67.8173 15.4994 66.9927L22.8915 61.8902C23.5874 62.4528 24.4601 62.7566 25.3583 62.749C26.2566 62.7414 27.1239 62.423 27.81 61.8487L36.9551 67.914C36.7162 68.5455 36.6503 69.2284 36.7642 69.8932C36.878 70.5581 37.1675 71.1812 37.6032 71.6994C38.0389 72.2176 38.6054 72.6123 39.245 72.8434C39.8846 73.0746 40.5746 73.1339 41.2449 73.0154C41.9151 72.8969 42.5418 72.6048 43.0612 72.1688C43.5805 71.7327 43.9741 71.1683 44.2019 70.5328C44.4298 69.8973 44.4837 69.2134 44.3582 68.5506C44.2328 67.8878 43.9325 67.2697 43.4877 66.7591L50.5994 58.0829C51.128 58.2841 51.6948 58.3676 52.2596 58.3274C52.8245 58.2872 53.3734 58.1244 53.8675 57.8504C54.3617 57.5764 54.7888 57.198 55.1186 56.7421C55.4485 56.2862 55.6729 55.764 55.776 55.2125C55.8791 54.661 55.8584 54.0938 55.7152 53.5511C55.5721 53.0085 55.31 52.5037 54.9477 52.0727C54.5854 51.6416 54.1318 51.2949 53.6189 51.057C53.1061 50.8192 52.5466 50.6961 51.9804 50.6965ZM14.7159 68.9158C14.7165 69.4757 14.5292 70.0198 14.1835 70.4627C13.8378 70.9056 13.3533 71.2222 12.8061 71.3626C12.259 71.5031 11.6802 71.4596 11.1608 71.2388C10.6414 71.018 10.2108 70.6325 9.93665 70.143C9.66251 69.6534 9.56038 69.0875 9.64633 68.5342C9.73229 67.9809 10.0014 67.4715 10.4115 67.0862C10.8215 66.7009 11.3492 66.4615 11.9116 66.4056C12.474 66.3496 13.0392 66.4804 13.5184 66.7773C13.898 67.0144 14.2087 67.3454 14.4198 67.7376C14.6145 68.1003 14.7162 68.505 14.7159 68.9158ZM26.6518 61.0831C26.3593 61.2586 26.0342 61.3742 25.6957 61.423C25.3573 61.4718 25.0124 61.4528 24.6815 61.3671C24.3507 61.2814 24.0405 61.1308 23.7695 60.9242C23.4985 60.7176 23.2721 60.4592 23.1038 60.1643C22.8881 59.7877 22.7752 59.362 22.7762 58.929C22.776 58.5446 22.8644 58.1652 23.0346 57.8197C23.2049 57.4743 23.4525 57.1719 23.7586 56.9356C24.0648 56.6993 24.4213 56.5353 24.8011 56.4562C25.1809 56.3771 25.574 56.3849 25.9503 56.4791C26.3266 56.5732 26.6762 56.7512 26.9725 56.9995C27.2688 57.2477 27.504 57.5597 27.6601 57.9117C27.8163 58.2636 27.8892 58.6462 27.8734 59.0303C27.8576 59.4144 27.7534 59.7898 27.5689 60.128C27.3513 60.5192 27.0354 60.8482 26.6518 61.0831ZM40.5686 71.7759C39.8933 71.7752 39.2459 71.5092 38.7684 71.0363C38.2909 70.5633 38.0223 69.9221 38.0216 69.2532C38.0211 69.0556 38.0448 68.8586 38.0924 68.6667C38.1796 68.3038 38.347 67.9646 38.5826 67.6736C38.8182 67.3827 39.1161 67.1471 39.4548 66.984C39.7935 66.8208 40.1645 66.7342 40.5411 66.7303C40.9177 66.7265 41.2905 66.8054 41.6325 66.9615C42.0354 67.1464 42.3831 67.4317 42.6413 67.7895C42.9136 68.1664 43.0757 68.6104 43.1097 69.0727C43.1437 69.5349 43.0483 69.9975 42.8341 70.4096C42.6199 70.8216 42.295 71.1672 41.8953 71.4083C41.4956 71.6493 41.0366 71.7765 40.5686 71.7759ZM51.9804 57.0395C51.8167 57.0399 51.6535 57.0243 51.493 56.9928C50.9137 56.8795 50.3919 56.5708 50.0164 56.1194C49.6409 55.668 49.4349 55.1018 49.4334 54.5169C49.4334 54.0179 49.5827 53.5302 49.8626 53.1154C50.1425 52.7005 50.5403 52.3772 51.0057 52.1862C51.4711 51.9953 51.9832 51.9453 52.4773 52.0427C52.9713 52.14 53.4252 52.3803 53.7814 52.7331C54.1376 53.0859 54.3802 53.5354 54.4784 54.0247C54.5767 54.5141 54.5263 55.0213 54.3335 55.4823C54.1407 55.9432 53.8143 56.3372 53.3954 56.6144C52.9766 56.8916 52.4841 57.0395 51.9804 57.0395Z" fill="white"/>
</g>
<defs>
<clipPath id="clip0_543_1074">
<rect width="125" height="85" fill="white" transform="translate(0 0.5)"/>
</clipPath>
</defs>
</svg>
