<svg width="23" height="23" viewBox="0 0 23 23" fill="none" xmlns="http://www.w3.org/2000/svg">
<path d="M19.8056 0H3.19444C1.40556 0 0 1.40556 0 3.19444V19.8056C0 21.5944 1.40556 23 3.19444 23H19.8056C21.5944 23 23 21.5944 23 19.8056V3.19444C23 1.40556 21.5944 0 19.8056 0ZM7.02778 19.1667H3.83333V8.30556H7.02778V19.1667ZM5.43056 7.02778C4.47222 7.02778 3.83333 6.325 3.83333 5.43056C3.83333 4.53611 4.47222 3.83333 5.43056 3.83333C6.38889 3.83333 7.02778 4.53611 7.02778 5.43056C7.02778 6.325 6.38889 7.02778 5.43056 7.02778ZM19.1667 19.1667H15.9722V13.3528C15.9722 11.9472 15.2056 10.9889 13.9278 10.9889C12.9694 10.9889 12.4583 11.6278 12.2028 12.2667C12.1389 12.4583 12.1389 13.0972 12.1389 13.4167V19.1667H8.94444V8.30556H12.1389V9.96667C12.5861 9.26389 13.2889 8.30556 15.1417 8.30556C17.4417 8.30556 19.1667 9.71111 19.1667 12.9694V19.1667Z" fill="#696F8C"/>
</svg>
