<svg width="204" height="165" viewBox="0 0 204 165" fill="none" xmlns="http://www.w3.org/2000/svg">
<path d="M50.5663 38.2424C51.3962 38.2424 52.0691 37.6225 52.0691 36.8579C52.0691 36.0933 51.3962 35.4734 50.5663 35.4734C49.7363 35.4734 49.0635 36.0933 49.0635 36.8579C49.0635 37.6225 49.7363 38.2424 50.5663 38.2424Z" fill="white"/>
<path d="M43.4071 38.2424C44.2359 38.2424 44.9099 37.6242 44.9099 36.8579C44.9099 36.0948 44.2359 35.4734 43.4071 35.4734C42.5783 35.4734 41.9043 36.0916 41.9043 36.8579C41.9043 37.6242 42.5783 38.2424 43.4071 38.2424Z" fill="white"/>
<path d="M170.977 134.125L155.304 118.476H163.067C165.221 118.476 166.972 116.809 166.972 114.754V45.6834L166.969 43.5841H166.972V34.91C166.972 31.3875 163.924 28.5251 160.177 28.5251H131.795C122.378 21.6251 111.056 17.8676 99.1621 17.8097C87.072 17.7549 75.5366 21.5092 65.9587 28.5251H37.5797C33.8324 28.5251 30.7816 31.3875 30.7816 34.91V43.5841H30.7848L30.7816 45.6834V114.754C30.7816 116.809 32.536 118.476 34.687 118.476H65.9716C74.7175 124.864 85.1661 128.593 96.1308 129.127C108.963 129.752 121.514 125.985 131.782 118.476H133.614L160.132 144.953C161.628 146.444 163.592 147.19 165.556 147.19C167.52 147.19 169.481 146.444 170.977 144.953C173.967 141.968 173.967 137.109 170.977 134.125ZM162.412 142.676L138.177 118.476L134.952 115.257L133.069 113.376L131.94 114.291C131.534 114.622 131.121 114.944 130.705 115.257C129.173 116.429 127.596 117.501 125.98 118.476C109.201 128.625 88.3007 128.474 71.757 118.476C70.1382 117.498 68.5612 116.425 67.0326 115.257C65.1815 113.846 63.4046 112.294 61.7147 110.607C51.8047 100.713 46.3901 87.4344 46.4643 73.2223C46.5191 63.0767 49.3666 53.4399 54.6361 45.194C55.3359 44.096 56.0809 43.0206 56.8677 41.9742C58.4544 39.862 60.2087 37.8625 62.1275 35.9886C63.6948 34.456 65.3395 33.0425 67.0455 31.7449C68.5838 30.5761 70.1769 29.5007 71.8119 28.5251C88.3878 18.6146 109.372 18.6307 125.935 28.5251C127.57 29.5007 129.163 30.5729 130.702 31.7449C132.562 33.1552 134.346 34.7071 136.042 36.3975C137.812 38.1652 139.431 40.0294 140.899 41.9742C141.689 43.0238 142.437 44.0993 143.14 45.194C155.004 63.6563 154.269 88.1073 140.192 105.935L139.306 107.056L168.697 136.401C170.429 138.13 170.429 140.944 168.697 142.676C166.965 144.405 164.147 144.405 162.412 142.676ZM163.747 114.754C163.747 115.022 163.431 115.257 163.067 115.257H152.079L143.601 106.792C157.275 88.5356 158.155 64.1714 146.929 45.194H163.747V114.754ZM160.177 31.7449C162.147 31.7449 163.747 33.1649 163.747 34.91V41.9742H144.868C142.963 39.2052 140.779 36.5746 138.322 34.1211C137.5 33.3001 136.655 32.508 135.794 31.7449H160.177ZM37.5797 31.7449H61.9598C61.2504 32.3728 60.5538 33.02 59.8701 33.6865C57.2547 36.243 54.9264 39.0184 52.8979 41.9742H34.0065V34.91C34.0065 33.1649 35.6093 31.7449 37.5797 31.7449ZM34.687 115.257C34.3258 115.257 34.0065 115.022 34.0065 114.754V45.194H50.8533C45.9386 53.5526 43.2942 63.1475 43.2394 73.2062C43.1587 88.2844 48.9087 102.377 59.4348 112.884C60.2571 113.705 61.0988 114.494 61.9631 115.257H34.687Z" fill="white"/>
<path d="M139.683 56.6275C137.977 52.5126 135.636 48.6617 132.711 45.194C131.888 44.2088 131.014 43.2589 130.092 42.3381C129.97 42.2157 129.844 42.0901 129.718 41.9742C124.923 37.2927 119.244 33.8314 113.065 31.745C108.553 30.222 103.777 29.4299 98.8784 29.4299C93.9798 29.4299 89.2037 30.222 84.6921 31.745C78.51 33.8314 72.8342 37.2894 68.0387 41.9742C67.913 42.0901 67.7872 42.2125 67.6647 42.3381C66.7423 43.2589 65.8684 44.2088 65.0461 45.194C58.3705 53.1147 54.7361 63.0284 54.7361 73.5024C54.7361 85.274 59.3283 96.3404 67.6647 104.664C72.5342 109.529 78.3423 113.115 84.6824 115.257C89.194 116.783 93.9765 117.575 98.8784 117.575C103.78 117.575 108.563 116.783 113.074 115.257C119.411 113.115 125.219 109.529 130.092 104.664C138.428 96.3404 143.021 85.274 143.021 73.5024C143.021 67.6134 141.873 61.9047 139.683 56.6275ZM57.961 73.5024C57.961 62.8578 62.0082 52.8378 69.3803 45.194C69.5641 44.9976 69.7544 44.8044 69.9447 44.6145C70.8767 43.6839 71.8473 42.8017 72.8535 41.9742C80.1643 35.9339 89.2682 32.6497 98.8784 32.6497C104.345 32.6497 109.643 33.7123 114.545 35.7375C118.263 37.2766 121.749 39.3662 124.903 41.9742C125.909 42.8017 126.88 43.6839 127.812 44.6145C128.002 44.8044 128.193 44.9976 128.376 45.194C135.749 52.8378 139.796 62.8578 139.796 73.5024C139.796 81.0077 137.783 88.2007 134.014 94.4729H127.819V58.1569L118.253 63.5951V94.4729H110.63V67.4363L101.065 72.8746V94.4729H93.438V65.176L83.8762 70.6143V94.4729H76.2525V74.5843L66.6875 80.0225V94.4729H63.7432C59.9733 88.2007 57.961 81.0077 57.961 73.5024ZM126.206 94.4729H119.866V64.5321L126.206 60.9259V94.4729ZM109.017 94.4729H102.677V73.8115L109.017 70.2054V94.4729ZM91.8255 94.4729H85.4886V71.5512L91.8255 67.9451V94.4729ZM74.6401 94.4729H68.3V80.9594L74.6401 77.3533V94.4729ZM66.6875 96.0828H76.2525H83.8762H93.438H101.065H110.63H118.253H127.819H132.988C131.495 98.327 129.763 100.439 127.812 102.387C120.082 110.105 109.808 114.355 98.8784 114.355C87.9492 114.355 77.6747 110.105 69.9447 102.387C67.9936 100.439 66.2618 98.327 64.7687 96.0828H66.6875Z" fill="white"/>
<path d="M70.3962 69.5163C73.0148 69.5163 75.1432 67.388 75.1432 64.7767C75.1432 64.1746 75.0304 63.5983 74.824 63.067L83.141 58.8588C84.0052 59.7732 85.2307 60.3463 86.5884 60.3463C88.4653 60.3463 90.0938 59.2516 90.8646 57.6674L100.617 59.1228C100.804 61.5666 102.858 63.4952 105.351 63.4952C107.966 63.4952 110.098 61.367 110.098 58.7525C110.098 58.0924 109.962 57.4678 109.717 56.8979L117.831 51.3985C118.699 52.3451 119.947 52.9376 121.327 52.9376C123.945 52.9376 126.077 50.8125 126.077 48.198C126.077 47.0582 125.674 46.0118 124.997 45.194C124.126 44.1347 122.804 43.4585 121.327 43.4585C119.85 43.4585 118.531 44.1347 117.66 45.194C116.983 46.0118 116.58 47.0582 116.58 48.198C116.58 48.8516 116.712 49.4763 116.957 50.043L108.84 55.5456C107.973 54.6054 106.728 54.013 105.351 54.013C103.158 54.013 101.31 55.5037 100.762 57.5193L91.3064 56.1058C91.3257 55.9416 91.3354 55.7742 91.3354 55.6068C91.3354 52.9923 89.207 50.864 86.5884 50.864C83.9698 50.864 81.8413 52.9923 81.8413 55.6068C81.8413 56.2829 81.9832 56.9269 82.2444 57.5097L73.992 61.6825C73.118 60.6747 71.8313 60.034 70.3962 60.034C67.7776 60.034 65.6492 62.1623 65.6492 64.7767C65.6492 67.388 67.7776 69.5163 70.3962 69.5163ZM118.192 48.198C118.192 46.7749 119.15 45.5707 120.453 45.194H122.201C122.62 45.3131 123.004 45.5192 123.333 45.7928C123.71 46.1084 124.013 46.5109 124.21 46.9681C124.374 47.3448 124.465 47.7601 124.465 48.198C124.465 49.9238 123.055 51.3277 121.327 51.3277C120.498 51.3277 119.747 51.0057 119.186 50.4809C118.789 50.1106 118.492 49.6405 118.331 49.1124C118.241 48.8227 118.192 48.5168 118.192 48.198ZM102.213 58.7525C102.213 58.4048 102.271 58.0699 102.377 57.7576C102.793 56.518 103.967 55.6229 105.351 55.6229C106.176 55.6229 106.928 55.9416 107.486 56.4632C107.882 56.8335 108.182 57.3004 108.347 57.8284C108.437 58.1214 108.485 58.4305 108.485 58.7525C108.485 60.4783 107.079 61.8854 105.351 61.8854C103.832 61.8854 102.561 60.8003 102.274 59.3707C102.236 59.1711 102.213 58.965 102.213 58.7525ZM83.4538 55.6068C83.4538 53.881 84.8598 52.4739 86.5884 52.4739C88.3169 52.4739 89.723 53.881 89.723 55.6068C89.723 55.6937 89.7197 55.7806 89.7101 55.8676C89.6649 56.4407 89.4617 56.9687 89.1489 57.4098C88.5814 58.2116 87.6461 58.7364 86.5884 58.7364C85.8692 58.7364 85.2049 58.4917 84.676 58.086C84.2374 57.7479 83.8924 57.3004 83.6827 56.782C83.5344 56.4182 83.4538 56.0221 83.4538 55.6068ZM70.3962 61.6439C71.196 61.6439 71.928 61.9465 72.4827 62.4456C72.889 62.803 73.1986 63.2699 73.3728 63.7979C73.476 64.107 73.5308 64.4354 73.5308 64.7767C73.5308 66.5025 72.1247 67.9064 70.3962 67.9064C68.6677 67.9064 67.2616 66.5025 67.2616 64.7767C67.2616 63.0509 68.6677 61.6439 70.3962 61.6439Z" fill="white"/>
</svg>
