<svg width="172" height="111" viewBox="0 0 172 111" fill="none" xmlns="http://www.w3.org/2000/svg">
<g clip-path="url(#clip0_494_597)">
<path d="M171.273 72.0051H164.195C164.004 72.0051 163.82 72.0811 163.685 72.2163C163.55 72.3515 163.474 72.535 163.474 72.7262C163.474 72.9174 163.55 73.1008 163.685 73.2361C163.82 73.3713 164.004 73.4472 164.195 73.4472H171.273C171.465 73.4472 171.648 73.3713 171.783 73.2361C171.918 73.1008 171.994 72.9174 171.994 72.7262C171.994 72.535 171.918 72.3515 171.783 72.2163C171.648 72.0811 171.465 72.0051 171.273 72.0051Z" fill="white"/>
<path d="M162.69 81.9124C162.554 81.777 162.371 81.7009 162.179 81.7009C161.988 81.7009 161.804 81.777 161.669 81.9124C161.533 82.0478 161.457 82.2314 161.457 82.4229C161.457 82.6144 161.533 82.798 161.669 82.9334L166.68 87.9433C166.745 88.0165 166.825 88.0755 166.914 88.1168C167.003 88.1581 167.099 88.1808 167.197 88.1836C167.295 88.1863 167.393 88.169 167.484 88.1327C167.575 88.0965 167.658 88.042 167.727 87.9726C167.797 87.9033 167.851 87.8205 167.887 87.7294C167.924 87.6382 167.941 87.5407 167.938 87.4426C167.935 87.3446 167.913 87.2481 167.871 87.1591C167.83 87.0702 167.771 86.9906 167.698 86.9252L162.69 81.9124Z" fill="white"/>
<path d="M162.179 64.3966C162.37 64.396 162.554 64.3204 162.69 64.186L167.698 59.1732C167.771 59.1078 167.83 59.0282 167.871 58.9393C167.913 58.8503 167.935 58.7538 167.938 58.6558C167.941 58.5577 167.924 58.4602 167.887 58.369C167.851 58.2779 167.797 58.1951 167.727 58.1257C167.658 58.0564 167.575 58.0019 167.484 57.9656C167.393 57.9294 167.295 57.9121 167.197 57.9148C167.099 57.9176 167.003 57.9403 166.914 57.9816C166.825 58.0229 166.746 58.0819 166.68 58.1551L161.669 63.165C161.568 63.2658 161.499 63.3944 161.471 63.5345C161.443 63.6745 161.457 63.8197 161.512 63.9516C161.567 64.0835 161.659 64.1962 161.778 64.2754C161.897 64.3547 162.036 64.3968 162.179 64.3966Z" fill="white"/>
<path d="M113.098 66.5049H100.169C99.9778 66.5049 99.7944 66.5809 99.6593 66.7161C99.5241 66.8513 99.4481 67.0347 99.4481 67.2259C99.4481 67.4172 99.5241 67.6006 99.6593 67.7358C99.7944 67.871 99.9778 67.947 100.169 67.947H113.098C113.289 67.947 113.473 67.871 113.608 67.7358C113.743 67.6006 113.819 67.4172 113.819 67.2259C113.819 67.0347 113.743 66.8513 113.608 66.7161C113.473 66.5809 113.289 66.5049 113.098 66.5049Z" fill="white"/>
<path d="M113.098 72.6396H100.169C99.9778 72.6396 99.7944 72.7156 99.6593 72.8508C99.5241 72.9861 99.4481 73.1695 99.4481 73.3607C99.4481 73.5519 99.5241 73.7353 99.6593 73.8706C99.7944 74.0058 99.9778 74.0818 100.169 74.0818H113.098C113.289 74.0818 113.473 74.0058 113.608 73.8706C113.743 73.7353 113.819 73.5519 113.819 73.3607C113.819 73.1695 113.743 72.9861 113.608 72.8508C113.473 72.7156 113.289 72.6396 113.098 72.6396Z" fill="white"/>
<path d="M113.098 78.7715H100.169C99.9778 78.7715 99.7944 78.8475 99.6593 78.9827C99.5241 79.1179 99.4481 79.3013 99.4481 79.4925C99.4481 79.6838 99.5241 79.8672 99.6593 80.0024C99.7944 80.1376 99.9778 80.2136 100.169 80.2136H113.098C113.289 80.2136 113.473 80.1376 113.608 80.0024C113.743 79.8672 113.819 79.6838 113.819 79.4925C113.819 79.3013 113.743 79.1179 113.608 78.9827C113.473 78.8475 113.289 78.7715 113.098 78.7715Z" fill="white"/>
<path d="M152.636 62.8159V48.0053C152.633 47.4067 152.469 46.8198 152.161 46.3066C151.853 45.7933 151.413 45.3728 150.885 45.0893C150.304 44.7624 149.645 44.596 148.978 44.6071C148.311 44.6183 147.659 44.8066 147.088 45.1528L138.692 50.281V36.1482C138.692 32.9957 135.967 30.4287 132.616 30.4287H124.946V13.2329V7.47595C124.945 5.49417 124.157 3.59396 122.757 2.19236C121.356 0.790762 119.457 0.00229137 117.476 0L38.1218 0C36.1415 0.00608568 34.2441 0.795682 32.8438 2.19638C31.4435 3.59707 30.6541 5.49508 30.6481 7.47595V19.6907C27.8198 20.2632 25.0367 21.0402 22.3208 22.0154C7.61554 27.2734 -2.03805 36.6789 0.369576 43.428L2.45715 49.2715C3.85271 53.1796 8.93901 55.2159 15.8332 55.2159C16.1879 55.2159 16.5483 55.2159 16.9116 55.1986V107.666C16.9116 109.503 18.4802 111 20.4034 111H135.191C137.117 111 138.683 109.503 138.683 107.666V96.4375L147.088 101.566C147.659 101.911 148.311 102.099 148.978 102.11C149.645 102.122 150.303 101.955 150.885 101.629C151.413 101.346 151.853 100.925 152.161 100.412C152.469 99.8986 152.633 99.3118 152.636 98.7131V83.9025C154.487 82.8346 156.024 81.298 157.093 79.4471C158.161 77.5963 158.724 75.4966 158.724 73.3592C158.724 71.2218 158.161 69.1221 157.093 67.2713C156.024 65.4205 154.487 63.8838 152.636 62.8159ZM132.605 33.3072C134.364 33.3072 135.797 34.5792 135.797 36.1424V52.0403L131.867 54.44C129.698 55.7623 127.374 56.8087 124.946 57.555V33.3072H132.605ZM38.1218 2.88424H117.476C118.692 2.88577 119.859 3.37012 120.719 4.23098C121.579 5.09185 122.062 6.25889 122.063 7.47595V11.8023H33.543V7.47595C33.5445 6.26062 34.027 5.09532 34.8851 4.23487C35.7431 3.37442 36.9068 2.88881 38.1218 2.88424ZM114.687 25.1765C114.69 25.212 114.69 25.2477 114.687 25.2833V52.8941C114.687 53.3085 114.522 53.7056 114.229 53.9986C113.936 54.2916 113.539 54.4566 113.125 54.4573H42.7295C42.4339 54.4576 42.1445 54.3725 41.8962 54.2122L114.687 25.1737V25.1765ZM3.81523 48.7869L3.11456 46.8256C3.76633 47.2634 4.46214 47.6317 5.1906 47.9245C5.47894 48.0399 5.76728 48.1495 6.07004 48.2505C6.43623 48.3716 6.81395 48.4841 7.20609 48.585L7.5694 48.6744C7.81161 48.7321 8.05958 48.7869 8.31332 48.836L8.69681 48.9081L9.07741 48.9744C9.3398 49.0177 9.60507 49.0552 9.87611 49.0927C10.1472 49.1302 10.4528 49.159 10.7411 49.1878L11.1246 49.2225L11.5485 49.2542L12.1252 49.2859C12.2578 49.2859 12.3933 49.3003 12.5288 49.3032H12.8633H13.2122C14.3915 49.3234 15.6256 49.2801 16.9029 49.1792C17.6872 49.1186 18.4888 49.0321 19.3019 48.9254L19.5441 48.8908L19.7863 48.859L20.363 48.7725C21.0723 48.6629 21.7922 48.536 22.5227 48.3918C22.886 48.3197 23.2522 48.2447 23.6184 48.1639C24.1681 48.0428 24.7217 47.913 25.2792 47.7746C25.6483 47.6823 26.0202 47.5842 26.3951 47.4861C26.9544 47.3333 27.5196 47.1718 28.0818 47.0016C28.4567 46.8862 28.8344 46.768 29.2092 46.6468C29.686 46.4911 30.1665 46.3296 30.6509 46.1623L30.9191 46.0671C31.4727 45.8748 32.0205 45.67 32.5626 45.4527C32.8885 45.3258 33.2085 45.1989 33.5286 45.0663L34.0332 44.8586C34.3705 44.7173 34.7079 44.5702 35.0395 44.4231L35.5354 44.201C36.0285 43.9789 36.5158 43.7482 36.9973 43.5145L37.4759 43.278C38.2448 42.8935 38.9935 42.4983 39.7221 42.0926L40.2324 41.8042L40.6736 41.5475L41.1638 41.2591C41.4319 41.0975 41.6972 40.936 41.9596 40.7687C42.222 40.6015 42.5161 40.4169 42.7871 40.238C43.7386 39.6131 44.6373 38.9719 45.4831 38.3143C45.6042 38.222 45.7224 38.1268 45.8406 38.0258L46.1924 37.7374L46.5355 37.449C47.0055 37.0538 47.4582 36.6529 47.8878 36.252L48.1416 36.0097L48.4299 35.7213C48.9201 35.2368 49.3786 34.7493 49.7995 34.259C49.8832 34.1638 49.9668 34.0658 50.0475 33.9706C50.1282 33.8754 50.209 33.7745 50.2897 33.6822L50.5204 33.3937C50.6732 33.1976 50.8087 33.0015 50.9587 32.8169L51.1634 32.5285C51.2383 32.4217 51.3104 32.3121 51.3825 32.2025C51.5007 32.018 51.6132 31.8334 51.7228 31.6488C51.8323 31.4642 51.9477 31.2594 52.0486 31.0719C52.0918 30.9912 52.1322 30.9104 52.1726 30.8296C52.311 30.5556 52.4378 30.2816 52.5474 30.0076C52.5791 29.9326 52.608 29.8548 52.6368 29.7798C52.6656 29.7048 52.7118 29.5808 52.7464 29.4914C52.7983 29.3471 52.8415 29.2029 52.8848 29.0616L53.5825 31.0258C54.5658 33.7716 52.9886 37.3019 49.145 40.9649C46.7308 43.2007 44.0467 45.126 41.1551 46.6959C40.6851 46.9612 40.2036 47.2179 39.7134 47.4717C37.7071 48.4956 35.643 49.4018 33.5314 50.1858C33.197 50.3127 32.8567 50.4367 32.5165 50.5578C31.8937 50.779 31.2709 50.9905 30.6481 51.1924C27.1212 52.3458 23.4839 53.1288 19.795 53.5286C18.8117 53.6296 17.8487 53.693 16.9116 53.7219C15.7916 53.761 14.6704 53.7418 13.5524 53.6642C8.25277 53.2662 4.79558 51.5356 3.81523 48.7869ZM6.16807 33.0015C8.53281 30.8094 11.1581 28.9165 13.9849 27.3657L21.0146 30.7345L25.6886 32.9726C25.7854 33.0205 25.892 33.0452 26 33.0447C26.143 33.0441 26.2825 33.0009 26.4008 32.9207L30.1117 30.423L33.5286 28.1156L40.2296 23.6046L42.1182 22.3327L44.4854 20.7377C44.5249 20.7117 44.5607 20.6807 44.5921 20.6454C45.8602 20.8714 47.0914 21.2703 48.2512 21.8308C48.5199 21.9645 48.7817 22.1117 49.0354 22.2721C49.665 22.6564 50.2255 23.1439 50.6934 23.7142C51.0402 24.1471 51.313 24.6344 51.5007 25.1563C51.5238 25.2227 51.5469 25.2861 51.5671 25.3525C51.8172 26.2117 51.8489 27.1198 51.6593 27.9944C50.9125 31.7613 46.9565 35.9867 41.158 39.5977C40.6909 39.8881 40.2103 40.1765 39.7163 40.463C37.7172 41.6087 35.6487 42.6288 33.5228 43.5174C32.5857 43.9126 31.6226 44.2904 30.6394 44.6423L30.4203 44.723C26.971 45.9666 23.4099 46.8746 19.7863 47.4342C18.8031 47.5813 17.84 47.6938 16.9029 47.7746C10.9949 48.2764 6.07004 47.44 3.39714 45.2422C2.63691 44.6415 2.05639 43.8433 1.719 42.9348C0.747301 40.1948 2.32451 36.6645 6.16807 33.0015ZM30.6481 21.1761C31.6198 20.9742 32.5828 20.804 33.5314 20.6656C35.4878 20.3649 37.4632 20.2058 39.4424 20.1897C40.244 20.1897 41.0225 20.2176 41.7779 20.2733C42.0259 20.2906 42.2681 20.3137 42.5046 20.3368L33.5314 26.3937L30.6481 28.3348L27.5311 30.4316L25.951 31.493L23.7164 30.423L15.5535 26.5177C17.8972 25.3042 20.3199 24.25 22.8052 23.3623C25.3647 22.4458 27.9854 21.7104 30.6481 21.1617V21.1761ZM41.1695 52.9633C41.1681 52.9451 41.1681 52.9267 41.1695 52.9085V48.3168C44.4301 46.6071 47.4502 44.4734 50.1513 41.9715C54.4331 37.8932 56.1401 33.8206 54.955 30.5008L52.8703 24.6574C52.7536 24.3279 52.6079 24.0094 52.435 23.7056H113.13C113.404 23.7043 113.673 23.7771 113.909 23.9161L41.1695 52.9633ZM135.808 107.666C135.808 107.905 135.52 108.116 135.2 108.116H20.4034C20.0804 108.116 19.795 107.905 19.795 107.666V55.0111C23.4808 54.6151 27.117 53.8469 30.6481 52.7181V100.487C30.6481 100.869 30.7999 101.236 31.0703 101.507C31.3407 101.777 31.7074 101.929 32.0898 101.929L96.9401 101.473C97.3224 101.473 97.6891 101.321 97.9595 101.051C98.2299 100.781 98.3818 100.414 98.3818 100.031C98.3818 99.6488 98.2299 99.2819 97.9595 99.0115C97.6891 98.741 97.3224 98.5891 96.9401 98.5891L33.5401 99.0333V51.7317C35.6533 50.959 37.7211 50.0673 39.7336 49.0609V52.8912C39.7351 53.6878 40.0522 54.4514 40.6153 55.0146C41.1784 55.5779 41.9417 55.8951 42.7381 55.8966H113.13C113.927 55.8958 114.691 55.5789 115.254 55.0155C115.817 54.452 116.134 53.688 116.135 52.8912V25.2833C116.134 24.8279 116.029 24.3788 115.826 23.9709C115.82 23.9609 115.815 23.9503 115.812 23.9392L115.777 23.87C115.771 23.863 115.767 23.8552 115.763 23.8469C115.503 23.3816 115.123 22.994 114.664 22.7243C114.204 22.4546 113.681 22.3124 113.148 22.3125H51.3393C49.4449 20.3945 46.1982 19.2004 41.8846 18.8774C39.0928 18.6949 36.2895 18.8129 33.5228 19.2292V14.675H122.043V58.2934C119.884 58.7411 117.685 58.9663 115.48 58.9654H103.373C97.3784 58.9654 92.4997 63.4475 92.4997 68.9593V77.7591C92.4997 82.7921 96.5681 86.9656 101.839 87.6521L104.013 101.058C104.052 102.176 104.522 103.235 105.324 104.014C106.127 104.792 107.2 105.23 108.318 105.234H112.611C113.752 105.233 114.846 104.779 115.653 103.971C116.459 103.164 116.913 102.07 116.913 100.928V100.813L114.794 87.753H115.5C117.705 87.7526 119.904 87.9768 122.063 88.4222V100.248C122.063 100.63 122.215 100.997 122.485 101.267C122.756 101.538 123.122 101.69 123.505 101.69C123.887 101.69 124.254 101.538 124.524 101.267C124.795 100.997 124.946 100.63 124.946 100.248V89.1663C127.373 89.9121 129.698 90.9575 131.867 92.2784L135.808 94.6781V107.666ZM111.876 87.7646L114.03 101.032C114.005 101.391 113.845 101.727 113.583 101.973C113.32 102.218 112.974 102.355 112.614 102.356H108.318C107.941 102.356 107.579 102.206 107.313 101.939C107.046 101.673 106.896 101.311 106.896 100.934V100.819L104.777 87.7588L111.876 87.7646ZM149.755 98.7247C149.748 98.8114 149.717 98.8945 149.667 98.9652C149.616 99.0358 149.547 99.0913 149.467 99.1256C149.333 99.2048 149.181 99.2466 149.026 99.2466C148.87 99.2466 148.718 99.2048 148.584 99.1256L133.366 89.8383C127.975 86.5777 121.789 84.8662 115.489 84.8918H103.373C98.9671 84.8918 95.383 81.7019 95.383 77.7822V68.9593C95.383 65.0396 98.9671 61.8497 103.373 61.8497H115.5C121.801 61.8753 127.986 60.1638 133.377 56.9032L148.596 47.6159C148.73 47.5367 148.882 47.4949 149.037 47.4949C149.192 47.4949 149.345 47.5367 149.478 47.6159C149.558 47.6502 149.627 47.7057 149.678 47.7763C149.729 47.847 149.76 47.9301 149.767 48.0168L149.755 98.7247ZM152.639 82.2037V64.5262C154.072 65.5107 155.244 66.8293 156.054 68.3682C156.864 69.9071 157.287 71.6201 157.287 73.3592C157.287 75.0983 156.864 76.8113 156.054 78.3502C155.244 79.8891 154.072 81.2078 152.639 82.1922V82.2037Z" fill="white"/>
<path d="M43.9919 9.19508C44.2747 9.20601 44.5504 9.1044 44.7584 8.91249C44.9665 8.72058 45.0901 8.45402 45.102 8.17117C45.0818 7.89049 44.9561 7.62789 44.7501 7.4362C44.5442 7.24451 44.2733 7.13794 43.9919 7.13794C43.7106 7.13794 43.4397 7.24451 43.2338 7.4362C43.0278 7.62789 42.9021 7.89049 42.8818 8.17117C42.8938 8.45402 43.0174 8.72058 43.2255 8.91249C43.4335 9.1044 43.7091 9.20601 43.9919 9.19508Z" fill="white"/>
<path d="M38.7095 9.19493C38.992 9.20586 39.2673 9.10415 39.4749 8.91217C39.6825 8.72018 39.8054 8.45362 39.8167 8.17103C39.7922 7.89381 39.6648 7.63583 39.4596 7.44791C39.2544 7.25999 38.9862 7.15576 38.708 7.15576C38.4298 7.15576 38.1617 7.25999 37.9565 7.44791C37.7513 7.63583 37.6239 7.89381 37.5994 8.17103C37.6114 8.45387 37.7349 8.72044 37.943 8.91235C38.1511 9.10426 38.4267 9.20587 38.7095 9.19493Z" fill="white"/>
<path d="M49.1099 9.19493C49.3924 9.20586 49.6677 9.10415 49.8753 8.91217C50.0829 8.72018 50.2058 8.45362 50.2171 8.17103C50.1926 7.89381 50.0652 7.63583 49.86 7.44791C49.6548 7.25999 49.3866 7.15576 49.1084 7.15576C48.8302 7.15576 48.5621 7.25999 48.3569 7.44791C48.1517 7.63583 48.0243 7.89381 47.9998 8.17103C48.0118 8.45387 48.1353 8.72044 48.3434 8.91235C48.5514 9.10426 48.8271 9.20587 49.1099 9.19493Z" fill="white"/>
<path d="M86.2133 67.4075H41.1776C40.9865 67.4075 40.8031 67.4834 40.6679 67.6187C40.5327 67.7539 40.4568 67.9373 40.4568 68.1285C40.4568 68.3198 40.5327 68.5032 40.6679 68.6384C40.8031 68.7736 40.9865 68.8496 41.1776 68.8496H86.2133C86.4045 68.8496 86.5878 68.7736 86.723 68.6384C86.8582 68.5032 86.9342 68.3198 86.9342 68.1285C86.9342 67.9373 86.8582 67.7539 86.723 67.6187C86.5878 67.4834 86.4045 67.4075 86.2133 67.4075Z" fill="white"/>
<path d="M86.2134 74.7192H48.836C48.6448 74.7192 48.4614 74.7952 48.3262 74.9304C48.1911 75.0657 48.1151 75.2491 48.1151 75.4403C48.1151 75.6315 48.1911 75.8149 48.3262 75.9502C48.4614 76.0854 48.6448 76.1614 48.836 76.1614H86.2134C86.4045 76.1614 86.5879 76.0854 86.7231 75.9502C86.8583 75.8149 86.9342 75.6315 86.9342 75.4403C86.9342 75.2491 86.8583 75.0657 86.7231 74.9304C86.5879 74.7952 86.4045 74.7192 86.2134 74.7192Z" fill="white"/>
<path d="M86.2133 82.0308H41.1776C40.9865 82.0308 40.8031 82.1067 40.6679 82.242C40.5327 82.3772 40.4568 82.5606 40.4568 82.7518C40.4568 82.9431 40.5327 83.1265 40.6679 83.2617C40.8031 83.3969 40.9865 83.4729 41.1776 83.4729H86.2133C86.4045 83.4729 86.5878 83.3969 86.723 83.2617C86.8582 83.1265 86.9342 82.9431 86.9342 82.7518C86.9342 82.5606 86.8582 82.3772 86.723 82.242C86.5878 82.1067 86.4045 82.0308 86.2133 82.0308Z" fill="white"/>
</g>
<defs>
<clipPath id="clip0_494_597">
<rect width="172" height="111" fill="white"/>
</clipPath>
</defs>
</svg>
