<svg width="138" height="91" viewBox="0 0 138 91" fill="none" xmlns="http://www.w3.org/2000/svg">
<g clip-path="url(#clip0_494_466)">
<path d="M128.7 6.39516C128.7 3.14583 125.885 0.5 122.423 0.5H6.77683C3.31519 0.5 0.5 3.14583 0.5 6.39516V14.404V80.1039C0.522652 81.0368 0.915231 81.9225 1.59158 82.5668C2.26794 83.2111 3.17281 83.5613 4.10761 83.5406H88.1403V80.5677H4.10761C3.77098 80.5677 3.47904 80.3507 3.47904 80.1039V15.8904H125.721V52.8221H128.7V14.404V6.39516ZM125.721 12.9176H3.47904V6.39516C3.47904 4.78387 4.96856 3.47285 6.77683 3.47285H122.423C124.243 3.47285 125.721 4.78387 125.721 6.39516V12.9176Z" fill="white"/>
<path d="M30.6151 50.7025H27.5854L21.1864 65.7065H24.5348L25.9022 62.365H32.2148L33.5673 65.7065H37.0021L30.6151 50.7025ZM27.073 59.4724L29.057 54.6386L31.0411 59.4724H27.073Z" fill="white"/>
<path d="M47.2291 50.1703V55.7741C46.8249 55.3029 46.3459 54.9012 45.8111 54.585C45.1562 54.2228 44.4143 54.047 43.6662 54.0766C42.9939 54.0748 42.3278 54.2051 41.706 54.4601C41.0794 54.7169 40.5155 55.1052 40.0526 55.5987C39.5543 56.1377 39.1631 56.7662 38.8997 57.4508C38.5957 58.256 38.4481 59.1115 38.4648 59.9718V60.0164C38.4479 60.8766 38.5955 61.7322 38.8997 62.5373C39.1634 63.2245 39.5591 63.8537 40.0645 64.3894C40.5309 64.8829 41.0977 65.2711 41.7268 65.528C42.3418 65.7818 43.0008 65.9121 43.6662 65.9115C44.4087 65.9397 45.1443 65.7606 45.7903 65.3942C46.3498 65.0498 46.8382 64.6018 47.2291 64.0743V65.6975H50.4703V50.1703H47.2291ZM47.2708 60.0253C47.2759 60.4673 47.2002 60.9065 47.0474 61.3214C46.9117 61.6907 46.7098 62.0322 46.4516 62.3292C46.2073 62.6014 45.9091 62.82 45.5758 62.9714C45.2363 63.12 44.8696 63.1967 44.4988 63.1967C44.1281 63.1967 43.7614 63.12 43.4219 62.9714C43.0836 62.8197 42.7796 62.6013 42.5282 62.3292C42.2673 62.0341 42.0651 61.6921 41.9324 61.3214C41.7797 60.9065 41.7039 60.4673 41.709 60.0253V59.9807C41.7022 59.5356 41.7779 59.0932 41.9324 58.6756C42.0659 58.3089 42.2681 57.971 42.5282 57.6797C42.7787 57.4058 43.0829 57.1862 43.4219 57.0346C43.9297 56.8051 44.4979 56.7439 45.0431 56.86C45.5883 56.9761 46.0819 57.2633 46.4516 57.6797C46.7105 57.9752 46.9124 58.3159 47.0474 58.6845C47.2002 59.0994 47.2759 59.5387 47.2708 59.9807V60.0253Z" fill="white"/>
<path d="M12.3715 9.47498C13.1382 9.47498 13.7597 8.90266 13.7597 8.19666C13.7597 7.49066 13.1382 6.91833 12.3715 6.91833C11.6048 6.91833 10.9833 7.49066 10.9833 8.19666C10.9833 8.90266 11.6048 9.47498 12.3715 9.47498Z" fill="white"/>
<path d="M18.7764 9.47498C19.5431 9.47498 20.1646 8.90266 20.1646 8.19666C20.1646 7.49066 19.5431 6.91833 18.7764 6.91833C18.0097 6.91833 17.3882 7.49066 17.3882 8.19666C17.3882 8.90266 18.0097 9.47498 18.7764 9.47498Z" fill="white"/>
<path d="M25.1784 9.47498C25.9451 9.47498 26.5666 8.90266 26.5666 8.19666C26.5666 7.49066 25.9451 6.91833 25.1784 6.91833C24.4117 6.91833 23.7902 7.49066 23.7902 8.19666C23.7902 8.90266 24.4117 9.47498 25.1784 9.47498Z" fill="white"/>
<path d="M97.9651 22.2167H16.9651C15.7199 22.2182 14.5262 22.7128 13.646 23.5917C12.7657 24.4707 12.2709 25.6622 12.2701 26.9049V27.6362C12.2749 28.8762 12.7714 30.064 13.6512 30.9397C14.531 31.8154 15.7225 32.3079 16.9651 32.3095H97.9651C99.2098 32.3079 100.403 31.8138 101.283 30.9355C102.163 30.0572 102.659 28.8664 102.66 27.6243V26.9049C102.659 25.6622 102.165 24.4707 101.284 23.5917C100.404 22.7128 99.2104 22.2182 97.9651 22.2167ZM101.171 27.6362C101.166 28.482 100.826 29.2917 100.226 29.8886C99.6253 30.4856 98.8127 30.8215 97.9651 30.8231H16.9651C16.1175 30.8215 15.3049 30.4856 14.7044 29.8886C14.104 29.2917 13.7644 28.482 13.7597 27.6362V26.9049C13.7604 26.0565 14.0983 25.243 14.6992 24.6428C15.3001 24.0426 16.1149 23.7047 16.9651 23.7031H97.9651C98.8153 23.7047 99.6302 24.0426 100.231 24.6428C100.832 25.243 101.17 26.0565 101.171 26.9049V27.6362Z" fill="white"/>
<path d="M55.9101 41.005H17.7129C16.4677 41.005 15.2733 41.498 14.392 42.3759C13.5106 43.2537 13.0143 44.4446 13.012 45.6872V70.5848C13.0135 71.8277 13.509 73.0193 14.3897 73.8982C15.2704 74.777 16.4644 75.2715 17.7099 75.273H55.9101C57.1556 75.2715 58.3496 74.777 59.2303 73.8982C60.111 73.0193 60.6065 71.8277 60.6081 70.5848V45.6872C60.6057 44.4451 60.1098 43.2547 59.2291 42.3769C58.3484 41.4992 57.1548 41.0058 55.9101 41.005ZM59.1185 70.5878C59.1177 71.4367 58.7795 72.2507 58.1779 72.8509C57.5764 73.4512 56.7608 73.7888 55.9101 73.7896H17.7129C16.8617 73.7896 16.0453 73.4523 15.4431 72.852C14.841 72.2516 14.5023 71.4372 14.5015 70.5878V45.6872C14.5031 44.8388 14.8417 44.0257 15.4431 43.426C16.0446 42.8264 16.8597 42.4892 17.7099 42.4885H55.9101C56.7577 42.4932 57.569 42.8321 58.1673 43.4313C58.7655 44.0305 59.1021 44.8414 59.1036 45.6872L59.1185 70.5878Z" fill="white"/>
<path d="M110.987 22.615C110.505 22.6012 110.026 22.6838 109.578 22.858C109.129 23.0322 108.72 23.2944 108.375 23.6291C108.03 23.9638 107.756 24.3642 107.568 24.8066C107.381 25.249 107.284 25.7244 107.284 26.2047C107.284 26.685 107.381 27.1604 107.568 27.6028C107.756 28.0453 108.03 28.4457 108.375 28.7804C108.72 29.1151 109.129 29.3773 109.578 29.5514C110.026 29.7256 110.505 29.8083 110.987 29.7944C111.46 29.7956 111.929 29.7036 112.367 29.5237C112.805 29.3438 113.203 29.0795 113.538 28.7459C113.873 28.4124 114.139 28.0161 114.321 27.5798C114.503 27.1435 114.597 26.6757 114.597 26.2032C114.597 25.7309 114.503 25.2632 114.321 24.8271C114.139 24.391 113.873 23.9949 113.538 23.6616C113.202 23.3283 112.804 23.0643 112.367 22.8847C111.929 22.7051 111.46 22.6134 110.987 22.615ZM108.877 26.2032C108.877 25.8497 108.966 25.5017 109.136 25.1915C109.305 24.8812 109.551 24.6186 109.849 24.428C110.148 24.2374 110.489 24.1248 110.843 24.1007C111.196 24.0766 111.55 24.1417 111.872 24.29C112.193 24.4384 112.472 24.6652 112.683 24.9495C112.893 25.2338 113.029 25.5664 113.076 25.9167C113.124 26.2671 113.083 26.6237 112.956 26.9538C112.829 27.284 112.621 27.5769 112.351 27.8056L112.327 27.8264C111.951 28.139 111.476 28.3095 110.987 28.308C110.427 28.3072 109.891 28.0852 109.496 27.6907C109.101 27.2961 108.878 26.7612 108.877 26.2032Z" fill="white"/>
<path d="M114.847 31.1471C114.749 31.1474 114.652 31.1284 114.562 31.0912C114.471 31.0539 114.389 30.9992 114.32 30.9301L112.294 28.9085C112.225 28.8396 112.169 28.7577 112.131 28.6675C112.094 28.5772 112.074 28.4804 112.073 28.3825C112.073 28.2847 112.092 28.1877 112.129 28.0971C112.166 28.0065 112.221 27.9241 112.29 27.8547C112.359 27.7852 112.441 27.7299 112.531 27.6921C112.622 27.6543 112.719 27.6346 112.817 27.6342C112.915 27.6337 113.012 27.6526 113.103 27.6897C113.194 27.7267 113.276 27.7813 113.346 27.8502L115.375 29.8747C115.478 29.9788 115.548 30.1111 115.577 30.2549C115.605 30.3988 115.59 30.5477 115.533 30.6831C115.477 30.8185 115.382 30.9342 115.26 31.0157C115.138 31.0972 114.994 31.1408 114.847 31.1411V31.1471Z" fill="white"/>
<path d="M98.3613 47.3847H69.7626C69.5651 47.3847 69.3756 47.3064 69.236 47.1671C69.0963 47.0277 69.0178 46.8386 69.0178 46.6415C69.0178 46.4444 69.0963 46.2554 69.236 46.116C69.3756 45.9766 69.5651 45.8983 69.7626 45.8983H98.3613C98.5589 45.8983 98.7483 45.9766 98.888 46.116C99.0276 46.2554 99.1061 46.4444 99.1061 46.6415C99.1061 46.8386 99.0276 47.0277 98.888 47.1671C98.7483 47.3064 98.5589 47.3847 98.3613 47.3847Z" fill="white"/>
<path d="M82.4236 67.5675H69.7716C69.5741 67.5675 69.3847 67.4892 69.245 67.3498C69.1053 67.2104 69.0269 67.0214 69.0269 66.8243C69.0269 66.6272 69.1053 66.4381 69.245 66.2987C69.3847 66.1594 69.5741 66.0811 69.7716 66.0811H82.4236C82.6211 66.0811 82.8105 66.1594 82.9502 66.2987C83.0899 66.4381 83.1683 66.6272 83.1683 66.8243C83.1683 67.0214 83.0899 67.2104 82.9502 67.3498C82.8105 67.4892 82.6211 67.5675 82.4236 67.5675Z" fill="white"/>
<path d="M82.4236 57.4776H69.7716C69.5741 57.4776 69.3847 57.3993 69.245 57.26C69.1053 57.1206 69.0269 56.9315 69.0269 56.7344C69.0269 56.5373 69.1053 56.3483 69.245 56.2089C69.3847 56.0695 69.5741 55.9912 69.7716 55.9912H82.4236C82.6211 55.9912 82.8105 56.0695 82.9502 56.2089C83.0899 56.3483 83.1683 56.5373 83.1683 56.7344C83.1683 56.9315 83.0899 57.1206 82.9502 57.26C82.8105 57.3993 82.6211 57.4776 82.4236 57.4776Z" fill="white"/>
<path d="M132.174 52.8221H93.4639C92.052 52.8237 90.6984 53.3843 89.7003 54.3809C88.7022 55.3775 88.1412 56.7286 88.1404 58.1376V85.1905C88.1412 86.5995 88.7022 87.9506 89.7003 88.9472C90.6984 89.9438 92.052 90.5044 93.4639 90.506H132.174C133.585 90.5036 134.938 89.9427 135.936 88.9463C136.934 87.9499 137.496 86.5993 137.497 85.1905V58.1376C137.496 56.7288 136.934 55.3782 135.936 54.3818C134.938 53.3854 133.585 52.8245 132.174 52.8221ZM134.518 85.1935C134.517 85.814 134.27 86.409 133.831 86.848C133.391 87.2871 132.795 87.5345 132.174 87.5361H93.4639C92.8421 87.5345 92.2462 87.2871 91.8068 86.848C91.3674 86.409 91.1202 85.814 91.1194 85.1935V58.1406C91.1194 57.5198 91.3663 56.9244 91.8059 56.4851C92.2455 56.0459 92.8418 55.7988 93.4639 55.798H132.174C132.796 55.7988 133.392 56.0459 133.832 56.4851C134.271 56.9244 134.518 57.5198 134.518 58.1406V85.1935Z" fill="white"/>
<path d="M121.178 71.013L108.32 63.6047C108.207 63.5394 108.078 63.5051 107.948 63.5051C107.817 63.5052 107.688 63.5397 107.575 63.6051C107.462 63.6705 107.368 63.7645 107.302 63.8777C107.237 63.9909 107.203 64.1192 107.203 64.2498V79.0635C107.203 79.1937 107.238 79.3216 107.303 79.4343C107.369 79.547 107.463 79.6405 107.576 79.7056C107.688 79.7721 107.817 79.807 107.948 79.8067C108.079 79.8074 108.208 79.7725 108.32 79.7056L121.178 72.3003C121.291 72.2351 121.385 72.1412 121.45 72.0283C121.516 71.9153 121.55 71.7871 121.55 71.6567C121.55 71.5262 121.516 71.398 121.45 71.2851C121.385 71.1721 121.291 71.0783 121.178 71.013ZM108.693 77.7763V65.5371L119.316 71.6552L108.693 77.7763Z" fill="white"/>
</g>
<defs>
<clipPath id="clip0_494_466">
<rect width="137" height="90" fill="white" transform="translate(0.5 0.5)"/>
</clipPath>
</defs>
</svg>
