<svg width="116" height="108" viewBox="0 0 116 108" fill="none" xmlns="http://www.w3.org/2000/svg">
<g clip-path="url(#clip0_494_634)">
<path d="M31.1215 7.78016C31.3641 7.7894 31.6004 7.70333 31.7787 7.54083C31.9569 7.37833 32.0624 7.15271 32.0721 6.91352C32.0511 6.67889 31.9417 6.46053 31.7655 6.30147C31.5893 6.14242 31.3591 6.0542 31.1203 6.0542C30.8814 6.0542 30.6512 6.14242 30.4751 6.30147C30.2989 6.46053 30.1895 6.67889 30.1685 6.91352C30.1788 7.15292 30.2848 7.37854 30.4635 7.54098C30.6421 7.70341 30.8787 7.78942 31.1215 7.78016Z" fill="white"/>
<path d="M26.5839 7.78016C26.8267 7.78942 27.0633 7.70341 27.2419 7.54098C27.4206 7.37854 27.5266 7.15292 27.5369 6.91352C27.5159 6.67889 27.4065 6.46053 27.2303 6.30147C27.0542 6.14242 26.824 6.0542 26.5851 6.0542C26.3463 6.0542 26.1161 6.14242 25.9399 6.30147C25.7637 6.46053 25.6543 6.67889 25.6333 6.91352C25.643 7.15271 25.7485 7.37833 25.9267 7.54083C26.105 7.70333 26.3413 7.7894 26.5839 7.78016Z" fill="white"/>
<path d="M35.513 7.78016C35.7557 7.78942 35.9924 7.70341 36.171 7.54098C36.3496 7.37854 36.4557 7.15292 36.466 6.91352C36.445 6.67889 36.3356 6.46053 36.1594 6.30147C35.9832 6.14242 35.753 6.0542 35.5142 6.0542C35.2753 6.0542 35.0451 6.14242 34.869 6.30147C34.6928 6.46053 34.5834 6.67889 34.5624 6.91352C34.572 7.15271 34.6776 7.37833 34.8558 7.54083C35.034 7.70333 35.2704 7.7894 35.513 7.78016Z" fill="white"/>
<path d="M99.3849 86.4366C99.0566 86.4366 98.7418 86.5652 98.5097 86.7941C98.2775 87.023 98.1471 87.3335 98.1471 87.6572V88.1455C98.1471 93.0816 98.1471 97.7444 96.9094 100.898C95.6494 104.118 93.1616 105.556 88.8419 105.556C84.5406 105.573 80.3743 104.076 77.0919 101.335C73.8094 98.594 71.6261 94.788 70.9344 90.6014C70.9344 90.5452 70.9146 90.4891 70.9022 90.4329C70.8898 90.3768 70.8799 90.3206 70.8651 90.2669C70.8502 90.2132 70.8478 90.1937 70.8379 90.1571C70.8279 90.1204 70.7982 90.0106 70.776 89.9398C70.7314 89.7982 70.6819 89.659 70.625 89.5223C70.5903 89.4369 70.5507 89.3514 70.5111 89.2782L70.4839 89.2245C70.4443 89.1415 70.4022 89.0585 70.3551 88.9804C70.3081 88.9023 70.2858 88.8608 70.2487 88.8046L70.1521 88.6557C70.1495 88.6491 70.1452 88.6432 70.1398 88.6386L70.0333 88.4873C69.9962 88.436 69.9591 88.3872 69.9194 88.3383C69.8798 88.2895 69.8402 88.2407 69.7982 88.1943L69.6719 88.0527C69.6026 87.977 69.5308 87.9038 69.4565 87.8354L69.4417 87.8208C69.3823 87.7646 69.3204 87.7085 69.256 87.6548C69.1521 87.5645 69.0431 87.4815 68.9317 87.4107C68.8204 87.3399 68.7758 87.3033 68.6966 87.252C68.576 87.1717 68.4503 87.0991 68.3203 87.0347C68.1919 86.9655 68.0597 86.9036 67.9242 86.8492C67.8574 86.8199 67.7881 86.793 67.7212 86.7686C67.3181 86.62 66.897 86.524 66.4687 86.483H66.3746H66.2112C66.1237 86.483 66.0371 86.483 65.9513 86.483H22.1356V68.5351V65.1955L25.8711 61.519C30.1 64.6381 35.3227 66.1586 40.5913 65.8048C45.86 65.4509 50.8254 63.2461 54.5865 59.5904H60.1513C60.3154 59.5904 60.4728 59.5261 60.5889 59.4117C60.7049 59.2972 60.7701 59.142 60.7701 58.9801C60.7701 58.8182 60.7049 58.663 60.5889 58.5486C60.4728 58.4341 60.3154 58.3698 60.1513 58.3698H55.745C59.4915 54.1087 61.4164 48.5809 61.1148 42.9489C60.8132 37.3169 58.3086 32.0197 54.1278 28.1715C49.947 24.3233 44.4158 22.224 38.6977 22.3151C32.9795 22.4062 27.52 24.6807 23.4674 28.66C22.9987 29.1222 22.5565 29.5983 22.1406 30.0882V12.4185H98.1372V43.51C98.1372 43.8338 98.2676 44.1442 98.4997 44.3731C98.7319 44.6021 99.0467 44.7307 99.375 44.7307C99.7032 44.7307 100.018 44.6021 100.25 44.3731C100.482 44.1442 100.613 43.8338 100.613 43.51V6.32523C100.611 4.64996 99.9357 3.04371 98.7354 1.8582C97.5351 0.672687 95.9074 0.00451967 94.2087 0L26.0815 0C24.3806 0.00129216 22.7497 0.668035 21.5468 1.8539C20.3438 3.03976 19.6671 4.64784 19.6651 6.32523V33.667C17.9006 36.8558 16.976 40.4303 16.976 44.063C16.976 47.6956 17.9006 51.2702 19.6651 54.459V59.2169L10.7386 68.0175C10.1908 68.5797 9.88836 69.3312 9.89621 70.1108C9.90407 70.8904 10.2216 71.6359 10.7806 72.1872C11.3396 72.7385 12.0956 73.0517 12.8861 73.0594C13.6767 73.0672 14.4388 72.7689 15.0088 72.2287L19.6651 67.6367V86.4342H4.47818C3.90062 86.4339 3.32993 86.5577 2.80582 86.797C2.28171 87.0363 1.81676 87.3853 1.44332 87.8198C1.06988 88.2543 0.796927 88.7638 0.643442 89.3129C0.489957 89.862 0.45963 90.4375 0.55457 90.9993C1.35693 95.7502 3.84257 100.066 7.56913 103.179C11.2957 106.293 16.0214 108.001 20.9053 108H90.7554V107.902C95.0107 107.456 97.7907 105.439 99.2215 101.777C100.623 98.1985 100.62 93.5406 100.62 88.1455V87.6572C100.62 87.3339 100.49 87.0238 100.258 86.795C100.027 86.5661 99.7127 86.4373 99.3849 86.4366ZM26.0815 2.44123H94.2087C95.2528 2.44252 96.2538 2.85214 96.9921 3.58025C97.7305 4.30836 98.1458 5.29552 98.1471 6.32523V9.98707H22.1505V6.32523C22.1518 5.29679 22.5661 4.31073 23.3029 3.58283C24.0396 2.85493 25.0387 2.44446 26.0815 2.44123ZM11.6125 71.3669C11.2796 71.0367 11.0927 70.59 11.0927 70.1243C11.0927 69.6587 11.2796 69.212 11.6125 68.8817L19.6651 60.9404L22.1406 58.4992L22.8362 57.8132C22.9446 57.7067 23.0089 57.5642 23.0167 57.4135C23.0245 57.2628 22.9751 57.1146 22.8783 56.9978C22.6208 56.6854 22.3733 56.368 22.1356 56.0457C19.8953 52.978 18.5585 49.3592 18.2729 45.5892C17.9873 41.8191 18.7641 38.0446 20.5175 34.6827C22.2708 31.3208 24.9324 28.5022 28.2083 26.5386C31.4841 24.5749 35.2466 23.5425 39.0802 23.5554H39.199C43.2765 23.581 47.2568 24.7863 50.6463 27.0217C54.0358 29.2571 56.6855 32.4244 58.2669 36.1309C59.8483 39.8374 60.2918 43.9201 59.5426 47.8728C58.7933 51.8256 56.8841 55.4746 54.0518 58.3674L53.8191 58.6115C53.4692 58.9565 53.1111 59.282 52.7447 59.588C49.0848 62.7245 44.4304 64.5044 39.5831 64.6212C34.7357 64.7379 29.9988 63.1842 26.188 60.2276C26.0688 60.1351 25.9195 60.0887 25.7681 60.0973C25.6168 60.1058 25.4738 60.1687 25.3661 60.274L22.1406 63.472L19.6651 65.9132L14.1325 71.3669C13.7976 71.6952 13.3446 71.8794 12.8725 71.8794C12.4003 71.8794 11.9473 71.6952 11.6125 71.3669ZM20.9053 105.559C16.6033 105.576 12.4361 104.079 9.15307 101.338C5.87006 98.5957 3.68662 94.7888 2.99537 90.6014C2.96021 90.389 2.97227 90.1717 3.03073 89.9644C3.08919 89.7571 3.19264 89.5649 3.33391 89.4009C3.47519 89.237 3.65092 89.1053 3.84893 89.015C4.04694 88.9247 4.26249 88.8779 4.48065 88.8779H65.9562C66.567 88.876 67.1583 89.0891 67.6239 89.4789C68.0895 89.8687 68.3988 90.4095 68.4961 91.0042C69.2956 95.7211 71.7539 100.01 75.4397 103.118C76.0201 103.609 76.6284 104.067 77.2617 104.49C77.5364 104.675 77.8186 104.853 78.1033 105.022C78.2816 105.132 78.4623 105.237 78.643 105.337C78.7767 105.412 78.9128 105.486 79.049 105.559H20.9053Z" fill="white"/>
<path d="M90.7553 18.8413H28.8366C28.6725 18.8413 28.5151 18.9056 28.399 19.0201C28.283 19.1345 28.2178 19.2898 28.2178 19.4516C28.2178 19.6135 28.283 19.7687 28.399 19.8832C28.5151 19.9976 28.6725 20.0619 28.8366 20.0619H90.7553C90.9195 20.0619 91.0769 19.9976 91.1929 19.8832C91.309 19.7687 91.3742 19.6135 91.3742 19.4516C91.3742 19.2898 91.309 19.1345 91.1929 19.0201C91.0769 18.9056 90.9195 18.8413 90.7553 18.8413Z" fill="white"/>
<path d="M90.7552 28.3989H61.8913C61.7272 28.3989 61.5698 28.4632 61.4537 28.5777C61.3377 28.6921 61.2725 28.8474 61.2725 29.0092C61.2725 29.1711 61.3377 29.3263 61.4537 29.4408C61.5698 29.5552 61.7272 29.6195 61.8913 29.6195H90.7552C90.9193 29.6195 91.0767 29.5552 91.1928 29.4408C91.3089 29.3263 91.3741 29.1711 91.3741 29.0092C91.3741 28.8474 91.3089 28.6921 91.1928 28.5777C91.0767 28.4632 90.9193 28.3989 90.7552 28.3989Z" fill="white"/>
<path d="M90.7553 37.9563H65.0105C64.8463 37.9563 64.6889 38.0206 64.5729 38.1351C64.4568 38.2495 64.3916 38.4047 64.3916 38.5666C64.3916 38.7285 64.4568 38.8837 64.5729 38.9982C64.6889 39.1126 64.8463 39.1769 65.0105 39.1769H90.7553C90.9194 39.1769 91.0768 39.1126 91.1929 38.9982C91.3089 38.8837 91.3741 38.7285 91.3741 38.5666C91.3741 38.4047 91.3089 38.2495 91.1929 38.1351C91.0768 38.0206 90.9194 37.9563 90.7553 37.9563Z" fill="white"/>
<path d="M28.8366 69.1454H60.1438C60.3079 69.1454 60.4653 69.0811 60.5814 68.9667C60.6974 68.8522 60.7627 68.697 60.7627 68.5351C60.7627 68.3732 60.6974 68.218 60.5814 68.1036C60.4653 67.9891 60.3079 67.9248 60.1438 67.9248H28.8366C28.6725 67.9248 28.5151 67.9891 28.399 68.1036C28.283 68.218 28.2178 68.3732 28.2178 68.5351C28.2178 68.697 28.283 68.8522 28.399 68.9667C28.5151 69.0811 28.6725 69.1454 28.8366 69.1454Z" fill="white"/>
<path d="M28.8366 78.7028H61.8915C62.0556 78.7028 62.213 78.6385 62.3291 78.524C62.4451 78.4096 62.5103 78.2543 62.5103 78.0925C62.5103 77.9306 62.4451 77.7754 62.3291 77.6609C62.213 77.5465 62.0556 77.4822 61.8915 77.4822H28.8366C28.6725 77.4822 28.5151 77.5465 28.399 77.6609C28.283 77.7754 28.2178 77.9306 28.2178 78.0925C28.2178 78.2543 28.283 78.4096 28.399 78.524C28.5151 78.6385 28.6725 78.7028 28.8366 78.7028Z" fill="white"/>
<path d="M98.5282 46.8422C91.7554 45.5728 84.4924 46.2344 78.581 48.6512L78.4621 48.7C73.9023 50.5871 70.506 53.4311 68.892 56.7097C68.2807 57.9195 67.9205 59.2375 67.8325 60.5864V70.195C67.9087 71.5457 68.2597 72.8674 68.8648 74.0815C71.1991 78.859 77.1576 82.5672 84.8043 83.9978C87.0519 84.4165 89.3343 84.6266 91.6217 84.6252C101.818 84.6252 111.299 80.5019 114.433 74.1279L114.46 74.0742C115.085 72.8115 115.439 71.4352 115.5 70.0315V60.745C115.233 54.2807 108.41 48.6927 98.5282 46.8422ZM69.0702 60.6401C69.1506 59.459 69.4661 58.3052 69.9985 57.2443C71.4393 54.3148 74.4742 51.7516 78.5686 49.9792L90.6191 61.0307L74.5014 70.0437C72.521 68.6351 70.9887 66.9775 70.058 65.1612L69.9787 65.005C69.8773 64.795 69.7832 64.5851 69.6965 64.3727C69.6099 64.1603 69.5356 63.9528 69.4663 63.7404C69.2648 63.1166 69.1369 62.4719 69.0851 61.8192C69.0851 61.7484 69.0727 61.6752 69.0702 61.6044V60.6401ZM69.9787 73.5517C69.4483 72.4895 69.1394 71.3332 69.0702 70.1511V65.9131C69.1074 65.9839 69.147 66.0523 69.1866 66.1206C69.2262 66.189 69.2683 66.2622 69.3104 66.333C69.3945 66.473 69.4771 66.6121 69.5579 66.7505C69.7875 67.1038 70.0354 67.4452 70.3006 67.7733C70.4045 67.9052 70.511 68.0346 70.6199 68.1639C71.3206 68.9795 72.1008 69.7252 72.9493 70.3903L73.1251 70.5295C73.3577 70.7077 73.5979 70.8859 73.8429 71.0568V78.1193C72.2207 76.9051 70.8994 75.3432 69.9787 73.5517ZM114.262 70.0144C114.205 71.2402 113.895 72.4416 113.349 73.5444L113.324 73.5932C109.72 80.9169 97.0281 85.0451 85.0345 82.7991C81.096 82.0667 77.6378 80.707 74.9519 78.9151C75.0393 78.8087 75.0873 78.6761 75.0881 78.5392V71.8746L75.3084 72.004L75.5089 72.1236L75.8926 72.3384C76.0238 72.4117 76.1575 72.4825 76.2936 72.5533C76.4298 72.6241 76.514 72.6705 76.6278 72.7266L76.8085 72.8169C76.9397 72.8828 77.0685 72.9488 77.2021 73.0098C77.3358 73.0708 77.5388 73.1685 77.7096 73.2539L78.2715 73.498C78.4696 73.5835 78.6701 73.664 78.8731 73.7422L79.3682 73.9374C80.0217 74.1816 80.6975 74.4086 81.3906 74.6161C81.6085 74.682 81.8288 74.7431 82.0516 74.8041C82.9411 75.0482 83.857 75.259 84.7993 75.4364C86.0868 75.6777 87.3867 75.8497 88.6932 75.9515C89.1066 75.9856 89.52 76.0125 89.931 76.0296C90.5152 76.0556 91.0994 76.0695 91.6836 76.0711C92.1787 76.0711 92.6564 76.0711 93.1392 76.0418C93.6219 76.0125 94.0303 76.0003 94.4734 75.9661C94.99 75.9287 95.5049 75.8807 96.0181 75.8221C96.4538 75.7708 96.8895 75.7122 97.3227 75.6463C97.7559 75.5804 98.1594 75.5096 98.5728 75.4315C98.8426 75.3802 99.1124 75.3241 99.3823 75.2679C99.8361 75.1703 100.285 75.0645 100.729 74.9506C101.397 74.7797 102.056 74.5868 102.709 74.3769C103.058 74.2621 103.405 74.1327 103.742 74.0204C103.912 73.957 104.081 73.8959 104.237 73.83C105.33 73.412 106.393 72.9227 107.42 72.3653L107.777 72.1651L107.989 72.0431C108.111 71.9723 108.237 71.9015 108.346 71.8282C108.455 71.755 108.621 71.6598 108.754 71.5719C109.022 71.401 109.284 71.2252 109.537 71.0446C109.665 70.9543 109.784 70.8639 109.913 70.7712L110.277 70.4929C110.388 70.4074 110.495 70.322 110.601 70.2341L110.685 70.1633L110.965 69.9192L110.987 69.8997L111.307 69.614C111.415 69.5164 111.522 69.4163 111.626 69.3138C111.73 69.2161 111.829 69.116 111.928 69.0159C112.027 68.9158 112.156 68.7718 112.267 68.662C112.378 68.5521 112.423 68.4911 112.497 68.4056C112.572 68.3202 112.633 68.2518 112.698 68.1737L112.881 67.954C112.943 67.8783 113.002 67.8026 113.062 67.7245C113.121 67.6464 113.208 67.5365 113.277 67.4413L113.327 67.373L113.487 67.1459C113.638 66.9311 113.782 66.7114 113.913 66.4893C113.955 66.4233 113.995 66.3574 114.035 66.2915C114.052 66.2638 114.067 66.2353 114.082 66.2061C114.136 66.1158 114.186 66.0254 114.235 65.9327L114.25 65.9058L114.262 70.0144ZM113.349 64.9806L113.265 65.1466C109.589 72.3824 96.9266 76.4592 85.0444 74.2328C81.4476 73.5591 78.2295 72.3653 75.6525 70.7956L92.6985 61.2626L79.8261 49.4763C85.3712 47.3988 92.0376 46.874 98.2807 48.0433C107.583 49.7864 114 54.9056 114.25 60.7841V61.453C114.197 62.6772 113.891 63.8778 113.349 64.9806Z" fill="white"/>
<path d="M29.3416 58.3674C30.0312 58.8264 30.7544 59.2344 31.5052 59.588C33.8719 60.7065 36.463 61.2871 39.0875 61.2871C41.712 61.2871 44.303 60.7065 46.6698 59.588C47.4217 59.2349 48.1457 58.8269 48.8359 58.3674C51.9455 56.3072 54.3017 53.3164 55.5572 49.8356C56.8126 46.3549 56.9009 42.5684 55.809 39.0345C54.717 35.5005 52.5027 32.406 49.4923 30.2071C46.482 28.0082 42.8349 26.8213 39.0887 26.8213C35.3425 26.8213 31.6955 28.0082 28.6851 30.2071C25.6748 32.406 23.4604 35.5005 22.3685 39.0345C21.2766 42.5684 21.3648 46.3549 22.6203 49.8356C23.8757 53.3164 26.232 56.3072 29.3416 58.3674ZM39.0875 28.0571C42.842 28.0596 46.4796 29.3458 49.3803 31.6966C52.2811 34.0473 54.2656 37.3173 54.9958 40.9492C55.726 44.5811 55.1566 48.3504 53.3848 51.6148C51.6129 54.8792 48.7481 57.4367 45.2786 58.8517C41.809 60.2667 37.9492 60.4515 34.357 59.3748C30.7647 58.298 27.6621 56.0262 25.5778 52.9465C23.4935 49.8668 22.5565 46.1697 22.9264 42.4851C23.2963 38.8004 24.9502 35.3563 27.6063 32.7393C29.1129 31.2514 30.9027 30.0718 32.8731 29.2683C34.8434 28.4647 36.9553 28.0531 39.0875 28.0571Z" fill="white"/>
<path d="M38.1072 36.6185C38.5155 36.8457 38.9776 36.9619 39.4464 36.9554C39.9167 36.9613 40.3802 36.8451 40.7906 36.6185C41.1831 36.4044 41.5098 36.0898 41.7362 35.7079C41.9643 35.3341 42.0857 34.9065 42.0877 34.4702C42.0906 34.0305 41.9697 33.5987 41.7387 33.2227C41.5082 32.8408 41.1794 32.5258 40.7856 32.3097C40.3779 32.0888 39.9203 31.9729 39.4551 31.9729C38.9899 31.9729 38.5322 32.0888 38.1245 32.3097C37.7307 32.5258 37.4019 32.8408 37.1715 33.2227C36.9439 33.6002 36.8239 34.0311 36.8239 34.4702C36.8239 34.9093 36.9439 35.3402 37.1715 35.7177C37.3992 36.0926 37.7216 36.403 38.1072 36.6185Z" fill="white"/>
<path d="M36.7333 40.6733C36.9381 40.7888 37.091 40.9762 37.1616 41.1981C37.2504 41.5159 37.2896 41.8452 37.2779 42.1746V51.3707C37.3097 51.75 37.2121 52.1289 37.0007 52.4473C36.8175 52.6768 36.4883 52.8135 36.0105 52.8623L35.4288 52.9478V53.5801H43.573V52.9478L42.9764 52.8623C42.5012 52.8135 42.1719 52.6744 41.9863 52.44C41.7787 52.1227 41.6814 51.7474 41.709 51.3707V43.7541C41.709 42.0404 41.7478 40.7058 41.8254 39.7505H35.3892V40.3828L35.7828 40.4243C36.1129 40.4461 36.4357 40.5306 36.7333 40.6733Z" fill="white"/>
</g>
<defs>
<clipPath id="clip0_494_634">
<rect width="115" height="108" fill="white" transform="translate(0.5)"/>
</clipPath>
</defs>
</svg>
