<svg width="122" height="124" viewBox="0 0 122 124" fill="none" xmlns="http://www.w3.org/2000/svg">
<g clip-path="url(#clip0_494_651)">
<path d="M114.82 86.7898C113.426 81.5805 110.361 76.9777 106.101 73.693C101.84 70.4083 96.6197 68.6248 91.248 68.6182H71.788C71.4705 66.9324 70.5768 65.4109 69.2612 64.3163C67.9456 63.2217 66.2908 62.6227 64.5823 62.6227C62.8738 62.6227 61.2189 63.2217 59.9033 64.3163C58.5878 65.4109 57.6941 66.9324 57.3765 68.6182H35.1502C30.3465 68.6125 25.6836 66.9889 21.9077 64.0071C18.1318 61.0252 15.4612 56.8576 14.3233 52.1712C15.891 51.8732 17.3192 51.0702 18.3915 49.8837C19.4638 48.6973 20.1216 47.1922 20.2654 45.5966C20.4092 44.0009 20.0311 42.4017 19.1883 41.0413C18.3455 39.6808 17.0841 38.6334 15.5951 38.0576C17.2883 34.2713 20.0345 31.0566 23.5035 28.8001C26.9726 26.5435 31.0169 25.3412 35.1502 25.3375H57.3973C57.7387 26.9977 58.6398 28.489 59.9487 29.5596C61.2575 30.6303 62.8941 31.215 64.5823 31.215C66.2705 31.215 67.907 30.6303 69.2159 29.5596C70.5248 28.489 71.4259 26.9977 71.7672 25.3375H108.563C108.805 26.2608 109.271 27.1098 109.918 27.8099C110.565 28.5099 111.373 29.0394 112.272 29.3517C113.17 29.664 114.132 29.7495 115.071 29.6006C116.01 29.4518 116.899 29.0732 117.658 28.4982C118.417 27.9232 119.024 27.1695 119.425 26.3034C119.826 25.4374 120.008 24.4857 119.956 23.5322C119.904 22.5787 119.619 21.6526 119.127 20.8357C118.634 20.0188 117.949 19.336 117.132 18.8477C119.007 15.0641 121.307 9.9558 121.307 7.67316C121.307 5.77072 120.554 3.9462 119.215 2.60097C117.875 1.25574 116.058 0.5 114.164 0.5C112.269 0.5 110.452 1.25574 109.113 2.60097C107.773 3.9462 107.02 5.77072 107.02 7.67316C107.02 9.9558 109.32 15.0641 111.18 18.8477C109.882 19.6274 108.937 20.8853 108.548 22.3537H71.7672C71.4259 20.6934 70.5248 19.2022 69.2159 18.1315C67.907 17.0609 66.2705 16.4762 64.5823 16.4762C62.8941 16.4762 61.2575 17.0609 59.9487 18.1315C58.6398 19.2022 57.7387 20.6934 57.3973 22.3537H35.1502C30.3079 22.3573 25.5759 23.8059 21.5551 26.5153C17.5343 29.2248 14.4059 33.073 12.5672 37.5713C10.8063 37.6661 9.13834 38.3946 7.86868 39.6235C6.59902 40.8524 5.81263 42.4994 5.65349 44.263C5.49436 46.0266 5.97313 47.7887 7.00215 49.2267C8.03116 50.6648 9.54157 51.6825 11.2568 52.0936C12.4073 57.6031 15.4089 62.5479 19.7586 66.0992C24.1082 69.6504 29.5413 71.5922 35.1472 71.599H57.433C57.7981 73.2317 58.7059 74.691 60.007 75.7366C61.308 76.7822 62.9248 77.3519 64.5912 77.3519C66.2576 77.3519 67.8744 76.7822 69.1754 75.7366C70.4765 74.691 71.3842 73.2317 71.7494 71.599H91.248C95.8911 71.6046 100.407 73.1219 104.119 75.9232C107.831 78.7245 110.538 82.6588 111.834 87.1359C110.431 87.6109 109.204 88.5012 108.315 89.6896C107.425 90.878 106.915 92.3089 106.851 93.7941C106.786 95.2794 107.171 96.7494 107.955 98.0108C108.738 99.2723 109.883 100.266 111.24 100.862C109.677 104.912 106.931 108.393 103.364 110.85C99.7968 113.307 95.5736 114.624 91.248 114.629H71.7672C71.4259 112.969 70.5248 111.478 69.2159 110.407C67.907 109.336 66.2705 108.752 64.5823 108.752C62.8941 108.752 61.2575 109.336 59.9487 110.407C58.6398 111.478 57.7387 112.969 57.3973 114.629H17.8326C17.6366 113.885 17.2953 113.188 16.8286 112.578C16.3618 111.968 15.7789 111.457 15.1137 111.075C18.3586 104.77 23.9686 93.208 23.9686 88.6964C23.9686 85.5706 22.732 82.5727 20.5309 80.3624C18.3297 78.152 15.3443 76.9103 12.2314 76.9103C9.11855 76.9103 6.13315 78.152 3.93201 80.3624C1.73086 82.5727 0.494263 85.5706 0.494263 88.6964C0.494263 93.211 6.10434 104.776 9.34618 111.075C8.51779 111.552 7.81939 112.226 7.31307 113.038C6.80675 113.851 6.50818 114.777 6.44391 115.733C6.37964 116.689 6.55165 117.647 6.94466 118.52C7.33766 119.394 7.93949 120.156 8.69665 120.74C9.45381 121.324 10.3429 121.711 11.2847 121.866C12.2266 122.022 13.1922 121.941 14.0957 121.632C14.9991 121.322 15.8124 120.794 16.4633 120.092C17.1142 119.391 17.5825 118.54 17.8267 117.613H57.3973C57.7387 119.273 58.6398 120.764 59.9487 121.835C61.2575 122.906 62.8941 123.49 64.5823 123.49C66.2705 123.49 67.907 122.906 69.2159 121.835C70.5248 120.764 71.4259 119.273 71.7672 117.613H91.248C96.2574 117.607 101.144 116.056 105.246 113.169C109.349 110.282 112.469 106.199 114.185 101.473C116.07 101.467 117.881 100.732 119.241 99.4201C120.602 98.1083 121.406 96.3207 121.488 94.4288C121.57 92.5369 120.923 90.686 119.681 89.2606C118.439 87.8353 116.699 86.9451 114.82 86.7749V86.7898ZM58.7404 23.8456C58.7424 22.3558 59.309 20.9226 60.3252 19.8372C61.3414 18.7517 62.731 18.0955 64.2117 18.0017C65.6924 17.9079 67.1531 18.3836 68.2971 19.3322C69.4411 20.2808 70.1826 21.6311 70.3709 23.1089C70.5593 24.5866 70.1804 26.0809 69.3112 27.2883C68.442 28.4957 67.1478 29.3255 65.6913 29.6092C64.2348 29.893 62.7254 29.6093 61.4697 28.8159C60.214 28.0225 59.3062 26.7788 58.9306 25.3375C58.8036 24.8505 58.7397 24.349 58.7404 23.8456ZM114.164 1.99192C115.66 1.99664 117.093 2.59546 118.151 3.65764C119.208 4.71982 119.805 6.15908 119.809 7.66122C119.809 9.55298 117.661 14.3659 115.75 18.239C115.635 18.4687 115.525 18.6955 115.412 18.9163C115.299 19.1371 115.177 19.3818 115.067 19.6056C114.74 20.2471 114.431 20.8438 114.152 21.372C113.873 20.8438 113.558 20.2471 113.237 19.6056C113.127 19.3818 113.008 19.152 112.892 18.9163C112.776 18.6806 112.669 18.4687 112.553 18.239C110.643 14.36 108.494 9.55298 108.494 7.66122C108.499 6.15495 109.099 4.71208 110.161 3.64922C111.224 2.58636 112.664 1.99033 114.164 1.99192ZM112.993 22.3537C113.243 22.8221 113.424 23.1563 113.513 23.3204C113.577 23.4374 113.671 23.5349 113.786 23.6029C113.9 23.6708 114.031 23.7066 114.164 23.7066C114.297 23.7066 114.427 23.6708 114.542 23.6029C114.656 23.5349 114.75 23.4374 114.814 23.3204C115.011 22.9594 115.652 21.7748 116.461 20.1844C117.04 20.5516 117.523 21.052 117.871 21.6443C118.219 22.2365 118.421 22.9035 118.461 23.5899C118.501 24.2763 118.377 24.9624 118.101 25.5913C117.824 26.2202 117.402 26.7738 116.869 27.2063C116.337 27.6387 115.71 27.9375 115.039 28.0779C114.369 28.2182 113.675 28.1962 113.015 28.0135C112.355 27.8308 111.748 27.4928 111.244 27.0274C110.74 26.562 110.353 25.9827 110.117 25.3375C109.764 24.3744 109.764 23.3168 110.117 22.3537C110.448 21.4599 111.063 20.7006 111.867 20.1934C112.307 21.0497 112.699 21.7957 112.993 22.3537ZM7.11166 44.9324C7.11259 43.5443 7.60269 42.2013 8.49516 41.1413C9.38763 40.0813 10.6249 39.3726 11.9878 39.1408C12.3086 39.0842 12.6337 39.0562 12.9595 39.0572C13.6703 39.0545 14.3756 39.184 15.0395 39.4392C16.2332 39.8938 17.2462 40.7281 17.9237 41.8147C18.6012 42.9014 18.9062 44.1808 18.7921 45.4578C18.6779 46.7347 18.151 47.9391 17.2916 48.8873C16.4321 49.8354 15.2875 50.4752 14.0321 50.7091C13.6824 50.7753 13.3272 50.8082 12.9713 50.8076C12.2954 50.8088 11.6246 50.6906 10.9894 50.4585C9.85527 50.0501 8.87428 49.3002 8.18029 48.3112C7.48629 47.3222 7.11311 46.1423 7.11166 44.9324ZM70.433 69.9967C70.4341 70.5418 70.358 71.0843 70.2072 71.608C69.8575 72.835 69.1194 73.9143 68.1045 74.6827C67.0897 75.451 65.8533 75.8666 64.5823 75.8666C63.3113 75.8666 62.0749 75.451 61.06 74.6827C60.0451 73.9143 59.307 72.835 58.9573 71.608C58.6791 70.6356 58.6576 69.6073 58.8949 68.6241C59.2007 67.3405 59.9282 66.1978 60.9601 65.3802C61.9919 64.5627 63.2679 64.1181 64.5823 64.1181C65.8966 64.1181 67.1726 64.5627 68.2045 65.3802C69.2363 66.1978 69.9638 67.3405 70.2696 68.6241C70.3779 69.0715 70.4328 69.5303 70.433 69.9907V69.9967ZM70.433 116.142C70.4313 117.633 69.8642 119.068 68.847 120.155C67.8298 121.241 66.4388 121.898 64.9566 121.992C63.4743 122.086 62.0121 121.61 60.8668 120.661C59.7216 119.711 58.9793 118.359 58.7907 116.88C58.6021 115.401 58.9815 113.905 59.8516 112.696C60.7217 111.488 62.0174 110.657 63.4755 110.373C64.9335 110.089 66.4445 110.373 67.7014 111.168C68.9584 111.962 69.8671 113.207 70.2429 114.65C70.3693 115.135 70.4333 115.634 70.433 116.136V116.142ZM16.546 116.136C16.5469 116.645 16.4574 117.15 16.2815 117.628C16.0439 118.279 15.654 118.862 15.1448 119.33C14.6355 119.798 14.0218 120.136 13.3553 120.316C12.6887 120.496 11.9889 120.513 11.3146 120.365C10.6404 120.216 10.0115 119.907 9.48088 119.464C8.95027 119.021 8.53347 118.456 8.26557 117.817C7.99767 117.179 7.88652 116.485 7.94146 115.794C7.99641 115.103 8.21585 114.435 8.58131 113.847C8.94677 113.259 9.44755 112.768 10.0415 112.415C10.9002 114.056 11.4856 115.136 11.5866 115.318C11.6501 115.436 11.7441 115.534 11.8586 115.603C11.9732 115.672 12.104 115.708 12.2374 115.708C12.3707 115.708 12.5016 115.672 12.6162 115.603C12.7307 115.534 12.8247 115.436 12.8881 115.318L13.2507 114.644C13.524 114.137 13.9311 113.37 14.4392 112.415C15.2935 112.922 15.9473 113.709 16.2904 114.644C16.4635 115.122 16.55 115.627 16.546 116.136ZM12.2344 78.4141C14.9526 78.4157 17.559 79.5003 19.4816 81.4298C21.4041 83.3592 22.4857 85.9759 22.4889 88.7054C22.4889 92.9007 16.9085 104.338 13.735 110.514L13.3844 111.201C13.2596 111.442 13.1407 111.672 13.0248 111.89C12.7277 112.487 12.4543 112.982 12.2344 113.382C12.0145 112.97 11.7471 112.463 11.444 111.89C11.3281 111.672 11.2093 111.442 11.0845 111.201L10.7338 110.523C7.56035 104.338 1.98593 92.9007 1.98593 88.7054C1.98907 85.977 3.06983 83.3612 4.99111 81.4319C6.9124 79.5026 9.51732 78.4173 12.2344 78.4141ZM114.678 99.9724C114.508 99.9873 114.336 99.9963 114.164 99.9963C112.635 99.9617 111.181 99.3276 110.112 98.2299C109.043 97.1321 108.445 95.6578 108.445 94.1226C108.445 92.5873 109.043 91.113 110.112 90.0153C111.181 88.9175 112.635 88.2835 114.164 88.2489C114.506 88.2478 114.847 88.2787 115.183 88.3414C116.583 88.5853 117.848 89.3332 118.739 90.4451C119.63 91.557 120.088 92.9569 120.026 94.3829C119.964 95.8089 119.387 97.1635 118.403 98.1933C117.418 99.2231 116.094 99.8577 114.678 99.9784V99.9724Z" fill="white"/>
<path d="M12.2342 93.769C13.2703 93.769 14.283 93.4603 15.1442 92.8821C16.0055 92.3038 16.6766 91.482 17.0725 90.5206C17.4684 89.5593 17.5714 88.5015 17.3684 87.4814C17.1654 86.4612 16.6656 85.5244 15.9322 84.7896C15.1988 84.0548 14.2648 83.555 13.2483 83.3535C12.2319 83.152 11.1789 83.2578 10.2224 83.6575C9.26588 84.0573 8.44901 84.733 7.87514 85.5992C7.30126 86.4654 6.9962 87.483 6.99855 88.5234C7.00326 89.9152 7.55677 91.2485 8.53797 92.2316C9.51917 93.2146 10.8482 93.7674 12.2342 93.769ZM12.2342 84.7488C12.9755 84.7488 13.7002 84.9694 14.3167 85.3828C14.9331 85.7962 15.4138 86.3838 15.6979 87.0713C15.982 87.7589 16.0567 88.5156 15.9128 89.2458C15.7688 89.976 15.4125 90.647 14.889 91.1739C14.3654 91.7009 13.6981 92.0603 12.9713 92.2066C12.2444 92.3529 11.4907 92.2796 10.8053 91.996C10.12 91.7123 9.5337 91.2311 9.12058 90.613C8.70746 89.9949 8.48603 89.2678 8.48427 88.5234C8.48349 88.0282 8.57988 87.5378 8.76795 87.0801C8.95602 86.6223 9.23207 86.2063 9.58032 85.8558C9.92858 85.5052 10.3422 85.227 10.7976 85.0371C11.253 84.8472 11.7411 84.7492 12.2342 84.7488Z" fill="white"/>
<path d="M114.164 10.9435C114.828 10.9441 115.478 10.7467 116.031 10.3763C116.584 10.0058 117.016 9.47894 117.271 8.86234C117.525 8.24574 117.592 7.5671 117.463 6.91227C117.334 6.25744 117.014 5.65585 116.544 5.18358C116.074 4.71132 115.475 4.38961 114.823 4.25916C114.171 4.1287 113.495 4.19536 112.881 4.45069C112.267 4.70603 111.742 5.13858 111.372 5.69361C111.003 6.24865 110.806 6.90123 110.806 7.56882C110.807 8.46309 111.16 9.32056 111.79 9.95319C112.419 10.5858 113.273 10.942 114.164 10.9435ZM114.164 5.689C114.535 5.68841 114.898 5.79841 115.206 6.00506C115.515 6.21172 115.756 6.50575 115.898 6.84991C116.04 7.19406 116.078 7.57288 116.006 7.93839C115.933 8.30389 115.755 8.63965 115.492 8.90314C115.23 9.16664 114.896 9.34602 114.532 9.41857C114.168 9.49113 113.79 9.45359 113.448 9.31071C113.105 9.16784 112.812 8.92605 112.606 8.61597C112.4 8.30589 112.291 7.94146 112.292 7.56882C112.291 7.32131 112.339 7.07608 112.432 6.84716C112.526 6.61823 112.664 6.4101 112.838 6.23467C113.011 6.05924 113.218 5.91996 113.446 5.82479C113.673 5.72962 113.917 5.68044 114.164 5.68005V5.689Z" fill="white"/>
</g>
<defs>
<clipPath id="clip0_494_651">
<rect width="121" height="123" fill="white" transform="translate(0.5 0.5)"/>
</clipPath>
</defs>
</svg>
