<svg width="110" height="110" viewBox="0 0 110 110" fill="none" xmlns="http://www.w3.org/2000/svg">
<g clip-path="url(#clip0_229_4798)">
<path d="M29.6289 52.0556V58.0047C29.6289 58.3524 29.7666 58.6859 30.0116 58.9317C30.2566 59.1776 30.5889 59.3157 30.9354 59.3157C31.2819 59.3157 31.6142 59.1776 31.8592 58.9317C32.1042 58.6859 32.2419 58.3524 32.2419 58.0047V52.0556C32.2419 51.7079 32.1042 51.3745 31.8592 51.1286C31.6142 50.8828 31.2819 50.7446 30.9354 50.7446C30.5889 50.7446 30.2566 50.8828 30.0116 51.1286C29.7666 51.3745 29.6289 51.7079 29.6289 52.0556Z" fill="white"/>
<path d="M64.1154 10.1312C64.4619 10.1312 64.7942 9.99308 65.0392 9.74723C65.2842 9.50138 65.4218 9.16793 65.4218 8.82024C65.4218 8.47255 65.2842 8.1391 65.0392 7.89325C64.7942 7.6474 64.4619 7.50928 64.1154 7.50928H55.8192C55.4727 7.50928 55.1404 7.6474 54.8953 7.89325C54.6503 8.1391 54.5127 8.47255 54.5127 8.82024C54.5127 9.16793 54.6503 9.50138 54.8953 9.74723C55.1404 9.99308 55.4727 10.1312 55.8192 10.1312H64.1154Z" fill="white"/>
<path d="M42.7619 87.2994V81.5076L48.8893 77.2522C49.0634 77.1317 49.2057 76.9705 49.304 76.7825C49.4023 76.5946 49.4537 76.3855 49.4537 76.1733C49.4537 75.9611 49.4023 75.752 49.304 75.564C49.2057 75.3761 49.0634 75.2149 48.8893 75.0944L42.7776 70.8678V64.8374C42.7776 63.7944 42.3647 62.794 41.6296 62.0565C40.8946 61.3189 39.8976 60.9045 38.8581 60.9045H5.84328C4.80378 60.9045 3.80684 61.3189 3.0718 62.0565C2.33676 62.794 1.92383 63.7944 1.92383 64.8374V87.2889C1.92383 88.332 2.33676 89.3323 3.0718 90.0699C3.80684 90.8074 4.80378 91.2218 5.84328 91.2218H38.8372C39.8758 91.2232 40.8725 90.8109 41.6084 90.0754C42.3443 89.34 42.7591 88.3416 42.7619 87.2994ZM4.52895 87.2994V64.8479C4.52895 64.5002 4.6666 64.1668 4.91161 63.9209C5.15663 63.6751 5.48893 63.537 5.83544 63.537H38.8372C39.1837 63.537 39.5161 63.6751 39.7611 63.9209C40.0061 64.1668 40.1437 64.5002 40.1437 64.8479V71.5443C40.1438 71.757 40.1955 71.9665 40.2943 72.1547C40.393 72.3429 40.536 72.5041 40.7107 72.6245L45.8269 76.1641L40.7081 79.7194C40.5342 79.8399 40.392 80.0008 40.2937 80.1885C40.1954 80.3762 40.1439 80.585 40.1437 80.797V87.2889C40.1437 87.6366 40.0061 87.97 39.7611 88.2159C39.5161 88.4618 39.1837 88.5999 38.8372 88.5999H5.84328C5.49723 88.602 5.16448 88.4662 4.91807 88.2224C4.67166 87.9786 4.53171 87.6466 4.52895 87.2994Z" fill="white"/>
<path d="M34.9832 69.3787H9.7968C9.62355 69.3787 9.45739 69.4477 9.33489 69.5706C9.21238 69.6936 9.14355 69.8603 9.14355 70.0341C9.14355 70.208 9.21238 70.3747 9.33489 70.4976C9.45739 70.6206 9.62355 70.6896 9.7968 70.6896H34.9832C35.1565 70.6896 35.3226 70.6206 35.4451 70.4976C35.5676 70.3747 35.6365 70.208 35.6365 70.0341C35.6365 69.8603 35.5676 69.6936 35.4451 69.5706C35.3226 69.4477 35.1565 69.3787 34.9832 69.3787Z" fill="white"/>
<path d="M33.7342 76.728C33.9075 76.728 34.0736 76.6589 34.1961 76.536C34.3187 76.413 34.3875 76.2463 34.3875 76.0725C34.3875 75.8986 34.3187 75.7319 34.1961 75.609C34.0736 75.4861 33.9075 75.417 33.7342 75.417H11.0458C10.8726 75.417 10.7064 75.4861 10.5839 75.609C10.4614 75.7319 10.3926 75.8986 10.3926 76.0725C10.3926 76.2463 10.4614 76.413 10.5839 76.536C10.7064 76.6589 10.8726 76.728 11.0458 76.728H33.7342Z" fill="white"/>
<path d="M34.9832 81.4578H9.7968C9.62355 81.4578 9.45739 81.5268 9.33489 81.6498C9.21238 81.7727 9.14355 81.9394 9.14355 82.1132C9.14355 82.2871 9.21238 82.4538 9.33489 82.5767C9.45739 82.6997 9.62355 82.7687 9.7968 82.7687H34.9832C35.1565 82.7687 35.3226 82.6997 35.4451 82.5767C35.5676 82.4538 35.6365 82.2871 35.6365 82.1132C35.6365 81.9394 35.5676 81.7727 35.4451 81.6498C35.3226 81.5268 35.1565 81.4578 34.9832 81.4578Z" fill="white"/>
<path d="M104.828 34.1479H90.3026V9.32879C90.2999 6.85549 89.3195 4.48429 87.5766 2.7354C85.8337 0.986518 83.4706 0.00277587 81.0057 0H34.9835C34.637 0 34.3047 0.138114 34.0597 0.383966C33.8146 0.629819 33.677 0.963272 33.677 1.31096C33.677 1.65865 33.8146 1.99209 34.0597 2.23795C34.3047 2.4838 34.637 2.62192 34.9835 2.62192H81.0057C82.7776 2.62469 84.476 3.33219 85.7289 4.58938C86.9818 5.84656 87.6869 7.55087 87.6897 9.32879V34.1479H75.67C74.4314 34.1493 73.2438 34.6436 72.368 35.5225C71.4921 36.4014 70.9994 37.593 70.998 38.8359V65.2779C70.998 66.5222 71.4904 67.7155 72.367 68.5956C73.2436 69.4757 74.4326 69.9705 75.6726 69.9712H87.6923V94.7929C87.6902 96.571 86.9853 98.2757 85.7323 99.5331C84.4793 100.79 82.7804 101.498 81.0083 101.5H38.9395C35.8562 101.5 32.2555 100.045 32.2555 95.9465V94.3236C32.2555 93.9759 32.1179 93.6424 31.8729 93.3966C31.6279 93.1507 31.2956 93.0126 30.9491 93.0126C30.6026 93.0126 30.2702 93.1507 30.0252 93.3966C29.7802 93.6424 29.6426 93.9759 29.6426 94.3236V95.9465C29.6426 96.1773 29.6556 96.4053 29.6713 96.6282H29.6426V99.2947C29.6426 105.202 33.8233 110.005 38.9395 110.005H81.0083C86.135 110.005 90.3053 105.202 90.3053 99.2947V69.9712H104.831C105.445 69.9715 106.054 69.8504 106.621 69.6147C107.189 69.379 107.705 69.0333 108.14 68.5975C108.574 68.1616 108.919 67.6441 109.154 67.0746C109.39 66.505 109.511 65.8945 109.511 65.2779V38.8359C109.51 38.2195 109.388 37.6094 109.153 37.0402C108.917 36.4711 108.572 35.9541 108.137 35.5188C107.702 35.0835 107.186 34.7383 106.618 34.5031C106.051 34.2679 105.442 34.1472 104.828 34.1479ZM81.0057 107.378H38.9369C36.1044 107.378 33.677 105.233 32.7076 102.213C34.3093 103.422 36.452 104.116 38.9369 104.116H81.0057C83.4012 104.116 85.7037 103.186 87.431 101.521C86.6288 104.9 84.0524 107.378 81.0057 107.378ZM106.874 65.2779C106.873 65.8257 106.656 66.3508 106.27 66.7381C105.884 67.1254 105.361 67.3433 104.815 67.344H75.6726C75.1268 67.3433 74.6034 67.1254 74.2174 66.7381C73.8315 66.3508 73.6143 65.8257 73.6136 65.2779V38.8359C73.6143 38.2881 73.8315 37.763 74.2174 37.3757C74.6034 36.9884 75.1268 36.7705 75.6726 36.7698H104.828C105.374 36.7705 105.897 36.9884 106.283 37.3757C106.669 37.763 106.886 38.2881 106.887 38.8359L106.874 65.2779Z" fill="white"/>
<path d="M96.6913 51.4893L84.4652 44.4101C84.366 44.3526 84.2535 44.3223 84.1389 44.3223C84.0244 44.3222 83.9118 44.3524 83.8126 44.4098C83.7133 44.4671 83.6308 44.5497 83.5734 44.6491C83.5159 44.7486 83.4856 44.8615 83.4854 44.9764V59.1348C83.4848 59.2498 83.5147 59.3629 83.5722 59.4624C83.6296 59.5619 83.7123 59.6443 83.812 59.7011C83.9107 59.7603 84.0236 59.7911 84.1386 59.7903C84.2535 59.7905 84.3663 59.7597 84.4652 59.7011L96.6913 52.6219C96.7906 52.5644 96.8731 52.4817 96.9304 52.382C96.9877 52.2824 97.0179 52.1693 97.0179 52.0543C97.0179 51.9392 96.9877 51.8262 96.9304 51.7266C96.8731 51.6269 96.7906 51.5442 96.6913 51.4866V51.4893ZM84.7918 58.0047V46.1117L95.0582 52.0582L84.7918 58.0047Z" fill="white"/>
<path d="M13.7922 31.492C14.1656 31.8626 14.6101 32.1534 15.0987 32.3467C15.6411 32.5568 16.2184 32.6609 16.7998 32.6535C17.4637 32.6657 18.1229 32.5398 18.736 32.2838C19.2641 32.0597 19.7564 31.7584 20.1966 31.3897V27.9209H16.7501V29.439H18.5112V30.5874C18.0266 30.9198 17.4492 31.0888 16.8625 31.0698C16.529 31.0741 16.1982 31.0099 15.8904 30.8811C15.6044 30.7594 15.3458 30.5811 15.1301 30.3567C14.9112 30.125 14.7414 29.8512 14.631 29.5517C14.5105 29.2282 14.4503 28.8851 14.4533 28.5397V28.5161C14.4515 28.1861 14.5118 27.8588 14.631 27.5512C14.7417 27.2598 14.9077 26.9927 15.1196 26.7646C15.3252 26.5405 15.5718 26.358 15.846 26.2272C16.1241 26.0937 16.4288 26.0256 16.737 26.0279C16.9473 26.0264 17.1573 26.0448 17.3642 26.0829C17.543 26.1196 17.718 26.1732 17.8867 26.2429C18.0521 26.3155 18.2104 26.4033 18.3597 26.5051C18.518 26.6093 18.6698 26.7232 18.8144 26.8459L19.917 25.5114C19.7158 25.3409 19.5027 25.1849 19.2795 25.0447C19.0571 24.9061 18.8206 24.7918 18.574 24.7038C18.3102 24.6081 18.0381 24.537 17.7613 24.4914C17.4399 24.4397 17.1148 24.4152 16.7893 24.418C16.2165 24.4111 15.6483 24.5217 15.1196 24.7432C14.6309 24.9517 14.1871 25.2536 13.8131 25.632C13.4339 26.0155 13.1343 26.4706 12.9315 26.9711C12.7288 27.4715 12.627 28.0074 12.6321 28.5476V28.5449C12.6262 29.1077 12.7301 29.6661 12.9378 30.1889C13.131 30.6772 13.4218 31.1206 13.7922 31.492Z" fill="white"/>
<path d="M23.7185 24.5332H21.9678V32.5169H23.7185V24.5332Z" fill="white"/>
<path d="M27.4577 29.4257H31.2544V27.8421H27.4577V26.1195H31.7665V24.5332H25.707V32.5169H27.4577V29.4257Z" fill="white"/>
<path d="M4.58901 38.0678V45.4852C4.58901 46.4587 4.97441 47.3924 5.66045 48.0808C6.34648 48.7691 7.27696 49.1559 8.24716 49.1559H36.4411C37.4113 49.1559 38.3418 48.7691 39.0278 48.0808C39.7138 47.3924 40.0992 46.4587 40.0992 45.4852V38.0678H41.0504C41.7591 38.0671 42.4386 37.7843 42.9398 37.2814C43.4409 36.7785 43.7227 36.0967 43.7234 35.3856V21.1171C43.7227 20.4059 43.4409 19.7241 42.9398 19.2212C42.4386 18.7183 41.7591 18.4355 41.0504 18.4348H40.081V12.7191C40.0814 12.631 40.0727 12.5431 40.0548 12.4569C40.0216 12.2868 39.954 12.1252 39.8562 11.9823L39.8406 11.9639C39.7976 11.9008 39.7486 11.842 39.6942 11.7883L28.1136 0.380304C28.0886 0.357904 28.0624 0.3369 28.0352 0.31738C27.9996 0.284599 27.962 0.253955 27.9228 0.225611C27.8915 0.204636 27.8575 0.191531 27.8235 0.173178C27.7831 0.1479 27.7413 0.125132 27.6981 0.105005L27.5831 0.0709191C27.5413 0.055077 27.4986 0.041942 27.4551 0.0315919C27.369 0.0146292 27.2815 0.00584902 27.1938 0.00537109H8.23932C7.26911 0.00537109 6.33865 0.392108 5.65261 1.0805C4.96658 1.76888 4.58116 2.70253 4.58116 3.67606V18.448H3.16232C2.45359 18.4486 1.77409 18.7315 1.27294 19.2343C0.771794 19.7372 0.48995 20.419 0.489258 21.1302V35.3987C0.493397 36.1075 0.776759 36.786 1.27753 37.286C1.77831 37.7861 2.45585 38.0671 3.16232 38.0678H4.58901ZM37.4784 45.4852C37.4784 45.7633 37.3683 46.0301 37.1723 46.2268C36.9763 46.4235 36.7105 46.5339 36.4333 46.5339H8.23932C7.96212 46.5339 7.69627 46.4235 7.50026 46.2268C7.30425 46.0301 7.19413 45.7633 7.19413 45.4852V38.0678H37.4784V45.4852ZM28.5081 4.43641L35.5867 11.4081H28.5081V4.43641ZM7.19936 3.66295C7.19936 3.3848 7.30948 3.11804 7.50549 2.92136C7.7015 2.72468 7.96735 2.61418 8.24455 2.61418H25.8951V12.7112C25.8951 13.0589 26.0328 13.3923 26.2778 13.6382C26.5228 13.884 26.8551 14.0221 27.2016 14.0221H37.4758V18.427H7.20198L7.19936 3.66295ZM3.11006 35.3882V21.1171C3.11006 21.1011 3.11639 21.0857 3.12766 21.0744C3.13893 21.0631 3.15423 21.0568 3.17017 21.0568H41.0504C41.0663 21.0568 41.0816 21.0631 41.0929 21.0744C41.1041 21.0857 41.1105 21.1011 41.1105 21.1171V35.3856C41.1105 35.4015 41.1041 35.4169 41.0929 35.4282C41.0816 35.4395 41.0663 35.4459 41.0504 35.4459H3.16232C3.14825 35.4434 3.13553 35.4359 3.12644 35.4249C3.11734 35.4138 3.11246 35.3999 3.11267 35.3856L3.11006 35.3882Z" fill="white"/>
</g>
<defs>
<clipPath id="clip0_229_4798">
<rect width="109" height="110" fill="white" transform="translate(0.5)"/>
</clipPath>
</defs>
</svg>
