<svg width="107" height="123" viewBox="0 0 107 123" fill="none" xmlns="http://www.w3.org/2000/svg">
<g clip-path="url(#clip0_543_82)">
<path d="M73.6617 10.3091H81.6544C82.0329 10.3091 82.396 10.1591 82.6636 9.89206C82.9313 9.62503 83.0817 9.26286 83.0817 8.88521C83.0817 8.50757 82.9313 8.14539 82.6636 7.87836C82.396 7.61133 82.0329 7.4613 81.6544 7.4613H73.6617C73.2831 7.4613 72.9201 7.61133 72.6524 7.87836C72.3848 8.14539 72.2344 8.50757 72.2344 8.88521C72.2344 9.26286 72.3848 9.62503 72.6524 9.89206C72.9201 10.1591 73.2831 10.3091 73.6617 10.3091Z" fill="white"/>
<path d="M97.8853 0H57.4135C55.0002 0.0060047 52.6874 0.964488 50.9802 2.66609C49.2729 4.36769 48.31 6.67414 48.3017 9.08169V55.3501H6.53108C6.35521 54.5551 5.89125 53.8529 5.22826 53.3783C4.56526 52.9036 3.74992 52.6898 2.93867 52.7781C2.12742 52.8663 1.3774 53.2504 0.832536 53.8564C0.287667 54.4625 -0.0136719 55.248 -0.0136719 56.0621C-0.0136719 56.8762 0.287667 57.6617 0.832536 58.2678C1.3774 58.8738 2.12742 59.2579 2.93867 59.3461C3.74992 59.4343 4.56526 59.2206 5.22826 58.7459C5.89125 58.2713 6.35521 57.5691 6.53108 56.7741H39.2442C22.7307 61.359 10.576 76.4952 10.576 94.4079H7.63008V101.71H14.9492V94.4136H12.0033C12.0033 74.9773 26.8469 58.9327 45.8297 56.9819C45.8297 60.069 43.8686 66.3427 40.1805 75.1282C37.3716 81.8234 34.5228 87.6586 34.4943 87.7099L34.3572 87.9946L40.9655 104.558H39.23C38.3765 104.558 37.5579 104.896 36.9541 105.497C36.3504 106.099 36.0108 106.916 36.01 107.767V111.233C36.0096 111.655 36.0926 112.073 36.2543 112.463C36.4159 112.854 36.6529 113.208 36.9519 113.507C37.2509 113.806 37.606 114.043 37.9969 114.205C38.3877 114.367 38.8067 114.45 39.23 114.451H40.426C40.0234 114.997 39.8063 115.658 39.8066 116.336V119.802C39.8118 120.65 40.153 121.461 40.7557 122.059C41.3584 122.658 42.1736 122.994 43.0237 122.994H56.44C57.2938 122.994 58.1124 122.655 58.7161 122.053C59.3197 121.45 59.6592 120.634 59.66 119.782V116.322C59.6539 115.647 59.433 114.992 59.0291 114.451H60.2223C61.0761 114.45 61.8946 114.111 62.4983 113.509C63.102 112.907 63.4415 112.09 63.4423 111.239V107.758C63.4426 106.927 63.118 106.128 62.5374 105.532H97.8824C102.906 105.532 106.994 100.861 106.994 95.1199V9.08169C106.986 6.67463 106.023 4.36861 104.317 2.66709C102.61 0.965568 100.298 0.00675569 97.8853 0ZM58.2241 119.788C58.2219 120.261 58.0321 120.714 57.6962 121.048C57.3604 121.382 56.9057 121.57 56.4315 121.57H43.0151C42.5402 121.57 42.0849 121.381 41.7493 121.046C41.4138 120.71 41.2253 120.256 41.2253 119.782V116.322C41.2253 115.848 41.4139 115.394 41.7495 115.059C42.0852 114.724 42.5404 114.536 43.0151 114.536H56.4315C56.9064 114.536 57.362 114.724 57.6981 115.059C58.0342 115.394 58.2234 115.848 58.2241 116.322V119.788ZM88.6651 90.2872C88.0679 84.516 86.1751 78.9531 83.1272 74.0119C80.8261 70.2805 77.9174 66.9581 74.5208 64.1812H98.5475C98.7545 64.1787 98.9599 64.218 99.1512 64.2968C99.3425 64.3756 99.5159 64.4923 99.6608 64.6397C99.7867 64.7613 99.8842 64.9091 99.9463 65.0726C99.9908 65.1949 100.014 65.324 100.015 65.4542V89.1651C100.01 89.4686 99.8852 89.7578 99.6685 89.9708C99.4518 90.1838 99.16 90.3035 98.8558 90.3042H88.6794C88.6751 90.2982 88.6703 90.2925 88.6651 90.2872ZM81.9084 74.758C84.8259 79.4839 86.6451 84.802 87.2321 90.3213H64.1673C64.4271 89.6749 64.684 89.0256 64.9437 88.3791L65.1008 87.9861L64.9609 87.7013C64.9295 87.6387 61.9151 81.4675 59.0263 74.5188C57.5076 70.8736 56.2973 67.684 55.4124 64.9701C55.5388 64.7258 55.7318 64.5221 55.9691 64.3825C56.2065 64.243 56.4786 64.1732 56.7541 64.1812H72.2029C76.0825 67.0594 79.3764 70.6491 81.9084 74.758ZM56.7455 62.7602C56.0782 62.7592 55.4295 62.9796 54.9014 63.3867C54.0451 60.5901 53.6226 58.4286 53.6169 56.9762C59.142 57.5427 64.4727 59.3235 69.2256 62.1906C69.5339 62.3757 69.8365 62.5665 70.139 62.7602H56.7455ZM49.7204 90.6887C49.3253 90.701 48.9317 90.6339 48.563 90.4915C48.1944 90.3491 47.8581 90.1343 47.5743 89.8598C47.2904 89.5853 47.0647 89.2567 46.9106 88.8935C46.7565 88.5303 46.677 88.1399 46.677 87.7455C46.677 87.3511 46.7565 86.9607 46.9106 86.5975C47.0647 86.2343 47.2904 85.9057 47.5743 85.6312C47.8581 85.3567 48.1944 85.1418 48.563 84.9994C48.9317 84.857 49.3253 84.79 49.7204 84.8023C50.487 84.826 51.2142 85.1466 51.748 85.6959C52.2818 86.2453 52.5803 86.9803 52.5803 87.7455C52.5803 88.5106 52.2818 89.2457 51.748 89.795C51.2142 90.3444 50.487 90.6649 49.7204 90.6887ZM41.4879 75.6722C45.0532 67.1828 46.9801 61.1341 47.2227 57.6683H49.0068V83.441C47.9229 83.6197 46.946 84.1987 46.2702 85.0628C45.5945 85.927 45.2692 87.0131 45.3591 88.1054C45.449 89.1978 45.9474 90.2164 46.7554 90.9591C47.5634 91.7017 48.6218 92.114 49.7204 92.114C50.8191 92.114 51.8775 91.7017 52.6855 90.9591C53.4935 90.2164 53.9919 89.1978 54.0818 88.1054C54.1717 87.0131 53.8464 85.927 53.1706 85.0628C52.4949 84.1987 51.518 83.6197 50.4341 83.441V57.6683H52.2182C52.4551 61.0486 54.2963 66.8952 57.6989 75.0684C60.268 81.2112 62.9056 86.7445 63.5308 88.0431C63.2596 88.7294 62.9855 89.4129 62.7115 90.0992C62.623 90.3156 62.5374 90.5349 62.4517 90.7514V90.7684C61.4641 93.2479 60.4745 95.7303 59.483 98.2155L57.6903 102.704C57.4046 102.746 57.1383 102.873 56.9268 103.07C56.7153 103.266 56.5685 103.522 56.5057 103.803H42.2015L35.9215 88.0431C36.521 86.79 39.0244 81.5643 41.4965 75.6722H41.4879ZM62.0093 111.224C62.0085 111.698 61.8194 112.153 61.4834 112.488C61.1474 112.823 60.6918 113.012 60.2166 113.013H39.23C38.7548 113.012 38.2992 112.823 37.9632 112.488C37.6272 112.153 37.4381 111.698 37.4373 111.224V107.758C37.4381 107.285 37.6273 106.831 37.9634 106.496C38.2995 106.161 38.755 105.973 39.23 105.973H60.2252C60.7001 105.973 61.1557 106.161 61.4918 106.496C61.8279 106.831 62.0171 107.285 62.0178 107.758L62.0093 111.224ZM97.8767 102.681H59.2375L60.8075 98.7395C61.74 96.4062 62.6706 94.0738 63.5993 91.7424H87.3577C87.4205 92.6366 87.4548 93.528 87.4548 94.4051H84.5089V101.707H91.8251V94.4136H88.882C88.882 93.5365 88.8478 92.6451 88.7878 91.7509H98.8444C99.5271 91.7502 100.182 91.4805 100.666 91.0004C101.151 90.5204 101.425 89.869 101.431 89.1879V65.4684C101.427 64.7942 101.161 64.1476 100.688 63.6658C100.41 63.3808 100.077 63.1547 99.7093 63.0011C99.3415 62.8474 98.9463 62.7694 98.5475 62.7716H72.6682C71.7947 62.1393 70.8965 61.5432 69.9735 60.9831C66.9297 59.1477 63.649 57.7354 60.2223 56.7854H91.1771C91.3529 57.5774 91.8156 58.2766 92.4764 58.7492C93.1372 59.2217 93.9496 59.4343 94.7578 59.346C95.566 59.2578 96.3131 58.875 96.8558 58.2711C97.3986 57.6672 97.6987 56.8846 97.6987 56.0735C97.6987 55.2624 97.3986 54.4798 96.8558 53.8759C96.3131 53.272 95.566 52.8892 94.7578 52.8009C93.9496 52.7127 93.1372 52.9253 92.4764 53.3978C91.8156 53.8703 91.3529 54.5696 91.1771 55.3615H51.1563V9.08169C51.1578 7.42656 51.8175 5.83966 52.9906 4.6693C54.1637 3.49895 55.7544 2.84078 57.4135 2.83927H97.8853C99.5423 2.84379 101.13 3.50329 102.301 4.67332C103.471 5.84335 104.13 7.42853 104.131 9.08169V90.5833C104.106 90.6568 104.093 90.7336 104.091 90.8111C104.09 92.6551 103.355 94.4231 102.048 95.727C100.741 97.0308 98.9686 97.764 97.1202 97.7655H95.4075C95.2182 97.7655 95.0368 97.8405 94.9029 97.974C94.7691 98.1075 94.6939 98.2886 94.6939 98.4775C94.6939 98.6663 94.7691 98.8474 94.9029 98.9809C95.0368 99.1144 95.2182 99.1894 95.4075 99.1894H97.1202C98.5096 99.1898 99.8773 98.8464 101.101 98.1898C102.324 97.5332 103.366 96.5841 104.131 95.4275C104.003 99.4543 101.251 102.684 97.8853 102.684L97.8767 102.681Z" fill="white"/>
<path d="M80.4185 97.7655H66.0515C65.8623 97.7655 65.6807 97.8405 65.5469 97.974C65.4131 98.1075 65.3379 98.2886 65.3379 98.4775C65.3379 98.6663 65.4131 98.8474 65.5469 98.9809C65.6807 99.1144 65.8623 99.1894 66.0515 99.1894H80.4185C80.6078 99.1894 80.7893 99.1144 80.9231 98.9809C81.0569 98.8474 81.1321 98.6663 81.1321 98.4775C81.1321 98.2886 81.0569 98.1075 80.9231 97.974C80.7893 97.8405 80.6078 97.7655 80.4185 97.7655Z" fill="white"/>
<path d="M98.5475 21.914H56.7455C55.1584 21.914 53.8652 23.1243 53.8652 24.6137V48.2021C53.8669 48.7015 54.0147 49.1895 54.2906 49.6061V49.6204C54.5614 50.0161 54.9257 50.3392 55.3514 50.5612C55.777 50.7832 56.2509 50.8973 56.7312 50.8933H98.8216C99.5045 50.8888 100.158 50.615 100.639 50.1316C101.121 49.6482 101.391 48.9946 101.391 48.3132V24.6137C101.39 24.3226 101.34 24.0337 101.242 23.7593C101.034 23.2149 100.665 22.7466 100.184 22.4169C99.7023 22.0872 99.1315 21.9117 98.5475 21.914ZM55.3011 24.6137C55.3011 23.9103 55.9548 23.3379 56.7541 23.3379H98.5475H98.6674L55.3182 48.2192C55.3182 48.2192 55.3182 48.2192 55.3182 48.2021L55.3011 24.6137ZM100.001 48.3218C100.001 48.6255 99.8808 48.917 99.6671 49.1333C99.4535 49.3497 99.1631 49.4735 98.8587 49.478H56.7455C56.5501 49.4752 56.3567 49.4375 56.1746 49.3669L99.9491 24.2577C99.9864 24.3727 100.006 24.4928 100.006 24.6137L100.001 48.3218Z" fill="white"/>
</g>
<defs>
<clipPath id="clip0_543_82">
<rect width="107" height="123" fill="white"/>
</clipPath>
</defs>
</svg>
