<svg width="130" height="121" viewBox="0 0 130 121" fill="none" xmlns="http://www.w3.org/2000/svg">
<g clip-path="url(#clip0_229_4814)">
<path d="M47.4587 113.023C47.0433 113.023 46.645 112.856 46.3513 112.559C46.0576 112.262 45.8926 111.86 45.8926 111.439V99.3793C45.8926 98.9593 46.0576 98.5564 46.3513 98.2593C46.645 97.9623 47.0433 97.7954 47.4587 97.7954C47.874 97.7954 48.2723 97.9623 48.566 98.2593C48.8597 98.5564 49.0247 98.9593 49.0247 99.3793V111.439C49.0247 111.86 48.8597 112.262 48.566 112.559C48.2723 112.856 47.874 113.023 47.4587 113.023Z" fill="white"/>
<path d="M82.5387 113.023C82.1234 113.023 81.725 112.856 81.4314 112.559C81.1377 112.262 80.9727 111.86 80.9727 111.439V99.3793C80.9727 98.9593 81.1377 98.5564 81.4314 98.2593C81.725 97.9623 82.1234 97.7954 82.5387 97.7954C82.9541 97.7954 83.3524 97.9623 83.6461 98.2593C83.9398 98.5564 84.1048 98.9593 84.1048 99.3793V111.439C84.1048 111.86 83.9398 112.262 83.6461 112.559C83.3524 112.856 82.9541 113.023 82.5387 113.023Z" fill="white"/>
<path d="M89.0413 121.006H40.9565C40.0657 121.005 39.2118 120.646 38.5819 120.009C37.952 119.372 37.5974 118.508 37.5957 117.607V113.258C37.5965 112.356 37.9508 111.492 38.5808 110.854C39.2108 110.216 40.0651 109.857 40.9565 109.855H89.0413C89.9327 109.857 90.787 110.216 91.417 110.854C92.047 111.492 92.4013 112.356 92.4021 113.258V117.601C92.4021 118.503 92.0482 119.368 91.4181 120.007C90.7881 120.645 89.9332 121.005 89.0413 121.006ZM40.9565 113.023C40.8956 113.024 40.8374 113.049 40.7946 113.093C40.7518 113.137 40.7279 113.196 40.7279 113.258V117.601C40.7279 117.662 40.7519 117.721 40.7948 117.764C40.8377 117.808 40.8959 117.832 40.9565 117.832H89.0413C89.102 117.832 89.1601 117.808 89.203 117.764C89.2459 117.721 89.27 117.662 89.27 117.601V113.258C89.27 113.196 89.246 113.137 89.2032 113.093C89.1604 113.049 89.1022 113.024 89.0413 113.023H40.9565Z" fill="white"/>
<path d="M121.552 100.963H8.44412C6.20123 100.963 4.05022 100.062 2.46426 98.4581C0.878296 96.8541 -0.0126953 94.6785 -0.0126953 92.4101V24.19C-0.0126953 21.9215 0.878296 19.746 2.46426 18.1419C4.05022 16.5379 6.20123 15.6367 8.44412 15.6367H29.8586V18.8046H8.44412C7.03193 18.8046 5.67758 19.372 4.67902 20.3819C3.68045 21.3919 3.11946 22.7617 3.11946 24.19V92.4227C3.11946 93.851 3.68045 95.2208 4.67902 96.2308C5.67758 97.2407 7.03193 97.8081 8.44412 97.8081H121.552C122.965 97.8081 124.319 97.2407 125.318 96.2308C126.316 95.2208 126.877 93.851 126.877 92.4227V24.19C126.877 22.7617 126.316 21.3919 125.318 20.3819C124.319 19.372 122.965 18.8046 121.552 18.8046H104.285V15.6367H121.552C123.795 15.6367 125.946 16.5379 127.532 18.1419C129.118 19.746 130.009 21.9215 130.009 24.19V92.4227C130.006 94.689 129.113 96.8613 127.528 98.4626C125.942 100.064 123.793 100.963 121.552 100.963Z" fill="white"/>
<path d="M80.2019 15.646H59.6299V18.8139H80.2019V15.646Z" fill="white"/>
<path d="M55.602 29.3408H33.8961C32.6196 29.3383 31.3961 28.8241 30.4937 27.9108C29.5913 26.9976 29.0837 25.7597 29.082 24.4686V4.87217C29.082 3.58105 29.5881 2.34257 30.4893 1.42813C31.3905 0.513681 32.6133 -0.00215569 33.8899 -0.00634766H55.602C56.8788 -0.00466972 58.1028 0.509284 59.0053 1.42272C59.9079 2.33616 60.4153 3.57446 60.4161 4.86584V24.4623C60.4169 25.7548 59.9103 26.9947 59.0075 27.9095C58.1048 28.8243 56.8799 29.3391 55.602 29.3408ZM33.8899 1.57759C33.0284 1.57926 32.2027 1.92635 31.5939 2.54274C30.985 3.15913 30.6427 3.99455 30.6418 4.86584V24.4623C30.6427 25.3336 30.985 26.169 31.5939 26.7854C32.2027 27.4018 33.0284 27.7489 33.8899 27.7505H55.602C56.4634 27.7489 57.2891 27.4018 57.898 26.7854C58.5068 26.169 58.8492 25.3336 58.85 24.4623V4.87217C58.8508 3.99978 58.5092 3.16275 57.9002 2.54498C57.2911 1.92722 56.4645 1.57927 55.602 1.57759H33.8899Z" fill="white"/>
<path d="M42.1967 20.5849C41.6983 20.5849 41.2202 20.3847 40.8678 20.0282C40.5154 19.6718 40.3174 19.1883 40.3174 18.6842V10.6505C40.3188 10.3176 40.4067 9.99084 40.5722 9.70304C40.7377 9.41525 40.9751 9.17648 41.2606 9.01063C41.546 8.84479 41.8695 8.75769 42.1987 8.75806C42.5279 8.75842 42.8512 8.84623 43.1363 9.01271L50.0271 13.0327C50.3089 13.2006 50.5426 13.4401 50.7049 13.7273C50.8673 14.0145 50.9527 14.3397 50.9527 14.6705C50.9527 15.0014 50.8673 15.3265 50.7049 15.6138C50.5426 15.901 50.3089 16.1404 50.0271 16.3083L43.1363 20.3283C42.8508 20.4959 42.5267 20.5844 42.1967 20.5849ZM42.1967 10.3432C42.1429 10.3434 42.09 10.3576 42.0432 10.3844C41.9966 10.4108 41.9581 10.4495 41.9316 10.4964C41.9051 10.5433 41.8917 10.5965 41.8928 10.6505V18.6842C41.8917 18.7382 41.9051 18.7915 41.9316 18.8383C41.9581 18.8852 41.9966 18.9239 42.0432 18.9503C42.0908 18.9781 42.1448 18.9928 42.1998 18.9928C42.2548 18.9928 42.3088 18.9781 42.3564 18.9503L49.2472 14.9303C49.2911 14.9016 49.3273 14.8622 49.3523 14.8157C49.3773 14.7692 49.3904 14.7171 49.3904 14.6642C49.3904 14.6113 49.3773 14.5592 49.3523 14.5127C49.3273 14.4662 49.2911 14.4268 49.2472 14.3981L42.3564 10.3781C42.3081 10.3529 42.2541 10.3409 42.1998 10.3432H42.1967Z" fill="white"/>
<path d="M92.1944 29.3408C92.0352 29.3403 91.8801 29.2906 91.7497 29.1983C87.4649 26.1793 79.9321 20.1952 77.608 14.0463C77.2579 13.0542 77.0819 12.0079 77.088 10.9545C77.0891 9.17861 77.593 7.44017 78.5401 5.94479C79.4873 4.44941 80.838 3.25965 82.4326 2.51623C84.0272 1.77281 85.799 1.50684 87.5384 1.74975C89.2777 1.99266 90.9119 2.73432 92.2477 3.88698C93.9104 2.44563 96.0308 1.65839 98.2207 1.66947C100.657 1.67282 102.993 2.65358 104.716 4.3966C106.439 6.13962 107.408 8.50259 107.41 10.9672C107.419 11.9351 107.272 12.8981 106.975 13.8183C104.886 19.8372 97.1871 25.9797 92.7457 29.1317C92.5958 29.2713 92.3981 29.3463 92.1944 29.3408ZM86.2966 3.24073C84.2743 3.24241 82.3354 4.05564 80.9055 5.50189C79.4755 6.94814 78.6715 8.9092 78.6698 10.9545C78.6609 11.8174 78.8019 12.6752 79.0864 13.4888C79.8256 15.4465 82.5787 20.6957 92.2007 27.5827C95.8371 24.9692 103.564 18.8995 105.519 13.2765C105.756 12.5295 105.874 11.7487 105.866 10.964C105.867 9.43574 105.418 7.94179 104.578 6.67184C103.737 5.4019 102.542 4.41325 101.145 3.83141C99.7478 3.24958 98.2111 3.10081 96.7301 3.404C95.2492 3.70719 93.8906 4.44866 92.8271 5.53427C92.7544 5.609 92.6675 5.66825 92.5718 5.70852C92.476 5.74878 92.3733 5.76924 92.2696 5.7687C92.1607 5.76884 92.053 5.7461 91.9532 5.70193C91.8535 5.65776 91.7639 5.59312 91.6901 5.5121C90.9847 4.79102 90.1447 4.2189 89.2188 3.82898C88.2928 3.43905 87.2995 3.2391 86.2966 3.24073Z" fill="white"/>
<path d="M10.7937 73.6085C10.683 73.6085 10.5735 73.5846 10.4726 73.5386C10.3717 73.4926 10.2815 73.4255 10.2081 73.3417C10.1347 73.2579 10.0797 73.1592 10.0467 73.0523C10.0138 72.9454 10.0036 72.8327 10.0169 72.7215L11.1695 63.2433C10.2378 63.1677 9.36834 62.7402 8.73403 62.0458C8.09972 61.3514 7.74703 60.4411 7.74609 59.4957V46.9319C7.74692 45.9349 8.13889 44.9789 8.83594 44.2739C9.533 43.5689 10.4782 43.1725 11.464 43.1716H34.2065C35.1923 43.1725 36.1375 43.5689 36.8345 44.2739C37.5316 44.9789 37.9235 45.9349 37.9244 46.9319V59.4957C37.9235 60.4927 37.5316 61.4487 36.8345 62.1537C36.1375 62.8587 35.1923 63.2551 34.2065 63.2559H22.4234L11.3199 73.3931C11.177 73.5285 10.9894 73.6052 10.7937 73.6085ZM11.464 44.7556C10.8935 44.7564 10.3467 44.986 9.94332 45.3939C9.53996 45.8019 9.313 46.355 9.31217 46.9319V59.4957C9.313 60.0726 9.53996 60.6257 9.94332 61.0336C10.3467 61.4416 10.8935 61.6712 11.464 61.672H12.0653C12.176 61.672 12.2854 61.6957 12.3864 61.7415C12.4874 61.7874 12.5775 61.8544 12.651 61.9381C12.7268 62.0231 12.7831 62.124 12.8161 62.2334C12.8491 62.3429 12.858 62.4584 12.8421 62.5717L11.8398 70.8081L21.609 61.8779C21.7539 61.7474 21.9412 61.6753 22.1352 61.6752H34.219C34.7895 61.6743 35.3363 61.4448 35.7397 61.0368C36.143 60.6288 36.37 60.0758 36.3708 59.4988V46.9319C36.37 46.355 36.143 45.8019 35.7397 45.3939C35.3363 44.986 34.7895 44.7564 34.219 44.7556H11.464Z" fill="white"/>
<path d="M121.916 66.2021H98.0018C97.8988 66.2026 97.7968 66.1824 97.7017 66.1427C97.6065 66.1031 97.52 66.0447 97.4472 65.9711C97.3744 65.8975 97.3167 65.81 97.2775 65.7137C97.2383 65.6175 97.2183 65.5143 97.2188 65.4102V61.4884C97.2221 58.6076 98.355 55.8458 100.369 53.8088C102.383 51.7718 105.114 50.6259 107.962 50.6226H111.956C114.804 50.6259 117.534 51.7718 119.549 53.8088C121.563 55.8458 122.695 58.6076 122.699 61.4884V65.4228C122.696 65.6309 122.613 65.8296 122.466 65.9756C122.319 66.1216 122.122 66.203 121.916 66.2021ZM98.7848 64.6182H121.133V61.4757C121.13 59.0148 120.163 56.6553 118.442 54.9152C116.722 53.1751 114.389 52.1963 111.956 52.1938H107.962C105.529 52.1963 103.196 53.1751 101.476 54.9152C99.755 56.6553 98.7873 59.0148 98.7848 61.4757V64.6182Z" fill="white"/>
<path d="M109.961 47.6796C108.698 47.6796 107.463 47.3007 106.413 46.591C105.362 45.8812 104.544 44.8724 104.06 43.6921C103.577 42.5119 103.451 41.2131 103.697 39.9601C103.943 38.7072 104.552 37.5562 105.445 36.6529C106.338 35.7495 107.476 35.1343 108.715 34.8851C109.954 34.6359 111.238 34.7638 112.405 35.2527C113.572 35.7416 114.569 36.5695 115.271 37.6317C115.973 38.6939 116.347 39.9428 116.347 41.2203C116.345 42.9326 115.671 44.5741 114.474 45.7849C113.277 46.9957 111.654 47.6771 109.961 47.6796ZM109.961 36.3449C109.007 36.3449 108.075 36.6309 107.283 37.1666C106.49 37.7023 105.872 38.4637 105.507 39.3546C105.142 40.2454 105.047 41.2257 105.233 42.1714C105.419 43.1171 105.878 43.9858 106.552 44.6677C107.226 45.3495 108.085 45.8138 109.02 46.002C109.955 46.1901 110.925 46.0935 111.805 45.7245C112.686 45.3555 113.439 44.7306 113.969 43.9289C114.498 43.1271 114.781 42.1845 114.781 41.2203C114.779 39.9278 114.271 38.6887 113.367 37.7747C112.464 36.8608 111.239 36.3466 109.961 36.3449Z" fill="white"/>
<path d="M65.7971 81.2146C63.4988 81.2146 61.2521 80.5253 59.3412 79.2339C57.4302 77.9425 55.9408 76.1069 55.0613 73.9594C54.1818 71.8118 53.9517 69.4487 54.4 67.1689C54.8484 64.8891 55.9551 62.795 57.5803 61.1513C59.2054 59.5076 61.2759 58.3883 63.53 57.9348C65.7842 57.4813 68.1206 57.7141 70.2439 58.6036C72.3673 59.4932 74.1821 60.9995 75.459 62.9323C76.7358 64.865 77.4174 67.1373 77.4174 69.4618C77.414 72.5778 76.1887 75.5652 74.0102 77.7686C71.8317 79.9719 68.8779 81.2112 65.7971 81.2146ZM65.7971 60.8769C64.1183 60.8769 62.4772 61.3804 61.0813 62.3237C59.6854 63.267 58.5975 64.6078 57.955 66.1765C57.3126 67.7452 57.1445 69.4713 57.472 71.1366C57.7995 72.8019 58.6079 74.3316 59.795 75.5322C60.9821 76.7329 62.4946 77.5505 64.1411 77.8818C65.7876 78.213 67.4943 78.043 69.0453 77.3932C70.5963 76.7435 71.922 75.6431 72.8547 74.2313C73.7874 72.8195 74.2852 71.1597 74.2852 69.4618C74.2827 67.1857 73.3876 65.0035 71.7963 63.3941C70.205 61.7847 68.0475 60.8794 65.7971 60.8769Z" fill="white"/>
<path d="M69.4743 94.808H62.4238C62.0085 94.808 61.6101 94.6411 61.3164 94.3441C61.0227 94.047 60.8577 93.6441 60.8577 93.2241V90.373C58.7613 89.8711 56.754 89.0451 54.9066 87.9242L52.9365 89.9168C52.6428 90.2137 52.2446 90.3806 51.8293 90.3806C51.414 90.3806 51.0158 90.2137 50.7221 89.9168L45.7357 84.864C45.4421 84.567 45.2772 84.1642 45.2772 83.7442C45.2772 83.3242 45.4421 82.9214 45.7357 82.6244L47.6714 80.6666C46.5301 78.7915 45.6848 76.748 45.1656 74.6096H42.4469C42.0316 74.6096 41.6333 74.4428 41.3396 74.1457C41.0459 73.8487 40.8809 73.4458 40.8809 73.0257V65.8853C40.8809 65.4652 41.0459 65.0624 41.3396 64.7653C41.6333 64.4683 42.0316 64.3014 42.4469 64.3014H45.1594C45.6771 62.1626 46.5226 60.1189 47.6651 58.2444L45.7294 56.2867C45.4358 55.9897 45.2709 55.5868 45.2709 55.1668C45.2709 54.7468 45.4358 54.344 45.7294 54.047L50.7158 49.0069C51.0095 48.71 51.4078 48.5432 51.823 48.5432C52.2383 48.5432 52.6366 48.71 52.9302 49.0069L54.9004 50.9995C56.7465 49.876 58.7542 49.0499 60.8515 48.5507V45.6997C60.8515 45.2796 61.0165 44.8767 61.3102 44.5797C61.6039 44.2826 62.0022 44.1157 62.4175 44.1157H69.468C69.8834 44.1157 70.2817 44.2826 70.5754 44.5797C70.8691 44.8767 71.0341 45.2796 71.0341 45.6997V48.6363C73.094 49.1628 75.0627 50.0035 76.8724 51.1294L78.9553 49.0196C79.1008 48.872 79.2736 48.7549 79.4638 48.675C79.6541 48.5951 79.8581 48.554 80.0641 48.5539C80.2701 48.554 80.4741 48.5951 80.6644 48.675C80.8546 48.7549 81.0274 48.872 81.1729 49.0196L86.1561 54.0597C86.4497 54.3567 86.6147 54.7595 86.6147 55.1795C86.6147 55.5995 86.4497 56.0023 86.1561 56.2994L84.0325 58.4472C85.1146 60.2665 85.9202 62.2399 86.4224 64.3014H89.4292C89.8446 64.3014 90.2429 64.4683 90.5366 64.7653C90.8303 65.0624 90.9953 65.4652 90.9953 65.8853V73.013C90.9953 73.4331 90.8303 73.836 90.5366 74.1331C90.2429 74.4301 89.8446 74.597 89.4292 74.597H86.4098C85.9108 76.6625 85.1073 78.6403 84.0263 80.4639L86.1499 82.6117C86.4435 82.9087 86.6084 83.3115 86.6084 83.7315C86.6084 84.1515 86.4435 84.5543 86.1499 84.8514L81.1666 89.8915C81.0212 90.039 80.8484 90.1561 80.6581 90.236C80.4678 90.3159 80.2638 90.3571 80.0578 90.3571C79.8518 90.3571 79.6478 90.3159 79.4576 90.236C79.2673 90.1561 79.0945 90.039 78.949 89.8915L76.8662 87.7817C75.061 88.9084 73.0964 89.7501 71.0404 90.2779V93.2177C71.0412 93.4263 71.0013 93.6329 70.923 93.8258C70.8446 94.0187 70.7294 94.1941 70.5839 94.3418C70.4384 94.4896 70.2655 94.6068 70.0751 94.6868C69.8846 94.7668 69.6805 94.808 69.4743 94.808ZM63.9899 91.6401H67.9082V89.0108C67.9077 88.6414 68.0348 88.2835 68.2676 87.9989C68.5004 87.7143 68.8242 87.5209 69.183 87.4522C71.7011 86.9752 74.0885 85.9565 76.1834 84.4649C76.4848 84.2503 76.8514 84.1502 77.2186 84.1821C77.5858 84.2139 77.9302 84.3758 78.1911 84.6391L80.0704 86.5399L82.8392 83.7426L80.9317 81.8102C80.6734 81.5489 80.5135 81.2045 80.4797 80.8366C80.446 80.4686 80.5405 80.1003 80.7469 79.7954C82.1873 77.6763 83.1653 75.2715 83.616 72.7406C83.6813 72.3754 83.8713 72.0449 84.153 71.807C84.4346 71.569 84.79 71.4386 85.157 71.4386H87.8632V67.4693H85.1444C84.777 67.4691 84.4213 67.3383 84.1396 67.0997C83.8579 66.8611 83.6681 66.5299 83.6034 66.1641C83.1536 63.634 82.1755 61.23 80.7344 59.1124C80.528 58.8075 80.4335 58.4392 80.4672 58.0713C80.501 57.7034 80.6609 57.359 80.9192 57.0977L82.8266 55.1684L80.0578 52.3649L78.1785 54.2656C77.9181 54.5294 77.5739 54.6919 77.2066 54.7243C76.8394 54.7568 76.4726 54.6571 76.1708 54.443C74.0769 52.9496 71.6892 51.9307 69.1705 51.4557C68.8116 51.387 68.4878 51.1936 68.255 50.909C68.0223 50.6244 67.8951 50.2665 67.8957 49.8971V47.2709H63.9899V49.8432C63.9901 50.2168 63.8598 50.5784 63.6219 50.8642C63.3841 51.1499 63.054 51.3415 62.69 51.405C60.1368 51.8444 57.7093 52.8423 55.5769 54.3289C55.2755 54.5377 54.9113 54.6333 54.5475 54.5991C54.1838 54.565 53.8432 54.4033 53.5849 54.142L51.8434 52.3775L49.0746 55.1811L50.8004 56.9298C51.0604 57.193 51.2206 57.5405 51.2526 57.9112C51.2847 58.282 51.1867 58.6523 50.9758 58.9572C49.4732 61.115 48.4555 63.5791 47.994 66.1768C47.9293 66.5426 47.7395 66.8738 47.4578 67.1124C47.1761 67.351 46.8204 67.4818 46.453 67.4819H44.013V71.4418H46.4279C46.7949 71.4418 47.1502 71.5722 47.4319 71.8101C47.7135 72.0481 47.9036 72.3785 47.9689 72.7438C48.429 75.3424 49.448 77.807 50.9539 79.9634C51.1656 80.2686 51.2641 80.6396 51.232 81.011C51.1999 81.3824 51.0393 81.7305 50.7785 81.9939L49.0495 83.7458L51.8183 86.5462L53.5755 84.769C53.8338 84.5077 54.1744 84.346 54.5381 84.3119C54.9019 84.2778 55.2661 84.3734 55.5675 84.5821C57.7001 86.0684 60.1276 87.0662 62.6806 87.5061C63.0446 87.5696 63.3747 87.7611 63.6125 88.0469C63.8503 88.3327 63.9807 88.6943 63.9805 89.0678L63.9899 91.6401Z" fill="white"/>
<path d="M38.8165 75.8198H26.5322C26.3244 75.8198 26.1251 75.7367 25.9778 75.5886L21.2138 70.7702C21.0709 70.6211 20.9917 70.4211 20.9932 70.2135C20.9947 70.0058 21.0767 69.807 21.2217 69.66C21.3667 69.5129 21.563 69.4294 21.7683 69.4273C21.9736 69.4252 22.1715 69.5047 22.3194 69.6488L26.8548 74.2359H38.8165C39.0241 74.2359 39.2233 74.3193 39.3702 74.4678C39.517 74.6164 39.5995 74.8178 39.5995 75.0278C39.5995 75.2379 39.517 75.4393 39.3702 75.5879C39.2233 75.7364 39.0241 75.8198 38.8165 75.8198Z" fill="white"/>
<path d="M50.5281 46.9575C50.4252 46.9578 50.3232 46.9376 50.228 46.8979C50.1329 46.8582 50.0464 46.7998 49.9737 46.7262L44.1886 40.8751C44.0421 40.7261 43.9599 40.5245 43.96 40.3144V33.6968C43.96 33.4867 44.0425 33.2853 44.1893 33.1367C44.3362 32.9882 44.5353 32.9048 44.743 32.9048C44.9507 32.9048 45.1498 32.9882 45.2967 33.1367C45.4435 33.2853 45.526 33.4867 45.526 33.6968V39.9881L51.0825 45.6111C51.2282 45.7605 51.3099 45.9619 51.3099 46.1718C51.3099 46.3817 51.2282 46.5831 51.0825 46.7325C51.0092 46.805 50.9225 46.8622 50.8274 46.9008C50.7323 46.9394 50.6306 46.9587 50.5281 46.9575Z" fill="white"/>
<path d="M85.0008 47.5465C84.8467 47.5455 84.6962 47.4985 84.5684 47.4114C84.4405 47.3244 84.3409 47.201 84.282 47.0569C84.2231 46.9128 84.2076 46.7543 84.2374 46.6013C84.2673 46.4484 84.341 46.3077 84.4496 46.197L91.4719 39.0946V33.7092C91.4719 33.4992 91.5544 33.2977 91.7012 33.1492C91.8481 33.0007 92.0472 32.9172 92.2549 32.9172C92.4626 32.9172 92.6617 33.0007 92.8086 33.1492C92.9554 33.2977 93.038 33.4992 93.038 33.7092V39.4335C93.0368 39.6441 92.9535 39.8456 92.8062 39.9943L85.5552 47.3279C85.4063 47.472 85.2069 47.5506 85.0008 47.5465Z" fill="white"/>
<path d="M105.544 79.1176H89.4295C89.2218 79.1176 89.0227 79.0342 88.8758 78.8857C88.729 78.7372 88.6465 78.5357 88.6465 78.3257C88.6465 78.1156 88.729 77.9142 88.8758 77.7657C89.0227 77.6171 89.2218 77.5337 89.4295 77.5337H105.05L108.874 69.8548C108.968 69.6687 109.131 69.5277 109.327 69.4626C109.524 69.3974 109.737 69.4134 109.922 69.507C110.107 69.6006 110.247 69.7643 110.313 69.9624C110.379 70.1604 110.365 70.3768 110.274 70.5644L106.23 78.6836C106.166 78.8125 106.068 78.9211 105.947 78.9976C105.826 79.0742 105.687 79.1157 105.544 79.1176Z" fill="white"/>
</g>
<defs>
<clipPath id="clip0_229_4814">
<rect width="130" height="121" fill="white"/>
</clipPath>
</defs>
</svg>
