<svg width="23" height="23" viewBox="0 0 23 23" fill="none" xmlns="http://www.w3.org/2000/svg">
<path d="M11.5 0C5.175 0 0 5.175 0 11.5C0 17.825 5.175 23 11.5 23C17.825 23 23 17.825 23 11.5C23 5.175 17.825 0 11.5 0ZM17.25 6.325L15.065 17.3075C15.065 17.3075 14.95 17.825 14.375 17.825C14.03 17.825 13.8575 17.6525 13.8575 17.6525L10.925 15.2375L8.97 17.1925C8.97 17.1925 8.855 17.25 8.7975 17.25C8.74 17.25 8.74 17.25 8.6825 17.25L9.2575 13.8L14.8925 8.5675C15.0075 8.4525 15.065 8.28 14.95 8.165C14.835 8.05 14.6625 7.9925 14.5475 8.1075L6.9 12.65L3.9675 11.9025C3.9675 11.9025 3.45 11.73 3.45 11.3275C3.45 10.9825 3.9675 10.81 3.9675 10.81L16.215 5.9225C16.215 5.9225 16.6175 5.8075 16.8475 5.8075C17.02 5.8075 17.1925 5.865 17.1925 6.095C17.25 6.21 17.25 6.325 17.25 6.325Z" fill="#696F8C"/>
</svg>
