<svg width="123" height="99" viewBox="0 0 123 99" fill="none" xmlns="http://www.w3.org/2000/svg">
<g clip-path="url(#clip0_543_804)">
<path d="M109.323 70.1843H13.6803C12.6281 70.1836 11.6193 69.7717 10.8751 69.0391C10.1308 68.3064 9.71199 67.3129 9.71045 66.2764V23.6282C9.71199 22.5914 10.1307 21.5976 10.8749 20.8645C11.619 20.1314 12.6279 19.7189 13.6803 19.7174H109.323C110.375 19.7189 111.384 20.1314 112.128 20.8645C112.872 21.5976 113.291 22.5914 113.292 23.6282V66.2764C113.291 67.3129 112.872 68.3064 112.128 69.0391C111.384 69.7717 110.375 70.1836 109.323 70.1843ZM13.6803 21.152C13.0139 21.1528 12.375 21.4139 11.9038 21.8781C11.4326 22.3423 11.1675 22.9717 11.1667 23.6282V66.2764C11.1675 66.9327 11.4327 67.5617 11.9039 68.0255C12.3752 68.4892 13.0141 68.7497 13.6803 68.7497H109.323C109.989 68.7497 110.628 68.4892 111.099 68.0255C111.57 67.5617 111.835 66.9327 111.836 66.2764V23.6282C111.835 22.9717 111.57 22.3423 111.099 21.8781C110.628 21.4139 109.989 21.1528 109.323 21.152H13.6803Z" fill="white"/>
<path d="M55.7053 57.0805C54.8575 57.0745 54.0461 56.7401 53.4466 56.1495C52.8471 55.5589 52.5076 54.7596 52.5015 53.9244V35.9917C52.4994 35.4358 52.6463 34.8893 52.9275 34.4073C53.2086 33.9254 53.614 33.5251 54.1026 33.247C54.5912 32.969 55.1456 32.8229 55.7099 32.8237C56.2741 32.8245 56.8282 32.9721 57.3159 33.2516L73.0641 42.2122C73.5537 42.4885 73.9606 42.8872 74.2435 43.3681C74.5265 43.849 74.6755 44.395 74.6755 44.9509C74.6755 45.5067 74.5265 46.0527 74.2435 46.5336C73.9606 47.0145 73.5537 47.4133 73.0641 47.6896L57.3101 56.6502C56.823 56.9303 56.2694 57.0788 55.7053 57.0805ZM55.7053 35.6962C55.6532 35.6973 55.6022 35.7111 55.5568 35.7363C55.5109 35.7617 55.4729 35.7989 55.4467 35.8438C55.4206 35.8888 55.4073 35.9399 55.4082 35.9917V53.9129C55.4065 53.9649 55.4192 54.0164 55.4449 54.0618C55.4706 54.1073 55.5083 54.145 55.5541 54.1709C55.5999 54.1968 55.6519 54.21 55.7047 54.2091C55.7575 54.2081 55.8091 54.193 55.8538 54.1654L71.6078 45.1962C71.6533 45.171 71.691 45.1343 71.7171 45.0899C71.7433 45.0455 71.7568 44.995 71.7564 44.9437C71.7573 44.8919 71.744 44.8408 71.7179 44.7958C71.6917 44.7509 71.6537 44.7137 71.6078 44.6883L55.8538 35.7277C55.8076 35.7055 55.7567 35.6947 55.7053 35.6962Z" fill="white"/>
<path d="M123.003 13.4194H120.09V5.68968C120.09 4.13456 118.634 2.86923 116.863 2.86923H6.13965C4.36008 2.86923 2.91255 4.13456 2.91255 5.68968V13.4194H0V5.68968C0 2.55361 2.75526 0 6.13965 0H116.863C120.248 0 123.003 2.55361 123.003 5.68968V13.4194Z" fill="white"/>
<path d="M119.476 80.1577H3.54175C1.59907 80.1577 0.0146484 78.6714 0.0146484 76.8409V11.9962H123.012V76.8409C123.003 78.6714 121.419 80.1577 119.476 80.1577ZM2.91554 14.854V76.8294C2.91554 77.0675 3.20681 77.277 3.5301 77.277H119.479C119.811 77.277 120.093 77.0733 120.093 76.8294V14.854H2.91554Z" fill="white"/>
<path d="M17.8685 8.65931C18.6181 8.65931 19.2257 8.10693 19.2257 7.42554C19.2257 6.74415 18.6181 6.19177 17.8685 6.19177C17.1189 6.19177 16.5112 6.74415 16.5112 7.42554C16.5112 8.10693 17.1189 8.65931 17.8685 8.65931Z" fill="white"/>
<path d="M11.4027 8.65931C12.1522 8.65931 12.7599 8.10693 12.7599 7.42554C12.7599 6.74415 12.1522 6.19177 11.4027 6.19177C10.6531 6.19177 10.0454 6.74415 10.0454 7.42554C10.0454 8.10693 10.6531 8.65931 11.4027 8.65931Z" fill="white"/>
<path d="M24.1278 8.65931C24.8773 8.65931 25.485 8.10693 25.485 7.42554C25.485 6.74415 24.8773 6.19177 24.1278 6.19177C23.3782 6.19177 22.7705 6.74415 22.7705 7.42554C22.7705 8.10693 23.3782 8.65931 24.1278 8.65931Z" fill="white"/>
<path d="M45.1911 91.7782C44.8049 91.7782 44.4345 91.627 44.1614 91.358C43.8883 91.089 43.7349 90.724 43.7349 90.3436V79.4175C43.7349 79.037 43.8883 78.6721 44.1614 78.4031C44.4345 78.134 44.8049 77.9829 45.1911 77.9829C45.5774 77.9829 45.9478 78.134 46.2209 78.4031C46.494 78.6721 46.6474 79.037 46.6474 79.4175V90.3436C46.6474 90.724 46.494 91.089 46.2209 91.358C45.9478 91.627 45.5774 91.7782 45.1911 91.7782Z" fill="white"/>
<path d="M77.8117 91.7782C77.4255 91.7782 77.0551 91.627 76.782 91.358C76.5089 91.089 76.3555 90.724 76.3555 90.3436V79.4175C76.3555 79.037 76.5089 78.6721 76.782 78.4031C77.0551 78.134 77.4255 77.9829 77.8117 77.9829C78.198 77.9829 78.5684 78.134 78.8415 78.4031C79.1146 78.6721 79.268 79.037 79.268 79.4175V90.3436C79.268 90.724 79.1146 91.089 78.8415 91.358C78.5684 91.627 78.198 91.7782 77.8117 91.7782Z" fill="white"/>
<path d="M83.8582 99H39.1447C38.3163 98.9985 37.5223 98.6737 36.9366 98.0966C36.3508 97.5196 36.0211 96.7374 36.0195 95.9213V91.9876C36.0203 91.1713 36.3498 90.3887 36.9357 89.8115C37.5216 89.2343 38.3161 88.9097 39.1447 88.9089H83.8582C84.6868 88.9097 85.4813 89.2343 86.0672 89.8115C86.6531 90.3887 86.9826 91.1713 86.9834 91.9876V95.9213C86.9818 96.7374 86.6521 97.5196 86.0663 98.0966C85.4806 98.6737 84.6866 98.9985 83.8582 99ZM39.1447 91.7782C39.0883 91.7782 39.0342 91.8002 38.9944 91.8395C38.9545 91.8788 38.9321 91.9321 38.9321 91.9876V95.9213C38.9321 95.9769 38.9545 96.0302 38.9944 96.0695C39.0342 96.1087 39.0883 96.1308 39.1447 96.1308H83.8582C83.9146 96.1308 83.9687 96.1087 84.0086 96.0695C84.0484 96.0302 84.0708 95.9769 84.0708 95.9213V91.9876C84.0708 91.9321 84.0484 91.8788 84.0086 91.8395C83.9687 91.8002 83.9146 91.7782 83.8582 91.7782H39.1447Z" fill="white"/>
</g>
<defs>
<clipPath id="clip0_543_804">
<rect width="123" height="99" fill="white"/>
</clipPath>
</defs>
</svg>
