<svg width="121" height="88" viewBox="0 0 121 88" fill="none" xmlns="http://www.w3.org/2000/svg">
<g clip-path="url(#clip0_543_248)">
<path d="M15.4055 8.38402C16.0518 8.38402 16.5757 7.8986 16.5757 7.2998C16.5757 6.701 16.0518 6.21558 15.4055 6.21558C14.7593 6.21558 14.2354 6.701 14.2354 7.2998C14.2354 7.8986 14.7593 8.38402 15.4055 8.38402Z" fill="white"/>
<path d="M9.83082 8.38402C10.4771 8.38402 11.001 7.8986 11.001 7.2998C11.001 6.701 10.4771 6.21558 9.83082 6.21558C9.18455 6.21558 8.66064 6.701 8.66064 7.2998C8.66064 7.8986 9.18455 8.38402 9.83082 8.38402Z" fill="white"/>
<path d="M20.8045 8.38402C21.4507 8.38402 21.9746 7.8986 21.9746 7.2998C21.9746 6.701 21.4507 6.21558 20.8045 6.21558C20.1582 6.21558 19.6343 6.701 19.6343 7.2998C19.6343 7.8986 20.1582 8.38402 20.8045 8.38402Z" fill="white"/>
<path d="M119.486 44.6777H118.23C118.172 44.6789 118.114 44.6594 118.068 44.6225C118.022 44.5857 117.991 44.5338 117.979 44.476C117.653 43.079 117.106 41.7434 116.359 40.5198C116.328 40.4695 116.315 40.4101 116.321 40.3511C116.327 40.2921 116.353 40.237 116.395 40.1946L117.261 39.3247C117.545 39.0388 117.704 38.6516 117.704 38.248C117.704 37.8444 117.545 37.4573 117.261 37.1714L115.209 35.1139C114.925 34.8298 114.54 34.6703 114.138 34.6703C113.737 34.6703 113.352 34.8298 113.067 35.1139L112.229 35.9535C112.189 35.9952 112.137 36.0221 112.081 36.0299C112.024 36.0377 111.966 36.0259 111.917 35.9964C110.692 35.2242 109.352 34.6539 107.947 34.307C107.888 34.2968 107.835 34.2658 107.797 34.2196C107.759 34.1733 107.738 34.1149 107.739 34.0549V32.8925C107.739 32.4912 107.58 32.1064 107.298 31.8227C107.015 31.539 106.632 31.3796 106.232 31.3796H106.046V12.5671V5.77432C106.046 3.01838 103.673 0.774292 100.756 0.774292H5.29341C2.37551 0.774292 0 3.01838 0 5.77432V12.5671V68.2911C0 69.8972 1.36604 71.2059 3.04094 71.2059H37.7092V78.8937H33.7492C33.0348 78.8944 32.3499 79.1797 31.8447 79.6869C31.3396 80.1942 31.0555 80.8819 31.0548 81.5993V85.0562C31.0555 85.7735 31.3396 86.4613 31.8447 86.9685C32.3499 87.4758 33.0348 87.761 33.7492 87.7617H72.3022C73.0166 87.761 73.7015 87.4758 74.2067 86.9685C74.7118 86.4613 74.9959 85.7735 74.9966 85.0562V81.6119C74.9959 80.8945 74.7118 80.2068 74.2067 79.6995C73.7015 79.1923 73.0166 78.907 72.3022 78.9063H68.3397V71.2185H102.993C104.67 71.2185 106.034 69.9098 106.034 68.3037V63.9416H106.22C106.619 63.9416 107.002 63.7822 107.285 63.4985C107.568 63.2147 107.726 62.8299 107.726 62.4287V61.2638C107.728 61.2042 107.75 61.1469 107.789 61.1012C107.827 61.0555 107.879 61.024 107.937 61.0117C109.341 60.6673 110.68 60.0995 111.905 59.3298C111.954 59.2994 112.012 59.2868 112.069 59.2941C112.126 59.3015 112.179 59.3283 112.219 59.3702L113.057 60.2149C113.198 60.3574 113.364 60.4706 113.549 60.5479C113.733 60.6251 113.93 60.6649 114.13 60.6649C114.329 60.6649 114.527 60.6251 114.711 60.5479C114.895 60.4706 115.062 60.3574 115.202 60.2149L117.253 58.1548C117.395 58.0142 117.507 57.8467 117.584 57.6621C117.661 57.4775 117.7 57.2795 117.7 57.0794C117.7 56.8794 117.661 56.6814 117.584 56.4968C117.507 56.3122 117.395 56.1447 117.253 56.0041L116.387 55.1342C116.346 55.0913 116.32 55.0355 116.314 54.976C116.308 54.9165 116.322 54.8567 116.354 54.8064C117.111 53.5774 117.668 52.2351 118.004 50.83C118.017 50.7727 118.048 50.7214 118.094 50.6851C118.14 50.6487 118.197 50.6296 118.255 50.6309H119.511C119.911 50.6309 120.294 50.4715 120.576 50.1877C120.859 49.904 121.018 49.5192 121.018 49.118V46.1982C121.019 45.9967 120.98 45.7971 120.903 45.611C120.826 45.4249 120.713 45.2561 120.57 45.1145C120.427 44.9728 120.258 44.8613 120.072 44.7863C119.886 44.7113 119.686 44.6744 119.486 44.6777ZM119.737 49.1129C119.737 49.1798 119.71 49.2439 119.663 49.2912C119.616 49.3385 119.552 49.3651 119.486 49.3651H118.23C117.891 49.3659 117.561 49.4819 117.295 49.6942C117.03 49.9066 116.843 50.2029 116.766 50.535C116.468 51.802 115.972 53.0138 115.297 54.1256C115.117 54.4165 115.04 54.7603 115.08 55.1007C115.12 55.441 115.273 55.7577 115.516 55.999L116.382 56.8689C116.43 56.9184 116.457 56.9849 116.457 57.0542C116.457 57.1235 116.43 57.1901 116.382 57.2396L114.331 59.2996C114.281 59.3479 114.214 59.375 114.145 59.3752C114.111 59.3758 114.077 59.3693 114.045 59.3563C114.014 59.3433 113.985 59.324 113.961 59.2996L113.123 58.4549C112.883 58.2106 112.567 58.0555 112.227 58.0152C111.888 57.9749 111.545 58.0517 111.254 58.233C110.144 58.9337 108.928 59.4504 107.653 59.7635C107.321 59.8407 107.024 60.0293 106.811 60.2982C106.599 60.5672 106.484 60.9005 106.486 61.2436V62.4287C106.486 62.4956 106.459 62.5597 106.412 62.607C106.365 62.6543 106.301 62.6808 106.235 62.6808H103.131C103.064 62.6808 103.001 62.6543 102.953 62.607C102.906 62.5597 102.88 62.4956 102.88 62.4287V61.2638C102.881 60.9207 102.766 60.5873 102.554 60.3184C102.342 60.0494 102.045 59.8609 101.712 59.7837C100.437 59.4702 99.2208 58.9534 98.1088 58.2532C97.819 58.0731 97.477 57.997 97.1386 58.0373C96.8002 58.0776 96.4854 58.232 96.2455 58.4751L95.4043 59.3198C95.355 59.3683 95.2888 59.3954 95.2198 59.3954C95.1507 59.3954 95.0845 59.3683 95.0352 59.3198L92.9861 57.2597C92.9606 57.2361 92.9403 57.2075 92.9264 57.1756C92.9125 57.1437 92.9053 57.1092 92.9053 57.0744C92.9053 57.0396 92.9125 57.0051 92.9264 56.9732C92.9403 56.9413 92.9606 56.9127 92.9861 56.8891L93.8525 56.0192C94.0944 55.7776 94.2475 55.4607 94.2868 55.1204C94.326 54.7801 94.249 54.4364 94.0684 54.1458C93.3942 53.0346 92.8985 51.8237 92.5994 50.5577C92.523 50.2255 92.3371 49.929 92.0718 49.7162C91.8066 49.5034 91.4775 49.3867 91.138 49.3853H89.8824C89.8158 49.3853 89.7519 49.3587 89.7048 49.3114C89.6578 49.2641 89.6313 49.2 89.6313 49.1331V46.1982C89.6313 46.1313 89.6578 46.0672 89.7048 46.0199C89.7519 45.9726 89.8158 45.946 89.8824 45.946H91.138C91.4772 45.9447 91.806 45.8284 92.0712 45.6161C92.3364 45.4038 92.5225 45.1078 92.5994 44.7761C92.8982 43.5096 93.3931 42.298 94.0659 41.1855C94.2475 40.8949 94.3252 40.5509 94.2864 40.21C94.2476 39.8691 94.0946 39.5516 93.8525 39.3096L92.9861 38.4397C92.961 38.4161 92.941 38.3876 92.9274 38.3559C92.9137 38.3242 92.9067 38.2901 92.9067 38.2556C92.9067 38.2211 92.9137 38.1869 92.9274 38.1553C92.941 38.1236 92.961 38.0951 92.9861 38.0715L95.0352 36.014C95.0587 35.9884 95.0872 35.968 95.119 35.954C95.1508 35.9401 95.1851 35.9329 95.2198 35.9329C95.2544 35.9329 95.2888 35.9401 95.3205 35.954C95.3523 35.968 95.3808 35.9884 95.4043 36.014L96.2455 36.8562C96.4855 37.0999 96.8008 37.2546 97.1398 37.2949C97.4787 37.3352 97.8213 37.2588 98.1113 37.0781C99.2226 36.3788 100.438 35.8629 101.712 35.5501C102.046 35.4728 102.343 35.2839 102.555 35.0144C102.767 34.745 102.882 34.411 102.88 34.0675V32.9051C102.88 32.8382 102.906 32.7741 102.953 32.7268C103.001 32.6795 103.064 32.6529 103.131 32.6529H106.235C106.301 32.6529 106.365 32.6795 106.412 32.7268C106.459 32.7741 106.486 32.8382 106.486 32.9051V34.0675C106.484 34.4106 106.599 34.7439 106.811 35.0129C107.024 35.2818 107.321 35.4704 107.653 35.5476C108.928 35.8626 110.145 36.3802 111.257 37.0806C111.547 37.2606 111.889 37.3367 112.227 37.2964C112.566 37.2561 112.88 37.1018 113.12 36.8587L113.961 36.0165C113.985 35.991 114.013 35.9705 114.045 35.9566C114.077 35.9426 114.111 35.9354 114.146 35.9354C114.181 35.9354 114.215 35.9426 114.247 35.9566C114.278 35.9705 114.307 35.991 114.331 36.0165L116.38 38.074C116.405 38.0976 116.425 38.1261 116.438 38.1578C116.452 38.1895 116.459 38.2236 116.459 38.2581C116.459 38.2926 116.452 38.3268 116.438 38.3584C116.425 38.3901 116.405 38.4186 116.38 38.4422L115.513 39.3121C115.27 39.5535 115.116 39.8707 115.077 40.2116C115.037 40.5525 115.114 40.8968 115.295 41.188C115.969 42.2985 116.464 43.5084 116.764 44.7735C116.84 45.1066 117.026 45.404 117.292 45.6174C117.557 45.8308 117.887 45.9475 118.228 45.9485H119.483C119.55 45.9485 119.614 45.9751 119.661 46.0224C119.708 46.0697 119.734 46.1338 119.734 46.2007L119.737 49.1129ZM5.29341 3.29574H100.756C102.29 3.29574 103.535 4.40769 103.535 5.77432V11.3064H2.5111V5.77432C2.5111 4.40769 3.74908 3.29574 5.29341 3.29574ZM72.483 81.6119V85.0688C72.483 85.1176 72.4637 85.1644 72.4293 85.1989C72.3949 85.2335 72.3483 85.2528 72.2997 85.2528H33.7492C33.7006 85.2528 33.654 85.2335 33.6196 85.1989C33.5852 85.1644 33.5659 85.1176 33.5659 85.0688V81.6119C33.5659 81.5631 33.5852 81.5162 33.6196 81.4817C33.654 81.4472 33.7006 81.4278 33.7492 81.4278H72.3022C72.3504 81.4285 72.3964 81.4482 72.4302 81.4826C72.464 81.517 72.483 81.5635 72.483 81.6119ZM65.8286 78.9063H40.2153V71.2185H65.8286V78.9063ZM103.535 68.3037C103.535 68.5129 103.284 68.697 103.005 68.697H3.04094C2.7597 68.697 2.5111 68.5129 2.5111 68.3037V13.8404H103.535V31.3872H103.128C102.729 31.3872 102.346 31.5466 102.063 31.8303C101.781 32.114 101.622 32.4988 101.622 32.9V34.0624C101.62 34.1217 101.598 34.1787 101.561 34.2243C101.523 34.27 101.471 34.3017 101.413 34.3146C100.01 34.6591 98.67 35.2278 97.4459 35.9989C97.3966 36.029 97.3385 36.0412 97.2813 36.0334C97.2242 36.0256 97.1714 35.9983 97.132 35.956L96.2882 35.1114C96.0033 34.8279 95.6184 34.6688 95.2173 34.6688C94.8161 34.6688 94.4312 34.8279 94.1463 35.1114L92.0947 37.1714C91.9531 37.3121 91.8407 37.4795 91.764 37.6641C91.6872 37.8487 91.6478 38.0467 91.6478 38.2468C91.6478 38.4468 91.6872 38.6448 91.764 38.8294C91.8407 39.014 91.9531 39.1815 92.0947 39.3222L92.961 40.1895C93.0024 40.2331 93.028 40.2892 93.0339 40.3491C93.0398 40.4089 93.0257 40.469 92.9937 40.5198C92.2509 41.7453 91.7044 43.0803 91.374 44.476C91.3617 44.5333 91.33 44.5846 91.2841 44.621C91.2383 44.6573 91.1813 44.6765 91.1229 44.6752H89.8673C89.4677 44.6752 89.0845 44.8346 88.802 45.1183C88.5194 45.402 88.3607 45.7868 88.3607 46.1881V49.1029C88.3607 49.5041 88.5194 49.8889 88.802 50.1726C89.0845 50.4563 89.4677 50.6157 89.8673 50.6157H91.1229C91.1816 50.6145 91.2389 50.6341 91.2848 50.6709C91.3307 50.7078 91.3623 50.7596 91.374 50.8174C91.7053 52.212 92.2518 53.546 92.9937 54.7711C93.0251 54.8217 93.0388 54.8812 93.0329 54.9405C93.027 54.9998 93.0018 55.0555 92.961 55.0989L92.0947 55.9688C91.9531 56.1094 91.8407 56.2769 91.764 56.4615C91.6872 56.6461 91.6478 56.8441 91.6478 57.0442C91.6478 57.2442 91.6872 57.4422 91.764 57.6268C91.8407 57.8114 91.9531 57.9789 92.0947 58.1195L94.1463 60.1821C94.4313 60.4663 94.8168 60.6258 95.2185 60.6258C95.6202 60.6258 96.0057 60.4663 96.2908 60.1821L97.132 59.3374C97.1713 59.2958 97.2235 59.2688 97.2801 59.261C97.3368 59.2532 97.3943 59.2651 97.4433 59.2945C98.6669 60.0669 100.007 60.6356 101.411 60.9789C101.469 60.9916 101.521 61.0233 101.559 61.0689C101.597 61.1145 101.619 61.1715 101.622 61.231V62.4287C101.622 62.8299 101.781 63.2147 102.063 63.4985C102.346 63.7822 102.729 63.9416 103.128 63.9416H103.535V68.3037Z" fill="white"/>
<path d="M106.046 40.4594C105.218 40.2993 104.368 40.2857 103.535 40.419C101.821 40.6944 100.261 41.5743 99.134 42.9008C98.0075 44.2273 97.3887 45.9135 97.3887 47.6568C97.3887 49.4001 98.0075 51.0864 99.134 52.4129C100.261 53.7394 101.821 54.6193 103.535 54.8946C104.368 55.028 105.218 55.0143 106.046 54.8543C107.714 54.5347 109.219 53.6411 110.301 52.3273C111.384 51.0135 111.976 49.3619 111.976 47.6568C111.976 45.9518 111.384 44.3001 110.301 42.9864C109.219 41.6726 107.714 40.7789 106.046 40.4594ZM106.046 53.5709C105.599 53.6776 105.14 53.731 104.68 53.7297C104.296 53.73 103.913 53.6929 103.535 53.6188C102.157 53.3519 100.914 52.6114 100.02 51.5243C99.1262 50.4373 98.6373 49.0716 98.6373 47.6619C98.6373 46.2522 99.1262 44.8865 100.02 43.7994C100.914 42.7124 102.157 41.9718 103.535 41.705C103.913 41.6309 104.296 41.5937 104.68 41.594C105.14 41.5928 105.599 41.6461 106.046 41.7529C107.377 42.061 108.565 42.8131 109.415 43.8863C110.266 44.9595 110.729 46.2904 110.729 47.6619C110.729 49.0333 110.266 50.3643 109.415 51.4375C108.565 52.5107 107.377 53.2627 106.046 53.5709Z" fill="white"/>
<path d="M84.5363 40.1693L65.703 29.2515C65.5602 29.1674 65.4022 29.1125 65.2381 29.09C65.0741 29.0675 64.9072 29.0777 64.7471 29.1202C64.5871 29.1627 64.4369 29.2366 64.3054 29.3376C64.1739 29.4386 64.0635 29.5647 63.9807 29.7087C63.8979 29.8527 63.8443 30.0117 63.823 30.1766C63.8016 30.3415 63.813 30.509 63.8564 30.6694C63.8998 30.8299 63.9743 30.9801 64.0758 31.1115C64.1772 31.2429 64.3035 31.3529 64.4475 31.4351L81.3974 41.2687L64.4475 51.1023C64.208 51.2412 64.0208 51.4556 63.9151 51.7123C63.8094 51.9689 63.791 52.2534 63.8629 52.5216C63.9347 52.7898 64.0928 53.0267 64.3125 53.1955C64.5321 53.3642 64.8012 53.4554 65.0778 53.4548C65.2974 53.4552 65.5132 53.3969 65.703 53.2859L84.5363 42.3681C84.7272 42.2574 84.8856 42.0982 84.9958 41.9066C85.106 41.7149 85.164 41.4976 85.164 41.2763C85.164 41.055 85.106 40.8376 84.9958 40.6459C84.8856 40.4543 84.7272 40.2951 84.5363 40.1845V40.1693Z" fill="white"/>
<path d="M42.0608 29.713C41.8943 29.4234 41.6201 29.2121 41.2985 29.1256C40.9768 29.0391 40.6341 29.0844 40.3458 29.2515L21.5125 40.1694C21.3216 40.2801 21.1631 40.4392 21.053 40.6309C20.9428 40.8225 20.8848 41.0399 20.8848 41.2612C20.8848 41.4825 20.9428 41.6999 21.053 41.8915C21.1631 42.0832 21.3216 42.2423 21.5125 42.353L40.3458 53.2708C40.5353 53.3824 40.7513 53.4408 40.971 53.4398C41.2476 53.4403 41.5166 53.3491 41.7363 53.1804C41.956 53.0117 42.1141 52.7748 42.1859 52.5066C42.2578 52.2384 42.2394 51.9539 42.1337 51.6972C42.028 51.4406 41.8408 51.2262 41.6013 51.0873L24.6514 41.2536L41.6013 31.42C41.8856 31.2529 42.0931 30.9803 42.1791 30.6609C42.265 30.3416 42.2226 30.0011 42.0608 29.713Z" fill="white"/>
<path d="M55.8041 27.5092C55.6419 27.4785 55.4752 27.4803 55.3136 27.5144C55.1521 27.5485 54.9988 27.6143 54.8626 27.708C54.7264 27.8017 54.6099 27.9214 54.5198 28.0604C54.4297 28.1993 54.3678 28.3547 54.3377 28.5177L49.672 53.5456C49.6415 53.7085 49.6433 53.8759 49.6773 54.0381C49.7113 54.2004 49.7768 54.3543 49.8701 54.4911C49.9634 54.6278 50.0826 54.7448 50.221 54.8352C50.3594 54.9257 50.5141 54.9878 50.6765 55.0181C50.7528 55.031 50.8301 55.0377 50.9075 55.0383C51.2002 55.038 51.4836 54.9351 51.7088 54.7472C51.9339 54.5594 52.0866 54.2985 52.1404 54.0096L56.8061 28.9817C56.8366 28.8189 56.8349 28.6517 56.8011 28.4896C56.7673 28.3275 56.702 28.1737 56.6089 28.037C56.5159 27.9002 56.3969 27.7832 56.2588 27.6927C56.1207 27.6021 55.9662 27.5397 55.8041 27.5092Z" fill="white"/>
</g>
<defs>
<clipPath id="clip0_543_248">
<rect width="121" height="87" fill="white" transform="translate(0 0.774292)"/>
</clipPath>
</defs>
</svg>
