<svg width="23" height="23" viewBox="0 0 23 23" fill="none" xmlns="http://www.w3.org/2000/svg">
<path d="M7.78139 5.05664L17.4462 17.9402H15.2591L5.59155 5.05664H7.78139Z" fill="#696F8C"/>
<path d="M20.3185 0.0336914H2.68154C1.20105 0.0336914 0 1.23123 0 2.70739V20.2927C0 21.7689 1.20105 22.9664 2.68154 22.9664H20.3185C21.7989 22.9664 23 21.7689 23 20.2927V2.70739C23 1.22855 21.7989 0.0336914 20.3185 0.0336914ZM14.7404 18.9693L10.3393 13.1021L4.89287 18.9693H3.49568L9.71589 12.2689L3.5333 4.02816H8.2972L12.3491 9.43182L17.3655 4.02816H18.7654L12.9751 10.265L19.5043 18.9693H14.7404Z" fill="#696F8C"/>
</svg>
